<svg width="16" height="16" viewBox="0 0 16 16" fill="none" xmlns="http://www.w3.org/2000/svg">
<g clip-path="url(#clip0_6_505)">
<path d="M2.98012 8.70039L5.91362 1.13389L5.60712 0.847391C5.47662 0.725391 5.30062 0.650391 5.10712 0.650391C4.89712 0.650391 4.70762 0.738891 4.57412 0.880391L0.200119 5.52739C0.0671191 5.65939 -0.0153809 5.84189 -0.0153809 6.04389C-0.0153809 6.24589 0.0671191 6.42889 0.200119 6.56039L2.28662 8.52039C2.41812 8.64639 2.59712 8.72439 2.79412 8.72439C2.86012 8.72439 2.92412 8.71589 2.98512 8.69939L2.98012 8.70039Z" fill="black"/>
<path d="M8.98012 2.24689L7.64662 1.72689C7.56862 1.69589 7.47812 1.67839 7.38412 1.67839C7.07412 1.67839 6.80962 1.87039 6.70212 2.14189L6.70062 2.14689L3.48062 10.4734C3.45012 10.5509 3.43212 10.6404 3.43212 10.7344C3.43212 11.0429 3.62412 11.3064 3.89562 11.4119L3.90062 11.4134L7.23412 12.6934C7.31162 12.7239 7.40112 12.7419 7.49512 12.7419C7.80362 12.7419 8.06712 12.5499 8.17262 12.2784L8.17412 12.2734L9.01412 10.1069L8.98012 2.24689Z" fill="black"/>
<path d="M10.9466 1.98039H15.0331C15.5671 1.98039 15.9996 2.41339 15.9996 2.94689V14.3869C15.9996 14.9209 15.5666 15.3534 15.0331 15.3534H10.9466C10.4126 15.3534 9.98012 14.9204 9.98012 14.3869V2.94689C9.98012 2.41289 10.4131 1.98039 10.9466 1.98039Z" fill="black"/>
</g>
<defs>
<clipPath id="clip0_6_505">
<rect width="16" height="16" fill="white"/>
</clipPath>
</defs>
</svg>
