<svg width="16" height="16" viewBox="0 0 16 16" fill="none" xmlns="http://www.w3.org/2000/svg">
<g clip-path="url(#clip0_6_216)">
<path d="M9.79354 2.97302C10.0215 3.10702 10.296 3.18602 10.589 3.18602C11.469 3.18602 12.1825 2.47252 12.1825 1.59252C12.1825 0.712523 11.469 -0.000976562 10.589 -0.000976562C10.001 -0.000976562 9.48704 0.318023 9.21104 0.792023L9.20704 0.799523C9.07403 1.02702 8.99604 1.30052 8.99604 1.59252C8.99604 2.17952 9.31354 2.69252 9.78654 2.96902L9.79354 2.97302Z" fill="black"/>
<path d="M16 12.666H15.6735C14.831 12.7215 14.068 13.021 13.443 13.4935L13.4535 13.486C13.0715 13.8055 12.575 13.9995 12.0335 13.9995C12.022 13.9995 12.01 13.9995 11.9985 13.999H12.0005C11.997 13.999 11.9925 13.999 11.988 13.999C11.754 13.999 11.529 13.96 11.319 13.888L11.3335 13.8925V10.7525C11.3335 10.749 11.3335 10.745 11.3335 10.741C11.3335 10.0265 11.043 9.37952 10.5735 8.91252L9.16004 7.49902L9.72004 6.60552C9.75254 6.55252 9.78604 6.48902 9.81554 6.42352L9.82003 6.41252L10.92 7.33252C11.335 7.66102 11.866 7.85902 12.4435 7.85902H12.451C12.7865 7.85902 13.106 7.79052 13.396 7.66652L13.3805 7.67252L15.454 6.82602L14.8205 5.28602L12.747 6.09952C12.6545 6.13952 12.547 6.16302 12.4335 6.16302C12.25 6.16302 12.0805 6.10152 11.945 5.99802L11.947 5.99952L6.82704 1.99952C6.41304 1.67252 5.88404 1.47502 5.30904 1.47502C4.95404 1.47502 4.61654 1.55002 4.31154 1.68552L4.32704 1.67952L2.13354 2.59302L2.80003 4.11952L4.98654 3.17302C5.07954 3.13302 5.18804 3.10952 5.30204 3.10952C5.49054 3.10952 5.66404 3.17352 5.80204 3.28102L5.80004 3.27952L6.72654 3.99952C6.56154 4.13452 6.42004 4.29052 6.30454 4.46502L5.57304 5.63952C5.38204 5.94052 5.26854 6.30702 5.26854 6.70052C5.26854 7.00502 5.33654 7.29352 5.45804 7.55202L5.45304 7.54002L4.99304 8.15352C4.82104 8.37702 4.55353 8.51952 4.25304 8.52002H1.46604V10.1865H4.25254C5.09654 10.185 5.84604 9.78252 6.32104 9.15952L6.32554 9.15302L6.72554 8.61952C6.89604 8.67352 7.09204 8.70452 7.29554 8.70452C7.49903 8.70452 7.69503 8.67352 7.87954 8.61602L7.86554 8.61952L9.33204 10.093C9.50103 10.26 9.60554 10.4915 9.60554 10.7475C9.60554 10.752 9.60554 10.756 9.60554 10.7605V12.9865C9.21354 12.8195 8.75853 12.7115 8.28203 12.687L8.27254 12.6865L7.99903 12.6665H7.67904C6.83454 12.721 6.06854 13.0205 5.44204 13.494L5.45254 13.4865C5.07404 13.806 4.58053 14 4.04204 14C4.02704 14 4.01203 14 3.99704 13.9995H3.99904C3.98504 14 3.96803 14 3.95153 14C3.42104 14 2.93454 13.811 2.55554 13.4965L2.55904 13.4995C1.94404 13.0285 1.17854 12.7245 0.345035 12.667L0.332035 12.6665H-0.00146484V14.6665C0.0190352 14.666 0.0425352 14.666 0.0665352 14.666C1.00454 14.666 1.86904 14.9795 2.56154 15.5075L2.55154 15.5C2.92654 15.8115 3.41303 16.0005 3.94404 16.0005C3.96304 16.0005 3.98204 16 4.00104 16H3.99803C4.01354 16.0005 4.03154 16.0005 4.05004 16.0005C4.58154 16.0005 5.06904 15.8115 5.44854 15.497L5.44504 15.5C6.12754 14.9795 6.99203 14.666 7.93004 14.666C7.95404 14.666 7.97803 14.666 8.00204 14.6665H7.99854C8.02003 14.666 8.04554 14.666 8.07104 14.666C9.00954 14.666 9.87504 14.9795 10.5685 15.5075L10.5585 15.5C10.9345 15.8115 11.4215 16.0005 11.953 16.0005C11.969 16.0005 11.985 16.0005 12.001 16H11.9985C12.011 16.0005 12.026 16.0005 12.041 16.0005C12.5755 16.0005 13.066 15.8115 13.449 15.497L13.445 15.5C14.125 14.9795 14.988 14.666 15.9235 14.666C15.95 14.666 15.976 14.666 16.002 14.6665H15.998V12.6665L16 12.666Z" fill="black"/>
</g>
<defs>
<clipPath id="clip0_6_216">
<rect width="16" height="16" fill="white"/>
</clipPath>
</defs>
</svg>
