<svg width="16" height="16" viewBox="0 0 16 16" fill="none" xmlns="http://www.w3.org/2000/svg">
<g clip-path="url(#clip0_6_233)">
<path d="M15.9467 12.7132C15.2722 11.4572 14.5717 10.3817 13.7922 9.37116L13.8332 9.42666C13.8332 9.42666 14.5932 7.00666 15.6932 7.00666L13.7467 5.53316C13.6757 5.51516 13.5947 5.50466 13.5107 5.50466C13.1967 5.50466 12.9167 5.65016 12.7347 5.87766L12.7332 5.87966C12.5422 6.14366 12.3687 6.44366 12.2262 6.76066L12.2132 6.79316C11.9697 6.29816 11.6762 5.87266 11.3297 5.49616L11.3332 5.50016C12.0247 4.56916 12.5627 3.47666 12.8842 2.29516L12.9002 2.22716C13.3667 0.520664 14.5002 0.313664 14.5002 0.313664C14.1602 0.112164 13.7512 -0.00683594 13.3142 -0.00683594C12.6392 -0.00683594 12.0307 0.277164 11.6012 0.732664L11.6002 0.733664C10.0402 0.593664 10.4067 1.82716 10.4067 1.82716C11.1532 1.42716 11.3002 2.16066 11.3002 2.16066C11.3337 2.31066 11.3527 2.48266 11.3527 2.65916C11.3527 3.49566 10.9247 4.23216 10.2757 4.66166L10.2667 4.66716C9.9307 4.47516 9.5422 4.31766 9.1322 4.21416L9.1002 4.20716C9.1732 4.07416 9.2172 3.91616 9.2202 3.74816V3.74716C9.1817 3.14166 8.6812 2.66516 8.0692 2.66516C8.0452 2.66516 8.0207 2.66616 7.9972 2.66716H8.0007C7.9797 2.66566 7.9557 2.66516 7.9307 2.66516C7.3237 2.66516 6.8257 3.13466 6.7807 3.73016V3.73416C6.7837 3.90316 6.8277 4.06116 6.9032 4.19966L6.9007 4.19416C6.4577 4.30916 6.0697 4.47116 5.7117 4.67966L5.7337 4.66766C5.0757 4.23266 4.6482 3.49616 4.6482 2.65966C4.6482 2.48316 4.6672 2.31116 4.7037 2.14516L4.7007 2.16116C4.7007 2.16116 4.8472 1.42766 5.5942 1.82766C5.5942 1.82766 5.9607 0.594164 4.4007 0.734164C3.9707 0.277664 3.3617 -0.00633594 2.6867 -0.00633594C2.2497 -0.00633594 1.8402 0.112664 1.4897 0.320164L1.5007 0.314164C1.5007 0.314164 2.6672 0.520664 3.1007 2.22766C3.4377 3.47766 3.9757 4.56966 4.6857 5.52716L4.6672 5.50116C4.3242 5.87366 4.0307 6.29966 3.8012 6.76266L3.7872 6.79416C3.6317 6.44466 3.4582 6.14466 3.2567 5.86566L3.2672 5.88066C3.0837 5.65116 2.8037 5.50566 2.4897 5.50566C2.4062 5.50566 2.3247 5.51616 2.2472 5.53566L2.2542 5.53416L0.307704 7.00766C1.4077 7.00766 2.1677 9.42766 2.1677 9.42766C1.4292 10.3832 0.728704 11.4582 0.116704 12.5882L0.0542038 12.7142C-0.199296 13.4942 0.560704 14.7877 0.560704 14.7877L4.3607 8.78766C5.4517 8.47366 6.7052 8.29266 8.0007 8.29266C9.2962 8.29266 10.5497 8.47316 11.7367 8.81116L11.6407 8.78766L15.4407 14.7877C15.4407 14.7877 16.2007 13.4942 15.9472 12.7142L15.9467 12.7132Z" fill="black"/>
<path d="M11.1602 9.77316C10.5667 9.85966 10.5667 10.8132 9.8267 10.6397C9.3822 10.4907 8.9997 10.2632 8.6772 9.97066L8.6797 9.97316C8.5027 9.81766 8.2687 9.72316 8.0132 9.72316C7.7577 9.72316 7.5237 9.81816 7.3452 9.97416L7.3462 9.97316C7.0212 10.2657 6.6317 10.4937 6.2022 10.6337L6.1797 10.6402C5.4197 10.8137 5.4197 9.86016 4.8462 9.77366C4.2727 9.68716 3.9062 10.6672 3.9062 10.6672C3.9062 10.6672 4.4997 14.2737 5.3327 15.0472C6.1657 15.8207 7.9992 16.0007 7.9992 16.0007C7.9992 16.0007 9.7927 15.8272 10.6657 15.0472C11.5387 14.2672 12.0922 10.6672 12.0922 10.6672C12.0922 10.6672 11.7522 9.68716 11.1587 9.77366L11.1602 9.77316ZM9.6937 14.3597C9.5427 14.3562 9.3987 14.3322 9.2627 14.2902L9.2737 14.2932C8.8927 14.1757 8.4542 14.1082 8.0002 14.1082C7.5462 14.1082 7.1082 14.1757 6.6952 14.3017L6.7267 14.2932C6.6017 14.3322 6.4577 14.3567 6.3087 14.3597H6.3067C5.5467 14.3597 6.1467 12.6332 6.5602 12.7132C7.3202 12.8667 8.0002 12.9397 8.0002 12.9397C8.0002 12.9397 8.6667 12.8662 9.4402 12.7132C9.8537 12.6667 10.4537 14.3597 9.6937 14.3597Z" fill="black"/>
</g>
<defs>
<clipPath id="clip0_6_233">
<rect width="16" height="16" fill="white"/>
</clipPath>
</defs>
</svg>
