<svg width="16" height="16" viewBox="0 0 16 16" fill="none" xmlns="http://www.w3.org/2000/svg">
<g clip-path="url(#clip0_6_365)">
<path d="M15.1074 1.90302H8.76188V0.728516H7.23788V1.90302H0.892381V3.42702H2.84188C2.17688 4.82502 0.892381 7.63752 0.892381 8.60602C0.890881 8.63552 0.890381 8.67052 0.890381 8.70502C0.890381 9.99802 1.93838 11.046 3.23138 11.046C4.52438 11.046 5.57238 9.99802 5.57238 8.70502C5.57238 8.67002 5.57138 8.63552 5.56988 8.60102V8.60602C5.56988 7.65002 4.28588 4.81652 3.62038 3.42702H7.23738V13.747H4.20988V15.271H11.7889V13.747H8.76138V3.42702H12.3784C11.7129 4.82502 10.4289 7.63752 10.4289 8.60602C10.4274 8.63552 10.4269 8.67052 10.4269 8.70502C10.4269 9.99802 11.4749 11.046 12.7679 11.046C14.0609 11.046 15.1089 9.99802 15.1089 8.70502C15.1089 8.67002 15.1079 8.63552 15.1064 8.60102V8.60602C15.1064 7.65002 13.8224 4.81652 13.1569 3.42702H15.1064L15.1074 1.90302ZM2.00838 8.35352C2.00838 7.68002 3.23338 5.22502 3.23338 5.22502C3.23338 5.22502 4.45438 7.67952 4.45438 8.35352H2.00838ZM11.5449 8.35352C11.5449 7.68002 12.7659 5.22502 12.7659 5.22502C12.7659 5.22502 13.9909 7.67952 13.9909 8.35352H11.5449Z" fill="black"/>
</g>
<defs>
<clipPath id="clip0_6_365">
<rect width="16" height="16" fill="white"/>
</clipPath>
</defs>
</svg>
