<svg width="16" height="16" viewBox="0 0 16 16" fill="none" xmlns="http://www.w3.org/2000/svg">
<path d="M5.7935 1.5464C2.5935 1.5464 0 3.7064 0 6.3729C0.043 7.8914 0.8185 9.2204 1.9845 10.0229L2 10.0329C2.101 10.0994 2.1665 10.2119 2.1665 10.3404C2.1665 10.3424 2.1665 10.3444 2.1665 10.3469C2.168 10.3649 2.169 10.3854 2.169 10.4064C2.169 10.4274 2.168 10.4484 2.1665 10.4689V10.4664C2.0665 10.8329 1.9065 11.4129 1.9065 11.4464C1.8855 11.4869 1.873 11.5349 1.873 11.5854C1.873 11.5859 1.873 11.5859 1.873 11.5864C1.873 11.6894 1.9565 11.7729 2.0595 11.7729C2.062 11.7729 2.064 11.7729 2.0665 11.7729C2.1065 11.7709 2.1425 11.7589 2.1735 11.7389L2.1725 11.7394L3.439 11.0059C3.529 10.9539 3.6365 10.9219 3.7515 10.9194H3.7525C3.7775 10.9149 3.8065 10.9124 3.836 10.9124C3.8655 10.9124 3.8945 10.9149 3.9225 10.9199L3.9195 10.9194C4.4865 11.0864 5.138 11.1839 5.8115 11.1859H6.0995C5.9645 10.8149 5.886 10.3869 5.886 9.9409C5.886 9.9404 5.886 9.9399 5.886 9.9394C5.886 7.4594 8.266 5.4394 11.2195 5.4394H11.526C10.966 3.2394 8.6195 1.5459 5.7925 1.5459L5.7935 1.5464ZM3.86 5.5864C3.454 5.5644 3.1335 5.2299 3.1335 4.8209C3.1335 4.3974 3.4765 4.0544 3.9 4.0544C4.3235 4.0544 4.666 4.3969 4.6665 4.8199C4.6665 4.8194 4.6665 4.8204 4.6665 4.8199C4.6665 5.2434 4.323 5.5874 3.9 5.5874C3.886 5.5874 3.872 5.5869 3.858 5.5864H3.86ZM7.74 5.5864C7.3165 5.5864 6.9735 5.2429 6.9735 4.8199C6.9735 4.3969 7.317 4.0534 7.74 4.0534C8.1635 4.0534 8.5065 4.3969 8.5065 4.8199C8.5065 5.2434 8.1635 5.5864 7.74 5.5864Z" fill="black"/>
<path d="M14.3335 12.9934C15.318 12.3234 15.965 11.2209 16 9.9654V9.9604C16 7.7404 13.84 5.9604 11.1735 5.9604C8.507 5.9604 6.347 7.7604 6.347 9.9604C6.347 12.1604 8.5135 13.9604 11.1735 13.9604C11.1745 13.9604 11.1755 13.9604 11.177 13.9604C11.7385 13.9604 12.2815 13.8799 12.7945 13.7304L12.754 13.7404C12.796 13.7279 12.844 13.7204 12.8935 13.7204C12.99 13.7204 13.08 13.7474 13.156 13.7949L14.207 14.4004C14.2335 14.4174 14.265 14.4294 14.299 14.4334H14.3C14.389 14.4299 14.46 14.3564 14.46 14.2669C14.462 14.2499 14.463 14.2304 14.463 14.2104C14.463 14.1904 14.462 14.1709 14.46 14.1514V14.1539L14.2135 13.3339C14.212 13.3189 14.211 13.3014 14.211 13.2839C14.211 13.2664 14.212 13.2489 14.2135 13.2319V13.2339C14.2175 13.1369 14.263 13.0514 14.333 12.9944L14.3335 12.9934ZM9.6 9.3864C9.232 9.3864 8.9335 9.0879 8.9335 8.7199C8.9335 8.3519 9.232 8.0534 9.6 8.0534C9.6485 8.0409 9.7045 8.0334 9.762 8.0334C10.13 8.0334 10.4285 8.3319 10.4285 8.6999C10.4285 9.0679 10.13 9.3664 9.762 9.3664C9.7045 9.3664 9.6485 9.3589 9.5955 9.3454L9.6 9.3464V9.3864ZM12.8335 9.3864C12.4655 9.3864 12.167 9.0879 12.167 8.7199C12.167 8.3519 12.4655 8.0534 12.8335 8.0534C13.2015 8.0534 13.5 8.3519 13.5 8.7199C13.5 9.0879 13.2015 9.3864 12.8335 9.3864Z" fill="black"/>
</svg>
