<svg width="16" height="16" viewBox="0 0 16 16" fill="none" xmlns="http://www.w3.org/2000/svg">
<g clip-path="url(#clip0_6_329)">
<path d="M3.67351 14.0005H13.3335V14.667C13.3335 15.4035 12.7365 16.0005 12 16.0005H5.00651C4.27001 16.0005 3.67301 15.4035 3.67301 14.667L3.67351 14.0005ZM14.6665 4.66698V8.66698L13.333 12.667H3.67301L1.33301 8.66698V4.00048C1.36101 3.62598 1.67201 3.33248 2.05101 3.33248C2.06551 3.33248 2.08051 3.33298 2.09501 3.33398H2.09301H3.33301V2.66748C3.33301 1.56298 4.22851 0.667477 5.33301 0.667477H7.18651C7.55201 0.259977 8.07901 0.00397656 8.66601 0.000976562H9.33351C9.92101 0.00397656 10.448 0.260477 10.812 0.665977L10.8135 0.667977H12.667C13.7715 0.667977 14.667 1.56348 14.667 2.66798V4.66798L14.6665 4.66698ZM4.66651 3.33398H6.66651V2.00048H5.33301C4.96501 2.00048 4.66651 2.29898 4.66651 2.66698V3.33398ZM6.66651 4.66698H2.66651V6.00048H5.33301C6.06951 6.00048 6.66651 5.40348 6.66651 4.66698ZM10 2.00048C10 1.63248 9.70151 1.33398 9.33351 1.33398H8.66701C8.29901 1.33398 8.00051 1.63248 8.00051 2.00048V6.00048C8.00051 6.36848 8.29901 6.66698 8.66701 6.66698H9.33351C9.70151 6.66698 10 6.36848 10 6.00048V2.00048ZM13.3335 2.66698C13.3335 2.29898 13.035 2.00048 12.667 2.00048H11.3335V6.00048C11.3315 6.23998 11.2875 6.46898 11.209 6.68098L11.2135 6.66698H12C12.7365 6.66698 13.3335 6.06998 13.3335 5.33348V2.66698Z" fill="black"/>
</g>
<defs>
<clipPath id="clip0_6_329">
<rect width="16" height="16" fill="white"/>
</clipPath>
</defs>
</svg>
