<svg width="16" height="16" viewBox="0 0 16 16" fill="none" xmlns="http://www.w3.org/2000/svg">
<g clip-path="url(#clip0_6_228)">
<path d="M9.86659 4.12002C10.1106 3.84152 10.2596 3.47402 10.2596 3.07202C10.2596 2.19202 9.54609 1.47852 8.66609 1.47852C7.78609 1.47852 7.07259 2.19202 7.07259 3.07202C7.07259 3.55052 7.28359 3.98002 7.61759 4.27202L7.61959 4.27352C7.89809 4.51702 8.26459 4.66552 8.66609 4.66552C9.14409 4.66552 9.57259 4.45502 9.86459 4.12202L9.86659 4.12002Z" fill="black"/>
<path d="M14.9536 9.45352C14.5011 9.56802 14.1031 9.74402 13.7446 9.97652L13.7601 9.96702L13.4736 10.1535C13.0916 10.4735 12.5951 10.6675 12.0531 10.6675C12.0346 10.6675 12.0161 10.6675 11.9976 10.667H12.0001C11.9846 10.6675 11.9666 10.6675 11.9481 10.6675C11.4166 10.6675 10.9291 10.4785 10.5496 10.164L10.5531 10.167C9.96909 9.71802 9.24909 9.41802 8.46459 9.33502L8.44659 9.33352H8.00009C7.97959 9.33302 7.95609 9.33302 7.93209 9.33302C6.99409 9.33302 6.12959 9.64652 5.43709 10.1745L5.44709 10.167C5.07109 10.4785 4.58359 10.6675 4.05209 10.6675C4.03359 10.6675 4.01559 10.6675 3.99759 10.667H4.00009C3.98609 10.6675 3.96909 10.6675 3.95259 10.6675C3.42209 10.6675 2.93559 10.4785 2.55659 10.164L2.56009 10.167C1.87759 9.64652 1.01259 9.33302 0.0745938 9.33302C0.0480938 9.33302 0.0220938 9.33302 -0.00390625 9.33352H9.37502e-05V11.3335C0.0205938 11.333 0.0440938 11.333 0.0680938 11.333C1.00609 11.333 1.87059 11.6465 2.56309 12.1745L2.55309 12.167C2.77609 12.337 3.03509 12.475 3.31409 12.568L3.33309 12.5735L3.60659 12.64C3.72459 12.6565 3.86059 12.666 3.99959 12.6665C4.01509 12.667 4.03359 12.667 4.05209 12.667C4.58359 12.667 5.07109 12.478 5.45059 12.1635L5.44709 12.1665C6.12959 11.646 6.99409 11.3325 7.93209 11.3325C7.95609 11.3325 7.98009 11.3325 8.00409 11.333H8.00059H8.24709C9.12259 11.3685 9.92159 11.671 10.5711 12.1605L10.5606 12.153C10.9391 12.4725 11.4321 12.6665 11.9711 12.6665C11.9816 12.6665 11.9921 12.6665 12.0026 12.6665H12.0011C12.0136 12.667 12.0286 12.667 12.0436 12.667C12.5781 12.667 13.0686 12.478 13.4516 12.1635L13.4476 12.1665C14.1276 11.646 14.9906 11.3325 15.9261 11.3325C15.9526 11.3325 15.9786 11.3325 16.0046 11.333H16.0006V9.33302C15.9911 9.33302 15.9801 9.33302 15.9686 9.33302C15.6086 9.33302 15.2586 9.37702 14.9241 9.45952L14.9536 9.45352Z" fill="black"/>
<path d="M12.0001 14C11.9846 14.0005 11.9666 14.0005 11.9481 14.0005C11.4166 14.0005 10.9291 13.8115 10.5496 13.497L10.5531 13.5C9.87009 12.9795 9.00459 12.666 8.06559 12.666C8.04259 12.666 8.01909 12.666 7.99609 12.6665H7.99959H7.81959C6.92259 12.695 6.10209 13.001 5.43559 13.501L5.44659 13.493C5.06959 13.8085 4.57909 14 4.04409 14C4.02859 14 4.01309 14 3.99759 13.9995H4.00009C3.98609 14 3.96909 14 3.95259 14C3.42209 14 2.93559 13.811 2.55659 13.4965L2.56009 13.4995C1.87759 12.979 1.01259 12.6655 0.0745938 12.6655C0.0480938 12.6655 0.0220938 12.6655 -0.00390625 12.666H9.37502e-05V14.666C0.0205938 14.6655 0.0440938 14.6655 0.0680938 14.6655C1.00609 14.6655 1.87059 14.979 2.56309 15.507L2.55309 15.4995C2.92809 15.811 3.41459 16 3.94559 16C3.96459 16 3.98359 15.9995 4.00259 15.9995H3.99959C4.01509 16 4.03309 16 4.05159 16C4.58309 16 5.07059 15.811 5.45009 15.4965L5.44659 15.4995C6.12909 14.979 6.99359 14.6655 7.93159 14.6655C7.95559 14.6655 7.97959 14.6655 8.00359 14.666H8.00009C8.02159 14.6655 8.04709 14.6655 8.07259 14.6655C9.01109 14.6655 9.87659 14.979 10.5701 15.507L10.5601 15.4995C10.9361 15.811 11.4231 16 11.9546 16C11.9706 16 11.9866 16 12.0026 15.9995H12.0001C12.0126 16 12.0276 16 12.0426 16C12.5771 16 13.0676 15.811 13.4506 15.4965L13.4466 15.4995C14.1266 14.979 14.9896 14.6655 15.9251 14.6655C15.9516 14.6655 15.9776 14.6655 16.0036 14.666H15.9996V12.666C15.9776 12.6655 15.9511 12.6655 15.9251 12.6655C14.9891 12.6655 14.1266 12.979 13.4366 13.507L13.4466 13.4995C13.0671 13.811 12.5771 14 12.0426 14C12.0276 14 12.0126 14 11.9976 13.9995L12.0001 14Z" fill="black"/>
<path d="M3.52009 2.40002C3.72609 2.55652 3.98409 2.65452 4.26409 2.66652H4.59309L4.77309 2.61302H4.81959C5.02509 2.51602 5.19709 2.37852 5.33059 2.20952L5.33309 2.20652C5.53609 1.97402 5.65959 1.66752 5.65959 1.33252C5.65959 0.596023 5.06259 -0.000976562 4.32609 -0.000976562C3.58959 -0.000976562 2.99259 0.596023 2.99259 1.33252C2.99259 1.73402 3.17009 2.09402 3.45109 2.33852L3.45259 2.34002L3.52009 2.40002Z" fill="black"/>
<path d="M5.18659 3.48702C4.93809 3.59002 4.64909 3.65002 4.34659 3.65002C4.04409 3.65002 3.75509 3.59002 3.49159 3.48152L3.50659 3.48702C3.57059 4.13302 3.79309 4.71702 4.13459 5.21252L4.12659 5.20002C4.45059 5.66102 4.85209 6.04352 5.31609 6.33652L5.33309 6.34652L4.39959 9.24652L4.69959 9.06002C5.58309 8.39752 6.69759 7.99902 7.90509 7.99902C7.93809 7.99902 7.97159 7.99952 8.00459 8.00002H7.99959C8.00509 8.00002 8.01159 8.00002 8.01809 8.00002C8.45809 8.00002 8.88659 8.04852 9.29859 8.14052L9.25959 8.13302L9.50609 7.36652C10.6871 7.73852 11.6971 8.36552 12.5126 9.18602L12.7131 9.06002C13.0976 8.78502 13.5371 8.54552 14.0046 8.36102L14.0461 8.34652C11.7196 5.88652 9.33959 5.48002 8.04609 5.48002C8.02259 5.48052 7.99459 5.48102 7.96659 5.48102C6.96709 5.48102 6.07809 5.00802 5.51159 4.27402L5.50609 4.26702C5.35509 4.04452 5.24309 3.78252 5.18809 3.50002L5.18659 3.48702Z" fill="black"/>
</g>
<defs>
<clipPath id="clip0_6_228">
<rect width="16" height="16" fill="white"/>
</clipPath>
</defs>
</svg>
