<svg width="16" height="16" viewBox="0 0 16 16" fill="none" xmlns="http://www.w3.org/2000/svg">
<g clip-path="url(#clip0_6_272)">
<path d="M7.45497 5.68752C7.66047 5.47602 7.94497 5.34252 8.26097 5.33502H8.26247C8.51897 5.29602 8.81497 5.27402 9.11597 5.27402C9.52697 5.27402 9.92847 5.31552 10.316 5.39402L10.2775 5.38752C10.835 5.51002 11.3065 5.81902 11.6335 6.24452L11.6375 6.25002C11.781 6.43552 11.8675 6.67152 11.8675 6.92752C11.8675 6.93352 11.8675 6.93952 11.8675 6.94602C11.8675 9.02852 11.8675 11.11 11.8675 13.195C11.868 13.216 11.8685 13.241 11.8685 13.266C11.8685 14.187 11.351 14.987 10.5905 15.391L10.5775 15.3975C10.195 15.6245 9.74897 15.793 9.27397 15.8765L9.24997 15.88C8.85997 15.958 8.41097 16.0025 7.95197 16.0025C7.25647 16.0025 6.58447 15.9005 5.95047 15.71L5.99947 15.7225C4.78447 15.345 4.14947 14.4975 4.14697 13.2225C4.14697 9.80752 4.14697 6.39086 4.14697 2.97252C4.14697 2.13252 4.39697 1.37252 5.06447 0.810023C5.52647 0.444523 6.09547 0.194523 6.71697 0.112023L6.73447 0.110023C7.11647 0.0395234 7.55547 -0.000976562 8.00397 -0.000976562C8.60847 -0.000976562 9.19547 0.0725234 9.75697 0.210523L9.70697 0.200023C10.532 0.410023 11.232 0.817523 11.577 1.63502C11.7195 1.96552 11.815 2.34902 11.844 2.75102L11.8445 2.76252C11.8895 3.36752 11.8445 3.97752 11.8445 4.60252H8.58447V4.35252C8.58447 3.96252 8.58447 3.57252 8.58447 3.18252C8.58547 3.17202 8.58647 3.16002 8.58647 3.14802C8.58647 3.00602 8.49147 2.88602 8.36197 2.84802L8.35997 2.84752C8.25647 2.80752 8.13647 2.78452 8.01097 2.78452C7.88547 2.78452 7.76597 2.80752 7.65547 2.84952L7.66247 2.84702C7.52497 2.88102 7.42497 3.00302 7.42497 3.14852C7.42497 3.15052 7.42497 3.15302 7.42497 3.15502C7.42497 3.96502 7.42497 4.77452 7.42497 5.58452C7.43297 5.62402 7.44347 5.65852 7.45647 5.69102L7.45497 5.68752ZM6.56997 14.21C6.66097 14.3465 6.81397 14.435 6.98747 14.435C7.01197 14.435 7.03647 14.433 7.05997 14.4295L7.05747 14.43C7.22247 14.395 7.38747 14.3675 7.55747 14.335C7.72747 14.3025 7.75247 14.23 7.74997 14.085C7.74997 13.3975 7.74997 12.71 7.74997 12.0225C7.74497 11.9965 7.74197 11.9665 7.74197 11.936C7.74197 11.709 7.90647 11.5205 8.12247 11.483L8.12547 11.4825C8.22897 11.4375 8.34847 11.407 8.47447 11.3975H8.47797C8.65297 11.3975 8.69797 11.3075 8.69547 11.1475C8.69547 10.85 8.69547 10.55 8.69547 10.2525C8.69297 10.239 8.69147 10.223 8.69147 10.207C8.69147 10.0635 8.80347 9.94652 8.94447 9.93752H8.94547C9.28797 9.87752 9.62547 9.80502 9.96797 9.74002C10.3105 9.67502 10.308 9.67752 10.303 9.34002C10.3005 9.08102 10.2815 8.82902 10.247 8.58152L10.2505 8.61252C10.248 8.40602 10.08 8.23952 9.87297 8.23952C9.84197 8.23952 9.81197 8.24352 9.78297 8.25052L9.78547 8.25002C9.57947 8.28202 9.39547 8.33002 9.21997 8.39402L9.24047 8.38752C8.92047 8.49002 8.61297 8.62002 8.29047 8.71502C8.01047 8.79752 7.88047 8.71502 7.74047 8.46502C7.72297 8.43252 7.67797 8.38752 7.65547 8.39252C7.30297 8.46002 6.87297 8.24252 6.62297 8.70502C6.59247 8.75152 6.57447 8.80802 6.57447 8.86902C6.57447 8.89402 6.57747 8.91852 6.58347 8.94202L6.58297 8.94002C6.60847 9.01152 6.62947 9.09602 6.64197 9.18302L6.64297 9.19002C6.64297 10.6575 6.64297 12.125 6.64297 13.5925C6.62947 13.8225 6.60347 14.0345 6.56547 14.2425L6.56997 14.21Z" fill="black"/>
<path d="M8.55747 10.4225L8.30747 10.125C8.47997 10.125 8.55747 10.1925 8.57247 10.3575C8.57847 10.4695 8.58197 10.6005 8.58197 10.7325C8.58197 10.8645 8.57847 10.9955 8.57197 11.1255L8.57297 11.1075C8.54897 11.187 8.48897 11.249 8.41247 11.2745L8.41047 11.275C8.34247 11.282 8.26397 11.2865 8.18397 11.2865C8.10397 11.2865 8.02547 11.2825 7.94797 11.2745L7.95747 11.2755C7.82997 11.2755 7.77247 11.203 7.77747 11.0755C7.78247 10.948 7.77747 10.8805 7.77747 10.783C7.77697 10.7755 7.77647 10.767 7.77647 10.758C7.77647 10.547 7.94747 10.3755 8.15897 10.3755C8.20797 10.3755 8.25447 10.3845 8.29747 10.4015L8.29497 10.4005C8.36997 10.418 8.44247 10.448 8.51497 10.4705L8.55747 10.4225Z" fill="black"/>
</g>
<defs>
<clipPath id="clip0_6_272">
<rect width="16" height="16" fill="white"/>
</clipPath>
</defs>
</svg>
