<svg width="16" height="16" viewBox="0 0 16 16" fill="none" xmlns="http://www.w3.org/2000/svg">
<g clip-path="url(#clip0_6_548)">
<path d="M6.35349 6.56698C6.35349 5.54048 5.46699 5.61348 5.46699 5.61348H4.07349L3.81999 7.51998H5.31999C5.31999 7.51998 6.35999 7.59348 6.35999 6.56648L6.35349 6.56698Z" fill="black"/>
<path d="M14.94 4.03398L14.7535 5.74048L11.3735 5.72048L11.167 7.14048H14.087L13.8735 8.89398H10.9L10.3935 12.0675H8.38699L9.86049 3.94098H14.8805C13.494 1.58748 10.934 0.000976562 8.00049 0.000976562C3.58049 0.000976562 0.000488281 3.58098 0.000488281 8.00098C0.000488281 9.44748 0.393988 10.8075 1.06699 11.9745L2.52049 3.94098H6.32699C6.32699 3.94098 8.38699 3.88748 8.38699 6.22748C8.38699 8.56748 6.25349 8.76748 6.25349 8.76748L7.90699 12.0675H5.84699L4.27349 8.89398H3.55999L3.05349 12.0675H1.11999C2.51349 14.421 5.06649 16.0075 7.99999 16.0075C12.42 16.0075 16 12.4275 16 8.00748C16 6.56098 15.6135 5.20748 14.94 4.04098V4.03398Z" fill="black"/>
</g>
<defs>
<clipPath id="clip0_6_548">
<rect width="16" height="16" fill="white"/>
</clipPath>
</defs>
</svg>
