<svg width="16" height="16" viewBox="0 0 16 16" fill="none" xmlns="http://www.w3.org/2000/svg">
<g clip-path="url(#clip0_6_538)">
<path d="M13.3169 7.33398C12.9069 7.33748 12.5199 7.43298 12.1744 7.60098L12.1904 7.59398L11.5239 6.80748C12.0389 6.50898 12.6569 6.33248 13.3164 6.33248C13.7969 6.33248 14.2554 6.42598 14.6749 6.59598L14.6504 6.58748C14.6059 4.78148 13.1309 3.33398 11.3179 3.33398H8.65039L9.98389 4.66748H3.98389L2.65039 4.00098H-0.0161133L3.45739 7.47448C3.21739 7.38848 2.94039 7.33748 2.65189 7.33448H2.65039C1.17739 7.33448 -0.0161133 8.52848 -0.0161133 10.001C-0.0161133 11.4735 1.17789 12.6675 2.65039 12.6675C4.12339 12.6675 5.31689 11.4735 5.31689 10.001C5.31489 9.71148 5.26339 9.43448 5.17139 9.17698L5.17689 9.19448L6.65039 10.668L9.87689 11.2345C9.74189 10.8695 9.66389 10.448 9.66389 10.008C9.66389 9.11748 9.98389 8.30148 10.5149 7.66898L10.5104 7.67448L11.1769 8.45448C10.8679 8.88399 10.6829 9.42098 10.6829 10.001C10.6829 11.474 11.8769 12.6675 13.3494 12.6675C14.8219 12.6675 16.0159 11.4735 16.0159 10.001C16.0159 8.52798 14.8219 7.33448 13.3494 7.33448C13.3379 7.33448 13.3264 7.33448 13.3154 7.33448L13.3169 7.33398ZM2.65039 11.334C1.91389 11.334 1.31689 10.737 1.31689 10.0005C1.31689 9.26398 1.91389 8.66698 2.65039 8.66698C3.38689 8.66698 3.98389 9.26398 3.98389 10.0005C3.98389 10.737 3.38689 11.334 2.65039 11.334ZM13.3169 11.334C12.5804 11.334 11.9834 10.737 11.9834 10.0005C11.9834 9.26398 12.5804 8.66698 13.3169 8.66698C14.0534 8.66698 14.6504 9.26398 14.6504 10.0005C14.6504 10.737 14.0534 11.334 13.3169 11.334Z" fill="black"/>
</g>
<defs>
<clipPath id="clip0_6_538">
<rect width="16" height="16" fill="white"/>
</clipPath>
</defs>
</svg>
