<svg width="16" height="16" viewBox="0 0 16 16" fill="none" xmlns="http://www.w3.org/2000/svg">
<g clip-path="url(#clip0_232_91)">
<path fill-rule="evenodd" clip-rule="evenodd" d="M14.0533 12.1075V9.51398L12.3263 9.53398V5.57312C12.3263 5.57307 12.3263 5.57317 12.3263 5.57312C12.3262 3.58456 10.985 1.90924 9.13328 1.3987C9.09471 1.38807 9.05592 1.37794 9.01692 1.36833C8.96705 1.35603 8.91683 1.34458 8.86628 1.33398V0.867477C8.86628 0.388977 8.47828 0.000976562 7.99978 0.000976562C7.52128 0.000976562 7.13328 0.388977 7.13328 0.867477V1.33398L7.10528 1.33898C7.06393 1.34767 7.0228 1.35696 6.98189 1.36683C6.94315 1.37618 6.90461 1.38605 6.86628 1.39643C5.03274 1.89305 3.68239 3.56448 3.67328 5.55398V9.51398H1.94678V12.1075H14.0533ZM10.3263 5.57298V10.1075V5.57298ZM10.3263 10.1075H5.67328V5.55925C5.68014 4.45597 6.45551 3.53174 7.49166 3.30162L8.0387 3.20393L8.45579 3.2914C9.54412 3.51963 10.3262 4.4628 10.3263 5.57298M10.5933 13.407H5.40678C5.40678 13.6497 5.4401 13.8847 5.50242 14.1075C5.64679 14.6236 5.94676 15.0747 6.34862 15.407C6.79704 15.7777 7.37231 16.0005 7.99978 16.0005C8.62724 16.0005 9.20261 15.7777 9.65114 15.407C10.0531 15.0747 10.3532 14.6236 10.4976 14.1075C10.5599 13.8847 10.5933 13.6497 10.5933 13.407Z" fill="black"/>
</g>
<defs>
<clipPath id="clip0_232_91">
<rect width="16" height="16" fill="white"/>
</clipPath>
</defs>
</svg>
