<svg width="16" height="16" viewBox="0 0 16 16" fill="none" xmlns="http://www.w3.org/2000/svg">
<path d="M7.9972 1.5337C4.3972 1.6002 1.5972 4.5337 1.6637 8.1337L2.9302 8.2002C2.8637 5.5337 5.0637 3.2667 7.7302 3.2667C7.7967 3.2667 7.9302 3.2667 7.9967 3.2667C10.6632 3.1332 12.9302 5.2002 13.0632 7.9332C13.0632 8.0667 13.0632 8.1332 13.0632 8.2667H14.3297C14.4632 4.6002 11.5962 1.6002 7.9962 1.5332L7.9972 1.5337Z" fill="black"/>
<path d="M7.9972 1.5337C4.3972 1.6002 1.5972 4.5337 1.6637 8.1337C1.6637 8.5337 1.7302 8.9337 1.7972 9.3337L2.1972 8.4002C2.1972 7.2667 2.9972 2.4667 7.9972 2.4667C12.9972 2.4667 13.7972 7.2667 13.7972 8.6002C13.7972 9.0002 13.9307 9.4002 14.0637 9.8002C14.2637 9.2667 14.3302 8.7337 14.3302 8.2002C14.4637 4.5337 11.5962 1.5997 7.9962 1.5332L7.9972 1.5337Z" fill="black"/>
<path d="M9.4637 4.8002L13.6637 2.6667C13.6637 2.6667 15.1972 6.1332 12.7302 8.4002L9.4637 4.8002Z" fill="black"/>
<path d="M11.3972 5.6667L12.8637 4.8002C12.8637 4.8002 12.9972 6.0667 12.3972 6.6667L11.3972 5.6667Z" fill="black"/>
<path d="M6.5972 4.8002L2.3307 2.6667C2.3307 2.6667 0.797204 6.1332 3.2642 8.3332L6.5972 4.8002Z" fill="black"/>
<path d="M4.5972 5.6667L3.1307 4.8002C3.1307 4.8002 2.9972 6.0667 3.5307 6.6667L4.5972 5.6667Z" fill="black"/>
<path d="M13.6637 2.6667L9.3972 4.8002L9.5972 5.0667L10.1972 5.2002C10.2637 5.1337 12.7307 4.0002 13.6637 2.6667Z" fill="black"/>
<path d="M2.3307 2.6667L6.5972 4.8002L6.3302 5.0002L5.7302 5.1337C5.7302 5.1337 3.2642 3.9997 2.3307 2.6667Z" fill="black"/>
<path d="M13.1972 9.2667C13.1972 12.1387 10.8692 14.4667 7.9972 14.4667C5.1252 14.4667 2.7972 12.1387 2.7972 9.2667C2.7972 6.3947 5.1252 4.0667 7.9972 4.0667C10.8692 4.0667 13.1972 6.3947 13.1972 9.2667Z" fill="black"/>
<path d="M12.6637 11.4667C11.6637 12.0667 10.5302 12.4667 9.3972 12.6002C9.3972 12.6002 9.1307 12.1337 8.6637 12.6002C8.1967 13.0667 8.8637 13.3337 9.7302 13.2002C10.8637 12.9337 11.9967 12.4667 12.9302 11.8667L12.6637 11.4667Z" fill="black"/>
<path d="M13.0637 8.1337C13.0637 9.3337 12.7972 10.4672 12.3972 11.6002C12.2637 11.8002 12.3972 12.1337 12.7307 12.2667C14.0642 12.6667 15.3972 11.9332 15.7972 10.6002C15.7972 10.5337 15.8637 10.4002 15.8637 10.3337C16.2637 8.3337 15.6637 7.0672 13.7972 6.9337C13.3972 7.6672 13.2637 7.8002 13.0637 8.1337Z" fill="black"/>
<path d="M12.3302 11.6667L12.3967 11.7332C13.0632 11.8667 14.3967 8.9997 13.5302 7.4667C13.2637 7.8667 12.9967 8.1332 12.9967 8.1332C12.9967 9.3332 12.7302 10.4667 12.3302 11.6667C12.3302 11.6002 12.3302 11.6002 12.3302 11.6667Z" fill="black"/>
<path d="M2.9972 8.0667C2.9972 9.2667 3.1972 10.4667 3.6637 11.6002C3.7972 11.8002 3.6637 12.1337 3.4637 12.2002C3.3972 12.2002 3.3972 12.2667 3.3302 12.2667C1.9967 12.6667 0.663704 11.9332 0.196704 10.6667C0.196704 10.6002 0.130204 10.4667 0.130204 10.4002C-0.269796 8.4002 0.396704 7.2002 2.2637 7.0667C2.3972 7.3332 2.7302 7.7332 2.9972 8.0667Z" fill="black"/>
<path d="M3.6637 11.6667C2.9302 11.8002 1.3302 8.8667 2.5302 7.4002C2.5302 7.4002 2.7972 7.8002 2.9972 8.0667C2.9972 9.0667 3.1972 10.4667 3.6637 11.6667C3.6637 11.6002 3.6637 11.6002 3.6637 11.6667Z" fill="black"/>
<path d="M12.0637 10.0667C12.0637 10.2142 11.7057 10.3332 11.2637 10.3332C10.8217 10.3332 10.4637 10.2137 10.4637 10.0667C10.4637 9.9192 10.8217 9.8002 11.2637 9.8002C11.7057 9.8002 12.0637 9.9197 12.0637 10.0667Z" fill="black"/>
<path d="M5.5302 10.0667C5.5302 10.2142 5.1722 10.3332 4.7302 10.3332C4.2882 10.3332 3.9302 10.2137 3.9302 10.0667C3.9302 9.9192 4.2882 9.8002 4.7302 9.8002C5.1722 9.8002 5.5302 9.9197 5.5302 10.0667Z" fill="black"/>
<path d="M8.5302 12.3337C8.5302 12.3337 7.9302 11.9337 7.6637 12.5337C7.3972 13.1337 8.7972 13.7337 8.7972 13.7337C9.1307 13.4672 9.3307 13.0672 9.4637 12.6002C9.5302 12.3337 9.3972 12.0667 9.1302 12.0002C8.8632 11.9337 8.5967 12.0667 8.5302 12.3337Z" fill="black"/>
<path d="M7.5302 10.7337C7.4637 10.7337 7.4637 10.7337 7.5302 10.7337C7.1302 10.7337 6.7967 10.4672 6.6637 10.1337C6.5972 10.0002 6.6637 9.7337 6.8637 9.6672C7.0637 9.6007 7.1972 9.6672 7.3302 9.8672C7.3302 9.9337 7.4637 10.0007 7.5302 10.0007C7.5967 10.0007 7.6637 9.9342 7.7302 9.8672C7.7967 9.7337 7.9302 9.6672 8.0637 9.6672C8.1972 9.6672 8.3302 9.7337 8.3972 9.8672C8.4642 10.0007 8.5972 10.0007 8.5972 10.0007C8.9307 10.0672 8.8637 9.6007 9.1972 9.6672C9.3972 9.7337 9.4637 9.9337 9.3972 10.2007C9.2637 10.5342 8.9972 10.7342 8.6637 10.7342C8.4637 10.7342 8.1302 10.6677 7.9972 10.5342C7.9307 10.6677 7.6632 10.7337 7.5302 10.7337Z" fill="black"/>
<path d="M11.6637 9.1337C11.4637 9.1337 11.3302 9.0002 11.2637 8.8002C11.1972 8.6667 11.1302 8.6002 10.9972 8.6002C10.9307 8.6002 10.7972 8.6667 10.7307 8.8002C10.6642 9.0002 10.5307 9.1337 10.3307 9.1337C10.1307 9.1337 9.9972 8.9337 9.9972 8.7337C9.9972 8.4002 10.3307 7.8672 10.9972 7.8672C11.6637 7.8672 11.9307 8.4007 11.9972 8.7337C11.9972 8.9337 11.9307 9.1337 11.6637 9.1337Z" fill="black"/>
<path d="M5.5972 9.1337C5.3972 9.1337 5.2637 9.0002 5.1972 8.8002C5.1972 8.7337 5.1307 8.6002 4.9307 8.6002C4.8642 8.6002 4.7307 8.6002 4.6642 8.8002C4.6642 9.0002 4.4642 9.1337 4.2642 9.1337C4.0642 9.1337 3.9307 8.9337 3.9307 8.7337C3.9307 8.4002 4.2642 7.8672 4.9307 7.8672C5.5972 7.8672 5.8642 8.4007 5.9307 8.7337C5.9307 8.9337 5.8642 9.1337 5.5972 9.1337Z" fill="black"/>
</svg>
