<svg width="16" height="16" viewBox="0 0 16 16" fill="none" xmlns="http://www.w3.org/2000/svg">
<g clip-path="url(#clip0_6_251)">
<path d="M8.04757 0.167969C8.19257 0.242969 8.24258 0.332969 8.20508 0.447969C8.17758 0.536969 8.09558 0.600469 7.99958 0.600469C7.98857 0.600469 7.97708 0.599469 7.96658 0.597969H7.96758C7.87808 0.595469 7.80358 0.535969 7.77808 0.454469L7.77758 0.452969C7.77108 0.433969 7.76758 0.411969 7.76758 0.388969C7.76758 0.308469 7.81258 0.238969 7.87908 0.203469L7.88008 0.202969L7.92758 0.172969L8.04757 0.167969Z" fill="black"/>
<path d="M4.50008 3.47547C4.21508 3.88297 3.89008 4.20547 3.38758 4.28297C3.15158 4.31497 2.87858 4.33297 2.60108 4.33297C2.53908 4.33297 2.47758 4.33197 2.41608 4.33047H2.42508C2.19508 4.33047 1.96758 4.33047 1.73758 4.33047C1.67508 4.33047 1.65008 4.34547 1.65008 4.41547C1.65008 5.71297 1.65008 7.00797 1.65008 8.30547C1.65158 8.93447 1.76858 9.53597 1.98158 10.0895L1.97008 10.0555C2.20408 10.727 2.68558 11.262 3.30208 11.561L3.31758 11.568C3.62258 11.7145 3.97708 11.814 4.35058 11.847L4.36258 11.848C4.46958 11.8595 4.59358 11.8655 4.71907 11.8655C5.03657 11.8655 5.34457 11.8245 5.63758 11.747L5.61258 11.7525C6.04058 11.6325 6.41008 11.4255 6.71758 11.15L6.71508 11.1525C7.11708 10.7815 7.43908 10.33 7.65558 9.82297L7.66508 9.79747C7.95108 9.15147 8.16708 8.40097 8.27507 7.61697L8.28008 7.57247C8.35008 7.11247 8.40508 6.64997 8.43258 6.18247C8.43258 5.94997 8.45757 5.71747 8.46758 5.48247C8.46758 5.28747 8.46758 5.08997 8.48258 4.89497C8.48258 4.84997 8.49757 4.83497 8.54257 4.83497C8.65007 4.83497 8.76008 4.83497 8.86758 4.83497C9.79008 4.83497 10.7126 4.83497 11.6351 4.83497C11.7226 4.83497 11.7401 4.86247 11.7351 4.94247C11.7176 5.37997 11.7026 5.81747 11.6501 6.25497C11.5811 6.90547 11.4516 7.49897 11.2651 8.06647L11.2826 8.00497C11.0991 8.57697 10.8641 9.07347 10.5741 9.53197L10.5901 9.50497C10.3981 9.82447 10.1851 10.1015 9.94357 10.3515L9.94508 10.35C9.73207 10.5665 9.50607 10.769 9.26758 10.956L9.25257 10.9675C8.95158 11.191 8.61007 11.4045 8.25208 11.59L8.21008 11.61C7.87208 11.7845 7.47758 11.9355 7.06608 12.0435L7.02508 12.0525C6.64308 12.1615 6.19708 12.2395 5.73808 12.2715L5.71758 12.2725C5.57058 12.2815 5.39808 12.2865 5.22508 12.2865C5.05208 12.2865 4.87958 12.2815 4.70908 12.2715L4.73258 12.2725C4.09108 12.255 3.49158 12.0925 2.95958 11.8165L2.98258 11.827C2.35708 11.5025 1.85758 11.0095 1.53408 10.4075L1.52508 10.3895C1.29958 9.96397 1.12608 9.46997 1.03008 8.94897L1.02508 8.91697C0.952075 8.55847 0.903575 8.13947 0.890575 7.71147L0.890075 7.69947C0.860075 6.93447 0.890075 6.16947 0.877575 5.40447C0.877575 4.78697 0.877575 4.17197 0.877575 3.55447C0.877575 3.49447 0.877575 3.46197 0.960075 3.46197H4.50008V3.47547Z" fill="black"/>
<path d="M4.25008 8.11047C4.25008 7.0538 4.25008 5.99714 4.25008 4.94047C4.25008 4.86047 4.27257 4.84297 4.35008 4.84297H7.47508C7.54757 4.84297 7.57258 4.85797 7.57008 4.93547C7.55008 5.43547 7.55008 5.93547 7.51508 6.43547C7.47208 7.16397 7.38308 7.83947 7.24908 8.49847L7.26508 8.40547C7.14858 9.01247 6.96408 9.55247 6.71558 10.0555L6.73258 10.018C6.52558 10.46 6.21458 10.8235 5.82908 11.087L5.82008 11.093C5.55908 11.2635 5.24458 11.3745 4.90658 11.4L4.90008 11.4005C4.84158 11.404 4.77308 11.4065 4.70408 11.4065C4.56608 11.4065 4.43008 11.398 4.29658 11.3815L4.31258 11.383C4.24758 11.383 4.24007 11.3505 4.24007 11.298C4.24007 10.7163 4.24007 10.133 4.24007 9.54797L4.25008 8.11047Z" fill="black"/>
<path d="M11.7001 9.33047C11.7066 9.45197 11.7106 9.59447 11.7106 9.73797C11.7106 9.88147 11.7071 10.024 11.6996 10.1655L11.7006 10.1455C11.7006 10.418 11.6756 10.6905 11.6431 10.963C11.5996 11.5285 11.4596 12.051 11.2391 12.5285L11.2506 12.5005C11.1071 12.7975 10.9106 13.047 10.6716 13.2475L10.6681 13.2505C10.3316 13.5275 9.93657 13.7485 9.50658 13.893L9.48058 13.9005C9.04608 14.0465 8.54208 14.148 8.01958 14.1845L8.00058 14.1855C7.81608 14.2035 7.60208 14.2135 7.38558 14.2135C6.76708 14.2135 6.16757 14.1305 5.59858 13.9745L5.64608 13.9855C5.26108 13.8885 4.92558 13.7155 4.64158 13.482L4.64608 13.4855C4.40407 13.2835 4.25058 12.982 4.25058 12.6445C4.25058 12.636 4.25058 12.6275 4.25108 12.6195V12.621C4.25108 12.556 4.27357 12.5485 4.32857 12.561C4.60957 12.624 4.95508 12.678 5.30658 12.711L5.34108 12.7135C5.53408 12.732 5.75808 12.7425 5.98458 12.7425C6.45208 12.7425 6.90908 12.6975 7.35108 12.611L7.30608 12.6185C7.78808 12.521 8.21408 12.3815 8.61608 12.198L8.57858 12.2135C9.24858 11.9115 9.82557 11.537 10.3366 11.089L10.3286 11.096C10.8786 10.6255 11.3301 10.0585 11.6616 9.41947L11.6761 9.38847L11.7001 9.33047Z" fill="black"/>
<path d="M12.1801 12.1755C12.6761 11.673 13.0991 11.0965 13.4311 10.465L13.4501 10.4255C13.8191 9.71197 14.0891 8.88297 14.2151 8.00747L14.2201 7.96547C14.2806 7.55447 14.3151 7.07997 14.3151 6.59797C14.3151 6.58247 14.3151 6.56647 14.3151 6.55097V6.55347C14.3151 5.84597 14.3151 5.13597 14.3151 4.42847C14.3151 4.35847 14.2976 4.33597 14.2251 4.33847C13.8076 4.33847 13.3926 4.33847 12.9751 4.33847C12.9491 4.33997 12.9191 4.34097 12.8886 4.34097C12.3871 4.34097 11.9416 4.10097 11.6601 3.72997L11.6571 3.72597C11.5946 3.64847 11.5321 3.57097 11.4721 3.49097C11.4971 3.46597 11.5246 3.47597 11.5496 3.47597H15.0221C15.0921 3.47597 15.1121 3.49097 15.1121 3.56347C15.1121 4.71347 15.1121 5.86597 15.1121 7.01597C15.0976 7.93197 14.8996 8.79747 14.5531 9.58347L14.5696 9.54097C14.3696 10.003 14.1356 10.401 13.8591 10.7655L13.8696 10.751C13.4336 11.3275 12.8941 11.8005 12.2756 12.15L12.2496 12.1635C12.2361 12.173 12.2191 12.1785 12.2006 12.1785C12.1931 12.1785 12.1861 12.1775 12.1791 12.176L12.1801 12.1755Z" fill="black"/>
<path d="M8.00008 0.702969C8.07058 0.856969 8.13908 0.983969 8.21408 1.10647L8.20508 1.09047C8.29908 1.24347 8.42558 1.36797 8.57508 1.45797L8.58008 1.46047C8.67508 1.50747 8.78708 1.53497 8.90558 1.53497C9.06408 1.53497 9.21158 1.48547 9.33258 1.40147L9.33008 1.40297C9.44758 1.34047 9.44508 1.33797 9.49508 1.45547C9.56557 1.64247 9.66058 1.80347 9.77758 1.94597L9.77507 1.94297C9.88457 2.07747 10.0501 2.16247 10.2351 2.16247C10.3116 2.16247 10.3846 2.14797 10.4516 2.12197L10.4476 2.12347C10.4776 2.12347 10.5151 2.08347 10.5351 2.10847C10.5551 2.13347 10.5201 2.16847 10.5026 2.19597C10.2226 2.61847 9.94008 3.04097 9.66258 3.46597C9.63008 3.51347 9.60507 3.52347 9.55258 3.49597C9.21457 3.32247 8.82108 3.19747 8.40608 3.14297L8.38758 3.14097C8.27208 3.12597 8.13807 3.11747 8.00208 3.11747C7.76558 3.11747 7.53558 3.14347 7.31408 3.19247L7.33508 3.18847C7.01358 3.25897 6.73058 3.35897 6.46458 3.48847L6.48758 3.47847C6.40758 3.51597 6.37008 3.51097 6.32008 3.43097C6.07008 3.02847 5.79507 2.62847 5.53258 2.22847L5.45008 2.09597C5.53908 2.10547 5.61958 2.12247 5.69708 2.14597L5.68758 2.14347C5.71808 2.14897 5.75308 2.15197 5.78908 2.15197C5.99508 2.15197 6.17708 2.05097 6.28908 1.89547L6.29008 1.89347C6.39558 1.75947 6.48058 1.60347 6.53708 1.43447L6.54008 1.42347C6.56258 1.35847 6.59008 1.34597 6.65008 1.38097C6.79358 1.46547 6.96558 1.51647 7.14908 1.52097C7.15308 1.52097 7.15858 1.52097 7.16308 1.52097C7.36008 1.52097 7.53758 1.43747 7.66258 1.30397C7.80558 1.13397 7.92058 0.933969 7.99658 0.716469L8.00008 0.702969Z" fill="black"/>
<path d="M11.9001 15.848C11.5726 15.7905 11.2451 15.728 10.9151 15.6755C10.7176 15.643 10.5176 15.623 10.3201 15.6005C9.82008 15.538 9.32008 15.5005 8.83508 15.4705C8.38008 15.4405 7.92258 15.443 7.46758 15.4555C7.06008 15.4555 6.65258 15.5005 6.24758 15.5505C5.73008 15.613 5.21508 15.678 4.70257 15.778C4.56257 15.8055 4.42508 15.8255 4.28507 15.8455C4.25257 15.8455 4.20008 15.8905 4.19008 15.8005C4.18008 15.7105 4.23508 15.703 4.27508 15.6855C4.59008 15.5605 4.91008 15.4555 5.23008 15.3605C5.61708 15.236 6.08558 15.127 6.56558 15.0545L6.61758 15.048C6.93258 15.0055 7.24758 14.978 7.56508 14.953C7.73058 14.9395 7.92308 14.932 8.11758 14.932C8.22058 14.932 8.32258 14.934 8.42458 14.9385L8.41008 14.938C8.89958 14.958 9.36007 15.0085 9.81058 15.087L9.74758 15.078C10.2891 15.1645 10.7651 15.283 11.2246 15.4365L11.1601 15.418C11.4101 15.5005 11.6801 15.598 11.9401 15.688C11.9591 15.6945 11.9756 15.703 11.9906 15.7135C12.0131 15.7295 12.0271 15.755 12.0271 15.7845C12.0271 15.791 12.0266 15.7975 12.0251 15.8035C12.0251 15.851 11.9926 15.853 11.9701 15.853H11.9001V15.848Z" fill="black"/>
<path d="M9.37008 1.11047C9.36958 1.10497 9.36958 1.09847 9.36958 1.09197C9.36958 1.00797 9.40408 0.932469 9.46008 0.878469C9.48608 0.847469 9.52458 0.827969 9.56808 0.827969C9.57858 0.827969 9.58908 0.828969 9.59858 0.831469H9.59758C9.64657 0.848469 9.68158 0.892969 9.68508 0.945969C9.68808 0.960969 9.69007 0.978969 9.69007 0.996969C9.69007 1.08997 9.64307 1.17197 9.57108 1.22047L9.57008 1.22097C9.55157 1.23247 9.52908 1.23947 9.50508 1.23947C9.48108 1.23947 9.45858 1.23247 9.43958 1.22047C9.40058 1.19747 9.37458 1.15697 9.37008 1.11047Z" fill="black"/>
<path d="M6.60758 1.06547C6.60758 1.15047 6.59258 1.21297 6.53008 1.23797C6.51758 1.24197 6.50258 1.24397 6.48758 1.24397C6.43658 1.24397 6.39108 1.21897 6.36308 1.18097C6.31808 1.13147 6.29008 1.06497 6.29008 0.992469C6.29008 0.962969 6.29458 0.934969 6.30308 0.908469L6.30258 0.910469C6.31208 0.866969 6.34758 0.833469 6.39208 0.827969C6.39358 0.827969 6.39558 0.827969 6.39758 0.827969C6.46108 0.827969 6.51708 0.860469 6.55008 0.909969C6.58508 0.951969 6.60658 1.00647 6.60758 1.06547Z" fill="black"/>
<path d="M5.42257 1.88297C5.42257 1.92797 5.40508 1.98297 5.33257 1.98547C5.25357 1.97897 5.19207 1.91347 5.19207 1.83347C5.19207 1.82997 5.19207 1.82597 5.19257 1.82247C5.19257 1.76997 5.19257 1.70047 5.27507 1.69547C5.35757 1.69047 5.42257 1.79047 5.42257 1.88297Z" fill="black"/>
<path d="M10.6501 1.98547C10.5676 1.98547 10.5651 1.92297 10.5601 1.87047C10.5601 1.86697 10.5596 1.86347 10.5596 1.85947C10.5596 1.78147 10.6186 1.71697 10.6941 1.70797C10.7641 1.70797 10.7871 1.74297 10.7896 1.80047C10.7901 1.80547 10.7906 1.81197 10.7906 1.81797C10.7906 1.90147 10.7296 1.97097 10.6501 1.98547Z" fill="black"/>
</g>
<defs>
<clipPath id="clip0_6_251">
<rect width="16" height="16" fill="white"/>
</clipPath>
</defs>
</svg>
