<svg width="16" height="16" viewBox="0 0 16 16" fill="none" xmlns="http://www.w3.org/2000/svg">
<g clip-path="url(#clip0_6_444)">
<path d="M4.0335 16L0 12C0.2665 11.749 0.432 11.394 0.432 11C0.432 10.606 0.266 10.251 0.0005 10.0005L10 0C10.251 0.2665 10.606 0.432 11 0.432C11.394 0.432 11.749 0.266 11.9995 0.0005L16 4.0335C15.744 4.283 15.5855 4.6315 15.5855 5.017C15.5855 5.4025 15.744 5.7505 16 6L6.0005 16.0005C5.751 15.7445 5.4025 15.586 5.017 15.586C4.6315 15.586 4.283 15.744 4.0335 16Z" fill="black"/>
</g>
<defs>
<clipPath id="clip0_6_444">
<rect width="16" height="16" fill="white"/>
</clipPath>
</defs>
</svg>
