<svg width="16" height="16" viewBox="0 0 16 16" fill="none" xmlns="http://www.w3.org/2000/svg">
<g clip-path="url(#clip0_18_56)">
<path d="M12.4269 14.7307L12.4587 14.7125C12.4587 14.7125 12.4405 14.7216 12.4314 14.7261L12.4269 14.7307Z" fill="black"/>
<path d="M10.235 0.326744L10.176 0.313129C9.52252 0.113453 8.76466 0 7.9841 0C3.8635 0.0226905 0.473539 3.14491 0.0333425 7.15659V7.1929C-0.334244 11.554 2.75167 14.0999 2.75167 14.0999C4.15394 15.3161 5.99187 16.0558 8.00679 16.0558C9.64051 16.0558 11.1653 15.5657 12.4314 14.7261C12.4405 14.7216 12.4496 14.7125 12.4587 14.708C14.6143 13.2376 16.0029 10.8052 16.0029 8.04152C16.0029 4.39288 13.5705 1.30697 10.235 0.326744ZM11.0882 12.6931L11.07 12.7022C10.2032 13.2649 9.14132 13.5962 8.00225 13.5962C6.60452 13.5962 5.32023 13.097 4.33093 12.262C1.73513 9.79777 2.48846 7.1929 2.48846 7.1929C2.9105 4.5018 5.20678 2.46419 7.9841 2.44604C8.50598 2.45058 9.00517 2.52319 9.48168 2.65025C11.8596 3.33551 13.566 5.49111 13.566 8.04152C13.566 9.97929 12.5857 11.6856 11.0882 12.6931Z" fill="black"/>
<path d="M8.78735 5.44572H6.56821V8.67686L8.26093 11.3498L10.1034 10.2062L8.78735 8.0506V5.44572Z" fill="black"/>
</g>
<defs>
<clipPath id="clip0_18_56">
<rect width="16" height="16" fill="white"/>
</clipPath>
</defs>
</svg>
