<svg width="16" height="16" viewBox="0 0 16 16" fill="none" xmlns="http://www.w3.org/2000/svg">
<path d="M13.3576 10.1125C12.7501 9.8475 15.0401 6.2175 11.1426 3.03C11.1426 3.03 11.3251 5.5075 10.2576 5.5075C9.46258 5.5 10.9676 1.75 7.38008 0C7.38008 0 8.25008 2 5.25008 4C2.75008 5.6725 2.95508 7.475 3.22008 8.715C3.48508 9.955 2.16258 9.6 1.80508 8.715C1.80508 8.715 1.45008 16 7.82258 16C14.1951 16 14.1976 9.4475 14.1976 9.4475C14.1976 9.4475 13.9776 10.3775 13.3576 10.1125ZM11.5101 9.6125L10.2726 10.825C10.1846 10.9115 10.1301 11.032 10.1301 11.1655C10.1301 11.1955 10.1331 11.2245 10.1381 11.253L10.1376 11.25L10.4301 12.9525C10.4351 12.978 10.4376 13.0075 10.4376 13.0375C10.4376 13.297 10.2271 13.5075 9.96758 13.5075C9.88708 13.5075 9.81108 13.487 9.74508 13.4515L9.74758 13.4525L8.22008 12.6475C8.15608 12.6155 8.08008 12.5965 8.00008 12.5965C7.92008 12.5965 7.84408 12.6155 7.77708 12.649L7.78008 12.6475L6.25008 13.44C6.18608 13.4745 6.11058 13.495 6.03008 13.495C5.77058 13.495 5.56008 13.2845 5.56008 13.025C5.56008 12.995 5.56308 12.9655 5.56808 12.9375L5.56758 12.9405L5.86258 11.2505C5.86658 11.227 5.86908 11.2 5.86908 11.172C5.86908 11.0395 5.81508 10.9195 5.72758 10.833L4.50008 9.6205C4.41108 9.535 4.35608 9.415 4.35608 9.282C4.35608 9.049 4.52508 8.856 4.74758 8.8185L4.75058 8.818L6.46058 8.568C6.61558 8.5475 6.74458 8.4525 6.81208 8.3205L6.81308 8.318L7.57808 6.7705C7.65758 6.6145 7.81658 6.5095 8.00058 6.5095C8.18458 6.5095 8.34358 6.6145 8.42208 6.768L8.42308 6.7705L9.18808 8.318C9.25658 8.4525 9.38558 8.5475 9.53808 8.568H9.54058L11.2506 8.818C11.4756 8.856 11.6446 9.049 11.6446 9.282C11.6446 9.415 11.5896 9.535 11.5006 9.6205L11.5101 9.6125Z" fill="black"/>
</svg>
