<svg width="16" height="16" viewBox="0 0 16 16" fill="none" xmlns="http://www.w3.org/2000/svg">
<g clip-path="url(#clip0_6_420)">
<path d="M6.6265 8.83377H7.333C7.366 8.83576 7.4045 8.83727 7.4435 8.83727C8.0885 8.83727 8.657 8.50777 8.989 8.00727L8.9935 8.00027C8.135 7.83227 7.388 7.43377 6.7985 6.87177L6.8005 6.87327C6.6965 6.75177 6.611 6.61027 6.5505 6.45677L6.547 6.44677C6.554 6.38627 6.558 6.31627 6.558 6.24527C6.558 5.39127 5.9675 4.67477 5.1725 4.48277L5.16 4.48027C5.024 4.44527 4.8675 4.42477 4.7065 4.42477C4.5455 4.42477 4.3895 4.44477 4.24 4.48277L4.253 4.47977L0.6665 5.17977C0.2835 5.26027 0 5.59527 0 5.99627C0 5.99727 0 5.99877 0 5.99977V8.66627H1.6665V6.66627L2.8465 6.44627L2.133 9.58627L0.7665 15.6463L2.393 15.9998L3.673 10.3863L5.1665 12.2663V15.9998H6.833V11.9998C6.833 11.9978 6.833 11.9953 6.833 11.9923C6.833 11.7978 6.765 11.6188 6.6515 11.4778L6.6525 11.4793L5.6925 10.2658L6.099 8.47227C6.2505 8.59027 6.4225 8.70927 6.601 8.81827L6.6255 8.83227L6.6265 8.83377Z" fill="black"/>
<path d="M14 12.4938L15.3335 11.2673C15.6775 10.9398 15.8915 10.4788 15.8915 9.96727C15.8915 9.48927 15.7045 9.05477 15.3995 8.73327L15.4005 8.73427L13.334 6.54777C13.013 6.21177 12.561 6.00277 12.0605 6.00277C11.593 6.00277 11.1685 6.18477 10.853 6.48227L10.854 6.48127L10.8075 6.53477C10.5165 6.80927 10.321 7.18227 10.275 7.60027L10.2745 7.60827C10.2095 7.83227 10.1325 8.02427 10.039 8.20727L10.0475 8.18827C9.969 8.34177 9.8915 8.47027 9.8065 8.59377L9.8145 8.58177C9.7235 8.71627 9.627 8.83427 9.521 8.94227L9.4815 8.98827C9.3695 9.10527 9.2475 9.21027 9.116 9.30327L9.108 9.30827H9.068C8.928 9.40477 8.7675 9.49227 8.5985 9.56177L8.5815 9.56827C8.234 9.71627 7.83 9.80227 7.406 9.80227C7.388 9.80227 7.37 9.80227 7.3525 9.80177H7.355V11.4683C7.3955 11.4698 7.4435 11.4703 7.4915 11.4703C9.034 11.4703 10.3925 10.6813 11.185 9.48477L11.195 9.46827L11.7485 10.0483C10.6705 10.4713 9.907 11.4723 9.8355 12.6598L9.835 12.6683V16.0018H11.5015V12.7283C11.5595 12.1643 11.9615 11.7078 12.492 11.5703L12.5015 11.5683C12.337 11.8338 12.239 12.1553 12.239 12.5003C12.239 12.9763 12.425 13.4088 12.7285 13.7293L12.7275 13.7283L14.7275 15.7283L16.001 14.5148L14 12.4938Z" fill="black"/>
<path d="M6.7935 3.73377C7.2735 3.45327 7.591 2.94027 7.591 2.35327C7.591 1.47327 6.8775 0.759766 5.9975 0.759766C5.1175 0.759766 4.404 1.47327 4.404 2.35327C4.404 2.64827 4.484 2.92427 4.6235 3.16127L4.6195 3.15377C4.8985 3.63227 5.4095 3.94927 5.995 3.94927C6.289 3.94927 6.5645 3.86927 6.8005 3.72977L6.7935 3.73377Z" fill="black"/>
<path d="M10.1265 6.71377C10.6085 6.43377 10.927 5.91977 10.927 5.33177C10.927 4.45177 10.2135 3.73827 9.3335 3.73827C8.4535 3.73827 7.74 4.45177 7.74 5.33177C7.74 5.62477 7.819 5.89877 7.957 6.13477L7.953 6.12727C8.2315 6.60877 8.744 6.92777 9.331 6.92777C9.624 6.92777 9.898 6.84827 10.1335 6.71027L10.1265 6.71377Z" fill="black"/>
</g>
<defs>
<clipPath id="clip0_6_420">
<rect width="16" height="16" fill="white"/>
</clipPath>
</defs>
</svg>
