<svg width="16" height="16" viewBox="0 0 16 16" fill="none" xmlns="http://www.w3.org/2000/svg">
<g clip-path="url(#clip0_6_324)">
<path d="M12.78 11.12L14.9065 12.0935C15.048 12.159 15.1445 12.3 15.1445 12.4635C15.1445 12.627 15.048 12.768 14.909 12.8325L14.9065 12.8335L7.99997 16L1.09347 12.8335C0.951969 12.768 0.855469 12.627 0.855469 12.4635C0.855469 12.3 0.951969 12.159 1.09097 12.0945L1.09347 12.0935L3.21997 11.12L7.33347 13.0065L7.99997 13.333L8.66647 13.0265L12.78 11.12ZM14.9065 3.9065C15.048 3.841 15.1445 3.7 15.1445 3.5365C15.1445 3.373 15.048 3.232 14.909 3.1675L14.9065 3.1665L7.99997 0L1.09347 3.1665C0.951969 3.232 0.855469 3.373 0.855469 3.5365C0.855469 3.7 0.951969 3.841 1.09097 3.9055L1.09347 3.9065L7.99997 7.073L14.9065 3.9065ZM8.67347 8.5735L8.00697 8.887L7.34047 8.5735L3.22047 6.667L1.09397 7.6335C0.956469 7.7005 0.862969 7.8395 0.862969 8C0.862969 8.1605 0.955969 8.2995 1.09147 8.3655L1.09397 8.3665L8.00047 11.533L14.907 8.3665C15.0445 8.2995 15.138 8.1605 15.138 8C15.138 7.8395 15.045 7.7005 14.9095 7.6345L14.907 7.6335L12.7805 6.667L8.67347 8.5735Z" fill="black"/>
</g>
<defs>
<clipPath id="clip0_6_324">
<rect width="16" height="16" fill="white"/>
</clipPath>
</defs>
</svg>
