<svg width="16" height="16" viewBox="0 0 16 16" fill="none" xmlns="http://www.w3.org/2000/svg">
<g clip-path="url(#clip0_6_459)">
<path d="M13.7335 2.4665C15.1335 3.8665 16 5.8665 16 8C16 9.7335 15.4665 11.3335 14.5335 12.6C14.3335 12.5335 14.067 12.4 13.867 12.3335C13.667 12.2 13.5335 12.2 13.4005 12.067C14.0005 10.5335 14.334 8.7335 14.334 6.867C14.334 6.667 14.334 6.467 14.334 6.267C14.2675 4.867 14.0675 3.5335 13.734 2.267L13.7335 2.4665ZM11.6665 0.9335C12.2665 2.5335 12.6 4.4 12.733 6.3335V6.4C12.733 6.6 12.733 6.8 12.733 7.0665C12.733 8.6 12.4665 10 11.9995 11.4V11.3335C11.666 11.1335 11.333 10.867 10.9995 10.6C11.1995 9.5335 11.333 8.2665 11.333 6.9335C11.333 6.2 11.2665 5.467 11.1995 4.8V4.8665C10.9995 3.2 10.733 1.733 10.1995 0.333L10.266 0.4665C10.9325 0.533 11.333 0.7335 11.6665 0.9335ZM7.40001 16C6.93351 15.5335 6.46651 15.1335 6.06651 14.6665C6.46651 14.4665 6.93301 14.2665 7.33301 14C7.99951 14.6665 8.79951 15.3335 9.59951 15.8665L9.66601 15.933C9.13251 15.933 8.59951 15.9995 7.99951 15.9995C7.79951 15.9995 7.60001 16 7.40001 16ZM11.5335 15.1335L11.4 15.067C10.3335 14.467 9.40001 13.8005 8.60001 13.067C9.13351 12.667 9.66651 12.267 10.2 11.8005C11.0665 12.467 12 13.134 13.0665 13.667L13.133 13.7335C13.1995 13.8 13.333 13.8 13.3995 13.867C12.933 14.3335 12.2665 14.8005 11.5335 15.1335ZM2.80001 14.0665C1.86651 13.2665 1.06651 12.2 0.600012 11.0665V11C1.20001 10.6 1.93351 10.2 2.66651 9.8665L2.73301 9.8C4.79951 8.8665 7.13301 8.1335 9.66651 7.7335H9.80001C9.73351 8.7335 9.60001 9.667 9.46651 10.5335V10.4C8.13301 11.6 6.66651 12.6 5.00001 13.4L4.86651 13.4665C4.26651 13.733 3.53301 13.933 2.86651 14.133L2.80001 14.0665ZM8.60001 0C8.80001 0.5335 9.00001 1.0665 9.13351 1.6C7.00001 1.6665 5.00001 2.1335 3.13351 2.8L3.26701 2.7335C2.46701 3.067 1.80051 3.4 1.13351 3.7335L1.26701 3.667C2.73351 1.467 5.20051 0.0005 8.00051 0.0005C8.20051 0.0005 8.40001 0 8.60001 0ZM9.86651 6.1335C6.93301 6.6 4.33301 7.4 1.93301 8.467L2.13301 8.4005C1.33301 8.734 0.666512 9.134 0.0665117 9.467L0.133012 9.4005C0.0665117 9.0005 -0.000488281 8.534 -0.000488281 8.067V8.0005C-0.000488281 7.334 0.0660117 6.6005 0.266012 6.0005V6.067C1.26601 5.4005 2.46601 4.8005 3.73251 4.3335L3.86601 4.267C5.53251 3.6005 7.53251 3.2005 9.59951 3.2005C9.73301 3.8005 9.79951 4.334 9.86601 4.934C9.86601 5.334 9.86651 5.7335 9.86651 6.1335Z" fill="black"/>
</g>
<defs>
<clipPath id="clip0_6_459">
<rect width="16" height="16" fill="white"/>
</clipPath>
</defs>
</svg>
