<svg width="16" height="16" viewBox="0 0 16 16" fill="none" xmlns="http://www.w3.org/2000/svg">
<g clip-path="url(#clip0_6_489)">
<path d="M7.375 7.12027C7.437 7.09077 7.5095 7.07377 7.586 7.07377C7.811 7.07377 8.0015 7.22227 8.064 7.42677L8.065 7.43027C8.0805 7.60077 8.0895 7.79877 8.0895 7.99877C8.0895 8.19877 8.0805 8.39727 8.0635 8.59277L8.0655 8.56727C7.988 8.99977 7.263 9.01977 7.148 8.59977C7.1245 8.39477 7.1115 8.15727 7.1115 7.91677C7.1115 7.79627 7.115 7.67677 7.1215 7.55827L7.121 7.57477C7.1195 7.56177 7.119 7.54677 7.119 7.53177C7.119 7.35327 7.22 7.19827 7.3685 7.12127L7.371 7.12027H7.375ZM7.5475 7.37027C7.537 7.55677 7.5305 7.77527 7.5305 7.99527C7.5305 8.21527 7.5365 8.43377 7.5485 8.65027L7.547 8.62027L7.6445 8.58777C7.6605 8.41327 7.67 8.21027 7.67 8.00527C7.67 7.80027 7.661 7.59727 7.643 7.39677L7.645 7.42277L7.545 7.36777L7.5475 7.37027Z" fill="black"/>
<path d="M8.22 7.11777H8.89C8.89 7.23277 8.89 7.35027 8.89 7.46527H8.615V7.80027H8.865V8.12527H8.615V8.87527H8.22V7.11777Z" fill="black"/>
<path d="M1.8125 1.00027C2.15 0.848266 2.5445 0.759766 2.9595 0.759766C3.1985 0.759766 3.4305 0.789266 3.652 0.844266L3.6325 0.840266C4.0875 0.950266 4.57 1.20777 4.7425 1.67277C4.838 2.04977 4.8925 2.48277 4.8925 2.92827C4.8925 3.06877 4.887 3.20827 4.8765 3.34627L4.8775 3.32777H3.25C3.2375 2.86777 3.275 2.40777 3.2275 1.95027C3.2275 1.63277 2.6775 1.63527 2.685 1.95027C2.625 2.66777 2.67 3.39277 2.6575 4.11527C2.651 4.25327 2.6475 4.41527 2.6475 4.57827C2.6475 4.90277 2.662 5.22427 2.6905 5.54127L2.6875 5.50027C2.7325 5.68277 2.96 5.69777 3.105 5.63527C3.25 5.57277 3.22 5.40777 3.2325 5.28527C3.25 4.94277 3.2325 4.60027 3.2325 4.25777C3.78 4.25777 4.325 4.25777 4.8725 4.25777C4.8575 4.77777 4.9025 5.33027 4.685 5.81527C4.3225 6.41777 3.565 6.64277 2.9 6.62027C2.3125 6.62027 1.65 6.48027 1.275 5.97527C1.025 5.56527 1.025 5.05527 1.0025 4.58777C1.0025 3.75777 0.9725 2.92527 1.03 2.08777C1.0785 1.60127 1.3825 1.19577 1.804 1.00377L1.8125 1.00027Z" fill="black"/>
<path d="M5.75 0.855266C6.545 0.855266 7.3375 0.855266 8.1325 0.855266C8.4325 2.73527 8.755 4.60527 9.0625 6.49277H7.54C7.495 6.14277 7.4625 5.78777 7.4075 5.43777H6.86C6.8925 5.12277 6.9275 4.80777 6.9625 4.49277H7.2975C7.1975 3.68777 7.12 2.87777 6.9975 2.07527C6.8375 3.55027 6.645 5.02027 6.47 6.49277H4.9325C5.205 4.61277 5.5 2.73527 5.75 0.855266Z" fill="black"/>
<path d="M9.3525 0.850266H10.985V5.35027H11.985C11.985 5.72777 11.985 6.10027 11.985 6.48277H9.355C9.355 4.60277 9.355 2.73277 9.355 0.840266L9.3525 0.850266Z" fill="black"/>
<path d="M12.37 0.850266H14V5.35027H15C15 5.72777 15 6.10027 15 6.48277H12.3725C12.37 4.61277 12.3725 2.73027 12.37 0.850266Z" fill="black"/>
<path d="M0 9.50027C0.72 9.50027 1.4425 9.50027 2.1625 9.53026C2.5665 9.53076 2.9495 9.62276 3.2905 9.78726L3.275 9.78026C3.5745 9.96676 3.7715 10.2923 3.775 10.6648C3.825 11.6448 3.7975 12.6303 3.8 13.6128C3.78 14.0178 3.8225 14.4878 3.53 14.8103C3.2375 15.1328 2.7325 15.1253 2.3125 15.1428C1.545 15.1428 0.775 15.1428 0.005 15.1428V9.50027H0ZM1.6425 10.4703V14.1803C1.7975 14.1478 2.035 14.1803 2.1025 13.9953C2.146 13.7173 2.171 13.3963 2.171 13.0698C2.171 12.9558 2.168 12.8423 2.162 12.7293L2.1625 12.7448C2.1475 12.0648 2.19 11.3848 2.1375 10.7048C2.115 10.4548 1.8225 10.4723 1.6375 10.4548L1.6425 10.4703Z" fill="black"/>
<path d="M4.2025 9.50027H5.83C5.83 10.8703 5.83 12.2503 5.83 13.6103C5.8295 13.6333 5.829 13.6603 5.829 13.6878C5.829 13.8528 5.842 14.0148 5.8675 14.1728L5.865 14.1553C5.8875 14.3603 6.25 14.3503 6.265 14.1553C6.288 14.0208 6.3015 13.8658 6.3015 13.7078C6.3015 13.6763 6.301 13.6443 6.3 13.6133V13.6178C6.3 12.2478 6.3 10.8803 6.3 9.51277H7.9275C7.9275 10.8303 7.9275 12.1478 7.9275 13.4653C7.91 13.8278 7.95 14.2278 7.735 14.5428C7.455 14.9363 7.0105 15.1973 6.504 15.2253H6.5C6.377 15.2463 6.2355 15.2583 6.0915 15.2583C5.5805 15.2583 5.1045 15.1083 4.705 14.8493L4.715 14.8553C4.4175 14.6283 4.227 14.2738 4.227 13.8743C4.227 13.8633 4.227 13.8523 4.2275 13.8413V13.8428C4.19 12.3953 4.2275 10.9453 4.2075 9.49777L4.2025 9.50027Z" fill="black"/>
<path d="M8.28 9.50027H11.8625V10.6328H10.8925V15.1328H9.25V10.6328H8.2825C8.275 10.2503 8.28 9.87277 8.28 9.50027Z" fill="black"/>
<path d="M12.155 9.50027C12.655 9.50027 13.155 9.50027 13.655 9.50027C13.9625 10.5003 14.3 11.5178 14.62 12.5278C14.7145 12.7473 14.7805 13.0018 14.8045 13.2683L14.805 13.2778C14.805 13.9028 14.805 14.5278 14.805 15.1528H13.305C13.305 14.5528 13.305 13.9528 13.305 13.3528C13.3055 13.3398 13.306 13.3243 13.306 13.3088C13.306 13.1813 13.2875 13.0578 13.253 12.9413L13.2555 12.9503C12.8855 11.8103 12.5225 10.6528 12.155 9.50027Z" fill="black"/>
<path d="M14.5 9.50027H16C15.6475 10.5678 15.3 11.6378 14.95 12.7053C14.725 11.9928 14.475 11.2878 14.2725 10.5678C14.32 10.2028 14.43 9.85277 14.5 9.50027Z" fill="black"/>
</g>
<defs>
<clipPath id="clip0_6_489">
<rect width="16" height="16" fill="white"/>
</clipPath>
</defs>
</svg>
