<svg width="16" height="16" viewBox="0 0 16 16" fill="none" xmlns="http://www.w3.org/2000/svg">
<path d="M10.418 2.99745C9.93698 2.71395 9.61898 2.19845 9.61898 1.60845C9.61898 0.720953 10.3385 0.00195312 11.2255 0.00195312C12.1125 0.00195312 12.832 0.721453 12.832 1.60845C12.832 1.90395 12.7525 2.18045 12.6135 2.41795L12.6175 2.41045C12.3365 2.89595 11.82 3.21745 11.228 3.21745C10.929 3.21745 10.6495 3.13545 10.4105 2.99295L10.418 2.99745Z" fill="black"/>
<path d="M3.99798 13.131L5.74448 6.46445L6.88448 4.46445C6.73698 4.45295 6.56498 4.44645 6.39098 4.44645C6.21698 4.44645 6.04548 4.45295 5.87498 4.46595L5.89748 4.46445C5.84548 4.46295 5.78498 4.46195 5.72398 4.46195C4.61348 4.46195 3.57848 4.78595 2.70898 5.34445L2.73098 5.33095L1.63748 4.07095C2.66398 3.19095 4.48398 2.83095 5.83748 2.79745C5.89998 2.79595 5.97348 2.79495 6.04748 2.79495C6.80448 2.79495 7.53848 2.89295 8.23698 3.07745L8.17748 3.06395C8.35798 2.99595 8.56648 2.95695 8.78398 2.95695C9.10748 2.95695 9.41098 3.04345 9.67248 3.19495L9.66398 3.19045H9.72398C10.266 3.49895 10.6255 4.07295 10.6255 4.73045C10.6255 5.05445 10.5385 5.35745 10.3865 5.61845L10.391 5.60995L9.01098 7.99645L9.51098 9.24295L9.21748 10.3495L11.9975 8.90945C12.3705 8.70445 12.619 8.31445 12.619 7.86595C12.619 7.66995 12.5715 7.48545 12.4875 7.32295L12.4905 7.32945L14.0905 6.46945C14.3075 6.87295 14.435 7.35245 14.435 7.86195C14.435 9.00595 13.7915 9.99995 12.8465 10.5015L12.8305 10.5095L11.997 10.963L11.6105 11.163L6.61698 13.7895L5.36348 14.456L2.40348 15.996L1.56348 14.396L3.99798 13.131ZM7.19798 11.431L7.73798 9.38445L7.39148 8.51795L6.93798 8.42445L5.99798 12.078L7.19798 11.431Z" fill="black"/>
</svg>
