<svg width="16" height="16" viewBox="0 0 16 16" fill="none" xmlns="http://www.w3.org/2000/svg">
<g clip-path="url(#clip0_6_523)">
<path d="M14.4935 8.19354C14.2335 6.73304 12.9755 5.63754 11.4605 5.63354H8.36652V4.14004C9.09752 3.96754 9.63302 3.32054 9.63302 2.54854C9.63302 1.64654 8.90152 0.915039 7.99952 0.915039C7.09752 0.915039 6.36602 1.64654 6.36602 2.54854C6.36602 3.32054 6.90152 3.96754 7.62152 4.13804L7.63252 4.14004V5.63354H4.53902C3.02352 5.63754 1.76552 6.73304 1.50852 8.17504L1.50552 8.19354C0.662023 8.25454 0.000523438 8.95304 -0.000976562 9.80654V10.92C0.000523438 11.7735 0.662023 12.4725 1.50052 12.533L1.50552 12.5335C1.76552 13.994 3.02352 15.0895 4.53852 15.0935H11.459C12.9745 15.0895 14.2325 13.994 14.4895 12.552L14.4925 12.5335C15.336 12.4725 15.9975 11.774 15.999 10.9205V9.80704C15.9975 8.95354 15.336 8.25454 14.4975 8.19404L14.492 8.19354H14.4935ZM5.06002 11.82C5.05002 11.82 5.03852 11.8205 5.02652 11.8205C4.12052 11.8205 3.38652 11.0865 3.38652 10.1805C3.38652 9.27454 4.12102 8.54054 5.02652 8.54054C5.93202 8.54054 6.66652 9.27454 6.66652 10.18C6.66652 11.074 5.95102 11.8015 5.06152 11.82H5.06002ZM10.94 11.82C10.0345 11.82 9.30002 11.086 9.30002 10.18C9.30002 9.27404 10.034 8.54004 10.94 8.54004C11.8455 8.54004 12.58 9.27404 12.58 10.18C12.58 11.0855 11.846 11.82 10.94 11.82Z" fill="black"/>
</g>
<defs>
<clipPath id="clip0_6_523">
<rect width="16" height="16" fill="white"/>
</clipPath>
</defs>
</svg>
