<svg width="16" height="16" viewBox="0 0 16 16" fill="none" xmlns="http://www.w3.org/2000/svg">
<g clip-path="url(#clip0_6_293)">
<path d="M8.02239 5.73467H10.3824C10.5874 5.73467 10.5999 5.74967 10.5649 5.94217C10.4674 6.48967 10.3624 7.03467 10.2699 7.58467C10.2449 7.73717 10.1849 7.80717 10.0199 7.80217C9.69989 7.78967 9.37739 7.80217 9.05739 7.80217C8.91489 7.80217 8.85989 7.76717 8.89739 7.61467C8.93489 7.46217 8.95239 7.28717 8.98739 7.11467C9.01239 7.00467 8.98738 6.95217 8.86489 6.95467H7.12989C7.01989 6.95467 6.99489 7.00717 7.01489 7.10967C7.06989 7.39717 7.12239 7.68717 7.16739 7.97967C7.18739 8.10217 7.24739 8.13467 7.36239 8.13467C7.69989 8.13467 8.03739 8.13467 8.37489 8.13467C8.51239 8.13467 8.55488 8.17467 8.52489 8.31467C8.46489 8.59717 8.41489 8.88217 8.36989 9.16717C8.36989 9.16817 8.36989 9.16967 8.36989 9.17067C8.36989 9.26867 8.29039 9.34817 8.19239 9.34817C8.17989 9.34817 8.16788 9.34667 8.15639 9.34467H8.15739C7.95989 9.34467 7.76239 9.34467 7.56489 9.34467C7.45239 9.34467 7.40989 9.38467 7.42989 9.50217C7.52989 10.0547 7.62239 10.6072 7.72489 11.1597C7.73739 11.2322 7.77989 11.3472 7.82489 11.3547C7.88189 11.3652 7.94689 11.3717 8.01339 11.3717C8.07989 11.3717 8.14539 11.3657 8.20889 11.3537L8.20239 11.3547C8.23239 11.3547 8.25989 11.2597 8.26989 11.2047C8.34989 10.7622 8.42988 10.3222 8.50239 9.87717C8.52238 9.75467 8.57489 9.70217 8.70239 9.70217C9.03739 9.70217 9.37489 9.70217 9.70239 9.70217C9.82989 9.70217 9.87739 9.73967 9.85239 9.87217C9.69739 10.7272 9.54572 11.5813 9.39739 12.4347C9.39689 12.5157 9.33089 12.5812 9.24989 12.5812C9.24189 12.5812 9.23438 12.5807 9.22639 12.5792H9.22739H6.75239C6.64739 12.5792 6.60489 12.5317 6.58489 12.4267C6.25155 10.485 5.90989 8.54083 5.55989 6.59417C5.52239 6.37917 5.48489 6.16167 5.43989 5.94667C5.41239 5.80667 5.45489 5.75417 5.60239 5.75417C6.40739 5.75417 7.20989 5.75417 8.01239 5.75417L8.02239 5.73467Z" fill="black"/>
<path d="M13.5599 4.71467H15.8099C16.0324 4.71467 16.0399 4.74217 15.9449 4.94467C15.5499 5.77717 15.1599 6.60967 14.7674 7.44467C14.6049 7.78717 14.4374 8.12967 14.2674 8.47467C14.2099 8.59717 14.1499 8.60217 14.0499 8.51967C13.7874 8.30217 13.5199 8.08717 13.2474 7.87967C13.1934 7.85067 13.1574 7.79417 13.1574 7.72967C13.1574 7.69217 13.1694 7.65717 13.1904 7.62917C13.4404 7.12917 13.6699 6.61467 13.9099 6.10717C13.9899 5.93717 13.9774 5.91217 13.7949 5.91217H12.4399C12.3149 5.91217 12.2424 5.94467 12.2199 6.08217C12.1066 6.74883 11.9891 7.4155 11.8674 8.08217C11.8619 8.10217 11.8589 8.12517 11.8589 8.14867C11.8589 8.24117 11.9069 8.32217 11.9789 8.36917L11.9799 8.36967C12.4949 8.76967 12.9999 9.18217 13.5174 9.58217C13.5924 9.62167 13.6429 9.69917 13.6429 9.78867C13.6429 9.84217 13.6249 9.89117 13.5949 9.93017C13.2724 10.5877 12.9629 11.2522 12.6554 11.9172C12.6239 12.0092 12.5384 12.0742 12.4374 12.0742C12.4264 12.0742 12.4149 12.0732 12.4044 12.0717H12.4054C11.9404 12.0717 11.4729 12.0717 11.0079 12.0717C10.8229 12.0717 10.8104 12.0567 10.8404 11.8792C10.8879 11.5992 10.9404 11.3217 10.9854 11.0417C11.0054 10.9192 11.0579 10.8642 11.1854 10.8642C11.3504 10.8642 11.5804 10.9092 11.6629 10.8217C11.8044 10.6392 11.9189 10.4267 11.9959 10.1967L12.0004 10.1817C12.0179 10.1467 11.9579 10.0567 11.9104 10.0192C11.4754 9.66417 11.0379 9.31167 10.5929 8.96917C10.4894 8.90517 10.4214 8.79267 10.4214 8.66367C10.4214 8.62817 10.4264 8.59367 10.4364 8.56167L10.4359 8.56417C10.6592 7.34417 10.8734 6.12167 11.0784 4.89667C11.1034 4.76167 11.1584 4.70917 11.2984 4.71167C12.0484 4.71167 12.7984 4.71167 13.5634 4.71167L13.5599 4.71467Z" fill="black"/>
<path d="M2.45489 4.71717C3.20489 4.71717 3.95489 4.71717 4.70489 4.71717C4.85489 4.71717 4.90739 4.76467 4.93239 4.91217C5.14489 6.13967 5.35989 7.36717 5.58489 8.59467C5.59339 8.62117 5.59839 8.65167 5.59839 8.68317C5.59839 8.78867 5.54389 8.88117 5.46089 8.93367L5.45989 8.93417C5.01239 9.28167 4.57489 9.64167 4.12489 9.98667C4.05489 10.0232 4.00839 10.0952 4.00839 10.1777C4.00839 10.2287 4.02589 10.2752 4.05539 10.3117C4.11939 10.4247 4.18589 10.5622 4.24489 10.7042L4.25489 10.7312C4.28139 10.8112 4.35539 10.8677 4.44289 10.8677C4.45089 10.8677 4.45839 10.8672 4.46589 10.8662H4.83239C4.83839 10.8652 4.84589 10.8647 4.85289 10.8647C4.92939 10.8647 4.99239 10.9232 4.99989 10.9982C5.04489 11.2932 5.09989 11.5887 5.15739 11.8837C5.18239 12.0162 5.13239 12.0562 5.00739 12.0562C4.52489 12.0562 4.04489 12.0562 3.56239 12.0562C3.55689 12.0567 3.55089 12.0572 3.54439 12.0572C3.45689 12.0572 3.38239 12.0012 3.35539 11.9227L3.35489 11.9212C3.02989 11.2295 2.70239 10.5378 2.37239 9.84617C2.31739 9.73367 2.37239 9.67867 2.44989 9.61867C2.97239 9.20117 3.49239 8.78117 4.01739 8.36867C4.09139 8.32017 4.13989 8.23767 4.13989 8.14367C4.13989 8.11767 4.13639 8.09267 4.12939 8.06917L4.12989 8.07117C4.00655 7.4145 3.89072 6.75533 3.78239 6.09367C3.78239 5.98867 3.69739 5.90317 3.59239 5.90317C3.58089 5.90317 3.56989 5.90417 3.55889 5.90617C3.09889 5.90617 2.63989 5.90617 2.17989 5.90617C2.01739 5.90617 2.00239 5.93867 2.07239 6.08867C2.32239 6.60117 2.55489 7.11617 2.79739 7.62867C2.81739 7.65617 2.82989 7.69067 2.82989 7.72767C2.82989 7.79367 2.79139 7.85117 2.73589 7.87817L2.73489 7.87867C2.48489 8.07617 2.23489 8.28367 1.96739 8.48617C1.80239 8.61617 1.78489 8.61367 1.69489 8.42117C1.31322 7.6145 0.93322 6.807 0.554886 5.99867C0.387386 5.64117 0.214886 5.28367 0.0548863 4.92617C-0.0251137 4.75367 -0.00761372 4.72117 0.184886 4.72117C0.934886 4.72117 1.70489 4.72117 2.46489 4.72117L2.45489 4.71717Z" fill="black"/>
<path d="M7.99989 5.41967C7.19239 5.41967 6.38489 5.41967 5.57489 5.41967C5.41739 5.41967 5.34739 5.37217 5.32489 5.21217C5.14489 4.16717 4.96155 3.12383 4.77489 2.08217C4.75739 1.97217 4.79489 1.93467 4.89739 1.93467H5.99989C6.10739 1.93467 6.13489 1.99217 6.14989 2.07967C6.25989 2.70717 6.37239 3.32967 6.48239 3.96217C6.52489 4.21217 6.52739 4.21217 6.76239 4.21217C6.89739 4.21217 7.02989 4.21217 7.16489 4.21217C7.29989 4.21217 7.34989 4.15967 7.34989 4.02217C7.34989 3.40217 7.34989 2.77217 7.34989 2.15967C7.34989 1.93967 7.34989 1.93467 7.56989 1.93467C7.88739 1.93467 8.20239 1.93467 8.51739 1.93467C8.64739 1.93467 8.69239 1.96967 8.69239 2.10717C8.69239 2.73967 8.69239 3.37217 8.69239 4.00217C8.69239 4.15967 8.73489 4.22967 8.90239 4.21467C8.96689 4.21067 9.04239 4.20817 9.11889 4.20817C9.19539 4.20817 9.27039 4.21067 9.34539 4.21517L9.33539 4.21467C9.46789 4.21467 9.52539 4.17717 9.54789 4.04217C9.65539 3.39967 9.77539 2.75717 9.88289 2.11217C9.90539 1.97717 9.96289 1.93217 10.0929 1.93467C10.4304 1.93467 10.7679 1.93467 11.0929 1.93467C11.2154 1.93467 11.2654 1.95217 11.2404 2.09717C11.0504 3.1405 10.8662 4.18384 10.6879 5.22717C10.6604 5.38717 10.5929 5.43467 10.4379 5.43467C9.63039 5.43467 8.82289 5.43467 8.01289 5.43467L7.99989 5.41967Z" fill="black"/>
<path d="M7.98239 14.0722H6.41239C6.22489 14.0722 6.21239 14.0522 6.26989 13.8772C6.36739 13.5872 6.47239 13.3022 6.56739 13.0122C6.58489 12.9282 6.65839 12.8662 6.74639 12.8662C6.75389 12.8662 6.76139 12.8667 6.76839 12.8677C7.59089 12.8677 8.41239 12.8677 9.23489 12.8677C9.23989 12.8672 9.24539 12.8672 9.25089 12.8672C9.33989 12.8672 9.41439 12.9302 9.43189 13.0142V13.0152C9.52939 13.3027 9.63439 13.5877 9.73439 13.8777C9.78939 14.0402 9.75939 14.0777 9.58689 14.0777H7.98189L7.98239 14.0722Z" fill="black"/>
</g>
<defs>
<clipPath id="clip0_6_293">
<rect width="16" height="16" fill="white"/>
</clipPath>
</defs>
</svg>
