<svg width="16" height="16" viewBox="0 0 16 16" fill="none" xmlns="http://www.w3.org/2000/svg">
<path d="M9.45 4.62461C9.45 6.57161 7.872 8.14961 5.925 8.14961C3.978 8.14961 2.4 6.57161 2.4 4.62461C2.4 2.67761 3.978 1.09961 5.925 1.09961C7.872 1.09961 9.45 2.67761 9.45 4.62461Z" fill="black"/>
<path d="M6.05 11.9246C6.05 11.0246 6.25 10.1246 6.65 9.32461C6.4 9.29961 6.15 9.27461 5.9 9.27461C2.925 9.27461 0.4 11.4746 0 14.3996H6.6C6.25 13.6246 6.05 12.7746 6.05 11.9246Z" fill="black"/>
<path d="M16 11.0496H12.775V7.82461H11.05V11.0496H7.825V12.7746H11.05V15.9996H12.775V12.7746H16V11.0496Z" fill="black"/>
</svg>
