<svg width="16" height="16" viewBox="0 0 16 16" fill="none" xmlns="http://www.w3.org/2000/svg">
<g clip-path="url(#clip0_6_373)">
<path d="M8.0001 1.04289L8.1651 1.21039C8.88843 1.95539 9.61343 2.69789 10.3401 3.43789C10.5011 3.60139 10.7066 3.72039 10.9366 3.77639L10.9451 3.77789C11.9276 4.00539 12.9101 4.22789 13.8926 4.45289L14.2376 4.53039L14.1626 4.78039C13.8659 5.73872 13.5709 6.69706 13.2776 7.65539C13.2441 7.76189 13.2251 7.88439 13.2251 8.01139C13.2251 8.13839 13.2441 8.26089 13.2801 8.37639L13.2776 8.36789C13.5726 9.32456 13.8701 10.2854 14.1701 11.2504L14.2376 11.4704L13.6751 11.6004C12.7701 11.8054 11.8643 12.0129 10.9576 12.2229C10.7096 12.2854 10.4961 12.4094 10.3276 12.5779C9.60926 13.3062 8.89426 14.0387 8.1826 14.7754L8.00259 14.9579L7.8151 14.7654C7.1051 14.0337 6.39176 13.3029 5.6751 12.5729C5.5056 12.4059 5.2926 12.2829 5.0546 12.2224L5.0451 12.2204C3.9476 11.9704 2.8651 11.7204 1.7651 11.4704L1.9476 10.8879C2.21093 10.0396 2.4726 9.19122 2.7326 8.34289C2.7641 8.24089 2.7821 8.12339 2.7821 8.00139C2.7821 7.87939 2.7641 7.76239 2.7301 7.65189L2.7321 7.66039C2.43543 6.69206 2.1371 5.72206 1.8371 4.75039L1.7671 4.52539L2.3196 4.39789L5.0471 3.77289C5.2936 3.71289 5.5061 3.59139 5.6746 3.42539C6.3971 2.69039 7.11709 1.95039 7.8371 1.21289L8.0001 1.04289ZM8.0001 0.0253906C7.9526 0.0253906 7.9051 0.0653906 7.8276 0.142891C6.9326 1.06289 6.03593 1.97956 5.1376 2.89289C5.07109 2.96189 4.9866 3.01339 4.8916 3.03939L4.8876 3.04039C3.60593 3.34706 2.3276 3.64206 1.0526 3.92539C0.837595 3.97539 0.820095 4.01039 0.885095 4.22039C1.2626 5.44039 1.6351 6.65789 2.0151 7.87789C2.0266 7.91539 2.0331 7.95839 2.0331 8.00289C2.0331 8.04739 2.0266 8.09039 2.0146 8.13089L2.0156 8.12789C1.6831 9.21789 1.3431 10.3054 1.0156 11.3929C0.963095 11.5629 0.910595 11.7354 0.858095 11.9129C0.858095 12.0229 0.933096 12.0529 1.0306 12.0754C2.30893 12.3587 3.5906 12.6504 4.8756 12.9504C4.9796 12.9779 5.0691 13.0299 5.1406 13.1004C6.0406 14.0154 6.9331 14.9379 7.8306 15.8504C7.9056 15.9279 7.9556 15.9679 8.0031 15.9679C8.0506 15.9679 8.0981 15.9279 8.1731 15.8504C9.0706 14.9304 9.9631 14.0104 10.8631 13.1004C10.9346 13.0309 11.0241 12.9794 11.1241 12.9539L11.1281 12.9529C12.4031 12.6512 13.6781 12.3587 14.9531 12.0754C15.1681 12.0254 15.1856 11.9929 15.1206 11.7804C14.7439 10.5654 14.3706 9.35122 14.0006 8.13789C13.9876 8.09739 13.9801 8.05039 13.9801 8.00139C13.9801 7.95239 13.9876 7.90589 14.0016 7.86189L14.0006 7.86539C14.3656 6.66039 14.7348 5.45539 15.1081 4.25039C15.1881 4.00039 15.1731 3.97289 14.9231 3.91539C13.6531 3.62539 12.3839 3.33539 11.1156 3.04539C11.0176 3.02289 10.9326 2.97539 10.8656 2.91039C9.9706 1.99206 9.07393 1.07039 8.1756 0.145391C8.0981 0.0653906 8.0501 0.0253906 8.0001 0.0253906Z" fill="black"/>
<path d="M8.1101 12.8679C6.4551 12.8279 5.1276 12.2779 4.1101 11.1029C3.3826 10.3089 2.9366 9.24589 2.9366 8.07939C2.9366 7.93639 2.9431 7.79489 2.9566 7.65539L2.9551 7.67339C3.1251 5.74339 4.1551 4.39839 5.8901 3.59589C6.5031 3.30039 7.22309 3.12789 7.9831 3.12789C8.4656 3.12789 8.9321 3.19739 9.3726 3.32689L9.33759 3.31789C11.0476 3.78289 12.2576 4.83539 12.8376 6.52289C13.0051 6.97189 13.1021 7.49089 13.1021 8.03289C13.1021 8.91289 12.8461 9.73339 12.4046 10.4234L12.4151 10.4054C11.6666 11.6564 10.4131 12.5389 8.9431 12.7744L8.9151 12.7779C8.6076 12.8329 8.3076 12.8454 8.1101 12.8679ZM8.0001 11.6779H9.9751C10.2551 11.6779 10.3701 11.5604 10.3751 11.2829C10.3751 11.1054 10.3751 10.9229 10.3751 10.7454C10.3846 10.6739 10.4186 10.6114 10.4676 10.5654C10.6676 10.3929 10.8901 10.2454 11.0751 10.0654C11.6716 9.50189 12.0431 8.70539 12.0431 7.82239C12.0431 7.80339 12.0431 7.78389 12.0426 7.76489V7.76789C12.0256 6.76339 11.5421 5.87539 10.8001 5.30839L10.7926 5.30289C10.0511 4.69139 9.0911 4.32089 8.0446 4.32089C7.8386 4.32089 7.6356 4.33539 7.4371 4.36339L7.4601 4.36089C6.4601 4.45239 5.5771 4.88989 4.9176 5.55089C4.3196 6.11389 3.9476 6.91089 3.9476 7.79489C3.9476 7.80839 3.9476 7.82189 3.9481 7.83539V7.83339C3.9621 8.83439 4.4331 9.72289 5.1616 10.3009L5.1681 10.3059C5.3131 10.4284 5.5256 10.5134 5.5956 10.6659C5.6266 10.7804 5.6441 10.9119 5.6441 11.0474C5.6441 11.1189 5.6391 11.1899 5.6296 11.2589L5.6306 11.2509C5.6306 11.5909 5.7331 11.6909 6.0781 11.6909L8.0001 11.6779Z" fill="black"/>
<path d="M4.9451 8.75039C4.9866 8.07289 5.5461 7.53939 6.2301 7.53939C6.2476 7.53939 6.2651 7.53989 6.2826 7.54039H6.2801C6.2861 7.54039 6.2931 7.54039 6.3001 7.54039C7.0056 7.54039 7.5776 8.11239 7.5776 8.81789C7.5776 9.52339 7.0056 10.0954 6.3001 10.0954C6.2731 10.0954 6.2461 10.0944 6.2191 10.0929H6.2226C6.2211 10.0929 6.2206 10.0929 6.2191 10.0929C5.5151 10.0929 4.9431 9.52189 4.9431 8.81789C4.9431 8.79439 4.9436 8.77039 4.9451 8.74689V8.75039Z" fill="black"/>
<path d="M11.0651 8.81539C11.0336 9.52039 10.4541 10.0804 9.7436 10.0804C9.0331 10.0804 8.45409 9.52039 8.4226 8.81839V8.81539C8.45409 8.11039 9.0336 7.55039 9.7436 7.55039C10.4536 7.55039 11.0331 8.11039 11.0646 8.81239L11.0651 8.81539Z" fill="black"/>
<path d="M8.0326 9.19289L8.4451 10.0729H7.5626L7.9726 9.19039L8.0326 9.19289Z" fill="black"/>
<path d="M8.8901 7.04789C8.9651 7.12039 9.0376 7.16289 9.0626 7.22539C9.0656 7.23839 9.0676 7.25339 9.0676 7.26939C9.0676 7.32039 9.0476 7.36639 9.0151 7.40089C8.8456 7.51289 8.6481 7.62439 8.4431 7.72289L8.4126 7.73589C8.3676 7.75589 8.2651 7.70839 8.2276 7.66339C8.1901 7.61839 8.1876 7.50089 8.2276 7.48339C8.4276 7.33339 8.6501 7.20039 8.8901 7.04789Z" fill="black"/>
<path d="M7.2176 7.05539C7.2851 7.07789 7.3226 7.08539 7.3551 7.10039C7.5176 7.19039 7.6801 7.27789 7.8376 7.37039C7.9061 7.39839 7.9536 7.46489 7.9536 7.54189C7.9536 7.64389 7.87059 7.72689 7.7686 7.72689C7.7301 7.72689 7.6941 7.71489 7.6646 7.69489C7.4561 7.59039 7.2856 7.49189 7.1206 7.38439L7.1426 7.39789C7.1006 7.35639 7.0746 7.29839 7.0746 7.23489C7.0746 7.22189 7.0756 7.20939 7.0776 7.19689V7.19839C7.0901 7.14089 7.1726 7.09789 7.2176 7.05539Z" fill="black"/>
</g>
<defs>
<clipPath id="clip0_6_373">
<rect width="16" height="16" fill="white"/>
</clipPath>
</defs>
</svg>
