<svg width="16" height="16" viewBox="0 0 16 16" fill="none" xmlns="http://www.w3.org/2000/svg">
<g clip-path="url(#clip0_6_280)">
<path d="M15.7665 8L8 0.2465C7.863 0.103 7.673 0.0105 7.462 0H0.7935C0.7895 0 0.785 0 0.78 0C0.349 0 0 0.349 0 0.78V7.4465C0.0045 7.665 0.0985 7.8605 0.246 7.9995L8 15.7735C8.1415 15.912 8.336 15.9975 8.55 15.9975C8.764 15.9975 8.9585 15.912 9.1 15.773L15.7665 9.1065C15.912 8.9665 16.0025 8.7705 16.0025 8.553C16.0025 8.3355 15.9115 8.1395 15.7665 8ZM3.1 4.4735C2.3635 4.4735 1.7665 3.8765 1.7665 3.14C1.7665 2.4035 2.3635 1.8065 3.1 1.8065C3.8365 1.8065 4.4335 2.4035 4.4335 3.14C4.4335 3.142 4.4335 3.1445 4.4335 3.147C4.4335 3.8765 3.848 4.469 3.121 4.48H3.12L3.1 4.4735ZM12.02 9.28L10.22 9.9065C10.0735 9.96 9.9605 10.0735 9.908 10.216L9.907 10.2195L9.3335 12.033C9.273 12.1955 9.119 12.309 8.939 12.309C8.8045 12.309 8.6845 12.2455 8.6075 12.147L8.607 12.146L7.4205 10.5925C7.35 10.491 7.234 10.426 7.1025 10.426C7.102 10.426 7.101 10.426 7.1005 10.426L5.147 10.386C4.918 10.3825 4.7335 10.1955 4.7335 9.966C4.7335 9.8735 4.7635 9.7875 4.8145 9.718L4.8135 9.719L5.927 8.119C5.973 8.054 6.0005 7.973 6.0005 7.8855C6.0005 7.84 5.993 7.7965 5.9795 7.756L5.9805 7.759L5.387 5.8925C5.3745 5.8545 5.367 5.811 5.367 5.766C5.367 5.5375 5.552 5.3525 5.7805 5.3525C5.8255 5.3525 5.869 5.3595 5.91 5.373L5.907 5.372L7.7735 5.9385C7.8085 5.949 7.8485 5.9545 7.89 5.9545C7.981 5.9545 8.0655 5.926 8.135 5.8775L8.1335 5.8785L9.74 4.765C9.809 4.711 9.8975 4.678 9.9935 4.678C10.222 4.678 10.407 4.863 10.407 5.0915C10.407 5.094 10.407 5.0965 10.407 5.0985L10.4535 7.0515C10.4545 7.1835 10.5165 7.301 10.6125 7.3775L10.6135 7.378L12.1735 8.558C12.2695 8.6355 12.3305 8.7535 12.3305 8.8855C12.3305 9.071 12.21 9.2285 12.0435 9.284L12.0405 9.285L12.02 9.28Z" fill="black"/>
</g>
<defs>
<clipPath id="clip0_6_280">
<rect width="16" height="16" fill="white"/>
</clipPath>
</defs>
</svg>
