<svg width="16" height="16" viewBox="0 0 16 16" fill="none" xmlns="http://www.w3.org/2000/svg">
<g clip-path="url(#clip0_6_470)">
<path d="M3.06649 12.0863L0.0529883 3.8063C0.0199883 3.7168 0.000488281 3.6133 0.000488281 3.5048C0.000488281 3.1218 0.241488 2.7953 0.579988 2.6683L0.585988 2.6663L5.40599 0.912797C5.49749 0.877797 5.60299 0.857797 5.71349 0.857797C6.09349 0.857797 6.41799 1.0973 6.54399 1.4333L6.54599 1.4393L6.71949 1.9193L3.17299 11.6728C3.12949 11.7898 3.09249 11.9288 3.06849 12.0723L3.06649 12.0863ZM15.9465 4.0333L12 14.8868C11.874 15.2288 11.551 15.4683 11.172 15.4683C11.0625 15.4683 10.9575 15.4483 10.8605 15.4118L10.8665 15.4138L5.37999 13.4138C5.03549 13.2848 4.79449 12.9583 4.79449 12.5753C4.79449 12.4673 4.81349 12.3638 4.84899 12.2678L4.84699 12.2738L8.79349 1.4273C8.92049 1.0828 9.24599 0.841797 9.62749 0.841797C9.73499 0.841797 9.83799 0.860797 9.93299 0.895797L9.92699 0.893797L15.4135 2.8938C15.758 3.0228 15.999 3.3493 15.999 3.7323C15.999 3.8403 15.98 3.9438 15.9445 4.0398L15.9465 4.0333ZM12.6135 8.3263L12.267 7.5128C12.1975 7.3508 12.0395 7.2398 11.8555 7.2398C11.795 7.2398 11.737 7.2518 11.684 7.2738L11.687 7.2728L11.0205 7.5663C10.9705 7.5873 10.913 7.5993 10.852 7.5993C10.668 7.5993 10.51 7.4883 10.4415 7.3293L10.4405 7.3263L10.154 6.6598C10.0855 6.5003 9.92999 6.3903 9.74849 6.3903C9.68549 6.3903 9.62549 6.4038 9.57099 6.4273L9.57399 6.4263L8.75399 6.7728C8.59349 6.8388 8.48249 6.9938 8.48249 7.1748C8.48249 7.2393 8.49649 7.3003 8.52199 7.3553L8.52099 7.3528L9.50099 9.6663C9.57349 9.8253 9.73149 9.9338 9.91449 9.9338C9.97699 9.9338 10.0365 9.9213 10.0905 9.8983L10.0875 9.8993L12.394 8.9128C12.541 8.8413 12.6405 8.6933 12.6405 8.5218C12.6405 8.4503 12.623 8.3833 12.5925 8.3238L12.5935 8.3263H12.6135Z" fill="black"/>
</g>
<defs>
<clipPath id="clip0_6_470">
<rect width="16" height="16" fill="white"/>
</clipPath>
</defs>
</svg>
