<svg width="16" height="16" viewBox="0 0 16 16" fill="none" xmlns="http://www.w3.org/2000/svg">
<path d="M6.61748 0H7.04498C7.36798 0.132 7.64598 0.287 7.90248 0.471L7.88998 0.4625C7.97248 0.8125 8.11748 1.1875 7.99248 1.5475C7.88248 1.628 7.75598 1.6955 7.62048 1.744L7.60998 1.7475C7.62498 1.885 7.64748 2.0225 7.66998 2.16C7.95398 2.1235 8.19798 2.078 8.43798 2.0205L8.38998 2.03C8.40748 1.8735 8.45448 1.7315 8.52548 1.6045L8.52248 1.61C8.54248 1.7075 8.55748 1.805 8.56998 1.9025C8.68148 1.9965 8.82398 2.057 8.98048 2.0675H8.98248C9.98248 2.0675 10.9825 2.0675 12 2.0675C12.1125 2.0675 12.165 2.175 12.25 2.235C12.25 2.0225 12.25 1.81 12.25 1.595H12.3675C12.366 1.6295 12.365 1.67 12.365 1.711C12.365 1.869 12.3795 2.023 12.4075 2.173L12.405 2.1575C12.4535 2.1685 12.5125 2.177 12.5725 2.182L12.5775 2.1825C12.5775 2.255 12.5775 2.33 12.5775 2.4025C12.683 2.411 12.806 2.416 12.93 2.416C13.1325 2.416 13.332 2.403 13.528 2.3775L13.505 2.38C13.598 2.372 13.7065 2.368 13.816 2.368C13.9255 2.368 14.034 2.3725 14.1415 2.381L14.1275 2.38C14.132 2.462 14.14 2.538 14.1515 2.6125L14.15 2.6C14.0345 2.6145 13.9005 2.6225 13.765 2.6225C13.6295 2.6225 13.4955 2.6145 13.364 2.5985L13.38 2.6C12.97 2.55 12.5625 2.6375 12.1525 2.615C12.1525 2.67 12.125 2.725 12.1125 2.78C11.72 2.78 11.3275 2.78 10.935 2.78C10.9215 2.7785 10.9055 2.7775 10.8895 2.7775C10.767 2.7775 10.6565 2.8305 10.58 2.9145C10.4625 3.0595 10.3295 3.1825 10.212 3.33C10.212 3.34 10.212 3.352 10.212 3.364C10.212 3.636 10.2595 3.8965 10.3475 4.138L10.3425 4.122L10.0675 4.222C9.97248 4.5145 10.01 4.8895 9.74248 5.0945C9.61098 5.215 9.46448 5.323 9.30698 5.4155L9.29498 5.422C9.24848 5.4335 9.19448 5.44 9.13948 5.44C9.05898 5.44 8.98198 5.426 8.91048 5.4005L8.91548 5.402C8.45548 5.332 8.07298 5.0495 7.66548 4.852C7.63798 4.9645 7.60798 5.0745 7.57798 5.1845C7.70298 5.267 7.86548 5.3345 7.90548 5.4945C7.92348 5.602 7.93348 5.726 7.93348 5.852C7.93348 5.978 7.92348 6.102 7.90348 6.2225L7.90548 6.2095C7.88548 6.427 7.88048 6.6445 7.85798 6.862C7.81998 7.0785 7.72498 7.268 7.58948 7.4205L7.59048 7.4195C7.47298 7.392 7.35798 7.357 7.24298 7.327C7.21098 7.4055 7.19248 7.497 7.19248 7.5925C7.19248 7.804 7.28298 7.994 7.42748 8.1265C7.96248 8.709 8.25298 9.4595 8.52548 10.1895C8.57298 10.3445 8.73048 10.4395 8.75798 10.5995C8.81548 10.7555 8.84948 10.936 8.85048 11.124C8.83048 11.4415 8.80798 11.7595 8.77548 12.077C8.74098 12.2255 8.72098 12.3965 8.72098 12.5715C8.72098 12.634 8.72348 12.696 8.72848 12.7575L8.72798 12.7495C8.75348 12.837 8.76848 12.937 8.76848 13.0405C8.76848 13.144 8.75398 13.2445 8.72648 13.3395L8.72848 13.332C8.66548 13.516 8.62898 13.728 8.62898 13.9485C8.62898 13.9955 8.63048 14.042 8.63398 14.088L8.63348 14.082C8.63148 14.101 8.63048 14.123 8.63048 14.1455C8.63048 14.2995 8.67948 14.4425 8.76248 14.5595L8.76098 14.5575C8.89498 14.7345 9.03498 14.8915 9.18698 15.036L9.18848 15.0375C9.38848 15.1675 9.66348 15.17 9.82848 15.3575C9.84098 15.408 9.84798 15.4655 9.84798 15.525C9.84798 15.5845 9.84098 15.642 9.82748 15.6975L9.82848 15.6925C9.64248 15.7285 9.42898 15.749 9.21048 15.749C8.87298 15.749 8.54748 15.7 8.23948 15.609L8.26348 15.615C7.97848 15.5225 7.66348 15.6825 7.39348 15.525C7.41398 15.179 7.48848 14.8565 7.60848 14.5565L7.60098 14.5775C7.61198 14.4865 7.61798 14.3815 7.61798 14.275C7.61798 13.9345 7.55498 13.609 7.43948 13.309L7.44548 13.3275C7.35048 12.955 7.29198 12.5255 7.28298 12.0835V12.0775C7.25798 11.87 7.43298 11.715 7.44048 11.5125C7.44998 11.4715 7.45548 11.424 7.45548 11.3755C7.45548 11.2395 7.41248 11.1135 7.33898 11.0105L7.34048 11.0125C7.14548 11.0125 6.88548 11.0575 6.77798 10.85C6.55048 10.515 6.33298 10.175 6.10548 9.85C6.02798 9.705 5.83798 9.7375 5.71048 9.675C5.60698 9.5645 5.52298 9.434 5.46348 9.291L5.46048 9.2825C5.42098 9.4375 5.34798 9.572 5.24948 9.6835L5.25048 9.6825C5.09848 9.8695 4.98148 10.092 4.91348 10.3345L4.91048 10.3475C4.84498 10.496 4.79248 10.669 4.76248 10.8495L4.76048 10.8625C4.73548 10.9975 4.73048 11.155 4.60798 11.2425C4.43048 11.3775 4.35798 11.605 4.20548 11.7425C4.09248 11.8575 4.01098 12.0035 3.97398 12.1665L3.97298 12.1725C3.97798 12.237 3.98048 12.3125 3.98048 12.389C3.98048 12.4655 3.97798 12.5405 3.97248 12.6155L3.97298 12.6055C3.87398 12.894 3.76748 13.1365 3.64398 13.369L3.65798 13.3405C3.58298 13.513 3.54298 13.698 3.46048 13.868C3.40798 13.9855 3.26798 14.023 3.19048 14.118C3.03598 14.3845 2.94498 14.7045 2.94498 15.046C2.94498 15.1695 2.95698 15.2905 2.97948 15.4075L2.97748 15.3955C3.02898 15.51 3.05898 15.6435 3.05898 15.784C3.05898 15.8365 3.05498 15.888 3.04698 15.9385L3.04748 15.933C2.90998 15.9505 2.77498 15.973 2.63748 15.9855H2.21248C2.09148 15.9685 1.98198 15.936 1.87998 15.89L1.88748 15.893C1.85348 15.784 1.83398 15.659 1.83398 15.5295C1.83398 15.4 1.85348 15.2745 1.88998 15.157L1.88748 15.166C1.98748 14.811 2.07748 14.4535 2.16748 14.0985C2.22748 13.9235 2.08248 13.766 2.09748 13.5985C2.11698 13.3395 2.20798 13.1045 2.34998 12.9095L2.34748 12.9135C2.45498 12.721 2.41748 12.491 2.49248 12.291C2.66248 11.851 2.99248 11.496 3.17498 11.0685C3.18648 10.988 3.19298 10.8945 3.19298 10.7995C3.19298 10.7045 3.18648 10.6115 3.17398 10.52L3.17498 10.5305C3.20298 10.156 3.25248 9.814 3.32398 9.48L3.31498 9.5305C3.33148 9.4715 3.34098 9.404 3.34098 9.3345C3.34098 9.265 3.33148 9.197 3.31348 9.133L3.31498 9.1385C3.26948 9.027 3.24298 8.898 3.24298 8.7625C3.24298 8.7285 3.24448 8.695 3.24798 8.662L3.24748 8.666C3.26748 8.516 3.17998 8.3685 3.24748 8.2235C3.31498 8.0785 3.38998 8.031 3.47998 7.956C3.49748 7.456 3.31248 6.956 3.38998 6.456C3.49148 6.3605 3.61698 6.2895 3.75648 6.2525L3.76248 6.251L3.22248 6.136C3.22198 6.121 3.22198 6.1035 3.22198 6.086C3.22198 5.889 3.24498 5.698 3.28848 5.5145L3.28498 5.5315C3.35248 5.2215 3.31498 4.899 3.36498 4.5865C3.36498 4.5065 3.45998 4.479 3.52748 4.4765C3.70898 4.47 3.88098 4.449 4.04798 4.4155L4.02748 4.419C3.99448 4.2395 3.97598 4.0335 3.97598 3.823C3.97598 3.6125 3.99498 3.406 4.03048 3.2055L4.02748 3.2265C4.09398 2.731 4.34148 2.3035 4.69948 2.004L4.70248 2.0015C4.96998 1.8215 5.35748 1.714 5.63998 1.9315L5.72998 1.869C5.66748 1.7095 5.63148 1.5245 5.63148 1.331C5.63148 1.033 5.71748 0.7545 5.86648 0.5205L5.86298 0.5265C6.04198 0.275 6.30148 0.091 6.60398 0.011L6.61298 0.009L6.61748 0ZM9.24998 3.0225C9.24898 3.1425 9.18598 3.2475 9.09148 3.3065L9.08998 3.3075C9.24798 3.304 9.39948 3.289 9.54748 3.2625L9.52998 3.265C9.52998 3.1825 9.52998 3.0975 9.52998 3.015H9.25998L9.24998 3.0225ZM8.95498 3.34L8.90498 3.405C8.95598 3.565 9.02998 3.7035 9.12448 3.8255L9.12198 3.8225C9.23448 3.6625 9.34948 3.505 9.45698 3.34C9.38198 3.334 9.29498 3.3305 9.20698 3.3305C9.11898 3.3305 9.03198 3.334 8.94548 3.3405L8.95698 3.34H8.95498Z" fill="black"/>
</svg>
