<svg width="16" height="16" viewBox="0 0 16 16" fill="none" xmlns="http://www.w3.org/2000/svg">
<g clip-path="url(#clip0_6_454)">
<path d="M10.165 11.9675H2.8725L4.3425 10.5L3.2825 9.44L0 12.7175L3.2825 16L4.3425 14.94L2.8725 13.4675H10.165C12.098 13.4675 13.665 11.9005 13.665 9.9675H12.165C12.165 11.072 11.2695 11.9675 10.165 11.9675Z" fill="black"/>
<path d="M5.835 4.0325H13.1275L11.6575 5.5L12.7175 6.56L16 3.2825L12.7175 0L11.6575 1.06L13.1275 2.5325H5.835C3.902 2.5325 2.335 4.0995 2.335 6.0325H3.835C3.835 4.928 4.7305 4.0325 5.835 4.0325Z" fill="black"/>
<path d="M8.8575 11V8.8575H11V7.1425H8.8575V5H7.1425V7.1425H5V8.8575H7.1425V11H8.8575Z" fill="black"/>
</g>
<defs>
<clipPath id="clip0_6_454">
<rect width="16" height="16" fill="white"/>
</clipPath>
</defs>
</svg>
