<svg width="16" height="16" viewBox="0 0 16 16" fill="none" xmlns="http://www.w3.org/2000/svg">
<g clip-path="url(#clip0_6_565)">
<path d="M12.675 0.0826875C12.7695 0.539187 12.9435 0.943687 13.1825 1.29969L13.175 1.28769C13.5355 1.83619 14.0735 2.24269 14.7055 2.42769L14.725 2.43269C14.8275 2.46269 14.935 2.48019 15.04 2.50269C14.743 3.05819 14.5125 3.70219 14.382 4.38219L14.375 4.42519C14.314 4.73169 14.279 5.08469 14.279 5.44519C14.279 6.13219 14.406 6.78969 14.638 7.39519L14.6255 7.35769C14.7705 7.74519 14.933 8.12769 15.0505 8.52769C15.1815 8.93969 15.257 9.41369 15.257 9.90569C15.257 10.7107 15.0545 11.4682 14.698 12.1302L14.7105 12.1052C14.23 13.0322 13.4995 13.7727 12.6075 14.2522L12.5805 14.2652C12.1015 14.5217 11.5465 14.7267 10.962 14.8502L10.9205 14.8577C10.2955 15.0002 9.67049 15.1077 9.04049 15.2502C8.95049 15.2702 8.86299 15.3027 8.77299 15.3202C8.64949 15.3497 8.54449 15.4167 8.46899 15.5092L8.46799 15.5102C8.33299 15.6652 8.18549 15.8102 8.05049 15.9627C8.00549 16.0127 7.98549 16.0027 7.94799 15.9627C7.78549 15.7852 7.61799 15.6102 7.44799 15.4352C7.41499 15.4007 7.37349 15.3742 7.32749 15.3582L7.32549 15.3577C7.05849 15.2712 6.71749 15.1847 6.36949 15.1172L6.31049 15.1077C5.54099 14.9787 4.88449 14.8242 4.24449 14.6322L4.36299 14.6627C2.94549 14.2277 1.81299 13.2337 1.20349 11.9437L1.19049 11.9127C0.90649 11.3237 0.73999 10.6322 0.73999 9.90169C0.73999 9.79219 0.74399 9.68319 0.75099 9.57569L0.74999 9.59019C0.79849 8.99969 0.93499 8.45369 1.14549 7.94669L1.13249 7.98269C1.28049 7.64219 1.42799 7.22169 1.54799 6.78919L1.56499 6.71769C1.60549 6.57419 1.63749 6.40419 1.65399 6.22969L1.65499 6.21769C1.68099 6.08969 1.69699 5.94169 1.69999 5.79019V5.78769C1.70499 5.69469 1.70799 5.58619 1.70799 5.47719C1.70799 4.56319 1.51099 3.69519 1.15699 2.91369L1.17299 2.95269C1.11349 2.79169 1.04449 2.65319 0.96249 2.52319L0.96799 2.53269C0.96799 2.53269 0.96799 2.51269 0.96799 2.50019C2.31049 2.25019 3.00049 1.34769 3.33299 0.0826875C3.42049 0.160187 3.50799 0.240187 3.59799 0.315187C3.96949 0.645187 4.40599 0.912188 4.88449 1.09319L4.91299 1.10269C5.12149 1.17769 5.36199 1.22069 5.61249 1.22069C5.74949 1.22069 5.88399 1.20769 6.01399 1.18269L6.00049 1.18469C6.78999 1.02769 7.46399 0.614688 7.94849 0.0371875L7.95249 0.0321875C7.99999 -0.0003125 7.99999 -0.0003125 8.04499 0.0321875C8.48399 0.549688 9.06399 0.935187 9.72499 1.13069L9.74999 1.13719C9.93549 1.18969 10.148 1.21969 10.368 1.21969C10.8135 1.21969 11.23 1.09619 11.5855 0.881187L11.575 0.887188C11.968 0.667688 12.3075 0.419187 12.613 0.134188L12.61 0.137187C12.635 0.107187 12.645 0.0801875 12.675 0.0826875ZM1.72249 2.86019C1.99149 3.45169 2.17849 4.13819 2.24799 4.85869L2.24999 4.88519C2.26649 5.05319 2.27599 5.24819 2.27599 5.44519C2.27599 5.86619 2.23299 6.27719 2.15049 6.67419L2.15749 6.63519C2.04199 7.14719 1.89849 7.58969 1.71999 8.01369L1.73999 7.96019C1.56349 8.36269 1.42349 8.83169 1.34249 9.32019L1.33749 9.35519C1.31249 9.52569 1.29799 9.72269 1.29799 9.92319C1.29799 10.5097 1.42099 11.0672 1.64299 11.5717L1.63249 11.5452C2.16549 12.7387 3.14949 13.6507 4.36249 14.0752L4.39499 14.0852C4.88299 14.2537 5.46699 14.3982 6.06749 14.4927L6.12749 14.5002C6.47749 14.5702 6.83249 14.6252 7.17749 14.7177C7.45199 14.7567 7.69199 14.8807 7.87499 15.0627C7.91249 15.1077 7.95999 15.1752 7.99999 15.1727C8.03999 15.1702 8.08249 15.1002 8.12499 15.0602C8.18849 14.9892 8.26199 14.9282 8.34299 14.8802L8.34749 14.8777C8.56249 14.7827 8.81349 14.7042 9.07499 14.6537L9.09749 14.6502C9.72999 14.5202 10.3675 14.4127 10.9975 14.2602C12.126 14.0067 13.0835 13.3947 13.768 12.5517L13.775 12.5427C14.3575 11.8397 14.711 10.9287 14.711 9.93519C14.711 9.57019 14.663 9.21569 14.5735 8.87869L14.58 8.90719C14.4585 8.45219 14.322 8.06719 14.159 7.69669L14.18 7.74969C13.9145 7.10969 13.752 6.36769 13.7325 5.58969V5.58219C13.7315 5.54169 13.731 5.49419 13.731 5.44669C13.731 4.52819 13.922 3.65469 14.266 2.86269L14.25 2.90469C14.2675 2.86469 14.265 2.85219 14.2225 2.83969C13.7715 2.69819 13.3885 2.44719 13.092 2.11719L13.09 2.11469C12.8145 1.81719 12.594 1.46369 12.4475 1.07419L12.44 1.05219C12.42 1.00219 12.41 0.997187 12.3675 1.03469C12.1875 1.18819 11.985 1.32569 11.768 1.43869L11.75 1.44719C11.424 1.62169 11.041 1.73719 10.635 1.76919L10.625 1.76969C10.561 1.77419 10.487 1.77669 10.4115 1.77669C9.75849 1.77669 9.14949 1.58769 8.63649 1.26169L8.64999 1.26969C8.40499 1.11369 8.19199 0.942187 7.99999 0.749687C7.87449 0.873187 7.73899 0.987188 7.59499 1.09019L7.58499 1.09719C7.10099 1.45569 6.50849 1.69419 5.86449 1.75869L5.84999 1.75969C5.77699 1.76619 5.69149 1.77019 5.60549 1.77019C5.06349 1.77019 4.55599 1.62219 4.12149 1.36519L4.13499 1.37269C3.92299 1.26019 3.74049 1.13619 3.57249 0.996188L3.57749 1.00019C3.22749 1.89019 2.65999 2.55769 1.72249 2.86019Z" fill="black"/>
<path d="M1.91999 10.1277C1.88749 10.0527 1.94499 10.0077 2.01249 9.95519C3.72082 8.67852 5.42666 7.39852 7.12999 6.11519L12.3 2.22769C12.3425 2.19519 12.3625 2.19269 12.395 2.24019C12.6715 2.61719 13.0165 2.92619 13.414 3.15419L13.43 3.16269C13.454 3.17169 13.471 3.19469 13.471 3.22119C13.471 3.23269 13.468 3.24369 13.4625 3.25269C13.2385 3.91019 13.1095 4.66669 13.1095 5.45419C13.1095 5.48419 13.1095 5.51469 13.11 5.54469V5.54019C13.1115 5.84469 13.136 6.14269 13.182 6.43319L13.1775 6.40019C13.1785 6.40569 13.179 6.41169 13.179 6.41769C13.179 6.45069 13.1615 6.47919 13.135 6.49519L8.48199 10.0002C7.04532 11.0802 5.60782 12.1635 4.16949 13.2502C4.14999 13.2672 4.12499 13.2777 4.09699 13.2777C4.06899 13.2777 4.04349 13.2672 4.02449 13.2502C3.19449 12.8142 2.54949 12.1202 2.18699 11.2762L2.17699 11.2502C2.03649 10.9202 1.94399 10.5382 1.91999 10.1372V10.1277ZM5.79249 10.0002H5.77999C5.76849 9.98569 5.75749 9.96919 5.74849 9.95219L5.74749 9.95019L4.85499 8.58519C4.82749 8.54269 4.80999 8.53269 4.76499 8.56769L3.80249 9.29519C3.78249 9.30769 3.75749 9.31519 3.75249 9.34519C3.95699 9.35719 4.11849 9.52569 4.11849 9.73219C4.11849 9.75019 4.11749 9.76769 4.11499 9.78469V9.78269V12.5777L4.18249 12.5277C4.39749 12.3652 4.61249 12.2027 4.82999 12.0427C4.86199 12.0217 4.88299 11.9862 4.88299 11.9462C4.88299 11.9432 4.88299 11.9402 4.88249 11.9377C4.88249 11.3277 4.88249 10.7182 4.88249 10.1082C4.87899 10.0972 4.87699 10.0847 4.87699 10.0717C4.87699 10.0587 4.87899 10.0462 4.88249 10.0347L5.74999 11.3507L6.49999 10.7807C6.52899 10.7622 6.54849 10.7302 6.54849 10.6937C6.54849 10.6892 6.54799 10.6847 6.54749 10.6802V7.25069L6.49999 7.28319C6.27749 7.45069 6.05499 7.62069 5.82999 7.78319C5.79949 7.80419 5.77999 7.83869 5.77999 7.87819C5.77999 7.88019 5.77999 7.88169 5.77999 7.88369C5.77999 8.57119 5.77999 9.26069 5.77999 9.94819L5.79249 10.0002ZM9.63999 4.92019L8.91999 5.46269C8.88999 5.48269 8.89249 5.51019 8.89249 5.53769C8.89249 5.93269 8.89249 6.32519 8.89249 6.72019C8.89249 6.72219 8.89249 6.72469 8.89249 6.72719C8.89249 6.76369 8.87349 6.79619 8.84499 6.81519C8.65249 6.95519 8.46199 7.10069 8.27199 7.24319L8.02199 7.42569V6.13069L6.86699 7.00069C7.01099 7.00919 7.13449 7.09069 7.20099 7.20869L7.20199 7.21069C7.22949 7.27169 7.24549 7.34269 7.24549 7.41769C7.24549 7.42819 7.24499 7.43919 7.24449 7.44969V7.44819V10.1432C7.24049 10.1542 7.23799 10.1667 7.23799 10.1797C7.23799 10.1927 7.24049 10.2052 7.24449 10.2167V10.2157C7.26349 10.2057 7.27999 10.1947 7.29499 10.1827C7.52249 10.0127 7.74699 9.84069 7.97449 9.68319C8.00199 9.66469 8.01999 9.63319 8.01999 9.59819C8.01999 9.59469 8.01999 9.59119 8.01949 9.58819V8.41119C8.01949 8.40869 8.01899 8.40619 8.01899 8.40319C8.01899 8.36919 8.03599 8.33969 8.06149 8.32119L8.83949 7.75119C8.85449 7.75119 8.86699 7.72119 8.89449 7.72369V9.00119C9.14449 8.82369 9.35699 8.65119 9.58699 8.48119C9.61899 8.46019 9.63999 8.42469 9.63999 8.38469C9.63999 8.38169 9.63999 8.37869 9.63949 8.37619C9.63949 7.25619 9.63949 6.12669 9.63949 5.01419L9.63999 4.92019ZM11.0775 3.84019L9.91499 4.71269L9.98999 4.73019C10.1365 4.75719 10.2505 4.86969 10.2795 5.01269L10.28 5.01519C10.2825 5.03969 10.284 5.06769 10.284 5.09619C10.284 5.12469 10.2825 5.15319 10.28 5.18119L10.2805 5.17769C10.2805 6.07019 10.2805 6.96269 10.2805 7.85769C10.2805 7.88019 10.2805 7.90519 10.2805 7.92769L10.3355 7.89019C10.9905 7.39019 11.643 6.90519 12.3005 6.41769C12.403 6.34269 12.4655 6.27019 12.4255 6.13769C12.4245 6.12769 12.4235 6.11569 12.4235 6.10369C12.4235 6.09169 12.424 6.08019 12.4255 6.06869V6.07019C12.419 5.97219 12.4155 5.85769 12.4155 5.74269C12.4155 5.62769 12.419 5.51319 12.4265 5.39969L12.4255 5.41519L11.0455 6.45269L11.0775 3.84019Z" fill="black"/>
<path d="M4.88999 13.5952L5.21749 13.3452L13.32 7.26269C13.3425 7.24769 13.355 7.22769 13.37 7.26269C13.5075 7.75019 13.7125 8.21269 13.87 8.69019C14.004 9.06019 14.082 9.48719 14.082 9.93269C14.082 9.97319 14.0815 10.0137 14.08 10.0537V10.0477C14.0555 10.7967 13.796 11.4807 13.374 12.0337L13.38 12.0252C12.7735 12.8287 11.908 13.4077 10.909 13.6397L10.88 13.6452C10.28 13.7902 9.66999 13.8952 9.06499 14.0102C8.76649 14.0632 8.50449 14.1352 8.25249 14.2282L8.28449 14.2177C8.18649 14.2672 8.10349 14.3317 8.03549 14.4092L8.03449 14.4102C8.01949 14.4252 8.00449 14.4502 7.97949 14.4102C7.82399 14.2452 7.61449 14.1327 7.37949 14.1007L7.37449 14.1002C6.87449 13.9777 6.37449 13.8977 5.87449 13.8002C5.54949 13.7502 5.22249 13.6852 4.88999 13.5952Z" fill="black"/>
<path d="M10.915 2.36519L2.02749 9.04019C2.07499 8.85269 2.12999 8.68519 2.18999 8.51769C2.32999 8.13019 2.49999 7.75019 2.60749 7.35269C2.78649 6.78719 2.88949 6.13719 2.88949 5.46269C2.88949 5.30969 2.88399 5.15769 2.87349 5.00769L2.87449 5.02819C2.83299 4.37919 2.71099 3.77369 2.51749 3.20069L2.53199 3.25069C2.52699 3.24269 2.52449 3.23319 2.52449 3.22269C2.52449 3.19869 2.53999 3.17819 2.56149 3.17069C3.06499 2.87869 3.47649 2.47769 3.77099 1.99819L3.77949 1.98319C3.80949 1.93319 3.83199 1.92569 3.88449 1.95319C4.29099 2.18569 4.76999 2.34269 5.27999 2.39219L5.29449 2.39319C5.38249 2.40069 5.48449 2.40469 5.58749 2.40469C6.00849 2.40469 6.41299 2.33469 6.79049 2.20519L6.76449 2.21319C7.21599 2.06219 7.60749 1.85719 7.95899 1.59969L7.94699 1.60819C7.96049 1.59569 7.97849 1.58819 7.99799 1.58819C8.01749 1.58819 8.03599 1.59569 8.04949 1.60869C8.53449 1.97069 9.11499 2.23319 9.74599 2.35469L9.77199 2.35869C9.95949 2.39469 10.175 2.41519 10.3955 2.41519C10.56 2.41519 10.722 2.40369 10.8805 2.38169L10.862 2.38369L10.915 2.36519Z" fill="black"/>
</g>
<defs>
<clipPath id="clip0_6_565">
<rect width="16" height="16" fill="white"/>
</clipPath>
</defs>
</svg>
