<svg width="16" height="16" viewBox="0 0 16 16" fill="none" xmlns="http://www.w3.org/2000/svg">
<g clip-path="url(#clip0_6_395)">
<path d="M4.18501 5.3325H11.815C11.763 4.88 11.6395 4.4675 11.455 4.09L11.465 4.1125C12.356 3.2255 12.9075 1.998 12.9075 0.6415C12.9075 0.641 12.9075 0.6405 12.9075 0.64C12.9075 0.2865 12.621 0 12.2675 0C11.914 0 11.6275 0.2865 11.6275 0.64C11.6265 1.5635 11.2785 2.4055 10.707 3.0435L10.71 3.04C10.016 2.3475 9.05801 1.9195 8.00001 1.9195C6.94201 1.9195 5.98401 2.3475 5.29001 3.04C4.72151 2.4055 4.37351 1.5635 4.37251 0.6405C4.37251 0.287 4.08601 0 3.73251 0C3.37901 0 3.09251 0.2865 3.09251 0.64C3.09251 0.6405 3.09251 0.641 3.09251 0.6415C3.09251 1.998 3.64401 3.2255 4.53501 4.1125C4.36051 4.4675 4.23701 4.88 4.18651 5.315L4.18501 5.3325Z" fill="black"/>
<path d="M14.72 12.5875C13.537 12.5835 12.5435 11.7775 12.254 10.6855L12.25 10.6675H14.6175C14.971 10.6675 15.2575 10.381 15.2575 10.0275C15.2575 9.674 14.971 9.3875 14.6175 9.3875H12.25C12.544 8.276 13.54 7.4695 14.725 7.4675C15.0785 7.4675 15.365 7.181 15.365 6.8275C15.365 6.474 15.0785 6.1875 14.725 6.1875C13.576 6.188 12.5455 6.694 11.844 7.4955L11.84 7.5V7.04H4.16001V7.5C3.45551 6.6955 2.42701 6.1895 1.28051 6.1875C0.92701 6.1875 0.64001 6.474 0.64001 6.8275C0.64001 7.181 0.92651 7.4675 1.28001 7.4675C2.46301 7.4715 3.45651 8.2775 3.74601 9.3695L3.75001 9.3875H1.38751C1.03401 9.3875 0.74751 9.674 0.74751 10.0275C0.74751 10.381 1.03401 10.6675 1.38751 10.6675H3.75001C3.45601 11.779 2.46001 12.5855 1.27501 12.5875C0.92151 12.5875 0.63501 12.874 0.63501 13.2275C0.63501 13.581 0.92151 13.8675 1.27501 13.8675C2.43201 13.8665 3.46901 13.3535 4.17101 12.5425L4.17501 12.5375C4.36801 14.4935 6.00451 16.009 7.99501 16.009C9.98551 16.009 11.622 14.4935 11.8135 12.5535L11.815 12.5375C12.5215 13.3535 13.558 13.8665 14.715 13.8675C15.0685 13.8675 15.355 13.581 15.355 13.2275C15.355 12.874 15.0685 12.5875 14.715 12.5875H14.72Z" fill="black"/>
</g>
<defs>
<clipPath id="clip0_6_395">
<rect width="16" height="16" fill="white"/>
</clipPath>
</defs>
</svg>
