<svg width="16" height="16" viewBox="0 0 16 16" fill="none" xmlns="http://www.w3.org/2000/svg">
<path d="M14 10.0005C14 8.28048 13.5335 6.30698 12.3735 5.21398C12 6.66748 11.3335 6.66748 11.3335 6.66748C11.3335 6.66748 11 0.000976562 7.3335 0.000976562C7.3335 0.000976562 7.3335 5.70748 5.3335 5.70748C5.3335 5.70748 5.26 3.44098 4.26 3.44098C4.0335 4.96748 2 7.00098 2 10.001C2.0035 12.757 3.8645 15.0775 6.398 15.7775L6.44 15.7875C5.7465 15.0875 3.88 12.6675 6.6665 9.33398C6.6665 9.33398 6.6665 12.0005 8.6665 12.0005C9.403 12.0005 10 11.4035 10 10.667C10 10.667 11.8465 13.767 9.5865 15.7805C12.149 15.061 13.997 12.7465 14 10.0005Z" fill="black"/>
</svg>
