<svg width="16" height="16" viewBox="0 0 16 16" fill="none" xmlns="http://www.w3.org/2000/svg">
<g clip-path="url(#clip0_6_196)">
<path d="M8.001 2.18141L9.4145 4.92673C9.743 5.57008 10.3305 6.03051 11.0275 6.15803L11.041 6.16012L13.981 6.71775L11.9145 8.96867C11.514 9.40297 11.267 9.99458 11.267 10.6463C11.267 10.7602 11.2745 10.8715 11.289 10.9813L11.2875 10.9687L11.694 14.0626L9.0875 12.7456C8.7695 12.5831 8.396 12.488 8.001 12.488C7.606 12.488 7.232 12.5831 6.8995 12.7524L6.9145 12.7456L4.308 14.0626L4.7145 10.9687C4.7275 10.8721 4.735 10.7602 4.735 10.6463C4.735 9.99458 4.488 9.40297 4.087 8.96815L2.001 6.71775L4.941 6.16012C5.6595 6.03678 6.2555 5.57478 6.5815 4.93928L6.5875 4.92673L8.001 2.18141ZM8.001 0C8.0005 0 8 0 7.9995 0C7.6695 0 7.383 0.192324 7.2365 0.476106L7.234 0.48081L5.334 4.21597C5.2075 4.4569 4.9875 4.62989 4.726 4.68215L4.7205 4.68319L0.7205 5.43577C0.309 5.51155 0 5.88261 0 6.3284C0 6.57142 0.0915 6.79196 0.2405 6.95502L3.0465 10.0134C3.1985 10.1733 3.292 10.3933 3.292 10.6369C3.292 10.6902 3.2875 10.7419 3.279 10.7926L3.28 10.7874L2.7335 14.9683C2.728 15.006 2.725 15.0494 2.725 15.0938C2.725 15.5939 3.113 15.9995 3.5915 15.9995C3.592 15.9995 3.5925 15.9995 3.5935 15.9995C3.601 16 3.6105 16 3.6195 16C3.7585 16 3.89 15.9639 4.0045 15.8997L4 15.9017L7.5665 14.1039C7.701 14.0339 7.859 13.9926 8.0265 13.9926C8.194 13.9926 8.352 14.0339 8.4925 14.1065L8.4865 14.1039L12 15.9017C12.1085 15.9634 12.238 15.9995 12.375 15.9995C12.3765 15.9995 12.3785 15.9995 12.3805 15.9995C12.389 16 12.3985 16 12.4085 16C12.887 16 13.275 15.5944 13.275 15.0943C13.275 15.0499 13.272 15.006 13.266 14.9636L13.2665 14.9683L12.72 10.7874C12.714 10.7477 12.7105 10.7017 12.7105 10.6552C12.7105 10.4137 12.803 10.1942 12.9535 10.0348L15.76 6.97593C15.9095 6.81339 16.0015 6.59232 16.0015 6.34878C16.0015 5.90456 15.6955 5.53506 15.292 5.45772L15.2865 5.45667L11.2865 4.7041C11.0135 4.64818 10.79 4.46683 10.669 4.22172L10.6665 4.2165L8.7665 0.481333C8.618 0.192847 8.331 0 8.001 0Z" fill="black"/>
</g>
<defs>
<clipPath id="clip0_6_196">
<rect width="16" height="16" fill="white"/>
</clipPath>
</defs>
</svg>
