<svg width="16" height="16" viewBox="0 0 16 16" fill="none" xmlns="http://www.w3.org/2000/svg">
<g clip-path="url(#clip0_6_257)">
<path d="M2.655 14.6725C2.655 15.4055 2.0605 16 1.3275 16C0.5945 16 0 15.4055 0 14.6725C0 13.9395 0.5945 13.345 1.3275 13.345C2.0605 13.345 2.655 13.9395 2.655 14.6725Z" fill="black"/>
<path d="M5.99 14.6725C5.99 15.4055 5.3955 16 4.6625 16C3.9295 16 3.335 15.4055 3.335 14.6725C3.335 13.9395 3.9295 13.345 4.6625 13.345C5.3955 13.345 5.99 13.9395 5.99 14.6725Z" fill="black"/>
<path d="M9.3275 14.6725C9.3275 15.4055 8.733 16 8 16C7.267 16 6.6725 15.4055 6.6725 14.6725C6.6725 13.9395 7.267 13.345 8 13.345C8.733 13.345 9.3275 13.9395 9.3275 14.6725Z" fill="black"/>
<path d="M12.665 14.6725C12.665 15.4055 12.0705 16 11.3375 16C10.6045 16 10.01 15.4055 10.01 14.6725C10.01 13.9395 10.6045 13.345 11.3375 13.345C12.0705 13.345 12.665 13.9395 12.665 14.6725Z" fill="black"/>
<path d="M16 14.6725C16 15.4055 15.4055 16 14.6725 16C13.9395 16 13.345 15.4055 13.345 14.6725C13.345 13.9395 13.9395 13.345 14.6725 13.345C15.4055 13.345 16 13.9395 16 14.6725Z" fill="black"/>
<path d="M4.3225 11.3375C4.3225 12.0705 3.728 12.665 2.995 12.665C2.262 12.665 1.6675 12.0705 1.6675 11.3375C1.6675 10.6045 2.262 10.01 2.995 10.01C3.728 10.01 4.3225 10.6045 4.3225 11.3375Z" fill="black"/>
<path d="M7.66 11.3375C7.66 12.0705 7.0655 12.665 6.3325 12.665C5.5995 12.665 5.005 12.0705 5.005 11.3375C5.005 10.6045 5.5995 10.01 6.3325 10.01C7.0655 10.01 7.66 10.6045 7.66 11.3375Z" fill="black"/>
<path d="M10.995 11.3375C10.995 12.0705 10.4005 12.665 9.6675 12.665C8.9345 12.665 8.34 12.0705 8.34 11.3375C8.34 10.6045 8.9345 10.01 9.6675 10.01C10.4005 10.01 10.995 10.6045 10.995 11.3375Z" fill="black"/>
<path d="M14.3325 11.3375C14.3325 12.0705 13.738 12.665 13.005 12.665C12.272 12.665 11.6775 12.0705 11.6775 11.3375C11.6775 10.6045 12.272 10.01 13.005 10.01C13.738 10.01 14.3325 10.6045 14.3325 11.3375Z" fill="black"/>
<path d="M5.99 8C5.99 8.733 5.3955 9.3275 4.6625 9.3275C3.9295 9.3275 3.335 8.733 3.335 8C3.335 7.267 3.9295 6.6725 4.6625 6.6725C5.3955 6.6725 5.99 7.267 5.99 8Z" fill="black"/>
<path d="M9.3275 8C9.3275 8.733 8.733 9.3275 8 9.3275C7.267 9.3275 6.6725 8.733 6.6725 8C6.6725 7.267 7.267 6.6725 8 6.6725C8.733 6.6725 9.3275 7.267 9.3275 8Z" fill="black"/>
<path d="M12.665 8C12.665 8.733 12.0705 9.3275 11.3375 9.3275C10.6045 9.3275 10.01 8.733 10.01 8C10.01 7.267 10.6045 6.6725 11.3375 6.6725C12.0705 6.6725 12.665 7.267 12.665 8Z" fill="black"/>
<path d="M7.66 4.6625C7.66 5.3955 7.0655 5.99 6.3325 5.99C5.5995 5.99 5.005 5.3955 5.005 4.6625C5.005 3.9295 5.5995 3.335 6.3325 3.335C7.0655 3.335 7.66 3.9295 7.66 4.6625Z" fill="black"/>
<path d="M10.995 4.6625C10.995 5.3955 10.4005 5.99 9.6675 5.99C8.9345 5.99 8.34 5.3955 8.34 4.6625C8.34 3.9295 8.9345 3.335 9.6675 3.335C10.4005 3.335 10.995 3.9295 10.995 4.6625Z" fill="black"/>
<path d="M9.3275 1.3275C9.3275 2.0605 8.733 2.655 8 2.655C7.267 2.655 6.6725 2.0605 6.6725 1.3275C6.6725 0.5945 7.267 0 8 0C8.733 0 9.3275 0.5945 9.3275 1.3275Z" fill="black"/>
</g>
<defs>
<clipPath id="clip0_6_257">
<rect width="16" height="16" fill="white"/>
</clipPath>
</defs>
</svg>
