<svg width="16" height="16" viewBox="0 0 16 16" fill="none" xmlns="http://www.w3.org/2000/svg">
<g clip-path="url(#clip0_6_537)">
<path d="M10.7535 10.666C10.1995 10.8235 9.722 11.1 9.332 11.4675L9.3335 11.466C8.2315 12.3675 7.243 13.2655 6.3015 14.211L6.3 14.2125C6.3 14.2125 4 12.779 3.44 12.779C2.88 12.779 0 15.999 0 15.999H16C16 15.999 12.06 10.666 10.7535 10.666Z" fill="black"/>
<path d="M2.9335 6.90605C3.3145 7.15655 3.7815 7.30605 4.2835 7.30605C4.5315 7.30605 4.7715 7.26955 4.9975 7.20155L4.98 7.20605C4.8235 7.52405 4.732 7.89855 4.732 8.29405C4.732 8.79605 4.879 9.26355 5.1325 9.65555L5.1265 9.64555C4.633 9.72255 4.2065 9.96355 3.895 10.31L3.8935 10.312C4.7845 11.1655 5.942 11.748 7.229 11.922L7.26 11.9255C7.8065 11.4255 8.2735 11.032 8.66 10.732C8.483 10.5925 8.281 10.472 8.064 10.3785L8.0465 10.372C8.753 10.3255 9.4465 9.29855 9.5665 8.59205C10.0765 8.82455 10.6725 8.96005 11.3 8.96005C11.45 8.96005 11.5985 8.95205 11.745 8.93705L11.7265 8.93855C11.6145 9.18455 11.5495 9.47155 11.5495 9.77405C11.5495 9.81805 11.551 9.86105 11.5535 9.90455L11.553 9.89855C11.8095 10.03 12.028 10.165 12.234 10.315L12.2195 10.305C13.1745 9.37905 13.8215 8.14055 13.9965 6.75455L13.9995 6.72505C13.824 6.64355 13.619 6.59605 13.403 6.59605C13.187 6.59605 12.9815 6.64355 12.7975 6.72855L12.8065 6.72505C12.8525 6.57055 12.879 6.39305 12.879 6.20905C12.879 5.57105 12.56 5.00755 12.0725 4.66905L12.0665 4.66505C12.9265 4.58505 13.4 3.09155 13.4 3.09155C12.824 2.03805 11.98 1.19405 10.9585 0.634047L10.927 0.618047C10.927 0.618047 9.4735 0.418047 9.0405 0.878047C8.474 -0.00195312 6.927 -0.00195312 6.927 -0.00195312C5.7035 0.236047 4.642 0.812547 3.8125 1.62555L3.8135 1.62455V1.62855C3.8135 2.11755 4.0415 2.55355 4.397 2.83555L4.4 2.83805C3.6265 3.01805 2.8265 4.09805 2.96 4.53155C2.805 4.32955 2.5645 4.20055 2.2935 4.19805C2.132 4.71555 2.0385 5.31055 2.0385 5.92755C2.0385 6.59155 2.1465 7.23005 2.3455 7.82705L2.3335 7.78455C2.604 7.55455 2.811 7.25705 2.929 6.91855L2.9335 6.90455V6.90605ZM8.9335 1.25305C9.1335 2.34655 10.34 4.17305 11.467 4.53305C10.256 4.99855 9.412 6.15205 9.412 7.50305C9.412 7.61205 9.4175 7.72005 9.4285 7.82655L9.4275 7.81305C8.6675 6.73305 6.441 6.07955 5.2875 6.72655C5.535 6.25905 5.68 5.70455 5.68 5.11605C5.68 4.27505 5.3835 3.50355 4.8895 2.90005L4.8945 2.90605C5.004 2.91505 5.1315 2.92005 5.26 2.92005C6.7185 2.92005 8.0265 2.27705 8.916 1.25855L8.921 1.25305H8.9335Z" fill="black"/>
</g>
<defs>
<clipPath id="clip0_6_537">
<rect width="16" height="16" fill="white"/>
</clipPath>
</defs>
</svg>
