<svg width="16" height="16" viewBox="0 0 16 16" fill="none" xmlns="http://www.w3.org/2000/svg">
<g clip-path="url(#clip0_6_283)">
<path d="M16 12.9378V10.0203H12.625C12.607 10.0193 12.586 10.0188 12.5645 10.0188C11.758 10.0188 11.1045 10.6723 11.1045 11.4788C11.1045 12.2853 11.758 12.9388 12.5645 12.9388C12.586 12.9388 12.607 12.9383 12.628 12.9373H12.625L16 12.9378ZM13.4025 11.4803C13.401 11.8478 13.103 12.1453 12.735 12.1453C12.3665 12.1453 12.0675 11.8463 12.0675 11.4778C12.0675 11.1093 12.3665 10.8103 12.735 10.8103C13.1035 10.8103 13.4025 11.1093 13.4025 11.4778V11.4803Z" fill="black"/>
<path d="M2.6075 5.08534C2.363 5.08684 2.165 5.28534 2.165 5.53034V5.57784C2.165 5.82234 2.363 6.02034 2.6075 6.02034H4.335C4.145 5.75084 3.977 5.44284 3.846 5.11584L3.835 5.08534H2.6075Z" fill="black"/>
<path d="M12.42 5.08534C12.278 5.44284 12.11 5.75084 11.9105 6.03484L11.92 6.02034H14.5V5.08534H12.42Z" fill="black"/>
<path d="M13.8125 4.14784V3.42534H12.75C12.7465 3.68334 12.722 3.93284 12.6785 4.17534L12.6825 4.14784H13.8125Z" fill="black"/>
<path d="M12.625 9.08284H15.5575V8.28534C15.5575 7.55284 14.9645 6.95934 14.2325 6.95784H2.535C1.801 6.90684 1.225 6.29834 1.225 5.55584V5.55234C1.224 5.53334 1.223 5.51084 1.223 5.48884C1.223 5.46684 1.2235 5.44434 1.225 5.42184V5.42484C1.2825 4.70884 1.877 4.14934 2.6025 4.14734H3.565C3.526 3.93184 3.5025 3.68184 3.5 3.42734V3.42484H1.765C0.79 3.42634 0 4.21684 0 5.19234V14.4673C0.0015 15.3133 0.6865 15.9983 1.5325 15.9998H14.23C14.963 15.9998 15.5575 15.4053 15.5575 14.6723V13.8748H12.625C12.602 13.8758 12.575 13.8763 12.5475 13.8763C11.2235 13.8763 10.15 12.8028 10.15 11.4788C10.15 10.1548 11.2235 9.08134 12.5475 9.08134C12.5745 9.08134 12.602 9.08184 12.629 9.08284H12.625Z" fill="black"/>
<path d="M11.4275 3.37184C11.4275 1.54784 9.949 0.0693359 8.125 0.0693359C6.301 0.0693359 4.8225 1.54784 4.8225 3.37184C4.8225 4.45234 5.3415 5.41184 6.144 6.01434L6.1525 6.02034H10.0975C10.9085 5.41434 11.4275 4.45684 11.4275 3.37784V3.37184Z" fill="black"/>
</g>
<defs>
<clipPath id="clip0_6_283">
<rect width="16" height="16" fill="white"/>
</clipPath>
</defs>
</svg>
