<svg width="16" height="16" viewBox="0 0 16 16" fill="none" xmlns="http://www.w3.org/2000/svg">
<g clip-path="url(#clip0_6_270)">
<path d="M5.803 10.1423L7.142 8.80331C7.2155 8.72981 7.321 8.72481 7.406 8.77431C7.67 8.93131 7.9835 9.02731 8.313 9.02731C9.3995 9.02731 10.257 8.05281 10.06 6.93281C9.937 6.21581 9.348 5.62731 8.631 5.50381C7.9815 5.39181 7.388 5.63331 7.0005 6.06381L5.6615 7.39181L1.3095 11.7438C1.1685 11.8848 1.1415 12.1023 1.247 12.2653C2.6645 14.5053 5.1575 15.9963 8.002 15.9963C8.797 15.9963 9.565 15.8733 10.293 15.6538C10.445 15.6088 10.49 15.4123 10.378 15.3003L5.813 10.7353C5.65 10.5723 5.65 10.3033 5.813 10.1353L5.802 10.1418L5.803 10.1423Z" fill="black"/>
<path d="M8.9055 0.0543077C4.083 -0.478692 0 3.28631 0 8.00331C0 8.32831 0.0225 8.64181 0.0625 8.95531C0.085 9.12981 0.2975 9.19681 0.421 9.07381L5.1315 4.36331C5.9045 3.59031 6.9345 3.08031 8.0325 3.04181C10.306 2.96331 12.3285 4.63881 12.519 6.88981C12.6645 8.63231 11.751 10.1778 10.351 10.9508C10.1045 11.0918 10.0485 11.4213 10.25 11.6178L12.653 14.0208C12.81 14.1778 13.056 14.1888 13.224 14.0498C15.123 12.4083 16.248 9.89281 15.952 7.12031C15.56 3.43731 12.592 0.457808 8.912 0.0483077L8.9055 0.0543077Z" fill="black"/>
</g>
<defs>
<clipPath id="clip0_6_270">
<rect width="16" height="16" fill="white"/>
</clipPath>
</defs>
</svg>
