<svg width="16" height="16" viewBox="0 0 16 16" fill="none" xmlns="http://www.w3.org/2000/svg">
<g clip-path="url(#clip0_21_69)">
<path d="M8 2.02131C10.3521 2.26206 12.2953 3.90766 12.9742 6.1028H14.2168C13.4953 3.24299 11.0161 1.07551 8 0.819813V-1H6.80374V3.78505H8V2.02131Z" fill="black"/>
<path d="M5.68224 2.25009V1.00822C2.85832 1.72075 0.708785 4.14692 0.410467 7.1114L2.07776 5.44411C2.75963 3.92411 4.07327 2.74729 5.68224 2.25009Z" fill="black"/>
<path d="M10.1974 8.23364C10.2019 8.19028 10.2041 8.14991 10.1637 8.12224C10.1211 8.09308 10.0822 8.11327 10.0426 8.13346C9.65009 8.33383 9.25682 8.5342 8.86355 8.73308C8.82168 8.75477 8.77907 8.7757 8.73421 8.78841C8.71178 8.79514 8.68336 8.78168 8.65794 8.77794C8.66318 8.75252 8.65944 8.72037 8.67439 8.70392C8.78804 8.58131 8.90168 8.45869 9.02131 8.34131C9.37121 7.99813 9.71813 7.65047 10.0785 7.31701C10.4262 6.99477 10.6064 6.60598 10.64 6.13346C10.6871 5.48299 10.6893 4.83477 10.6049 4.18729C10.5966 4.12822 10.5862 4.06841 10.5682 4.01159C10.5398 3.92336 10.492 3.8972 10.4 3.91215C9.99925 3.9772 9.61421 4.09682 9.23589 4.24037C8.37832 4.56635 7.57308 4.99776 6.78654 5.46579C5.74729 6.08486 5.72411 6.16935 4.76336 6.90355C4.72523 6.93271 4.69308 6.93869 4.64673 6.92748C4.39178 6.86392 2.69159 6.62617 1.84822 7.21308L0 8.94392L1.94393 9.54206L1.04 10.8071C1.77421 12.3667 3.06542 13.6138 4.6557 14.2912C4.86579 14.3817 5.08187 14.4609 5.30168 14.5297C5.80561 14.6882 6.33346 14.7907 6.8785 14.8303V16.7196H8V12.5327C8.20785 12.2718 8.4172 12.0108 8.61383 11.7409C9.1043 11.0695 9.52897 10.3593 9.84075 9.58542C10.0157 9.14953 10.1465 8.70243 10.1974 8.23364ZM5.97159 9.50542C5.97308 9.47103 5.97308 9.43215 6.01944 9.42841C6.06355 9.42542 6.07252 9.46131 6.08224 9.49495C6.18243 9.86056 6.28336 10.2262 6.38355 10.5918C6.40673 10.6778 6.4486 10.751 6.51514 10.8108C6.58467 10.8736 6.67065 10.8983 6.75888 10.9207C6.98393 10.9791 7.20897 11.0381 7.43327 11.0994C7.45495 11.1054 7.46991 11.1346 7.48785 11.1533C7.46991 11.1697 7.45421 11.1974 7.43402 11.2004C7.15215 11.2452 6.86878 11.2856 6.58168 11.2654C6.34617 11.249 6.14879 11.0964 6.08673 10.8699C6.0486 10.7286 6.02467 10.5836 5.99477 10.4407C5.96411 10.129 5.95963 9.8172 5.97159 9.50542ZM6.70804 12.1379C6.64449 12.1604 6.57869 12.1776 6.5129 12.1925C6.25271 12.2531 5.99028 12.2987 5.72037 12.2778C5.46692 12.2576 5.26355 12.1581 5.17907 11.9017C5.12374 11.7312 5.0871 11.554 5.0557 11.4321C5.04224 11.2176 5.02804 11.0583 5.02355 10.8983C5.01907 10.7264 5.02355 10.5536 5.02505 10.3809C5.02505 10.3465 5.03402 10.3159 5.07439 10.3099C5.1185 10.3032 5.13421 10.3323 5.14318 10.3675C5.15589 10.4206 5.1671 10.4744 5.18056 10.5267C5.2486 10.7944 5.31439 11.0621 5.38692 11.3282C5.47963 11.6677 5.67776 11.9002 6.04411 11.9548C6.05159 11.9555 6.05832 11.9578 6.06579 11.9585C6.27589 11.9847 6.48598 12.0108 6.69682 12.0363C6.72897 12.04 6.76935 12.043 6.76486 12.0834C6.76336 12.1043 6.73196 12.1297 6.70804 12.1379ZM8.31402 10.2209C8.29607 10.2329 8.26692 10.2292 8.24224 10.2299C8.05308 10.2404 7.86392 10.2553 7.67402 10.2583C7.51701 10.2606 7.3585 10.2568 7.20224 10.2411C7.0557 10.2262 6.95103 10.1387 6.90766 9.99664C6.86729 9.8643 6.84037 9.72748 6.80748 9.5929C6.77084 9.21234 6.7828 8.83402 6.82243 8.4557C6.82766 8.40785 6.84785 8.37121 6.90168 8.36897C6.95103 8.36748 6.97421 8.39813 6.98393 8.44449C7.06168 8.79215 7.13869 9.14131 7.21944 9.48822C7.26729 9.69757 7.39364 9.83963 7.60523 9.89421C7.81533 9.94878 8.02766 9.99813 8.23925 10.0505C8.26841 10.0572 8.3028 10.0579 8.32449 10.0751C8.34766 10.0938 8.37159 10.1282 8.37009 10.1544C8.36935 10.1776 8.33869 10.2052 8.31402 10.2209ZM8.44411 7.69458C8.30505 7.79477 8.0972 7.79925 7.97458 7.70355C7.91477 7.65645 7.88336 7.59439 7.88561 7.51813C7.89234 7.32598 8.09645 7.10542 8.2886 7.08149C8.42692 7.06505 8.54505 7.13607 8.58916 7.26392C8.63925 7.40748 8.57421 7.60037 8.44411 7.69458Z" fill="black"/>
<path d="M16 7.2243H14.4045L11.4393 7.21308V8.40935H13.2045C12.9667 10.7727 11.3121 12.7249 9.10505 13.4007V14.6419C11.9963 13.9196 14.1832 11.4007 14.409 8.34579H16V7.2243Z" fill="black"/>
</g>
<defs>
<clipPath id="clip0_21_69">
<rect width="16" height="16" fill="white"/>
</clipPath>
</defs>
</svg>
