<svg width="16" height="16" viewBox="0 0 16 16" fill="none" xmlns="http://www.w3.org/2000/svg">
<path d="M8.42946 2V5.90021C9.43321 6.0885 10.192 6.95696 10.192 7.99986C10.192 9.04277 9.43322 9.91122 8.42947 10.0995V14H15.0857C15.5907 14 16 13.5971 16 13.1V10.653H13.7393C13.2343 10.653 12.825 10.25 12.825 9.75299V6.62174C12.825 6.12468 13.2343 5.72174 13.7393 5.72174H16V2.9C16 2.40294 15.5907 2 15.0857 2H8.42946Z" fill="black"/>
<path d="M7.51518 2V5.92055C6.55966 6.14475 5.84911 6.99062 5.84911 7.99986C5.84911 9.0091 6.55966 9.85497 7.51518 10.0792V14H0.914287C0.409341 14 0 13.5971 0 13.1V10.653H2.25804C2.76298 10.653 3.17232 10.25 3.17232 9.75299V6.62174C3.17232 6.12468 2.76298 5.72174 2.25804 5.72174H0V2.9C0 2.40294 0.40934 2 0.914286 2H7.51518Z" fill="black"/>
<path d="M0 6.62174V9.75299H2.25804V6.62174H0Z" fill="black"/>
<path d="M16 6.62174H13.7393V9.75299H16V6.62174Z" fill="black"/>
<path d="M6.76339 7.99986C6.76339 7.49336 7.07252 7.05793 7.51518 6.86641L7.51518 9.13331C7.07252 8.94179 6.76339 8.50636 6.76339 7.99986Z" fill="black"/>
<path d="M8.42946 6.82931L8.42947 9.17042C8.92301 9.00338 9.27768 8.54239 9.27768 7.99986C9.27768 7.45733 8.92301 6.99634 8.42946 6.82931Z" fill="black"/>
</svg>
