<svg width="16" height="16" viewBox="0 0 16 16" fill="none" xmlns="http://www.w3.org/2000/svg">
<g clip-path="url(#clip0_6_320)">
<path d="M8 0C3.5815 0 0 3.5815 0 8C0 12.4185 3.5815 16 8 16C12.4185 16 16 12.4185 16 8C16 3.5815 12.4185 0 8 0ZM6.82 4.84H8.2135V6.0465H9.88V4.84H11.28V8.3935H9.88V7.12H8.2135V8.3935H6.82V4.84ZM3.3335 8.3935H2V5.24L1.54 4.84H3.54L5.0665 6.56V4.84H6.44V8.3935H5.18L3.3335 6.447V8.3935ZM8.6665 12.8H4.78V11.8935C5.0265 11.047 6.26 10.667 6.74 10.56C7.22 10.453 7.4065 10.1065 6.74 10.1065C6.2525 10.1385 5.813 10.322 5.4625 10.6095L5.4665 10.6065L4.7065 9.853C5.2455 9.434 5.9315 9.1815 6.677 9.1815C6.739 9.1815 6.8005 9.183 6.862 9.1865L6.8535 9.186C8.02 9.186 8.607 9.6525 8.607 10.286C8.607 10.9195 8.0005 11.2395 7.5335 11.3925C7.0665 11.5455 6.347 11.806 6.347 11.806H8.667L8.6665 12.8ZM11.3335 12.8H10V10.62C9.692 10.7575 9.334 10.8665 8.96 10.9295L8.9335 10.933V9.8395C10.1335 9.586 10.3135 9.246 10.3135 9.246H11.347L11.3335 12.8ZM13.0735 8.3935H11.6735V4.84H13.0735V7.3335H15.287V8.407L13.0735 8.3935Z" fill="black"/>
</g>
<defs>
<clipPath id="clip0_6_320">
<rect width="16" height="16" fill="white"/>
</clipPath>
</defs>
</svg>
