<svg width="16" height="16" viewBox="0 0 16 16" fill="none" xmlns="http://www.w3.org/2000/svg">
<g clip-path="url(#clip0_6_250)">
<path d="M10.7951 14.5774L9.09758 12.0499C8.98758 11.8849 8.98508 11.8874 8.81758 11.9924C8.26008 12.3634 7.57508 12.5844 6.83808 12.5844C6.65008 12.5844 6.46508 12.5699 6.28508 12.5424L6.30508 12.5449C6.12258 12.5169 5.96658 12.4829 5.81358 12.4404L5.84258 12.4474C5.75258 12.4249 5.72508 12.4474 5.69508 12.5324C5.68858 12.5489 5.68258 12.5689 5.67808 12.5894L5.67758 12.5924C5.43758 13.4657 5.19675 14.3383 4.95508 15.2099C4.92008 15.3374 4.88258 15.4599 4.85008 15.5949C4.82758 15.6849 4.85008 15.7099 4.93508 15.7399L4.98258 15.7549C5.54858 15.9129 6.19858 16.0044 6.86958 16.0049C7.22458 16.0024 7.57158 15.9744 7.91008 15.9224L7.87008 15.9274C8.77058 15.7914 9.58058 15.5059 10.3106 15.0939L10.2751 15.1124C10.4526 15.0124 10.6276 14.9074 10.7951 14.7899C10.8701 14.7399 10.8751 14.6999 10.8301 14.6249L10.7951 14.5774Z" fill="black"/>
<path d="M8.11508 1.86992L8.36508 3.65742C8.39008 3.81992 8.41258 3.97992 8.43758 4.13992C8.45258 4.23492 8.47758 4.25242 8.57008 4.24492H8.63258C8.77458 4.22342 8.93858 4.21092 9.10508 4.21092C9.27158 4.21092 9.43558 4.22342 9.59558 4.24692L9.57758 4.24492C10.3241 4.34042 10.9856 4.64792 11.5151 5.10392L11.5106 5.09992C11.6181 5.18992 11.6406 5.18742 11.7331 5.07992C12.3998 4.31158 13.0664 3.54492 13.7331 2.77992C13.8706 2.61992 13.8706 2.61242 13.7081 2.47742C12.4821 1.43042 10.8806 0.790417 9.12958 0.782417H9.12808C8.96308 0.782417 8.77558 0.782417 8.59058 0.807417C8.40358 0.818917 8.23208 0.840417 8.06408 0.871417L8.09058 0.867417C7.99808 0.887417 7.98058 0.917417 7.99308 1.00742C8.02808 1.29492 8.07258 1.58242 8.11508 1.86992Z" fill="black"/>
<path d="M0.680084 9.52492C0.727584 9.64742 0.752584 9.65742 0.877584 9.61242L0.922584 9.59492L3.56258 8.57742L3.81258 8.47742C3.88508 8.44492 3.89758 8.41742 3.87758 8.33992C3.87758 8.30742 3.85508 8.27742 3.84508 8.24492C3.73408 7.96042 3.65758 7.63042 3.63108 7.28692L3.63008 7.27492C3.62208 7.18542 3.61758 7.08092 3.61758 6.97542C3.61758 6.35342 3.77408 5.76742 4.04958 5.25542L4.04008 5.27492C4.11008 5.13742 4.10508 5.11992 3.96258 5.04492L3.08508 4.57242L1.25008 3.59492C1.13758 3.53492 1.11008 3.54492 1.05008 3.64992L1.02258 3.70492C0.511084 4.66042 0.210084 5.79492 0.210084 6.99992C0.210084 7.00242 0.210084 7.00592 0.210084 7.00892C0.210084 7.60642 0.285084 8.18692 0.425584 8.74092L0.415084 8.69242C0.497084 9.02292 0.587584 9.30042 0.695584 9.56942L0.680084 9.52492Z" fill="black"/>
<path d="M2.33758 3.57992C2.35858 3.59442 2.38308 3.60942 2.40858 3.62292L2.41258 3.62492L5.03008 5.14742C5.20008 5.24742 5.20008 5.24742 5.30508 5.07492C5.80108 4.25392 6.59308 3.65442 7.53008 3.42042L7.55508 3.41492C7.63508 3.39242 7.71758 3.37992 7.80508 3.35992C7.89258 3.33992 7.89758 3.31992 7.89258 3.25742L7.87758 3.15742C7.84758 3.00242 7.81758 2.84742 7.79008 2.69242C7.62342 1.83575 7.46425 0.978251 7.31258 0.119917C7.28008 -8.28132e-05 7.25008 -0.0150828 7.14008 -8.28127e-05C7.03008 0.0149172 6.92008 0.0424172 6.81008 0.0699172C4.88658 0.532917 3.30458 1.73642 2.35058 3.35442L2.33258 3.38742C2.32208 3.40292 2.31208 3.42092 2.30358 3.43992L2.30258 3.44242C2.27258 3.49992 2.28008 3.53992 2.33758 3.57992Z" fill="black"/>
<path d="M5.59008 11.4999C5.61758 11.4049 5.59008 11.3749 5.50508 11.3399L5.40008 11.3074C4.43758 10.9794 3.67358 10.2864 3.25958 9.39742L3.25008 9.37492C3.15758 9.17992 3.15758 9.17992 2.96508 9.26242L0.762584 10.2199L0.157584 10.4699C0.0575839 10.5149 0.0475839 10.5449 0.0875839 10.6449C0.0940839 10.6629 0.100584 10.6774 0.108584 10.6919L0.107584 10.6899C0.935084 12.5469 2.48458 13.9564 4.39008 14.5784L4.44008 14.5924L4.52758 14.6199C4.60258 14.6199 4.62508 14.6024 4.66008 14.4924C4.93842 13.5991 5.21842 12.7066 5.50008 11.8149C5.52758 11.7124 5.56008 11.6074 5.59008 11.4999Z" fill="black"/>
<path d="M15.9326 8.92742C15.9331 8.89542 15.9336 8.85742 15.9336 8.81942C15.9336 8.47992 15.9061 8.14692 15.8531 7.82242L15.8581 7.85792C15.7651 7.26842 15.6156 6.73992 15.4106 6.23992L15.4281 6.28792C15.0336 5.31592 14.4646 4.48942 13.7536 3.81042L13.7506 3.80792C13.6481 3.71042 13.6131 3.71042 13.5156 3.80792L11.4481 6.00042C11.2806 6.17542 11.2731 6.16542 11.4481 6.34042C11.9201 6.80642 12.2646 7.40042 12.4256 8.06542L12.4306 8.09042C12.4916 8.34442 12.5261 8.63592 12.5261 8.93542C12.5261 8.98992 12.5251 9.04392 12.5226 9.09792L12.5231 9.09042C12.5231 9.22292 12.5231 9.23792 12.6581 9.24292L14.2781 9.32042L14.9006 9.35542C15.1981 9.35542 15.4981 9.38292 15.7981 9.39292C15.9006 9.39292 15.9256 9.37792 15.9306 9.27542C15.9356 9.17292 15.9326 9.04242 15.9326 8.92742Z" fill="black"/>
<path d="M14.7826 9.86492L13.2501 9.74992L12.0551 9.65492C11.9201 9.65492 11.7826 9.63242 11.6451 9.62492C11.5076 9.61742 11.5001 9.63492 11.5001 9.74992C11.5001 9.81242 11.4876 9.87492 11.4801 9.93492C11.3671 10.8039 10.9601 11.5619 10.3646 12.1204L10.3626 12.1224C10.2581 12.2219 10.1456 12.3164 10.0271 12.4034L10.0176 12.4099C9.93258 12.4749 9.92758 12.5074 9.99008 12.5974C10.0076 12.6249 10.0276 12.6499 10.0476 12.6774L11.7976 15.0924C11.9026 15.2349 11.9201 15.2374 12.0651 15.1274C12.2101 15.0174 12.3151 14.9474 12.4151 14.8499C13.7971 13.6694 14.7166 11.9824 14.8831 10.0794L14.8851 10.0524V9.99992C14.9026 9.89242 14.8851 9.87242 14.7826 9.86492Z" fill="black"/>
<path d="M5.18758 8.09742C5.18758 8.09892 5.18758 8.10042 5.18758 8.10242C5.18758 9.57692 6.38308 10.7724 7.85758 10.7724C9.33208 10.7724 10.5276 9.57692 10.5276 8.10242C10.5276 6.62892 9.33358 5.43392 7.86008 5.43242C7.85908 5.43242 7.85858 5.43242 7.85758 5.43242C6.38458 5.43242 5.19058 6.62542 5.18758 8.09742ZM7.93758 6.25992C7.96508 6.05992 7.93758 6.10242 8.11508 6.03992C8.25358 5.99492 8.41358 5.96892 8.57908 5.96892C8.61558 5.96892 8.65158 5.96992 8.68758 5.97242L8.68258 5.97192C8.71258 5.97192 8.74508 5.98692 8.78008 5.97192L8.60258 5.78942C8.91758 5.80692 9.48008 6.20192 9.83258 6.64192C9.81508 6.66942 9.79008 6.64192 9.77008 6.64192L9.62258 6.56442C9.59508 6.60942 9.62258 6.63942 9.64258 6.66942C9.70858 6.84142 9.74808 7.04042 9.75008 7.24842C9.75158 7.25692 9.75258 7.26792 9.75258 7.27792C9.75258 7.35292 9.70258 7.41642 9.63358 7.43642L9.63258 7.43692C9.48758 7.49192 9.34508 7.56442 9.20258 7.62942C9.15208 7.65042 9.10808 7.67642 9.06908 7.70792L9.07008 7.70692C9.29758 7.66192 9.50758 7.62442 9.72008 7.57442C9.72958 7.57142 9.74108 7.56942 9.75258 7.56942C9.79158 7.56942 9.82608 7.59042 9.84458 7.62142C9.99758 7.81442 10.1081 8.04892 10.1586 8.30442L10.1601 8.31442C10.2091 8.25442 10.2511 8.18642 10.2831 8.11242L10.2851 8.10692C10.2866 8.13742 10.2876 8.17292 10.2876 8.20892C10.2876 8.70992 10.1141 9.17042 9.82408 9.53342L9.82758 9.52892C9.82758 9.44642 9.86508 9.37392 9.85008 9.29392C9.80758 9.29392 9.78758 9.33142 9.76008 9.35392C9.60508 9.47792 9.42408 9.57742 9.22758 9.64292L9.21508 9.64642C9.20008 9.65242 9.18258 9.65642 9.16408 9.65642C9.11808 9.65642 9.07758 9.63392 9.05258 9.59942C8.92508 9.45692 8.80208 9.31642 8.66458 9.17642C8.65458 9.15192 8.63608 9.13242 8.61258 9.12192C8.60008 9.15442 8.61208 9.17142 8.63708 9.19142C8.72708 9.35142 8.80958 9.51392 8.90708 9.66892C8.92958 9.69692 8.94308 9.73292 8.94308 9.77192C8.94308 9.81742 8.92458 9.85892 8.89458 9.88892C8.77058 10.0524 8.62358 10.1899 8.45608 10.2999L8.44958 10.3039C8.42308 10.3209 8.40008 10.3374 8.37808 10.3549L8.37958 10.3539C8.37958 10.3539 8.37958 10.3539 8.37958 10.3714L8.60708 10.4089C8.38408 10.4924 8.12608 10.5404 7.85708 10.5404C7.58808 10.5404 7.33008 10.4924 7.09158 10.4039L7.10708 10.4089L7.34208 10.3689C7.34208 10.3214 7.30708 10.3189 7.28208 10.3039C7.08958 10.1809 6.92958 10.0249 6.80558 9.84192L6.80208 9.83642C6.78758 9.81842 6.77858 9.79542 6.77858 9.76992C6.77858 9.74442 6.78758 9.72142 6.80208 9.70342C6.90958 9.51842 7.01458 9.32842 7.10708 9.12842L6.98708 9.25592C6.88458 9.36592 6.78208 9.47342 6.68458 9.58842C6.65908 9.62592 6.61658 9.65042 6.56858 9.65042C6.54808 9.65042 6.52858 9.64592 6.51158 9.63842L6.51258 9.63892C6.30708 9.57292 6.12908 9.47492 5.97458 9.34892L5.97758 9.35142L5.90008 9.28892H5.87258L5.90008 9.50392C5.66508 9.35142 5.40008 8.53142 5.43008 8.08142C5.48508 8.15642 5.50258 8.24142 5.55758 8.30392C5.57808 8.27592 5.59258 8.24192 5.59758 8.20492C5.65708 7.97992 5.75708 7.78242 5.89008 7.61292L5.88758 7.61642C5.90758 7.58592 5.94158 7.56592 5.98008 7.56592C5.99258 7.56592 6.00458 7.56792 6.01558 7.57192C6.22558 7.61942 6.43708 7.65942 6.65708 7.70192C6.60208 7.65992 6.53808 7.62492 6.46958 7.60092L6.46458 7.59942C6.33708 7.53942 6.21458 7.47692 6.07958 7.42442C6.02408 7.40892 5.98358 7.35842 5.98358 7.29892C5.98358 7.29392 5.98408 7.28892 5.98458 7.28392C5.98458 7.27542 5.98408 7.26592 5.98408 7.25542C5.98408 7.05092 6.02158 6.85592 6.09058 6.67542L6.08708 6.68642C6.10808 6.65192 6.12158 6.61092 6.12458 6.56742C6.04208 6.58242 5.97958 6.63892 5.89958 6.65642C6.20308 6.23142 6.63208 5.91392 7.13258 5.75592L7.14958 5.75142C7.12658 5.79392 7.09558 5.82892 7.05808 5.85592L7.05708 5.85642C7.02858 5.88242 6.99758 5.90742 6.96508 5.92942L6.96208 5.93142C6.99458 5.98642 7.02458 5.96392 7.04958 5.96142C7.07758 5.95992 7.11058 5.95892 7.14408 5.95892C7.33808 5.95892 7.52508 5.98992 7.69958 6.04742L7.68708 6.04392C7.75558 6.05642 7.80708 6.11542 7.80708 6.18692C7.80708 6.18842 7.80708 6.19042 7.80708 6.19192C7.80708 6.35442 7.83958 6.51442 7.85958 6.67442C7.86208 6.71442 7.87458 6.75142 7.89508 6.78292L7.89458 6.78192C7.88958 6.61442 7.90708 6.43692 7.92958 6.24942L7.93758 6.25992Z" fill="black"/>
<path d="M6.83258 7.70992C6.80708 7.72292 6.79008 7.74892 6.79008 7.77892C6.79008 7.79092 6.79308 7.80242 6.79758 7.81292C6.92425 8.19125 7.04758 8.56992 7.16758 8.94992C7.17458 8.99042 7.20958 9.02042 7.25158 9.02042C7.25558 9.02042 7.25958 9.01992 7.26308 9.01942H7.85008C8.04758 9.01942 8.24758 9.01942 8.44758 9.01942C8.45208 9.02042 8.45758 9.02092 8.46308 9.02092C8.50908 9.02092 8.54658 8.98692 8.55258 8.94242C8.67008 8.56992 8.80258 8.19192 8.91508 7.82942C8.92208 7.81692 8.92608 7.80192 8.92608 7.78592C8.92608 7.75092 8.90658 7.72042 8.87808 7.70492C8.55558 7.47492 8.25008 7.24992 7.92008 6.99992C7.90458 6.98442 7.88358 6.97492 7.86008 6.97492C7.83658 6.97492 7.81558 6.98442 7.80008 6.99992C7.48008 7.24158 7.15758 7.47825 6.83258 7.70992Z" fill="black"/>
</g>
<defs>
<clipPath id="clip0_6_250">
<rect width="16" height="16" fill="white"/>
</clipPath>
</defs>
</svg>
