<svg width="16" height="16" viewBox="0 0 16 16" fill="none" xmlns="http://www.w3.org/2000/svg">
<g clip-path="url(#clip0_6_416)">
<path d="M15.14 11.5465C15.0765 11.502 14.9985 11.475 14.914 11.473C14.7805 11.4805 14.66 11.5325 14.566 11.6135L11.72 14.2795C11.5675 14.3825 11.468 14.555 11.468 14.7505C11.468 14.874 11.5075 14.988 11.5745 15.081L11.5735 15.0795C11.9915 15.571 12.589 15.898 13.264 15.959L13.2735 15.9595H13.487C14.875 15.9595 16.001 14.8345 16.001 13.446C16.001 12.692 15.669 12.016 15.1435 11.555L15.1405 11.5525L15.14 11.5465Z" fill="black"/>
<path d="M13.7935 10.7465C13.905 10.6275 13.9735 10.467 13.9735 10.2905C13.9735 10.2845 13.9735 10.278 13.9735 10.272C13.9695 10.1025 13.933 9.94399 13.8705 9.79799L13.8735 9.80649L11.6735 3.85999L10.8 1.41349C10.8 1.41349 10.8 1.36699 10.8 1.33999L10.7535 1.21349C10.4585 0.541492 9.81049 0.0749922 9.05049 0.0469922H9.04699C9.01249 0.0439922 8.97249 0.0419922 8.93199 0.0419922C8.19549 0.0419922 7.59849 0.638992 7.59849 1.37549C7.59849 1.62299 7.66599 1.85449 7.78349 2.05349L7.77999 2.04749L11.32 8.85399C11.3445 8.89899 11.359 8.95249 11.359 9.00899C11.359 9.13549 11.287 9.24549 11.1815 9.29949L11.1795 9.30049C11.136 9.32549 11.0835 9.34049 11.028 9.34049H11.026C10.899 9.33949 10.789 9.26749 10.7335 9.16249L10.7325 9.16049L6.88599 2.30699C6.74499 2.04199 6.46999 1.86449 6.15399 1.86449C6.06799 1.86449 5.98499 1.87749 5.90699 1.90199L5.91299 1.90049C5.21349 2.14249 4.70349 2.75549 4.61399 3.49799L4.61299 3.50699C4.58799 3.64549 4.46799 3.74949 4.32399 3.74949C4.31049 3.74949 4.29749 3.74849 4.28449 3.74699H4.28599H4.17949C4.15449 3.74599 4.12549 3.74499 4.09599 3.74499C3.40599 3.74499 2.80099 4.11049 2.46449 4.65849L2.45949 4.66699C2.37199 4.79849 2.31999 4.96049 2.31999 5.13399C2.31999 5.41399 2.45499 5.66299 2.66349 5.81849L2.66599 5.81999L9.19949 10.7335C9.28099 10.795 9.33299 10.8915 9.33299 11C9.33299 11.0755 9.30799 11.145 9.26549 11.201L9.26599 11.2C9.20399 11.2805 9.10799 11.332 8.99949 11.3335H8.99749C8.92299 11.3335 8.85399 11.3085 8.79899 11.2665L8.79999 11.267L2.29349 6.46049C2.06249 6.27999 1.76749 6.17099 1.44749 6.17099C0.995488 6.17099 0.594488 6.38799 0.342988 6.72399L0.340488 6.72749C0.143488 7.00549 0.0189883 7.34699 0.000488281 7.71649V7.81449C0.00148828 8.58999 0.460488 9.25849 1.12199 9.56299L1.13399 9.56799L1.24049 9.62149L9.90699 13.668C9.99449 13.725 10.102 13.759 10.217 13.759C10.3525 13.759 10.4765 13.712 10.5745 13.6335L10.5735 13.6345L13.827 10.7545L13.7935 10.7465Z" fill="black"/>
</g>
<defs>
<clipPath id="clip0_6_416">
<rect width="16" height="16" fill="white"/>
</clipPath>
</defs>
</svg>
