<svg width="16" height="16" viewBox="0 0 16 16" fill="none" xmlns="http://www.w3.org/2000/svg">
<g clip-path="url(#clip0_6_374)">
<path d="M7.91247 -0.000476562C6.04347 0.0230234 4.33347 0.684023 2.98497 1.77402L2.99997 1.76202L4.49997 3.51202C5.45447 2.76052 6.67447 2.30702 7.99997 2.30702C9.32547 2.30702 10.5455 2.76052 11.512 3.52152L11.5 3.51202L13 1.76202C11.6415 0.664023 9.89347 -0.000976562 7.98997 -0.000976562C7.96247 -0.000976562 7.93547 -0.000976562 7.90797 -0.000476562H7.91247Z" fill="black"/>
<path d="M2.49996 2.19452C0.959465 3.65552 0.00146484 5.71752 0.00146484 8.00302C0.00146484 12.4215 3.58296 16.003 8.00146 16.003C12.42 16.003 16.0015 12.4215 16.0015 8.00302C16.0015 5.68002 15.0115 3.58852 13.4305 2.12702L13.425 2.12202L11.925 3.87202C13.012 4.91152 13.6875 6.37302 13.6875 7.99252C13.6875 8.12602 13.683 8.25852 13.674 8.38952L13.675 8.37202C13.6145 9.25352 13.3605 10.064 12.9555 10.7775L12.97 10.7495L9.88997 7.78452L8.33746 4.43702V9.49952L11.45 12.4995C10.503 13.226 9.30147 13.664 7.99746 13.664C7.45546 13.664 6.93146 13.5885 6.43496 13.447L6.47496 13.457C5.74696 13.251 5.11246 12.9265 4.55896 12.502L4.57246 12.512L7.70246 9.49952C7.70246 7.85202 7.72246 6.07202 7.70246 4.42452L6.14746 7.78452L3.04246 10.7845C2.58447 9.98302 2.31447 9.02252 2.31447 7.99952C2.31447 6.37702 2.99346 4.91352 4.08296 3.87702L4.08546 3.87502L2.57296 2.12502L2.49996 2.19452Z" fill="black"/>
</g>
<defs>
<clipPath id="clip0_6_374">
<rect width="16" height="16" fill="white"/>
</clipPath>
</defs>
</svg>
