<svg width="16" height="16" viewBox="0 0 16 16" fill="none" xmlns="http://www.w3.org/2000/svg">
<g clip-path="url(#clip0_6_467)">
<path d="M10.5835 1.624H5.40801L4.85451 2.186L4.24751 2.8195H11.752L11.1365 2.186L10.5835 1.624Z" fill="black"/>
<path d="M14.242 5.363V10.646L10.5835 14.376H5.40801L1.74951 10.646V5.363L2.85601 4.2385H13.136L14.242 5.363Z" fill="black"/>
<path d="M15.991 4.694V11.3155L11.306 16.0005H4.68451L-0.000488281 11.3155V4.694L0.445512 4.239H1.71251L0.891512 5.06V10.9495L5.05001 15.108H10.9395L15.098 10.9495V5.06L14.286 4.239H15.544L15.99 4.694H15.991Z" fill="black"/>
<path d="M5.05951 0.8925H10.94L12.8675 2.82H14.1345L11.3145 0H4.68451L1.82901 2.82H3.09601L5.05951 0.8925Z" fill="black"/>
</g>
<defs>
<clipPath id="clip0_6_467">
<rect width="16" height="16" fill="white"/>
</clipPath>
</defs>
</svg>
