<svg width="16" height="16" viewBox="0 0 16 16" fill="none" xmlns="http://www.w3.org/2000/svg">
<g clip-path="url(#clip0_6_411)">
<path d="M5.12654 4.9735C5.35454 5.1075 5.62904 5.1865 5.92204 5.1865C6.80204 5.1865 7.51554 4.473 7.51554 3.593C7.51554 2.713 6.80204 1.9995 5.92204 1.9995C5.33404 1.9995 4.82004 2.3185 4.54404 2.7925L4.54004 2.8C4.40704 3.0275 4.32904 3.301 4.32904 3.593C4.32904 4.18 4.64654 4.693 5.11954 4.9695L5.12654 4.9735Z" fill="black"/>
<path d="M16 7.6065H10V6.6665C9.35504 6.669 8.79754 7.0385 8.52454 7.577L8.52004 7.5865H7.22654C6.80254 6.926 6.13404 6.4545 5.35204 6.2965L5.33354 6.2935C5.03404 6.229 4.76904 6.128 4.52504 5.9925L4.54004 6C4.19004 5.7945 3.90054 5.524 3.67904 5.2025L3.67304 5.1935C3.43004 4.8275 3.14354 4.5155 2.81454 4.253L2.80654 4.2465L2.46004 4C2.17804 3.776 1.99904 3.433 1.99904 3.048C1.99904 3.029 1.99954 3.0095 2.00054 2.991V2.9935V0H0.300537V3.16C0.305537 3.995 0.707537 4.7355 1.32754 5.202L1.33404 5.2065L2.58054 6.14L2.12704 8.38C2.10804 8.474 2.09704 8.5825 2.09704 8.6935C2.09704 8.8045 2.10804 8.9125 2.12854 9.0175L2.12704 9.007L1.66704 10.167C1.24504 11.2025 1.00054 12.4045 1.00054 13.663C1.00054 13.6715 1.00054 13.68 1.00054 13.688V13.6865V16H2.66704V13.14C2.66704 13.1375 2.66704 13.1345 2.66704 13.1315C2.66704 12.469 2.79954 11.837 3.03904 11.261L3.02704 11.2935L3.40704 10.3335H3.44704L3.72054 10.387C3.80054 10.3995 3.89304 10.407 3.98704 10.407C4.08104 10.407 4.17354 10.3995 4.26354 10.386L4.25354 10.3875L6.16704 12.121C6.26954 12.215 6.33354 12.35 6.33354 12.4995V16.001H8.00004V12.7675C7.99954 12.088 7.71854 11.474 7.26704 11.0345L5.55304 9.414C5.58804 9.3295 5.62204 9.225 5.64954 9.1175L5.65304 9.1005L5.77954 8.434L5.88604 8.6005C6.13754 9.0025 6.57754 9.266 7.07904 9.267H8.57904C8.88004 9.712 9.38304 10.001 9.95304 10.001C9.96904 10.001 9.98504 10.001 10.001 10.0005H9.99854V9.274H15.9985L16 7.6065Z" fill="black"/>
</g>
<defs>
<clipPath id="clip0_6_411">
<rect width="16" height="16" fill="white"/>
</clipPath>
</defs>
</svg>
