<svg width="16" height="16" viewBox="0 0 16 16" fill="none" xmlns="http://www.w3.org/2000/svg">
<g clip-path="url(#clip0_6_264)">
<path d="M15.2 13.3332C14.6 11.9997 14.4 10.5332 14.5335 9.0667L14.7335 7.4002L13.267 3.6002C12.867 2.7337 11.8005 2.3337 10.9335 2.8002H10.867C10.667 2.9337 10.467 3.0667 10.267 3.2667L10.2005 3.3332C10.134 3.3997 10.134 3.3997 10.067 3.4667L8.00048 6.4667H5.40048L5.80048 5.4667H7.13398L5.86748 3.4667C5.66748 3.2002 5.46748 2.9332 5.13398 2.8002H5.06748C4.20098 2.3337 3.20098 2.7337 2.73398 3.6002L1.26748 7.4002L1.46748 9.0667C1.60098 10.5332 1.40098 12.0002 0.800977 13.3332L0.000976562 15.2667L1.53448 15.9332L2.33448 13.9997C3.00098 12.3997 3.26798 10.6662 3.13448 8.9332L3.06798 8.4667L5.06798 9.8667C6.00148 10.5332 6.33448 11.6667 6.00148 12.7332L5.06798 15.2667L6.66798 15.8002L7.60148 13.2667C8.20148 11.5332 7.60148 9.5332 6.06798 8.4667L5.60148 8.1332H9.13498L10.535 6.1997L11.2015 7.7332L10.2015 8.4667C8.80148 9.4667 8.13498 11.3332 8.66798 13.0002L9.46798 15.8667L11.068 15.4002L10.268 12.5337C10.0015 11.5337 10.3345 10.4672 11.2015 9.8002L13.068 8.4667L13.0015 8.9332C12.668 10.6667 12.935 12.3997 13.668 13.9997L14.468 15.8662L16.0015 15.1997L15.2015 13.3332H15.2Z" fill="black"/>
<path d="M8.66648 3.5332C9.39998 3.0667 9.66648 2.1332 9.26648 1.3332C8.86648 0.533203 7.86648 0.333203 7.06648 0.733203C6.33298 1.1997 6.06648 2.1997 6.53298 2.9332C6.93298 3.7332 7.93298 3.9332 8.66648 3.5332Z" fill="black"/>
</g>
<defs>
<clipPath id="clip0_6_264">
<rect width="16" height="16" fill="white"/>
</clipPath>
</defs>
</svg>
