<svg width="16" height="16" viewBox="0 0 16 16" fill="none" xmlns="http://www.w3.org/2000/svg">
<g clip-path="url(#clip0_18_56)">
<path fill-rule="evenodd" clip-rule="evenodd" d="M0 8C0 3.58172 3.58172 0 8 0C12.4183 0 16 3.58172 16 8C16 12.4183 12.4183 16 8 16C3.58172 16 0 12.4183 0 8ZM8.48636 2.93171C8.48636 2.663 8.26853 2.44517 7.99982 2.44517C7.73111 2.44517 7.51328 2.663 7.51328 2.93171V7.11051C7.34365 7.20352 7.20352 7.34365 7.11051 7.51328H5.41508C5.14637 7.51328 4.92854 7.73111 4.92854 7.99982C4.92854 8.26853 5.14637 8.48636 5.41508 8.48636H7.11042C7.2826 8.80052 7.61638 9.01352 7.9999 9.01352C8.55971 9.01352 9.01352 8.55971 9.01352 7.9999C9.01352 7.61638 8.80052 7.2826 8.48636 7.11042L8.48636 2.93171Z" fill="black"/>
</g>
<defs>
<clipPath id="clip0_18_56">
<rect width="16" height="16" fill="white"/>
</clipPath>
</defs>
</svg>
