<svg width="16" height="16" viewBox="0 0 16 16" fill="none" xmlns="http://www.w3.org/2000/svg">
<g clip-path="url(#clip0_6_550)">
<path d="M15.9999 8.96737C15.9049 9.39737 15.8424 9.83737 15.7074 10.2549C14.6599 13.4324 12.4999 15.3399 9.18992 15.9174C8.81592 15.9834 8.38492 16.0209 7.94542 16.0209C6.94092 16.0209 5.98292 15.8239 5.10692 15.4664L5.15692 15.4844C5.08942 15.4594 5.02442 15.4269 4.90692 15.3744C7.13942 15.0194 8.94442 14.0169 10.2844 12.2494C11.6244 10.4819 12.1069 8.47937 11.8469 6.26187C11.9294 6.30937 11.9919 6.34437 12.0544 6.38437L15.8769 8.81937C15.9169 8.84437 15.9594 8.86437 15.9994 8.88437L15.9999 8.96737ZM12.4074 10.2624C12.8599 10.4549 12.7774 10.0324 12.9324 9.88237C13.1144 10.0719 13.2349 10.3209 13.2619 10.5974L13.2624 10.6024C13.3329 10.9349 13.6219 11.1814 13.9694 11.1849C14.0569 11.1619 14.1289 11.1059 14.1714 11.0314L14.1724 11.0299C14.1759 11.0154 14.1784 10.9994 14.1784 10.9824C14.1784 10.9289 14.1569 10.8804 14.1224 10.8449C14.0574 10.7874 13.9674 10.7249 13.8724 10.8449C13.8524 10.8699 13.7749 10.8649 13.7324 10.8449C13.5049 10.7649 13.6024 10.5399 13.5199 10.4024C13.9374 10.0924 14.1699 10.4599 14.4999 10.6199L14.4024 10.0874C14.1074 10.1899 13.9924 9.96987 13.8049 9.90487C13.9149 9.65487 14.1024 9.40487 13.9124 9.15487C13.8974 9.13237 13.9374 9.06987 13.9524 9.02737C13.9674 8.98487 13.9749 8.94737 13.9924 8.88737C13.8949 8.95037 13.7829 9.00687 13.6644 9.05087L13.6524 9.05487C13.5299 9.08487 13.5024 9.12987 13.5599 9.23487C13.6199 9.38387 13.6544 9.55637 13.6544 9.73687C13.6544 9.85687 13.6389 9.97337 13.6104 10.0844L13.6124 10.0749C13.5924 10.2374 13.4624 10.2699 13.3624 10.1474C13.2639 10.0419 13.1759 9.92487 13.1004 9.79937L13.0949 9.78987C13.0779 9.73987 13.0684 9.68287 13.0684 9.62337C13.0684 9.59387 13.0709 9.56487 13.0754 9.53687L13.0749 9.53987C13.0749 9.48487 13.0749 9.43237 13.0749 9.37987C13.0124 9.37987 12.9124 9.37987 12.8899 9.41237C12.7224 9.68237 12.5724 9.96737 12.4074 10.2624ZM12.8724 11.5949C12.7934 11.5369 12.7039 11.4844 12.6094 11.4414L12.5999 11.4374C12.5784 11.4309 12.5539 11.4269 12.5284 11.4269C12.4779 11.4269 12.4304 11.4419 12.3914 11.4679L12.3924 11.4674C12.1424 11.6999 11.8924 11.9374 11.6674 12.1849C11.4774 12.3874 11.4874 12.5824 11.7174 12.7324C11.9284 12.8619 12.1749 12.9874 12.4314 13.0944L12.4674 13.1074C12.6899 13.2024 12.8074 13.1324 12.8299 12.8874C12.8269 12.7359 12.8059 12.5909 12.7694 12.4519L12.7724 12.4649C12.5924 12.7649 12.4724 12.7899 12.2249 12.6374C12.1799 12.6074 12.1324 12.5774 12.0899 12.5449C11.8824 12.3924 11.8749 12.3174 12.0899 12.1599C12.3299 11.9674 12.5949 11.7924 12.8724 11.5949ZM10.7924 13.5549L10.7324 13.5374C10.6974 13.6049 10.6149 13.7024 10.6324 13.7299C10.7374 13.8699 10.6199 13.9799 10.5624 14.0524C10.5374 14.0849 10.3899 14.0324 10.3274 14.0249L10.4999 13.6574L10.4374 13.6174L9.88992 14.0249L10.2424 14.2049C10.2199 14.2624 10.2024 14.3074 10.1874 14.3499C10.1724 14.3924 10.1474 14.4524 10.1349 14.5049C10.1024 14.6374 10.1849 14.7199 10.3124 14.6799C10.3829 14.6469 10.4439 14.6084 10.4989 14.5634L10.4974 14.5649C10.4724 14.5274 10.4599 14.5124 10.4499 14.4949L10.3774 14.3574C10.3994 14.3534 10.4249 14.3509 10.4514 14.3509C10.4779 14.3509 10.5029 14.3534 10.5279 14.3579L10.5254 14.3574C10.6304 14.3899 10.7279 14.4399 10.8304 14.4774C10.8584 14.4934 10.8919 14.5034 10.9279 14.5034C11.0344 14.5034 11.1214 14.4189 11.1254 14.3129L10.8754 14.1874C11.0104 14.0949 11.0104 14.0974 11.2029 14.1674C11.3004 14.1999 11.4154 14.2724 11.4829 14.1299C11.5679 13.9474 11.6354 13.7549 11.7154 13.5549L11.5329 13.4824C11.4129 13.6424 11.3254 13.8774 11.2004 13.8974C11.1924 13.8979 11.1829 13.8984 11.1734 13.8984C10.9759 13.8984 10.8134 13.7489 10.7929 13.5564L10.7924 13.5549ZM8.74992 14.6424L8.68742 14.7049L8.96742 15.2049C9.25992 15.2049 9.31742 15.0899 9.25992 14.5374L9.04242 14.9074L8.74992 14.6424ZM13.4249 12.2324C13.4264 12.2214 13.4269 12.2094 13.4269 12.1964C13.4269 12.0334 13.2949 11.9014 13.1319 11.9014C13.1239 11.9014 13.1164 11.9019 13.1089 11.9024C13.0494 11.9069 12.9984 11.9369 12.9654 11.9819C12.9454 12.0219 12.9649 12.0949 12.9974 12.1424C13.0474 12.2299 13.1074 12.3099 13.1649 12.3924C13.1899 12.4274 13.2274 12.4899 13.2449 12.4874C13.2949 12.4729 13.3359 12.4404 13.3619 12.3984L13.3624 12.3974C13.3874 12.3504 13.4084 12.2954 13.4239 12.2379L13.4249 12.2324ZM14.6274 9.19987L14.4999 9.51737C14.5599 9.53237 14.6449 9.58237 14.6799 9.55737C14.8124 9.47237 14.7824 9.36487 14.6274 9.19987Z" fill="black"/>
<path d="M4.64742 5.52987C4.64742 5.05237 4.63242 4.57737 4.64742 4.10237C4.68742 2.99987 4.74992 1.89737 4.79242 0.794874C4.79242 0.642374 4.88742 0.619874 4.98742 0.582374C7.38242 -0.337626 9.71992 -0.227626 11.9549 1.03487C14.1899 2.29737 15.5149 4.28487 15.9549 6.82487C15.9549 6.87237 15.9549 6.91987 15.9674 7.01987C14.5549 5.24987 12.7774 4.19987 10.5774 3.92237C10.2604 3.87737 9.89392 3.85187 9.52142 3.85187C7.67542 3.85187 5.97692 4.48387 4.63042 5.54287L4.64742 5.52987ZM8.18992 1.72487C8.23242 1.70487 8.27492 1.65987 8.31492 1.66487C8.63242 1.69737 8.95242 1.72987 9.26492 1.78987C9.35992 1.80987 9.43742 1.92237 9.51492 1.98987C9.53242 2.00487 9.55492 2.01737 9.59992 2.04737V1.88987C10.0129 2.03237 10.3699 2.23987 10.6769 2.50337L10.6724 2.49987C10.7314 2.54137 10.7984 2.58037 10.8689 2.61387L10.8774 2.61737L10.9174 2.51487C10.2649 1.91737 9.39142 1.55137 8.43292 1.55137C8.25092 1.55137 8.07242 1.56437 7.89792 1.58987L7.91792 1.58737C8.08692 1.53037 8.30542 1.47287 8.52792 1.42687L8.56792 1.41987C8.77992 1.36537 9.02292 1.33387 9.27342 1.33387C9.81742 1.33387 10.3269 1.48187 10.7639 1.73987L10.7504 1.73237C10.8604 1.81887 10.9464 1.93187 10.9984 2.06187L11.0004 2.06737L11.1129 1.96987L11.1829 1.89987C11.3879 2.14987 11.5954 2.37237 11.7954 2.61237C12.3214 3.24287 12.9374 3.77637 13.6279 4.19887L13.6604 4.21737C13.8479 4.32587 14.0674 4.42787 14.2959 4.51037L14.3254 4.51937C14.3629 4.52637 14.4064 4.53037 14.4504 4.53037C14.4944 4.53037 14.5379 4.52637 14.5799 4.51837L14.5754 4.51887L14.6029 4.40887C14.1709 4.40637 13.7759 4.25187 13.4674 3.99637L13.4704 3.99887C13.5934 4.02987 13.7374 4.05137 13.8849 4.05887H13.8904C13.9779 4.04837 14.0514 3.99737 14.0924 3.92537L14.0929 3.92387C14.1004 3.89787 14.1044 3.86737 14.1044 3.83637C14.1044 3.77137 14.0864 3.71137 14.0544 3.65987L14.0554 3.66137C13.9979 3.56637 13.9079 3.53887 13.8479 3.68137C13.8279 3.72887 13.7779 3.79637 13.7404 3.79887C13.7224 3.79987 13.7014 3.79987 13.6799 3.79987C13.3029 3.79987 12.9569 3.66537 12.6879 3.44187L12.6904 3.44387C12.8294 3.46837 12.9939 3.48537 13.1614 3.49137H13.1679C13.1709 3.49137 13.1744 3.49137 13.1779 3.49137C13.3369 3.49137 13.4654 3.36287 13.4654 3.20387C13.4654 3.18537 13.4634 3.16687 13.4604 3.14937L13.4609 3.15137C13.4324 3.07337 13.3739 3.01187 13.3004 2.97987L13.2984 2.97887C13.2634 2.96387 13.1834 3.05137 13.1334 3.10137C13.0834 3.15137 13.0634 3.22887 13.0134 3.24387C12.9819 3.24787 12.9459 3.25037 12.9089 3.25037C12.6024 3.25037 12.3324 3.09337 12.1754 2.85487L12.1734 2.85137C12.5809 2.90387 12.7009 2.85137 12.7284 2.60137C12.7049 2.59837 12.6784 2.59687 12.6509 2.59687C12.6234 2.59687 12.5969 2.59837 12.5704 2.60187L12.5734 2.60137C12.5119 2.62037 12.4409 2.63137 12.3679 2.63137C12.2119 2.63137 12.0669 2.58187 11.9489 2.49737L11.9509 2.49887C11.8064 2.39787 11.6794 2.28937 11.5644 2.16987L11.5634 2.16887C10.9849 1.58587 10.1964 1.21187 9.32142 1.16937L9.31342 1.16887C9.21142 1.15937 9.09342 1.15387 8.97392 1.15387C8.31192 1.15387 7.68942 1.32137 7.14592 1.61637L7.16592 1.60637C6.89992 1.41487 6.56742 1.30037 6.20842 1.30037C6.18642 1.30037 6.16442 1.30087 6.14292 1.30187H6.14592C6.47642 1.35537 6.76742 1.49587 7.00292 1.69887L7.00042 1.69687C6.53992 1.96287 6.17242 2.34387 5.92992 2.80187L5.92292 2.81687C6.24042 2.41037 6.64992 2.09037 7.12042 1.88437L7.14042 1.87687C7.16792 1.92937 7.18792 1.96437 7.20292 1.99937C7.29792 2.24937 7.28792 2.24937 7.05292 2.35187C6.86342 2.43137 6.70292 2.51537 6.55092 2.61037L6.56542 2.60187C6.19492 2.85837 5.90442 3.20637 5.72392 3.61387L5.71792 3.62937C6.15542 3.17687 6.46792 2.56437 7.26042 2.55687L7.19042 2.90937C7.27192 2.79237 7.33342 2.65537 7.36642 2.50687L7.36792 2.49937C7.38792 2.36687 7.44292 2.29937 7.56792 2.28937C8.03542 2.25187 8.51292 2.17937 8.84292 2.63687C8.91042 2.39437 8.56742 1.91737 8.18992 1.72487Z" fill="black"/>
<path d="M7.61492 12.2049L5.61492 13.2374C4.88492 13.6149 4.15242 13.9874 3.42742 14.3799C3.38492 14.4094 3.33242 14.4274 3.27542 14.4274C3.20092 14.4274 3.13342 14.3969 3.08492 14.3474C1.51842 13.1339 0.43092 11.3669 0.11542 9.34387L0.10992 9.29987C0.0354199 8.89487 -0.00708008 8.42937 -0.00708008 7.95337C-0.00708008 5.96487 0.73592 4.15037 1.95942 2.77187L1.95242 2.77987C2.29992 2.40687 2.65792 2.05987 3.03292 1.73187L3.04992 1.71737C3.08842 1.68737 3.13192 1.65987 3.17792 1.63687L3.18242 1.63487C2.37742 3.73237 2.33492 5.79987 3.19992 7.84987C4.06492 9.89987 5.54492 11.3174 7.61492 12.2049ZM2.01742 3.56737C1.99442 3.59137 1.97442 3.61837 1.95842 3.64787L1.95742 3.64987C1.67992 4.36487 1.40742 5.08237 1.12742 5.79487C1.09492 5.85937 1.07542 5.93587 1.07542 6.01687C1.07542 6.18187 1.15542 6.32787 1.27842 6.41937L1.27992 6.42037C1.39942 6.51487 1.48742 6.64387 1.52892 6.79287L1.52992 6.79787C1.60992 7.34287 1.64492 7.89287 1.71492 8.44037C1.73992 8.55187 1.79542 8.64837 1.87242 8.72287C1.97742 8.83787 2.12242 8.90787 2.21992 9.03287C2.50242 9.44037 2.76742 9.86037 3.02992 10.2829C3.05192 10.3179 3.06442 10.3604 3.06442 10.4059C3.06442 10.4324 3.05992 10.4584 3.05192 10.4824L3.05242 10.4809C3.01042 10.5444 2.98592 10.6229 2.98592 10.7064C2.98592 10.8389 3.04792 10.9564 3.14442 11.0324L3.14542 11.0329C3.63042 11.5329 4.12042 12.0329 4.61542 12.5079C4.65342 12.5324 4.69942 12.5464 4.74892 12.5464C4.77792 12.5464 4.80592 12.5414 4.83192 12.5324L4.82992 12.5329C5.10992 12.4154 5.38242 12.2829 5.65492 12.1504C5.33242 11.9204 5.02242 11.6929 4.70242 11.4729C4.65442 11.4429 4.59592 11.4254 4.53392 11.4254C4.51942 11.4254 4.50492 11.4264 4.49092 11.4284H4.49242C4.47042 11.4314 4.44492 11.4334 4.41892 11.4334C4.24742 11.4334 4.09442 11.3549 3.99342 11.2319L3.99242 11.2309C3.91642 11.1444 3.83442 11.0664 3.74642 10.9964L3.74242 10.9934C3.67942 10.9614 3.63742 10.8974 3.63742 10.8234C3.63742 10.7944 3.64392 10.7669 3.65542 10.7424L3.65492 10.7434C3.66542 10.7034 3.67192 10.6569 3.67192 10.6094C3.67192 10.4534 3.60592 10.3124 3.50042 10.2134C2.67842 9.21337 2.12742 7.96087 1.97742 6.58887L1.97492 6.55787C1.96942 6.38987 1.88242 6.24337 1.75192 6.15637L1.74992 6.15537C1.62842 6.08587 1.54792 5.95687 1.54792 5.80937C1.54792 5.77137 1.55342 5.73487 1.56292 5.70037L1.56242 5.70337C1.61242 5.45337 1.62742 5.17587 1.68492 4.91837C1.77992 4.47587 1.89992 4.03737 2.01742 3.56737ZM1.11492 9.71237C1.19742 10.0974 1.29992 10.4149 1.71492 10.4999C2.00592 10.5879 2.24292 10.7799 2.38692 11.0319L2.38992 11.0374C2.63992 11.3799 2.69492 11.6624 2.36742 11.9674C2.28242 12.0449 2.29242 12.1249 2.36742 12.2174C2.65492 12.5449 2.93492 12.8774 3.21992 13.2174C3.24242 13.2424 3.29742 13.2699 3.32242 13.2599C3.45992 13.1999 3.59492 13.1349 3.72492 13.0624C3.74392 13.0414 3.75592 13.0129 3.75592 12.9819C3.75592 12.9684 3.75392 12.9559 3.74992 12.9439C3.59742 12.7589 3.71992 12.6049 3.78992 12.4449C3.81742 12.3824 3.84742 12.2849 3.81992 12.2449C3.72392 12.1224 3.62542 12.0129 3.52042 11.9104L3.31742 12.2499C3.18592 12.1844 3.09742 12.0514 3.09742 11.8974C3.09742 11.8154 3.12242 11.7389 3.16592 11.6759L3.16492 11.6774C3.17692 11.6474 3.18342 11.6124 3.18342 11.5754C3.18342 11.5209 3.16792 11.4694 3.14142 11.4259L3.14192 11.4274C2.92442 11.0524 2.69692 10.6774 2.46942 10.3099C2.43592 10.2449 2.38742 10.1914 2.32842 10.1534L2.32692 10.1524C1.93442 10.0174 1.53992 9.87237 1.11492 9.71237ZM1.72492 9.67237C1.69492 9.07987 1.42492 8.81737 0.90992 8.86987C0.94992 9.03487 0.98492 9.20237 1.02992 9.36987C1.04042 9.41437 1.06892 9.45087 1.10642 9.47187L1.10742 9.47237C1.30742 9.53987 1.51242 9.60237 1.72492 9.67237ZM1.46242 8.70737C1.49492 8.18487 1.36742 8.03987 0.83992 7.98237C0.78992 8.56237 0.80492 8.58237 1.36742 8.68987L1.46242 8.70737ZM1.40242 7.88737C1.40242 7.32237 1.31992 7.18237 0.84492 7.01987C0.84492 7.18987 0.81992 7.35737 0.81992 7.51987C0.82592 7.57787 0.85692 7.62787 0.90192 7.65937C1.05692 7.74937 1.22242 7.80987 1.40242 7.88737Z" fill="black"/>
<path d="M8.18992 1.72487L8.62992 2.22487H7.41242L7.33492 1.78737C7.48542 1.73187 7.65942 1.69937 7.84092 1.69937C7.96742 1.69937 8.09042 1.71487 8.20742 1.74437L8.19692 1.74237L8.18992 1.72487Z" fill="black"/>
</g>
<defs>
<clipPath id="clip0_6_550">
<rect width="16" height="16" fill="white"/>
</clipPath>
</defs>
</svg>
