<svg width="16" height="16" viewBox="0 0 16 16" fill="none" xmlns="http://www.w3.org/2000/svg">
<path d="M9.1735 4.33344C9.1735 6.02344 7.8035 7.39344 6.1135 7.39344C4.4235 7.39344 3.0535 6.02344 3.0535 4.33344C3.0535 2.64344 4.4235 1.27344 6.1135 1.27344C6.1155 1.27344 6.118 1.27344 6.12 1.27344C7.8065 1.27344 9.1735 2.64044 9.1735 4.32694C9.1735 4.32944 9.1735 4.33094 9.1735 4.33344ZM8.6665 8.61344H3.5665C1.5965 8.61344 0 10.2104 0 12.1799V14.7264H12.2335V12.1799C12.2335 10.2099 10.636 8.61344 8.6665 8.61344ZM16 3.85994H11V6.13994H16V3.85994ZM16 7.41344H12V9.69994H16V7.41344ZM16 10.9664H13V13.2529H16V10.9664Z" fill="black"/>
</svg>
