<svg width="16" height="16" viewBox="0 0 16 16" fill="none" xmlns="http://www.w3.org/2000/svg">
<g clip-path="url(#clip0_6_366)">
<path d="M7.13362 3.8735C7.30112 3.939 7.49462 3.9765 7.69762 3.9765C8.57762 3.9765 9.29112 3.263 9.29112 2.383C9.29112 1.503 8.57762 0.7895 7.69762 0.7895C7.02012 0.7895 6.44112 1.2125 6.21062 1.809L6.20712 1.82C6.14062 1.9885 6.10212 2.183 6.10212 2.387C6.10212 3.064 6.52612 3.6415 7.12262 3.8695L7.13362 3.8735Z" fill="black"/>
<path d="M13.4466 13.4665C13.0611 13.798 12.5556 14 12.0031 14C12.0021 14 12.0006 14 11.9996 14C11.9841 14.0005 11.9661 14.0005 11.9476 14.0005C11.4161 14.0005 10.9286 13.8115 10.5491 13.497L10.5526 13.5C9.86962 12.9795 9.00412 12.666 8.06512 12.666C8.04212 12.666 8.01862 12.666 7.99562 12.6665H7.99912C7.96412 12.6655 7.92262 12.665 7.88112 12.665C6.96212 12.665 6.11362 12.966 5.42812 13.4745L5.43912 13.4665C5.05712 13.798 4.55512 14 4.00562 14C4.00312 14 4.00112 14 3.99862 14C3.98462 14.0005 3.96812 14.0005 3.95162 14.0005C3.42112 14.0005 2.93462 13.8115 2.55562 13.497L2.55912 13.5C1.87662 12.9795 1.01162 12.666 0.0736172 12.666C0.0471172 12.666 0.0211172 12.666 -0.00488281 12.6665H-0.000882813V14.6665C0.0321172 14.6655 0.0716172 14.665 0.110617 14.665C1.02962 14.665 1.87812 14.966 2.56362 15.4745L2.55262 15.4665C2.93362 15.798 3.43512 16 3.98362 16C3.98912 16 3.99462 16 4.00012 16C4.01562 16.0005 4.03262 16.0005 4.05112 16.0005C4.58262 16.0005 5.07012 15.8115 5.44962 15.497L5.44612 15.5C6.12862 14.9795 6.99312 14.666 7.93112 14.666C7.95512 14.666 7.97912 14.666 8.00312 14.6665H7.99962C8.02112 14.666 8.04662 14.666 8.07212 14.666C9.01062 14.666 9.87612 14.9795 10.5696 15.5075L10.5596 15.5C10.9356 15.8115 11.4226 16.0005 11.9541 16.0005C11.9701 16.0005 11.9861 16.0005 12.0021 16H11.9996C12.0121 16.0005 12.0271 16.0005 12.0421 16.0005C12.5766 16.0005 13.0671 15.8115 13.4501 15.497L13.4461 15.5C14.1246 14.9795 14.9861 14.666 15.9201 14.666C15.9481 14.666 15.9756 14.6665 16.0036 14.667H15.9996V12.667C15.9631 12.666 15.9206 12.665 15.8776 12.665C14.9621 12.665 14.1171 12.966 13.4356 13.4745L13.4466 13.4665Z" fill="black"/>
<path d="M3.29362 12.36C3.68012 12.62 3.70712 12.6335 3.96012 12.6335C4.21312 12.6335 4.28012 12.6335 4.66662 12.36C5.52062 11.73 6.59112 11.347 7.75012 11.3335H7.75312L8.79962 9.867L10.6661 7.2205C11.0641 7.02 11.3961 6.7435 11.6546 6.407L11.6596 6.4005L11.3861 6.207L12.6661 4.4335H13.5596L15.5596 1.6335L13.2931 0L11.3331 2.8L11.5996 3.66L10.2861 5.4465C9.85012 5.8235 9.27712 6.053 8.65112 6.053C8.52212 6.053 8.39562 6.0435 8.27212 6.0245L8.28612 6.026C7.89962 5.9845 7.55762 5.822 7.29162 5.578L7.29312 5.579C7.16912 4.975 6.74412 4.4925 6.18512 4.2895L6.17312 4.2855H6.10662C5.92012 4.2115 5.70362 4.169 5.47762 4.169C4.74112 4.169 4.11012 4.6235 3.85062 5.2675L3.84662 5.2795L2.31312 9.333C1.40562 9.1185 0.622117 8.677 -0.00138283 8.072L-0.000382828 8.073L1.16612 11.4065C1.97712 11.584 2.69112 11.9155 3.30812 12.3705L3.29262 12.3595L3.29362 12.36ZM6.89362 7.3335C7.22862 7.504 7.61812 7.626 8.02912 7.6785L8.04662 7.6805C8.19612 7.702 8.36912 7.714 8.54512 7.714C8.56212 7.714 8.57912 7.714 8.59612 7.7135H8.59362H8.66712L7.10712 9.9C6.70712 9.9 6.31362 9.9 5.92712 9.9L6.89362 7.3335Z" fill="black"/>
<path d="M9.33362 11.44C10.0961 11.629 10.7646 11.9465 11.3501 12.3715L11.3336 12.36C11.7201 12.62 11.7471 12.6335 12.0401 12.6335C12.3331 12.6335 12.3536 12.6335 12.7466 12.36C13.3481 11.9165 14.0621 11.5875 14.8366 11.42L14.8731 11.4135L16.0396 8.08C14.4606 8.924 12.6126 9.4965 10.6516 9.682L10.5931 9.6865L9.33362 11.44Z" fill="black"/>
</g>
<defs>
<clipPath id="clip0_6_366">
<rect width="16" height="16" fill="white"/>
</clipPath>
</defs>
</svg>
