<svg width="16" height="16" viewBox="0 0 16 16" fill="none" xmlns="http://www.w3.org/2000/svg">
<g clip-path="url(#clip0_6_346)">
<path d="M6.22254 11.9102L7.29004 13.5102L12.25 10.7502L10.49 8.17766L6.22254 11.9102Z" fill="black"/>
<path d="M4.35003 5.20516C3.44003 5.66516 3.07753 6.76016 3.45253 8.85766C3.82753 10.9552 5.01254 11.5002 5.37753 11.7677C5.74253 12.0352 8.21004 13.3052 10.39 10.8352C12.57 8.36516 9.26753 4.08516 9.26753 4.08516C9.26753 4.08516 5.25003 4.75016 4.35003 5.20516Z" fill="black"/>
<path d="M0.500035 1.43766C0.200035 1.59266 -0.00146484 1.90066 -0.00146484 2.25566C-0.00146484 2.40716 0.0350352 2.54966 0.100035 2.67566L0.0975352 2.67066L3.82504 10.0482C3.85704 10.1122 3.92253 10.1557 3.99753 10.1557C4.03054 10.1557 4.06154 10.1472 4.08854 10.1327L4.08754 10.1332L5.37504 9.48566C5.44004 9.45216 5.48354 9.38616 5.48354 9.30916C5.48354 9.27666 5.47554 9.24616 5.46204 9.21916L5.46254 9.22016L1.75004 1.84266C1.59754 1.53716 1.28704 1.33116 0.928535 1.33116C0.771535 1.33116 0.624035 1.37066 0.495035 1.44016L0.500035 1.43766Z" fill="black"/>
<path d="M4.25004 0.000164063C3.79304 0.0556641 3.44203 0.441164 3.44203 0.908664C3.44203 0.951664 3.44503 0.993664 3.45054 1.03466L3.45004 1.02966L4.45004 9.08966C4.46104 9.18816 4.54354 9.26366 4.64404 9.26366C4.65254 9.26366 4.66054 9.26316 4.66854 9.26216L6.10003 9.08716C6.19753 9.07366 6.27153 8.99116 6.27153 8.89116C6.27153 8.88266 6.27103 8.87416 6.27003 8.86616L5.27003 0.804664C5.21503 0.345664 4.82803 -0.00683594 4.35853 -0.00683594C4.32003 -0.00683594 4.28254 -0.00433594 4.24553 0.000164063H4.25004Z" fill="black"/>
<path d="M7.17504 5.95016L6.02003 6.25016C5.20253 6.46916 4.50654 6.90666 3.97604 7.49616L3.97254 7.50016L3.30003 8.25016C3.21354 8.34616 3.16054 8.47416 3.16054 8.61466C3.16054 8.70316 3.18154 8.78716 3.21904 8.86066L3.21754 8.85766L3.36253 9.14016L7.72754 6.46766L7.70253 6.30016C7.67153 6.09316 7.49503 5.93666 7.28203 5.93666C7.24403 5.93666 7.20704 5.94166 7.17204 5.95116L7.17504 5.95016Z" fill="black"/>
<path d="M7.45054 7.04916L7.44104 7.05216C6.96004 7.20266 6.44804 6.93416 6.29804 6.45316L6.16254 6.01866C6.01204 5.53766 6.28054 5.02566 6.76154 4.87566L6.77104 4.87266C7.25204 4.72216 7.76404 4.99066 7.91404 5.47166L8.04954 5.90616C8.20004 6.38716 7.93154 6.89916 7.45054 7.04916Z" fill="black"/>
<path d="M6.45003 3.86766C6.07503 3.98766 5.80803 4.33316 5.80803 4.74116C5.80803 4.83916 5.82353 4.93316 5.85204 5.02166L5.85003 5.01516L6.16503 6.03016C6.29503 6.38866 6.63303 6.64016 7.02953 6.64016C7.53603 6.64016 7.94703 6.22916 7.94703 5.72266C7.94703 5.63716 7.93553 5.55466 7.91353 5.47616L7.91503 5.48266L7.60003 4.47016C7.48103 4.09366 7.13453 3.82516 6.72553 3.82516C6.62704 3.82516 6.53203 3.84066 6.44353 3.86966L6.45003 3.86766Z" fill="black"/>
<path d="M9.22104 6.42366L9.21154 6.42666C8.73054 6.57716 8.21853 6.30866 8.06853 5.82766L7.91254 5.32916C7.76204 4.84816 8.03054 4.33616 8.51154 4.18616L8.52104 4.18316C9.00204 4.03266 9.51404 4.30116 9.66403 4.78216L9.82003 5.28066C9.97054 5.76166 9.70203 6.27366 9.22104 6.42366Z" fill="black"/>
<path d="M8.27254 3.40266C7.89654 3.52466 7.62954 3.87216 7.62954 4.28166C7.62954 4.37816 7.64454 4.47166 7.67204 4.55916L7.67004 4.55266L7.93754 5.40766C8.06754 5.76616 8.40554 6.01766 8.80204 6.01766C9.30854 6.01766 9.71954 5.60666 9.71954 5.10016C9.71954 5.01466 9.70804 4.93216 9.68604 4.85366L9.68754 4.86016L9.42253 4.00016C9.30004 3.62616 8.95404 3.36116 8.54654 3.36116C8.44854 3.36116 8.35454 3.37616 8.26604 3.40466L8.27254 3.40266Z" fill="black"/>
<path d="M7.66754 6.42266C7.66754 6.42266 8.37004 7.28766 7.09754 8.38516C5.82504 9.48266 5.55254 9.85016 5.55254 9.85016L5.00004 8.28766L7.66754 6.42266Z" fill="black"/>
<path d="M7.09503 6.07266L5.42504 6.77016C5.00454 6.94866 4.64554 7.19516 4.34554 7.49966L3.41253 8.43766C3.28053 8.57266 3.19954 8.75766 3.19954 8.96166C3.19954 9.10866 3.24154 9.24516 3.31454 9.36116L3.31254 9.35816L4.00004 10.4282C4.00004 10.4282 6.47754 11.6782 5.92004 9.21317C5.67004 8.14067 6.55503 8.66316 7.37253 7.56566C7.75253 7.05316 7.79753 6.66316 7.73503 6.39066C7.68454 6.18416 7.50103 6.03366 7.28253 6.03366C7.21453 6.03366 7.15004 6.04816 7.09204 6.07466L7.09503 6.07266Z" fill="black"/>
<path d="M7.46754 14.9327L6.57754 13.3327L12.09 9.77766L13.3325 11.7327L7.46754 14.9327Z" fill="black"/>
<path d="M6.57754 14.4002L13.155 10.3102L16 14.3102V16.0002H7.46754L6.57754 14.4002Z" fill="black"/>
<path d="M13.6875 12.0902C13.6875 12.3842 13.449 12.6227 13.155 12.6227C12.861 12.6227 12.6225 12.3842 12.6225 12.0902C12.6225 11.7962 12.861 11.5577 13.155 11.5577C13.449 11.5577 13.6875 11.7962 13.6875 12.0902Z" fill="black"/>
</g>
<defs>
<clipPath id="clip0_6_346">
<rect width="16" height="16" fill="white"/>
</clipPath>
</defs>
</svg>
