<svg width="16" height="16" viewBox="0 0 16 16" fill="none" xmlns="http://www.w3.org/2000/svg">
<path d="M14.9337 6.86652C14.9337 8.33302 14.9337 12.733 14.9337 12.733C14.9337 14.133 13.7337 15.333 12.3337 15.333H7.60017C6.93367 15.333 6.26667 15.0665 5.73367 14.533L3.86717 12.6665L1.33367 10C0.93367 9.53351 0.93367 8.86652 1.40017 8.46652C1.80017 8.13302 2.33367 8.06652 2.73367 8.33302L5.13367 9.99952V1.66602C5.20017 1.13252 5.60017 0.666016 6.13367 0.666016C6.66717 0.666016 7.13367 1.13252 7.13367 1.66602V6.93252H7.80017V6.26602C7.80017 5.73252 8.26667 5.26602 8.80017 5.26602C9.33367 5.26602 9.80017 5.73252 9.80017 6.26602V6.93252H10.4667C10.5332 6.39902 11.0002 5.99902 11.5332 6.06602C11.9997 6.13252 12.3997 6.46602 12.3997 6.93252H13.0662C13.1327 6.39902 13.5997 5.99902 14.1327 6.06602C14.5327 5.99952 14.9327 6.46602 14.9327 6.86602L14.9337 6.86652ZM11.2667 2.06652C11.2667 1.26652 10.6667 0.666516 9.86667 0.666516C9.06667 0.666516 8.46667 1.26652 8.46667 2.00002C8.46667 2.73352 9.06667 3.40002 9.86667 3.40002C10.6002 3.40002 11.2667 2.80002 11.2667 2.06652ZM3.93367 2.06652C3.93367 1.26652 3.33367 0.666516 2.53367 0.666516C1.80017 0.666516 1.13367 1.26652 1.13367 2.00002C1.13367 2.73352 1.73367 3.40002 2.53367 3.40002C3.26717 3.40002 3.93367 2.80002 3.93367 2.06652ZM3.93367 5.46652C3.93367 4.73302 3.33367 4.06652 2.53367 4.06652C1.73367 4.06652 1.13367 4.73302 1.13367 5.46652C1.13367 6.20002 1.73367 6.86652 2.53367 6.86652C3.26717 6.86652 3.93367 6.26652 3.93367 5.46652Z" fill="black"/>
</svg>
