<svg width="16" height="16" viewBox="0 0 16 16" fill="none" xmlns="http://www.w3.org/2000/svg">
<g clip-path="url(#clip0_6_401)">
<path d="M15.9995 0.00195312H14.2395L8.13949 12.382C7.20899 12.559 6.13899 12.6605 5.04499 12.6605C3.35999 12.6605 1.73099 12.42 0.190488 11.9715L0.312988 12.002C0.114988 12.496 0.000488281 13.069 0.000488281 13.6685C0.000488281 14.268 0.114988 14.841 0.323988 15.3665L0.312988 15.3355C1.76449 15.757 3.43199 15.9995 5.15649 15.9995C6.88099 15.9995 8.54799 15.757 10.127 15.3045L9.99999 15.3355C10.116 14.894 10.183 14.3875 10.183 13.8655C10.183 13.3435 10.1165 12.8365 9.99099 12.354L9.99999 12.3955L15.9995 0.00195312ZM2.66649 14.4685C2.23999 14.402 1.81999 14.3285 1.39999 14.235C1.36049 14.05 1.33649 13.836 1.33349 13.6175V13.615C1.77999 13.7085 2.21999 13.775 2.66699 13.835L2.66649 14.4685ZM5.99949 14.6685C5.71949 14.6685 5.43949 14.6685 5.15949 14.6685C4.77299 14.6685 4.37949 14.6685 3.99299 14.622V14.002C4.35299 14.002 4.71949 14.0355 5.08649 14.0355C5.39299 14.0355 5.69999 14.0355 5.99999 14.0355L5.99949 14.6685ZM8.83299 14.282C8.33299 14.3955 7.83299 14.4755 7.33299 14.542V13.8755C7.83299 13.809 8.33949 13.7355 8.84649 13.629C8.85049 13.6965 8.85249 13.7755 8.85249 13.855C8.85249 13.996 8.84549 14.1355 8.83149 14.273L8.83299 14.2555V14.282Z" fill="black"/>
<path d="M5.49949 9.02195C6.20199 8.61095 6.66649 7.86045 6.66649 7.00095C6.66649 5.71245 5.62199 4.66745 4.33299 4.66745C3.04399 4.66745 1.99949 5.71195 1.99949 7.00095C1.99949 7.43095 2.11599 7.83345 2.31849 8.17945L2.31249 8.16845C2.72349 8.87045 3.47399 9.33445 4.33249 9.33445C4.76199 9.33445 5.16449 9.21845 5.50999 9.01595L5.49949 9.02195Z" fill="black"/>
</g>
<defs>
<clipPath id="clip0_6_401">
<rect width="16" height="16" fill="white"/>
</clipPath>
</defs>
</svg>
