<svg width="16" height="16" viewBox="0 0 16 16" fill="none" xmlns="http://www.w3.org/2000/svg">
<path d="M16 8.52663C15.9975 9.73563 15.0465 10.7216 13.852 10.7796H12.0005C11.9965 8.38913 10.058 6.45313 7.66697 6.45313C5.27397 6.45313 3.33347 8.39313 3.33347 10.7866C3.33347 10.7891 3.33347 10.7911 3.33347 10.7936L2.27347 10.7931C1.05097 10.7556 0.0739746 9.75563 0.0739746 8.52763C0.0739746 7.33213 0.999475 6.35313 2.17297 6.26713L2.18047 6.26663C2.06747 5.92613 2.00197 5.53413 2.00047 5.12713C2.00447 3.10863 3.64147 1.47363 5.66047 1.47363C7.26197 1.47363 8.62297 2.50213 9.11947 3.93413L9.12697 3.95963C9.55347 3.64763 10.0885 3.46013 10.667 3.45963C12.14 3.45963 13.3335 4.65363 13.3335 6.12613C13.335 6.15213 13.336 6.18213 13.336 6.21263C13.336 6.24313 13.335 6.27363 13.3335 6.30363V6.29963C13.4565 6.27263 13.599 6.25563 13.745 6.25313H13.747C14.994 6.26463 16 7.27863 16 8.52663ZM8.62647 8.03363C8.36397 7.95963 8.06297 7.91663 7.75197 7.91663C6.04347 7.91663 4.63548 9.20163 4.44147 10.8576L4.43997 10.8731H3.77347L4.92697 12.4666L6.04697 10.8731H5.45347C5.63047 9.75863 6.58297 8.91613 7.73297 8.91313C7.95447 8.91513 8.16797 8.94663 8.37047 9.00413L8.35347 9.00013C9.33897 9.27963 10.049 10.1716 10.049 11.2296C10.049 12.0286 9.64397 12.7326 9.02847 13.1486L9.02047 13.1536C8.66197 13.3856 8.22398 13.5236 7.75397 13.5236C7.17298 13.5236 6.64097 13.3131 6.23047 12.9641L6.23397 12.9671L5.56747 13.7271C6.14247 14.2321 6.90097 14.5406 7.73197 14.5406C7.73297 14.5406 7.73347 14.5406 7.73447 14.5406C7.73897 14.5406 7.74397 14.5406 7.74897 14.5406C8.42548 14.5406 9.05497 14.3391 9.58047 13.9926L9.56797 14.0001C10.452 13.3916 11.024 12.3856 11.024 11.2456C11.024 9.73863 10.024 8.46513 8.65147 8.05263L8.62797 8.04663L8.62647 8.03363Z" fill="black"/>
</svg>
