<svg width="16" height="16" viewBox="0 0 16 16" fill="none" xmlns="http://www.w3.org/2000/svg">
<g clip-path="url(#clip0_6_231)">
<path d="M3.33398 7.33422C3.33398 7.33772 3.33398 7.34171 3.33398 7.34572C3.33398 8.44822 3.65198 9.47672 4.20098 10.3437L4.18748 10.3207L0.000976562 14.0007L2.00098 16.0007L5.66098 11.8142C6.50648 12.3497 7.53648 12.6677 8.63998 12.6677C8.64948 12.6677 8.65948 12.6677 8.66898 12.6677H8.66748L3.33398 7.33422Z" fill="black"/>
<path d="M14.494 1.50771C12.6675 -0.318785 9.73398 -0.458785 7.26048 0.941215L7.72698 3.20121H9.22698L9.89348 7.73471L8.23998 4.81471L6.49998 5.48122L5.17998 2.66771C4.55548 3.38471 4.05848 4.23221 3.73598 5.16072L3.71998 5.21422L10.7935 12.2607C11.9585 11.8707 12.9545 11.2442 13.767 10.4337C16.4335 7.76721 16.754 3.77421 14.494 1.50771Z" fill="black"/>
</g>
<defs>
<clipPath id="clip0_6_231">
<rect width="16" height="16" fill="white"/>
</clipPath>
</defs>
</svg>
