<svg width="16" height="16" viewBox="0 0 16 16" fill="none" xmlns="http://www.w3.org/2000/svg">
<path d="M7.12977 0C6.64977 0.83 7.01977 1.99 7.71977 2.67H7.73977L5.50977 6.55C4.15977 6.28 2.59977 6.76 1.91977 7.92L1.56977 8.53L4.93977 10.48L3.10977 13.65C1.89977 13.79 1.00977 14.21 1.00977 14.72C1.00977 15.34 2.34977 15.84 3.98977 15.84C5.62977 15.84 6.96977 15.34 6.96977 14.72C6.96977 14.42 6.64977 14.14 6.12977 13.94L5.61977 14.85H4.96977L5.40977 14.07L6.83977 11.59L10.2098 13.54L10.5598 12.93C11.2298 11.76 10.8598 10.17 9.94977 9.14L12.1798 5.27H12.1998C13.1398 5.55 14.3198 5.29 14.7998 4.46L7.12977 0Z" fill="black"/>
</svg>
