<svg width="16" height="16" viewBox="0 0 16 16" fill="none" xmlns="http://www.w3.org/2000/svg">
<g clip-path="url(#clip0_18_46)">
<path d="M9.77833 8.04169C9.77833 7.29615 9.30636 6.65823 8.64458 6.40876V9.67462C9.30636 9.42516 9.77833 8.78724 9.77833 8.04169Z" fill="black"/>
<path d="M13.9323 10.0018H16V6.15288H13.9323V10.0018Z" fill="black"/>
<path d="M8.64458 1V5.14932C9.98603 5.43371 10.9959 6.62259 10.9959 8.04169C10.9959 9.46079 9.98603 10.6497 8.64458 10.9341V14.9994H16V11.2135H12.7148V4.9412H16V1.0114L8.64458 1Z" fill="black"/>
<path d="M2.18657 6.15288H0V10.0018H2.18657V6.15288Z" fill="black"/>
<path d="M6.26893 8.04169C6.26893 8.75089 6.69579 9.36243 7.30743 9.63542V6.44797C6.69579 6.72095 6.26893 7.3325 6.26893 8.04169Z" fill="black"/>
<path d="M0 1.0114L0 4.9412H3.40412V11.2135H0L0 14.9994H7.30743V10.9127C6.01325 10.5927 5.05139 9.42658 5.05139 8.04169C5.05139 6.6568 6.01325 5.49073 7.30743 5.1707V1L0 1.0114Z" fill="black"/>
</g>
<defs>
<clipPath id="clip0_18_46">
<rect width="16" height="16" fill="white"/>
</clipPath>
</defs>
</svg>
