<svg width="16" height="16" viewBox="0 0 16 16" fill="none" xmlns="http://www.w3.org/2000/svg">
<g clip-path="url(#clip0_6_267)">
<path d="M7.126 2.974C7.354 3.108 7.6285 3.187 7.9215 3.187C8.8015 3.187 9.515 2.4735 9.515 1.5935C9.515 0.7135 8.8015 0 7.9215 0C7.3335 0 6.8195 0.319 6.5435 0.793L6.5395 0.8005C6.4065 1.028 6.3285 1.3015 6.3285 1.5935C6.3285 2.1805 6.646 2.6935 7.119 2.97L7.126 2.974Z" fill="black"/>
<path d="M12.666 9.407H11.746L12.4125 8.7805C12.091 8.4385 11.7375 8.1335 11.3545 7.868L11.3325 7.8535L9.9325 8.98C10.1865 9.1105 10.405 9.252 10.6075 9.413L10.5995 9.4065H9.406L7.3325 11.073H12.5325C12.5345 11.073 12.5365 11.073 12.539 11.073C13.3665 11.073 14.1195 10.7535 14.681 10.231L14.679 10.233L15.679 9.293L14.5455 8.0795L13.5055 9.066C13.2855 9.2715 12.991 9.3995 12.667 9.406H12.6655L12.666 9.407Z" fill="black"/>
<path d="M15.9995 12.667H15.673C14.8305 12.7225 14.0675 13.022 13.4425 13.4945L13.453 13.487C13.071 13.8065 12.5745 14.0005 12.033 14.0005C12.0215 14.0005 12.0095 14.0005 11.998 14H12C11.9845 14.0005 11.9665 14.0005 11.948 14.0005C11.4165 14.0005 10.929 13.8115 10.5495 13.497L10.553 13.5C9.9365 13.032 9.172 12.728 8.34 12.6675L8.3265 12.6665H7.68C6.8355 12.721 6.0695 13.0205 5.443 13.494L5.4535 13.4865C5.0735 13.806 4.5785 14 4.038 14C4.0245 14 4.0115 14 3.998 13.9995H4C3.9805 14 3.958 14.0005 3.935 14.0005C3.438 14.0005 2.9815 13.8265 2.623 13.5365L2.627 13.5395L5.7805 11.073L8.827 8.5995L10.3605 7.333L13.6605 4.6665L12.607 3.373L12.0005 3.853H6.4005C6.102 3.6665 5.7395 3.5555 5.3515 3.5555C4.63 3.5555 3.9975 3.9375 3.6455 4.511L3.6405 4.5195L2.267 6.666C2.074 6.968 1.9595 7.3365 1.9595 7.7315C1.9595 8.438 2.326 9.059 2.879 9.4145L2.887 9.4195H0.0005V11.086H1.554L3.594 9.406L4.2605 8.886L6.667 6.946L7.007 6.666V6.6195C7.208 6.317 7.329 5.946 7.3335 5.5475L10 5.5465L8.34 6.88L5.8865 8.8335L3.1265 11.0735L0.9265 12.767C0.752 12.7185 0.5475 12.683 0.337 12.6675L0.3265 12.667H0V14.667C0.0165 14.667 0.0365 14.6665 0.056 14.6665C0.405 14.6665 0.7445 14.708 1.069 14.786L1.0395 14.78C1.6175 14.9315 2.123 15.1795 2.5645 15.5085L2.553 15.5C2.928 15.8115 3.4145 16.0005 3.9455 16.0005C3.9645 16.0005 3.9835 16 4.0025 16H3.9995C4.0135 16.0005 4.03 16.0005 4.0465 16.0005C4.5795 16.0005 5.0685 15.8115 5.4495 15.497L5.4455 15.5C6.128 14.9795 6.9925 14.666 7.9305 14.666C7.9545 14.666 7.9785 14.666 8.0025 14.6665H7.999C8.0205 14.666 8.046 14.666 8.0715 14.666C9.01 14.666 9.8755 14.9795 10.569 15.5075L10.559 15.5C10.935 15.8115 11.422 16.0005 11.9535 16.0005C11.9695 16.0005 11.9855 16.0005 12.0015 16H11.999C12.0115 16.0005 12.0265 16.0005 12.0415 16.0005C12.576 16.0005 13.0665 15.8115 13.4495 15.497L13.4455 15.5C14.124 14.9795 14.9855 14.666 15.9195 14.666C15.9475 14.666 15.975 14.6665 16.003 14.667H15.999L15.9995 12.667Z" fill="black"/>
</g>
<defs>
<clipPath id="clip0_6_267">
<rect width="16" height="16" fill="white"/>
</clipPath>
</defs>
</svg>
