<svg width="16" height="16" viewBox="0 0 16 16" fill="none" xmlns="http://www.w3.org/2000/svg">
<g clip-path="url(#clip0_6_333)">
<path d="M10.7334 13.0267L5.08686 11.1402C4.82186 11.0477 4.63536 10.8002 4.63536 10.5092C4.63536 10.4367 4.64686 10.3672 4.66836 10.3022L4.66686 10.3067L6.73336 4.12023L6.57986 3.80673C6.46686 3.59023 6.24386 3.44523 5.98686 3.44523C5.87986 3.44523 5.77886 3.47023 5.68936 3.51523L5.69336 3.51373L0.359859 6.18023C0.147859 6.29473 0.00585938 6.51523 0.00585938 6.76923C0.00585938 6.87023 0.0283594 6.96573 0.0683594 7.05123L0.0668594 7.04723L4.34686 15.6337C4.45886 15.8532 4.68336 16.0007 4.94236 16.0007C5.04836 16.0007 5.14836 15.9762 5.23736 15.9322L5.23336 15.9337L10.5669 13.2672C10.6734 13.2117 10.7594 13.1297 10.8184 13.0302L10.8199 13.0272L10.7334 13.0267Z" fill="black"/>
<path d="M15.5199 2.00023L9.87336 0.126727C9.81236 0.106227 9.74186 0.0947266 9.66886 0.0947266C9.37986 0.0947266 9.13386 0.278727 9.04136 0.535727L5.99986 9.64023C5.97986 9.70073 5.96836 9.77023 5.96836 9.84273C5.96836 10.1337 6.15486 10.3812 6.41536 10.4722L12.0664 12.3602C12.1274 12.3807 12.1979 12.3922 12.2709 12.3922C12.5599 12.3922 12.8059 12.2082 12.8984 11.9512L15.9399 2.84673C15.9624 2.78273 15.9754 2.70923 15.9754 2.63223C15.9754 2.33973 15.7869 2.09123 15.5249 2.00123L15.5199 2.00023ZM11.5599 5.16673C11.4684 5.40323 11.3224 5.60073 11.1359 5.75123L11.1334 5.75323C10.8669 5.97973 10.2669 6.37323 9.91336 6.61973L10.7934 6.93323C10.8324 6.94973 10.8594 6.98773 10.8594 7.03173C10.8594 7.04423 10.8574 7.05623 10.8534 7.06723L10.6934 7.51273C10.6779 7.55373 10.6389 7.58273 10.5934 7.58273C10.5839 7.58273 10.5749 7.58173 10.5664 7.57923H10.5674L8.56736 6.85923C8.52886 6.84473 8.50186 6.80823 8.50186 6.76523C8.50186 6.75323 8.50386 6.74223 8.50786 6.73173V6.62573C8.94136 6.35223 10.0414 5.60573 10.5079 5.29223C10.6244 5.20773 10.7159 5.09523 10.7724 4.96423L10.7744 4.95923C10.7839 4.92623 10.7889 4.88823 10.7889 4.84923C10.7889 4.64973 10.6499 4.48273 10.4639 4.43973L10.4609 4.43923C10.4029 4.42323 10.3359 4.41423 10.2669 4.41423C10.1244 4.41423 9.99136 4.45323 9.87736 4.52123L9.88086 4.51923C9.86836 4.52473 9.85336 4.52823 9.83786 4.52823C9.79486 4.52823 9.75786 4.50273 9.74086 4.46673L9.56036 3.99973C9.55336 3.98623 9.54936 3.97073 9.54936 3.95373C9.54936 3.91623 9.56986 3.88373 9.59986 3.86673C9.81586 3.74423 10.0749 3.67173 10.3499 3.67173C10.5034 3.67173 10.6514 3.69423 10.7914 3.73573L10.7804 3.73273C11.2679 3.84973 11.6244 4.28173 11.6244 4.79723C11.6244 4.92973 11.6009 5.05623 11.5579 5.17373L11.5599 5.16673ZM12.3999 8.12673C12.3874 8.16473 12.3524 8.19223 12.3109 8.19223C12.2999 8.19223 12.2889 8.19023 12.2794 8.18673L11.7199 7.98673C11.6804 7.97523 11.6524 7.93923 11.6524 7.89723C11.6524 7.88373 11.6554 7.87123 11.6604 7.85973L12.4669 5.60023L12.0004 5.42673C11.9579 5.41723 11.9269 5.38023 11.9269 5.33573C11.9269 5.33473 11.9269 5.33423 11.9269 5.33323L12.0404 5.01973C12.0524 4.99273 12.0709 4.97023 12.0934 4.95323L13.0339 4.63923L13.4939 4.80573C13.5324 4.82023 13.5594 4.85673 13.5594 4.89973C13.5594 4.91173 13.5574 4.92273 13.5534 4.93323L12.3999 8.12673Z" fill="black"/>
</g>
<defs>
<clipPath id="clip0_6_333">
<rect width="16" height="16" fill="white"/>
</clipPath>
</defs>
</svg>
