<svg width="16" height="16" viewBox="0 0 16 16" fill="none" xmlns="http://www.w3.org/2000/svg">
<g clip-path="url(#clip0_6_253)">
<path d="M6.37999 10.435C6.42599 9.907 6.45199 9.293 6.45199 8.6725C6.45199 8.052 6.42599 7.438 6.37449 6.831L6.37999 6.91C6.30849 5.8805 6.17349 4.934 5.97599 4.011L5.99999 4.145C5.71199 2.809 5.33449 1.6435 4.85649 0.5315L4.90499 0.6575C4.87499 0.5875 4.84999 0.57 4.75749 0.61C4.36149 0.7885 4.04149 0.9555 3.73149 1.1375L3.78249 1.11C3.67999 1.165 3.71499 1.2175 3.74749 1.28C4.21649 2.173 4.62199 3.2125 4.90899 4.2995L4.93249 4.405C5.18849 5.3515 5.35549 6.448 5.39649 7.576L5.39749 7.6025C5.40399 7.773 5.40799 7.973 5.40799 8.174C5.40799 9.3325 5.28199 10.462 5.04349 11.549L5.06249 11.4455C4.79199 12.698 4.40599 13.8025 3.90349 14.8395L3.94249 14.7505C3.73999 15.1705 3.50499 15.5805 3.26499 16.0005C3.87249 16.0005 4.45249 16.0005 5.02999 16.0005C5.03499 16.0015 5.04049 16.0015 5.04649 16.0015C5.10349 16.0015 5.15049 15.96 5.15999 15.906C5.65649 14.6385 6.04399 13.158 6.25599 11.6215L6.26749 11.518C6.31749 11.1705 6.34749 10.8025 6.37999 10.435Z" fill="black"/>
<path d="M12.045 14.715C11.55 13.698 11.1505 12.516 10.9055 11.2785L10.89 11.185C10.705 10.281 10.5985 9.242 10.5985 8.178C10.5985 7.608 10.629 7.045 10.6885 6.491L10.6825 6.56C10.764 5.78 10.8915 5.0795 11.067 4.3985L11.045 4.5C11.3555 3.2635 11.774 2.1815 12.3065 1.1685L12.2675 1.25C12.305 1.18 12.2925 1.14 12.215 1.095C11.9615 0.9435 11.6495 0.7805 11.329 0.634L11.265 0.6075C11.16 0.5575 11.13 0.5825 11.095 0.665C10.8725 1.2075 10.6725 1.75 10.5 2.285C9.89549 4.1815 9.54699 6.363 9.54699 8.626C9.54699 8.682 9.54699 8.738 9.54749 8.7935V8.785C9.54749 8.792 9.54749 8.8 9.54749 8.808C9.54749 11.3595 10.02 13.8005 10.8815 16.0485L10.835 15.91C10.865 15.99 10.9075 16.0225 11.02 16.02C11.5367 16.02 12.0542 16.02 12.5725 16.02C12.7 16.02 12.7425 16.02 12.6775 15.9C12.45 15.5 12.235 15.1175 12.045 14.715Z" fill="black"/>
<path d="M15.8775 15.94C15.5885 15.7825 15.3435 15.624 15.1105 15.4505L15.1275 15.4625C14.1975 14.757 13.452 13.8565 12.944 12.8185L12.925 12.775C12.4765 11.898 12.1425 10.88 11.977 9.8065L11.97 9.75C11.8835 9.238 11.8345 8.6485 11.8345 8.0475C11.8345 7.8435 11.84 7.6405 11.8515 7.4395L11.85 7.4675C11.9045 6.568 12.078 5.727 12.355 4.9345L12.335 5C12.673 4.0215 13.1165 3.1725 13.6655 2.4045L13.645 2.435C13.6725 2.3975 13.73 2.3625 13.6725 2.305C13.4865 2.1115 13.292 1.93 13.089 1.7595L13.0775 1.75C13.065 1.75 13.0525 1.75 13.0475 1.7675L13 1.8425C12.1615 3.126 11.5665 4.646 11.3205 6.28L11.3125 6.3425C11.21 6.949 11.151 7.6475 11.151 8.36C11.151 8.7615 11.1695 9.1585 11.206 9.55L11.202 9.5C11.2965 10.5055 11.4995 11.4305 11.802 12.309L11.777 12.225C12.26 13.6485 12.957 14.8795 13.8425 15.9495L13.827 15.93C13.877 15.993 13.9535 16.0325 14.039 16.0325C14.0525 16.0325 14.0655 16.0315 14.0785 16.0295H14.077C14.517 16.0295 14.9545 16.0295 15.3945 16.0295H15.9995C15.9345 15.9745 15.9075 15.955 15.8775 15.94Z" fill="black"/>
<path d="M4.78999 9.6075C4.83599 9.202 4.86199 8.7315 4.86199 8.255C4.86199 7.661 4.82149 7.076 4.74249 6.5035L4.74999 6.57C4.54299 5.049 4.06849 3.675 3.37249 2.4425L3.40249 2.5C3.24199 2.206 3.08799 1.961 2.92099 1.7255L2.93749 1.75C2.71999 1.929 2.52449 2.1085 2.33899 2.2985L2.33749 2.3C2.29499 2.3425 2.31499 2.3725 2.33749 2.4075C2.41249 2.5175 2.48999 2.6275 2.56249 2.7375C3.57299 4.237 4.17599 6.0845 4.17599 8.0725C4.17599 8.483 4.15049 8.888 4.10049 9.285L4.10549 9.2375C4.00049 10.253 3.76299 11.1845 3.40849 12.0555L3.43299 11.9875C2.79299 13.58 1.83049 15 0.000488281 16.0175H2.01799C2.07749 16.0175 2.12899 15.9855 2.15749 15.938C2.29499 15.7605 2.43799 15.585 2.57299 15.4075C2.95549 14.896 3.31049 14.3175 3.61149 13.7075L3.64049 13.6425C4.22799 12.4685 4.63549 11.102 4.78599 9.659L4.78999 9.6075Z" fill="black"/>
<path d="M9.79249 15.8925C9.67599 15.5275 9.57349 15.086 9.50599 14.6335L9.49999 14.585C9.31399 13.426 9.17999 12.0425 9.12699 10.6375L9.12499 10.5725C9.04249 8.8675 9.00749 7.1625 8.99749 5.4575C8.99749 4.4575 9.01249 3.435 9.01999 2.425L9.02999 0.1375C9.02999 0.0575 9.01499 0.0225 8.89999 0.01L7.19249 0C7.00749 0 6.97249 0.065 6.97499 0.205C6.99166 1.47 7.00582 2.735 7.01749 4C7.03249 6.1775 6.99499 8.3525 6.88499 10.5275C6.85249 11.14 6.82499 11.7525 6.77749 12.3675C6.71999 13.095 6.64249 13.825 6.52749 14.55C6.42899 15.1195 6.30949 15.6075 6.15999 16.0825L6.18249 16C6.36249 16 6.52999 16 6.69749 16C6.69899 16 6.70049 16 6.70199 16C6.79199 16 6.86999 15.9475 6.90699 15.8715L6.90749 15.87C6.94699 15.788 6.98649 15.687 7.01999 15.583L7.02499 15.565C7.04249 15.4725 7.08999 15.44 7.19499 15.415C7.49249 15.3805 7.72499 15.142 7.74999 14.845V14.8425C7.74999 14.69 7.74999 14.5375 7.74999 14.385C7.74999 14.3575 7.73499 14.32 7.76749 14.2975C7.46949 14.2555 7.22449 14.064 7.10699 13.803L7.10499 13.7975H6.94499C6.93949 13.7985 6.93299 13.799 6.92599 13.799C6.86199 13.799 6.80949 13.752 6.79999 13.691V13.543C6.80949 13.481 6.86249 13.434 6.92599 13.434C6.93249 13.434 6.93899 13.4345 6.94549 13.4355H7.08999C7.21899 13.0975 7.53999 12.8615 7.91699 12.8615C7.94649 12.8615 7.97549 12.863 8.00399 12.8655L8.00049 12.865C8.01899 12.8635 8.04049 12.863 8.06249 12.863C8.44299 12.863 8.76749 13.104 8.89099 13.4415L8.89299 13.4475H9.03799C9.04349 13.4465 9.04999 13.446 9.05699 13.446C9.12099 13.446 9.17349 13.493 9.18299 13.554V13.702C9.17349 13.764 9.12049 13.811 9.05699 13.811C9.05049 13.811 9.04399 13.8105 9.03749 13.8095H8.87799C8.75999 14.0735 8.51899 14.2635 8.23049 14.309L8.22549 14.3095C8.24799 14.332 8.22549 14.3595 8.22549 14.387C8.22549 14.5245 8.22549 14.6645 8.22549 14.8045C8.22549 15.137 8.41799 15.337 8.81299 15.442C8.89799 15.467 8.95549 15.487 8.96549 15.5745C9.00049 15.697 9.04249 15.8025 9.09299 15.9025L9.08799 15.892C9.13149 15.969 9.21299 16.02 9.30599 16.02C9.31099 16.02 9.31599 16.02 9.32099 16.0195C9.37349 16.0165 9.43499 16.015 9.49649 16.015C9.55799 16.015 9.61999 16.0165 9.68099 16.02L9.67249 16.0195C9.81249 16.0145 9.81999 15.98 9.79249 15.8925Z" fill="black"/>
</g>
<defs>
<clipPath id="clip0_6_253">
<rect width="16" height="16" fill="white"/>
</clipPath>
</defs>
</svg>
