<svg width="16" height="16" viewBox="0 0 16 16" fill="none" xmlns="http://www.w3.org/2000/svg">
<path d="M10.1832 3.4935C9.79203 3.29793 9.30754 3.17348 8.72972 3.12014V1.69336H7.46295V3.12014C7.06292 3.16459 6.68067 3.24904 6.31619 3.37349C5.95172 3.49795 5.63169 3.6713 5.35612 3.89354C5.08943 4.10689 4.87163 4.37357 4.70273 4.6936C4.54272 5.00474 4.46271 5.36921 4.46271 5.78702C4.46271 6.26706 4.55161 6.66709 4.7294 6.98712C4.90719 7.30714 5.14277 7.58272 5.43612 7.81385C5.73837 8.04498 6.08506 8.245 6.47621 8.4139C6.87624 8.5828 7.2896 8.7517 7.71631 8.92061C8.20523 9.11618 8.56082 9.28953 8.78306 9.44065C9.01419 9.58288 9.12975 9.7829 9.12975 10.0407C9.12975 10.2896 9.0453 10.4852 8.8764 10.6274C8.71639 10.7696 8.49415 10.8408 8.20968 10.8408C7.85409 10.8408 7.56963 10.7296 7.35628 10.5074C7.14293 10.2763 7.03625 9.94736 7.03625 9.52066H4.2627C4.2627 10.5163 4.54716 11.303 5.1161 11.8808C5.68503 12.4498 6.46732 12.7876 7.46295 12.8943V14.3077H8.72972V12.8943C9.73425 12.7965 10.5165 12.4898 11.0766 11.9742C11.6366 11.4586 11.9166 10.7563 11.9166 9.86735C11.9166 9.38731 11.8144 8.98283 11.61 8.65392C11.4144 8.31611 11.1521 8.03165 10.8232 7.80052C10.5032 7.56939 10.1387 7.37382 9.7298 7.2138C9.32977 7.05379 8.92974 6.90267 8.5297 6.76043C8.103 6.60931 7.78298 6.45374 7.56963 6.29373C7.35628 6.13372 7.2496 5.9337 7.2496 5.69368C7.2496 5.43588 7.33405 5.2492 7.50296 5.13364C7.67186 5.01807 7.87187 4.96029 8.103 4.96029C8.71639 4.96029 9.02308 5.34699 9.02308 6.12038H11.7966C11.7966 5.78258 11.7433 5.44922 11.6366 5.1203C11.5388 4.7825 11.3699 4.4758 11.1299 4.20023C10.8899 3.91576 10.5743 3.68019 10.1832 3.4935Z" fill="black"/>
</svg>
