<svg width="16" height="16" viewBox="0 0 16 16" fill="none" xmlns="http://www.w3.org/2000/svg">
<path d="M15.4575 3.06485C14.7495 3.53135 13.8815 3.80935 12.9485 3.80935C12.7905 3.80935 12.6345 3.80135 12.4805 3.78585L12.5 3.78735C11.5775 3.73235 10.65 3.77485 9.725 3.78735C8.585 3.78735 8.145 4.09735 7.76 5.18985C7.3575 6.32735 6.965 7.46735 6.5675 8.60485C6.5075 8.76985 6.435 8.92985 6.35 9.14235C5.88 8.69485 5.46 8.31735 5.0675 7.90985C4.8975 7.73235 4.5525 7.63735 4.7425 7.23735C4.9325 6.83735 5.1075 6.61235 5.58 6.68985C5.716 6.70835 5.873 6.71885 6.0325 6.71885C6.192 6.71885 6.349 6.70835 6.503 6.68785L6.485 6.68985C6.625 6.67635 6.745 6.60085 6.819 6.49135L6.82 6.48985C7.025 5.98985 7.1975 5.47735 7.405 4.90235C5.4375 4.90235 3.5525 4.92735 1.67 4.90235C1.1 4.90235 0.645 5.00985 0.33 5.35485C0.125 5.58485 0 5.88985 0 6.22435C0 6.22535 0 6.22635 0 6.22785V8.05535C0.1945 7.90185 0.3685 7.74635 0.532 7.58085C1.102 6.92585 1.155 6.91785 1.7625 7.52285C3.51583 9.26785 5.26667 11.0104 7.015 12.7504C7.155 12.8904 7.305 13.0154 7.4975 13.1929C7.965 11.8329 8.4125 10.5579 8.835 9.27285C8.8765 9.02385 9.0905 8.83585 9.3485 8.83585C9.378 8.83585 9.4075 8.83835 9.4355 8.84335L9.4325 8.84285C10.2825 8.87035 11.1325 8.86535 11.98 8.84285C11.9805 8.84285 11.9815 8.84285 11.9825 8.84285C12.1625 8.84285 12.3235 8.76035 12.429 8.63135L12.43 8.63035C12.66 8.13035 12.8375 7.59285 13.0775 6.96285H9.62C9.7675 6.55035 9.8825 6.23535 10.005 5.89285C11.3275 5.89285 12.63 5.89285 13.93 5.89285C14.095 5.89285 14.3475 5.84035 14.4125 5.72785C14.9375 4.80535 15.4275 3.86535 16 2.79785C15.7835 2.88935 15.605 2.97885 15.433 3.07835L15.4575 3.06485Z" fill="black"/>
</svg>
