<svg width="16" height="16" viewBox="0 0 16 16" fill="none" xmlns="http://www.w3.org/2000/svg">
<path d="M1.25 11.5H14.75C15.4405 11.5 16 12.0595 16 12.75C16 13.4405 15.4405 14 14.75 14H1.25C0.5595 14 0 13.4405 0 12.75C0 12.0595 0.5595 11.5 1.25 11.5Z" fill="black"/>
<path d="M1.25 6.75H14.75C15.4405 6.75 16 7.3095 16 8C16 8.6905 15.4405 9.25 14.75 9.25H1.25C0.5595 9.25 0 8.6905 0 8C0 7.3095 0.5595 6.75 1.25 6.75Z" fill="black"/>
<path d="M7 2H14.75C15.4405 2 16 2.5595 16 3.25C16 3.9405 15.4405 4.5 14.75 4.5H7C6.3095 4.5 5.75 3.9405 5.75 3.25C5.75 2.5595 6.3095 2 7 2Z" fill="black"/>
<path d="M1.25 2H3C3.6905 2 4.25 2.5595 4.25 3.25C4.25 3.9405 3.6905 4.5 3 4.5H1.25C0.5595 4.5 0 3.9405 0 3.25C0 2.5595 0.5595 2 1.25 2Z" fill="black"/>
</svg>
