<svg width="16" height="16" viewBox="0 0 16 16" fill="none" xmlns="http://www.w3.org/2000/svg">
<g clip-path="url(#clip0_6_275)">
<path d="M7.945 15.9995C7.8225 15.3245 7.7225 14.642 7.57 13.9745C7.4365 13.3355 7.36 12.601 7.36 11.8485C7.36 11.6475 7.3655 11.4475 7.3765 11.249L7.3755 11.2765C7.3755 11.099 7.3355 11.0265 7.148 11.0015C4.3365 10.57 2.2085 8.16852 2.2085 5.27002C2.2085 2.99602 3.518 1.02802 5.4245 0.0790234L5.458 0.0640234C5.508 0.0415234 5.5605 0.0290234 5.613 0.00902344C5.7105 0.196523 5.5805 0.259023 5.4605 0.331523C4.355 0.990523 3.544 2.04602 3.218 3.29752L3.2105 3.33152C2.7305 5.14152 3.2855 6.67902 4.523 8.00902C5.1905 8.74552 6.0725 9.27602 7.07 9.50252L7.103 9.50902C7.158 9.52236 7.213 9.53236 7.268 9.53902C7.2825 9.54002 7.2995 9.54102 7.317 9.54102C7.3345 9.54102 7.351 9.54052 7.368 9.53902H7.366C7.366 9.45652 7.366 9.37152 7.366 9.28902V7.81902C7.366 7.39652 7.2585 7.26902 6.866 7.17402C6.751 7.13502 6.6525 7.09102 6.559 7.03952L6.5685 7.04402C6.665 7.00202 6.777 6.97052 6.8945 6.95452L6.901 6.95402C7.671 6.95402 8.4385 6.95402 9.2085 6.95402C9.3025 6.97102 9.386 6.99852 9.464 7.03652L9.4585 7.03402C9.398 7.08602 9.3275 7.12902 9.251 7.15952L9.246 7.16152C8.746 7.25402 8.646 7.37652 8.646 7.87902V9.53902C8.7735 9.52152 8.866 9.51402 8.9585 9.49402C10.9935 9.07552 12.562 7.47452 12.9265 5.45452L12.931 5.42402C12.9745 5.17702 12.9995 4.89252 12.9995 4.60202C12.9995 2.79002 12.026 1.20502 10.5735 0.341523L10.5505 0.329023C10.4305 0.259023 10.3005 0.196523 10.398 -0.000976562C10.8875 0.208523 11.3085 0.477523 11.678 0.803523L11.673 0.799023C13.4655 2.36152 14.133 4.33152 13.6105 6.63402C13.1105 8.88402 11.6505 10.2815 9.4305 10.884C9.223 10.939 9.0055 10.954 8.798 11.014C8.721 11.0435 8.663 11.108 8.6435 11.1875L8.643 11.189C8.628 11.459 8.628 11.734 8.643 12.004C8.693 13.379 8.193 14.6615 8.023 16.004L7.945 15.9995Z" fill="black"/>
</g>
<defs>
<clipPath id="clip0_6_275">
<rect width="16" height="16" fill="white"/>
</clipPath>
</defs>
</svg>
