<svg width="16" height="16" viewBox="0 0 16 16" fill="none" xmlns="http://www.w3.org/2000/svg">
<g clip-path="url(#clip0_6_352)">
<path d="M8 0C3.5815 0 0 3.5815 0 8C0 12.4185 3.5815 16 8 16C12.4185 16 16 12.4185 16 8C16 3.5815 12.4185 0 8 0ZM9.31 12.92H6.69V7.67H9.31V12.92ZM8 6.14C7.155 6.14 6.47 5.455 6.47 4.61C6.47 3.765 7.155 3.08 8 3.08C8.845 3.08 9.53 3.765 9.53 4.61C9.53 4.613 9.53 4.6165 9.53 4.62C9.53 5.4595 8.8495 6.14 8.01 6.14C8.0065 6.14 8.0035 6.14 8 6.14Z" fill="black"/>
</g>
<defs>
<clipPath id="clip0_6_352">
<rect width="16" height="16" fill="white"/>
</clipPath>
</defs>
</svg>
