<svg width="16" height="16" viewBox="0 0 16 16" fill="none" xmlns="http://www.w3.org/2000/svg">
<g clip-path="url(#clip0_6_274)">
<path d="M15.9999 7.99952C15.8769 8.11452 15.8004 8.27752 15.8004 8.45852C15.8004 8.52052 15.8094 8.58002 15.8259 8.63652L15.8249 8.63202C15.8319 8.66152 15.8359 8.69552 15.8359 8.73052C15.8359 8.86152 15.7799 8.97952 15.6904 9.06202C15.4984 9.25702 15.2689 9.41552 15.0139 9.52452L14.9999 9.53002C14.5399 9.75502 14.0824 9.98502 13.6349 10.235C13.4114 10.341 13.2304 10.5055 13.1079 10.7095L13.1049 10.715C13.1049 10.735 13.0474 10.7475 13.0224 10.74C12.9269 10.719 12.8434 10.6915 12.7639 10.6565L12.7724 10.66C12.7099 10.63 12.6249 10.5975 12.5974 10.5425C12.4604 10.29 12.2754 10.08 12.0529 9.91852L12.0474 9.91502C11.9399 9.83252 11.8224 9.76252 11.7149 9.68002C11.5639 9.55902 11.3704 9.48552 11.1594 9.48552C11.1029 9.48552 11.0479 9.49102 10.9939 9.50102L10.9994 9.50002C10.9329 9.51452 10.8779 9.55352 10.8424 9.60652L10.8419 9.60752C10.4469 10.31 10.0594 11.02 9.66689 11.725C9.30856 12.3667 8.94856 13.0092 8.58689 13.6525C8.50939 13.79 8.43439 13.93 8.33689 14.0625C8.29289 14.1635 8.19439 14.2325 8.07939 14.2325C7.96439 14.2325 7.86589 14.1635 7.82239 14.0645L7.82189 14.0625C7.61439 13.7325 7.42939 13.3875 7.23939 13.0475L5.77189 10.4225C5.61939 10.15 5.46939 9.87752 5.31939 9.60502C5.29689 9.56252 5.26939 9.52502 5.22689 9.45752C5.14189 9.57002 5.06189 9.66002 4.99439 9.76002C4.92689 9.86002 4.80189 10.01 4.60689 9.96002C4.52439 9.94502 4.42939 10.0125 4.33939 10.0425C4.29189 10.0575 4.23939 10.0925 4.19939 10.08C4.08839 10.0525 3.96039 10.037 3.82939 10.037C3.54539 10.037 3.27839 10.1105 3.04639 10.239L3.05439 10.235C2.90689 10.355 2.80439 10.325 2.62689 10.235C2.43739 10.1275 2.27389 10.009 2.12439 9.87502L2.12689 9.87752C2.02139 9.76502 1.92439 9.64152 1.83839 9.51052L1.83189 9.50002L1.44939 10.02C1.60139 9.63802 1.82689 9.31352 2.11039 9.05152L2.11189 9.05002C1.97439 8.94502 1.86189 8.83752 1.71439 8.75002C1.63939 8.70252 1.53439 8.80002 1.55939 8.89502C1.58439 8.99002 1.63939 9.10752 1.67189 9.21752C1.67489 9.23552 1.67639 9.25652 1.67639 9.27752C1.67639 9.29852 1.67489 9.31952 1.67139 9.33952L1.67189 9.33752C1.63289 9.32802 1.59889 9.31552 1.56689 9.29902L1.56939 9.30002C1.47689 9.22952 1.37239 9.16002 1.26389 9.09752L1.24939 9.09002C1.01389 8.95002 0.828395 8.74902 0.710395 8.50802L0.706895 8.50002C0.661895 8.42552 0.598395 8.36652 0.521895 8.32852L0.519395 8.32752C0.295395 8.22702 0.119895 8.05152 0.0218945 7.83352L0.0193945 7.82752C0.00989453 7.79952 0.00439453 7.76752 0.00439453 7.73452C0.00439453 7.67652 0.0213945 7.62202 0.0503945 7.57652L0.0498945 7.57752C0.255895 7.21252 0.564895 6.92652 0.937895 6.75502L0.949895 6.75002C1.35239 6.58752 1.75239 6.41752 2.15239 6.25002L2.21989 6.21752L2.14239 6.00002C2.13089 5.97602 2.12439 5.94752 2.12439 5.91752C2.12439 5.84702 2.16139 5.78552 2.21639 5.75052L2.21739 5.75002C2.30789 5.67652 2.40889 5.60302 2.51389 5.53552L2.52739 5.52752C2.60389 5.49252 2.69289 5.46202 2.78589 5.44152L2.79489 5.44002L2.96739 5.39252C2.86489 5.23502 2.78489 5.09002 2.68489 4.96252C2.46489 4.69252 2.24989 4.42002 1.99989 4.16252C1.87939 4.05002 1.74889 3.94402 1.61139 3.84752L1.59989 3.84002C1.43589 3.71152 1.33139 3.51352 1.33139 3.29102C1.33139 3.27652 1.33189 3.26202 1.33289 3.24802V3.25002C1.34089 3.13802 1.34539 3.00702 1.34539 2.87502C1.34539 2.74302 1.34089 2.61202 1.33189 2.48252L1.33289 2.50002C1.34639 2.09152 1.67439 1.76352 2.08189 1.75002H2.08339C2.96339 1.77002 3.85089 1.75002 4.75089 1.75002H6.12089C6.12589 1.75002 6.13189 1.75002 6.13739 1.75002C6.51189 1.75002 6.82439 2.01652 6.89489 2.37052L6.89589 2.37552C6.99489 2.64002 7.10539 2.86602 7.23389 3.07952L7.22339 3.06052C7.44839 3.47802 7.68089 3.89052 7.91339 4.31052C8.02839 4.51302 8.12339 4.51552 8.23589 4.31052C8.55339 3.74802 8.86589 3.18302 9.17839 2.62052C9.21289 2.55552 9.23839 2.47952 9.25039 2.39952L9.25089 2.39552C9.29489 2.17202 9.42539 1.98502 9.60539 1.86752L9.60839 1.86552C9.67339 1.82302 9.74989 1.79102 9.83139 1.77402L9.83589 1.77302C9.89439 1.75852 9.96139 1.75002 10.0304 1.75002C10.0384 1.75002 10.0464 1.75002 10.0544 1.75052C11.3844 1.75052 12.7134 1.75052 14.0534 1.75052C14.0674 1.74952 14.0839 1.74902 14.1004 1.74902C14.3469 1.74902 14.5649 1.87102 14.6969 2.05802L14.6984 2.06052C14.7664 2.15002 14.8124 2.26002 14.8254 2.38002L14.8259 2.38302C14.8434 2.70302 14.8259 3.02302 14.8259 3.34302C14.8259 3.66302 14.5934 3.80802 14.3834 3.97552C14.2234 4.10052 14.0709 4.22552 13.9134 4.36552L13.9359 4.41552C14.2009 4.40302 14.4659 4.39302 14.7284 4.37802L15.6484 4.31552C15.7209 4.31552 15.7784 4.31552 15.8034 4.39802C15.8534 4.57552 15.9059 4.75052 15.9609 4.92552C15.9689 4.95252 15.9734 4.98352 15.9734 5.01552C15.9734 5.09202 15.9469 5.16302 15.9029 5.21852C15.6944 5.50652 15.3864 5.71052 15.0299 5.78152L15.0209 5.78302C14.8434 5.83302 14.6809 5.93552 14.5059 6.00302C14.3029 6.05702 14.1319 6.17102 14.0074 6.32402L14.0059 6.32552C14.1289 6.38702 14.2344 6.45452 14.3324 6.53102L14.3284 6.52802C14.4409 6.63552 14.3459 6.75552 14.3009 6.86552C14.3009 6.87802 14.3184 6.89552 14.3284 6.89552C14.6449 6.96152 14.9254 7.07752 15.1764 7.23652L15.1659 7.23052C15.3884 7.33552 15.6009 7.45552 15.8259 7.55802C15.9434 7.61302 16.0159 7.68052 15.9884 7.82302C15.9884 7.82302 15.9884 7.98802 16.0084 7.99552L15.9999 7.99952ZM10.4099 9.04952C10.4904 9.12052 10.5584 9.20302 10.6124 9.29502L10.6149 9.29952C10.6449 9.39402 10.7319 9.46152 10.8344 9.46152C10.8539 9.46152 10.8729 9.45902 10.8914 9.45452L10.8899 9.45502C10.9479 9.44552 11.0149 9.44002 11.0829 9.44002C11.3744 9.44002 11.6424 9.54002 11.8549 9.70702L11.8524 9.70502C12.1849 9.91652 12.4554 10.197 12.6489 10.5285L12.6549 10.54C12.6749 10.58 12.7549 10.6 12.8099 10.6175C12.8649 10.635 12.9774 10.655 13.0599 10.675C13.1859 10.469 13.3649 10.3065 13.5774 10.203L13.5849 10.2C14.0274 9.95002 14.4824 9.72502 14.9399 9.50002C15.2274 9.38202 15.4714 9.21252 15.6714 9.00102L15.6724 9.00002C15.7369 8.93402 15.7764 8.84352 15.7764 8.74352C15.7764 8.71452 15.7729 8.68652 15.7669 8.66002L15.7674 8.66252C15.7554 8.61002 15.7484 8.55002 15.7484 8.48802C15.7484 8.37902 15.7699 8.27452 15.8094 8.18002L15.8074 8.18552C15.8464 8.08452 15.8849 7.95852 15.9154 7.82952L15.9199 7.80802C15.9259 7.79402 15.9289 7.77752 15.9289 7.76052C15.9289 7.70302 15.8904 7.65402 15.8379 7.63852H15.8369C15.2919 7.40602 14.8119 7.02602 14.1969 6.93102C14.2194 6.88102 14.2394 6.83352 14.2619 6.78852C14.3444 6.62352 14.3119 6.53852 14.1419 6.47352L13.8919 6.36102V6.30602C14.0519 6.20852 14.2069 6.09602 14.3744 6.01102C14.5514 5.91452 14.7584 5.82652 14.9739 5.75802L14.9994 5.75102C15.3694 5.68002 15.6794 5.46402 15.8739 5.16602L15.8769 5.16102C15.8984 5.12502 15.9109 5.08152 15.9109 5.03502C15.9109 5.02502 15.9104 5.01502 15.9089 5.00502C15.8664 4.83252 15.8039 4.66352 15.7614 4.49102C15.7414 4.39852 15.7014 4.37352 15.6089 4.38102C15.1664 4.41352 14.7239 4.45102 14.2814 4.47102C14.2789 4.47102 14.2759 4.47102 14.2724 4.47102C14.0729 4.47102 13.8819 4.50602 13.7044 4.56952L13.7159 4.56602C13.4954 4.65652 13.2404 4.71752 12.9734 4.73552L12.9659 4.73602C11.9509 4.80102 10.9359 4.87602 9.92089 4.95352C9.91039 4.95602 9.89789 4.95702 9.88539 4.95702C9.81289 4.95702 9.75039 4.91252 9.72389 4.84952L9.72339 4.84852C9.68089 4.76102 9.61339 4.68852 9.56589 4.59852C9.53339 4.54052 9.47189 4.50252 9.40189 4.50252C9.39439 4.50252 9.38689 4.50302 9.37989 4.50402C9.37939 4.50402 9.38039 4.50402 9.37989 4.50402C8.38439 4.50402 7.40089 4.55602 6.43239 4.65652L6.55339 4.64652C6.51339 4.64452 6.47589 4.63652 6.44089 4.62302L6.44339 4.62402C6.35539 4.58652 6.25339 4.56152 6.14639 4.55402H6.14339C5.69839 4.60402 5.25589 4.66152 4.81589 4.73402C4.65539 4.77202 4.51539 4.82152 4.38289 4.88452L4.39589 4.87902C3.92839 5.06902 3.46339 5.26652 2.99589 5.44902C2.85339 5.50652 2.69089 5.51652 2.55089 5.57902C2.43639 5.64552 2.33739 5.71752 2.24639 5.79802L2.24839 5.79652C2.20389 5.82102 2.17389 5.86802 2.17389 5.92152C2.17389 5.94602 2.18039 5.96952 2.19139 5.98952L2.19089 5.98852C2.22589 6.07352 2.25839 6.15852 2.29589 6.23852C2.27389 6.25052 2.24639 6.26302 2.21889 6.27402L2.21339 6.27602C1.79589 6.45102 1.38089 6.62852 0.963395 6.79602C0.590895 6.96052 0.289395 7.23002 0.0908945 7.56702L0.0858945 7.57602C0.0613945 7.61402 0.0463945 7.66052 0.0463945 7.71052C0.0463945 7.73452 0.0498945 7.75802 0.0563945 7.78002L0.0558945 7.77802C0.150395 7.99752 0.315895 8.17202 0.522895 8.27552L0.528395 8.27802C0.628895 8.33002 0.708895 8.41002 0.759395 8.50752L0.760895 8.51052C0.969895 8.84252 1.26889 9.10102 1.62339 9.25552L1.63589 9.26052C1.59589 9.15302 1.55339 9.04802 1.51589 8.94052C1.50239 8.91852 1.49489 8.89152 1.49489 8.86302C1.49489 8.80502 1.52739 8.75452 1.57539 8.72852L1.57639 8.72802C1.60389 8.70452 1.63939 8.69002 1.67889 8.69002C1.72539 8.69002 1.76739 8.71052 1.79639 8.74252C1.86639 8.80252 1.95389 8.84502 2.01639 8.91002C2.07889 8.97502 2.19639 9.03752 2.29889 8.93252L2.32139 8.94752L2.18639 9.10752C2.13889 9.16502 2.09639 9.22752 2.04389 9.28002C1.85139 9.47002 1.94389 9.65252 2.10139 9.81252C2.28239 9.97702 2.48589 10.1225 2.70489 10.242L2.72139 10.25C2.75089 10.274 2.78889 10.2885 2.83039 10.2885C2.87189 10.2885 2.90989 10.274 2.93939 10.2495C3.18939 10.0875 3.49489 9.99102 3.82339 9.99102C3.95289 9.99102 4.07889 10.006 4.19989 10.0345L4.18889 10.0325C4.19589 10.034 4.20439 10.0345 4.21289 10.0345C4.24239 10.0345 4.26939 10.0255 4.29189 10.0095C4.37589 9.94352 4.48239 9.90452 4.59889 9.90452C4.62539 9.90452 4.65139 9.90652 4.67689 9.91052L4.67389 9.91002C4.67439 9.91002 4.67439 9.91002 4.67489 9.91002C4.73839 9.91002 4.79739 9.88952 4.84489 9.85452L4.84389 9.85502C4.88639 9.81752 4.92189 9.77352 4.94989 9.72502L4.95139 9.72252L5.33889 9.20252C5.46139 9.28752 5.58889 9.35502 5.67639 9.45252C5.72139 9.49652 5.78339 9.52402 5.85139 9.52402C5.91939 9.52402 5.98139 9.49652 6.02639 9.45252C6.23289 9.31002 6.48039 9.21152 6.74789 9.17602L6.75639 9.17502C6.87639 9.17502 6.93389 9.19252 6.97139 9.30002C7.00889 9.40752 7.05139 9.48002 7.10139 9.59002C7.12089 9.56402 7.13689 9.53452 7.14839 9.50252L7.14889 9.50002C7.18239 9.31202 7.33839 9.16902 7.52989 9.15502H7.53139C7.65839 9.14252 7.76539 9.06752 7.82289 8.96202L7.82389 8.96002L7.91389 8.80002L7.96639 8.84752L8.03389 8.93752C8.13639 8.89152 8.25839 8.85052 8.38439 8.82052L8.39889 8.81752C8.72389 8.77502 9.05139 8.75002 9.37889 8.72002C9.39339 8.71802 9.41039 8.71702 9.42739 8.71702C9.62839 8.71702 9.79289 8.87202 9.80889 9.06902V9.07052C9.80889 9.13552 9.83389 9.18802 9.91389 9.16802C10.0739 9.13802 10.2314 9.09552 10.4089 9.05052L10.4099 9.04952ZM13.7874 2.57452H11.4999C11.4499 2.57452 11.3874 2.55202 11.3724 2.64452C11.3594 2.72602 11.3329 2.79902 11.2959 2.86552L11.2974 2.86202C11.0324 3.34452 10.7649 3.82202 10.4974 4.30202C10.3999 4.47952 10.3049 4.65952 10.1974 4.85452C10.2599 4.85452 10.2974 4.85452 10.3349 4.85452C11.0349 4.80452 11.7374 4.75202 12.4374 4.70702C12.5314 4.70602 12.6124 4.65302 12.6544 4.57602L12.6549 4.57452C12.9574 4.07302 13.3209 3.64502 13.7429 3.28302L13.7499 3.27702C13.7754 3.25552 13.7924 3.22502 13.7949 3.19002C13.7899 3.00002 13.7874 2.79452 13.7874 2.57452ZM7.01489 4.55702C7.00189 4.51902 6.98739 4.48702 6.97089 4.45602L6.97239 4.45952L6.15489 2.99952C6.0964 2.91902 6.05089 2.82452 6.02389 2.72302L6.02239 2.71702C6.00989 2.59952 5.96739 2.58702 5.86739 2.58702H3.61739C3.63039 2.67152 3.65089 2.74702 3.67989 2.81902L3.67739 2.81202C4.00739 3.41452 4.34489 4.01702 4.67739 4.61952C4.69289 4.66102 4.73239 4.69002 4.77839 4.69002C4.79039 4.69002 4.80239 4.68802 4.81339 4.68402C5.16839 4.62652 5.52239 4.57152 5.87739 4.52152C5.94039 4.50452 6.01289 4.49502 6.08789 4.49502C6.23139 4.49502 6.36639 4.53102 6.48439 4.59402L6.47989 4.59202C6.49339 4.59552 6.50889 4.59802 6.52489 4.59802C6.54089 4.59802 6.55639 4.59602 6.57089 4.59202L6.56989 4.59252L7.01489 4.55702ZM8.64739 11.7295L10.0424 9.21702C9.79239 9.23202 9.79239 9.21702 9.76239 9.08202C9.74289 8.90652 9.59589 8.77152 9.41689 8.77152C9.40989 8.77152 9.40339 8.77152 9.39639 8.77202H9.39739C9.25239 8.77202 9.10739 8.77202 8.96239 8.79952C8.65189 8.80552 8.35789 8.87002 8.08939 8.98302L8.10489 8.97702C8.06239 8.99952 7.99489 8.97702 7.91989 8.96202C7.80739 9.16702 7.68739 9.38702 7.56239 9.60202C7.54339 9.62852 7.53239 9.66152 7.53239 9.69702C7.53239 9.73252 7.54389 9.76552 7.56289 9.79252C7.79789 10.21 8.02489 10.627 8.25739 11.042L8.64739 11.7295ZM8.07489 12.7495C8.23489 12.4645 8.37489 12.202 8.52489 11.947C8.54489 11.919 8.55639 11.8835 8.55639 11.8455C8.55639 11.8075 8.54439 11.7725 8.52439 11.7435L7.30489 9.54652C7.28739 9.51402 7.26239 9.48652 7.23239 9.44152C7.22089 9.47652 7.20889 9.50552 7.19539 9.53352L7.19739 9.52902C7.17489 9.56402 7.14989 9.59402 7.12489 9.62652C7.09439 9.60052 7.06789 9.57052 7.04589 9.53802L7.04489 9.53652C7.00239 9.45402 6.96989 9.36652 6.92489 9.28652C6.9054 9.25102 6.87289 9.22452 6.83339 9.21402C6.60489 9.21802 6.39239 9.28852 6.21589 9.40652L6.21989 9.40402C6.83489 10.524 7.44739 11.6295 8.07489 12.7495ZM3.47239 2.57702C3.13989 2.57702 2.78489 2.57702 2.43239 2.57702C2.40739 2.57702 2.36489 2.63952 2.36489 2.67452C2.36489 2.83702 2.36489 2.99952 2.36489 3.16202C2.37089 3.20952 2.39089 3.25152 2.41989 3.28452C2.64289 3.50102 2.85239 3.72602 3.05089 3.96052L3.06239 3.97452C3.31239 4.29702 3.51989 4.64952 3.74989 4.98702C3.77489 5.02202 3.83739 5.07202 3.85989 5.06452C4.10989 4.95702 4.35989 4.83952 4.60989 4.71952L4.55739 4.61452C4.23989 4.03952 3.91739 3.46702 3.60239 2.88952C3.56039 2.80652 3.51639 2.70302 3.47889 2.59702L3.47239 2.57702ZM7.90989 4.46452C7.88489 4.41202 7.86239 4.36702 7.83989 4.32702C7.51239 3.73702 7.18239 3.14702 6.85489 2.55452C6.82839 2.51102 6.81239 2.45852 6.81239 2.40252C6.81239 2.40052 6.81239 2.39852 6.81239 2.39652C6.81439 2.38352 6.81539 2.36902 6.81539 2.35402C6.81539 2.24952 6.76539 2.15652 6.68839 2.09752L6.68739 2.09702C6.62739 2.04952 6.58739 1.97952 6.52489 1.94202C6.45539 1.88852 6.37039 1.85152 6.27789 1.83752L6.27489 1.83702C4.92239 1.83702 3.56989 1.83702 2.21739 1.83702C2.18439 1.83202 2.14689 1.82902 2.10789 1.82902C1.87339 1.82902 1.66339 1.93452 1.52339 2.10052L1.52239 2.10152C1.45139 2.17752 1.40739 2.27902 1.40489 2.39102C1.40489 2.72102 1.40489 3.05152 1.40489 3.37902C1.40439 3.38652 1.40389 3.39502 1.40389 3.40352C1.40389 3.50552 1.45089 3.59652 1.52439 3.65602C1.70689 3.80352 1.89989 3.94402 2.06989 4.10652C2.40789 4.44052 2.70389 4.81502 2.95039 5.22352L2.96489 5.24902C3.05489 5.39152 3.06489 5.39402 3.23489 5.29402C3.09489 5.08402 2.95989 4.86652 2.80989 4.66402C2.55789 4.28052 2.24589 3.95902 1.88339 3.70402L1.87239 3.69652C1.71539 3.62952 1.60739 3.47602 1.60739 3.29752C1.60739 3.29602 1.60739 3.29502 1.60739 3.29352C1.62739 3.00852 1.60739 2.72102 1.60739 2.43602C1.62439 2.21502 1.80439 2.04102 2.02689 2.03352H6.22739C6.26989 2.03352 6.32739 2.03352 6.35239 2.05852C6.47239 2.17852 6.64489 2.26352 6.60239 2.48102C6.60639 2.53652 6.62539 2.58702 6.65539 2.62952L6.65489 2.62852C6.9749 3.20602 7.30239 3.78352 7.61989 4.36352C7.64589 4.44102 7.71789 4.49602 7.80289 4.49602C7.84289 4.49602 7.87989 4.48402 7.91089 4.46302L7.90989 4.46452ZM9.19739 4.42952V4.47202C9.50739 4.35202 9.62239 4.56202 9.73989 4.76202L9.76989 4.80452C9.80239 4.86002 9.86189 4.89652 9.92989 4.89652C10.0039 4.89652 10.0674 4.85352 10.0969 4.79102L10.0974 4.79002L11.2024 2.79002C11.2259 2.72652 11.2444 2.65252 11.2544 2.57552L11.2549 2.57002C10.9274 2.57002 10.6349 2.57002 10.3424 2.57002C10.2224 2.57002 10.1074 2.55252 10.1274 2.73252C10.1274 2.76002 10.1024 2.78752 10.0874 2.81502C9.95239 3.06502 9.81739 3.31502 9.67989 3.56502L9.19739 4.42952ZM13.3974 4.60702C13.5749 4.58002 13.7289 4.49402 13.8419 4.37002C13.9674 4.22252 14.1009 4.08952 14.2449 3.96852L14.2499 3.96452C14.3724 3.85452 14.4999 3.75452 14.6349 3.65202C14.7059 3.59552 14.7509 3.50952 14.7509 3.41252C14.7509 3.40352 14.7504 3.39452 14.7499 3.38602V3.38702C14.7434 3.27302 14.7394 3.14002 14.7394 3.00552C14.7394 2.87102 14.7434 2.73802 14.7504 2.60602L14.7494 2.62452C14.7569 2.58602 14.7614 2.54202 14.7614 2.49702C14.7614 2.27802 14.6599 2.08252 14.5009 1.95552L14.4994 1.95452C14.4199 1.88102 14.3139 1.83452 14.1974 1.83202H9.95939C9.63139 1.84052 9.36539 2.09502 9.33939 2.41702V2.41952C9.33189 2.48352 9.31089 2.54102 9.27839 2.59102L9.27939 2.58952C8.94606 3.17786 8.61773 3.76119 8.29439 4.33952C8.28089 4.36702 8.26639 4.40152 8.25389 4.43752L8.25189 4.44452C8.27639 4.45452 8.30489 4.46002 8.33439 4.46002C8.43189 4.46002 8.51539 4.39802 8.54639 4.31102L8.54689 4.30952C8.85439 3.74202 9.17439 3.18202 9.48439 2.61702C9.51689 2.55702 9.53789 2.48602 9.54189 2.41102V2.40952C9.57389 2.21402 9.72489 2.06152 9.91639 2.02752L9.91939 2.02702H14.1869C14.3664 2.07402 14.5049 2.21402 14.5489 2.39102L14.5494 2.39452C14.5494 2.72786 14.5494 3.05286 14.5494 3.36952C14.5499 3.37402 14.5499 3.37952 14.5499 3.38452C14.5499 3.41902 14.5394 3.45102 14.5214 3.47752C14.4269 3.57602 14.3254 3.66452 14.2159 3.74502L14.2094 3.74952C13.8929 3.99102 13.6239 4.27452 13.4049 4.59452L13.3974 4.60702ZM5.39739 9.26702C5.27989 9.33952 5.29239 9.39702 5.33239 9.46702C5.57573 9.90036 5.81656 10.3337 6.05489 10.767C6.66156 11.8654 7.27073 12.9612 7.88239 14.0545C7.92389 14.1265 7.99489 14.1775 8.07839 14.192H8.07989C8.16389 14.177 8.23389 14.126 8.27439 14.056L8.27489 14.0545C8.90489 12.9345 9.52989 11.812 10.1499 10.687L10.7949 9.52452L10.6149 9.43952L8.07989 13.9995C8.04989 13.952 8.02989 13.9245 8.01239 13.8945C7.60573 13.1645 7.19906 12.4329 6.79239 11.6995C6.38739 10.9695 5.98489 10.242 5.57739 9.51452C5.51739 9.42152 5.45639 9.34052 5.39039 9.26452L5.39239 9.26702H5.39739ZM7.64739 9.19202C7.26739 9.26702 7.25739 9.28452 7.42739 9.53702H7.45239L7.64739 9.19202Z" fill="black"/>
<path d="M1.53739 7.17702C1.17689 7.28302 0.864395 7.45502 0.598895 7.68002L0.602395 7.67702C0.594395 7.69252 0.589895 7.71102 0.589895 7.73052C0.589895 7.75002 0.594395 7.76852 0.602895 7.78502C0.661895 7.88802 0.718895 8.00852 0.766395 8.13402L0.772395 8.15202C0.674895 8.01702 0.584895 7.87952 0.499895 7.74952C0.491395 7.73502 0.485895 7.71802 0.484895 7.69952C0.498395 7.40802 0.649395 7.15452 0.874395 7.00102L0.877395 6.99902C1.46239 6.77152 2.04739 6.55152 2.62739 6.33152C2.81489 6.26152 3.00739 6.20152 3.19989 6.13902C3.21039 6.16402 3.21639 6.19302 3.21639 6.22302C3.21639 6.28902 3.18789 6.34802 3.14239 6.38852C2.98089 6.55002 2.86539 6.75802 2.81889 6.99102L2.81739 6.99852C2.81189 7.02802 2.80889 7.06152 2.80889 7.09602C2.80889 7.13052 2.81189 7.16402 2.81789 7.19702L2.81739 7.19352C2.81739 7.19602 2.81739 7.19902 2.81739 7.20202C2.81739 7.30552 2.90139 7.38952 3.00489 7.38952C3.02739 7.38952 3.04889 7.38552 3.06889 7.37852L3.06739 7.37902C3.18739 7.36552 3.29639 7.33002 3.39439 7.27652L3.38989 7.27902C3.7149 7.08652 4.02739 6.87902 4.34489 6.67402C4.36989 6.65102 4.39189 6.62552 4.41139 6.59802L4.41239 6.59652C4.36189 6.57152 4.3004 6.54702 4.23739 6.52652L4.22739 6.52402C4.01489 6.46652 3.80239 6.41152 3.58739 6.36652C3.51639 6.36352 3.45989 6.30552 3.45989 6.23402C3.45989 6.22502 3.46089 6.21652 3.46239 6.20802C3.46239 5.95802 3.46239 5.95902 3.21239 6.02902C3.12689 6.06352 3.01839 6.09852 2.90739 6.12702L2.88739 6.13152C2.84489 6.13152 2.76239 6.13152 2.74739 6.09402C2.74039 6.06752 2.73639 6.03702 2.73639 6.00502C2.73639 5.97302 2.7404 5.94302 2.74839 5.91402L2.74789 5.91652C2.74789 5.89652 2.78539 5.88152 2.80789 5.86902C3.54589 5.40302 4.40389 5.04152 5.31989 4.83202L5.37539 4.82152C5.45439 4.80152 5.54489 4.79052 5.63839 4.79052C5.81539 4.79052 5.98339 4.83152 6.13239 4.90452L6.12589 4.90152C6.21739 4.94752 6.32589 4.97502 6.43989 4.97502C6.47189 4.97502 6.50339 4.97302 6.53439 4.96902L6.53089 4.96952C6.89889 4.95402 7.24389 4.91902 7.58189 4.86552L7.53089 4.87202C7.94789 4.80702 8.4404 4.76302 8.9404 4.75002L8.9559 4.74952C8.9609 4.74902 8.9664 4.74852 8.9719 4.74852C8.99689 4.74852 9.0204 4.75452 9.04189 4.76502L9.0409 4.76452C9.0209 4.77602 8.9979 4.78602 8.9734 4.79402L8.97089 4.79452C8.38589 4.94452 7.80339 5.12202 7.20839 5.22702C6.84739 5.27702 6.53589 5.33952 6.23139 5.41952L6.28839 5.40702C6.02339 5.48702 5.76339 5.57952 5.46589 5.67702C5.50689 5.63802 5.54389 5.59552 5.57639 5.54952L5.57839 5.54702C5.61589 5.46702 5.68339 5.36702 5.66089 5.29702C5.62339 5.18702 5.49089 5.22202 5.41089 5.24702C5.18139 5.31302 4.98539 5.38902 4.79839 5.47952L4.82089 5.46952C4.61789 5.58352 4.44539 5.69702 4.28139 5.82052L4.29339 5.81202C4.20589 5.87202 4.22089 5.94202 4.31089 5.98202C4.44589 6.04202 4.59089 6.08452 4.72839 6.14202C4.86139 6.19152 4.97439 6.24552 5.08139 6.30802L5.07089 6.30202C5.13889 6.32702 5.18689 6.39152 5.18689 6.46652C5.18689 6.51952 5.16339 6.56702 5.12639 6.59902C5.05589 6.69602 4.97339 6.77852 4.87939 6.84702L4.87639 6.84902C4.3489 7.20152 3.82389 7.56402 3.27889 7.88902C3.06889 8.00752 2.82389 8.09502 2.56389 8.13752L2.55139 8.13902C2.49189 8.15602 2.42339 8.16602 2.35239 8.16602C1.96489 8.16602 1.64589 7.87202 1.60639 7.49502L1.60589 7.49202C1.56589 7.41452 1.55739 7.30452 1.53739 7.17702Z" fill="black"/>
<path d="M13.8399 7.39202C13.9399 7.52702 13.9449 7.62202 13.8024 7.69452C13.5919 7.80302 13.3434 7.90452 13.0854 7.98352L13.0524 7.99202C12.8024 8.06702 12.5524 8.10452 12.2824 8.15952L12.1899 8.18702C12.5014 8.53102 12.8824 8.80652 13.3114 8.99152L13.3324 8.99952C13.3469 9.00552 13.3634 9.00902 13.3814 9.00902C13.3994 9.00902 13.4159 9.00552 13.4309 8.99952L13.4299 9.00002C14.0664 8.68152 14.6124 8.28852 15.0859 7.82152L15.0849 7.82252C15.1019 7.80202 15.1174 7.77902 15.1314 7.75502L15.1324 7.75252C15.0599 7.70752 14.9974 7.66252 14.9299 7.62752C14.6499 7.49002 14.3674 7.36002 14.0899 7.22002C13.9934 7.17152 13.9114 7.12152 13.8339 7.06602L13.8399 7.07002C13.7329 6.97502 13.5914 6.91752 13.4364 6.91752C13.4024 6.91752 13.3689 6.92052 13.3364 6.92552L13.3399 6.92502V6.89002L13.6724 6.83002C13.7684 6.90902 13.8754 6.98302 13.9884 7.04902L13.9999 7.05502C14.2249 7.15252 14.4599 7.22502 14.6874 7.32002C14.9149 7.41502 15.1549 7.54002 15.3899 7.64502C15.4604 7.67652 15.5094 7.74452 15.5124 7.82452C15.5184 7.84552 15.5224 7.86952 15.5224 7.89452C15.5224 7.99152 15.4674 8.07552 15.3864 8.11702L15.3849 8.11752C15.0474 8.36752 14.7149 8.61752 14.3849 8.89002L15.3849 8.30252C15.3714 8.43502 15.3439 8.55602 15.3039 8.67152L15.3074 8.66002C15.2549 8.76552 15.1754 8.85052 15.0774 8.90852L15.0749 8.91002C14.5749 9.16002 14.0749 9.39502 13.5749 9.62502C13.3489 9.70302 13.1609 9.84402 13.0269 10.027L13.0249 10.03C12.9324 9.90502 12.8574 9.78002 12.7749 9.68252C12.5874 9.46752 12.3724 9.27502 12.2049 9.04502C11.9874 8.74502 11.8074 8.41752 11.6124 8.11002C11.5499 8.24902 11.5134 8.41152 11.5134 8.58252C11.5134 8.67002 11.5229 8.75552 11.5409 8.83802L11.5394 8.83002C11.2894 8.83002 11.0244 8.74502 10.7394 8.85002C10.7614 8.77302 10.7929 8.70552 10.8334 8.64502L10.8319 8.64752C11.1934 8.20602 11.4974 7.69852 11.7204 7.14952L11.7344 7.11002C11.7569 7.06002 11.7344 6.99002 11.7344 6.90752C11.7489 6.89702 11.7669 6.88952 11.7864 6.88752C11.8679 6.88152 11.9629 6.87802 12.0589 6.87802C12.6294 6.87802 13.1709 7.00102 13.6589 7.22252L13.6344 7.21252C13.7024 7.25402 13.7609 7.29802 13.8159 7.34602L13.8144 7.34502L13.2094 7.11502V7.14752C13.3994 7.29502 13.7094 7.32252 13.6894 7.67752C13.7719 7.61002 13.8849 7.54702 13.8399 7.39202ZM11.6699 7.80952L11.7024 7.84202C11.7449 7.82202 11.7809 7.80102 11.8149 7.77802L11.8124 7.77952C11.8729 7.72702 11.9524 7.69502 12.0399 7.69502C12.0649 7.69502 12.0889 7.69752 12.1124 7.70252L12.1099 7.70202C12.1454 7.70702 12.1859 7.70952 12.2274 7.70952C12.3284 7.70952 12.4254 7.69302 12.5164 7.66252L12.5099 7.66452C12.5879 7.63552 12.6469 7.57102 12.6669 7.49102L12.6674 7.48952C12.6534 7.40552 12.5999 7.33702 12.5264 7.30252L12.5249 7.30202C12.3879 7.25752 12.2274 7.22352 12.0619 7.20752L12.0524 7.20702C12.0139 7.20752 11.9804 7.22702 11.9604 7.25652C11.8604 7.43902 11.7649 7.62452 11.6699 7.80952Z" fill="black"/>
<path d="M12.1974 4.90452C11.8149 5.12452 11.3649 5.02952 10.9624 5.17452H11.4999L11.2499 5.32952C11.2624 5.35202 11.2674 5.36452 11.2699 5.36452C11.5924 5.33702 11.9149 5.31202 12.2374 5.27952C12.5199 5.24952 12.8024 5.20452 13.0849 5.18202C13.2364 5.17952 13.3784 5.14402 13.5059 5.08202L13.4999 5.08452C13.7064 4.98102 13.9484 4.91652 14.2044 4.90702H14.2074C14.5324 4.87702 14.8574 4.81452 15.1824 4.76452L15.3124 4.74452C15.2414 4.89152 15.1139 5.00152 14.9589 5.04852L14.9549 5.04952C14.5649 5.12702 14.1749 5.20952 13.7849 5.29952V5.33702L14.1074 5.29702C13.7744 5.49952 13.3904 5.67002 12.9839 5.78852L12.9499 5.79702L13.1599 5.61452V5.58202C12.9849 5.60202 12.8074 5.53452 12.6349 5.63452C12.2239 5.85202 11.8729 6.12252 11.5744 6.44202L11.5724 6.44452C11.5574 6.46202 11.5349 6.48952 11.5124 6.49202L10.6824 6.57952L10.6599 6.54202C10.8499 6.38452 11.0349 6.21952 11.2324 6.06952C11.4299 5.91952 11.6349 5.79452 11.8274 5.62702L10.6249 5.78952V5.74952L11.0199 5.49952C10.9529 5.48302 10.8754 5.47352 10.7964 5.47352C10.7579 5.47352 10.7204 5.47552 10.6829 5.48002L10.6874 5.47952C10.4079 5.55852 10.0864 5.60602 9.75439 5.60952H9.75239C9.32489 5.65702 8.89739 5.70452 8.46989 5.75702C8.41439 5.77752 8.36639 5.80452 8.32389 5.83802L8.32489 5.83702L8.3399 5.87202L9.47739 5.77952L9.49489 5.81702L9.19489 6.03702C9.13139 6.01902 9.0584 6.00802 8.98289 6.00702C8.80789 6.02952 8.63739 6.06952 8.4649 6.09952C8.4454 6.10402 8.42289 6.10702 8.39989 6.10702C8.37689 6.10702 8.35439 6.10452 8.3329 6.09902L8.33489 6.09952C8.20239 6.05702 8.1524 6.12952 8.11489 6.24702L9.0799 6.15702C9.01239 6.31952 8.8899 6.32202 8.7774 6.34202C8.52439 6.36752 8.29539 6.40852 8.07339 6.46652L8.10489 6.45952C7.89739 6.52952 7.74489 6.42702 7.54989 6.39202L7.92739 5.82452L7.67739 5.85202L7.65739 5.82702C7.81239 5.74952 7.84239 5.54702 8.04739 5.50952C8.87739 5.35202 9.70239 5.15952 10.5474 5.02452C11.0949 4.93452 11.6549 4.91702 12.2074 4.86952L12.1974 4.90452Z" fill="black"/>
<path d="M6.16989 7.14452C6.35839 6.93852 6.62839 6.81002 6.92889 6.81002C6.97139 6.81002 7.01389 6.81252 7.05489 6.81752L7.04989 6.81702C7.18239 6.86302 7.29789 6.92452 7.40089 7.00202L7.39739 6.99952L7.19489 7.08702C7.14439 7.06502 7.08639 7.04902 7.02489 7.04202H7.02239C6.72739 7.07702 6.43239 7.12202 6.13739 7.15952C6.05489 7.15952 5.97239 7.15952 5.88739 7.15952C5.84789 7.15952 5.81139 7.17252 5.78189 7.19502C5.63439 7.33502 5.49239 7.48202 5.34989 7.62702L5.36989 7.65952L6.52739 7.34452C6.50839 7.40252 6.48639 7.45202 6.46039 7.49902L6.46239 7.49452C6.34739 7.61452 6.22739 7.72952 6.10739 7.84452C6.08739 7.86202 6.05239 7.88702 6.02989 7.88202C5.96389 7.87352 5.8869 7.86902 5.80939 7.86902C5.61539 7.86902 5.42789 7.89852 5.25139 7.95302L5.26489 7.94952C5.06739 7.97952 4.87239 8.03702 4.68489 8.08202C4.74239 8.12202 4.80989 8.14702 4.83739 8.19452C4.86489 8.24202 4.81489 8.29702 4.78489 8.33952C4.64739 8.55202 4.4999 8.75952 4.36239 8.97452C4.33739 9.03052 4.28239 9.06852 4.21839 9.06852C4.21089 9.06852 4.20389 9.06802 4.19689 9.06702C4.18089 9.06502 4.16389 9.06402 4.14539 9.06402C4.0104 9.06402 3.88789 9.11752 3.79789 9.20452C3.74039 9.26202 3.68289 9.31952 3.76289 9.41452C3.68039 9.29452 3.57289 9.32202 3.46539 9.33702L2.39039 9.49952C2.37539 9.49952 2.36039 9.49952 2.32039 9.47452C2.51489 9.24102 2.71339 9.03102 2.92389 8.83302L2.92789 8.82952C3.65539 8.22452 4.44289 7.70452 5.21289 7.15952C5.41039 7.02902 5.64389 6.93452 5.89439 6.89102L5.90539 6.88952C6.01039 6.86452 6.08289 6.87702 6.10539 7.00202C6.12089 7.05602 6.14289 7.10352 6.17139 7.14652L6.16989 7.14452Z" fill="black"/>
<path d="M8.74989 6.92452C8.69439 7.04502 8.57439 7.12752 8.43539 7.12752C8.42989 7.12752 8.42439 7.12752 8.41889 7.12702H8.41989C8.06689 7.15502 7.74989 7.29102 7.49739 7.50152L7.49989 7.49952C7.44789 7.55902 7.40439 7.62752 7.37189 7.70202L7.36989 7.70702C7.43139 7.72752 7.50889 7.74752 7.58789 7.76252L7.59989 7.76452C7.65339 7.76402 7.70489 7.75852 7.75539 7.74852L7.74989 7.74952C7.85989 7.74952 7.90489 7.68702 7.90739 7.55702L7.56989 7.58952C7.60189 7.55002 7.63539 7.51502 7.67139 7.48302L7.67239 7.48202C7.85489 7.35152 8.07839 7.26702 8.32089 7.24952H8.32489C8.43489 7.24952 8.43489 7.28952 8.39239 7.36702C8.25739 7.61702 8.12739 7.86702 7.98739 8.11702C7.95589 8.15402 7.91539 8.18252 7.86939 8.19902L7.86739 8.19952C7.70239 8.27952 7.53489 8.34952 7.36739 8.43202C7.19989 8.51452 7.11739 8.57952 6.98989 8.65702C7.13239 8.37202 7.25739 8.07202 7.61739 7.97202L7.59989 7.93202C7.54989 7.93952 7.49189 7.94402 7.43289 7.94452C7.39789 7.94602 7.35689 7.94702 7.31539 7.94702C7.20939 7.94702 7.10489 7.94052 7.00239 7.92802L7.01489 7.92902C6.84489 7.89902 6.79489 7.77902 6.90239 7.65152C7.15239 7.35652 7.43989 7.09652 7.87739 7.13402C7.91489 7.13402 7.95739 7.10902 7.99739 7.09152C8.14739 7.02152 8.29489 6.94402 8.44989 6.88652C8.60489 6.82902 8.59989 6.85202 8.74989 6.92452Z" fill="black"/>
<path d="M13.3224 6.64452C12.9824 6.67952 12.6424 6.71952 12.3024 6.74952C12.0524 6.77452 11.8024 6.77952 11.5524 6.81202C11.4419 6.84852 11.3484 6.88802 11.2594 6.93452L11.2699 6.92952C11.1744 6.96202 11.0634 6.98602 10.9484 6.99652L10.9424 6.99702C10.8024 6.99702 10.6599 6.99702 10.5199 6.99702C10.4684 7.00052 10.4229 7.02252 10.3899 7.05702C10.1974 7.30052 10.0459 7.58752 9.95189 7.89902L9.94739 7.91702C9.93739 7.97252 9.92989 8.03752 9.92739 8.10452V8.10702H9.43739L9.97489 6.99952L8.88739 7.09452C8.90989 6.99452 8.94989 6.93702 9.06739 6.95952H9.06889C9.12489 6.95952 9.17839 6.94952 9.22789 6.93102L9.22489 6.93202C9.23989 6.93202 9.25489 6.91452 9.27239 6.91202C9.46489 6.91202 9.65489 6.89702 9.84739 6.89702C9.85439 6.89702 9.86239 6.89702 9.87039 6.89702C10.5289 6.89702 11.1709 6.82602 11.7889 6.69102L11.7299 6.70202C11.9374 6.65702 12.1424 6.58702 12.3574 6.54952C12.4344 6.53802 12.5234 6.53152 12.6139 6.53152C12.7499 6.53152 12.8819 6.54652 13.0094 6.57452L12.9974 6.57202C13.1049 6.59202 13.2149 6.60202 13.3224 6.61702V6.64452Z" fill="black"/>
<path d="M6.54239 6.62952L6.17989 6.83952C6.19739 6.73252 6.22189 6.63802 6.25339 6.54752L6.24989 6.55952C6.29989 6.44452 6.36989 6.33702 6.42489 6.22202C6.47989 6.10702 6.49739 6.03452 6.54489 5.90952C6.80739 5.88202 7.11239 5.84452 7.41489 5.81702C7.44489 5.81702 7.48239 5.84702 7.50739 5.87202C7.53889 5.90952 7.56839 5.95102 7.59489 5.99502L7.59739 5.99952C7.50989 6.29702 7.19989 6.23452 6.99989 6.36202C7.29789 6.48352 7.64389 6.55452 8.00639 6.55452C8.38289 6.55452 8.74139 6.47852 9.06789 6.34052L9.04989 6.34702V6.39952C8.90739 6.46702 8.76739 6.54452 8.61989 6.60202C8.38489 6.69202 8.14239 6.76702 7.90239 6.85202C7.87739 6.85202 7.84989 6.87952 7.82739 6.87452C7.64889 6.83902 7.49589 6.79602 7.34739 6.74252L7.36989 6.74952C7.14489 6.66452 6.92989 6.55452 6.70739 6.45952C6.66139 6.44652 6.60839 6.43952 6.55389 6.43952C6.54989 6.43952 6.54589 6.43952 6.54189 6.43952L6.54239 6.62952ZM7.08739 6.07952L7.06739 6.02952C6.93739 6.07952 6.81739 6.12452 6.68239 6.18202C6.66489 6.18202 6.66739 6.23952 6.65989 6.27202C6.69489 6.27202 6.73989 6.30202 6.76489 6.28952C6.87489 6.22452 6.97989 6.14952 7.08739 6.07952Z" fill="black"/>
<path d="M6.04989 6.61452C5.77739 6.68202 5.52239 6.74702 5.26739 6.80452C5.22989 6.80452 5.18489 6.77952 5.14989 6.76452L5.91989 5.94452L5.89489 5.90702L5.34739 6.10202C5.13239 6.18452 5.13489 6.18452 4.91739 6.06202C4.98489 6.01452 5.05239 5.96702 5.12239 5.92202C5.13989 5.90952 5.17489 5.89452 5.17989 5.90202C5.26739 6.00952 5.34489 5.90202 5.42989 5.90202C6.00989 5.77452 6.58989 5.63702 7.17989 5.51452C7.51739 5.44452 7.85989 5.39202 8.2049 5.34452C8.1174 5.37702 8.03239 5.41202 7.95489 5.43952C7.83939 5.46302 7.74339 5.53152 7.68339 5.62552L7.68239 5.62702C7.65339 5.65952 7.61139 5.68002 7.56439 5.68002C7.55989 5.68002 7.55589 5.68002 7.55189 5.67952C7.49739 5.67652 7.43389 5.67502 7.36989 5.67502C7.05139 5.67502 6.74189 5.71502 6.44689 5.79002L6.47289 5.78452C6.45439 5.78652 6.43789 5.79452 6.42539 5.80702C6.32289 5.93952 6.21789 6.07202 6.12539 6.21202C6.0329 6.35202 5.90989 6.45202 6.04989 6.61452Z" fill="black"/>
<path d="M8.78239 6.74952C8.80489 6.70702 8.80489 6.70202 8.80989 6.69952C9.16989 6.57702 9.36239 6.27202 9.55989 5.98202C9.60689 5.90102 9.69189 5.84652 9.78939 5.84202C9.90439 5.84202 10.0174 5.80702 10.1299 5.79452C10.2424 5.78202 10.3024 5.74952 10.3649 5.84952C10.3774 5.87202 10.4374 5.87202 10.4749 5.87202H11.0324C10.9759 5.96152 10.8789 6.02202 10.7679 6.02702C10.5179 6.02702 10.2524 6.05452 9.99489 6.07952C9.93689 6.09602 9.88589 6.12102 9.84089 6.15302L9.84239 6.15202V6.19952L10.7749 6.15202C10.6674 6.23702 10.5924 6.33702 10.4149 6.31452C10.4074 6.31452 10.3979 6.31452 10.3889 6.31452C10.1734 6.31452 9.96289 6.33552 9.75939 6.37552L9.77989 6.37202C9.77689 6.37202 9.77339 6.37202 9.76989 6.37202C9.65639 6.37202 9.55889 6.44002 9.51589 6.53802L9.51539 6.54002L10.4554 6.45502C10.3189 6.57002 10.1479 6.64852 9.95989 6.67202L9.95539 6.67252C9.70539 6.67252 9.44039 6.72752 9.18039 6.74752C9.05789 6.75002 8.92739 6.74952 8.78239 6.74952Z" fill="black"/>
<path d="M10.3674 7.26702L11.5124 7.04702C11.4424 7.26952 11.3874 7.31702 11.1424 7.35452C10.9949 7.37952 10.8474 7.40202 10.7049 7.43952C10.6509 7.46652 10.6044 7.50102 10.5649 7.54202L10.5849 7.57952C10.7174 7.55952 10.8524 7.53702 10.9849 7.52452C11.0449 7.51952 11.1154 7.51702 11.1859 7.51702C11.2564 7.51702 11.3269 7.51952 11.3964 7.52502L11.3874 7.52452C11.2849 7.59702 11.2449 7.73702 11.0949 7.75452C10.8999 7.77952 10.7024 7.80452 10.5099 7.83952C10.4699 7.83952 10.4399 7.91202 10.4024 7.94952L10.4249 7.98452L11.2674 7.83452C11.1574 8.01452 11.0549 8.14702 10.8474 8.16202C10.5384 8.20152 10.2599 8.30102 10.0124 8.44752L10.0224 8.44202C10.0204 8.43452 10.0194 8.42602 10.0194 8.41702C10.0194 8.40802 10.0204 8.39952 10.0224 8.39102C10.1474 8.09352 10.1824 7.75952 10.4024 7.50202C10.4649 7.42202 10.4799 7.34952 10.3674 7.26702Z" fill="black"/>
<path d="M8.83989 8.10452L9.01489 7.74702C8.97589 7.72502 8.92889 7.71202 8.87889 7.71202C8.75889 7.71202 8.65639 7.78702 8.61539 7.89252L8.61489 7.89452C8.49239 8.15702 8.47739 8.16452 8.14239 8.14452C8.19489 8.05202 8.24239 7.96202 8.29489 7.87952C8.40239 7.70952 8.52239 7.54702 8.62239 7.37952C8.69189 7.26052 8.81889 7.18202 8.96439 7.18202C8.98639 7.18202 9.00839 7.18402 9.02939 7.18752L9.02689 7.18702L8.85689 7.47202C9.06939 7.49452 9.24939 7.47202 9.34189 7.26702C9.41189 7.10702 9.54689 7.09952 9.70939 7.11952C9.69489 7.15752 9.68039 7.18902 9.66439 7.21952L9.66689 7.21452C9.52939 7.48702 9.39189 7.76202 9.24939 8.03202C9.22989 8.06802 9.19739 8.09502 9.15789 8.10652L9.15689 8.10702C9.05939 8.10952 8.95989 8.10452 8.83989 8.10452Z" fill="black"/>
<path d="M6.57739 8.35702L5.48489 8.55702V8.62202C5.39989 8.52202 5.42489 8.45452 5.51989 8.40202C5.61489 8.34952 5.71489 8.29952 5.80739 8.24202C5.89989 8.18452 5.91989 8.14952 5.98239 8.10702C6.04489 8.06452 6.09739 8.03952 6.15489 8.00702C6.18939 7.98952 6.21939 7.96752 6.24489 7.94202C6.39489 7.75702 6.53489 7.56702 6.69239 7.38952C6.81689 7.26702 6.98439 7.18902 7.17089 7.17952H7.17239L7.19489 7.21452C7.15039 7.24102 7.11189 7.26952 7.07639 7.30052L7.07739 7.29952C6.96239 7.41702 6.84489 7.53452 6.73739 7.65702C6.70889 7.69402 6.69189 7.74152 6.69189 7.79252C6.69189 7.79652 6.69189 7.80102 6.69239 7.80502C6.69289 7.81152 6.69289 7.81852 6.69289 7.82602C6.69289 7.94902 6.6544 8.06252 6.58889 8.15602L6.58989 8.15402C6.57939 8.19502 6.57339 8.24202 6.57339 8.29052C6.57339 8.31402 6.57489 8.33652 6.57739 8.35952V8.35702Z" fill="black"/>
</g>
<defs>
<clipPath id="clip0_6_274">
<rect width="16" height="16" fill="white"/>
</clipPath>
</defs>
</svg>
