<svg width="16" height="16" viewBox="0 0 16 16" fill="none" xmlns="http://www.w3.org/2000/svg">
<g clip-path="url(#clip0_6_368)">
<path d="M13.9065 5.91693L16 3.80343L14.6665 2.51693L12.5465 4.66343C12.2325 4.99743 12.04 5.44843 12.04 5.94493C12.04 6.30993 12.1445 6.65043 12.3245 6.93793L12.32 6.92993C11.742 6.80393 11.309 6.31643 11.267 5.72093V1.33043H9.52051V5.75693C9.60751 6.99443 10.4025 8.02643 11.499 8.45643L11.5205 8.46393L10.767 9.25743C10.0275 8.37543 9.14401 7.64293 8.14751 7.08843L8.10001 7.06443C7.23601 6.61493 6.52751 5.97293 6.01301 5.19193L6.00001 5.17143C5.74601 4.40493 5.03601 3.86143 4.19851 3.86143C3.30301 3.86143 2.55251 4.48343 2.35551 5.31843L2.35301 5.33143L-0.000488281 15.5914L1.71951 15.9979L3.05301 10.1179L4.61951 12.1179V15.9979H6.37301V11.7714C6.37301 11.7684 6.37301 11.7654 6.37301 11.7619C6.37301 11.5604 6.30251 11.3754 6.18501 11.2299L6.18601 11.2314L5.17951 9.95793L5.73301 7.53143C6.16201 7.88793 6.63901 8.22493 7.14151 8.52343L7.19301 8.55143C8.38601 9.19693 9.34351 10.1459 9.98151 11.2959L9.99951 11.3314C10.089 11.6714 10.2635 11.9624 10.499 12.1909L10.5595 12.2449C10.8875 12.5554 11.331 12.7464 11.8195 12.7464C12.3445 12.7464 12.818 12.5259 13.152 12.1724L13.153 12.1714L15.333 9.85793C15.6575 9.52243 15.8575 9.06493 15.8575 8.56043C15.8575 8.01993 15.628 7.53293 15.2605 7.19243L15.2595 7.19143L13.9065 5.91693Z" fill="black"/>
<path d="M6.34001 3.11043C6.83951 2.81643 7.16951 2.28143 7.16951 1.66943C7.16951 0.74893 6.42351 0.00292969 5.50301 0.00292969C4.58251 0.00292969 3.83651 0.74893 3.83651 1.66943C3.83651 1.97693 3.91951 2.26443 4.06451 2.51193L4.06051 2.50393C4.35401 3.00493 4.89001 3.33593 5.50301 3.33593C5.81151 3.33593 6.10051 3.25193 6.34801 3.10593L6.34001 3.11043Z" fill="black"/>
<path d="M9.83351 11.9969C9.59201 11.8534 9.30101 11.7689 8.99001 11.7689C8.06601 11.7689 7.31651 12.5179 7.31651 13.4424C7.31651 14.3669 8.06551 15.1159 8.99001 15.1159C9.60701 15.1159 10.1455 14.7819 10.436 14.2854L10.4405 14.2774C10.5825 14.0374 10.666 13.7484 10.666 13.4399C10.666 12.8269 10.335 12.2909 9.84151 12.0014L9.83351 11.9969Z" fill="black"/>
</g>
<defs>
<clipPath id="clip0_6_368">
<rect width="16" height="16" fill="white"/>
</clipPath>
</defs>
</svg>
