<svg width="16" height="16" viewBox="0 0 16 16" fill="none" xmlns="http://www.w3.org/2000/svg">
<g clip-path="url(#clip0_6_547)">
<path d="M13.3335 2H14C14.368 2 14.6665 2.2985 14.6665 2.6665V4.6665C14.6665 5.0345 14.368 5.333 14 5.333H13.3335C12.9655 5.333 12.667 5.0345 12.667 4.6665V2.6665C12.667 2.2985 12.9655 2 13.3335 2Z" fill="black"/>
<path d="M12.6665 10H13.333C13.701 10 13.9995 10.2985 13.9995 10.6665V12.6665C13.9995 13.0345 13.701 13.333 13.333 13.333H12.6665C12.2985 13.333 12 13.0345 12 12.6665V10.6665C12 10.2985 12.2985 10 12.6665 10Z" fill="black"/>
<path d="M2 2H2.6665C3.0345 2 3.333 2.2985 3.333 2.6665V4.6665C3.333 5.0345 3.0345 5.333 2.6665 5.333H2C1.632 5.333 1.3335 5.0345 1.3335 4.6665V2.6665C1.3335 2.2985 1.632 2 2 2Z" fill="black"/>
<path d="M2.6665 10H3.333C3.701 10 3.9995 10.2985 3.9995 10.6665V12.6665C3.9995 13.0345 3.701 13.333 3.333 13.333H2.6665C2.2985 13.333 2 13.0345 2 12.6665V10.6665C2 10.2985 2.2985 10 2.6665 10Z" fill="black"/>
<path d="M10.6665 9.6865C11.84 9.055 12.625 7.836 12.6265 6.4335V5.8735L11.333 5.3335V2L12.6665 0H3.333L4.6665 2V5.3335L3.3665 5.8735V6.427C3.375 7.8275 4.1605 9.0425 5.3135 9.664L5.333 9.6735L6.6665 14.667L4 14.0005V16.0005H12V14.0005L9.3335 14.667L10.6665 9.6865ZM6.3265 9.6865L7.173 5.5065H5.4795L9.67949 1.333L8.833 5.5195H10.5195L6.3265 9.6865Z" fill="black"/>
</g>
<defs>
<clipPath id="clip0_6_547">
<rect width="16" height="16" fill="white"/>
</clipPath>
</defs>
</svg>
