<svg width="16" height="16" viewBox="0 0 16 16" fill="none" xmlns="http://www.w3.org/2000/svg">
<path d="M2.9699 10.265H3.7974C3.9714 10.265 4.1124 10.406 4.1124 10.58V12.1825C4.1124 12.3565 3.9714 12.4975 3.7974 12.4975H2.9699C2.7959 12.4975 2.6549 12.3565 2.6549 12.1825V10.58C2.6549 10.406 2.7959 10.265 2.9699 10.265Z" fill="black"/>
<path d="M2.9649 1.19H3.7974C4.1439 1.19 4.4249 1.471 4.4249 1.8175V2.99C4.4249 3.3365 4.1439 3.6175 3.7974 3.6175H2.9649C2.6184 3.6175 2.3374 3.3365 2.3374 2.99V1.8175C2.3374 1.471 2.6184 1.19 2.9649 1.19Z" fill="black"/>
<path d="M11.2049 10.265H12.0324C12.2064 10.265 12.3474 10.406 12.3474 10.58V12.1825C12.3474 12.3565 12.2064 12.4975 12.0324 12.4975H11.2049C11.0309 12.4975 10.8899 12.3565 10.8899 12.1825V10.58C10.8899 10.406 11.0309 10.265 11.2049 10.265Z" fill="black"/>
<path d="M11.1999 1.19H12.0324C12.3789 1.19 12.6599 1.471 12.6599 1.8175V2.99C12.6599 3.3365 12.3789 3.6175 12.0324 3.6175H11.1999C10.8534 3.6175 10.5724 3.3365 10.5724 2.99V1.8175C10.5724 1.471 10.8534 1.19 11.1999 1.19Z" fill="black"/>
<path d="M8.4824 11.5625C12.6474 10.395 11.2324 7.235 11.2324 7.235C12.3199 6.53 12.2324 3.985 12.2324 3.985C12.0184 3.9725 11.7679 3.9655 11.5159 3.9655C11.2639 3.9655 11.0134 3.9725 10.7649 3.9865L10.7994 3.985C10.5449 4.063 10.3294 4.206 10.1659 4.3955L10.1644 4.3975H8.7494L8.2494 1.975H9.7994L10.5494 0H4.4569L5.2069 1.975H6.7494L6.2494 4.395H4.8194C4.6544 4.2035 4.4389 4.0605 4.1939 3.985L4.1844 3.9825C3.9704 3.97 3.7199 3.963 3.4679 3.963C3.2159 3.963 2.9654 3.97 2.7169 3.984L2.7514 3.9825C2.7514 3.9825 2.6714 6.53 3.7514 7.2325C3.7514 7.2325 2.3439 10.3925 6.5014 11.56C6.5804 12.6235 6.7039 13.5795 6.8744 14.5195L6.8489 14.35L3.9989 12.75V15L7.4989 16L10.9989 15V12.75L8.1489 14.35C8.2899 13.577 8.4079 12.6205 8.4764 11.6505L8.4814 11.5625H8.4824ZM6.6399 10.14V8H8.3599V10.14C8.3599 10.615 7.9749 11 7.4999 11C7.0249 11 6.6399 10.615 6.6399 10.14Z" fill="black"/>
</svg>
