<svg width="16" height="16" viewBox="0 0 16 16" fill="none" xmlns="http://www.w3.org/2000/svg">
<g clip-path="url(#clip0_6_443)">
<path d="M7.33342 13.1935L0.346924 10.0335V12.1335C0.346924 12.1335 0.346924 12.1345 0.346924 12.1355C0.346924 12.4575 0.535924 12.7355 0.808924 12.865L0.813924 12.867L7.33392 15.8535C7.52942 15.945 7.75892 15.9985 8.00042 15.9985C8.24192 15.9985 8.47142 15.945 8.67692 15.8495L8.66692 15.8535L15.1869 12.867C15.4649 12.7355 15.6534 12.4575 15.6534 12.1355V10.0335L8.66692 13.1935C8.47142 13.287 8.24242 13.3415 8.00042 13.3415C7.75842 13.3415 7.52892 13.287 7.32442 13.189L7.33342 13.1935Z" fill="black"/>
<path d="M0.599924 8.3735L7.26642 11.44C7.47792 11.538 7.72542 11.5955 7.98642 11.5955C8.24742 11.5955 8.49492 11.5385 8.71742 11.4355L8.70642 11.44L15.3729 8.3735C15.5224 8.303 15.6244 8.1535 15.6244 7.98C15.6244 7.8065 15.5224 7.657 15.3754 7.588L15.3729 7.587L8.79943 4.5605V7.287C8.79943 7.729 8.44142 8.087 7.99942 8.087C7.55742 8.087 7.19942 7.729 7.19942 7.287V4.5605L0.599424 7.587C0.449924 7.6575 0.347924 7.807 0.347924 7.9805C0.347924 8.154 0.449924 8.3035 0.596924 8.3725L0.599924 8.3735Z" fill="black"/>
<path d="M10.0264 2.0065C10.0264 3.1145 9.12792 4.013 8.01992 4.013C6.91192 4.013 6.01342 3.1145 6.01342 2.0065C6.01342 0.8985 6.91192 0 8.01992 0C9.12792 0 10.0264 0.8985 10.0264 2.0065Z" fill="black"/>
</g>
<defs>
<clipPath id="clip0_6_443">
<rect width="16" height="16" fill="white"/>
</clipPath>
</defs>
</svg>
