<svg width="16" height="16" viewBox="0 0 16 16" fill="none" xmlns="http://www.w3.org/2000/svg">
<g clip-path="url(#clip0_6_441)">
<path d="M2.00002 2.74034C2.14002 2.58034 2.28652 2.42034 2.44002 2.27384C5.15902 2.40934 7.62552 3.39184 9.60602 4.96034L9.58002 4.94034C11.8865 6.87184 13.6825 9.33784 14.785 12.1523L14.827 12.2738C14.685 12.5043 14.551 12.6978 14.408 12.8843L14.4205 12.8673C13.2795 10.1213 11.5955 7.80434 9.48852 5.95884L9.46702 5.94034C7.43602 4.22084 4.87702 3.06534 2.06452 2.74634L2.00002 2.74034ZM0.953523 4.20684C3.83502 4.33784 6.44052 5.42184 8.48552 7.14884L8.46702 7.13334C10.553 8.98334 12.182 11.3023 13.1935 13.9273L13.234 14.0463C11.8395 15.2583 10.0055 15.9968 7.99902 15.9968C3.58052 15.9968 -0.000976562 12.4153 -0.000976562 7.99684C-0.000976562 6.60834 0.353023 5.30234 0.975023 4.16434L0.953523 4.20684ZM4.28652 0.920336C5.36302 0.344836 6.64152 0.00683594 7.99902 0.00683594C12.4175 0.00683594 15.999 3.58834 15.999 8.00684C15.999 8.83684 15.8725 9.63784 15.638 10.3903L15.653 10.3338C14.4245 7.67784 12.6825 5.44934 10.539 3.69334L10.5065 3.66734C8.77002 2.29934 6.65702 1.32984 4.34852 0.932336L4.26652 0.920836L4.28652 0.920336Z" fill="black"/>
</g>
<defs>
<clipPath id="clip0_6_441">
<rect width="16" height="16" fill="white"/>
</clipPath>
</defs>
</svg>
