<svg width="16" height="16" viewBox="0 0 16 16" fill="none" xmlns="http://www.w3.org/2000/svg">
<g clip-path="url(#clip0_6_196)">
<path d="M8.00002 2.43368L9.41352 5.06018C9.74202 5.67568 10.3295 6.11618 11.0265 6.23818L11.04 6.24018L13.98 6.77368L11.9135 8.92718C11.513 9.34268 11.266 9.90868 11.266 10.5322C11.266 10.6412 11.2735 10.7477 11.288 10.8527L11.2865 10.8407L11.693 13.8007L9.08652 12.5407C8.76852 12.3852 8.39502 12.2942 8.00002 12.2942C7.60502 12.2942 7.23102 12.3852 6.89852 12.5472L6.91352 12.5407L4.30702 13.8007L4.71352 10.8407C4.72652 10.7482 4.73402 10.6412 4.73402 10.5322C4.73402 9.90868 4.48702 9.34268 4.08602 8.92668L2.00002 6.77368L4.94002 6.24018C5.65852 6.12218 6.25452 5.68018 6.58052 5.07218L6.58652 5.06018L8.00002 2.43368ZM8.00002 0.34668C7.99952 0.34668 7.99902 0.34668 7.99852 0.34668C7.66852 0.34668 7.38202 0.53068 7.23552 0.80218L7.23302 0.80668L5.33302 4.38018C5.20652 4.61068 4.98652 4.77618 4.72502 4.82618L4.71952 4.82718L0.719523 5.54718C0.308023 5.61968 -0.000976562 5.97468 -0.000976562 6.40118C-0.000976562 6.63368 0.0905234 6.84468 0.239523 7.00068L3.04552 9.92668C3.19752 10.0797 3.29102 10.2902 3.29102 10.5232C3.29102 10.5742 3.28652 10.6237 3.27802 10.6722L3.27902 10.6672L2.73252 14.6672C2.72702 14.7032 2.72402 14.7447 2.72402 14.7872C2.72402 15.2657 3.11202 15.6537 3.59052 15.6537C3.59102 15.6537 3.59152 15.6537 3.59252 15.6537C3.60002 15.6542 3.60952 15.6542 3.61852 15.6542C3.75752 15.6542 3.88902 15.6197 4.00352 15.5582L3.99902 15.5602L7.56552 13.8402C7.70002 13.7732 7.85802 13.7337 8.02552 13.7337C8.19302 13.7337 8.35102 13.7732 8.49152 13.8427L8.48552 13.8402L11.999 15.5602C12.1075 15.6192 12.237 15.6537 12.374 15.6537C12.3755 15.6537 12.3775 15.6537 12.3795 15.6537C12.388 15.6542 12.3975 15.6542 12.4075 15.6542C12.886 15.6542 13.274 15.2662 13.274 14.7877C13.274 14.7452 13.271 14.7032 13.265 14.6627L13.2655 14.6672L12.719 10.6672C12.713 10.6292 12.7095 10.5852 12.7095 10.5407C12.7095 10.3097 12.802 10.0997 12.9525 9.94718L15.759 7.02068C15.9085 6.86518 16.0005 6.65368 16.0005 6.42068C16.0005 5.99568 15.6945 5.64218 15.291 5.56818L15.2855 5.56718L11.2855 4.84718C11.0125 4.79368 10.789 4.62018 10.668 4.38568L10.6655 4.38068L8.76552 0.80718C8.61702 0.53118 8.33002 0.34668 8.00002 0.34668Z" fill="black"/>
</g>
<defs>
<clipPath id="clip0_6_196">
<rect width="16" height="16" fill="white"/>
</clipPath>
</defs>
</svg>
