<svg width="16" height="16" viewBox="0 0 16 16" fill="none" xmlns="http://www.w3.org/2000/svg">
<g clip-path="url(#clip0_6_533)">
<path d="M12.7665 0.666016H3.233L0.666504 3.23252V12.766L3.233 15.3325H12.7665L15.333 12.766V3.23252L12.7665 0.666016ZM13.66 11.6795L11.66 13.6795H4.3265L2.3265 11.6795V4.34602L4.3265 2.34602H11.66L13.66 4.34602V11.6795Z" fill="black"/>
<path d="M8 6.12602C7.996 6.12602 7.9915 6.12602 7.9865 6.12602C7.5265 6.12602 7.153 6.49902 7.153 6.95952C7.153 7.42002 7.526 7.79302 7.9865 7.79302C8.4465 7.79302 8.82 7.42002 8.82 6.95952C8.82 6.95702 8.82 6.95502 8.82 6.95252C8.8165 6.50002 8.4515 6.13352 8 6.12602Z" fill="black"/>
<path d="M11.0335 3.33302H4.967L3.3335 4.96652V11.033L4.967 12.6665H11.0335L12.667 11.033V4.96652L11.0335 3.33302ZM7.1535 11.053C7.1315 11.062 7.1065 11.067 7.08 11.067C6.988 11.067 6.911 11.005 6.8875 10.921L6.887 10.9195L6.6405 10.253C6.607 10.1465 6.6405 10.053 6.8005 9.99952C7.207 9.87302 8.347 9.47952 8.527 8.59302C8.287 8.69052 8.0095 8.75302 7.719 8.76602H7.7135C6.7635 8.76152 5.995 7.99002 5.995 7.03952C5.995 6.99252 5.997 6.94602 6.0005 6.90002L6 6.90602C6.0225 5.81902 6.909 4.94602 7.9995 4.94602C9.333 4.94602 10.0735 5.93952 10.0735 7.27952C10.0375 9.07252 8.827 10.573 7.1815 11.046L7.1535 11.053Z" fill="black"/>
</g>
<defs>
<clipPath id="clip0_6_533">
<rect width="16" height="16" fill="white"/>
</clipPath>
</defs>
</svg>
