<svg width="16" height="16" viewBox="0 0 16 16" fill="none" xmlns="http://www.w3.org/2000/svg">
<g clip-path="url(#clip0_6_327)">
<path d="M13.539 4.92C14.8975 4.92 16 3.819 16 2.459C16 1.099 14.899 0 13.539 0C12.179 0 11.078 1.101 11.078 2.461C11.078 3.8195 12.179 4.922 13.537 4.922L13.539 4.92ZM5.9935 16.0015C2.6845 16 0 13.315 0 10.003C0 6.691 2.685 4.006 5.997 4.006C9.309 4.006 11.994 6.691 11.994 10.003C11.994 13.315 9.309 16 5.997 16L5.9935 16.0015Z" fill="black"/>
</g>
<defs>
<clipPath id="clip0_6_327">
<rect width="16" height="16" fill="white"/>
</clipPath>
</defs>
</svg>
