<svg width="16" height="16" viewBox="0 0 16 16" fill="none" xmlns="http://www.w3.org/2000/svg">
<path d="M8 5.66602C6.7115 5.66602 5.6665 4.62152 5.6665 3.33252C5.6665 2.04352 6.711 0.999023 8 0.999023C9.2885 0.999023 10.3335 2.04352 10.3335 3.33252C10.3335 4.62102 9.289 5.66602 8 5.66602ZM8 2.33302C7.4475 2.33302 7 2.78052 7 3.33302C7 3.88552 7.4475 4.33302 8 4.33302C8.5525 4.33302 9 3.88552 9 3.33302C9 2.78052 8.5525 2.33302 8 2.33302Z" fill="black"/>
<path d="M16 12.9995C16 14.104 15.1045 14.9995 14 14.9995C12.8955 14.9995 12 14.104 12 12.9995C12 11.895 12.8955 10.9995 14 10.9995C15.1045 10.9995 16 11.895 16 12.9995Z" fill="black"/>
<path d="M10 12.9995C10 14.104 9.1045 14.9995 8 14.9995C6.8955 14.9995 6 14.104 6 12.9995C6 11.895 6.8955 10.9995 8 10.9995C9.1045 10.9995 10 11.895 10 12.9995Z" fill="black"/>
<path d="M4 12.9995C4 14.104 3.1045 14.9995 2 14.9995C0.8955 14.9995 0 14.104 0 12.9995C0 11.895 0.8955 10.9995 2 10.9995C3.1045 10.9995 4 11.895 4 12.9995Z" fill="black"/>
<path d="M12.6665 8.33302C12.6665 9.43752 11.771 10.333 10.6665 10.333C9.562 10.333 8.6665 9.43752 8.6665 8.33302C8.6665 7.22852 9.562 6.33302 10.6665 6.33302C11.771 6.33302 12.6665 7.22852 12.6665 8.33302Z" fill="black"/>
<path d="M6.6665 8.33302C6.6665 9.43752 5.771 10.333 4.6665 10.333C3.562 10.333 2.6665 9.43752 2.6665 8.33302C2.6665 7.22852 3.562 6.33302 4.6665 6.33302C5.771 6.33302 6.6665 7.22852 6.6665 8.33302Z" fill="black"/>
</svg>
