<svg width="16" height="16" viewBox="0 0 16 16" fill="none" xmlns="http://www.w3.org/2000/svg">
<path d="M14 5.99992C13.45 5.99992 13 6.44992 13 6.99992V10.9999C13 11.5499 13.45 11.9999 14 11.9999C14.55 11.9999 15 11.5499 15 10.9999V6.99992C15 6.44992 14.55 5.99992 14 5.99992ZM2 5.99992C1.45 5.99992 1 6.44992 1 6.99992V10.9999C1 11.5499 1.45 11.9999 2 11.9999C2.55 11.9999 3 11.5499 3 10.9999V6.99992C3 6.44992 2.55 5.99992 2 5.99992ZM3.5 11.4999C3.5 12.3284 4.1715 12.9999 5 12.9999V14.9999C5 15.5499 5.45 15.9999 6 15.9999C6.55 15.9999 7 15.5499 7 14.9999V12.9999H9V14.9999C9 15.5499 9.45 15.9999 10 15.9999C10.55 15.9999 11 15.5499 11 14.9999V12.9999C11.8285 12.9999 12.5 12.3284 12.5 11.4999V5.99992H3.5V11.4999Z" fill="black"/>
<path d="M12.472 4.99992C12.32 3.62692 11.55 2.44042 10.4465 1.72442L10.947 0.723922C11.0705 0.476922 10.9705 0.176422 10.7235 0.052922C10.4765 -0.0705779 10.176 0.0294221 10.0525 0.276422L9.5505 1.28092L9.42 1.22892C8.9735 1.08042 8.496 0.999922 8 0.999922C7.504 0.999922 7.0265 1.08042 6.58 1.22892L6.4495 1.28092L5.9475 0.276422C5.824 0.0294221 5.5235 -0.0705779 5.2765 0.052922C5.0295 0.176422 4.9295 0.476922 5.053 0.723922L5.5535 1.72442C4.45 2.44092 3.68 3.62692 3.528 4.99992V5.49992H12.5V4.99992H12.472ZM6.5 3.99992C6.224 3.99992 6 3.77592 6 3.49992C6 3.22392 6.2235 3.00042 6.499 2.99992C6.4995 2.99992 6.5 2.99992 6.5005 2.99992C6.5 2.99992 6.501 2.99992 6.5005 2.99992C6.776 3.00042 7.0005 3.22392 7.0005 3.49992C7.0005 3.77592 6.776 3.99992 6.5 3.99992ZM9.5 3.99992C9.224 3.99992 9 3.77592 9 3.49992C9 3.22392 9.223 3.00042 9.499 2.99992C9.499 2.99992 9.4995 2.99992 9.5 2.99992C9.5005 2.99992 9.501 2.99992 9.5015 2.99992C9.777 3.00042 10.0005 3.22392 10.0005 3.49992C10.0005 3.77592 9.776 3.99992 9.5 3.99992Z" fill="black"/>
</svg>
