<svg width="16" height="16" viewBox="0 0 16 16" fill="none" xmlns="http://www.w3.org/2000/svg">
<g clip-path="url(#clip0_6_511)">
<path d="M14.4725 0H1.5275C0.6845 0.0015 0.0015 0.6845 0 1.5275V14.4725C0.0015 15.3155 0.6845 15.9985 1.5275 16H14.4725C15.3155 15.9985 15.9985 15.3155 16 14.4725V1.5275C15.9985 0.6845 15.3155 0.0015 14.4725 0ZM6.25 12.5225H2.7825C2.4155 12.5 2.1265 12.197 2.1265 11.8265C2.1265 11.456 2.4155 11.153 2.7805 11.1305H6.25C6.2625 11.1295 6.277 11.129 6.2915 11.129C6.6765 11.129 6.989 11.4415 6.989 11.8265C6.989 12.2115 6.6765 12.524 6.2915 12.524C6.277 12.524 6.262 12.5235 6.248 12.5225H6.25ZM5.9125 6.25C5.0105 6.2495 4.2425 5.6765 3.952 4.8745L3.9475 4.86H2.7825C2.4155 4.8375 2.1265 4.5345 2.1265 4.1635C2.1265 3.7925 2.4155 3.49 2.7805 3.4675H3.9475C4.243 2.652 5.011 2.08 5.9125 2.08C7.064 2.08 7.9975 3.0135 7.9975 4.165C7.9975 5.3165 7.064 6.25 5.9125 6.25ZM13.2175 12.5225H12.0525C11.757 13.34 10.988 13.9135 10.0845 13.9135C8.9315 13.9135 7.997 12.979 7.997 11.826C7.997 10.673 8.9315 9.7385 10.0845 9.7385C10.988 9.7385 11.757 10.3125 12.048 11.115L12.0525 11.1295H13.2175C13.5845 11.152 13.8735 11.455 13.8735 11.8255C13.8735 12.196 13.5845 12.499 13.2195 12.5215H13.2175V12.5225ZM13.2175 4.87H9.75C9.7375 4.871 9.723 4.871 9.7085 4.871C9.3235 4.871 9.011 4.5585 9.011 4.1735C9.011 3.7885 9.3235 3.476 9.7085 3.476C9.723 3.476 9.738 3.4765 9.752 3.4775H9.75H13.2175C13.5845 3.5 13.8735 3.803 13.8735 4.1735C13.8735 4.544 13.5845 4.847 13.2195 4.8695L13.2175 4.87Z" fill="black"/>
</g>
<defs>
<clipPath id="clip0_6_511">
<rect width="16" height="16" fill="white"/>
</clipPath>
</defs>
</svg>
