<svg width="16" height="16" viewBox="0 0 16 16" fill="none" xmlns="http://www.w3.org/2000/svg">
<g clip-path="url(#clip0_6_566)">
<path d="M13.6665 7.58C13.138 5.7385 12.113 4.1805 10.746 3.0105L10.733 3H12.9995V1H2.99952V3H5.91952C5.86102 4.9045 5.40502 6.689 4.63202 8.2915L4.66602 8.213C4.31952 8.0795 3.91902 8.0015 3.50002 7.9995C1.56702 7.9995 -0.000976562 9.5665 -0.000976562 11.4995C-0.000976562 13.4325 1.56602 14.9995 3.49902 14.9995C5.43202 14.9995 6.99902 13.4325 6.99902 11.4995C6.99652 10.6995 6.72352 9.9635 6.26652 9.3785L6.27252 9.386C7.19602 7.6595 7.78252 5.626 7.89102 3.4665L7.89252 3.4325C9.65452 4.3685 10.9915 5.909 11.6425 7.771L11.659 7.826C10.6735 8.3295 10.0105 9.3375 10.0105 10.5C10.0105 12.153 11.3505 13.4935 13.004 13.4935C14.6575 13.4935 15.9975 12.1535 15.9975 10.5C15.9975 9.079 15.0075 7.8895 13.6795 7.583L13.6595 7.579L13.6665 7.58Z" fill="black"/>
</g>
<defs>
<clipPath id="clip0_6_566">
<rect width="16" height="16" fill="white"/>
</clipPath>
</defs>
</svg>
