<svg width="16" height="16" viewBox="0 0 16 16" fill="none" xmlns="http://www.w3.org/2000/svg">
<path d="M9.03978 5.9957C9.03978 7.4957 7.82378 8.7117 6.32378 8.7117C4.82378 8.7117 3.60778 7.4957 3.60778 5.9957C3.60778 4.4957 4.82378 3.2797 6.32378 3.2797C7.82378 3.2797 9.03978 4.4957 9.03978 5.9957Z" fill="black"/>
<path d="M6.31578 10.0672C4.50078 10.0672 0.884277 10.9767 0.884277 12.7787V14.1387H11.7518V12.7787C11.7518 10.9767 8.13478 10.0672 6.31578 10.0672ZM11.5873 3.5237L10.4463 4.6732C10.7148 5.0377 10.8758 5.4957 10.8758 5.9912C10.8758 6.4867 10.7148 6.94469 10.4418 7.3152L10.4463 7.3092L11.5873 8.45869C12.9598 7.08619 12.9598 5.0187 11.5873 3.5237ZM13.8358 1.2627L12.7283 2.3492C13.6018 3.3077 14.1368 4.5882 14.1368 5.9932C14.1368 7.3982 13.6018 8.6787 12.7243 9.6417L12.7283 9.6372L13.8358 10.7447C15.0578 9.5352 15.8143 7.8577 15.8143 6.0037C15.8143 4.1497 15.0573 2.4717 13.8358 1.2627Z" fill="black"/>
</svg>
