<svg width="16" height="16" viewBox="0 0 16 16" fill="none" xmlns="http://www.w3.org/2000/svg">
<g clip-path="url(#clip0_21_72)">
<path d="M0.910208 3.9985C0.938877 3.9763 0.962922 3.95781 0.985117 3.93654C1.16083 3.76545 1.37353 3.68961 1.61676 3.67852C2.03847 3.65817 2.49624 3.98925 2.54526 4.44795C2.54803 4.472 2.53601 4.50344 2.52121 4.52378C2.30481 4.79753 2.2373 5.11288 2.30573 5.44489C2.37602 5.77874 2.57485 6.03584 2.88096 6.19583C3.11586 6.3179 3.37481 6.36044 3.62913 6.29108C3.94356 6.20508 4.20158 6.02566 4.35602 5.72603C4.47809 5.48928 4.51879 5.23958 4.45035 4.95289L4.38931 5.01578C3.89732 5.52627 3.14638 5.41437 2.83472 4.77903L2.82362 4.75683C2.78016 4.67175 2.73299 4.57742 2.8042 4.47847C3.04188 4.14554 3.10661 3.79227 2.95957 3.40108C2.74317 2.824 2.08563 2.53084 1.46324 2.8092C1.14511 2.95162 0.952749 3.20872 0.866742 3.54165C0.826976 3.69701 0.816803 3.8607 0.864893 4.03549C0.881539 4.02254 0.897261 4.01052 0.911133 3.99942L0.910208 3.9985Z" fill="black"/>
<path d="M3.63375 6.50656C3.62913 6.50656 3.6245 6.50471 3.6208 6.50471C3.6134 6.50471 3.60971 6.50286 3.60693 6.50471C3.59953 6.50934 3.59398 6.51488 3.58751 6.52136H3.58566C3.57919 6.52598 3.57271 6.53245 3.56624 6.53708C3.52462 6.56575 3.48393 6.59812 3.44324 6.63048C3.35261 6.70077 3.26383 6.77198 3.16118 6.81175C2.65716 7.00873 2.05419 6.66655 1.94599 6.13572C1.93766 6.0904 1.95154 6.02566 1.9802 5.98867C2.16147 5.751 2.23822 5.48003 2.19661 5.18964C2.08933 4.45443 1.37631 4.00775 0.603174 4.34992C0.300764 4.48309 0.1306 4.73741 0.041819 5.04537C-0.00534587 5.20906 -0.00996988 5.382 0.0270222 5.57344C0.0427438 5.56049 0.0575407 5.54847 0.0714127 5.53737C0.100082 5.51425 0.123202 5.49483 0.144472 5.47263C0.31741 5.28582 0.544911 5.22201 0.78536 5.20906C1.20984 5.18594 1.59456 5.47911 1.71479 5.90729C1.72681 5.9489 1.71109 6.01179 1.68519 6.04786C1.47989 6.32715 1.40405 6.64528 1.47619 6.97544C1.54832 7.30282 1.74161 7.56269 2.05604 7.71805C2.46388 7.91966 2.85507 7.87804 3.21204 7.61632C3.58474 7.34258 3.70588 6.95786 3.63652 6.50656H3.63375Z" fill="black"/>
<path d="M13.2554 6.04046C13.039 5.86105 12.9428 5.69551 12.9428 5.69458C13.0778 5.69458 13.235 5.69181 13.4172 5.68626C13.6475 5.68071 13.8547 5.65204 14.0396 5.60765C16.0464 5.259 16.0002 3.96335 16.0002 3.96335H12.941C12.941 3.96335 15.4777 3.51945 16.0002 2H12.4434C11.1949 2 9.94645 2 8.69797 2.00462C8.22909 2.0074 7.84807 2.22103 7.57803 2.61037C7.52624 2.68528 7.47353 2.71025 7.38475 2.71025C6.64583 2.70747 5.90876 2.70747 5.1717 2.7084H4.50676C4.26539 2.7084 4.17753 2.7981 4.17753 3.04225V3.31137C4.17661 3.5213 4.17661 3.7303 4.17753 3.94023C4.18031 4.31663 4.41336 4.63754 4.76663 4.76423C4.8249 4.78458 4.88223 4.82157 4.92755 4.86504C5.05332 4.98711 5.17725 5.11103 5.30117 5.23496C5.36313 5.29784 5.42509 5.35981 5.48705 5.42177C5.5037 5.43749 5.52127 5.45229 5.54347 5.47263C5.55734 5.48373 5.57214 5.49668 5.58878 5.5124V4.81232H5.75062C5.89674 4.8114 6.03916 4.81047 6.18066 4.81695C6.23429 4.8188 6.29903 4.84654 6.3388 4.88353C6.46272 5.00098 6.58387 5.12306 6.70409 5.24421C6.75866 5.29969 6.81322 5.35426 6.86871 5.40882C6.88628 5.42639 6.90662 5.44304 6.93437 5.46708C6.94732 5.47818 6.96119 5.49113 6.97783 5.50592V4.81417C7.04719 4.81417 7.11656 4.81417 7.18499 4.81417C7.40324 4.81417 7.61502 4.81417 7.8268 4.81695C7.85917 4.81787 7.89894 4.84654 7.92483 4.87151C8.02934 4.97324 8.13199 5.07682 8.23464 5.17947C8.28181 5.22663 8.3299 5.27472 8.37706 5.32189C8.41035 5.35518 8.44365 5.38755 8.48156 5.42547C8.50931 5.45229 8.5389 5.48096 8.57219 5.51332V4.8151H8.68224C8.7516 4.8151 8.81819 4.8151 8.88385 4.8151C9.19273 4.81602 9.43318 5.0426 9.43411 5.33391C9.43503 5.62152 9.19181 5.85365 8.88478 5.85457C8.5241 5.85457 8.16343 5.85457 7.80276 5.85457C7.78056 5.85457 7.75744 5.85365 7.7297 5.85088C7.71583 5.84995 7.7001 5.8481 7.68253 5.8481V5.18132C7.67606 5.1767 7.66959 5.173 7.66219 5.16837C7.65571 5.16467 7.64832 5.16005 7.64184 5.15542C7.63444 5.16745 7.62612 5.18039 7.61965 5.19242C7.60393 5.21831 7.59005 5.24421 7.56971 5.26455C7.39584 5.44211 7.22106 5.61875 7.04165 5.79076C7.00465 5.82591 6.94269 5.84995 6.89183 5.85273C6.80675 5.8555 6.72074 5.8555 6.63566 5.85457C6.5552 5.85457 6.47474 5.85365 6.39521 5.85642C6.30365 5.86012 6.27591 5.83053 6.27961 5.74082C6.28331 5.61043 6.28238 5.48003 6.28146 5.34131V5.16097C6.26666 5.17392 6.25464 5.18502 6.24354 5.19519C6.2195 5.21646 6.20285 5.23126 6.1862 5.2479C6.14551 5.2886 6.10482 5.32929 6.06321 5.36905C5.93558 5.49575 5.80703 5.62337 5.68219 5.75377C5.61283 5.82683 5.54162 5.85827 5.43804 5.85735C4.92755 5.85642 4.52896 6.25964 4.52711 6.77105C4.52711 6.80712 4.52803 6.84319 4.52896 6.87926C4.53081 6.96249 4.53173 7.04572 4.52526 7.12803C4.51509 7.2427 4.55855 7.26397 4.66398 7.26397C7.2673 7.26397 9.87709 7.09104 12.4425 7.64129C12.6358 7.68291 12.83 7.76984 13.0279 7.78094C13.1111 7.78556 13.1944 7.77354 13.2767 7.75874C14.2061 7.59043 14.8488 7.07994 15.4971 6.43258C15.499 6.43073 15.5008 6.42703 15.5008 6.42703C15.5443 6.38264 15.5711 6.34749 15.5822 6.3327C15.584 6.329 15.5868 6.3253 15.5877 6.32345C14.3633 6.70447 13.629 6.35212 13.2554 6.04231V6.04046ZM9.75502 3.68591H8.74883C8.73033 3.52222 8.7923 3.39923 8.88108 3.28917C8.9939 3.15045 9.14095 3.06815 9.31943 3.06445C9.53399 3.05982 9.74854 3.06075 9.9631 3.06167C10.0426 3.06167 10.124 3.06167 10.2035 3.06167C10.2137 3.06167 10.2239 3.06445 10.2331 3.0663C10.2359 3.0663 10.2396 3.06907 10.2433 3.06907C10.3219 3.43252 10.1194 3.68591 9.75502 3.68591Z" fill="black"/>
<path d="M12.6302 9.74059C12.3204 9.68603 12.0772 9.51402 11.9967 9.18571L12.7338 9.52326C12.8596 9.11173 12.6533 8.79082 12.2566 8.71036C11.9043 8.63915 11.5454 8.59754 11.1949 8.51893C10.8546 8.44032 10.5087 8.36264 10.1878 8.22854C9.20846 7.8207 8.25406 7.8207 7.31261 8.3275C7.26637 8.35154 7.22476 8.38391 7.17019 8.41998C7.26545 8.51061 7.34961 8.59106 7.43654 8.6706C7.41712 8.70666 7.41896 8.70297 7.40047 8.73811C7.25527 8.70667 7.10823 8.6817 6.96581 8.63915C6.93252 8.62991 6.90015 8.61881 6.86593 8.60771C6.50619 8.49581 6.15199 8.36264 5.78761 8.27756L5.78299 8.27478C5.4029 8.186 5.0339 8.24056 4.70375 8.45974C4.6797 8.47639 4.65288 8.49304 4.62884 8.51338C4.34955 8.72609 4.25707 8.96098 4.35972 9.21531C4.38284 9.27542 4.41706 9.33553 4.46237 9.39657C4.47994 9.42246 4.50029 9.44836 4.52249 9.47425C4.87761 9.88671 5.30764 10.1253 5.93743 10.0143C5.75617 10.2335 5.56659 10.3019 5.35388 10.314C5.06164 10.3315 4.8101 10.2141 4.60294 10.0227C4.53081 9.95607 4.45867 9.90151 4.38192 9.85712C4.36989 9.85065 4.35787 9.84417 4.34585 9.83862C4.34492 9.86082 3.20002 11.0196 2.64514 12.2218C2.64514 12.2218 3.33781 11.8547 4.12944 11.6901C4.39579 11.6337 4.67508 11.6004 4.94142 11.6133C4.79623 11.7992 4.62051 12.084 4.36804 12.6121C4.2062 12.9478 4.05176 13.3455 3.93986 13.794C3.93986 13.794 4.22747 13.597 4.63069 13.3575C5.22441 13.0033 5.97812 12.6472 6.52931 12.5918C6.52931 12.5918 5.70716 13.6377 5.47411 14.7891C5.44821 14.9186 5.42879 15.0499 5.41954 15.1812C5.41954 15.1812 7.00465 14.1796 7.63907 13.8865C8.14031 13.6544 10.0436 12.9617 10.5596 13.4047C10.764 13.5794 10.911 13.8227 11.0627 14.0483C11.2282 14.2906 11.2393 14.3082 11.4936 14.1565C11.8386 13.9503 12.0938 13.6571 12.2492 13.2872C12.3741 12.9857 12.2927 12.6981 12.1271 12.367C12.0957 12.4752 12.0837 12.5252 12.067 12.5742C11.9514 12.896 11.6546 13.056 11.354 12.8951C11.1422 12.7832 10.9369 12.6019 10.8093 12.4003C10.3441 11.6633 10.6724 10.7939 11.489 10.5294C11.969 10.3732 12.1946 10.5322 12.202 11.0344C12.202 11.0779 12.202 11.1232 12.2011 11.211C12.2723 11.1518 12.3306 11.1269 12.3546 11.0816C12.5239 10.7588 12.8577 10.5341 12.9067 10.1383C12.9336 9.91816 12.891 9.78498 12.6302 9.74059ZM6.22135 9.4909C5.91154 9.67123 5.57583 9.76741 5.20869 9.62499C4.94512 9.52326 4.77588 9.29391 4.81287 9.09971C4.85079 8.90087 5.11528 8.72424 5.38533 8.72978C5.49815 8.73256 5.6156 8.74643 5.72103 8.78527C5.89767 8.85371 6.07245 8.93509 6.23429 9.0322C6.49324 9.19034 6.48769 9.31888 6.22135 9.4909ZM9.75964 9.13762C9.50532 9.25415 9.02072 9.11265 8.84593 8.84169C8.796 8.75845 8.78397 8.64563 8.92269 8.56609C9.16869 8.42553 9.68935 8.54112 9.84935 8.77048C9.9409 8.90457 9.90021 9.07104 9.75964 9.13762Z" fill="black"/>
</g>
<defs>
<clipPath id="clip0_21_72">
<rect width="16" height="16" fill="white"/>
</clipPath>
</defs>
</svg>
