<svg width="16" height="16" viewBox="0 0 16 16" fill="none" xmlns="http://www.w3.org/2000/svg">
<g clip-path="url(#clip0_21_73)">
<path d="M13.3391 0H2.66092C1.19988 0 0 1.11302 0 2.48017V9.67125C0 10.7066 0.874654 12.3609 2.51063 12.3609H3.94456V15.6364C3.94456 15.9705 4.38312 16.1258 4.62211 15.8787L7.46782 12.4032H14.1916C15.2091 12.4032 16 11.6267 16 10.716V2.48017C16 1.11302 14.8001 0 13.3391 0ZM4.7798 7.38168C4.51863 7.6217 4.12442 7.74642 3.59963 7.74642C3.21774 7.74642 2.83831 7.66876 2.59686 7.53699C2.37265 7.41698 2.20511 7.23109 2.11149 6.98872C2.06714 6.88518 2.04496 6.78635 2.01293 6.58869L2.94672 6.50162C2.96397 6.65693 2.996 6.73458 3.06498 6.81929C3.17093 6.94871 3.36064 7.02166 3.58977 7.02166C3.93471 7.02166 4.14167 6.87577 4.14167 6.63575C4.14167 6.50162 4.07022 6.38632 3.95442 6.33455C3.85833 6.2922 3.74746 6.26161 3.27933 6.16042C2.86541 6.07336 2.72251 6.02159 2.55744 5.911C2.2741 5.72275 2.12134 5.43332 2.12134 5.08741C2.12134 4.42619 2.67816 4.00969 3.56267 4.00969C4.13428 4.00969 4.56791 4.17676 4.81183 4.49913C4.9227 4.64032 4.9769 4.76974 5.03603 5.01446L4.085 5.11329C4.0308 4.83327 3.86819 4.71797 3.52572 4.71797C3.25223 4.71797 3.0502 4.85916 3.0502 5.05682C3.0502 5.17683 3.11672 5.26624 3.26209 5.33213C3.32122 5.35723 3.52736 5.40429 3.8805 5.47332C4.22297 5.54156 4.43979 5.6145 4.60979 5.71804C4.93255 5.911 5.09516 6.19807 5.09516 6.5934C5.09516 6.91342 4.98676 7.18873 4.7798 7.38168ZM9.88235 7.66641H8.99784C9.02495 7.46875 9.03234 7.30403 9.03234 7.00048V6.06395C9.03234 5.96276 9.04712 5.64039 9.05697 5.50626C9.06519 5.35566 9.07094 5.2584 9.07422 5.21448C8.97567 5.55097 8.93132 5.70392 8.87219 5.85923L8.43609 7.03578C8.32276 7.33933 8.26609 7.52758 8.24392 7.66641H7.46042C7.43825 7.51581 7.38897 7.3558 7.26825 7.03107L6.85433 5.88982C6.8494 5.86864 6.71635 5.46861 6.70157 5.43332C6.66872 5.33135 6.6449 5.25997 6.63012 5.21918C6.65722 5.48979 6.67447 5.84276 6.67447 6.06865V7.00048C6.67447 7.29697 6.68432 7.48522 6.71143 7.66641H5.82692C5.85402 7.47346 5.86141 7.29227 5.86141 7.00048V4.76503C5.86141 4.50855 5.84909 4.28029 5.82692 4.09675H7.01201C7.04404 4.28029 7.07853 4.41677 7.18201 4.7015L7.8571 6.54869L8.52479 4.7015C8.62827 4.41207 8.66523 4.27559 8.69233 4.09675H9.88235C9.85525 4.30147 9.84786 4.47796 9.84786 4.76503V7.00048C9.84786 7.32756 9.85525 7.49463 9.88235 7.66641ZM13.3662 7.38168C13.1075 7.6217 12.7108 7.74642 12.186 7.74642C11.8041 7.74642 11.4272 7.66876 11.1832 7.53699C10.959 7.41698 10.794 7.23109 10.6979 6.98872C10.6535 6.88518 10.6314 6.78635 10.5993 6.58869L11.5356 6.50162C11.5528 6.65693 11.5848 6.73458 11.6514 6.81929C11.7598 6.94871 11.947 7.02166 12.1762 7.02166C12.5236 7.02166 12.7281 6.87577 12.7281 6.63575C12.7281 6.50162 12.6566 6.38632 12.5408 6.33455C12.4472 6.2922 12.3338 6.26161 11.8657 6.16042C11.4543 6.07336 11.3089 6.02159 11.1438 5.911C10.8605 5.72275 10.7077 5.43332 10.7077 5.08741C10.7077 4.42619 11.2646 4.00969 12.1491 4.00969C12.7207 4.00969 13.1568 4.17676 13.3982 4.49913C13.5115 4.64032 13.5658 4.76974 13.6224 5.01446L12.6714 5.11329C12.6172 4.83327 12.4546 4.71797 12.1146 4.71797C11.8386 4.71797 11.6366 4.85916 11.6366 5.05682C11.6366 5.17683 11.7056 5.26624 11.8485 5.33213C11.9092 5.35723 12.1162 5.40429 12.4694 5.47332C12.8094 5.54156 13.0262 5.6145 13.1962 5.71804C13.5189 5.911 13.6816 6.19807 13.6816 6.5934C13.6816 6.91342 13.5731 7.18873 13.3662 7.38168Z" fill="black"/>
</g>
<defs>
<clipPath id="clip0_21_73">
<rect width="16" height="16" fill="white"/>
</clipPath>
</defs>
</svg>
