<svg width="16" height="16" viewBox="0 0 16 16" fill="none" xmlns="http://www.w3.org/2000/svg">
<g clip-path="url(#clip0_6_354)">
<path d="M11.435 1.2925C11.36 1.7325 11.29 2.155 11.2075 2.635H14C13.935 3.298 13.8385 3.8885 13.709 4.4665L13.7275 4.3675C13.45 5.3675 13.63 6.385 13.6825 7.39C13.76 8.875 13.89 10.3575 14.005 11.94L8.97 11.6175V13.575L4.75 14.425V12.0275L2 12.8325L2.215 9.54C2.2925 8.3675 2.435 7.1925 2.4325 6.0175C2.4325 5.1925 2.24 4.3675 2.13 3.5425C2.075 3.2675 2.035 3 2 2.6475H4.695C4.715 2.1775 4.735 1.745 4.7575 1.2925H11.435ZM12.9625 0H3.5225L3.465 1.2325V1.355H0.5L0.7 2.82L0.75 3.145C0.78 3.3475 0.8025 3.53 0.8275 3.71C0.8625 3.9825 0.9075 4.25 0.95 4.51C1.0385 4.949 1.0995 5.465 1.1195 5.9915L1.12 6.01C1.12 6.76 1.0575 7.535 0.99 8.345C0.96 8.7025 0.93 9.075 0.905 9.445C0.855 10.195 0.8075 10.9275 0.7575 11.695L0.6925 12.75L0.5725 14.59L3.4525 13.75V16L10.2625 14.635V13L11.9675 13.1075L15.41 13.33L15.3025 11.8525C15.2675 11.37 15.23 10.8975 15.195 10.4325C15.1125 9.36 15.0325 8.345 14.98 7.325C14.9675 7.0925 14.95 6.8625 14.9325 6.64C14.8725 5.915 14.825 5.2875 14.9825 4.7125C15.0825 4.334 15.1645 3.879 15.212 3.4135L15.215 3.375C15.235 3.1975 15.2575 3.0175 15.285 2.8325L15.5 1.345H12.735L12.9625 0Z" fill="black"/>
<path d="M8.1275 6.45H9.6475V8.75H8.485C8.0875 8.75 8.0875 8.75 8.0875 9.1425C8.0875 10.2975 8.0875 11.4525 8.0875 12.6075C8.0875 12.775 8.0475 12.84 7.87 12.87C7.2075 12.9825 6.55 13.12 5.89 13.24C5.837 13.2495 5.775 13.256 5.7115 13.2575H5.71V2.265C5.7875 2.265 5.8575 2.265 5.9275 2.265C7.2525 2.265 8.5775 2.265 9.9025 2.265C10.09 2.265 10.135 2.32 10.115 2.5C10.0425 3.2 9.9825 3.9 9.915 4.635H8.25C8.16 4.635 8.08 4.635 8.08 4.7625C8.08 5.31 8.08 5.86 8.08 6.4075C8.095 6.4 8.1075 6.4125 8.1275 6.45Z" fill="black"/>
</g>
<defs>
<clipPath id="clip0_6_354">
<rect width="16" height="16" fill="white"/>
</clipPath>
</defs>
</svg>
