<svg width="16" height="16" viewBox="0 0 16 16" fill="none" xmlns="http://www.w3.org/2000/svg">
<path d="M14.235 5.66289L16 2.33789H0L1.87 5.66289H0.2075L2.1825 8.78039H1.35L5.5 13.6629L4.7725 11.7929H11.325L10.5975 13.6629L14.8475 8.67539H13.9225L15.7925 5.66289H14.235ZM12.3625 9.50039L11.75 10.9604H4.3625L3.6375 9.50039H4.78L3.6375 6.80539H4.8875L3.6875 3.63789H12.415L11.17 6.75039H12.4675L11.2175 9.50039H12.3625Z" fill="black"/>
<path d="M5.5575 4.26039V7.89539H8.78V8.83289H5.5575V10.3904H10.65V6.44289H7.6375V5.92289H10.7525V4.26039H5.5575Z" fill="black"/>
</svg>
