<svg width="16" height="16" viewBox="0 0 16 16" fill="none" xmlns="http://www.w3.org/2000/svg">
<g clip-path="url(#clip0_6_555)">
<path d="M0.662918 13.5665L0.042918 15.1065C0.017918 15.174 0.00341797 15.252 0.00341797 15.333C0.00341797 15.699 0.297918 15.9955 0.662918 15.9995H1.99642L3.08292 12.733H1.89642C1.34142 12.734 0.865918 13.0745 0.666418 13.5575L0.662918 13.5665Z" fill="black"/>
<path d="M13.9964 0L7.88292 12C7.66342 12.4405 7.21892 12.7395 6.70392 12.7465H4.45642L3.36292 16H7.94942C8.49042 16 8.95692 15.678 9.16592 15.215L9.16942 15.2065C10.8029 11.46 15.9959 0 15.9959 0H13.9964Z" fill="black"/>
<path d="M1.72992 9.4935C2.56342 10.0335 4.39642 10.2135 5.82992 9.907C6.78992 9.7005 7.32992 9.3335 7.32992 8.9335V7.74C6.97842 7.916 6.57042 8.0585 6.14292 8.1475L6.10992 8.1535C5.58892 8.268 4.98992 8.3335 4.37642 8.3335C4.35992 8.3335 4.34392 8.3335 4.32742 8.3335H4.32992C4.29492 8.334 4.25392 8.3345 4.21242 8.3345C3.16992 8.3345 2.17892 8.1135 1.28392 7.7155L1.32992 7.734V8.934C1.35742 9.183 1.51142 9.3905 1.72592 9.492L1.72992 9.4935Z" fill="black"/>
<path d="M7.31642 5.8735C7.31642 6.4955 5.97942 7 4.32992 7C2.68042 7 1.34342 6.4955 1.34342 5.8735C1.34342 5.2515 2.68042 4.747 4.32992 4.747C5.97942 4.747 7.31642 5.2515 7.31642 5.8735Z" fill="black"/>
</g>
<defs>
<clipPath id="clip0_6_555">
<rect width="16" height="16" fill="white"/>
</clipPath>
</defs>
</svg>
