<svg width="16" height="16" viewBox="0 0 16 16" fill="none" xmlns="http://www.w3.org/2000/svg">
<g clip-path="url(#clip0_245_124)">
<path d="M4.65347 5.98651H3.23347V7.74001H4.65347C5.19347 7.74001 5.60697 7.40001 5.60697 6.86651C5.60697 6.33301 5.20047 5.99301 4.65347 5.99301V5.98651Z" fill="black"/>
<path fill-rule="evenodd" clip-rule="evenodd" d="M16 8C16 12.4185 12.4185 16 8 16C3.5815 16 0 12.4185 0 8C0 3.5815 3.5815 0 8 0C12.4185 0 16 3.5815 16 8ZM4.22647 8.90001H3.23297V11.18H1.88647V4.82001H4.85997C6.18647 4.82001 6.99347 5.68651 6.99347 6.86651C6.99347 8.04651 6.28697 8.59301 5.59997 8.75301L7.02647 11.173H5.47297L4.22647 8.89301V8.90001ZM12.7525 6.60906L10.96 11.18H10.3665L8.57298 6.60651V11.18H7.21948V4.82001H9.11298L10.6595 8.78001L12.206 4.82001H14.1125V11.1735H12.7525V6.60906Z" fill="black"/>
</g>
<defs>
<clipPath id="clip0_245_124">
<rect width="16" height="16" fill="white"/>
</clipPath>
</defs>
</svg>
