<svg width="16" height="16" viewBox="0 0 16 16" fill="none" xmlns="http://www.w3.org/2000/svg">
<g clip-path="url(#clip0_6_534)">
<path d="M10.6665 15.5461C11.7805 15.1546 12.735 14.5586 13.529 13.7971L13.5265 13.7996C13.061 12.9816 12.62 12.3001 12.146 11.6446L12.193 11.7131C11.317 12.7486 10.755 14.0746 10.667 15.5281L10.6665 15.5461Z" fill="black"/>
<path d="M14.4265 12.7461C15.0175 11.9731 15.476 11.0626 15.747 10.0746L15.76 10.0191C14.812 10.0991 13.949 10.4011 13.2035 10.8726L13.2265 10.8591C13.64 11.4726 14.0465 12.0996 14.4265 12.7461Z" fill="black"/>
<path d="M2.3865 2.30607C5.168 3.45457 7.558 4.98257 9.6275 6.85807L9.6065 6.83957C10.733 5.15957 10.94 2.87307 10.1265 0.29307C9.482 0.10507 8.742 -0.00292969 7.9765 -0.00292969C5.797 -0.00292969 3.822 0.874071 2.3855 2.29407L2.3865 2.29307V2.30607Z" fill="black"/>
<path d="M3.6265 10.8996C3.0765 10.8971 2.537 10.8636 2.007 10.7996L2.0735 10.8061C1.4205 10.7291 0.856 10.6311 0.302 10.5046L0.4135 10.5261C1.504 13.7321 4.4875 15.9976 8 15.9996C8.4725 15.9981 8.9335 15.9546 9.381 15.8726L9.3335 15.8796C9.354 13.8746 10.1085 12.0501 11.341 10.6576L11.3335 10.6661C10.7945 9.98607 10.256 9.37957 9.6855 8.80457L9.687 8.80607C8.178 10.1126 6.196 10.9086 4.028 10.9086C3.887 10.9086 3.7465 10.9051 3.6075 10.8986L3.6265 10.8996Z" fill="black"/>
<path d="M8.7535 7.85307C6.697 5.99207 4.2825 4.47957 1.6325 3.43507L1.4735 3.37957C0.552 4.66157 0 6.26307 0 7.99307C0 7.99557 0 7.99757 0 8.00007C0.003 8.38407 0.032 8.75757 0.0855 9.12407L0.08 9.07957C0.6715 9.24157 1.3975 9.38407 2.1385 9.47807L2.22 9.48657C4.98 9.78657 7.2535 9.21307 8.7535 7.85307Z" fill="black"/>
<path d="M10.5865 7.76607C11.2115 8.38657 11.802 9.03857 12.3575 9.72057L12.3935 9.76607C13.4135 9.09957 14.6565 8.69257 15.993 8.66607H16C16 8.43957 16.0335 8.20607 16.0335 7.99957C16.0255 4.91557 14.273 2.24257 11.7115 0.91407L11.667 0.89307C12.267 3.55957 11.9 5.94607 10.5865 7.76607Z" fill="black"/>
</g>
<defs>
<clipPath id="clip0_6_534">
<rect width="16" height="16" fill="white"/>
</clipPath>
</defs>
</svg>
