<svg width="16" height="16" viewBox="0 0 16 16" fill="none" xmlns="http://www.w3.org/2000/svg">
<path d="M12.8665 10.8667H13.8665C14.133 10.8667 14.333 11.2002 14.133 11.4002L10.733 15.2667C10.4665 15.6002 9.99945 15.6002 9.73295 15.2667L6.33296 11.4002C6.13296 11.2002 6.26646 10.8667 6.59946 10.8667H7.59946C7.79946 10.8667 7.93296 10.7332 7.93296 10.5332V6.93318C7.93296 6.53318 8.19945 6.26668 8.59945 6.26668H11.866C12.266 6.26668 12.5325 6.53318 12.5325 6.93318V10.5332C12.5325 10.7332 12.6665 10.8667 12.8665 10.8667ZM4.46645 10.2002C4.73295 9.60018 5.26646 9.13368 5.93296 8.93368V6.86718C5.93296 5.40068 7.13295 4.20068 8.59945 4.20068H9.19946V1.20068C9.19946 0.80068 8.93296 0.53418 8.53296 0.53418H2.53296C2.13296 0.53418 1.86646 0.80068 1.86646 1.20068V11.1342C1.86646 11.5342 2.13296 11.8007 2.53296 11.8007H4.33296C4.19946 11.2672 4.19946 10.7337 4.46645 10.2002Z" fill="black"/>
</svg>
