<svg width="16" height="16" viewBox="0 0 16 16" fill="none" xmlns="http://www.w3.org/2000/svg">
<g clip-path="url(#clip0_6_462)">
<path d="M16.0001 2.3935H12.9666V2.107H7.12011C7.12011 2.0535 7.13361 2.007 7.13361 1.9535C7.13361 0.8735 6.26011 0 5.18711 0C4.11411 0 3.23361 0.8735 3.23361 1.9535C3.23361 2.567 3.52011 3.107 3.96711 3.467C3.46711 3.8605 3.05361 4.2405 3.00711 4.4605C2.87361 5.0405 3.21361 10.3005 3.00711 10.9005C2.80061 11.5005 1.12061 14.5005 1.12061 14.5005V16.0005H4.12711C4.12711 16.0005 3.82061 14.507 3.68711 14.247C3.68711 14.247 5.62711 12.2805 5.69361 12.1335C5.76011 11.98 6.22711 10.687 6.22711 10.687C6.22711 10.687 7.27361 11.927 7.30061 12.3405C7.32711 12.754 7.30061 16.007 7.30061 16.007H10.8671C10.8671 16.007 10.8871 15.167 10.6206 14.9335C10.3471 14.7 9.55411 14.3735 9.55411 14.3735C9.55411 14.3735 9.72061 10.6135 9.72061 10.38C9.72061 10.1465 8.4471 8.3065 8.4471 8.3065V6.3265C8.4471 6.3265 9.22061 6.5265 9.56061 6.5065C9.90061 6.4865 11.2606 3.96 11.2606 3.96H12.9871V3.58H16.0206V2.4065L16.0001 2.3935ZM9.50661 4.46L8.90661 3.9065H9.86011L9.50661 4.46Z" fill="black"/>
</g>
<defs>
<clipPath id="clip0_6_462">
<rect width="16" height="16" fill="white"/>
</clipPath>
</defs>
</svg>
