<svg width="16" height="16" viewBox="0 0 16 16" fill="none" xmlns="http://www.w3.org/2000/svg">
<g clip-path="url(#clip0_6_568)">
<path d="M8 1.54C11.568 1.54 14.46 4.432 14.46 8C14.46 11.568 11.568 14.46 8 14.46C4.432 14.46 1.54 11.568 1.54 8C1.544 4.434 4.4345 1.544 8 1.54ZM8 0C3.5815 0 0 3.5815 0 8C0 12.4185 3.5815 16 8 16C12.4185 16 16 12.4185 16 8C16 3.5815 12.4185 0 8 0Z" fill="black"/>
<path d="M8 4.72C9.8115 4.72 11.28 6.1885 11.28 8C11.28 9.8115 9.8115 11.28 8 11.28C6.1885 11.28 4.72 9.8115 4.72 8C4.724 6.19 6.1905 4.724 8 4.72ZM8 3.18C5.338 3.18 3.18 5.338 3.18 8C3.18 10.662 5.338 12.82 8 12.82C10.662 12.82 12.82 10.662 12.82 8C12.82 5.338 10.662 3.18 8 3.18Z" fill="black"/>
<path d="M9.64 8C9.64 8.9055 8.906 9.64 8 9.64C7.094 9.64 6.36 8.906 6.36 8C6.36 7.094 7.0945 6.36 8 6.36C8.9055 6.36 9.64 7.0945 9.64 8Z" fill="black"/>
</g>
<defs>
<clipPath id="clip0_6_568">
<rect width="16" height="16" fill="white"/>
</clipPath>
</defs>
</svg>
