<svg width="16" height="16" viewBox="0 0 16 16" fill="none" xmlns="http://www.w3.org/2000/svg">
<g clip-path="url(#clip0_6_455)">
<path d="M0 0.913086V2.66659H1.8065V15.0666H3.333C3.5105 14.2711 4.21 13.6856 5.0465 13.6856C5.883 13.6856 6.5825 14.2711 6.7575 15.0551L6.7595 15.0666H9.253C9.4305 14.2711 10.13 13.6856 10.9665 13.6856C11.803 13.6856 12.5025 14.2711 12.6775 15.0551L12.6795 15.0666H14.2195V2.66659H15.9995V0.913086H0ZM10.7535 12.3131L8.147 9.70659C7.7625 9.88759 7.3115 9.99309 6.8365 9.99309C5.1025 9.99309 3.6965 8.58709 3.6965 6.85309C3.6965 6.31109 3.8335 5.80159 4.0755 5.35659L4.0675 5.37309L5.7875 7.09309C5.958 7.26359 6.194 7.36909 6.454 7.36909C6.9745 7.36909 7.397 6.94709 7.397 6.42609C7.397 6.16559 7.2915 5.93009 7.121 5.75959L5.3745 4.06609C5.807 3.82709 6.3225 3.68659 6.871 3.68659C8.605 3.68659 10.011 5.09259 10.011 6.82659C10.011 7.31559 9.899 7.77909 9.6995 8.19159L9.7075 8.17309L12.314 10.7796L10.7535 12.3131Z" fill="black"/>
</g>
<defs>
<clipPath id="clip0_6_455">
<rect width="16" height="16" fill="white"/>
</clipPath>
</defs>
</svg>
