<svg width="16" height="16" viewBox="0 0 16 16" fill="none" xmlns="http://www.w3.org/2000/svg">
<g clip-path="url(#clip0_6_525)">
<path d="M10.6665 0.953492C10.0675 0.771992 9.37951 0.667492 8.66701 0.666992C4.90601 0.687492 1.81601 3.53699 1.41601 7.19449L1.41301 7.22699H-0.000488281L2.47951 10.7405L4.95301 7.22699H3.65301C4.04001 4.77199 6.13401 2.91449 8.66501 2.90049H8.66651C9.15351 2.90199 9.62401 2.96999 10.07 3.09599L10.0335 3.08699C12.1995 3.71099 13.757 5.67499 13.757 8.00299C13.757 9.76899 12.861 11.325 11.4985 12.2425L11.4805 12.254C10.688 12.7655 9.71951 13.07 8.68051 13.07C7.40301 13.07 6.23251 12.6105 5.32601 11.8475L5.33401 11.854L3.89401 13.5275C5.17151 14.635 6.85001 15.31 8.68651 15.31C10.1885 15.31 11.585 14.8585 12.7475 14.084L12.7205 14.101C14.697 12.7665 15.9795 10.535 15.9795 8.00349C15.9795 4.67349 13.7595 1.86149 10.719 0.966992L10.6665 0.953492Z" fill="black"/>
<path d="M6.75351 11.5465H10.9735V9.77299L9.42001 7.99949L10.9735 6.22599V4.45249H6.75351V6.22599L8.34701 7.98599L6.75351 9.77249V11.5465Z" fill="black"/>
</g>
<defs>
<clipPath id="clip0_6_525">
<rect width="16" height="16" fill="white"/>
</clipPath>
</defs>
</svg>
