<svg width="16" height="16" viewBox="0 0 16 16" fill="none" xmlns="http://www.w3.org/2000/svg">
<g clip-path="url(#clip0_6_390)">
<path d="M13.8801 3.03382C14.2316 2.73932 14.4536 2.30032 14.4536 1.80932C14.4536 0.92932 13.7401 0.21582 12.8601 0.21582C11.9801 0.21582 11.2666 0.92932 11.2666 1.80932C11.2666 2.20032 11.4076 2.55882 11.6416 2.83632L11.6396 2.83382C11.9326 3.18432 12.3701 3.40532 12.8591 3.40532C13.2486 3.40532 13.6056 3.26482 13.8821 3.03182L13.8801 3.03382Z" fill="black"/>
<path d="M14.3736 4.70682L13.5671 6.53332L12.0336 3.92682C11.9746 3.82582 11.8991 3.74182 11.8091 3.67532L11.8071 3.67382L8.22062 0.92732C8.07362 0.81682 7.88812 0.75082 7.68712 0.75082C7.64012 0.75082 7.59362 0.75432 7.54862 0.76132L7.55362 0.76082L3.61362 1.42732L3.92012 3.18082L7.47362 2.55432L9.26712 3.92082L7.02062 6.58732C6.80212 6.80682 6.66712 7.10932 6.66712 7.44332C6.66712 7.44482 6.66712 7.44632 6.66712 7.44782V7.44982C6.66712 7.86382 6.87712 8.22932 7.19612 8.44482L7.20012 8.44732L9.67362 9.87382L7.00712 11.8738L8.04062 13.2073L11.7541 10.3873C11.9591 10.2283 12.0896 9.98232 12.0896 9.70582C12.0896 9.68532 12.0891 9.66482 12.0876 9.64432V9.64682C12.0616 9.35932 11.8951 9.11532 11.6586 8.98232L11.6541 8.98032L10.0806 8.13382L11.4671 6.48032L12.9136 8.93382C13.0701 9.19882 13.3546 9.37382 13.6796 9.37382H13.7271C14.0696 9.35182 14.3581 9.14132 14.4916 8.84632L14.4941 8.84082L16.0006 5.42082L14.3736 4.70682Z" fill="black"/>
<path d="M5.77362 8.16032L4.04712 11.0668L0.0471191 14.4003L1.14062 15.7338L5.27412 12.2938C5.34962 12.2333 5.41162 12.1603 5.45862 12.0773L5.46062 12.0738L6.99412 9.49382C6.41862 9.23782 5.97962 8.76232 5.77862 8.17632L5.77362 8.16032Z" fill="black"/>
</g>
<defs>
<clipPath id="clip0_6_390">
<rect width="16" height="16" fill="white"/>
</clipPath>
</defs>
</svg>
