<svg width="16" height="16" viewBox="0 0 16 16" fill="none" xmlns="http://www.w3.org/2000/svg">
<g clip-path="url(#clip0_6_294)">
<path d="M12.9735 1.72669C11.6215 0.645688 9.8865 -0.0078125 7.999 -0.0078125C3.625 -0.0078125 0.0705 3.50269 0 7.86019V7.92019C0.025 9.51719 1.3255 10.8022 2.9265 10.8022C3.241 10.8022 3.5435 10.7527 3.8275 10.6607L3.807 10.6667C4.3915 10.4837 4.871 10.2982 5.3355 10.0867L5.2535 10.1202C4.9625 9.70769 4.788 9.19419 4.788 8.64019C4.788 8.58169 4.79 8.52369 4.794 8.46569L4.7935 8.47369C3.5335 8.86019 1.8935 8.04019 1.8935 8.04019C4.32 5.60669 6.14 6.21369 6.14 6.21369C9.1735 3.18019 12.2065 3.78719 12.2065 3.78719C12.2065 3.78719 12.813 6.82069 9.78 9.85369C9.78 9.85369 10.3865 11.6737 7.96 14.1002C7.96 14.1002 7.14 12.4602 7.5265 11.2002C7.4735 11.2042 7.411 11.2062 7.3485 11.2062C6.798 11.2062 6.2885 11.0317 5.872 10.7347L5.88 10.7402C5.7045 11.1187 5.519 11.5982 5.3605 12.0892L5.333 12.1867C5.244 12.4537 5.193 12.7612 5.193 13.0807C5.193 14.6747 6.47 15.9702 8.057 16.0002H8.06C12.4565 15.9712 16.009 12.4007 16.009 8.00019C16.009 5.46469 14.8295 3.20469 12.9895 1.73919L12.9735 1.72669Z" fill="black"/>
<path d="M10.3865 6.82019C10.518 6.67019 10.598 6.47219 10.598 6.25519C10.598 5.78019 10.213 5.39519 9.738 5.39519C9.5215 5.39519 9.3235 5.47519 9.172 5.60769L9.173 5.60669C9.0415 5.75669 8.9615 5.95469 8.9615 6.17169C8.9615 6.64669 9.3465 7.03169 9.8215 7.03169C10.038 7.03169 10.236 6.95169 10.3875 6.81919L10.3865 6.82019Z" fill="black"/>
</g>
<defs>
<clipPath id="clip0_6_294">
<rect width="16" height="16" fill="white"/>
</clipPath>
</defs>
</svg>
