<svg width="16" height="16" viewBox="0 0 16 16" fill="none" xmlns="http://www.w3.org/2000/svg">
<g clip-path="url(#clip0_6_247)">
<path d="M8 0C3.5815 0 0 3.5815 0 8C0 12.4185 3.5815 16 8 16C12.4185 16 16 12.4185 16 8C16 3.5815 12.4185 0 8 0ZM7.24 8.0665L5.2935 9.033C5.2665 9.042 5.2475 9.067 5.2475 9.0965C5.2475 9.126 5.2665 9.151 5.293 9.1595H7.3335C7.371 9.163 7.4005 9.1945 7.4005 9.2325C7.4005 9.235 7.4005 9.2375 7.4 9.24L7.0535 10.8395C7.045 10.8695 7.0185 10.891 6.987 10.893H1.507C1.506 10.893 1.505 10.893 1.504 10.893C1.467 10.893 1.4375 10.863 1.4375 10.8265C1.4375 10.8195 1.4385 10.8125 1.4405 10.806L1.7605 9.473C1.759 9.466 1.758 9.458 1.758 9.4495C1.758 9.441 1.759 9.433 1.7605 9.4255V9.4265L6.007 7.0465C6.009 7.0395 6.0105 7.0315 6.0105 7.023C6.0105 7.0145 6.009 7.0065 6.007 6.999L6.047 6.826C6.047 6.824 6.0475 6.8215 6.0475 6.819C6.0475 6.7805 6.018 6.7495 5.981 6.746H4.154C4.126 6.7475 4.1025 6.7665 4.094 6.792L4.0005 7.2725C3.997 7.3025 3.9715 7.326 3.941 7.326H2.194C2.156 7.323 2.126 7.2915 2.126 7.253C2.126 7.248 2.1265 7.2435 2.1275 7.239L2.414 5.946C2.469 5.481 2.859 5.123 3.3335 5.1195H7.527C8.0935 5.1195 8.1935 5.5195 8.1405 5.926L7.847 7.2595C7.799 7.623 7.566 7.9225 7.247 8.0635L7.24 8.0665ZM12.1535 7.8865C12.1455 7.8965 12.141 7.9095 12.141 7.923C12.141 7.9365 12.1455 7.9495 12.1535 7.96L13.44 10.7935C13.4455 10.803 13.449 10.8145 13.449 10.827C13.449 10.864 13.419 10.8935 13.3825 10.8935C13.3815 10.8935 13.381 10.8935 13.38 10.8935H11.22C11.1935 10.893 11.1705 10.877 11.16 10.854L10.3935 9.2335C10.3845 9.2065 10.3595 9.1875 10.33 9.1875C10.3005 9.1875 10.2755 9.2065 10.267 9.233L9.9335 10.827C9.925 10.857 9.8985 10.8785 9.867 10.8805H7.9335C7.933 10.8805 7.9325 10.8805 7.932 10.8805C7.895 10.8805 7.8655 10.8505 7.8655 10.814C7.8655 10.8095 7.866 10.8045 7.867 10.8L9.047 5.147C9.057 5.118 9.0825 5.0975 9.1135 5.0935H11.0475C11.048 5.0935 11.0485 5.0935 11.049 5.0935C11.086 5.0935 11.1155 5.1235 11.1155 5.16C11.1155 5.1645 11.115 5.1695 11.114 5.174L10.8205 6.567C10.819 6.572 10.8185 6.5775 10.8185 6.583C10.8185 6.62 10.8485 6.6495 10.885 6.6495C10.908 6.6495 10.928 6.638 10.94 6.6205L12.18 5.134C12.188 5.13 12.197 5.128 12.2065 5.128C12.216 5.128 12.2255 5.1305 12.2335 5.1345H14.493C14.5295 5.135 14.5585 5.1645 14.5585 5.201C14.5585 5.219 14.551 5.2355 14.5395 5.2475L12.1535 7.8865Z" fill="black"/>
</g>
<defs>
<clipPath id="clip0_6_247">
<rect width="16" height="16" fill="white"/>
</clipPath>
</defs>
</svg>
