<svg width="16" height="16" viewBox="0 0 16 16" fill="none" xmlns="http://www.w3.org/2000/svg">
<g clip-path="url(#clip0_14_354)">
<path d="M8.00032 10.2813C9.08992 10.2813 9.97321 9.44318 9.97321 8.40933C9.97321 7.37548 9.08992 6.53738 8.00032 6.53738C6.91072 6.53738 6.02743 7.37548 6.02743 8.40933C6.02743 9.44318 6.91072 10.2813 8.00032 10.2813Z" fill="black"/>
<path fill-rule="evenodd" clip-rule="evenodd" d="M10.3372 1.14766L10.6192 0.684148C10.8043 0.380082 10.573 -5.43712e-08 10.2029 0L5.79719 3.80598e-07C5.42715 3.80598e-07 5.19588 0.380082 5.3809 0.684148L5.66292 1.14763C2.38478 2.09627 0 4.98854 0 8.4093C0 12.6015 3.58172 16 8 16C12.4183 16 16 12.6015 16 8.4093C16 4.98858 13.6153 2.09634 10.3372 1.14766ZM7.58377 4.30443C7.76879 4.6085 8.23134 4.6085 8.41636 4.30443L8.44627 4.25528C10.6668 4.4676 12.4001 6.24638 12.4001 8.40928C12.4001 10.7152 10.43 12.5845 7.99975 12.5845C5.56949 12.5845 3.59937 10.7152 3.59937 8.40928C3.59937 6.24619 5.333 4.46728 7.55383 4.25522L7.58377 4.30443ZM6.25789 2.12542L6.93387 3.23636C6.46695 3.32247 6.02092 3.46408 5.60372 3.65366L4.95594 2.58907C5.36807 2.39464 5.80377 2.23846 6.25789 2.12542ZM9.0662 3.23646L9.74223 2.12545C10.1963 2.23848 10.6319 2.39464 11.044 2.58904L10.3961 3.65381C9.97898 3.46423 9.53303 3.32261 9.0662 3.23646ZM11.2239 4.11776C11.7626 4.48275 12.2296 4.93678 12.6012 5.45718L13.723 4.84264C13.2342 4.138 12.6048 3.529 11.8726 3.05162L11.2239 4.11776ZM4.1273 3.05166C3.39514 3.52904 2.76572 4.13803 2.27696 4.84267L3.39841 5.45702C3.77003 4.93658 4.23715 4.48255 4.77588 4.11756L4.1273 3.05166ZM13.0695 6.25394C13.3315 6.80792 13.4956 7.41263 13.541 8.04826H14.8359C14.7864 7.18986 14.5612 6.37585 14.1939 5.63802L13.0695 6.25394ZM1.80612 5.63806C1.43881 6.37587 1.21362 7.18987 1.16406 8.04826H2.45854C2.50387 7.41256 2.66801 6.80779 2.93006 6.25376L1.80612 5.63806ZM13.5238 8.96045H14.822C14.7471 9.80643 14.5014 10.6063 14.1176 11.3288L12.9957 10.7143C13.2727 10.1748 13.4555 9.58377 13.5238 8.96045ZM12.5013 11.4967L13.6256 12.1126C13.1326 12.7855 12.509 13.3658 11.7896 13.8203L11.1417 12.7555C11.6673 12.4127 12.1276 11.9864 12.5013 11.4967ZM10.3052 13.2051L10.9539 14.2713C10.1962 14.6156 9.36137 14.8316 8.48065 14.8896V13.6597C9.12676 13.6071 9.74129 13.4496 10.3052 13.2051ZM5.04601 14.2712C5.80371 14.6156 6.63855 14.8316 7.51927 14.8896V13.6597C6.87312 13.6072 6.25857 13.4497 5.69464 13.2053L5.04601 14.2712ZM2.37439 12.1126C2.86733 12.7855 3.49093 13.3657 4.21033 13.8202L4.8581 12.7557C4.33246 12.4129 3.8721 11.9866 3.49833 11.4969L2.37439 12.1126ZM3.00384 10.7144L1.88238 11.3288C1.49862 10.6063 1.25286 9.80641 1.17796 8.96045H2.47572C2.544 9.58384 2.72681 10.1749 3.00384 10.7144Z" fill="black"/>
</g>
<defs>
<clipPath id="clip0_14_354">
<rect width="16" height="16" fill="white"/>
</clipPath>
</defs>
</svg>
