<svg width="16" height="16" viewBox="0 0 16 16" fill="none" xmlns="http://www.w3.org/2000/svg">
<g clip-path="url(#clip0_6_506)">
<path d="M8.71355 0.713867C4.96955 0.735367 1.89155 3.55937 1.47005 7.19287L1.46705 7.22687H0.0605469L2.52705 10.7269L5.00055 7.22687H3.70055C4.09405 4.78637 6.18505 2.94537 8.70605 2.94537C11.504 2.94537 13.7725 5.21387 13.7725 8.01187C13.7725 10.8099 11.504 13.0784 8.70605 13.0784C7.43355 13.0784 6.27105 12.6094 5.38105 11.8349L5.38705 11.8399L3.94055 13.5064C5.21155 14.6124 6.88305 15.2864 8.71255 15.2864C12.737 15.2864 15.999 12.0239 15.999 7.99987C15.999 3.97587 12.7375 0.714367 8.71355 0.713867Z" fill="black"/>
</g>
<defs>
<clipPath id="clip0_6_506">
<rect width="16" height="16" fill="white"/>
</clipPath>
</defs>
</svg>
