<svg width="16" height="16" viewBox="0 0 16 16" fill="none" xmlns="http://www.w3.org/2000/svg">
<path d="M14.2 3.6C14.2 2.9335 13.6665 2.4665 13.0665 2.4665C12.4 2.4665 11.933 3 11.933 3.6V8H10.4665V1.1335C10.4665 0.467 9.93299 0 9.33299 0C8.73299 0 8.19949 0.5335 8.19949 1.1335V8H6.79949V3C6.79949 2.3335 6.26599 1.8665 5.66599 1.8665C4.99949 1.8665 4.53249 2.4 4.53249 3V10.6665L2.73249 8.8665C2.26599 8.4 1.46599 8.4 0.998988 8.8665C0.531988 9.333 0.532488 10.133 0.998988 10.6L4.59899 15C4.99899 15.6665 5.73249 16 6.53249 16H10.599C12.5325 16 14.1325 14.4 14.1325 12.4665L14.2 3.6Z" fill="black"/>
</svg>
