<svg width="16" height="16" viewBox="0 0 16 16" fill="none" xmlns="http://www.w3.org/2000/svg">
<g clip-path="url(#clip0_6_580)">
<path d="M1.16825e-05 6.4535V8.3335C1.16825e-05 10.1135 3.58001 11.5535 8.00001 11.5535C12.42 11.5535 16 10.1135 16 8.3335V6.4535C14.28 7.8335 11.1265 8.547 8.00001 8.547C4.87351 8.547 1.72001 7.8335 1.16825e-05 6.4535Z" fill="black"/>
<path d="M1.16825e-05 10.9V12.78C1.16825e-05 14.56 3.58001 16 8.00001 16C12.42 16 16 14.56 16 12.78V10.9C14.28 12.28 11.1265 12.9935 8.00001 12.9935C4.87351 12.9935 1.72001 12.28 1.16825e-05 10.9Z" fill="black"/>
<path d="M8.00001 7.2135C9.20001 7.2135 10.34 7.107 11.36 6.9135C11.0135 6.6735 10.78 6.2735 10.78 5.8135V5.22H10.18C9.44651 5.22 8.84651 4.62 8.84651 3.8865V1.933C8.84651 1.473 9.08001 1.0665 9.43301 0.8265C8.97301 0.793 8.49301 0.773 7.99951 0.773C3.57951 0.773 -0.000488281 2.213 -0.000488281 3.993C-0.000488281 5.773 3.58001 7.2135 8.00001 7.2135Z" fill="black"/>
<path d="M14.1465 1.9335C14.1465 1.9335 14.093 1.907 14.0665 1.8935V0H12.113V1.9335H10.1795V3.887H12.113V5.8135H14.0665V3.887H16V1.9335H14.1465Z" fill="black"/>
</g>
<defs>
<clipPath id="clip0_6_580">
<rect width="16" height="16" fill="white"/>
</clipPath>
</defs>
</svg>
