<svg width="16" height="16" viewBox="0 0 16 16" fill="none" xmlns="http://www.w3.org/2000/svg">
<g clip-path="url(#clip0_6_496)">
<path d="M15.58 8.28005C15.3095 7.33655 14.96 6.51605 14.524 5.75055L14.5535 5.80655L13.687 6.66655L12.7405 5.72655L13.814 4.66655C13.6005 4.37305 13.374 4.09305 13.1475 3.82655L11.641 5.33305L10.6675 4.36655L12.1675 2.87305C11.9165 2.64355 11.645 2.42305 11.361 2.21805L11.3345 2.19955L10.281 3.27305L9.33452 2.32655L10.208 1.45305C9.49852 1.04605 8.67802 0.696047 7.81452 0.446047L7.73452 0.426047C6.80402 0.154047 5.73552 -0.00195312 4.63002 -0.00195312C4.56352 -0.00195312 4.49752 -0.00145313 4.43102 -0.000453125H4.44102C2.49552 0.0585469 0.860023 1.32255 0.251023 3.06755L0.241023 3.09955L5.07452 1.99955L5.58102 2.50605L5.00102 0.892547L7.48102 3.37905L5.00752 8.34555L5.06102 8.39905L8.90102 4.79905L12.4745 8.36555L11.541 9.45205L9.33452 7.23855L8.66802 7.90505L10.1345 9.37855L9.28102 10.332L7.76102 8.81205L6.22102 10.352L3.16102 7.29205L3.66752 6.47855L1.83402 4.66505L0.840523 4.99155L0.000523438 4.15155V4.43805C-0.000476563 4.49305 -0.000976562 4.55805 -0.000976562 4.62305C-0.000976562 5.72455 0.153023 6.79005 0.440523 7.79955L0.420523 7.71805C1.51352 11.532 4.45452 14.475 8.18702 15.5515L8.26702 15.5715C9.19652 15.8435 10.264 16 11.368 16C11.4355 16 11.503 15.9995 11.5705 15.9985H11.5605H11.847L8.98702 13.1385L12.7805 8.66505L15.0405 10.9315L13.387 10.265L13.8605 10.7385L11.607 13.652L13.467 15.512C14.9395 14.7655 15.944 13.2855 16 11.566V11.5585C16.001 11.5035 16.0015 11.4385 16.0015 11.3735C16.0015 10.272 15.8475 9.20655 15.56 8.19705L15.58 8.27855V8.28005Z" fill="black"/>
<path d="M5.50652 3.54655L5.42652 3.46655L2.96652 4.28005L4.24652 5.56005L5.50652 3.54655Z" fill="black"/>
</g>
<defs>
<clipPath id="clip0_6_496">
<rect width="16" height="16" fill="white"/>
</clipPath>
</defs>
</svg>
