<svg width="16" height="16" viewBox="0 0 16 16" fill="none" xmlns="http://www.w3.org/2000/svg">
<g clip-path="url(#clip0_6_210)">
<path d="M0 0V12.3935H16V0H0ZM9.7135 7.2H7.767C7.3435 8.364 6.247 9.18 4.96 9.18C3.314 9.18 1.98 7.846 1.98 6.2C1.98 4.554 3.314 3.22 4.96 3.22C6.2475 3.22 7.344 4.036 7.7605 5.1795L7.767 5.2H9.7135V7.2ZM14 10.4865H12V7.4665H14V10.4865ZM14 4.9335H12V1.9135H14V4.9335Z" fill="black"/>
<path d="M5.9735 6.2C5.9735 6.7525 5.526 7.2 4.9735 7.2C4.421 7.2 3.9735 6.7525 3.9735 6.2C3.9735 5.6475 4.421 5.2 4.9735 5.2C5.526 5.2 5.9735 5.6475 5.9735 6.2Z" fill="black"/>
<path d="M1.3335 16H4.68L5.82 14.06H1.3335V16Z" fill="black"/>
<path d="M11.32 16H14.6665V14.06H10.18L11.32 16Z" fill="black"/>
</g>
<defs>
<clipPath id="clip0_6_210">
<rect width="16" height="16" fill="white"/>
</clipPath>
</defs>
</svg>
