<svg width="16" height="16" viewBox="0 0 16 16" fill="none" xmlns="http://www.w3.org/2000/svg">
<path d="M15.1601 5.74644L12.3601 2.41294C12.0741 2.07594 11.6721 1.84444 11.2166 1.78094L11.2071 1.77994L8.22061 1.41344C8.15461 1.40394 8.07811 1.39844 8.00061 1.39844C7.92311 1.39844 7.84661 1.40394 7.77211 1.41444L7.78061 1.41344L4.79411 1.77994C4.32861 1.84494 3.92711 2.07594 3.64311 2.41044L3.64111 2.41294L0.841109 5.74644C0.729609 5.87794 0.662109 6.04944 0.662109 6.23644C0.662109 6.42344 0.729609 6.59494 0.842109 6.72744L0.841109 6.72644L7.42111 14.3664C7.56111 14.5224 7.76311 14.6199 7.98761 14.6199C8.21211 14.6199 8.41461 14.5224 8.55361 14.3669L15.1341 6.72644C15.2536 6.59294 15.3271 6.41544 15.3271 6.22044C15.3271 6.04044 15.2646 5.87494 15.1601 5.74494L15.1611 5.74644H15.1601Z" fill="black"/>
</svg>
