<svg width="16" height="16" viewBox="0 0 16 16" fill="none" xmlns="http://www.w3.org/2000/svg">
<g clip-path="url(#clip0_6_372)">
<path d="M8.27978 0C3.86128 0 0.279785 3.5815 0.279785 8C0.279785 12.4185 3.86128 16 8.27978 16C9.52629 16 10.5533 15.3335 10.5533 14.24C10.5533 12.6 10.0998 12.0865 10.0998 11.1265C10.0998 7.553 15.7198 9.733 15.7198 5.68C15.7198 3 12.3398 0 8.27978 0ZM3.38629 10.2535C2.70579 10.2385 2.15979 9.6835 2.15979 9.0005C2.15979 8.3085 2.72079 7.747 3.41329 7.747C4.10579 7.747 4.66628 8.308 4.66678 9C4.66678 9.692 4.10579 10.254 3.41329 10.254C3.40379 10.254 3.39579 10.254 3.38629 10.2535ZM4.27979 6.2535C4.27779 6.2535 4.27529 6.2535 4.27329 6.2535C3.58129 6.2535 3.01979 5.6925 3.01979 5C3.01979 4.3075 3.58079 3.7465 4.27329 3.7465C4.96529 3.7465 5.52678 4.3075 5.52678 5C5.52678 5.69 4.96879 6.2495 4.27979 6.2535ZM8.27978 4.2535C8.27778 4.2535 8.27529 4.2535 8.27329 4.2535C7.58129 4.2535 7.01978 3.6925 7.01978 3C7.01978 2.3075 7.58079 1.7465 8.27329 1.7465C8.96529 1.7465 9.52679 2.3075 9.52679 3C9.52279 3.687 8.96729 4.243 8.28029 4.2465L8.27978 4.2535ZM12.2798 6.2535C12.2778 6.2535 12.2753 6.2535 12.2733 6.2535C11.5813 6.2535 11.0198 5.6925 11.0198 5C11.0198 4.3075 11.5808 3.7465 12.2733 3.7465C12.9653 3.7465 13.5268 4.3075 13.5268 5C13.5268 5.69 12.9688 6.2495 12.2798 6.2535Z" fill="black"/>
</g>
<defs>
<clipPath id="clip0_6_372">
<rect width="16" height="16" fill="white"/>
</clipPath>
</defs>
</svg>
