<svg width="16" height="16" viewBox="0 0 16 16" fill="none" xmlns="http://www.w3.org/2000/svg">
<g clip-path="url(#clip0_6_1833)">
<path d="M11.8857 0C12.2644 0 12.5719 0.285928 12.5719 0.639439V2.55983C12.5719 2.9123 12.2644 3.19927 11.8857 3.19927C11.5069 3.19927 11.1995 2.9123 11.1995 2.55983V0.639439C11.1995 0.285928 11.5069 0 11.8857 0ZM4.11376 0C4.49361 0 4.79994 0.285928 4.79994 0.639439V2.55983C4.79994 2.9123 4.49361 3.19927 4.11376 3.19927C3.73502 3.19927 3.42869 2.9123 3.42869 2.55983V0.639439C3.42869 0.285928 3.73502 0 4.11376 0ZM16 7.68002V14.7201C16 15.4271 15.3862 16 14.6287 16H1.37181C0.614335 16 0.000556967 15.4271 0.000556967 14.7201V7.68002H16ZM9.82769 1.06677V2.56087C9.82769 3.62141 10.7489 4.48075 11.8851 4.48075C13.0213 4.48075 13.942 3.62141 13.942 2.56087V1.06677H14.6282C15.3857 1.06677 15.9994 1.63967 15.9994 2.34669V6.4001H0V2.34669C0 1.63967 0.613778 1.06677 1.37125 1.06677H2.05632V2.56087C2.05632 3.62141 2.97699 4.48075 4.1132 4.48075C5.24942 4.48075 6.17064 3.62141 6.17064 2.56087V1.06677H9.82769Z" fill="black"/>
</g>
<defs>
<clipPath id="clip0_6_1833">
<rect width="16" height="16" fill="white"/>
</clipPath>
</defs>
</svg>
