<svg width="16" height="16" viewBox="0 0 16 16" fill="none" xmlns="http://www.w3.org/2000/svg">
<g clip-path="url(#clip0_6_387)">
<path d="M10.3942 8.40021H5.59859C5.61483 9.44004 5.69482 10.4163 5.82294 11.3043C6.59283 11.2161 7.37897 11.1681 8.14887 11.1681C8.81471 11.1681 9.49618 11.2083 10.162 11.2719C10.2901 10.4001 10.3707 9.43164 10.3864 8.40801L10.3942 8.40021Z" fill="black"/>
<path d="M8.15669 11.9601C7.41867 11.9601 6.68125 12.0081 5.95948 12.0879C6.4166 14.464 7.23461 16 7.99669 16C8.75877 16 9.57678 14.4562 10.0339 12.0561C9.42461 12.0003 8.79907 11.9679 8.15729 11.9679L8.15669 11.9601Z" fill="black"/>
<path d="M15.9916 7.59979C15.9194 6.11955 15.446 4.74372 14.6761 3.58389C13.6097 4.0879 12.3183 4.43171 10.9548 4.63212C11.0913 5.58434 11.1713 6.59236 11.1875 7.60039L15.9916 7.59979Z" fill="black"/>
<path d="M14.6846 12.4161C15.4545 11.2563 15.9278 9.87985 16 8.40021H11.196C11.1797 9.40043 11.0997 10.4085 10.9632 11.3685C12.3268 11.5683 13.6097 11.9121 14.6846 12.4161Z" fill="black"/>
<path d="M10.1692 4.73592C9.5034 4.80012 8.82192 4.83972 8.15608 4.83972C7.35431 4.83972 6.57599 4.79172 5.83016 4.70352C5.70204 5.58374 5.62144 6.55936 5.6058 7.59979H10.4014C10.3852 6.56776 10.3052 5.60774 10.1771 4.73592H10.1692Z" fill="black"/>
<path d="M10.8351 3.8479C12.0783 3.67209 13.241 3.36008 14.2034 2.93587C13.0323 1.51204 11.3806 0.504013 9.504 0.151804C10.1055 0.991825 10.5548 2.31966 10.8435 3.8557L10.8351 3.8479Z" fill="black"/>
<path d="M5.16492 12.2001C3.9379 12.3999 2.80711 12.7281 1.88504 13.1763C3.0477 14.5444 4.65967 15.5122 6.4966 15.8566C5.90294 15.0244 5.45363 13.7121 5.16492 12.2001Z" fill="black"/>
<path d="M14.1553 13.0401C13.2169 12.6243 12.0862 12.3279 10.8351 12.1521C10.5464 13.6881 10.0971 15.016 9.49558 15.856C11.38 15.496 13.0323 14.488 14.2034 13.0641C14.1871 13.0641 14.1715 13.0479 14.1553 13.0401Z" fill="black"/>
<path d="M8.15669 4.0399C8.79005 4.0399 9.41559 4.0081 10.0333 3.9439C9.57618 1.54384 8.75817 0 7.99609 0C7.23401 0 6.42442 1.52824 5.95887 3.9121C6.68065 3.9919 7.41927 4.0399 8.15669 4.0399Z" fill="black"/>
<path d="M4.79621 8.40021H0.000601438C0.0727792 9.92845 0.578023 11.3445 1.39604 12.5283C2.43059 12.0003 3.69791 11.6325 5.04522 11.4081C4.90087 10.4403 4.82087 9.41604 4.80463 8.39181L4.79621 8.40021Z" fill="black"/>
<path d="M5.16492 3.7999C5.45363 2.28786 5.89451 0.975624 6.496 0.144004C4.65967 0.487812 3.0477 1.46404 1.88444 2.82427C2.80651 3.27248 3.9379 3.59949 5.16492 3.7999Z" fill="black"/>
<path d="M4.79621 7.59979C4.81245 6.58396 4.89245 5.55974 5.0368 4.59191C3.85008 4.39991 2.75117 4.0957 1.83692 3.69609C1.67633 3.62409 1.53197 3.55209 1.38762 3.47229C0.569603 4.65612 0.0721777 6.07215 0 7.60039H4.80403L4.79621 7.59979Z" fill="black"/>
</g>
<defs>
<clipPath id="clip0_6_387">
<rect width="16" height="16" fill="white"/>
</clipPath>
</defs>
</svg>
