<svg width="16" height="16" viewBox="0 0 16 16" fill="none" xmlns="http://www.w3.org/2000/svg">
<g clip-path="url(#clip0_6_219)">
<path d="M15.3325 11.2925C13.98 14.5 10.3525 16.375 7.24995 15.9375C7.28995 15.7525 7.31995 15.565 7.36995 15.3825C7.70328 14.1325 8.04329 12.8825 8.38995 11.6325C8.41995 11.5395 8.48945 11.467 8.57795 11.433L8.57995 11.4325C9.44145 11.298 10.1835 10.864 10.711 10.2425L10.715 10.2375C10.763 10.1705 10.841 10.1275 10.9285 10.1275C10.954 10.1275 10.9785 10.131 11.002 10.138L11 10.1375L15.3325 11.2925Z" fill="black"/>
<path d="M-4.88274e-05 7.19999L2.95245 7.99999C3.40745 8.12249 3.85995 8.25 4.31495 8.3675C4.44995 8.4025 4.52495 8.44749 4.54995 8.60499C4.69345 9.47899 5.15495 10.2245 5.80995 10.7345L5.81745 10.74C5.85045 10.7745 5.87045 10.8215 5.87045 10.873C5.87045 10.8855 5.86945 10.8975 5.86695 10.909V10.908C5.54195 12.1363 5.21445 13.363 4.88445 14.588C4.82195 14.8155 4.74695 15.0355 4.66945 15.2955C3.08695 14.566 1.81545 13.3895 0.987951 11.928L0.966951 11.888C0.327451 10.7925 -0.0500488 9.476 -0.0500488 8.07199C-0.0500488 7.76499 -0.0320488 7.462 0.00295117 7.16449L-4.88274e-05 7.19999Z" fill="black"/>
<path d="M16 8.77L13.95 8.23499C13.2 8.04 12.47 7.83999 11.73 7.65249C11.5815 7.6375 11.4655 7.51699 11.4575 7.36849V7.36749C11.3145 6.54049 10.8865 5.83199 10.2805 5.33199L10.275 5.32749C10.196 5.27099 10.1455 5.17999 10.1455 5.07649C10.1455 5.03549 10.1535 4.99599 10.1685 4.95999L10.1675 4.96199C10.5325 3.62033 10.8933 2.27616 11.25 0.929495C11.295 0.756995 11.3725 0.719495 11.5325 0.799495C12.5845 1.315 13.469 2.0205 14.174 2.8785L14.185 2.892C14.4765 3.246 14.7575 3.639 15.011 4.051L15.0375 4.097C15.4965 4.85299 15.821 5.74199 15.9535 6.69299L15.9575 6.72949C16.04 7.32449 16.03 7.932 16.055 8.5345C16.0465 8.621 16.027 8.701 15.998 8.7755L16 8.77Z" fill="black"/>
<path d="M8.78495 0.0474949C8.68995 0.432495 8.60245 0.797495 8.50245 1.17249C8.22245 2.21249 7.92995 3.24749 7.65245 4.28749C7.63395 4.42899 7.52195 4.53949 7.38145 4.55499H7.37995C6.56745 4.69399 5.86895 5.10549 5.36645 5.69049L5.36245 5.69499C5.28995 5.7885 5.17795 5.84749 5.05195 5.84749C4.99545 5.84749 4.94145 5.83549 4.89245 5.81399L4.89495 5.81499C3.69995 5.49999 2.49995 5.18749 1.30245 4.87249C1.10495 4.81999 0.909951 4.75249 0.714951 4.69249C1.77495 1.99999 5.12245 -0.367505 8.78495 0.0474949Z" fill="black"/>
</g>
<defs>
<clipPath id="clip0_6_219">
<rect width="16" height="16" fill="white"/>
</clipPath>
</defs>
</svg>
