<svg width="16" height="16" viewBox="0 0 16 16" fill="none" xmlns="http://www.w3.org/2000/svg">
<path d="M14.886 1.05551C15.4895 0.82355 16.1095 1.35365 15.9836 1.99379L13.5558 14.3309C13.4395 14.9218 12.7591 15.1948 12.2737 14.8453L7.89476 11.6925L7.39015 12.6468C6.98719 13.4087 5.8444 13.1193 5.8444 12.2552V9.7742C5.8444 9.75463 5.84553 9.73553 5.84771 9.71693C5.86493 9.51223 5.95684 9.31225 6.12568 9.1631L9.56405 6.12575L4.45245 9.11988C4.25112 9.23781 4.00976 9.26388 3.78833 9.1916L0.569054 8.14085C-0.169495 7.89979 -0.19594 6.85319 0.529482 6.57433L14.886 1.05551Z" fill="black"/>
</svg>
