<svg width="16" height="16" viewBox="0 0 16 16" fill="none" xmlns="http://www.w3.org/2000/svg">
<g clip-path="url(#clip0_6_579)">
<path d="M10 8.08339C9.988 8.08289 9.9745 8.08289 9.9605 8.08289C8.9185 8.08289 8.074 8.92739 8.074 9.96939C8.074 11.0114 8.9185 11.8559 9.9605 11.8559C10.9905 11.8559 11.828 11.0304 11.847 10.0049V10.0029C11.847 9.99289 11.8475 9.98089 11.8475 9.96939C11.8475 8.94139 11.0255 8.10539 10.0025 8.08339H10Z" fill="black"/>
<path d="M11.9135 0.776391V-0.0371094L8.4735 1.95639L11.9135 3.94289V3.12939H13.64V12.8159H11.82V15.1759H16V0.775891L11.9135 0.776391Z" fill="black"/>
<path d="M4.0865 12.8699H2.36V3.12989H4.1935V0.776391H0V15.2299H4.0865V16.0364L7.5265 14.0499L4.0865 12.0634V12.8699Z" fill="black"/>
<path d="M6.0335 4.15639C4.9915 4.15639 4.147 5.00089 4.147 6.04289C4.147 7.08489 4.9915 7.92939 6.0335 7.92939C7.0755 7.92939 7.92 7.08489 7.92 6.04289C7.92 6.04039 7.92 6.03839 7.92 6.03589C7.92 4.99739 7.0785 4.15639 6.04 4.15639C6.0375 4.15639 6.036 4.15639 6.0335 4.15639Z" fill="black"/>
</g>
<defs>
<clipPath id="clip0_6_579">
<rect width="16" height="16" fill="white"/>
</clipPath>
</defs>
</svg>
