<svg width="16" height="16" viewBox="0 0 16 16" fill="none" xmlns="http://www.w3.org/2000/svg">
<path d="M12.6665 4.66651C12.6665 2.82651 11.173 1.33301 9.33301 1.33301H6.66651C4.82651 1.33301 3.33301 2.82651 3.33301 4.66651V6.00001H12.6665V4.66651Z" fill="black"/>
<path d="M12.6665 10V8.66651L10.6665 10.6665L9.33301 10H6.66651L5.33301 10.6665L3.33301 8.66651V10C3.33301 10 2.66651 11.3335 1.99951 11.3335C1.99951 11.3335 2.59951 11.92 3.77951 11.987C4.52601 13.567 6.13301 14.667 7.99951 14.667C9.86601 14.667 11.473 13.567 12.2195 11.987C13.3995 11.9205 13.9995 11.3335 13.9995 11.3335C13.333 11.3335 12.6665 10 12.6665 10ZM6.33351 12L7.00001 10.6665H9.00001L9.66651 12H6.33351Z" fill="black"/>
</svg>
