<svg width="16" height="16" viewBox="0 0 16 16" fill="none" xmlns="http://www.w3.org/2000/svg">
<g clip-path="url(#clip0_6_370)">
<path d="M12.5734 12.3135C12.2039 12.772 11.6419 13.0635 11.0124 13.0635C9.90789 13.0635 9.01239 12.168 9.01239 11.0635C9.01239 9.95899 9.90789 9.06349 11.0124 9.06349C11.4859 9.06349 11.9214 9.22798 12.2639 9.50348L12.2599 9.50048C12.7199 9.86998 13.0124 10.4325 13.0124 11.0635C13.0124 11.5385 12.8469 11.9745 12.5704 12.3175L12.5734 12.3135Z" fill="black"/>
<path d="M8.61989 8.62648L9.28639 4.29998L15.9999 4.35348V2.66698L8.13989 2.60048L0.0463867 0.333984V2.06748L5.99989 3.76098L5.44639 8.22098C5.43989 8.27398 5.43589 8.33548 5.43589 8.39748C5.43589 8.78898 5.58389 9.14598 5.82739 9.41599L5.82639 9.41448L4.86639 16.001H6.55289L6.97939 13.1345L7.55289 16.001H9.25289L7.99939 9.66748C8.33539 9.42748 8.56589 9.05898 8.61889 8.63498L8.61939 8.62748L8.61989 8.62648Z" fill="black"/>
<path d="M12.2599 9.50048C11.9214 9.22848 11.4859 9.06349 11.0124 9.06349C9.90789 9.06349 9.01239 9.95899 9.01239 11.0635C9.01239 12.168 9.90789 13.0635 11.0124 13.0635C11.6419 13.0635 12.2039 12.7725 12.5704 12.3175L12.5734 12.3135C12.8469 11.9745 13.0124 11.538 13.0124 11.0635C13.0124 10.4325 12.7204 9.86998 12.2639 9.50348L12.2599 9.50048Z" fill="black"/>
</g>
<defs>
<clipPath id="clip0_6_370">
<rect width="16" height="16" fill="white"/>
</clipPath>
</defs>
</svg>
