<svg width="16" height="16" viewBox="0 0 16 16" fill="none" xmlns="http://www.w3.org/2000/svg">
<g clip-path="url(#clip0_6_590)">
<path d="M0 12.9665H10.4265V15.993H0V12.9665Z" fill="black"/>
<path d="M5.9665 0H0V3.0265H3.76C4.2135 1.833 4.98 0.793 5.9665 0Z" fill="black"/>
<path d="M0 6.4865V9.513H4.4665C3.88 8.6195 3.4865 7.593 3.3465 6.4865H0Z" fill="black"/>
<path d="M16 12.32L14.2535 9.58C15.307 8.5665 15.967 7.1535 15.967 5.58C15.967 2.52 13.4805 0.0335 10.4205 0.0335C7.3605 0.0335 4.874 2.52 4.874 5.58C4.874 8.64 7.3605 11.1265 10.4205 11.1265C11.0405 11.1265 11.6405 11.02 12.2005 10.8265L13.9805 13.613L16 12.32ZM7.2735 5.58C7.2735 3.8465 8.687 2.4335 10.42 2.4335C12.153 2.4335 13.5665 3.847 13.5665 5.58C13.5665 7.313 12.153 8.7265 10.42 8.7265C8.687 8.7265 7.2735 7.313 7.2735 5.58Z" fill="black"/>
</g>
<defs>
<clipPath id="clip0_6_590">
<rect width="16" height="16" fill="white"/>
</clipPath>
</defs>
</svg>
