<svg width="16" height="16" viewBox="0 0 16 16" fill="none" xmlns="http://www.w3.org/2000/svg">
<g clip-path="url(#clip0_6_479)">
<path d="M9.15349 14.666L5.38699 10.8995C5.26699 10.779 5.19299 10.613 5.19299 10.4295C5.19299 10.246 5.26699 10.08 5.38699 9.95952C5.50749 9.83952 5.67349 9.76552 5.85699 9.76552C6.04049 9.76552 6.20649 9.83952 6.32699 9.95952L8.21349 11.846L8.68699 11.3725L5.85349 8.54602C5.73249 8.42502 5.65749 8.25752 5.65749 8.07252C5.65749 7.70302 5.95699 7.40302 6.32699 7.40302C6.51199 7.40302 6.67899 7.47802 6.80049 7.59902L9.62699 10.4325L10.1005 9.95902L7.74049 7.59902C7.62049 7.47852 7.54649 7.31252 7.54649 7.12902C7.54649 6.94552 7.62049 6.77952 7.74049 6.65902C7.85999 6.54502 8.02199 6.47502 8.20049 6.47502C8.38249 6.47502 8.54699 6.54802 8.66749 6.66602L12.434 10.4395L12.9075 9.96602L11.494 8.55252C11.372 8.43152 11.297 8.26402 11.297 8.07902C11.297 7.89402 11.3725 7.72652 11.494 7.60552C11.6145 7.48552 11.7805 7.41152 11.964 7.41152C12.1475 7.41152 12.3135 7.48552 12.434 7.60552L14.3205 9.49202C14.765 10.073 15.0555 10.7935 15.1195 11.5775L15.1205 11.592C15.67 10.5485 15.995 9.31202 16.0005 8.00052V7.99902C16.0005 3.58052 12.419 -0.000976562 8.00049 -0.000976562C3.58199 -0.000976562 0.000488281 3.58052 0.000488281 7.99902C0.000488281 12.4175 3.58199 15.999 8.00049 15.999H8.00399C8.90699 15.999 9.77449 15.8475 10.5825 15.569L10.527 15.5855C9.99899 15.3415 9.54549 15.0335 9.15099 14.663L9.15349 14.666Z" fill="black"/>
</g>
<defs>
<clipPath id="clip0_6_479">
<rect width="16" height="16" fill="white"/>
</clipPath>
</defs>
</svg>
