<svg width="16" height="16" viewBox="0 0 16 16" fill="none" xmlns="http://www.w3.org/2000/svg">
<path d="M13.5999 3.26689H13.5334C12.9334 3.26689 12.4669 3.73339 12.4669 4.33339V5.53339H11.8004V3.33339C11.7339 2.73339 11.2669 2.33339 10.6669 2.39989C10.1334 2.46639 9.73338 2.86639 9.73338 3.33339V5.53339H9.06688V2.46689C9.06688 1.86689 8.60038 1.40039 8.00038 1.40039C7.40038 1.40039 6.93388 1.86689 6.93388 2.46689V5.53339H6.26738V3.13339C6.26738 2.53339 5.80088 2.06689 5.20088 2.06689C4.60088 2.06689 4.20088 2.53339 4.20088 3.13339V8.99989H3.46738V6.66639C3.46738 6.53289 3.40088 6.46639 3.26738 6.46639C3.20088 6.46639 3.13388 6.53289 3.06738 6.59989L2.06738 7.53339C1.66738 7.93339 1.40088 8.46689 1.40088 8.99989V10.1999C1.40088 10.7334 1.60088 11.1999 2.00088 11.5334L4.33438 13.7334C4.86788 14.2669 5.66788 14.5334 6.40088 14.5334H11.9344C13.4679 14.5334 14.7344 13.2669 14.7344 11.7334V4.33339C14.6679 3.73339 14.1999 3.26689 13.5999 3.26689Z" fill="black"/>
</svg>
