<svg width="16" height="16" viewBox="0 0 16 16" fill="none" xmlns="http://www.w3.org/2000/svg">
<g clip-path="url(#clip0_6_376)">
<path d="M2.71258 11.985C2.65408 11.9805 2.58608 11.978 2.51758 11.978C2.44908 11.978 2.38108 11.9805 2.31358 11.9855L2.32258 11.985C2.28258 11.998 2.23708 12.0055 2.18908 12.0055C1.96408 12.0055 1.77808 11.8375 1.75008 11.6195V11.6175C1.71858 11.4505 1.57458 11.3265 1.40108 11.3265C1.37358 11.3265 1.34608 11.3295 1.32058 11.3355L1.32308 11.335C1.03558 11.35 0.743082 11.335 0.408082 11.335C0.500582 11.03 0.600582 10.765 0.693082 10.5C1.76308 7.45168 2.83225 4.40418 3.90058 1.35752C3.93108 1.17952 4.08408 1.04602 4.26808 1.04602C4.28758 1.04602 4.30658 1.04752 4.32508 1.05052L4.32308 1.05002C5.20058 1.06752 6.07308 1.07252 6.95558 1.05002C6.99208 1.04452 7.03458 1.04102 7.07758 1.04102C7.35258 1.04102 7.59608 1.17352 7.74908 1.37802L7.75058 1.38002C7.83258 1.48102 7.91408 1.57152 8.00058 1.65752C8.05408 1.62352 8.10108 1.58652 8.14308 1.54502C8.47058 1.06752 8.94558 1.04502 9.47058 1.04502C10.2456 1.07502 11.0231 1.06502 11.8006 1.04502C11.8151 1.04302 11.8316 1.04202 11.8486 1.04202C12.0271 1.04202 12.1751 1.17102 12.2056 1.34052L12.2061 1.34252C13.2361 4.40252 14.2752 7.45502 15.3236 10.5C15.4161 10.765 15.5036 11.03 15.6111 11.3425C15.2611 11.3425 14.9611 11.3275 14.6636 11.3425C14.5391 11.3555 14.4311 11.419 14.3596 11.5115L14.3586 11.5125C14.0586 12.0375 14.0661 12.0425 13.3886 11.9525C13.5661 11.5275 13.7336 11.1125 13.9236 10.7025C13.9486 10.65 14.0761 10.6325 14.1736 10.625C14.3011 10.6125 14.4236 10.625 14.6161 10.625C14.4536 10.14 14.3111 9.70252 14.1611 9.27002C13.3536 6.92002 12.5386 4.57252 11.7411 2.21752C11.6976 1.96902 11.4836 1.78252 11.2261 1.78252C11.2006 1.78252 11.1756 1.78452 11.1511 1.78802L11.1541 1.78752C9.07658 1.79752 7.00158 1.78002 4.94408 1.75002C4.91908 1.74552 4.89058 1.74302 4.86108 1.74302C4.62408 1.74302 4.42708 1.91252 4.38458 2.13702L4.38408 2.14002C3.43408 4.88002 2.47325 7.61585 1.50158 10.3475C1.47658 10.4225 1.45658 10.4975 1.42908 10.5975C1.48158 10.6125 1.52158 10.64 1.55408 10.6325C1.98408 10.545 2.19408 10.755 2.31908 11.1325C2.45208 11.473 2.58508 11.7535 2.73358 12.024L2.71408 11.985H2.71258Z" fill="black"/>
<path d="M16.0001 12.5C15.9501 12.5175 15.8926 12.53 15.8326 12.535H15.8301C15.7836 12.519 15.7296 12.51 15.6736 12.51C15.4106 12.51 15.1951 12.713 15.1751 12.971V12.9725C15.1251 13.1825 14.9876 13.2225 14.7926 13.2225C14.2926 13.2225 13.7926 13.2075 13.3101 13.2225C13.1801 13.2425 13.0711 13.318 13.0061 13.423L13.0051 13.425C12.8851 13.645 12.8226 13.895 12.7076 14.1175C12.6481 14.2085 12.5541 14.2725 12.4451 14.292L12.4426 14.2925C12.3341 14.3025 12.2076 14.3085 12.0801 14.3085C11.9526 14.3085 11.8261 14.3025 11.7016 14.2915L11.7176 14.2925C11.4851 14.27 11.3501 14.3525 11.3101 14.58C11.2551 14.9 11.0601 14.9675 10.7526 14.965C8.92758 14.95 7.10008 14.965 5.27258 14.965C5.02258 14.965 4.84008 14.915 4.77258 14.6575C4.73608 14.4385 4.54758 14.2735 4.32108 14.2735C4.27158 14.2735 4.22408 14.2815 4.17958 14.296L4.18258 14.295C3.65258 14.4025 3.34508 14.175 3.23008 13.6625C3.14258 13.28 2.90258 13.175 2.52508 13.205C2.33058 13.218 2.10358 13.2255 1.87508 13.2255C1.64658 13.2255 1.41958 13.218 1.19458 13.2035L1.22508 13.205C1.12258 13.205 0.955082 13.1175 0.932582 13.0375C0.815082 12.635 0.577582 12.4625 0.162582 12.5375C0.103082 12.534 0.047582 12.5205 -0.00341797 12.499L8.20314e-05 12.5C0.077582 12.2975 0.137582 12.1075 0.225082 11.93C0.271082 11.8715 0.339082 11.8325 0.416582 11.825C0.534082 11.8075 0.667582 11.825 0.780082 11.825C0.818582 11.8125 0.863082 11.8055 0.909082 11.8055C1.13908 11.8055 1.32758 11.983 1.34508 12.2085V12.21C1.39758 12.44 1.54508 12.5125 1.78758 12.51C3.14925 12.4883 4.51092 12.48 5.87258 12.485C5.88258 12.4855 5.89458 12.486 5.90608 12.486C6.09058 12.486 6.25408 12.393 6.35108 12.252L6.35208 12.25C6.80708 11.6575 7.26958 11.0725 7.73208 10.5C7.81208 10.3975 7.89708 10.3025 7.99708 10.1825L9.49708 11.9525C8.81708 12.17 8.36708 11.905 8.04458 11.2875C7.61958 11.7925 7.22208 12.25 6.88208 12.75C6.70858 13.036 6.39908 13.224 6.04558 13.224C6.00558 13.224 5.96608 13.2215 5.92758 13.217L5.93208 13.2175C5.15708 13.18 4.37708 13.2175 3.60208 13.2175H3.21208C3.34458 13.5 3.44458 13.75 3.57458 14C3.63408 14.0605 3.71658 14.098 3.80808 14.098C3.81408 14.098 3.81958 14.098 3.82558 14.0975C4.60558 14.0975 5.38458 14.0975 6.16458 14.0975C8.11708 14.0975 10.0696 14.0975 12.0221 14.0975C12.6346 14.0975 12.4971 14.155 12.7271 13.61C12.7796 13.485 12.8221 13.36 12.8846 13.175H12.4996C11.2271 13.175 9.95458 13.145 8.68458 13.1875C8.66608 13.1885 8.64408 13.189 8.62208 13.189C8.18708 13.189 7.80508 12.9645 7.58508 12.6245L7.58208 12.6195L8.05208 12.1195C8.30958 12.562 8.72708 12.4995 9.12708 12.4995C10.8221 12.4995 12.5196 12.4995 14.2146 12.4995C14.2356 12.5025 14.2596 12.5045 14.2836 12.5045C14.5031 12.5045 14.6891 12.3585 14.7486 12.158L14.7496 12.1545C14.8721 11.8195 15.3621 11.612 15.6396 11.8195C15.8221 11.947 15.8751 12.25 16.0001 12.5ZM4.82508 14.2975C4.89258 14.6275 5.02008 14.7675 5.36008 14.765C7.13508 14.765 8.91258 14.765 10.6876 14.7875C11.0801 14.7875 11.1326 14.7375 11.1676 14.2875L4.82508 14.2975Z" fill="black"/>
<path d="M8.00008 9.17252C7.36508 9.98752 6.75008 10.7525 6.16008 11.5475C5.99508 11.824 5.69708 12.006 5.35708 12.006C5.31958 12.006 5.28208 12.004 5.24558 11.9995L5.25008 12C4.68758 11.9625 4.12008 11.9825 3.55758 12C3.54908 12.001 3.53858 12.0015 3.52858 12.0015C3.39258 12.0015 3.27908 11.9065 3.25058 11.7795L3.25008 11.7775C3.02508 11.195 2.78508 10.62 2.56758 10.0275C2.54808 9.96702 2.53658 9.89752 2.53658 9.82502C2.53658 9.75252 2.54808 9.68302 2.56908 9.61752L2.56758 9.62252C3.34425 7.27752 4.12508 4.93418 4.91008 2.59252C4.94158 2.42052 5.09058 2.29202 5.26908 2.29202C5.28508 2.29202 5.30108 2.29302 5.31658 2.29502H5.31458C7.14792 2.31002 8.98125 2.31002 10.8146 2.29502C10.8256 2.29352 10.8386 2.29252 10.8516 2.29252C11.0016 2.29252 11.1261 2.40052 11.1516 2.54302L11.1521 2.54502C11.9421 4.92002 12.7396 7.29502 13.5271 9.66502C13.5411 9.70902 13.5491 9.75902 13.5491 9.81152C13.5491 9.87952 13.5356 9.94452 13.5111 10.0035L13.5121 10C13.2821 10.59 13.0346 11.1725 12.8021 11.75C12.7661 11.8795 12.6491 11.973 12.5101 11.973C12.4951 11.973 12.4801 11.972 12.4651 11.9695H12.4666C11.8916 11.957 11.3141 11.9495 10.7416 11.9695C10.7246 11.971 10.7046 11.972 10.6846 11.972C10.4651 11.972 10.2711 11.8655 10.1506 11.7015L10.1491 11.6995C9.53158 10.9495 8.89908 10.217 8.28158 9.47702C8.19658 9.39952 8.10908 9.30452 7.99908 9.17202L8.00008 9.17252ZM8.00008 8.88752L8.18258 9.09752C8.87758 9.92502 9.57508 10.7475 10.2601 11.58C10.3711 11.7335 10.5496 11.832 10.7516 11.832C10.7686 11.832 10.7856 11.8315 10.8026 11.83H10.8006C11.3006 11.81 11.8006 11.8125 12.3156 11.8175C12.3301 11.8195 12.3466 11.821 12.3636 11.821C12.5221 11.821 12.6556 11.715 12.6976 11.57L12.6981 11.5675C12.8956 11.0525 13.1231 10.5475 13.3231 10.0325C13.3421 9.97702 13.3531 9.91302 13.3531 9.84652C13.3531 9.78002 13.3421 9.71602 13.3216 9.65602L13.3226 9.66002C12.5701 7.35252 11.7926 5.04752 11.0251 2.75002C11.0011 2.59502 10.8686 2.47752 10.7086 2.47752C10.6941 2.47752 10.6801 2.47852 10.6661 2.48052H10.6676C8.91258 2.48052 7.15758 2.48052 5.40258 2.48052C5.38908 2.47852 5.37358 2.47752 5.35808 2.47752C5.19908 2.47752 5.06708 2.59252 5.04058 2.74352L5.04008 2.74552C4.27258 5.04302 3.50008 7.35052 2.73258 9.66052C2.71258 9.72002 2.70058 9.78902 2.70058 9.86052C2.70058 9.93202 2.71208 10.001 2.73358 10.065L2.73208 10.0605C2.91708 10.5605 3.13208 11.0455 3.32458 11.543C3.35808 11.6885 3.48608 11.795 3.63908 11.795C3.65158 11.795 3.66358 11.7945 3.67608 11.793H3.67458C4.27958 11.7805 4.88458 11.793 5.48958 11.778C5.63858 11.766 5.76908 11.697 5.86158 11.5935C6.23408 11.1435 6.58458 10.6755 6.94708 10.2155C7.30958 9.75552 7.64008 9.35002 8.00008 8.88752Z" fill="black"/>
</g>
<defs>
<clipPath id="clip0_6_376">
<rect width="16" height="16" fill="white"/>
</clipPath>
</defs>
</svg>
