<svg width="16" height="16" viewBox="0 0 16 16" fill="none" xmlns="http://www.w3.org/2000/svg">
<g clip-path="url(#clip0_6_341)">
<path d="M13.8602 8C13.8572 7.6585 13.8282 7.3265 13.7752 7.0025L13.7802 7.04L15.8202 5.54L14.0402 2.46L11.7267 3.4735C11.2502 3.0825 10.6987 2.7585 10.1012 2.5275L10.0602 2.5135L9.78019 0H6.22019L5.94019 2.5135C5.30169 2.7585 4.75019 3.0825 4.26269 3.482L4.27319 3.4735L1.95969 2.46L0.179688 5.54L2.21969 7.04C2.17169 7.3265 2.14269 7.6585 2.13969 7.997V8C2.14269 8.3415 2.17169 8.6735 2.22469 8.9975L2.21969 8.96L0.179688 10.46L1.95969 13.54L4.27319 12.5265C4.74969 12.9175 5.30119 13.2415 5.89869 13.4725L5.93969 13.4865L6.21969 16H9.77969L10.0597 13.4865C10.6982 13.2415 11.2497 12.9175 11.7372 12.518L11.7267 12.5265L14.0402 13.54L15.8202 10.46L13.7802 8.96C13.8282 8.6735 13.8572 8.3415 13.8602 8.003V8ZM8.00019 10.1665C6.80369 10.1665 5.83369 9.1965 5.83369 8C5.83369 6.8035 6.80369 5.8335 8.00019 5.8335C9.19669 5.8335 10.1667 6.8035 10.1667 8C10.1627 9.195 9.19519 10.163 8.00019 10.1665Z" fill="black"/>
</g>
<defs>
<clipPath id="clip0_6_341">
<rect width="16" height="16" fill="white"/>
</clipPath>
</defs>
</svg>
