<svg width="16" height="16" viewBox="0 0 16 16" fill="none" xmlns="http://www.w3.org/2000/svg">
<g clip-path="url(#clip0_6_303)">
<path d="M15.9065 1.82666C15.4855 1.37616 14.895 1.08866 14.237 1.06666H14.233C14.203 1.06516 14.168 1.06466 14.1325 1.06466C13.5765 1.06466 13.0655 1.25616 12.6615 1.57716L12.6665 1.57366C12 0.987163 11.1065 0.700163 10.52 1.25366L9.9465 1.80016C11.1905 2.45166 12.204 3.39466 12.921 4.54116L12.9395 4.57316L13.333 4.22666C13.913 3.68016 13.7065 2.80666 13.1795 2.10666C13.453 1.90266 13.7975 1.77966 14.1705 1.77966C14.653 1.77966 15.0875 1.98466 15.3915 2.31216L15.3925 2.31316C15.456 2.38266 15.5475 2.42666 15.649 2.42666H15.653C15.747 2.42666 15.8315 2.38816 15.893 2.32666C15.961 2.26216 16.0035 2.17116 16.0035 2.07016C16.0035 1.97566 15.967 1.89016 15.9065 1.82666Z" fill="black"/>
<path d="M13 8.54666C13 12.1367 10.09 15.0467 6.5 15.0467C2.91 15.0467 0 12.1367 0 8.54666C0 4.95666 2.91 2.04666 6.5 2.04666C10.09 2.04666 13 4.95666 13 8.54666Z" fill="black"/>
</g>
<defs>
<clipPath id="clip0_6_303">
<rect width="16" height="16" fill="white"/>
</clipPath>
</defs>
</svg>
