<svg width="16" height="16" viewBox="0 0 16 16" fill="none" xmlns="http://www.w3.org/2000/svg">
<g clip-path="url(#clip0_220_79)">
<path fill-rule="evenodd" clip-rule="evenodd" d="M0 8C0 3.5815 3.5815 0 8 0C12.4185 0 16 3.5815 16 8C16 12.4185 12.4185 16 8 16C3.5815 16 0 12.4185 0 8ZM5.13632 3.33345C4.50768 3.88908 4.19566 4.65016 4.20025 5.61668H6.56798C6.57715 5.31319 6.67122 5.07039 6.85018 4.88829C7.03372 4.70152 7.26774 4.60814 7.55224 4.60814C7.83673 4.60814 8.06846 4.68518 8.24741 4.83926C8.42637 4.98868 8.51585 5.18712 8.51585 5.43459C8.51585 5.62602 8.48373 5.79178 8.41949 5.93185C8.35984 6.06726 8.24741 6.205 8.08222 6.34508C7.91703 6.48515 7.67384 6.65324 7.35263 6.84935C6.90295 7.12016 6.5978 7.43533 6.4372 7.79486C6.28119 8.14972 6.22154 8.65399 6.25824 9.30768L6.27889 9.66487H8.55715V9.19562C8.55715 8.89212 8.63745 8.63998 8.79805 8.43921C8.95865 8.23376 9.27068 7.99097 9.73413 7.71082C10.2481 7.40265 10.6197 7.06413 10.8492 6.69527C11.0832 6.32173 11.2002 5.88049 11.2002 5.37155C11.2002 4.7879 11.0557 4.2813 10.7666 3.85173C10.4821 3.42216 10.0806 3.09065 9.56206 2.85719C9.04354 2.61906 8.43325 2.5 7.73119 2.5C6.63451 2.5 5.76956 2.77782 5.13632 3.33345ZM7.63981 13.5C8.45394 13.5 9.11392 12.8284 9.11392 12C9.11392 11.1716 8.45394 10.5 7.63981 10.5C6.82567 10.5 6.16569 11.1716 6.16569 12C6.16569 12.8284 6.82567 13.5 7.63981 13.5Z" fill="black"/>
</g>
<defs>
<clipPath id="clip0_220_79">
<rect width="16" height="16" fill="white"/>
</clipPath>
</defs>
</svg>
