<svg width="16" height="16" viewBox="0 0 16 16" fill="none" xmlns="http://www.w3.org/2000/svg">
<path d="M11.9366 4.00196C9.61468 4.00196 8.47373 5.73626 7.45955 7.27421C6.3653 8.92997 5.59133 9.93128 4.07673 9.93128C2.99316 9.93128 2.1151 9.07003 2.1151 8.0072C2.1151 6.94437 2.99316 6.08311 4.07673 6.08311C4.10475 6.08181 4.13811 6.08115 4.17148 6.08115C4.80801 6.08115 5.38515 6.33181 5.80551 6.73757L6.05905 6.35798C6.33261 5.93914 6.64621 5.47448 7.00651 5.00327C6.25321 4.37958 5.27173 4 4.1995 4C4.1568 4 4.11343 4.00065 4.07073 4.00196H4.07673C1.82552 4.00196 0 5.79254 0 8.00065C0 10.2088 1.82552 11.9993 4.07673 11.9993C6.85238 11.9993 8.17348 10.036 9.23436 8.39332C10.1818 6.95353 10.8224 6.07657 11.9366 6.07657C13.0202 6.07657 13.8982 6.93783 13.8982 8.00065C13.8982 9.06348 13.0202 9.92474 11.9366 9.92474C11.9139 9.92539 11.8866 9.92605 11.8599 9.92605C11.3475 9.92605 10.8737 9.76374 10.4887 9.48822L10.4954 9.4928C10.0837 10.1283 9.6754 10.6747 9.2337 11.1937L9.25438 11.1682C9.96964 11.6878 10.8697 12 11.8439 12C11.8719 12 11.8999 12 11.9273 11.9993H11.9233C14.1745 11.9993 16 10.2088 16 8.00065C16 5.79254 14.1745 4.00196 11.9233 4.00196H11.9366Z" fill="black"/>
</svg>
