<svg width="16" height="16" viewBox="0 0 16 16" fill="none" xmlns="http://www.w3.org/2000/svg">
<g clip-path="url(#clip0_6_291)">
<path d="M15.8225 2.34786C15.8135 1.73336 15.3135 1.23886 14.6975 1.23886C14.387 1.23886 14.106 1.36486 13.9025 1.56786L13.735 1.75036C10.84 -0.227136 7.395 1.03036 5.6775 2.17786C2.8125 2.52786 0.75 3.50036 0.75 4.66536V7.41536C0.75 8.44536 2.39 9.33536 4.7725 9.76536C4.842 10.3249 5.3145 10.7534 5.887 10.7534C6.198 10.7534 6.479 10.6269 6.6825 10.4229L6.85 10.2504C7.443 10.6599 8.14 10.9679 8.8915 11.1309L8.93 11.1379C8.62 11.1529 8.3075 11.1604 8 11.1604C5.2775 11.1604 2.42 10.6254 0.845 9.48536C0.7855 9.61136 0.7505 9.75936 0.75 9.91536V12.6654C0.75 14.1154 4 15.2904 8 15.2904C12 15.2904 15.25 14.1154 15.25 12.6654V7.05036C15.364 6.99586 15.4615 6.92636 15.545 6.84286C15.749 6.63936 15.875 6.35836 15.875 6.04786C15.875 6.04236 15.875 6.03736 15.875 6.03236L15.8225 2.34786ZM6.77 8.75036L5.8875 9.63286L5.835 5.95036L9.52 6.00036L8.5 7.02036C9.125 7.73536 11.1575 9.63286 14.4775 8.74536C14.4725 8.75036 10.095 11.9404 6.77 8.75036ZM11.0675 6.00036L12.09 4.97786C11.465 4.25036 9.4325 2.36036 6.1125 3.25036C6.1125 3.25036 10.49 0.0553634 13.815 3.25036L14.6975 2.36786L14.75 6.04786L11.0675 6.00036Z" fill="black"/>
</g>
<defs>
<clipPath id="clip0_6_291">
<rect width="16" height="16" fill="white"/>
</clipPath>
</defs>
</svg>
