<svg width="16" height="16" viewBox="0 0 16 16" fill="none" xmlns="http://www.w3.org/2000/svg">
<g clip-path="url(#clip0_6_549)">
<path d="M4.84751 15.9999C4.81151 15.9859 4.76951 15.9769 4.72601 15.9749C4.00101 15.8499 3.50001 15.3849 3.50001 14.8299V1.24991C3.50001 1.24191 3.49951 1.23191 3.49951 1.22241C3.49951 0.926914 3.62751 0.661414 3.83151 0.478414L3.83251 0.477414C4.10001 0.237414 4.44501 0.079414 4.82601 0.045414L4.83251 0.044914C4.84501 0.044914 4.86251 0.044914 4.87001 0.044914H5.79751C5.80601 0.047414 5.81501 0.048914 5.82501 0.048914C5.83501 0.048914 5.84451 0.047414 5.85301 0.044914H8.05751C7.76051 0.190914 7.55951 0.490414 7.55751 0.837414C7.55551 0.866914 7.54151 0.892414 7.52001 0.909914C7.42451 1.00091 7.36501 1.12941 7.36501 1.27191C7.36501 1.28891 7.36601 1.30591 7.36751 1.32241V1.32041C7.36751 1.32341 7.36751 1.32691 7.36751 1.32991C7.36751 1.42141 7.41401 1.50191 7.48401 1.54941L7.48501 1.54991C7.50001 1.54991 7.50251 1.57241 7.48501 1.58241C7.45251 1.69491 7.45001 1.81241 7.41501 1.92491C7.36251 2.07091 7.23451 2.17791 7.07951 2.19991H7.07751C6.85451 2.24641 6.59851 2.27341 6.33601 2.27341C6.30601 2.27341 6.27551 2.27291 6.24551 2.27241H6.25001H6.16001C6.14051 2.27091 6.11801 2.27041 6.09501 2.27041C5.89401 2.27041 5.70651 2.32791 5.54801 2.42741L5.55251 2.42491C5.34451 2.55341 5.16351 2.69141 4.99751 2.84441L5.00001 2.84241C4.95401 2.89191 4.91601 2.94991 4.88901 3.01341L4.88751 3.01741C4.63751 3.43741 4.38751 3.85741 4.13751 4.26741C4.02251 4.45491 3.88751 4.63741 3.79001 4.82741C3.70901 4.95041 3.64651 5.09441 3.61151 5.24891L3.61001 5.25741C3.59901 5.30491 3.59251 5.35941 3.59251 5.41591C3.59251 5.54091 3.62401 5.65841 3.67951 5.76141L3.67751 5.75741C3.77151 5.89741 3.92951 5.98791 4.10801 5.98791C4.11651 5.98791 4.12501 5.98791 4.13351 5.98741C4.22101 5.98741 4.31001 5.98741 4.40001 5.98741C4.49001 5.98741 4.46501 6.00741 4.44501 6.04741C4.37001 6.18991 4.30501 6.33491 4.24251 6.47991C4.14251 6.70541 4.07101 6.96691 4.04101 7.24041L4.04001 7.25241C4.04001 7.26041 4.03951 7.26941 4.03951 7.27891C4.03951 7.48241 4.09651 7.67291 4.19501 7.83491L4.19251 7.83041C4.34751 8.13541 4.56001 8.41791 4.74751 8.71041C4.81901 8.81541 4.89251 8.93891 4.95951 9.06641L4.97001 9.08791C4.98751 9.12541 5.01001 9.14041 5.06501 9.14041C5.19501 9.14041 5.31501 9.14041 5.45751 9.14041C5.46051 9.13991 5.46401 9.13991 5.46801 9.13991C5.49751 9.13991 5.52351 9.15591 5.53751 9.18041C5.74451 9.50441 5.96351 9.78691 6.20601 10.0469L6.20251 10.0434C6.33501 10.1884 6.47751 10.3309 6.62501 10.4684C6.94751 10.7684 7.32501 11.0284 7.67251 11.3134C8.14801 11.6939 8.67951 12.0614 9.23601 12.3909L9.30001 12.4259C9.40751 12.4934 9.51251 12.5634 9.62251 12.6259C9.67051 12.6524 9.70451 12.6979 9.71501 12.7524V12.7534C9.77551 13.0744 9.89151 13.3599 10.0535 13.6129L10.0475 13.6034C10.0885 13.6704 10.131 13.7284 10.1785 13.7824L10.1775 13.7809C10.25 13.8599 10.3 13.9609 10.317 14.0729L10.3175 14.0759C10.3525 14.2459 10.3925 14.4134 10.4375 14.5759C10.4435 14.6029 10.447 14.6339 10.447 14.6659C10.447 14.6979 10.4435 14.7289 10.437 14.7589L10.4375 14.7559C10.4225 14.8309 10.4175 14.9084 10.4075 14.9834C10.38 15.1089 10.364 15.2529 10.364 15.4009C10.364 15.4564 10.366 15.5114 10.3705 15.5654L10.37 15.5584C10.3875 15.7164 10.4335 15.8604 10.503 15.9894L10.5 15.9834C10.48 15.9984 10.46 15.9834 10.44 15.9834H8.55001C8.53851 15.9809 8.52501 15.9794 8.51101 15.9794C8.49701 15.9794 8.48401 15.9809 8.47101 15.9834H8.47251L4.84751 15.9999ZM5.09751 13.9724L5.11501 13.9999C5.27251 14.3699 5.43251 14.7499 5.59251 15.1124C5.60501 15.1424 5.61751 15.1549 5.66251 15.1524H6.25001C6.29251 15.1524 6.31251 15.1524 6.31251 15.1124C6.31251 14.4699 6.31251 13.8299 6.31251 13.1874C6.31251 13.1574 6.31251 13.1474 6.25751 13.1474C6.09251 13.1474 5.93001 13.1474 5.75751 13.1474C5.70001 13.1474 5.68251 13.1599 5.68501 13.2024C5.68501 13.5599 5.68501 13.9174 5.68501 14.2749V14.3349C5.67051 14.3204 5.65851 14.3029 5.65051 14.2834L5.65001 14.2824L5.20001 13.1949C5.20001 13.1699 5.18501 13.1449 5.13001 13.1449C4.93751 13.1449 4.74751 13.1449 4.55501 13.1449C4.51001 13.1449 4.50001 13.1449 4.50001 13.1849V15.1099C4.50001 15.1474 4.51751 15.1499 4.56001 15.1499C4.71251 15.1499 4.86501 15.1499 5.01751 15.1499C5.08001 15.1499 5.09251 15.1349 5.09251 15.0924C5.09001 14.7224 5.09001 14.3474 5.09001 13.9724H5.09751ZM7.63001 14.1049C7.69151 14.0934 7.74551 14.0649 7.78751 14.0249C7.86401 13.9544 7.91701 13.8594 7.93451 13.7529L7.93501 13.7499C7.99001 13.4524 7.79001 13.1924 7.33251 13.1624C7.04001 13.1424 6.74251 13.1624 6.44751 13.1624C6.40751 13.1624 6.41251 13.1799 6.41251 13.1974V15.1274C6.41251 15.1574 6.41251 15.1674 6.46501 15.1674H7.36501C7.37201 15.1679 7.38051 15.1679 7.38951 15.1679C7.56551 15.1679 7.72601 15.1004 7.84551 14.9894C7.96151 14.8904 8.03401 14.7449 8.03401 14.5814C8.03401 14.4759 8.00351 14.3779 7.95101 14.2949L7.95251 14.2969C7.88851 14.1814 7.76701 14.1044 7.62801 14.1044C7.62601 14.1044 7.62401 14.1044 7.62251 14.1044L7.63001 14.1049ZM8.00001 15.1524H8.56751C8.60501 15.1524 8.62001 15.1524 8.62501 15.1149C8.64251 15.0249 8.66501 14.9349 8.68001 14.8424C8.68001 14.8074 8.70001 14.7949 8.75001 14.7974C8.85751 14.7974 8.96501 14.7974 9.07251 14.7974C9.12501 14.7974 9.14001 14.7974 9.14501 14.8474C9.14501 14.9374 9.17001 15.0274 9.18001 15.1174C9.18001 15.1499 9.20001 15.1574 9.24001 15.1549H9.74001C9.82501 15.1549 9.82501 15.1549 9.80751 15.0924C9.75001 14.8424 9.69001 14.5924 9.63001 14.3424C9.54001 13.9599 9.44751 13.5924 9.36001 13.1974C9.36001 13.1499 9.32251 13.1399 9.26501 13.1424H8.57501C8.52501 13.1424 8.50251 13.1424 8.49251 13.1899C8.46251 13.3224 8.42751 13.4549 8.39251 13.5874C8.25001 14.1124 8.12501 14.6299 8.00001 15.1524Z" fill="black"/>
<path d="M7.03001 14.5474C7.03001 14.4674 7.03001 14.3899 7.03001 14.3124C7.03001 14.2824 7.03001 14.2699 7.08001 14.2749H7.13001C7.14451 14.2709 7.16101 14.2689 7.17851 14.2689C7.24951 14.2689 7.31101 14.3074 7.34451 14.3644L7.34501 14.3654C7.37901 14.4204 7.39901 14.4874 7.39901 14.5589C7.39901 14.6109 7.38851 14.6604 7.36951 14.7054L7.37051 14.7029C7.33001 14.7889 7.24351 14.8474 7.14401 14.8474C7.11151 14.8474 7.08001 14.8409 7.05151 14.8299L7.05301 14.8304C7.02051 14.8304 7.03051 14.8054 7.03051 14.7929V14.5429L7.03001 14.5474Z" fill="black"/>
<path d="M7.03001 13.6949C7.03001 13.6349 7.03001 13.5749 7.03001 13.5124C7.03001 13.4499 7.03001 13.4699 7.08251 13.4699C7.31751 13.4699 7.43001 13.5824 7.37501 13.7724C7.33751 13.9024 7.24751 13.9474 7.06501 13.9299C7.03251 13.9299 7.03001 13.9124 7.03001 13.8949V13.6949Z" fill="black"/>
<path d="M8.91001 13.4624C8.94001 13.6299 8.96751 13.7999 8.99751 13.9624C9.02751 14.1249 9.04251 14.2524 9.07001 14.3974C9.07001 14.4349 9.07001 14.4399 9.01501 14.4399H8.79251C8.75751 14.4399 8.75001 14.4399 8.75501 14.4049C8.79751 14.1374 8.83751 13.8724 8.87751 13.6049C8.87751 13.5549 8.89501 13.5049 8.90251 13.4574L8.91001 13.4624Z" fill="black"/>
<path d="M11.125 10.2499C11.123 10.2499 11.1205 10.2499 11.118 10.2499C10.265 10.2499 9.56601 9.59191 9.50051 8.75541L9.50001 8.74991C9.46251 7.99991 9.71001 7.42741 10.375 7.08241C10.435 7.06241 10.4525 7.04241 10.4325 6.99241C10.3905 6.88691 10.3485 6.79991 10.3015 6.71591L10.3075 6.72741C10.185 6.51991 10.03 6.32491 9.89251 6.12241C9.81751 6.03491 9.75601 5.93291 9.71251 5.82191L9.71001 5.81491L9.62251 5.46491C9.54651 5.11741 9.45001 4.81591 9.32951 4.52691L9.34251 4.56241C9.31251 4.49241 9.31251 4.49491 9.23001 4.52491C8.95901 4.63441 8.72901 4.79591 8.54401 4.99841L8.54251 4.99991C8.53051 5.01241 8.52251 5.02891 8.52001 5.04691C8.49551 5.15291 8.46701 5.24391 8.43301 5.33091L8.43751 5.31741C8.37001 5.49741 8.30001 5.67741 8.23251 5.85491C8.23251 5.87741 8.21251 5.89741 8.23251 5.91741C8.39251 6.04291 8.52151 6.19991 8.61151 6.37941L8.61501 6.38741C8.78201 6.70391 8.93801 7.07741 9.06151 7.46491L9.07501 7.51491C9.08351 7.52991 9.08801 7.54791 9.08801 7.56691C9.08801 7.61641 9.05551 7.65791 9.01051 7.67191H9.00951C8.98501 7.67791 8.96701 7.69941 8.96701 7.72541C8.96701 7.73741 8.97051 7.74791 8.97701 7.75691C9.03851 7.89291 9.09901 8.05891 9.14801 8.23041L9.15451 8.25691C9.28201 8.69941 9.36201 9.14691 9.46451 9.59441C9.49051 9.73291 9.55151 9.85441 9.63751 9.95291L9.63701 9.95191C9.72251 10.0429 9.80451 10.1409 9.88051 10.2429L9.88701 10.2519C10.0475 10.4884 10.1835 10.7609 10.2825 11.0504L10.2895 11.0744C10.4345 11.4569 10.5395 11.8519 10.6445 12.2394C10.6735 12.3659 10.738 12.4739 10.8265 12.5564C10.874 12.5989 10.9195 12.6444 10.962 12.6894C11.0395 12.7679 11.087 12.8759 11.087 12.9944C11.087 12.9959 11.087 12.9979 11.087 12.9994C11.0825 13.2289 11.014 13.4419 10.899 13.6219L10.902 13.6169C10.8905 13.6334 10.8835 13.6534 10.8835 13.6754C10.8835 13.6849 10.885 13.6939 10.887 13.7024C10.9465 13.9644 11.043 14.1954 11.1725 14.4039L11.167 14.3939C11.2035 14.4469 11.2255 14.5129 11.2255 14.5839C11.2255 14.6144 11.2215 14.6434 11.214 14.6714L11.2145 14.6689C11.2115 14.6779 11.2095 14.6884 11.2095 14.6989C11.2095 14.7209 11.217 14.7409 11.2295 14.7564C11.353 14.9329 11.4265 15.1519 11.4265 15.3879C11.4265 15.5609 11.387 15.7244 11.3165 15.8704L11.3195 15.8639C11.307 15.8939 11.292 15.9239 11.2745 15.9589C11.377 15.9464 11.47 15.9234 11.5585 15.8909L11.5495 15.8939C12.1695 15.6739 12.497 15.3089 12.497 14.7989C12.4987 13.0306 12.4995 11.2639 12.4995 9.49891C12.206 9.95291 11.703 10.2489 11.13 10.2489C11.128 10.2489 11.126 10.2489 11.124 10.2489L11.125 10.2499Z" fill="black"/>
<path d="M10.28 3.35491C10.3485 3.46841 10.405 3.59991 10.4425 3.73891L10.445 3.74991C10.575 4.21991 10.6375 4.69741 10.725 5.16991C10.7375 5.29941 10.764 5.41791 10.8035 5.53091L10.8 5.51991C10.89 5.71991 11.005 5.91241 11.1125 6.10741C11.276 6.37441 11.4085 6.68291 11.4945 7.01091L11.5 7.03491C11.5 7.03491 11.5 7.03491 11.5 7.04741C11.904 7.14641 12.241 7.38541 12.464 7.70941L12.4675 7.71491C12.4745 7.67691 12.48 7.63141 12.4825 7.58541V1.21991C12.5 0.632414 12.0125 0.179914 11.25 0.0474141C11.248 0.0474141 11.246 0.0474141 11.2435 0.0474141C11.2185 0.0474141 11.1955 0.0389141 11.177 0.0244141H10.6145C10.6145 0.0244141 10.597 0.0244141 10.5845 0.0244141L9.89701 0.0519141L9.20201 0.0719141C9.18451 0.0719141 9.16451 0.0719141 9.15701 0.0719141C9.14951 0.0719141 9.15701 0.0919141 9.17951 0.0994141C9.20201 0.106914 9.27951 0.179414 9.32451 0.221914C9.51051 0.369914 9.62851 0.595914 9.62851 0.849414C9.62851 0.865914 9.62801 0.882414 9.62701 0.898914V0.896914C9.60451 1.05641 9.54351 1.19791 9.45301 1.31641L9.45451 1.31441C9.45451 1.33191 9.42701 1.34441 9.45451 1.36691C9.48201 1.38941 9.51951 1.46191 9.47451 1.52441C9.43851 1.56991 9.39901 1.60991 9.35601 1.64591L9.35451 1.64691C9.27101 1.70841 9.19951 1.77941 9.13901 1.85941L9.13701 1.86191C9.07201 1.97241 8.98851 2.06491 8.88951 2.13741L8.88701 2.13941C8.80951 2.19941 8.71951 2.25191 8.64951 2.31691C8.57951 2.38191 8.61201 2.38441 8.66701 2.41191C9.27301 2.69791 9.76451 2.96541 10.2405 3.25591L10.167 3.21441C10.2155 3.25041 10.254 3.29741 10.2785 3.35241L10.28 3.35491Z" fill="black"/>
</g>
<defs>
<clipPath id="clip0_6_549">
<rect width="16" height="16" fill="white"/>
</clipPath>
</defs>
</svg>
