<svg width="16" height="16" viewBox="0 0 16 16" fill="none" xmlns="http://www.w3.org/2000/svg">
<g clip-path="url(#clip0_6_583)">
<path d="M5 16C7.7615 16 10 13.7615 10 11C10 10.687 9.971 10.381 9.916 10.084L16 4V1C16 0.4475 15.5525 0 15 0H14V1H12V3H10V5H8L6.7025 6.2975C6.171 6.105 5.598 6 5 6C2.2385 6 0 8.2385 0 11C0 13.7615 2.2385 16 5 16ZM3.502 10.998C4.3305 10.998 5.002 11.6695 5.002 12.498C5.002 13.3265 4.3305 13.998 3.502 13.998C2.6735 13.998 2.002 13.3265 2.002 12.498C2.002 11.6695 2.6735 10.998 3.502 10.998Z" fill="black"/>
</g>
<defs>
<clipPath id="clip0_6_583">
<rect width="16" height="16" fill="white"/>
</clipPath>
</defs>
</svg>
