<svg width="16" height="16" viewBox="0 0 16 16" fill="none" xmlns="http://www.w3.org/2000/svg">
<g clip-path="url(#clip0_6_194)">
<path d="M5.4599 12.8737C5.1864 12.8737 5.1064 12.8202 5.1064 12.5272C5.1199 8.35367 5.1129 4.18717 5.1129 0.0136719H0.8994C1.0594 0.353672 1.2394 0.687172 1.3659 1.04017C1.4794 1.34667 1.6924 1.61367 1.6924 1.98017C1.6859 6.00017 1.6924 10.0267 1.6924 14.0467C1.6924 14.1802 1.6859 14.3067 1.6189 14.4402C1.3724 14.9337 1.1454 15.4402 0.9124 15.9537C0.9524 15.9672 0.9789 15.9872 1.0059 15.9872C4.1259 15.9872 7.2394 15.9872 10.3594 15.9937C10.5129 15.9937 10.5794 15.9202 10.6059 15.8072C10.8794 14.8337 11.1394 13.8672 11.4194 12.8672H11.0529C9.1929 12.8672 7.3264 12.8672 5.4664 12.8672L5.4599 12.8737Z" fill="black"/>
<path d="M15.8534 3.14667C15.7199 3.06017 15.7534 2.90667 15.7069 2.78667C15.6534 2.64017 15.5869 2.58017 15.4334 2.70667C14.6069 3.39317 13.7734 4.06667 12.9469 4.74667C11.9404 5.57317 10.9469 6.41317 9.9334 7.23317C9.8134 7.33317 9.7069 7.52667 9.4599 7.47967C10.3399 6.57317 11.1999 5.67967 12.0734 4.79967C12.2269 4.63967 12.3069 4.46617 12.3469 4.25317C12.4069 3.90667 12.5669 3.61317 12.8669 3.39317C13.3334 3.05967 13.7804 2.69317 14.2534 2.36667C14.4469 2.23317 14.3469 2.18017 14.2534 2.10017C13.5669 1.51367 12.7399 1.33367 11.8599 1.29367C11.7199 1.29367 11.6199 1.33367 11.5264 1.43367C11.1929 1.79367 10.8599 2.14717 10.5199 2.49367C9.5134 3.52717 8.4999 4.56017 7.4934 5.59367C7.4734 5.61367 7.4199 5.64017 7.4599 5.68717C7.5534 5.72067 7.5999 5.66067 7.6664 5.62067C8.2264 5.26067 8.7864 4.90067 9.3864 4.59417C9.5264 4.52067 9.7064 4.40067 9.8199 4.52067C9.9264 4.63417 9.7664 4.79417 9.6999 4.90717C9.1464 5.82067 8.4599 6.62717 7.7664 7.42717C7.1799 8.10717 6.6064 8.80067 5.9664 9.42717C5.8329 9.56067 5.7864 9.72717 5.7929 9.92067C5.7994 10.6342 5.7929 11.3472 5.7929 12.0607C5.7929 12.1407 5.7529 12.2272 5.8394 12.3007C7.6859 11.3142 9.5329 10.3207 11.3859 9.33417C11.3994 9.32767 11.4059 9.30067 11.4194 9.28767C11.2994 9.26767 11.1929 9.28767 11.0794 9.33417C10.5394 9.56067 9.9659 9.70067 9.3994 9.84067C9.2129 9.88717 8.9129 9.96717 8.8129 9.76717C8.7264 9.59367 8.9329 9.40067 9.0864 9.24717C9.5129 8.80717 10.0129 8.46067 10.5199 8.12067C12.0534 7.08717 13.6734 6.20067 15.2934 5.32067C15.4799 5.22067 15.5599 5.14067 15.4799 4.92067C15.2999 4.41417 15.5534 4.02067 15.8599 3.65417V3.14067L15.8534 3.14667Z" fill="black"/>
<path d="M14.7334 8.08667C14.4069 8.21317 14.0869 8.37317 13.7669 8.52667C13.6669 8.57317 13.6804 8.68667 13.6804 8.78017C13.6669 9.65367 13.4069 10.4667 13.0269 11.2467C12.7269 11.8602 12.1734 12.3267 12.0404 13.0467C11.9604 13.5002 11.8004 13.9467 11.6604 14.4667C12.7604 13.7132 13.5269 12.7932 14.0939 11.7002C14.4874 10.9402 14.7139 10.1267 14.8274 9.28667C14.8739 8.95317 14.8739 8.61317 14.8939 8.28017C14.8939 8.17367 14.8804 8.02667 14.7339 8.08017L14.7334 8.08667Z" fill="black"/>
<path d="M5.9399 2.35367C7.0199 2.10017 8.1064 2.11367 9.1799 2.40717C9.3264 2.44717 9.3999 2.42067 9.4799 2.32067C9.6864 2.05417 9.8799 1.78717 10.0864 1.50717C9.7799 1.37367 9.4729 1.29367 9.1599 1.22717C8.2399 1.02067 7.3064 1.00067 6.3734 1.09367C5.8334 1.14717 5.7534 1.20717 5.7534 1.73367C5.7534 1.89367 5.7534 2.05367 5.7534 2.21367C5.7534 2.35367 5.7869 2.38717 5.9399 2.35367Z" fill="black"/>
<path d="M1.0199 4.96667C-0.1466 6.18017 -0.1401 10.6802 1.0199 11.7932V4.96667Z" fill="black"/>
<path d="M14.7864 6.52667C14.7599 6.42667 14.8129 6.31317 14.6999 6.20017C13.6064 6.88667 12.4999 7.57367 11.3999 8.26017C11.3999 8.28017 11.4064 8.29367 11.4134 8.31367C11.4734 8.31367 11.5469 8.33367 11.5999 8.31367C12.5534 7.94717 13.4999 7.58017 14.4534 7.20717C14.9199 7.02067 14.9269 7.01367 14.7934 6.53367L14.7864 6.52667Z" fill="black"/>
</g>
<defs>
<clipPath id="clip0_6_194">
<rect width="16" height="16" fill="white"/>
</clipPath>
</defs>
</svg>
