<svg width="16" height="16" viewBox="0 0 16 16" fill="none" xmlns="http://www.w3.org/2000/svg">
<g clip-path="url(#clip0_6_419)">
<path d="M10.3735 10.3735C10.3735 11.6845 9.31101 12.747 8.00001 12.747C6.68901 12.747 5.62651 11.6845 5.62651 10.3735C5.62651 9.0625 6.68901 8 8.00001 8C9.31101 8 10.3735 9.0625 10.3735 10.3735Z" fill="black"/>
<path d="M12.9465 4.7535L11.613 2H4.38651L3.05301 4.78H-0.000488281V16H15.9995V4.7535H12.9465ZM8.00001 14.5935C5.66951 14.5935 3.78001 12.704 3.78001 10.3735C3.78001 8.043 5.66951 6.1535 8.00001 6.1535C10.3305 6.1535 12.22 8.043 12.22 10.3735C12.22 12.704 10.3305 14.5935 8.00001 14.5935ZM14.3335 7.3335C13.943 7.329 13.6285 7.0115 13.6285 6.62C13.6285 6.226 13.948 5.9065 14.342 5.9065C14.736 5.9065 15.0555 6.226 15.0555 6.62C15.0555 6.6365 15.055 6.6525 15.054 6.669V6.667C15.029 7.0405 14.7195 7.3335 14.342 7.3335C14.339 7.3335 14.336 7.3335 14.3335 7.3335Z" fill="black"/>
</g>
<defs>
<clipPath id="clip0_6_419">
<rect width="16" height="16" fill="white"/>
</clipPath>
</defs>
</svg>
