<svg width="16" height="16" viewBox="0 0 16 16" fill="none" xmlns="http://www.w3.org/2000/svg">
<path d="M8 3.1377C4.62 3.1377 1.6575 5.0827 0 8.0002C1.6575 10.9177 4.62 12.8627 8 12.8627C11.38 12.8627 14.3425 10.9177 16 8.0002C14.3425 5.0827 11.38 3.1377 8 3.1377ZM8.015 11.4677C6.1 11.4677 4.5475 9.9152 4.5475 8.0002C4.5475 6.0852 6.1 4.5327 8.015 4.5327C9.93 4.5327 11.4825 6.0852 11.4825 8.0002V8.0027C11.4825 9.91619 9.931 11.4677 8.0175 11.4677H8.015Z" fill="black"/>
<path d="M10.065 8.0002C10.065 9.1322 9.147 10.0502 8.015 10.0502C6.883 10.0502 5.965 9.1322 5.965 8.0002C5.965 6.8682 6.883 5.9502 8.015 5.9502C9.147 5.9502 10.065 6.8682 10.065 8.0002Z" fill="black"/>
</svg>
