<svg width="16" height="16" viewBox="0 0 16 16" fill="none" xmlns="http://www.w3.org/2000/svg">
<g clip-path="url(#clip0_6_367)">
<path d="M10.9735 0C8.95996 0.023 7.26146 1.346 6.67596 3.1675L6.66696 3.2H1.37346C0.868961 3.2 0.459961 3.609 0.459961 4.1135V15.087C0.459961 15.5915 0.868961 16.0005 1.37346 16.0005H10.5135C11.018 16.0005 11.427 15.5915 11.427 15.087V9.087C13.701 8.8065 15.444 6.8865 15.444 4.5595C15.444 2.0725 13.453 0.0505 10.9785 0.0005L10.9735 0ZM2.73996 5.4865H5.48646V6.86H2.73996V5.4865ZM9.13996 13.7135H2.73996V12.34H9.13996V13.7135ZM9.13996 10.2865H2.73996V8.913H9.13996V10.2865ZM10.9735 7.3335C10.9715 7.3335 10.969 7.3335 10.967 7.3335C9.44996 7.3335 8.22046 6.104 8.22046 4.587C8.22046 3.07 9.44996 1.8405 10.967 1.8405C12.484 1.8405 13.7135 3.07 13.7135 4.587C13.7135 4.5895 13.7135 4.5915 13.7135 4.594C13.7135 6.1075 12.487 7.3335 10.9735 7.3335ZM11.3335 6.42L10.287 4.7665V2.7665H11.6605V4.38L12.474 5.7135L11.3335 6.42Z" fill="black"/>
</g>
<defs>
<clipPath id="clip0_6_367">
<rect width="16" height="16" fill="white"/>
</clipPath>
</defs>
</svg>
