<svg width="16" height="16" viewBox="0 0 16 16" fill="none" xmlns="http://www.w3.org/2000/svg">
<g clip-path="url(#clip0_6_509)">
<path d="M11.7899 9.61398L8.08994 5.02748C7.69044 4.96898 7.22894 4.93548 6.75994 4.93548C6.45594 4.93548 6.15544 4.94948 5.85844 4.97698L5.89644 4.97398L5.00994 4.08748L5.67644 2.54098L3.54994 0.000976562L2.92994 2.38098L2.42344 2.92748L0.0234375 3.52748L2.56344 5.64098L4.02344 5.01448L4.96344 5.94798C4.94244 6.18448 4.93094 6.45998 4.93094 6.73848C4.93094 7.20748 4.96444 7.66848 5.02944 8.11948L5.02344 8.06798L9.60994 11.768L11.7899 9.61398Z" fill="black"/>
<path d="M13.5364 12.607C13.8499 12.3005 13.9299 11.887 13.7164 11.7005L12.7699 10.867L12.6364 10.667L10.6899 12.6135L10.8764 12.767L11.7099 13.7135C11.8899 13.927 12.2899 13.847 12.5964 13.5535L15.0364 16L15.9764 15.0535L13.5364 12.607Z" fill="black"/>
</g>
<defs>
<clipPath id="clip0_6_509">
<rect width="16" height="16" fill="white"/>
</clipPath>
</defs>
</svg>
