<svg width="16" height="16" viewBox="0 0 16 16" fill="none" xmlns="http://www.w3.org/2000/svg">
<g clip-path="url(#clip0_6_217)">
<path d="M0.7555 4.59345L1.882 5.71995C2.805 6.63595 3.498 7.78245 3.8685 9.06545L3.882 9.11995C4.386 10.9355 6.024 12.246 7.968 12.246C8.84 12.246 9.6505 11.9825 10.324 11.5305L10.309 11.54C11.3505 10.838 12.0605 9.71395 12.194 8.41845L12.1955 8.39995C12.207 8.28145 12.214 8.14345 12.214 8.00445C12.214 6.07495 10.9315 4.44545 9.1725 3.92145L9.1425 3.91395C7.789 3.53095 6.6275 2.83795 5.6955 1.91345L4.5895 0.760453C2.888 1.55495 1.551 2.89245 0.7765 4.54595L0.7565 4.59395L0.7555 4.59345Z" fill="black"/>
<path d="M13.6485 2.33345C12.202 0.892953 10.207 0.00195312 8.0035 0.00195312C7.2875 0.00195312 6.593 0.0959531 5.9325 0.272453L5.9885 0.259953L6.655 0.926453C7.428 1.71595 8.393 2.31445 9.474 2.64695L9.5215 2.65945C10.4685 2.93645 11.281 3.42545 11.9355 4.07345C12.9035 5.07545 13.4995 6.44145 13.4995 7.94745C13.4995 11.029 11.001 13.5275 7.9195 13.5275C6.776 13.5275 5.713 13.1835 4.828 12.5935L4.8485 12.6065C3.77 11.868 2.976 10.782 2.6245 9.51195L2.6155 9.47295C2.293 8.36445 1.713 7.41595 0.943 6.66045L0.942 6.65945L0.2555 5.99295C0.0935 6.59445 0 7.28545 0 7.99795C0 12.4165 3.5815 15.998 8 15.998C12.4185 15.998 16 12.4165 16 7.99795C16 5.78495 15.101 3.78195 13.6485 2.33345Z" fill="black"/>
</g>
<defs>
<clipPath id="clip0_6_217">
<rect width="16" height="16" fill="white"/>
</clipPath>
</defs>
</svg>
