<svg width="16" height="16" viewBox="0 0 16 16" fill="none" xmlns="http://www.w3.org/2000/svg">
<g clip-path="url(#clip0_6_388)">
<path d="M12.4899 1.38C11.9279 0.9935 11.2814 0.668 10.5919 0.436L10.5369 0.42C10.4419 1.814 10.2049 3.1125 9.83788 4.355L9.87038 4.227H11.7369C12.2119 3.47 12.4934 2.5495 12.4934 1.5635C12.4934 1.499 12.4924 1.435 12.4899 1.371V1.38Z" fill="black"/>
<path d="M9.46988 10.4135H11.6899C11.9384 9.7755 12.0824 9.037 12.0824 8.2645C12.0824 8.1715 12.0804 8.079 12.0764 7.987L12.0769 8C12.0769 7.979 12.0774 7.9545 12.0774 7.9295C12.0774 7.083 11.9209 6.273 11.6349 5.5275L11.6504 5.5735H4.31688C4.06238 6.2515 3.91538 7.0345 3.91538 7.8525C3.91538 7.9045 3.91588 7.956 3.91738 8.008V8.0005C3.91388 8.0805 3.91138 8.174 3.91138 8.2685C3.91138 9.044 4.05538 9.786 4.31788 10.4695L4.30388 10.4275H9.47038L9.46988 10.4135Z" fill="black"/>
<path d="M6.07688 11.7465H4.23688C3.80638 12.4565 3.55188 13.3145 3.55188 14.2325C3.55188 14.3805 3.55838 14.5275 3.57138 14.672L3.56988 14.6535C4.11688 15.024 4.74538 15.338 5.41438 15.564L5.46988 15.58C5.52638 14.193 5.74438 12.881 6.10538 11.6295L6.07688 11.7465Z" fill="black"/>
<path d="M4.22988 4.2265H6.09638C5.76188 3.112 5.52488 1.814 5.43288 0.476L5.42988 0.42C4.69488 0.6705 4.05788 0.9955 3.47688 1.397L3.50288 1.38C3.49988 1.447 3.49788 1.525 3.49788 1.604C3.49788 2.5735 3.76988 3.479 4.24188 4.249L4.22988 4.2265Z" fill="black"/>
<path d="M11.7569 11.7465H9.91688C10.2529 12.8795 10.4754 14.191 10.5359 15.5445L10.5374 15.58C11.2619 15.342 11.8909 15.0325 12.4659 14.6485L12.4374 14.6665C12.4484 14.5435 12.4549 14.401 12.4549 14.2565C12.4549 13.329 12.1954 12.4625 11.7454 11.725L11.7569 11.7465Z" fill="black"/>
<path d="M8.52988 11.7465H7.46338C7.06988 12.983 6.82838 14.4075 6.79688 15.8835L6.79638 15.9C7.15488 15.96 7.56988 15.9965 7.99288 16H7.99638C8.42688 15.997 8.84688 15.961 9.25638 15.8935L9.20988 15.9C9.17338 14.4055 8.92738 12.982 8.50038 11.639L8.52988 11.7465Z" fill="black"/>
<path d="M13.7634 2.4665C13.6804 3.42 13.3584 4.285 12.8584 5.018L12.8704 4.9995C13.2124 5.865 13.4109 6.868 13.4109 7.917C13.4109 7.946 13.4109 7.975 13.4104 8.0035V7.999C13.4144 8.09 13.4169 8.1965 13.4169 8.3035C13.4169 9.2875 13.2184 10.2255 12.8594 11.0795L12.8769 11.0325C13.3334 11.764 13.6369 12.635 13.7219 13.5695L13.7234 13.5925C15.1279 12.1525 15.9944 10.1815 15.9944 8.0085C15.9944 5.8555 15.1439 3.9015 13.7609 2.463L13.7634 2.4665Z" fill="black"/>
<path d="M3.11688 11.02C2.77588 10.214 2.57738 9.2765 2.57738 8.2925C2.57738 8.1895 2.57938 8.0875 2.58388 7.9855L2.58338 8C2.58288 7.9755 2.58288 7.9465 2.58288 7.9175C2.58288 6.8685 2.78138 5.8655 3.14238 4.9445L3.12338 5C2.63488 4.285 2.31288 3.4205 2.23138 2.4865L2.22988 2.4665C0.852883 3.901 0.00488281 5.853 0.00488281 8.0025C0.00488281 10.1725 0.868883 12.1405 2.27138 13.5815L2.26988 13.5795C2.35638 12.622 2.65988 11.751 3.13088 10.9945L3.11688 11.02Z" fill="black"/>
<path d="M7.47688 4.2265H8.51688C8.88638 3.004 9.12638 1.5915 9.18238 0.132L9.18338 0.1C8.82938 0.0405 8.41888 0.0045 8.00088 0H7.99638C7.56588 0.003 7.14588 0.039 6.73638 0.1065L6.78288 0.1C6.84988 1.5955 7.09838 3.0065 7.50788 4.3475L7.47688 4.2265Z" fill="black"/>
</g>
<defs>
<clipPath id="clip0_6_388">
<rect width="16" height="16" fill="white"/>
</clipPath>
</defs>
</svg>
