<svg width="16" height="16" viewBox="0 0 16 16" fill="none" xmlns="http://www.w3.org/2000/svg">
<g clip-path="url(#clip0_6_256)">
<path d="M10.1329 3.72093C10.3624 3.85643 10.6384 3.93643 10.9334 3.93643C11.8134 3.93643 12.5264 3.22343 12.5264 2.34343C12.5264 1.46343 11.8134 0.75043 10.9334 0.75043C10.3464 0.75043 9.83344 1.06793 9.55744 1.54043L9.55344 1.54793C9.41944 1.77593 9.34044 2.05043 9.34044 2.34343C9.34044 2.92843 9.65594 3.43993 10.1259 3.71693L10.1329 3.72093Z" fill="black"/>
<path d="M15.8919 9.38643L14.1654 9.85943C14.1979 9.96143 14.2164 10.0789 14.2164 10.2009C14.2164 10.7449 13.8439 11.2019 13.3404 11.3309L13.3324 11.3324L11.8929 11.7259L10.9329 8.87293C10.6154 7.81193 9.71644 7.02443 8.61444 6.87493L8.59994 6.87343L8.99344 6.20693C9.84144 6.68243 10.8539 6.96343 11.9319 6.96693H11.9344C12.8754 6.96693 13.7669 6.75293 14.5619 6.37143L14.5254 6.38743L13.8189 4.84093C13.2709 5.10293 12.6279 5.25593 11.9494 5.25593C11.1384 5.25593 10.3789 5.03743 9.72544 4.65643L9.74644 4.66793L9.55294 4.56143C9.49594 3.97543 9.15694 3.47943 8.67494 3.20643L8.66644 3.20193L8.59994 3.16193C8.34894 3.01593 8.04794 2.92993 7.72644 2.92993C7.44494 2.92993 7.17944 2.99593 6.94344 3.11343L6.95344 3.10893C5.57644 2.95943 4.51344 1.80643 4.50744 0.40343V0.00292969H2.84094V0.40293C2.84594 2.31193 4.06294 3.93593 5.76294 4.54593L5.79394 4.55543L4.72094 6.41493C4.57244 6.67043 4.48444 6.97743 4.48444 7.30493C4.48444 7.96743 4.84394 8.54643 5.37894 8.85693L5.38744 8.86143L6.94044 9.75443L4.53444 13.7534L3.12144 14.1399C3.04144 14.1594 2.94994 14.1709 2.85594 14.1709C2.33044 14.1709 1.88644 13.8214 1.74394 13.3419L1.74194 13.3339L0.00244141 13.7739C0.358941 15.0369 1.50094 15.9464 2.85544 15.9464C3.13544 15.9464 3.40594 15.9074 3.66244 15.8349L3.64144 15.8399L4.57444 15.5799L4.98744 15.4664L10.3864 13.9999L11.7194 13.6199L12.8659 13.3064L13.7989 13.0464C15.0769 12.7004 16.0014 11.5509 16.0014 10.1854C16.0014 9.90143 15.9614 9.62643 15.8864 9.36643L15.8914 9.38743L15.8919 9.38643ZM9.34644 9.38643L10.2729 12.1724L7.02694 13.0654L8.47344 10.6659C8.62144 10.4109 8.70894 10.1044 8.70894 9.77793C8.70894 9.28093 8.50694 8.83143 8.18044 8.50643C8.18544 8.50643 8.19194 8.50643 8.19794 8.50643C8.73544 8.50643 9.18944 8.86593 9.33144 9.35793L9.33344 9.36643L9.34644 9.38643Z" fill="black"/>
</g>
<defs>
<clipPath id="clip0_6_256">
<rect width="16" height="16" fill="white"/>
</clipPath>
</defs>
</svg>
