<svg width="16" height="16" viewBox="0 0 16 16" fill="none" xmlns="http://www.w3.org/2000/svg">
<path d="M6.54623 1.59757L6.54443 1.59126C6.41805 1.25546 6.09399 1.01625 5.71396 1.01625C5.60293 1.01625 5.49732 1.03611 5.40615 1.07041L0.585839 2.82432L0.57952 2.82612C0.241015 2.9534 0 3.28017 0 3.66291C0 3.77123 0.019859 3.87504 0.0523554 3.9644L3.0664 12.2456L3.06821 12.2311C3.09258 12.0876 3.12959 11.9486 3.17292 11.8322L6.71955 2.0778L6.54623 1.59757Z" fill="black"/>
<path d="M15.4142 3.05179L9.92767 1.05145L9.93309 1.05416C9.83831 1.01896 9.7354 1 9.62798 1C9.24615 1 8.92118 1.24102 8.79391 1.58584L4.84739 12.4324C4.81219 12.5263 4.79413 12.6283 4.79413 12.7348C4.79413 13.1176 5.03515 13.4443 5.37997 13.5734L10.861 15.5711C10.9576 15.6081 11.0632 15.6279 11.1725 15.6279C11.5516 15.6279 11.8748 15.3878 12.0002 15.0457L15.9458 4.19819C15.981 4.10251 16 3.9987 16 3.89038C16 3.50764 15.759 3.18087 15.4142 3.05179ZM9.2624 9.6558L10.2707 9.24417L10.6832 10.2534L9.2624 9.6558ZM12.3279 9.4879C12.1528 9.90313 11.6744 10.099 11.2582 9.9248C11.0425 9.83363 10.8854 9.66031 10.8087 9.4563L10.5 8.69896L9.74353 9.00858C9.55577 9.07808 9.34183 9.07989 9.14234 8.99594C8.72621 8.82082 8.53123 8.3424 8.70544 7.92717C8.78939 7.72767 8.94285 7.57873 9.12519 7.49749L11.3936 6.57044L12.3207 8.83797C12.4091 9.03746 12.4182 9.27126 12.3279 9.4879Z" fill="black"/>
</svg>
