<svg width="16" height="16" viewBox="0 0 16 16" fill="none" xmlns="http://www.w3.org/2000/svg">
<g clip-path="url(#clip0_6_415)">
<path d="M16 6.86638C16 3.28638 12.4135 0.379883 8 0.379883C3.5865 0.379883 0 3.28638 0 6.86638C0 10.0799 2.8465 12.7664 6.6665 13.2729C6.9265 13.3329 7.28 13.4464 7.3665 13.6664C7.392 13.7754 7.4065 13.9009 7.4065 14.0299C7.4065 14.1589 7.392 14.2839 7.3645 14.4044L7.3665 14.3934L7.253 15.0599C7.2195 15.2599 7.093 15.8464 7.9195 15.4864C10.331 14.1934 12.401 12.6399 14.2045 10.8214L14.2065 10.8194C15.259 9.81688 15.9335 8.42638 15.9995 6.87788L16 6.86638ZM5.18 8.78638C5.1765 8.86838 5.109 8.93288 5.027 8.93288H2.7805C2.7785 8.93288 2.776 8.93288 2.774 8.93288C2.693 8.93288 2.6275 8.86738 2.6275 8.78638V5.29288C2.6275 5.20838 2.696 5.13938 2.781 5.13938H3.3345C3.419 5.13938 3.488 5.20788 3.488 5.29288V8.06638H5.028C5.1105 8.06638 5.1775 8.13138 5.181 8.21288L5.18 8.78638ZM6.5135 8.78638C6.51 8.86838 6.4425 8.93288 6.3605 8.93288H5.814C5.812 8.93288 5.8095 8.93288 5.8075 8.93288C5.7265 8.93288 5.661 8.86738 5.661 8.78638V5.29288C5.661 5.20838 5.7295 5.13938 5.8145 5.13938H6.381C6.4655 5.13938 6.5345 5.20788 6.5345 5.29288L6.5135 8.78638ZM10.3735 8.78638C10.3735 8.86738 10.308 8.93288 10.227 8.93288C10.2245 8.93288 10.2225 8.93288 10.22 8.93288H9.514L7.914 6.77288V8.84638C7.914 8.92738 7.8485 8.99288 7.7675 8.99288C7.765 8.99288 7.763 8.99288 7.7605 8.99288H7.1945C7.112 8.99288 7.045 8.92788 7.0415 8.84638V5.29238C7.0415 5.20788 7.11 5.13888 7.195 5.13888H7.8615L9.4615 7.29888V5.29238C9.4615 5.20788 9.53 5.13888 9.615 5.13888H10.1815C10.266 5.13888 10.335 5.20738 10.335 5.29238L10.3735 8.78638ZM13.4735 5.85988C13.467 5.93438 13.408 5.99338 13.334 5.99988H11.8135V6.59988H13.3335C13.4165 6.60338 13.4835 6.66988 13.487 6.75288V7.33338C13.487 7.41788 13.4185 7.48688 13.3335 7.48688H11.8135V8.08038H13.3335C13.416 8.08038 13.483 8.14538 13.4865 8.22688V8.80088C13.483 8.88288 13.4155 8.94738 13.3335 8.94738H11.0935C11.0915 8.94738 11.089 8.94738 11.087 8.94738C11.006 8.94738 10.9405 8.88188 10.9405 8.80088V5.29438C10.9405 5.20988 11.009 5.14088 11.094 5.14088H13.334C13.4185 5.14088 13.4875 5.20938 13.4875 5.29438L13.4735 5.85988Z" fill="black"/>
</g>
<defs>
<clipPath id="clip0_6_415">
<rect width="16" height="16" fill="white"/>
</clipPath>
</defs>
</svg>
