<svg width="16" height="16" viewBox="0 0 16 16" fill="none" xmlns="http://www.w3.org/2000/svg">
<path d="M8.00001 12.0005C7.26651 12.0005 6.66651 11.4005 6.66651 10.667L3.33301 10.0005V11.5405C3.33301 13.267 4.73301 14.667 6.45951 14.667H6.66601C6.66601 14.3005 7.26601 14.0005 7.99951 14.0005C8.73301 14.0005 9.33301 14.3005 9.33301 14.667H9.53951C11.266 14.667 12.666 13.267 12.666 11.5405V10.0005L9.33251 10.667C9.33251 11.4005 8.73351 12.0005 8.00001 12.0005Z" fill="black"/>
<path d="M9.54001 1.33398H6.46001C4.73351 1.33398 3.33351 2.73398 3.33351 4.46048V8.66698L4.66701 8.00048L5.33351 4.66698C7.11351 5.55348 8.88701 5.55348 10.667 4.66698L11.3335 8.00048L12.667 8.66698V4.46048C12.667 2.73398 11.2665 1.33398 9.54001 1.33398Z" fill="black"/>
</svg>
