<svg width="16" height="16" viewBox="0 0 16 16" fill="none" xmlns="http://www.w3.org/2000/svg">
<path d="M15.7865 11.2315L13.754 4.509C13.481 3.6285 12.674 3 11.7205 3C11.5005 3 11.2885 3.0335 11.089 3.0955L11.104 3.0915C10.783 3.191 10.507 3.353 10.2775 3.5655L10.279 3.564H5.599C5.371 3.353 5.095 3.191 4.789 3.0955L4.774 3.0915C4.5895 3.0335 4.3775 3 4.1575 3C3.2035 3 2.3965 3.6285 2.128 4.494L2.124 4.509L0.0915 11.2315C0.0335 11.416 0 11.628 0 11.848C0 13.0215 0.9515 13.973 2.125 13.973C3.079 13.973 3.886 13.3445 4.1545 12.479L4.1585 12.464L4.9085 9.979C5.065 10.0385 5.2465 10.0735 5.4355 10.074C6.175 10.073 6.7895 9.5375 6.912 8.833L6.9135 8.824H8.9585C9.0825 9.5375 9.6965 10.073 10.436 10.074C10.437 10.074 10.4385 10.074 10.44 10.074C10.629 10.074 10.8095 10.04 10.977 9.978L10.9665 9.9815L11.7165 12.4665C11.99 13.347 12.7975 13.9755 13.7515 13.9755C14.926 13.9755 15.878 13.0235 15.878 11.849C15.878 11.6285 15.8445 11.416 15.7825 11.2165L15.7865 11.2315ZM3.2865 6.134H2.564V5.5065H3.284C3.443 5.521 3.566 5.654 3.566 5.815C3.566 5.976 3.4425 6.109 3.285 6.1235L3.2865 6.134ZM4.3115 7.2615H3.689V6.534C3.689 6.364 3.8265 6.2265 3.9965 6.2265C4.1665 6.2265 4.304 6.364 4.304 6.534L4.3115 7.2615ZM4.3115 5.1065C4.3115 5.2765 4.174 5.414 4.004 5.414C3.834 5.414 3.6965 5.2765 3.6965 5.1065V4.3765H4.3115V5.1065ZM5.439 6.124H4.719C4.56 6.1095 4.437 5.9765 4.437 5.8155C4.437 5.6545 4.5605 5.5215 4.718 5.507H5.439V6.124ZM10.814 6.189C10.538 6.189 10.314 5.965 10.314 5.689C10.314 5.413 10.538 5.189 10.814 5.189C11.09 5.189 11.314 5.413 11.314 5.689C11.314 5.965 11.09 6.189 10.814 6.189ZM11.939 7.314C11.663 7.314 11.439 7.09 11.439 6.814C11.439 6.538 11.663 6.314 11.939 6.314C12.215 6.314 12.439 6.538 12.439 6.814C12.439 7.09 12.215 7.314 11.939 7.314ZM11.939 5.064C11.663 5.064 11.439 4.84 11.439 4.564C11.439 4.288 11.663 4.064 11.939 4.064C12.215 4.064 12.439 4.288 12.439 4.564C12.439 4.84 12.215 5.064 11.939 5.064ZM13.064 6.189C12.788 6.189 12.564 5.965 12.564 5.689C12.564 5.413 12.788 5.189 13.064 5.189C13.34 5.189 13.564 5.413 13.564 5.689C13.564 5.965 13.34 6.189 13.064 6.189Z" fill="black"/>
</svg>
