<svg width="16" height="16" viewBox="0 0 16 16" fill="none" xmlns="http://www.w3.org/2000/svg">
<g clip-path="url(#clip0_6_211)">
<path d="M12.71 9.5475C11.505 10.7535 9.8395 11.5 8 11.5C6.1605 11.5 4.495 10.754 3.29 9.5475C1.357 10.2535 0.0015 12.0755 0 14.215V16H16V14.215C15.9985 12.0755 14.6435 10.2535 12.7445 9.5585L12.71 9.5475Z" fill="black"/>
<path d="M12.9075 4.9075C12.9075 7.618 10.7105 9.815 8 9.815C5.2895 9.815 3.0925 7.618 3.0925 4.9075C3.0925 2.197 5.2895 0 8 0H8.0025C10.7115 0 12.9075 2.196 12.9075 4.905V4.9075Z" fill="black"/>
</g>
<defs>
<clipPath id="clip0_6_211">
<rect width="16" height="16" fill="white"/>
</clipPath>
</defs>
</svg>
