<svg width="16" height="16" viewBox="0 0 16 16" fill="none" xmlns="http://www.w3.org/2000/svg">
<g clip-path="url(#clip0_6_323)">
<path d="M8.00003 16.0005C7.93253 15.9355 7.87003 15.8805 7.81003 15.818L2.31003 10.138C2.27303 10.1 2.25003 10.048 2.25003 9.99098C2.25003 9.98748 2.25003 9.98398 2.25053 9.97998C2.25053 7.68664 2.24303 5.39631 2.22803 3.10798C2.22803 3.10498 2.22803 3.10198 2.22803 3.09848C2.22803 3.03198 2.25703 2.97198 2.30303 2.93098L5.19053 0.0784766C5.22703 0.0399766 5.27853 0.0159766 5.33603 0.0159766C5.33753 0.0159766 5.33953 0.0159766 5.34103 0.0159766C7.12436 0.00597656 8.90553 0.000976562 10.6855 0.000976562C10.688 0.000976562 10.6905 0.000976562 10.6935 0.000976562C10.7415 0.000976562 10.785 0.0209766 10.8155 0.0534766L13.733 3.00098C13.764 3.02948 13.783 3.06998 13.783 3.11498C13.783 3.11798 13.783 3.12098 13.783 3.12348V10.123C13.783 10.124 13.783 10.1255 13.783 10.127C13.783 10.1735 13.764 10.2155 13.733 10.2455C11.8414 12.1455 9.94969 14.0471 8.05803 15.9505L8.00003 16.0005ZM7.97753 15.0005L8.04003 14.943L13.13 9.94298C13.1685 9.90948 13.193 9.85998 13.193 9.80548C13.193 9.80198 13.193 9.79848 13.1925 9.79548V3.39348C13.1925 3.39148 13.1925 3.38948 13.1925 3.38698C13.1925 3.33598 13.1725 3.28998 13.14 3.25548C12.2784 2.36881 11.4159 1.47964 10.5525 0.587977C10.5225 0.553977 10.479 0.532977 10.4305 0.532977C10.4285 0.532977 10.4265 0.532977 10.4245 0.532977H5.65253C5.65003 0.532977 5.64753 0.532977 5.64503 0.532977C5.60003 0.532977 5.55953 0.550977 5.53003 0.580477L2.80753 3.21048C2.77203 3.24148 2.75003 3.28648 2.75003 3.33698C2.75003 3.33998 2.75003 3.34298 2.75003 3.34598V9.81798C2.75003 9.81998 2.75003 9.82248 2.75003 9.82498C2.75003 9.87848 2.77303 9.92698 2.81003 9.96048L7.91503 14.9355L7.97753 15.0005Z" fill="black"/>
<path d="M6.81753 3.40298H3.50003C3.52253 3.37798 3.53253 3.36048 3.54753 3.34548L5.59503 1.20298C5.62403 1.17198 5.66503 1.15248 5.71053 1.15248C5.71553 1.15248 5.72053 1.15248 5.72553 1.15298H10.2775C10.2795 1.15298 10.2825 1.15298 10.285 1.15298C10.3275 1.15298 10.366 1.17148 10.3925 1.20048L12.4725 3.34548L12.51 3.38798H9.15253C9.15253 3.41048 9.15253 3.43798 9.15253 3.46298V3.96298C9.15253 6.94798 9.15836 9.93214 9.17003 12.9155C9.17003 12.917 9.17003 12.919 9.17003 12.921C9.17003 12.986 9.14203 13.0445 9.09753 13.0855C8.75253 13.4288 8.40836 13.773 8.06503 14.118C8.04353 14.14 8.02353 14.164 8.00403 14.1885L8.00253 14.1905L7.93253 14.1305L6.86003 13.103C6.82453 13.0715 6.80203 13.026 6.80203 12.9755C6.80203 12.972 6.80203 12.9685 6.80253 12.965C6.80253 11.4 6.80253 9.83464 6.80253 8.26798C6.80253 6.70131 6.80253 5.11381 6.80253 3.50548L6.81753 3.40298Z" fill="black"/>
<path d="M5.25003 11.3905L5.18253 11.3305L3.50003 9.75048C3.46453 9.71898 3.44253 9.67348 3.44253 9.62298C3.44253 9.62048 3.44253 9.61798 3.44253 9.61498L3.42003 4.50048V4.39548C3.48253 4.37798 5.56003 4.37548 5.72003 4.39548C5.72003 4.42548 5.72003 4.45548 5.72003 4.48798V8.69048C5.71953 8.69548 5.71953 8.70098 5.71953 8.70698C5.71953 8.76848 5.74703 8.82347 5.79003 8.86048L6.65553 9.72548C6.67903 9.74748 6.70103 9.77048 6.72203 9.79448L6.72303 9.79548L5.25003 11.3905Z" fill="black"/>
<path d="M10.825 11.383L9.26253 9.83548L9.32503 9.76798C9.63003 9.44298 9.93586 9.11881 10.2425 8.79548C10.2815 8.75798 10.3055 8.70598 10.3055 8.64798C10.3055 8.64348 10.3055 8.63947 10.305 8.63498C10.2934 7.25831 10.2825 5.88214 10.2725 4.50548V4.39298C10.335 4.37548 12.4175 4.37048 12.5225 4.39298C12.5225 4.41798 12.5225 4.44548 12.5225 4.47048C12.5225 6.18881 12.5284 7.90464 12.54 9.61798C12.54 9.62048 12.54 9.62348 12.54 9.62648C12.54 9.67248 12.5205 9.71348 12.49 9.74298L10.875 11.3355L10.825 11.383Z" fill="black"/>
</g>
<defs>
<clipPath id="clip0_6_323">
<rect width="16" height="16" fill="white"/>
</clipPath>
</defs>
</svg>
