<svg width="16" height="16" viewBox="0 0 16 16" fill="none" xmlns="http://www.w3.org/2000/svg">
<g clip-path="url(#clip0_6_215)">
<path d="M14.3927 3.42487C14.9077 2.89737 15.5002 2.49987 15.6102 1.77487L15.5752 1.74987C15.0277 1.95737 14.4752 2.15737 13.9327 2.37487C13.8682 2.40437 13.7927 2.42187 13.7132 2.42187C13.5582 2.42187 13.4182 2.35587 13.3207 2.25037C12.2007 1.31037 10.7927 1.12987 9.5702 1.80987C8.2802 2.53487 7.6677 3.65487 7.8202 5.14987C7.8552 5.44737 7.7727 5.52487 7.4827 5.48237C6.3947 5.32987 5.4117 5.04887 4.4907 4.65137L4.5652 4.67987C3.1617 4.05887 1.9822 3.16287 1.0497 2.05237L1.0377 2.03737C0.110203 3.70987 0.607703 5.08237 1.8327 6.35487C1.7602 6.36787 1.6772 6.37587 1.5922 6.37587C1.3337 6.37587 1.0917 6.30587 0.883703 6.18387L0.890203 6.18737C0.577703 6.03737 0.527703 6.13487 0.560203 6.43737C0.625203 7.67137 1.4137 8.70637 2.5067 9.13037L2.5277 9.13737C2.6727 9.19987 2.8827 9.17987 2.9827 9.43987C2.6627 9.43987 2.3827 9.46237 2.1102 9.43987C1.7327 9.40487 1.7352 9.55487 1.8602 9.82737C2.2617 10.6784 2.9992 11.3149 3.8972 11.5719L3.9197 11.5774C4.1472 11.6449 4.3797 11.6949 4.7122 11.7774C3.6182 12.6494 2.2157 13.1769 0.690203 13.1769C0.447203 13.1769 0.206703 13.1634 -0.0292969 13.1374L-0.000296874 13.1399C1.5547 14.3124 4.4297 14.8724 6.5322 14.4749C11.2122 13.5874 14.3597 9.88987 14.4672 5.12737C14.4672 5.12087 14.4667 5.11287 14.4667 5.10487C14.4667 4.80687 14.6117 4.54287 14.8347 4.37887L14.8372 4.37687C15.3027 4.03737 15.6902 3.62187 15.9887 3.14537L15.9992 3.12687C15.9807 3.10987 15.9632 3.09187 15.9472 3.07287L15.9467 3.07187C15.4567 3.19937 14.9992 3.43937 14.3917 3.42437L14.3927 3.42487Z" fill="black"/>
</g>
<defs>
<clipPath id="clip0_6_215">
<rect width="16" height="16" fill="white"/>
</clipPath>
</defs>
</svg>
