<svg width="16" height="16" viewBox="0 0 16 16" fill="none" xmlns="http://www.w3.org/2000/svg">
<g clip-path="url(#clip0_6_299)">
<path d="M13.6335 5.8265V5.6265C13.6335 2.52 11.107 0 8 0C4.8935 0 2.3665 2.52 2.3665 5.6335V5.86C0.94 6.86 0 8.5135 0 10.3935C0 12.2735 0.94 13.927 2.3665 14.927V16.0005H13.633V14.954C15.0865 13.9605 16.0395 12.2875 16.0395 10.394C16.0395 8.5005 15.086 6.8275 13.633 5.834L13.6335 5.8265ZM11.64 9.44C11.64 10.26 11.18 11.0465 10.36 11.62C9.0535 12.54 6.9535 12.54 5.6465 11.62C4.8265 11.04 4.3665 10.26 4.3665 9.44V7.5065L4.6265 7.213C4.94 7.413 5.36 7.5995 5.8265 7.5995C6.793 7.5995 7.58 6.7795 7.58 6.7795C7.58 6.7795 6.7935 5.9595 5.8265 5.9595C5.793 5.9595 5.76 5.966 5.733 5.966L8.0065 3.3995L10.28 5.966C10.28 5.966 10.2135 5.9595 10.1865 5.9595C9.22 5.9595 8.433 6.7795 8.433 6.7795C8.433 6.7795 9.2195 7.5995 10.1865 7.5995C10.653 7.5995 11.073 7.406 11.3865 7.213L11.6465 7.5065V9.44H11.64Z" fill="black"/>
</g>
<defs>
<clipPath id="clip0_6_299">
<rect width="16" height="16" fill="white"/>
</clipPath>
</defs>
</svg>
