<svg width="16" height="16" viewBox="0 0 16 16" fill="none" xmlns="http://www.w3.org/2000/svg">
<g clip-path="url(#clip0_6_214)">
<path d="M3.83764 3.3675H7.58764V1.2175C7.58764 1.2175 5.61514 0 5.14514 0C4.67514 0 2.43264 0.8425 2.34014 1.03C2.31514 1.1 2.30064 1.181 2.30064 1.265C2.30064 1.349 2.31514 1.43 2.34164 1.505L2.34014 1.5C2.34014 1.5 3.75014 1.965 3.83764 3.3675Z" fill="black"/>
<path d="M6.50014 12.96L3.93014 13C4.58514 15.1525 7.58014 16 7.58014 16V12.1625C7.33364 12.549 6.95664 12.8335 6.51314 12.957L6.50014 12.96Z" fill="black"/>
<path d="M13.4326 1.5C13.4561 1.43 13.4701 1.35 13.4701 1.266C13.4701 1.182 13.4566 1.102 13.4311 1.027L13.4326 1.0325C13.3376 0.8425 11.0926 0 10.6251 0C10.1576 0 8.19264 1.2175 8.19264 1.2175V3.3675H11.9426C12.0276 1.965 13.4326 1.5 13.4326 1.5Z" fill="black"/>
<path d="M8.25014 11.6475C8.23314 11.6215 8.21564 11.5915 8.20014 11.56L8.19764 11.555V16C8.19764 16 11.1976 15.1575 11.8476 13L10.5751 12.9775C9.59264 12.9665 8.73514 12.4415 8.25714 11.6595L8.25014 11.6475Z" fill="black"/>
<path d="M6.22264 6.5975L8.18764 3.9775H2.48014C1.73014 3.9775 1.26264 4.8175 1.26264 4.8175V6.035H5.75014L6.22264 6.5975Z" fill="black"/>
<path d="M2.57264 9.8725L0.702637 12.305C0.702637 12.305 5.75514 12.3975 6.22264 12.305C6.69014 12.2125 7.43764 11.275 7.15764 10.5275C6.87764 9.78 4.15764 6.41 4.15764 6.41H1.26264L4.25014 10.34H2.94764L2.57264 9.8725Z" fill="black"/>
<path d="M8.37514 6.035H12.7726L13.2501 6.5975L15.3076 3.9775H9.87264C9.17614 4.482 8.65264 5.1865 8.38314 6.0065L8.37514 6.035Z" fill="black"/>
<path d="M11.0001 10.0575C10.7621 9.75 10.6161 9.36 10.6101 8.9365V8.935C10.6101 7.5325 10.7026 6.41 10.7026 6.41H8.28014C8.28014 6.41 7.43764 8.28 8.18764 10.16C8.93764 12.04 11.5551 13.34 14.2701 11.095H13.1051C13.0966 11.095 13.0871 11.095 13.0771 11.095C12.2306 11.095 11.4791 10.6905 11.0046 10.064L11.0001 10.0575Z" fill="black"/>
</g>
<defs>
<clipPath id="clip0_6_214">
<rect width="16" height="16" fill="white"/>
</clipPath>
</defs>
</svg>
