<svg width="16" height="16" viewBox="0 0 16 16" fill="none" xmlns="http://www.w3.org/2000/svg">
<g clip-path="url(#clip0_6_301)">
<path d="M7.97504 10.8145L8.02754 10.8795L8.00254 10.8995L7.97254 10.817L7.97504 10.8145Z" fill="black"/>
<path d="M15.5 0.249529C15.5 -0.0454706 15.335 -0.000470591 15.1675 -0.000470591H8.00004C5.64254 -0.000470591 3.28504 -0.000470591 0.930039 -0.000470591C0.602539 -0.000470591 0.485039 0.0370294 0.500039 0.409529C0.512539 2.24953 0.500039 4.09953 0.500039 5.94453C0.499539 5.98703 0.499039 6.03753 0.499039 6.08753C0.499039 8.37103 1.25054 10.4795 2.51904 12.1785L2.50004 12.1515C2.63504 12.334 2.60754 12.4265 2.45754 12.574C1.91504 13.0965 1.40004 13.649 0.847539 14.1615C0.625039 14.369 0.785039 14.449 0.905039 14.5565C1.02504 14.664 1.09504 14.8915 1.32504 14.6465C1.82504 14.114 2.36254 13.6165 2.86504 13.0865C3.04254 12.9015 3.11504 12.9265 3.28754 13.1015C4.47154 14.382 5.97104 15.3545 7.66304 15.8965L7.73504 15.9165C7.81454 15.9465 7.90654 15.964 8.00304 15.964C8.07604 15.964 8.14654 15.954 8.21304 15.9355L8.20754 15.937C12.1775 14.7845 15.2675 10.9095 15.4575 6.78203C15.5625 4.60203 15.475 2.41953 15.5 0.249529ZM7.25004 3.77953C7.37254 3.67453 7.40504 3.35453 7.69004 3.55203C7.87004 3.68803 8.09804 3.77003 8.34454 3.77003C8.35504 3.77003 8.36604 3.77003 8.37654 3.76953H8.37504C8.58254 3.75703 8.78004 3.69703 8.80504 3.44953C8.83004 3.20203 8.62754 3.15453 8.44504 3.11203C8.19954 3.07153 7.99354 3.02553 7.79204 2.96903L7.83504 2.97953C7.51054 2.88103 7.27854 2.58453 7.27854 2.23403C7.27854 2.21553 7.27904 2.19753 7.28054 2.17953V2.18203C7.28054 2.17753 7.28054 2.17203 7.28054 2.16703C7.28054 1.80403 7.51454 1.49553 7.84004 1.38403L7.84604 1.38253C8.00304 1.32653 8.18454 1.29403 8.37354 1.29403C8.67404 1.29403 8.95504 1.37603 9.19604 1.51953L9.18854 1.51553C9.27854 1.56303 9.40354 1.62803 9.27604 1.74553C9.14854 1.86303 9.17854 2.13553 8.92104 2.02303C8.75904 1.93353 8.56904 1.87353 8.36654 1.85603L8.36104 1.85553C8.16354 1.85553 7.97604 1.89553 7.94604 2.13303C7.91604 2.37053 8.09104 2.42553 8.26854 2.46553C8.44604 2.50553 8.63604 2.52303 8.81354 2.57303C9.19004 2.63903 9.47204 2.96353 9.47204 3.35403C9.47204 3.36953 9.47154 3.38503 9.47054 3.40003V3.39803C9.47054 3.40503 9.47104 3.41353 9.47104 3.42153C9.47104 3.81703 9.20354 4.15003 8.83904 4.24903L8.83304 4.25053C8.70904 4.28403 8.55654 4.31403 8.40104 4.33353L8.38304 4.33553C8.37654 4.33553 8.36954 4.33553 8.36204 4.33553C7.99204 4.33553 7.64604 4.23153 7.35204 4.05053L7.36054 4.05553C7.26804 4.00053 7.08054 3.92553 7.25054 3.78053L7.25004 3.77953ZM5.25004 1.33703C5.50004 1.33703 5.59254 1.38953 5.58254 1.65953C5.56004 2.22703 5.58254 2.79703 5.57004 3.36203C5.57004 3.61203 5.61504 3.74703 5.90754 3.71453C6.20004 3.68203 6.46504 3.71453 6.74254 3.71453C7.02004 3.71453 6.93754 3.87453 6.94504 4.01703C6.95254 4.15953 6.96004 4.29203 6.74254 4.28703C6.21004 4.28703 5.67504 4.28703 5.14254 4.28703C4.96004 4.28703 4.94004 4.19953 4.94004 4.05203C4.94004 3.64703 4.94004 3.23953 4.94004 2.83453C4.94004 2.42953 4.95504 2.04703 4.94004 1.65203C4.94004 1.39453 5.02754 1.33953 5.26504 1.33703H5.25004ZM6.40754 6.55703C6.09004 6.24203 5.81004 6.21703 5.50504 6.55703C5.59254 6.20953 5.75504 5.85703 5.18754 5.71203C5.60254 5.71203 5.93754 5.68453 5.93754 5.14953C6.02254 5.58453 6.22004 5.77703 6.68754 5.67453C6.30754 5.89203 6.16754 6.15453 6.42254 6.55703H6.40754ZM5.24754 7.55703C5.12754 7.66453 4.94504 7.75453 4.90254 7.88953C4.86004 8.02453 4.96504 8.18953 5.00754 8.34203C4.68754 8.02703 4.41754 8.09203 4.11504 8.39203C4.27004 8.02703 4.30004 7.72203 3.83004 7.54203C4.26754 7.59453 4.51754 7.45203 4.55004 6.99703C4.67254 7.35453 4.80754 7.64953 5.26254 7.55203L5.24754 7.55703ZM2.15754 4.28453C1.90754 4.28453 1.81754 4.22453 1.82504 3.95703C1.84504 3.19203 1.82504 2.42703 1.82504 1.66203C1.82504 1.55203 1.74504 1.35953 1.94004 1.35703C2.13504 1.35453 2.38754 1.21953 2.51504 1.51703C2.72254 2.01703 2.94504 2.48953 3.20254 3.06703C3.45254 2.52203 3.64004 2.06703 3.84504 1.59703C3.92804 1.42903 4.09804 1.31553 4.29504 1.31553C4.35804 1.31553 4.41804 1.32703 4.47354 1.34853L4.47004 1.34753C4.57504 1.39003 4.55754 1.47253 4.55754 1.55003C4.55754 2.38503 4.55754 3.22003 4.55754 4.05003C4.55754 4.32503 4.38504 4.25753 4.23254 4.27003C4.08004 4.28253 3.95754 4.24253 3.96504 4.02003C3.96954 3.92003 3.97204 3.80253 3.97204 3.68453C3.97204 3.33553 3.94954 2.99203 3.90554 2.65503L3.90954 2.69503C3.77204 3.00503 3.62454 3.31253 3.49704 3.62753C3.46404 3.76403 3.34254 3.86403 3.19804 3.86403C3.18704 3.86403 3.17654 3.86353 3.16604 3.86253H3.16754C2.98754 3.86253 2.91754 3.76753 2.87004 3.63003C2.74154 3.29353 2.59054 3.00303 2.41004 2.73403L2.42004 2.75003C2.42004 3.16503 2.42004 3.57753 2.42004 4.00003C2.43004 4.20003 2.38004 4.27953 2.15754 4.28453ZM2.46754 5.69953C2.87754 5.72703 3.16004 5.63953 3.19004 5.15203C3.27504 5.57453 3.48004 5.77953 3.94004 5.69203C3.55004 5.87703 3.46004 6.12703 3.65504 6.52203C3.33004 6.21203 3.05004 6.25953 2.75754 6.55953C2.94004 6.17453 2.90254 5.88703 2.46754 5.69953ZM14.6925 7.58203C14.0275 11.372 11.8 13.907 8.19754 15.2495C8.13954 15.2695 8.07254 15.281 8.00254 15.281C7.91104 15.281 7.82404 15.261 7.74604 15.225L7.75004 15.2265C6.17004 14.673 4.82754 13.783 3.75504 12.637L3.75004 12.6315C3.57004 12.4415 3.62254 12.349 3.78004 12.194C6.53504 9.44236 9.28921 6.68736 12.0425 3.92903L14.77 1.20403L14.855 1.23653C14.75 3.35153 15.0625 5.49953 14.6925 7.58203Z" fill="black"/>
</g>
<defs>
<clipPath id="clip0_6_301">
<rect width="16" height="16" fill="white"/>
</clipPath>
</defs>
</svg>
