<svg width="16" height="16" viewBox="0 0 16 16" fill="none" xmlns="http://www.w3.org/2000/svg">
<path d="M15.8094 5.62908L12.7658 2.08516C12.4568 1.72766 12.0177 1.48467 11.5199 1.42349L11.5104 1.42261L8.23876 1.01399C8.16602 1.00524 8.08245 1 7.99706 1C7.91168 1 7.82811 1.00481 7.74543 1.01486L7.75537 1.01399L4.49908 1.42261C3.99085 1.48511 3.55039 1.7281 3.24229 2.0821L3.24003 2.08516L0.196516 5.62908C0.0745405 5.76762 0 5.94855 0 6.14609C0 6.34363 0.0740887 6.525 0.197419 6.66442L0.196516 6.66311L7.37906 14.7269C7.52994 14.8947 7.75085 15 7.99706 15C8.24327 15 8.46464 14.8947 8.61462 14.7277L8.61552 14.7269L15.7981 6.66311C15.9237 6.52369 16 6.34014 16 6.13954C16 5.94462 15.9277 5.76631 15.808 5.62777L15.8094 5.62908Z" fill="black"/>
</svg>
