<svg width="16" height="16" viewBox="0 0 16 16" fill="none" xmlns="http://www.w3.org/2000/svg">
<path d="M12.6665 3.70651V10.88C12.66 11.1135 12.62 11.3335 12.5665 11.52C12.0665 13.3735 9.873 14.6665 8 14.6665C6.127 14.6665 3.94 13.373 3.4335 11.52C3.38 11.3335 3.347 11.1135 3.3335 10.88V3.70651C3.3335 3.25301 3.7 2.81301 4.007 2.53301C4.8005 1.90651 5.547 1.55301 6.1935 1.37301V4.92651H4.78C4.6 4.92651 4.3 4.91301 4.5135 5.22651L7.62 9.14001C7.62 9.14001 7.6865 9.20001 7.74 9.20651C7.8465 9.25301 8 9.25301 8 9.25301C8 9.25301 8.1465 9.25301 8.2535 9.20651C8.307 9.20651 8.3335 9.15301 8.3735 9.14001L11.48 5.22651C11.6865 4.91301 11.3935 4.92651 11.2135 4.92651H9.8V1.33301C10.4465 1.51301 11.2135 1.89301 12.0135 2.53301C12.3135 2.81951 12.68 3.25301 12.68 3.70651H12.6665Z" fill="black"/>
</svg>
