<svg width="16" height="16" viewBox="0 0 16 16" fill="none" xmlns="http://www.w3.org/2000/svg">
<g clip-path="url(#clip0_6_487)">
<path d="M11.6865 7.14H16V9.3665H11.6865C11.18 9.3665 10.7665 8.953 10.7665 8.4465V8.06C10.7665 7.5535 11.18 7.14 11.6865 7.14Z" fill="black"/>
<path d="M9.76649 8.06V8.4465C9.76649 9.5065 10.6265 10.3665 11.6865 10.3665H16V13.3465C16 13.8465 15.5935 14.253 15.0935 14.253H0.906988C0.406988 14.253 0.000488281 13.8465 0.000488281 13.3465V4.9265C0.0739883 5.3 0.360488 5.6065 0.740488 5.7L1.43399 5.88C1.50049 6 1.56749 6.12 1.64049 6.2335L1.44699 6.927C1.32049 7.367 1.50699 7.8335 1.90699 8.067L3.21349 8.8205C3.61349 9.054 4.11349 8.9805 4.43349 8.654L4.91999 8.1475C5.06649 8.154 5.20649 8.154 5.35349 8.1475L5.83999 8.654C6.03349 8.854 6.29999 8.954 6.55999 8.954C6.73349 8.954 6.90649 8.914 7.05999 8.8205L8.37349 8.067C8.76699 7.8335 8.95999 7.367 8.83349 6.927L8.63349 6.2335C8.70699 6.12 8.77999 6 8.83999 5.88L9.53349 5.7C9.97999 5.5935 10.2935 5.1935 10.2935 4.7335V3.22C10.2935 2.76 9.97999 2.36 9.53999 2.2535H15.0935C15.5935 2.2535 16 2.66 16 3.16V6.14H11.6865C10.6265 6.14 9.76649 7 9.76649 8.06Z" fill="black"/>
<path d="M16 7.14V9.3665H11.6865C11.18 9.3665 10.7665 8.953 10.7665 8.4465V8.06C10.7665 7.5535 11.18 7.14 11.6865 7.14H16Z" fill="black"/>
<path d="M8.13349 2.9335C8.05349 2.6935 7.93999 2.467 7.79999 2.2535C7.72649 2.127 7.63349 2.007 7.53999 1.9L7.87349 0.7535L6.55999 0L5.73349 0.86C5.53999 0.82 5.33999 0.8 5.13999 0.8C4.93999 0.8 4.73999 0.82 4.54649 0.86L3.71299 0L2.40649 0.7535L2.73299 1.907C2.63949 2.0135 2.55299 2.1335 2.47949 2.2535C2.33299 2.467 2.21949 2.6935 2.14599 2.9335L0.979488 3.22V4.7335L2.14599 5.027C2.27249 5.407 2.47949 5.7605 2.73249 6.0535L2.40599 7.2L3.71249 7.9535L4.54599 7.0935C4.73949 7.1335 4.93949 7.1535 5.13949 7.1535C5.33949 7.1535 5.53949 7.1335 5.73299 7.0935L6.55949 7.9535L7.87299 7.2L7.53949 6.0535C7.79949 5.76 8.00599 5.407 8.13949 5.027L9.29299 4.7335V3.22L8.13349 2.9335ZM5.13999 5.2135C4.45999 5.2135 3.90649 4.66 3.90649 3.98C3.90649 3.3 4.45999 2.7465 5.13999 2.7465C5.81999 2.7465 6.37349 3.3 6.37349 3.98C6.37349 4.66 5.81999 5.2135 5.13999 5.2135Z" fill="black"/>
</g>
<defs>
<clipPath id="clip0_6_487">
<rect width="16" height="16" fill="white"/>
</clipPath>
</defs>
</svg>
