<svg width="16" height="16" viewBox="0 0 16 16" fill="none" xmlns="http://www.w3.org/2000/svg">
<g clip-path="url(#clip0_6_192)">
<path d="M15.22 10.28L14.68 9.05998L12.6865 9.93348L10.94 8.92698L13.04 8.00048L10.94 7.07398L12.6865 6.06748L14.68 6.94098L15.22 5.72748L14.12 5.24098L15.26 4.58098L14.5935 3.42098L13.4535 4.08748L13.58 2.88748L12.2535 2.74748L12.02 4.90748L10.2735 5.92098L10.52 3.63448L8.6665 4.99448V2.97448L10.4265 1.68798L9.64 0.614477L8.6665 1.32098V0.000976562H7.333V1.32098L6.3595 0.614477L5.573 1.68798L7.333 2.97448V4.99448L5.4795 3.63448L5.726 5.92098L3.9795 4.90748L3.746 2.74748L2.4195 2.88748L2.546 4.08748L1.406 3.42098L0.739502 4.58098L1.8795 5.24098L0.779502 5.72748L1.3195 6.94098L3.313 6.06748L5.0595 7.07398L2.9595 8.00048L5.0595 8.92698L3.313 9.93348L1.3195 9.05998L0.779502 10.28L1.8795 10.76L0.739502 11.4265L1.406 12.58L2.546 11.92L2.4195 13.1135L3.746 13.26L3.9795 11.0935L5.726 10.08L5.4795 12.3665L7.333 11.0065V13.0265L5.573 14.313L6.3595 15.3865L7.333 14.68V16H8.6665V14.68L9.64 15.3865L10.4265 14.313L8.6665 13.0265V11.0065L10.52 12.3665L10.2735 10.08L12.02 11.0935L12.2535 13.26L13.58 13.1135L13.4535 11.92L14.5935 12.58L15.26 11.4265L14.12 10.76L15.22 10.28Z" fill="black"/>
</g>
<defs>
<clipPath id="clip0_6_192">
<rect width="16" height="16" fill="white"/>
</clipPath>
</defs>
</svg>
