<svg width="16" height="16" viewBox="0 0 16 16" fill="none" xmlns="http://www.w3.org/2000/svg">
<g clip-path="url(#clip0_6_260)">
<path d="M11.24 7.14021L5.3335 4.89371L1.3335 0.0537109L0 1.12021L4.5335 6.50021L3.407 7.06671L1.3335 4.45321L0 5.49971L2.5265 8.66621C2.6805 8.85821 2.915 8.97971 3.178 8.97971C3.1835 8.97971 3.189 8.97971 3.194 8.97971C3.33 8.97671 3.457 8.94521 3.572 8.89071L3.5665 8.89321L4.6665 8.30671L8.3465 9.70021L7.333 10.6067C7.165 10.7607 7.0605 10.9812 7.0605 11.2262C7.0605 11.3167 7.075 11.4042 7.1015 11.4862L7.1 11.4802L7.7 13.3002L2.72 11.4937L2.2665 12.7472L11.153 16.0007L11.6065 14.7472L9.673 14.0007L8.8395 11.4542L10.086 10.3277C10.2485 10.3902 10.436 10.4267 10.6325 10.4277C10.6475 10.4282 10.666 10.4287 10.684 10.4287C11.6305 10.4287 12.3975 9.66171 12.3975 8.71521C12.3975 7.96771 11.919 7.33221 11.2515 7.09821L11.2395 7.09471L11.24 7.14021Z" fill="black"/>
<path d="M15.78 7.50671C15.499 7.02771 14.987 6.71121 14.401 6.71121C13.521 6.71121 12.8075 7.42471 12.8075 8.30471C12.8075 9.18471 13.521 9.89821 14.401 9.89821C14.6925 9.89821 14.966 9.81971 15.201 9.68321L15.1935 9.68721C15.674 9.40521 15.992 8.89071 15.992 8.30271C15.992 8.01021 15.9135 7.73571 15.776 7.49971L15.78 7.50671Z" fill="black"/>
</g>
<defs>
<clipPath id="clip0_6_260">
<rect width="16" height="16" fill="white"/>
</clipPath>
</defs>
</svg>
