<svg width="16" height="16" viewBox="0 0 16 16" fill="none" xmlns="http://www.w3.org/2000/svg">
<path d="M15.0065 2.66652C15.0025 2.66652 14.998 2.66652 14.993 2.66652C14.4445 2.66652 13.9995 3.11102 13.9995 3.66002V5.26652H15.9995V3.66002C15.9995 3.11152 15.5555 2.66652 15.0065 2.66652Z" fill="black"/>
<path d="M9.2 12.1135H0C0 13.0525 0.761 13.8135 1.7 13.8135H10.2065C9.533 13.8135 9.2 13.0535 9.2 12.1135Z" fill="black"/>
<path d="M14.8935 2.18652H5.7C4.761 2.18652 4 2.94752 4 3.88652V11.333H9.9065V12.1065C9.9045 12.1385 9.903 12.1755 9.903 12.213C9.903 13.152 10.664 13.913 11.603 13.913C12.542 13.913 13.303 13.152 13.303 12.213C13.303 12.1755 13.302 12.1385 13.2995 12.1015L13.3 12.1065V3.88652C13.3 3.88652 13.3 3.88652 13.3 3.84652C13.3205 2.96152 14.0195 2.24652 14.896 2.20002H14.9C14.9 2.20002 14.8935 2.19352 14.8935 2.18652ZM9.3665 9.16002H5.493V8.00002H9.3665V9.16002ZM11.6935 6.06002H5.4935V4.90002H11.6935V6.06002Z" fill="black"/>
</svg>
