<svg width="16" height="16" viewBox="0 0 16 16" fill="none" xmlns="http://www.w3.org/2000/svg">
<path d="M13.4998 7.75V5.25C13.4688 2.3455 11.1083 0.0025 8.20027 0H7.80027C4.87427 0.003 2.50327 2.374 2.50027 5.2995V7.75H1.65527V16H14.3453V7.75H13.4998ZM4.49977 5.3C4.50127 3.478 5.97777 2.0015 7.79977 2H8.19977C10.0218 2.0015 11.4983 3.478 11.4998 5.3V7.75H4.49977V5.3ZM8.74977 13.75C8.74977 14.164 8.41377 14.5 7.99977 14.5C7.58577 14.5 7.24977 14.164 7.24977 13.75V12.5475C6.79827 12.2835 6.49977 11.8005 6.49977 11.2485C6.49977 10.42 7.17127 9.7485 7.99977 9.7485C8.82827 9.7485 9.49977 10.42 9.49977 11.2485C9.49977 11.801 9.20127 12.2835 8.75677 12.5435L8.74977 12.5475V13.75Z" fill="black"/>
</svg>
