<svg width="16" height="16" viewBox="0 0 16 16" fill="none" xmlns="http://www.w3.org/2000/svg">
<g clip-path="url(#clip0_6_205)">
<path d="M5.50589 9.0169C6.20838 8.6059 6.67288 7.8554 6.67288 6.9959C6.67288 5.7074 5.62839 4.6624 4.33939 4.6624C3.05038 4.6624 2.00588 5.7069 2.00588 6.9959C2.00588 7.4259 2.12238 7.8284 2.32488 8.1744L2.31888 8.1634C2.72988 8.8654 3.48039 9.3294 4.33889 9.3294C4.76839 9.3294 5.17089 9.2134 5.51639 9.0109L5.50589 9.0169Z" fill="black"/>
<path d="M12.9789 -0.0166016L9.41888 6.7499L11.8324 7.7699L16.0059 -0.00360156L12.9789 -0.0166016Z" fill="black"/>
<path d="M8.02588 9.4034L10.4124 10.4034L11.1989 8.9499L8.79888 7.9364L8.02588 9.4034Z" fill="black"/>
<path d="M5.18588 11.9969L2.00588 12.5769C1.26988 12.7029 0.678385 13.2164 0.443385 13.8964L0.439385 13.9104L0.0393848 15.1104C0.0108848 15.1819 -0.00561523 15.2644 -0.00561523 15.3509C-0.00561523 15.7189 0.292885 16.0174 0.660885 16.0174C0.719385 16.0174 0.776385 16.0099 0.830385 15.9954L0.825885 15.9964L6.49238 14.7429C7.67838 14.4724 8.64688 13.7089 9.18839 12.6849L9.19888 12.6629L9.77888 11.5829L7.38538 10.5764C6.88188 11.3144 6.10588 11.8349 5.20538 11.9934L5.18588 11.9969Z" fill="black"/>
</g>
<defs>
<clipPath id="clip0_6_205">
<rect width="16" height="16" fill="white"/>
</clipPath>
</defs>
</svg>
