<svg width="16" height="16" viewBox="0 0 16 16" fill="none" xmlns="http://www.w3.org/2000/svg">
<g clip-path="url(#clip0_6_251)">
<path d="M8.04733 0.167969C8.19233 0.242969 8.24233 0.332969 8.20483 0.447969C8.17733 0.536969 8.09533 0.600469 7.99933 0.600469C7.98833 0.600469 7.97683 0.599469 7.96633 0.597969H7.96733C7.87783 0.595469 7.80333 0.535969 7.77783 0.454469L7.77733 0.452969C7.77083 0.433969 7.76733 0.411969 7.76733 0.388969C7.76733 0.308469 7.81233 0.238969 7.87883 0.203469L7.87983 0.202969L7.92733 0.172969L8.04733 0.167969Z" fill="black"/>
<path d="M4.49983 3.47547C4.21483 3.88297 3.88983 4.20547 3.38733 4.28297C3.15133 4.31497 2.87833 4.33297 2.60083 4.33297C2.53883 4.33297 2.47733 4.33197 2.41583 4.33047H2.42483C2.19483 4.33047 1.96733 4.33047 1.73733 4.33047C1.67483 4.33047 1.64983 4.34547 1.64983 4.41547C1.64983 5.71297 1.64983 7.00797 1.64983 8.30547C1.65133 8.93447 1.76833 9.53597 1.98133 10.0895L1.96983 10.0555C2.20383 10.727 2.68533 11.262 3.30183 11.561L3.31733 11.568C3.62233 11.7145 3.97683 11.814 4.35033 11.847L4.36233 11.848C4.46933 11.8595 4.59333 11.8655 4.71883 11.8655C5.03633 11.8655 5.34433 11.8245 5.63733 11.747L5.61233 11.7525C6.04033 11.6325 6.40983 11.4255 6.71733 11.15L6.71483 11.1525C7.11683 10.7815 7.43883 10.33 7.65533 9.82297L7.66483 9.79747C7.95083 9.15147 8.16683 8.40097 8.27483 7.61697L8.27983 7.57247C8.34983 7.11247 8.40483 6.64997 8.43233 6.18247C8.43233 5.94997 8.45733 5.71747 8.46733 5.48247C8.46733 5.28747 8.46733 5.08997 8.48233 4.89497C8.48233 4.84997 8.49733 4.83497 8.54233 4.83497C8.64983 4.83497 8.75983 4.83497 8.86733 4.83497C9.78983 4.83497 10.7123 4.83497 11.6348 4.83497C11.7223 4.83497 11.7398 4.86247 11.7348 4.94247C11.7173 5.37997 11.7023 5.81747 11.6498 6.25497C11.5808 6.90547 11.4513 7.49897 11.2648 8.06647L11.2823 8.00497C11.0988 8.57697 10.8638 9.07347 10.5738 9.53197L10.5898 9.50497C10.3978 9.82447 10.1848 10.1015 9.94333 10.3515L9.94483 10.35C9.73183 10.5665 9.50583 10.769 9.26733 10.956L9.25233 10.9675C8.95133 11.191 8.60983 11.4045 8.25183 11.59L8.20983 11.61C7.87183 11.7845 7.47733 11.9355 7.06583 12.0435L7.02483 12.0525C6.64283 12.1615 6.19683 12.2395 5.73783 12.2715L5.71733 12.2725C5.57033 12.2815 5.39783 12.2865 5.22483 12.2865C5.05183 12.2865 4.87933 12.2815 4.70883 12.2715L4.73233 12.2725C4.09083 12.255 3.49133 12.0925 2.95933 11.8165L2.98233 11.827C2.35683 11.5025 1.85733 11.0095 1.53383 10.4075L1.52483 10.3895C1.29933 9.96397 1.12583 9.46997 1.02983 8.94897L1.02483 8.91697C0.951831 8.55847 0.903331 8.13947 0.890331 7.71147L0.889831 7.69947C0.859831 6.93447 0.889831 6.16947 0.877331 5.40447C0.877331 4.78697 0.877331 4.17197 0.877331 3.55447C0.877331 3.49447 0.877331 3.46197 0.959831 3.46197H4.49983V3.47547Z" fill="black"/>
<path d="M4.24983 8.11047C4.24983 7.0538 4.24983 5.99714 4.24983 4.94047C4.24983 4.86047 4.27233 4.84297 4.34983 4.84297H7.47483C7.54733 4.84297 7.57233 4.85797 7.56983 4.93547C7.54983 5.43547 7.54983 5.93547 7.51483 6.43547C7.47183 7.16397 7.38283 7.83947 7.24883 8.49847L7.26483 8.40547C7.14833 9.01247 6.96383 9.55247 6.71533 10.0555L6.73233 10.018C6.52533 10.46 6.21433 10.8235 5.82883 11.087L5.81983 11.093C5.55883 11.2635 5.24433 11.3745 4.90633 11.4L4.89983 11.4005C4.84133 11.404 4.77283 11.4065 4.70383 11.4065C4.56583 11.4065 4.42983 11.398 4.29633 11.3815L4.31233 11.383C4.24733 11.383 4.23983 11.3505 4.23983 11.298C4.23983 10.7163 4.23983 10.133 4.23983 9.54797L4.24983 8.11047Z" fill="black"/>
<path d="M11.6998 9.33047C11.7063 9.45197 11.7103 9.59447 11.7103 9.73797C11.7103 9.88147 11.7068 10.024 11.6993 10.1655L11.7003 10.1455C11.7003 10.418 11.6753 10.6905 11.6428 10.963C11.5993 11.5285 11.4593 12.051 11.2388 12.5285L11.2503 12.5005C11.1068 12.7975 10.9103 13.047 10.6713 13.2475L10.6678 13.2505C10.3313 13.5275 9.93633 13.7485 9.50633 13.893L9.48033 13.9005C9.04583 14.0465 8.54183 14.148 8.01933 14.1845L8.00033 14.1855C7.81583 14.2035 7.60183 14.2135 7.38533 14.2135C6.76683 14.2135 6.16733 14.1305 5.59833 13.9745L5.64583 13.9855C5.26083 13.8885 4.92533 13.7155 4.64133 13.482L4.64583 13.4855C4.40383 13.2835 4.25033 12.982 4.25033 12.6445C4.25033 12.636 4.25033 12.6275 4.25083 12.6195V12.621C4.25083 12.556 4.27333 12.5485 4.32833 12.561C4.60933 12.624 4.95483 12.678 5.30633 12.711L5.34083 12.7135C5.53383 12.732 5.75783 12.7425 5.98433 12.7425C6.45183 12.7425 6.90883 12.6975 7.35083 12.611L7.30583 12.6185C7.78783 12.521 8.21383 12.3815 8.61583 12.198L8.57833 12.2135C9.24833 11.9115 9.82533 11.537 10.3363 11.089L10.3283 11.096C10.8783 10.6255 11.3298 10.0585 11.6613 9.41947L11.6758 9.38847L11.6998 9.33047Z" fill="black"/>
<path d="M12.1798 12.1755C12.6758 11.673 13.0988 11.0965 13.4308 10.465L13.4498 10.4255C13.8188 9.71197 14.0888 8.88297 14.2148 8.00747L14.2198 7.96547C14.2803 7.55447 14.3148 7.07997 14.3148 6.59797C14.3148 6.58247 14.3148 6.56647 14.3148 6.55097V6.55347C14.3148 5.84597 14.3148 5.13597 14.3148 4.42847C14.3148 4.35847 14.2973 4.33597 14.2248 4.33847C13.8073 4.33847 13.3923 4.33847 12.9748 4.33847C12.9488 4.33997 12.9188 4.34097 12.8883 4.34097C12.3868 4.34097 11.9413 4.10097 11.6598 3.72997L11.6568 3.72597C11.5943 3.64847 11.5318 3.57097 11.4718 3.49097C11.4968 3.46597 11.5243 3.47597 11.5493 3.47597H15.0218C15.0918 3.47597 15.1118 3.49097 15.1118 3.56347C15.1118 4.71347 15.1118 5.86597 15.1118 7.01597C15.0973 7.93197 14.8993 8.79747 14.5528 9.58347L14.5693 9.54097C14.3693 10.003 14.1353 10.401 13.8588 10.7655L13.8693 10.751C13.4333 11.3275 12.8938 11.8005 12.2753 12.15L12.2493 12.1635C12.2358 12.173 12.2188 12.1785 12.2003 12.1785C12.1928 12.1785 12.1858 12.1775 12.1788 12.176L12.1798 12.1755Z" fill="black"/>
<path d="M7.99983 0.702969C8.07033 0.856969 8.13883 0.983969 8.21383 1.10647L8.20483 1.09047C8.29883 1.24347 8.42533 1.36797 8.57483 1.45797L8.57983 1.46047C8.67483 1.50747 8.78683 1.53497 8.90533 1.53497C9.06383 1.53497 9.21133 1.48547 9.33233 1.40147L9.32983 1.40297C9.44733 1.34047 9.44483 1.33797 9.49483 1.45547C9.56533 1.64247 9.66033 1.80347 9.77733 1.94597L9.77483 1.94297C9.88433 2.07747 10.0498 2.16247 10.2348 2.16247C10.3113 2.16247 10.3843 2.14797 10.4513 2.12197L10.4473 2.12347C10.4773 2.12347 10.5148 2.08347 10.5348 2.10847C10.5548 2.13347 10.5198 2.16847 10.5023 2.19597C10.2223 2.61847 9.93983 3.04097 9.66233 3.46597C9.62983 3.51347 9.60483 3.52347 9.55233 3.49597C9.21433 3.32247 8.82083 3.19747 8.40583 3.14297L8.38733 3.14097C8.27183 3.12597 8.13783 3.11747 8.00183 3.11747C7.76533 3.11747 7.53533 3.14347 7.31383 3.19247L7.33483 3.18847C7.01333 3.25897 6.73033 3.35897 6.46433 3.48847L6.48733 3.47847C6.40733 3.51597 6.36983 3.51097 6.31983 3.43097C6.06983 3.02847 5.79483 2.62847 5.53233 2.22847L5.44983 2.09597C5.53883 2.10547 5.61933 2.12247 5.69683 2.14597L5.68733 2.14347C5.71783 2.14897 5.75283 2.15197 5.78883 2.15197C5.99483 2.15197 6.17683 2.05097 6.28883 1.89547L6.28983 1.89347C6.39533 1.75947 6.48033 1.60347 6.53683 1.43447L6.53983 1.42347C6.56233 1.35847 6.58983 1.34597 6.64983 1.38097C6.79333 1.46547 6.96533 1.51647 7.14883 1.52097C7.15283 1.52097 7.15833 1.52097 7.16283 1.52097C7.35983 1.52097 7.53733 1.43747 7.66233 1.30397C7.80533 1.13397 7.92033 0.933969 7.99633 0.716469L7.99983 0.702969Z" fill="black"/>
<path d="M11.8998 15.848C11.5723 15.7905 11.2448 15.728 10.9148 15.6755C10.7173 15.643 10.5173 15.623 10.3198 15.6005C9.81983 15.538 9.31983 15.5005 8.83483 15.4705C8.37983 15.4405 7.92233 15.443 7.46733 15.4555C7.05983 15.4555 6.65233 15.5005 6.24733 15.5505C5.72983 15.613 5.21483 15.678 4.70233 15.778C4.56233 15.8055 4.42483 15.8255 4.28483 15.8455C4.25233 15.8455 4.19983 15.8905 4.18983 15.8005C4.17983 15.7105 4.23483 15.703 4.27483 15.6855C4.58983 15.5605 4.90983 15.4555 5.22983 15.3605C5.61683 15.236 6.08533 15.127 6.56533 15.0545L6.61733 15.048C6.93233 15.0055 7.24733 14.978 7.56483 14.953C7.73033 14.9395 7.92283 14.932 8.11733 14.932C8.22033 14.932 8.32233 14.934 8.42433 14.9385L8.40983 14.938C8.89933 14.958 9.35983 15.0085 9.81033 15.087L9.74733 15.078C10.2888 15.1645 10.7648 15.283 11.2243 15.4365L11.1598 15.418C11.4098 15.5005 11.6798 15.598 11.9398 15.688C11.9588 15.6945 11.9753 15.703 11.9903 15.7135C12.0128 15.7295 12.0268 15.755 12.0268 15.7845C12.0268 15.791 12.0263 15.7975 12.0248 15.8035C12.0248 15.851 11.9923 15.853 11.9698 15.853H11.8998V15.848Z" fill="black"/>
<path d="M9.36983 1.11047C9.36933 1.10497 9.36933 1.09847 9.36933 1.09197C9.36933 1.00797 9.40383 0.932469 9.45983 0.878469C9.48583 0.847469 9.52433 0.827969 9.56783 0.827969C9.57833 0.827969 9.58883 0.828969 9.59833 0.831469H9.59733C9.64633 0.848469 9.68133 0.892969 9.68483 0.945969C9.68783 0.960969 9.68983 0.978969 9.68983 0.996969C9.68983 1.08997 9.64283 1.17197 9.57083 1.22047L9.56983 1.22097C9.55133 1.23247 9.52883 1.23947 9.50483 1.23947C9.48083 1.23947 9.45833 1.23247 9.43933 1.22047C9.40033 1.19747 9.37433 1.15697 9.36983 1.11047Z" fill="black"/>
<path d="M6.60733 1.06547C6.60733 1.15047 6.59233 1.21297 6.52983 1.23797C6.51733 1.24197 6.50233 1.24397 6.48733 1.24397C6.43633 1.24397 6.39083 1.21897 6.36283 1.18097C6.31783 1.13147 6.28983 1.06497 6.28983 0.992469C6.28983 0.962969 6.29433 0.934969 6.30283 0.908469L6.30233 0.910469C6.31183 0.866969 6.34733 0.833469 6.39183 0.827969C6.39333 0.827969 6.39533 0.827969 6.39733 0.827969C6.46083 0.827969 6.51683 0.860469 6.54983 0.909969C6.58483 0.951969 6.60633 1.00647 6.60733 1.06547Z" fill="black"/>
<path d="M5.42233 1.88297C5.42233 1.92797 5.40483 1.98297 5.33233 1.98547C5.25333 1.97897 5.19183 1.91347 5.19183 1.83347C5.19183 1.82997 5.19183 1.82597 5.19233 1.82247C5.19233 1.76997 5.19233 1.70047 5.27483 1.69547C5.35733 1.69047 5.42233 1.79047 5.42233 1.88297Z" fill="black"/>
<path d="M10.6498 1.98547C10.5673 1.98547 10.5648 1.92297 10.5598 1.87047C10.5598 1.86697 10.5593 1.86347 10.5593 1.85947C10.5593 1.78147 10.6183 1.71697 10.6938 1.70797C10.7638 1.70797 10.7868 1.74297 10.7893 1.80047C10.7898 1.80547 10.7903 1.81197 10.7903 1.81797C10.7903 1.90147 10.7293 1.97097 10.6498 1.98547Z" fill="black"/>
</g>
<defs>
<clipPath id="clip0_6_251">
<rect width="16" height="16" fill="white"/>
</clipPath>
</defs>
</svg>
