<svg width="16" height="16" viewBox="0 0 16 16" fill="none" xmlns="http://www.w3.org/2000/svg">
<path d="M15.7 1.91C15.7 1.907 15.7 1.9035 15.7 1.9C15.7 1.6825 15.5265 1.5055 15.3105 1.5H0.690049C0.473549 1.5055 0.300049 1.6825 0.300049 1.9C0.300049 1.9035 0.300049 1.907 0.300049 1.9105V14C0.300049 14.004 0.300049 14.008 0.300049 14.0125C0.300049 14.2285 0.472549 14.4045 0.687049 14.41H15.3125C15.5295 14.403 15.7025 14.2255 15.7025 14.0075C15.7025 14.005 15.7025 14.002 15.7025 13.9995C15.6992 9.96617 15.6984 5.93667 15.7 1.91ZM12.95 8.41C12.92 8.432 12.898 8.463 12.888 8.499L12.8875 8.5C12.875 8.5345 12.843 8.5585 12.805 8.5585C12.7895 8.5585 12.775 8.5545 12.762 8.5475C12.7245 8.5275 12.7075 8.5475 12.695 8.5775C12.689 8.6235 12.6505 8.6585 12.603 8.6585C12.585 8.6585 12.5685 8.6535 12.5545 8.6445C12.5295 8.6445 12.515 8.6445 12.4975 8.6445L11.9575 8.907C11.9325 8.907 11.91 8.9245 11.9125 8.9695C11.915 9.0145 11.8225 9.057 11.785 9.0295C11.7475 9.002 11.715 9.0095 11.705 9.067C11.695 9.1245 11.6125 9.167 11.57 9.127C11.5275 9.087 11.535 9.127 11.515 9.127C11.4985 9.132 11.479 9.1345 11.4595 9.1345C11.3495 9.1345 11.2595 9.05 11.2505 8.9425V8.9415C11.2505 8.874 11.228 8.804 11.2205 8.7365C11.2205 8.678 11.1755 8.6295 11.1185 8.624C10.852 8.57 10.5455 8.539 10.232 8.539C10.2165 8.539 10.201 8.539 10.1855 8.539H10.188C10.068 8.549 9.92905 8.555 9.78805 8.555C9.64705 8.555 9.50805 8.549 9.37005 8.538L9.38805 8.539C9.20805 8.5235 9.04605 8.4605 8.91005 8.362L8.91305 8.364C8.81005 8.286 8.68005 8.239 8.53855 8.239C8.53305 8.239 8.52755 8.239 8.52205 8.239C8.13705 8.239 7.75305 8.2215 7.36805 8.209C7.32305 8.209 7.29305 8.209 7.28805 8.2715C7.28305 8.334 7.25305 8.3215 7.21555 8.3215C6.80555 8.3215 6.39305 8.3215 5.98305 8.3215H5.20305L5.45305 8.4565C5.48855 8.47 5.51305 8.5035 5.51305 8.543C5.51305 8.5425 5.51305 8.5435 5.51305 8.543C5.54055 8.8255 5.56805 9.109 5.60055 9.3915C5.60055 9.439 5.60055 9.459 5.55055 9.4615C5.50055 9.464 5.49805 9.494 5.50055 9.5415C5.54055 9.9315 5.55805 10.3215 5.56305 10.714C5.56355 10.7215 5.56355 10.7305 5.56355 10.7395C5.56355 10.9235 5.47105 11.086 5.32955 11.183L5.32755 11.184C5.22005 11.26 5.09605 11.3375 4.96705 11.407L4.94755 11.4165C4.92005 11.4315 4.89005 11.439 4.91255 11.4865C4.93505 11.534 4.88755 11.5365 4.86255 11.549C4.54505 11.709 4.21755 11.8365 3.89005 11.964C3.36205 12.145 2.93005 12.326 2.51155 12.5305L2.58255 12.499C2.24905 12.661 1.97055 12.8885 1.75405 13.1665L1.75005 13.1715C1.70955 13.227 1.67005 13.291 1.63455 13.3575L1.63005 13.3665C1.60905 13.4125 1.56405 13.4435 1.51155 13.4435C1.49405 13.4435 1.47705 13.44 1.46205 13.4335L1.46305 13.434C1.39805 13.4165 1.35055 13.3585 1.35055 13.289C1.35055 13.288 1.35055 13.2875 1.35055 13.2865C1.35055 13.214 1.37555 13.139 1.31305 13.0715C1.30405 13.0565 1.29855 13.039 1.29855 13.0195C1.29855 12.9895 1.31205 12.9625 1.33305 12.944C1.36405 12.9125 1.38355 12.869 1.38355 12.821C1.38355 12.7995 1.37955 12.779 1.37255 12.76L1.37305 12.761C1.36655 12.7475 1.36305 12.731 1.36305 12.714C1.36305 12.668 1.39055 12.6285 1.43005 12.611C1.43905 12.607 1.44705 12.6005 1.45305 12.593C1.54555 12.4415 1.63705 12.3115 1.73605 12.188L1.73055 12.1955C1.75805 12.153 1.78805 12.118 1.76305 12.053C1.76105 12.045 1.75955 12.036 1.75955 12.0265C1.75955 11.985 1.78405 11.949 1.82005 11.933C1.84955 11.921 1.87055 11.8915 1.87055 11.8585C1.87055 11.8465 1.86805 11.835 1.86305 11.8245C1.86155 11.8175 1.86055 11.81 1.86055 11.802C1.86055 11.7525 1.89105 11.71 1.93455 11.693L1.93555 11.6925C1.93555 11.6925 1.96055 11.6925 1.96555 11.6925C2.08555 11.58 2.19805 11.63 2.31805 11.6925C2.39355 11.741 2.48605 11.77 2.58555 11.77C2.73605 11.77 2.87105 11.7035 2.96255 11.598C3.19755 11.3755 3.42555 11.1425 3.67055 10.93C3.82205 10.7895 3.99355 10.668 4.18005 10.571L4.19305 10.565C4.26605 10.5295 4.35055 10.505 4.43955 10.4955L4.44305 10.495C4.36055 10.2875 4.28055 10.0825 4.21305 9.875C4.17705 9.7795 4.14355 9.663 4.11855 9.5435L4.11555 9.5275C4.11555 9.4775 4.08555 9.455 4.04055 9.4525C4.03955 9.4525 4.03805 9.4525 4.03655 9.4525C3.98755 9.4525 3.94655 9.417 3.93805 9.3705C3.74405 8.745 3.63205 8.025 3.63205 7.2795C3.63205 7.235 3.63255 7.19 3.63305 7.1455V7.152C3.63305 7.1095 3.63305 7.0645 3.64805 7.0095L3.54555 7.0545C3.53005 7.0055 3.52105 6.9495 3.52105 6.8915C3.52105 6.861 3.52355 6.8305 3.52805 6.8015L3.52755 6.8045C3.58255 6.099 3.70255 5.4465 3.88205 4.8195L3.86505 4.8895C3.91755 4.6995 3.99755 4.5595 4.19255 4.5195C4.24455 4.5055 4.29005 4.4815 4.32805 4.449L3.97255 4.422C3.77505 4.4045 3.57505 4.392 3.37755 4.372C3.37105 4.371 3.36355 4.3705 3.35605 4.3705C3.31205 4.3705 3.27255 4.3895 3.24505 4.4195C2.90005 4.7295 2.57505 5.0295 2.25005 5.322C2.16005 5.3965 2.09505 5.499 2.06805 5.616L2.06755 5.6195C2.05355 5.6705 2.02455 5.7135 1.98555 5.744C1.84505 5.889 1.65705 5.9885 1.44705 6.0165L1.44255 6.017C1.42255 6.0215 1.40005 6.024 1.37655 6.024C1.33055 6.024 1.28705 6.014 1.24805 5.996L1.25005 5.997C1.18755 5.9595 1.18505 5.9145 1.25005 5.8695L1.45755 5.707L1.54005 5.6395C1.49005 5.6045 1.46755 5.6395 1.44505 5.6395C1.38555 5.6665 1.31655 5.6865 1.24405 5.6965L1.24005 5.697C1.23755 5.6975 1.23505 5.6975 1.23205 5.6975C1.20155 5.6975 1.17605 5.6745 1.17255 5.645C1.16905 5.637 1.16705 5.6275 1.16705 5.618C1.16705 5.59 1.18355 5.566 1.20705 5.555L1.30005 5.515C1.42755 5.4695 1.53205 5.3865 1.60355 5.2795L1.60505 5.2775C1.66355 5.182 1.76155 5.116 1.87605 5.1025H1.87755C1.91755 5.1025 1.93005 5.07 1.94755 5.045C2.27505 4.605 2.60505 4.1625 2.94755 3.745C3.01105 3.659 3.11205 3.604 3.22555 3.604C3.23405 3.604 3.24255 3.6045 3.25105 3.605C3.31105 3.605 3.33505 3.59 3.33755 3.5325C3.34005 3.475 3.38005 3.46 3.42755 3.4575C3.70755 3.4235 4.03155 3.404 4.36055 3.404C4.54005 3.404 4.71755 3.41 4.89405 3.421L4.87005 3.42C5.03105 3.43 5.18105 3.4555 5.32505 3.496L5.31005 3.4925C5.37005 3.5125 5.39255 3.51 5.39255 3.435C5.39255 3.4345 5.39255 3.4355 5.39255 3.435C5.39255 3.299 5.41755 3.1675 5.46255 3.0475L5.46005 3.055C5.54505 2.756 5.81605 2.5405 6.13705 2.5405C6.18755 2.5405 6.23705 2.546 6.28455 2.556L6.28005 2.555C6.55055 2.6125 6.77605 2.7735 6.91755 2.9935L6.92005 2.9975C6.97305 3.066 7.00455 3.1525 7.00455 3.247C7.00455 3.309 6.99105 3.3675 6.96655 3.42L6.96755 3.4175C6.93105 3.506 6.91005 3.609 6.91005 3.717C6.91005 3.772 6.91555 3.8255 6.92605 3.8775L6.92505 3.8725C6.94005 3.985 6.95255 4.0875 6.83005 4.1475C6.80505 4.16 6.79005 4.195 6.77255 4.2225C6.72855 4.299 6.68455 4.3895 6.64755 4.483L6.64255 4.4975C6.58255 4.6425 6.58255 4.6425 6.42755 4.63L6.20005 4.6125C6.19505 4.611 6.18955 4.61 6.18355 4.61C6.15605 4.61 6.13355 4.629 6.12755 4.6545C5.90005 5.131 5.70805 5.6875 5.57955 6.2675L5.57005 6.32C5.55005 6.43 5.55005 6.4275 5.65755 6.445L7.38255 6.695C7.41905 6.695 7.44855 6.724 7.45005 6.76C7.45155 6.8085 7.49105 6.8475 7.54005 6.8475C7.94455 6.909 8.30855 7.0225 8.64655 7.1825L8.62255 7.1725C8.66655 7.189 8.71705 7.1985 8.77055 7.1985C8.78105 7.1985 8.79155 7.198 8.80155 7.1975H8.80005C8.82455 7.196 8.85255 7.195 8.88105 7.195C9.01255 7.195 9.13955 7.214 9.25905 7.25L9.24955 7.2475C9.24955 7.2475 9.27455 7.2475 9.27955 7.2475C9.34955 7.1725 9.41705 7.2325 9.47955 7.2475C9.85955 7.3825 10.2295 7.5675 10.587 7.73C11.175 7.997 11.8605 8.158 12.5825 8.17H12.587C12.684 8.17 12.7795 8.1755 12.8735 8.186L12.862 8.185C12.917 8.1935 12.9625 8.226 12.989 8.2715L12.9895 8.2725C13.0025 8.288 13.011 8.3085 13.011 8.3305C13.011 8.369 12.987 8.402 12.953 8.4145L12.95 8.41ZM13.9875 7.91C13.974 7.9105 13.9585 7.911 13.9425 7.911C13.4455 7.911 13.0425 7.508 13.0425 7.011C13.0425 6.514 13.4455 6.111 13.9425 6.111C14.4395 6.111 14.8425 6.514 14.8425 7.011C14.8425 7.0115 14.8425 7.012 14.8425 7.0125C14.843 7.0225 14.843 7.034 14.843 7.0455C14.843 7.5175 14.469 7.9025 14.0015 7.92H14L13.9875 7.91Z" fill="black"/>
</svg>
