<svg width="16" height="16" viewBox="0 0 16 16" fill="none" xmlns="http://www.w3.org/2000/svg">
<g clip-path="url(#clip0_6_347)">
<path d="M8 0C3.5815 0 0 3.5815 0 8C0 12.4185 3.5815 16 8 16C12.4185 16 16 12.4185 16 8C16 3.5815 12.4185 0 8 0ZM12.0625 8.5C9.19 11.5 6.4675 11.4225 3.895 8.5C3.789 8.3735 3.725 8.209 3.725 8.0295C3.725 7.829 3.805 7.6475 3.9355 7.515C6.6455 4.98667 9.34717 4.98583 12.0405 7.5125C12.1675 7.643 12.246 7.8215 12.246 8.0185C12.246 8.2035 12.1765 8.3725 12.0625 8.501V8.5Z" fill="black"/>
<path d="M8 6.5C7.8155 6.5 7.637 6.5285 7.47 6.581L7.4825 6.5775C7.791 6.717 8.002 7.0225 8.002 7.377C8.002 7.86 7.61 8.252 7.127 8.252C6.7725 8.252 6.467 8.041 6.3295 7.738L6.3275 7.7325C6.278 7.8875 6.249 8.0655 6.249 8.25C6.249 9.2165 7.0325 10 7.999 10C8.9655 10 9.749 9.2165 9.749 8.25C9.749 7.284 8.966 6.5005 8 6.5Z" fill="black"/>
</g>
<defs>
<clipPath id="clip0_6_347">
<rect width="16" height="16" fill="white"/>
</clipPath>
</defs>
</svg>
