<svg width="16" height="16" viewBox="0 0 16 16" fill="none" xmlns="http://www.w3.org/2000/svg">
<g clip-path="url(#clip0_6_252)">
<path d="M15.3926 0.0198221V9.19732C15.3946 9.21782 15.3956 9.24182 15.3956 9.26582C15.3956 9.28982 15.3946 9.31382 15.3926 9.33782V9.33482C15.3866 9.52332 15.3686 9.70282 15.3391 9.87832L15.3421 9.85482C15.2636 10.3493 15.1441 10.7903 14.9841 11.2108L14.9996 11.1648C14.6296 12.1833 14.0706 13.0538 13.3591 13.7728C12.6596 14.4858 11.8176 15.0553 10.8786 15.4373L10.8296 15.4548C9.99255 15.7993 9.02055 15.9993 8.00205 15.9993C7.21455 15.9993 6.45505 15.8798 5.74105 15.6583L5.79505 15.6728C4.86405 15.3908 4.05505 14.9633 3.34905 14.4108L3.36505 14.4228C2.38105 13.6558 1.61155 12.6573 1.13255 11.5078L1.11505 11.4603C0.831051 10.7718 0.650551 9.97482 0.615551 9.13982L0.615051 9.12532C0.616051 9.11732 0.617051 9.10782 0.617051 9.09832C0.617051 9.07132 0.612051 9.04532 0.602051 9.02182L0.602551 9.02332V7.45582H6.50005L6.45755 7.50332C6.09855 7.88432 5.87805 8.39932 5.87805 8.96582C5.87805 9.32082 5.96455 9.65582 6.11805 9.95032L6.11255 9.93832C6.48905 10.6858 7.25005 11.1893 8.12855 11.1893C8.15355 11.1893 8.17855 11.1888 8.20355 11.1883H8.20005C8.21205 11.1883 8.22605 11.1888 8.24055 11.1888C8.74055 11.1888 9.20155 11.0243 9.57355 10.7468L9.56755 10.7508C9.58505 10.7318 9.60705 10.7173 9.63155 10.7088L9.63255 10.7083C9.65005 10.7458 9.61505 10.7633 9.60005 10.7858C9.31705 11.1418 9.14555 11.5983 9.14555 12.0948C9.14555 12.2383 9.16005 12.3788 9.18705 12.5143L9.18455 12.5008C9.30805 13.1668 9.72255 13.7168 10.2881 14.0228L10.2996 14.0283C10.6306 14.2178 11.0276 14.3298 11.4501 14.3298C12.126 14.3298 12.7351 14.0443 13.1631 13.5873L13.1641 13.5858C13.5275 13.1993 13.7511 12.6773 13.7511 12.1033C13.7511 11.4273 13.4411 10.8233 12.9556 10.4263L12.9516 10.4233C12.5536 10.0843 12.0331 9.87782 11.4641 9.87782C11.3626 9.87782 11.2626 9.88432 11.1646 9.89732L11.1761 9.89632C10.725 9.94482 10.3221 10.1188 9.99405 10.3823L9.99855 10.3788C9.98105 10.3938 9.96605 10.4138 9.93855 10.4163C9.91105 10.4188 9.96855 10.3738 9.98355 10.3538C10.2956 9.98482 10.4856 9.50332 10.4856 8.97782C10.4856 8.66132 10.4166 8.36082 10.2931 8.09032L10.2986 8.10382C9.94105 7.30782 9.16005 6.76182 8.25005 6.75132H8.24855C8.21305 6.74932 8.17205 6.74832 8.13005 6.74832C7.52805 6.74832 6.98105 6.98482 6.57755 7.36982L6.57855 7.36882C6.55655 7.39432 6.53105 7.41582 6.50255 7.43282L6.50105 7.43382C6.49805 7.42082 6.49655 7.40632 6.49655 7.39132C6.49655 7.37632 6.49805 7.36182 6.50155 7.34732L6.50105 7.34882V0.111322C6.50055 0.100822 6.50005 0.0888221 6.50005 0.0763221C6.50005 0.0638221 6.50055 0.0518221 6.50105 0.0398221V0.0413221C6.50105 0.0263221 6.50105 0.0188221 6.52605 0.0163221H15.3911L15.3926 0.0198221Z" fill="black"/>
<path d="M6.52755 0.0148223L6.50005 -0.000177737H15.3251C15.3476 -0.000177737 15.3801 -0.0176777 15.3976 0.0148223H6.52755Z" fill="black"/>
<path d="M0.617551 9.11482L0.605051 9.13482V9.01232C0.614051 9.03482 0.619551 9.06032 0.619551 9.08782C0.619551 9.09732 0.619051 9.10682 0.617551 9.11632V9.11482Z" fill="black"/>
<path d="M6.50005 7.43482C6.50005 7.43482 6.48005 7.43482 6.48505 7.45232V7.43482H6.50005Z" fill="black"/>
<path d="M9.63255 10.7083C9.63255 10.6908 9.65005 10.6823 9.66505 10.6773C9.68005 10.6723 9.66255 10.7158 9.63255 10.7083Z" fill="black"/>
<path d="M9.92505 10.4323C9.92505 10.4323 9.92505 10.4148 9.94255 10.4148L9.92505 10.4323Z" fill="black"/>
<path d="M9.91005 10.4423C9.91205 10.4348 9.91905 10.4298 9.92705 10.4298H9.92805L9.91005 10.4423Z" fill="black"/>
<path d="M9.66505 10.6773C9.66505 10.6773 9.66505 10.6623 9.68505 10.6573C9.70505 10.6523 9.67755 10.6773 9.66505 10.6773Z" fill="black"/>
</g>
<defs>
<clipPath id="clip0_6_252">
<rect width="16" height="16" fill="white"/>
</clipPath>
</defs>
</svg>
