<svg width="16" height="16" viewBox="0 0 16 16" fill="none" xmlns="http://www.w3.org/2000/svg">
<g clip-path="url(#clip0_13_205)">
<path d="M11.17 0C10.43 0.94 9.29 1.54 8.01 1.54H7.98C6.7 1.54 5.56 0.94 4.83 0H4.82L0 1.13V6.32H2.14V16H13.86V6.32H16V1.13L11.17 0ZM10.67 11.64C10.42 11.96 10.08 12.21 9.64 12.4C9.2 12.58 8.71 12.67 8.14 12.67C7.57 12.67 7.08 12.58 6.64 12.4C6.2 12.21 5.86 11.96 5.61 11.64C5.36 11.32 5.24 10.96 5.24 10.55C5.24 10.24 5.31 9.96 5.45 9.69C5.6 9.43 5.79 9.21 6.04 9.04C6.28 8.86 6.56 8.75 6.86 8.7V8.65C6.46 8.57 6.14 8.38 5.89 8.07C5.64 7.76 5.52 7.4 5.52 6.99C5.52 6.61 5.63 6.26 5.86 5.96C6.08 5.65 6.4 5.42 6.79 5.24C7.19 5.07 7.64 4.98 8.14 4.98C8.64 4.98 9.1 5.07 9.49 5.24C9.89 5.42 10.2 5.66 10.43 5.96C10.65 6.27 10.77 6.61 10.77 6.99C10.77 7.41 10.64 7.76 10.39 8.07C10.14 8.38 9.82 8.57 9.43 8.65V8.7C9.72 8.75 10 8.86 10.24 9.04C10.49 9.21 10.68 9.43 10.82 9.69C10.97 9.96 11.05 10.24 11.05 10.55C11.05 10.96 10.92 11.32 10.67 11.64ZM8.79 9.46C8.6 9.36 8.39 9.31 8.14 9.31C7.89 9.31 7.69 9.36 7.5 9.46C7.31 9.56 7.16 9.69 7.05 9.86C6.94 10.02 6.89 10.21 6.89 10.43C6.89 10.65 6.94 10.83 7.04 10.99C7.15 11.15 7.29 11.28 7.48 11.37C7.67 11.46 7.89 11.51 8.14 11.51C8.39 11.51 8.61 11.46 8.8 11.37C8.99 11.28 9.13 11.15 9.24 10.99C9.35 10.83 9.4 10.64 9.4 10.43C9.4 10.22 9.34 10.02 9.24 9.86C9.13 9.69 8.98 9.56 8.79 9.46ZM7.58 8.04C7.75 8.12 7.93 8.16 8.14 8.16C8.35 8.16 8.54 8.12 8.7 8.04C8.86 7.95 8.99 7.83 9.09 7.68C9.18 7.53 9.22 7.36 9.22 7.16C9.22 6.96 9.18 6.79 9.09 6.65C8.99 6.5 8.87 6.38 8.71 6.3C8.54 6.21 8.36 6.17 8.14 6.17C7.92 6.17 7.74 6.21 7.58 6.3C7.42 6.38 7.29 6.5 7.2 6.65C7.11 6.79 7.06 6.96 7.06 7.16C7.06 7.36 7.11 7.53 7.2 7.68C7.29 7.83 7.42 7.95 7.58 8.04Z" fill="black"/>
</g>
<defs>
<clipPath id="clip0_13_205">
<rect width="16" height="16" fill="white"/>
</clipPath>
</defs>
</svg>
