<svg width="16" height="16" viewBox="0 0 16 16" fill="none" xmlns="http://www.w3.org/2000/svg">
<g clip-path="url(#clip0_6_344)">
<path d="M10.2635 9.39291C10.276 9.48641 10.2865 9.57541 10.2965 9.66141C10.3285 9.88891 10.412 10.0924 10.535 10.2659L10.532 10.2614C10.5725 10.3274 10.628 10.3144 10.6765 10.2944C10.7775 10.2494 10.8625 10.1839 10.929 10.1029L10.93 10.1019C11.004 10.0129 11.1145 9.95641 11.2385 9.95641C11.2575 9.95641 11.276 9.95791 11.294 9.96041H11.292C11.299 9.96091 11.3075 9.96141 11.316 9.96141C11.3245 9.96141 11.333 9.96091 11.341 9.96041C11.3665 9.96041 11.388 9.96041 11.3955 9.90991C11.403 9.85941 11.378 9.85941 11.3625 9.83891C11.347 9.81841 11.269 9.83891 11.2715 9.75791C11.274 9.67691 11.335 9.71241 11.3625 9.67691C11.39 9.64141 11.4055 9.63641 11.393 9.60591C11.387 9.58491 11.383 9.56091 11.383 9.53641C11.383 9.48741 11.397 9.44141 11.4215 9.40241L11.421 9.40341C11.459 9.31991 11.436 9.26691 11.3525 9.22091C11.38 9.19491 11.3975 9.15841 11.3975 9.11741C11.3975 9.09891 11.394 9.08141 11.3875 9.06541L11.388 9.06641C11.3675 9.01591 11.335 8.99291 11.292 9.00291C11.2605 9.00541 11.236 9.03191 11.236 9.06341C11.236 9.06441 11.236 9.06541 11.236 9.06641C11.236 9.13491 11.1855 9.14991 11.15 9.17291C11.1145 9.19591 11.0995 9.19591 11.079 9.17291C11.07 9.15741 11.0645 9.13841 11.0645 9.11841C11.0645 9.09841 11.07 9.07941 11.0795 9.06341C11.09 9.03391 11.096 9.00091 11.0965 8.96541C11.0975 8.95991 11.098 8.95291 11.098 8.94641C11.098 8.90991 11.0805 8.87691 11.0535 8.85641C11.0155 8.83591 11.0075 8.88941 10.995 8.92241C10.943 9.03941 10.9 9.17591 10.873 9.31791L10.871 9.32991C10.871 9.38791 10.833 9.38791 10.7975 9.39841C10.8015 9.33441 10.804 9.25941 10.804 9.18391C10.804 8.97191 10.785 8.76391 10.7485 8.56191L10.7515 8.58291C10.7515 8.55241 10.7515 8.53491 10.769 8.53241C10.7865 8.52991 10.812 8.49441 10.8045 8.44391C10.7895 8.31241 10.7715 8.19091 10.7465 8.05391C10.7465 8.03341 10.7235 8.00091 10.7465 7.98541C10.7695 7.96991 10.782 7.98541 10.7945 8.01341C10.8095 8.05341 10.833 8.08741 10.8625 8.11441C10.8935 8.14841 10.938 8.16941 10.9875 8.16941C11.049 8.16941 11.103 8.13641 11.133 8.08741L11.1335 8.08641C11.151 8.06591 11.159 8.08641 11.1715 8.08641C11.255 8.12941 11.2705 8.11941 11.298 7.99291C11.326 8.02591 11.351 8.06141 11.3765 8.08891C11.402 8.11641 11.422 8.14191 11.455 8.11941C11.4775 8.09741 11.491 8.06691 11.491 8.03291C11.491 8.02291 11.49 8.01341 11.4875 8.00441V8.00541C11.4725 7.91441 11.4875 7.90691 11.556 7.89891C11.615 7.88541 11.6825 7.87791 11.752 7.87791C11.919 7.87791 12.076 7.92241 12.211 8.00041L12.2065 7.99791C12.359 8.10591 12.492 8.21241 12.6185 8.32591L12.6145 8.32241C12.8335 8.52741 13.116 8.66741 13.43 8.70891L13.4375 8.70991C13.4545 8.71141 13.475 8.71191 13.495 8.71191C13.7695 8.71191 14.013 8.57741 14.1625 8.37041L14.164 8.36791C14.304 8.15791 14.39 7.90141 14.397 7.62541V7.62341C14.458 7.02591 14.174 6.70191 13.8195 6.63591C13.3665 6.54741 12.9635 6.73741 12.5915 7.09441C12.4035 7.30491 12.1595 7.46191 11.883 7.54241L11.8725 7.54491C11.7005 7.57541 11.5255 7.58541 11.351 7.60291C11.346 7.60491 11.3405 7.60641 11.3345 7.60641C11.3285 7.60641 11.323 7.60491 11.318 7.60291C11.1915 7.43841 11.0295 7.46341 10.88 7.42041C10.508 7.31641 10.143 7.44341 9.77846 7.49391C9.76596 7.49391 9.76096 7.49391 9.75046 7.47391L10.257 7.24091L10.5305 7.10141C10.576 7.08391 10.571 7.06091 10.5305 7.02291C10.497 6.97891 10.459 6.94141 10.4155 6.90991L10.414 6.90891C10.3535 6.86391 10.284 6.81791 10.2125 6.77541L10.2015 6.76941C10.108 6.71141 10.1 6.70091 10.1355 6.56191C10.148 6.46091 10.196 6.37241 10.267 6.30891C10.357 6.20991 10.4155 6.08041 10.4245 5.93791V5.93591C10.351 5.76391 10.455 5.65241 10.493 5.51791C10.503 5.46291 10.509 5.39991 10.509 5.33591C10.509 5.21991 10.49 5.10841 10.4555 5.00441L10.4575 5.01191C10.4575 4.99941 10.4575 4.98891 10.4575 4.97891C10.4575 4.96891 10.4725 4.96391 10.4805 4.96391C11.711 4.96391 12.944 4.96391 14.175 4.96391C14.1825 4.96391 14.1915 4.96391 14.2005 4.96391C14.5805 4.96391 14.9305 5.09241 15.2095 5.30891L15.2055 5.30591C15.605 5.63891 15.86 6.13291 15.8715 6.68641V6.68841C15.8875 6.84141 15.897 7.01891 15.897 7.19841C15.897 8.04491 15.692 8.84391 15.329 9.54791L15.3425 9.51941C15.1155 9.97641 14.7105 10.3164 14.2205 10.4509L14.208 10.4539C13.999 10.5154 13.7585 10.5504 13.51 10.5504C13.4935 10.5504 13.4775 10.5504 13.4615 10.5499H13.464C13.016 10.5499 12.57 10.5499 12.122 10.5499C12.0665 10.5499 12.041 10.5499 12.031 10.6539C11.973 11.0919 11.907 11.5274 11.8485 11.9654C11.8485 12.0514 11.813 12.0744 11.755 12.0744C11.3245 12.0744 10.8965 12.0744 10.4685 12.0744C10.357 12.0744 10.266 11.9249 10.291 11.7704C10.3 11.7334 10.3055 11.6914 10.3055 11.6479C10.3055 11.5319 10.2675 11.4249 10.204 11.3384L10.205 11.3399C10.1325 11.2064 10.088 11.0484 10.0835 10.8804V10.8789C10.0835 10.7799 10.0455 10.7424 9.97446 10.7474C9.43696 10.7484 8.94296 10.9334 8.55146 11.2424L8.55646 11.2389L8.51846 11.2644C8.50096 11.2769 8.48296 11.2874 8.46796 11.2644C8.46196 11.2539 8.45846 11.2409 8.45846 11.2279C8.45846 11.2149 8.46196 11.2019 8.46796 11.1909C8.50796 11.1199 8.55796 11.0604 8.61646 11.0099L8.61746 11.0089C8.93446 10.7164 9.31246 10.4839 9.72896 10.3324L9.75196 10.3249C10.1265 10.1884 10.208 10.0539 10.243 9.49691C10.243 9.45891 10.233 9.42341 10.2635 9.39291Z" fill="black"/>
<path d="M5.72096 11.7629C5.40196 9.52458 5.08129 7.28541 4.75896 5.04541C4.75896 4.97441 4.72846 4.96191 4.68546 4.96191C4.20446 4.96191 3.72329 4.96191 3.24196 4.96191C3.19646 4.96191 3.17096 4.98741 3.14846 5.04041L1.79646 8.06391C1.78096 8.08841 1.77046 8.11791 1.76596 8.14891L3.61446 8.14991C3.54846 8.10341 3.47196 8.05691 3.39296 8.01591L3.38146 8.01041C3.36646 8.01041 3.33096 8.01041 3.35346 7.95491C3.43446 7.75491 3.51796 7.55491 3.60646 7.34491L3.88246 9.21591C3.88246 9.28691 3.86746 9.28941 3.82946 9.29941L2.00896 9.77291C1.10496 10.0084 0.800961 10.1729 -0.102539 10.4109L0.674961 10.5629C0.449461 11.0694 0.226961 11.5759 0.00146094 12.0819H1.59396C1.63946 12.0819 1.65496 12.0489 1.67496 12.0059C1.86229 11.5486 2.05129 11.0902 2.24196 10.6309C2.26196 10.5779 2.28496 10.5524 2.32796 10.5524H4.00946C4.05246 10.5524 4.07046 10.5524 4.08046 10.6309C4.14396 11.0839 4.21196 11.5349 4.27296 11.9879C4.27296 12.0639 4.30346 12.0789 4.35146 12.0789H5.72146C5.74146 12.0789 5.76446 12.0789 5.78496 12.0789C5.75696 11.9674 5.74396 11.8644 5.72096 11.7629Z" fill="black"/>
<path d="M8.32396 9.67641C8.77446 9.33441 9.22546 9.07641 9.74446 9.08391C9.72396 9.13091 9.68196 9.16541 9.63146 9.17491H9.63046C9.28196 9.32041 8.98196 9.51091 8.72096 9.74491L8.72396 9.74241C8.67546 9.77591 8.63746 9.82141 8.61346 9.87441L8.61246 9.87641C8.78846 9.77291 8.99846 9.70841 9.22246 9.69941H9.22496C9.20746 9.75741 9.17446 9.75491 9.14646 9.76791C8.78346 9.95091 8.47346 10.1804 8.20796 10.4534L8.20696 10.4544C8.10296 10.5404 8.03746 10.6694 8.03746 10.8139C8.03746 10.8154 8.03746 10.8174 8.03746 10.8194C8.03746 10.8204 8.03746 10.8209 8.03746 10.8219C8.03746 10.8509 8.01846 10.8759 7.99246 10.8844C7.95896 10.9019 7.92996 10.9239 7.90596 10.9499C7.85046 11.0209 7.85046 11.0664 7.90596 11.1274C7.96146 11.1884 7.99946 11.2844 7.90596 11.3804C7.82796 11.4594 7.77946 11.5684 7.77946 11.6879C7.77946 11.7204 7.78296 11.7524 7.78996 11.7829L7.78946 11.7799C7.79246 11.7974 7.79446 11.8174 7.79446 11.8379C7.79446 11.9004 7.77746 11.9589 7.74796 12.0094L7.74896 12.0079C7.72546 12.0589 7.67446 12.0939 7.61546 12.0939C7.19496 12.0939 6.77196 12.0939 6.34896 12.0939C6.29096 12.0939 6.27796 12.0734 6.29096 11.9924C6.43596 10.9797 6.57946 9.97458 6.72146 8.97691C6.73396 8.90341 6.72146 8.87791 6.66846 8.87791C6.31146 8.87791 5.95196 8.87791 5.59496 8.87791C5.59096 8.87841 5.58646 8.87841 5.58196 8.87841C5.55496 8.87841 5.52946 8.87091 5.50796 8.85741L8.11646 8.17441V8.15691H6.84796C6.89846 7.79991 6.94946 7.45041 6.99746 7.10091C7.01796 7.00491 7.03146 6.89241 7.03546 6.77741V6.77391H6.80996C6.30346 6.77391 5.81246 6.77391 5.31346 6.77391C5.26296 6.77391 5.24496 6.75091 5.23496 6.68041C5.15896 6.14208 5.08129 5.60358 5.00196 5.06491C5.00196 5.00691 4.98196 4.96641 5.04746 4.96641H9.53446C9.53146 5.00841 9.52096 5.04741 9.50346 5.08191L9.50446 5.08041C9.49896 5.09641 9.49596 5.11441 9.49596 5.13341C9.49596 5.15241 9.49896 5.17091 9.50446 5.18791L9.50396 5.18691C9.51246 5.22441 9.51696 5.26741 9.51696 5.31191C9.51696 5.39741 9.49896 5.47941 9.46696 5.55291L9.46846 5.54891C9.46296 5.57241 9.45996 5.59941 9.45996 5.62741C9.45996 5.65541 9.46296 5.68241 9.46896 5.70841L9.46846 5.70591C9.47696 5.72941 9.48196 5.75641 9.48196 5.78441C9.48196 5.81241 9.47696 5.83941 9.46796 5.86441L9.46846 5.86291C9.42846 5.96291 9.40546 6.07941 9.40546 6.20091C9.40546 6.27341 9.41346 6.34391 9.42896 6.41141L9.42796 6.40491C9.44846 6.55441 9.44546 6.55191 9.34696 6.59991C9.27296 6.63091 9.18746 6.65341 9.09796 6.66291L9.09396 6.66341C8.75796 6.71241 8.48996 6.95641 8.40646 7.27541L8.40496 7.28141C8.39196 7.33841 8.38446 7.40391 8.38446 7.47091C8.38446 7.62491 8.42396 7.76991 8.49346 7.89641L8.49096 7.89191C8.61746 8.04891 8.74396 8.20341 8.87096 8.36291C8.88346 8.38191 8.90446 8.39441 8.92846 8.39441C8.93296 8.39441 8.93746 8.39391 8.94196 8.39291L9.92646 8.17791C9.94146 8.17441 9.95896 8.17241 9.97696 8.17241C9.99496 8.17241 10.0125 8.17441 10.029 8.17841L10.0275 8.17791C10.015 8.20591 9.99196 8.20841 9.97446 8.21591L8.90846 8.74491C8.88946 8.75641 8.86596 8.76291 8.84146 8.76291C8.81696 8.76291 8.79346 8.75641 8.77396 8.74441C8.69546 8.70391 8.61496 8.67641 8.53896 8.63591C8.46296 8.59541 8.48096 8.63591 8.48346 8.68141C8.45546 8.86791 8.43746 9.08691 8.43296 9.30891V9.31441C8.42346 9.44891 8.38446 9.57241 8.32196 9.68041L8.32396 9.67641Z" fill="black"/>
<path d="M12.6235 7.49391C12.595 7.61841 12.576 7.76391 12.5705 7.91241V7.91691C12.5705 7.96491 12.54 7.99541 12.502 7.96741C12.3965 7.88991 12.2765 7.82191 12.149 7.76891L12.1375 7.76491C12.1195 7.76141 12.106 7.74591 12.106 7.72741C12.106 7.72441 12.1065 7.72191 12.107 7.71891C12.107 7.68841 12.1195 7.67641 12.1375 7.67141C12.299 7.60091 12.438 7.51591 12.564 7.41541L12.56 7.41841C12.608 7.37791 12.621 7.42541 12.6235 7.49391Z" fill="black"/>
</g>
<defs>
<clipPath id="clip0_6_344">
<rect width="16" height="16" fill="white"/>
</clipPath>
</defs>
</svg>
