<svg width="16" height="16" viewBox="0 0 16 16" fill="none" xmlns="http://www.w3.org/2000/svg">
<g clip-path="url(#clip0_6_246)">
<path d="M8.88615 2.88615C8.08615 4.00615 6.09846 4.87385 4.41846 4.72C5.33538 5.96923 5.59385 7.14462 4.85538 8.95385C6.14154 8.24 8.58462 8.96 9.44 10.1662C9.45231 8.87385 9.68 7.44 11.68 6.52923C10.4492 6.11692 9.12 4.09846 8.88615 2.88615Z" fill="black"/>
<path d="M8 0C3.58154 0 0 3.58154 0 8C0 12.4185 3.58154 16 8 16C12.4185 16 16 12.4185 16 8C16 3.58154 12.4185 0 8 0ZM11.9938 13.3785C11.8708 13.0708 11.8031 12.7385 11.8031 12.3877C11.8031 12.0369 11.8708 11.6862 11.9938 11.3908C11.8338 11.4092 11.6738 11.4154 11.5138 11.4154C10.8185 11.4154 10.1662 11.2677 9.6 11.0092C9.48308 11.7908 8.70769 12.9354 7.92615 12.9846H7.94462C8.65231 13.2862 9.21846 13.8462 9.53231 14.5662H9.57539C9.05231 14.6954 8.49846 14.7692 7.92615 14.7692C6.13539 14.7692 4.51077 14.0615 3.31077 12.9231C3.66154 12.5415 4.13538 12.2769 4.67692 12.2031C4.40615 11.7723 4.24 11.2615 4.24 10.7015C4.24 10.2585 4.34462 9.84 4.52308 9.48923C4.27692 9.55692 4.01846 9.6 3.74769 9.6C3.19385 9.6 2.67077 9.43385 2.24615 9.15077V9.16923C2.10462 9.54462 1.87077 9.87692 1.55692 10.1292C1.34154 9.47692 1.22462 8.78769 1.22462 8.06769C1.23077 7.38462 1.32923 6.72615 1.50769 6.15385H1.53231C1.83385 6.15385 2.10462 6.30154 2.27692 6.52923C2.12923 6.04308 3.01538 4.84923 3.87077 4.64C3.47692 4.32615 3.22462 3.84 3.22462 3.29846C4.14154 2.39385 5.32308 1.75385 6.68308 1.48923C6.68308 1.48923 8.39385 1.48923 8.99692 2.46769C9.48308 1.95692 11.1077 2.17846 11.1077 2.17846L11.1385 2.19692C12.2646 2.82462 13.1938 3.76 13.8215 4.92923C13.8215 4.92923 13.3231 6.59077 12.3631 6.67692C12.9292 7.05231 13.3046 7.69846 13.3046 8.42462C13.3046 8.61539 13.28 8.79385 13.2369 8.95385C13.44 8.86769 13.6615 8.81231 13.8954 8.81231C14.1292 8.81231 14.3631 8.86769 14.5538 8.95385V8.99077C14.3015 10.7692 13.36 12.32 11.9877 13.3785H11.9938Z" fill="black"/>
</g>
<defs>
<clipPath id="clip0_6_246">
<rect width="16" height="16" fill="white"/>
</clipPath>
</defs>
</svg>
