<svg width="16" height="16" viewBox="0 0 16 16" fill="none" xmlns="http://www.w3.org/2000/svg">
<g clip-path="url(#clip0_6_575)">
<path d="M6.6 6.06001C6.6 6.06001 9.32 5.83251 9.39 8.38251C9.46 10.9325 6.9525 11.2875 5.39 11.2175C3.8275 11.1475 0.559997 9.00001 0.807497 5.56501L0.999997 4.34501L1.5475 3.71501C1.5475 3.71501 2.7975 1.17501 5.6725 0.410008C5.6725 0.410008 5.9225 7.72695e-06 6.2175 7.72695e-06C6.5125 7.72695e-06 6.765 0.330008 7.2025 0.382508C7.64 0.435008 7.8 -0.0249923 8.21 7.72695e-06C8.62 0.0250077 8.6475 0.330008 9.085 0.410008C9.5225 0.490008 11.6525 0.750008 13.3725 3.08751C13.3725 3.08751 13.455 3.69001 13.7 3.79751C13.945 3.90501 14.52 4.15251 14.6025 4.34501C14.685 4.53751 15.2575 6.59501 15.2025 7.46001C15.1475 8.32501 14.9025 12.4025 12.2025 13.66L12.1475 14.41C10.8985 15.409 9.2955 16.0125 7.552 16.0125C7.372 16.0125 7.1935 16.006 7.0165 15.9935L7.04 15.995C3.9525 15.775 3.1225 15.45 2.3975 14.465C2.303 14.2865 2.218 14.0775 2.1535 13.8595L2.1475 13.835L1.8725 13.25C1.8725 13.25 1.6225 12.84 2.145 12.9225C2.6675 13.005 4.55 13.75 5.5875 13.77C6.625 13.79 7.1725 13.25 7.3625 13.195C7.5525 13.14 8.675 12.695 9.0025 12.65C9.33 12.605 11.3525 11.3575 11.6525 8.38251C11.9525 5.40751 9.275 3.66251 7.75 3.63501C7.75 3.63501 6.795 3.60751 6.575 3.74251C6.355 3.87751 4.9375 4.53501 4.3075 4.61751C4.3075 4.61751 3.79 5.11751 3.8725 5.71001C3.955 6.30251 3.9525 8.38001 6.1375 8.38251C6.1325 8.38251 6.655 8.10251 6.6 6.06001Z" fill="black"/>
</g>
<defs>
<clipPath id="clip0_6_575">
<rect width="16" height="16" fill="white"/>
</clipPath>
</defs>
</svg>
