<svg width="16" height="16" viewBox="0 0 16 16" fill="none" xmlns="http://www.w3.org/2000/svg">
<g clip-path="url(#clip0_6_204)">
<path d="M3.6625 0H0.7975C0.357 0 0 0.357 0 0.7975V3.6625C0 4.103 0.357 4.46 0.7975 4.46H3.6625C4.103 4.46 4.46 4.103 4.46 3.6625V0.7975C4.46 0.357 4.103 0 3.6625 0ZM3.21 3.21H1.25V1.25H3.21V3.21Z" fill="black"/>
<path d="M7.27 3.75H14.48C15.3195 3.75 16 3.0695 16 2.23C16 1.3905 15.3195 0.71 14.48 0.71H7.27C6.4305 0.71 5.75 1.3905 5.75 2.23C5.75 3.0695 6.4305 3.75 7.27 3.75Z" fill="black"/>
<path d="M7.27 9.52H10.75V11L16.1225 8L10.75 5V6.48H7.27C6.4305 6.48 5.75 7.1605 5.75 8C5.75 8.8395 6.4305 9.52 7.27 9.52Z" fill="black"/>
<path d="M14.48 12.25H7.27C6.4305 12.25 5.75 12.9305 5.75 13.77C5.75 14.6095 6.4305 15.29 7.27 15.29H14.48C15.3195 15.29 16 14.6095 16 13.77C16 12.9305 15.3195 12.25 14.48 12.25Z" fill="black"/>
<path d="M3.6625 5.77H0.7975C0.357 5.77 0 6.127 0 6.5675V9.4325C0 9.873 0.357 10.23 0.7975 10.23H3.6625C4.103 10.23 4.46 9.873 4.46 9.4325V6.5675C4.46 6.127 4.103 5.77 3.6625 5.77ZM3.21 8.98H1.25V7.02H3.21V8.98Z" fill="black"/>
<path d="M3.6625 11.54H0.7975C0.357 11.54 0 11.897 0 12.3375V15.2025C0 15.643 0.357 16 0.7975 16H3.6625C4.103 16 4.46 15.643 4.46 15.2025V12.3375C4.46 11.897 4.103 11.54 3.6625 11.54ZM3.21 14.75H1.25V12.79H3.21V14.75Z" fill="black"/>
</g>
<defs>
<clipPath id="clip0_6_204">
<rect width="16" height="16" fill="white"/>
</clipPath>
</defs>
</svg>
