<svg width="16" height="16" viewBox="0 0 16 16" fill="none" xmlns="http://www.w3.org/2000/svg">
<g clip-path="url(#clip0_6_319)">
<path d="M14.0533 9.51398V12.1075H1.94678V9.51398H3.67328V5.55398C3.68278 3.47898 5.15128 1.74998 7.10528 1.33898L7.13328 1.33398V0.867477C7.13328 0.388977 7.52128 0.000976562 7.99978 0.000976562C8.47828 0.000976562 8.86628 0.388977 8.86628 0.867477V1.33398C10.8548 1.75098 12.3263 3.48998 12.3263 5.57298C12.3263 5.57248 12.3263 5.57348 12.3263 5.57298V9.53398L14.0533 9.51398ZM7.99978 16.0005C9.43228 16.0005 10.5933 14.8395 10.5933 13.407H5.40678C5.40678 14.8395 6.56728 16.0005 7.99978 16.0005Z" fill="black"/>
</g>
<defs>
<clipPath id="clip0_6_319">
<rect width="16" height="16" fill="white"/>
</clipPath>
</defs>
</svg>
