<svg width="16" height="16" viewBox="0 0 16 16" fill="none" xmlns="http://www.w3.org/2000/svg">
<g clip-path="url(#clip0_6_245)">
<path d="M2.24995 2.44961C2.84995 2.74961 3.34995 2.89961 3.84995 3.09961H3.79995L4.09995 2.34961C4.14995 2.19961 4.19995 2.09961 4.24995 1.99961C4.49995 1.74961 4.94995 1.74961 5.19995 1.99961C5.39995 2.19961 5.44995 2.49961 5.34995 2.74961L5.09995 3.34961C5.89995 3.49961 6.59995 3.59961 7.34995 3.59961V2.24961C7.34995 2.09961 7.39995 1.89961 7.54995 1.79961C7.79995 1.54961 8.24995 1.54961 8.49995 1.79961C8.64995 1.94961 8.69995 2.09961 8.69995 2.24961V3.64961C9.34995 3.64961 9.99995 3.54961 10.65 3.44961H10.7L10.45 2.79961C10.35 2.54961 10.4 2.24961 10.6 2.04961C10.85 1.79961 11.3 1.79961 11.55 2.04961C11.6 2.09961 11.7 2.19961 11.7 2.29961L12 3.09961C12.5 2.94961 13.1 2.74961 13.65 2.44961L13.7 2.39961C13.7 2.39961 13.65 2.34961 13.6 2.29961C10.5 -0.800391 5.39995 -0.800391 2.29995 2.29961L2.24995 2.44961Z" fill="black"/>
<path d="M12.45 4.34961L12.75 5.14961C12.85 5.39961 12.8 5.64961 12.6 5.84961C12.55 5.89961 12.45 5.94961 12.35 5.99961C12.1 6.09961 11.85 6.04961 11.65 5.84961C11.6 5.79961 11.55 5.69961 11.5 5.59961L11.15 4.64961C10.25 4.84961 8.64995 4.94961 8.64995 4.94961V5.54961C8.64995 5.69961 8.59995 5.89961 8.44995 5.99961C8.29995 6.14961 8.14995 6.19961 7.99995 6.19961C7.84995 6.19961 7.64995 6.14961 7.54995 5.99961C7.44995 5.84961 7.34995 5.69961 7.34995 5.54961V4.94961C6.49995 4.89961 5.59995 4.79961 4.74995 4.59961H4.69995L4.34995 5.54961C4.29995 5.64961 4.24995 5.69961 4.19995 5.79961C3.94995 6.04961 3.49995 6.04961 3.24995 5.79961C2.99995 5.69961 2.94995 5.39961 2.99995 5.14961L3.34995 4.29961C2.74995 4.09961 2.09995 3.84961 1.49995 3.49961L1.39995 3.44961C-0.450049 6.19961 -0.450049 9.79961 1.39995 12.4996L1.44995 12.5496C2.14995 12.1996 3.34995 11.6996 3.34995 11.6996L2.99995 10.8496C2.94995 10.5996 2.99995 10.3496 3.14995 10.1996C3.39995 9.94961 3.84995 9.94961 4.09995 10.1996C4.14995 10.2496 4.19995 10.3496 4.24995 10.3996L4.64995 11.3996C5.59995 11.1996 6.49995 11.0996 7.34995 11.0496V10.4496C7.34995 10.2996 7.44995 10.1496 7.54995 10.0496C7.79995 9.79961 8.24995 9.79961 8.49995 10.0496C8.59995 10.1496 8.69995 10.2996 8.69995 10.4496V11.0496C9.49995 11.0996 10.35 11.1996 11.15 11.3496H11.2L11.55 10.3996C11.55 10.2496 11.65 10.0996 11.75 9.99961C12 9.74961 12.45 9.74961 12.7 9.99961C12.95 10.2496 12.95 10.5996 12.75 10.8496L12.45 11.6496C13.1 11.8496 13.8 12.1496 14.5 12.4996L14.6 12.5496C16.5 9.79961 16.5 6.19961 14.65 3.49961H14.55C13.8 3.84961 12.45 4.34961 12.45 4.34961Z" fill="black"/>
<path d="M13.75 13.5996C13.1 13.2996 12.55 13.0496 11.95 12.8996H12L11.7 13.7496C11.65 13.8496 11.6 13.8996 11.55 13.9996C11.3 14.2496 10.85 14.2496 10.6 13.9996C10.4 13.7996 10.35 13.4996 10.45 13.2996L10.7 12.6496C9.99995 12.4996 9.34995 12.4496 8.64995 12.3996L8.59995 13.7496C8.59995 13.8996 8.54995 14.0496 8.39995 14.1996C8.24995 14.3496 8.09995 14.3996 7.94995 14.3996C7.79995 14.3996 7.59995 14.3496 7.49995 14.1996C7.34995 14.0496 7.29995 13.8996 7.29995 13.7496V12.3996C6.59995 12.4496 5.84995 12.5496 5.14995 12.6996H5.09995L5.34995 13.2996C5.44995 13.5496 5.39995 13.7996 5.19995 13.9996C5.14995 14.0496 5.04995 14.0996 4.94995 14.1496C4.69995 14.2496 4.44995 14.1996 4.24995 13.9996C4.19995 13.9496 4.14995 13.8496 4.09995 13.7496L3.79995 12.9996C3.34995 13.1496 2.84995 13.3496 2.29995 13.5496L2.19995 13.5996C2.24995 13.6496 2.24995 13.6496 2.29995 13.6996C5.39995 16.7996 10.5 16.7996 13.6 13.6996L13.75 13.5996Z" fill="black"/>
</g>
<defs>
<clipPath id="clip0_6_245">
<rect width="16" height="16" fill="white"/>
</clipPath>
</defs>
</svg>
