<svg width="16" height="16" viewBox="0 0 16 16" fill="none" xmlns="http://www.w3.org/2000/svg">
<g clip-path="url(#clip0_21_72)">
<path d="M2.83285 3.77793C3.14465 4.41331 3.89549 4.52484 4.38793 4.01433L4.44919 3.9515C4.51752 4.23896 4.47746 4.48792 4.35494 4.72511C4.20022 5.02513 3.94183 5.2042 3.62767 5.2906C3.3732 5.36049 3.11402 5.31808 2.87919 5.19556C2.57367 5.03613 2.37418 4.77852 2.30428 4.44473C2.23517 4.11251 2.30271 3.79678 2.51948 3.52346C2.5344 3.50383 2.54618 3.47241 2.54383 3.44807C2.49513 2.9894 2.03725 2.65796 1.6155 2.67838C1.37202 2.69016 1.15997 2.76556 0.98404 2.93678C0.962049 2.95798 0.937702 2.97683 0.909428 2.99882C0.895291 3.00982 0.879583 3.0216 0.86309 3.03495C0.815181 2.85981 0.824606 2.69645 0.864661 2.54094C0.950268 2.20793 1.14269 1.95032 1.46077 1.80817C2.0828 1.53014 2.74018 1.82309 2.95694 2.40035C3.10381 2.79148 3.03941 3.1449 2.80144 3.47791C2.73075 3.57687 2.77787 3.67112 2.82107 3.75594L2.83207 3.77872L2.83285 3.77793Z" fill="black"/>
<path d="M3.58526 5.5215C3.59154 5.51522 3.59782 5.50972 3.60489 5.50501C3.60803 5.50344 3.61196 5.50422 3.61903 5.50501C3.62296 5.50501 3.62767 5.50658 3.63238 5.50658C3.7015 5.95739 3.58055 6.34302 3.20748 6.61634C2.85013 6.87787 2.45901 6.9195 2.05139 6.71765C1.73723 6.56214 1.54402 6.30218 1.47177 5.97467C1.39951 5.64481 1.47491 5.32672 1.68068 5.04712C1.7066 5.011 1.72231 4.94816 1.71053 4.90654C1.59036 4.4785 1.20631 4.18555 0.781409 4.20833C0.541079 4.22168 0.313316 4.28529 0.14053 4.47222C0.119324 4.49421 0.0957623 4.51384 0.0674882 4.53662C0.0541366 4.54761 0.0392141 4.5594 0.0235063 4.57275C-0.0134071 4.3819 -0.00869476 4.20911 0.0384287 4.04496C0.127178 3.73709 0.297608 3.48341 0.599984 3.34989C1.37359 3.00746 2.08595 3.45435 2.19354 4.18948C2.23595 4.48007 2.15899 4.75103 1.97756 4.989C1.94929 5.02592 1.93515 5.09032 1.94379 5.13587C2.05139 5.6668 2.65457 6.00923 3.15879 5.8121C3.26089 5.77204 3.35043 5.70135 3.44075 5.63067C3.48159 5.59847 3.52243 5.56627 3.56405 5.53721C3.57112 5.5325 3.5774 5.52621 3.58369 5.52071L3.58526 5.5215Z" fill="black"/>
<path d="M12.6298 8.74082C12.3196 8.68663 12.0761 8.51384 11.996 8.18633L12.7327 8.52327C12.8592 8.11172 12.6526 7.79128 12.256 7.71039C11.9033 7.63892 11.5444 7.59808 11.1941 7.51875C10.8533 7.44021 10.5077 7.36246 10.1865 7.22894C9.20788 6.82054 8.25284 6.82132 7.31116 7.3279C7.2656 7.35146 7.22398 7.38445 7.169 7.42058C7.26482 7.5109 7.34885 7.59101 7.43525 7.67112C7.4164 7.70646 7.41797 7.70332 7.39912 7.73787C7.25382 7.70646 7.10695 7.68211 6.9648 7.6397C6.93181 7.63028 6.89883 7.61928 6.86505 7.60829C6.50534 7.49597 6.15113 7.36324 5.78671 7.27764L5.782 7.27528C5.40187 7.18653 5.03273 7.24072 4.70287 7.45985C4.67852 7.47634 4.65182 7.49362 4.62747 7.51325C4.34866 7.72609 4.25598 7.96093 4.35808 8.21539C4.38165 8.27587 4.41542 8.33556 4.46097 8.39682C4.47903 8.42274 4.49867 8.44865 4.52144 8.47457C4.87644 8.8869 5.30605 9.12566 5.93594 9.01492C5.7553 9.23405 5.56523 9.30238 5.35239 9.31416C5.06022 9.33144 4.8089 9.21441 4.60155 9.02278C4.5293 8.95602 4.45704 8.90183 4.38086 8.85784C4.36829 8.85078 4.35651 8.84449 4.34473 8.83899C4.34395 8.86098 4.34395 8.88455 4.34316 8.90732V8.90968C4.34316 8.91596 4.34238 8.92146 4.34002 8.92853L4.33845 8.93246C4.29054 9.23169 3.89784 12.0929 6.20297 13.9166L6.20611 13.9181C7.21927 14.9211 9.07829 15.1991 9.07829 15.1991L9.0775 15.1967C9.05394 15.1331 8.57092 13.7846 8.88037 12.9325C9.01938 12.5476 9.32019 12.2641 9.89745 12.2445C10.1307 12.1989 10.386 12.2468 10.5588 12.4055C10.7567 12.5869 10.9098 12.8233 11.0622 13.0487C11.2271 13.2914 11.2389 13.3087 11.4926 13.1571C11.8382 12.9505 12.0934 12.6576 12.2481 12.2876C12.373 11.9861 12.2921 11.6986 12.1264 11.3672C12.095 11.4756 12.0832 11.5258 12.0659 11.5745C11.9505 11.8965 11.6536 12.056 11.3536 11.8957C11.1415 11.7834 10.9357 11.6028 10.8085 11.4009C10.3428 10.6635 10.6718 9.79403 11.4879 9.52935C11.9685 9.37385 12.1939 9.53249 12.201 10.0344C12.2018 10.0783 12.201 10.1231 12.2002 10.2111C12.2717 10.1522 12.3298 10.127 12.3534 10.0815C12.523 9.75869 12.8568 9.53407 12.9063 9.13823C12.933 8.91832 12.8898 8.78559 12.6298 8.74082ZM6.22025 8.49107C5.91002 8.67171 5.57466 8.76752 5.20709 8.62537C4.94399 8.52327 4.77434 8.29393 4.81204 8.09994C4.84974 7.90124 5.11442 7.72452 5.38459 7.73002C5.4969 7.73238 5.61471 7.74651 5.71995 7.78578C5.89667 7.85411 6.07102 7.93501 6.2336 8.0324C6.49199 8.19026 6.48649 8.31906 6.22025 8.49107ZM9.75844 8.13764C9.50476 8.25466 9.02017 8.11329 8.84503 7.84233C8.79476 7.7583 8.78298 7.64598 8.92199 7.56587C9.16782 7.42529 9.68854 7.54153 9.84797 7.77086C9.93986 7.90438 9.89902 8.07167 9.75844 8.13764Z" fill="black"/>
<path d="M12.9416 4.69448C13.0775 4.69448 13.2346 4.69213 13.4168 4.68663C13.6469 4.68035 13.8535 4.65207 14.0388 4.60809C16.0455 4.25859 15.9999 2.96348 15.9999 2.96348H12.9401C12.9401 2.96348 15.4769 2.51973 15.9999 1H12.4429C11.1941 1 9.94536 1 8.69737 1.00471C8.22771 1.00707 7.84679 1.2207 7.57662 1.61025C7.52557 1.68486 7.47216 1.70999 7.38341 1.70999C6.64514 1.70764 5.90766 1.70764 5.17018 1.70842H4.50574C4.26384 1.70842 4.17587 1.79796 4.17587 2.04221V2.3116C4.17509 2.5213 4.17509 2.73022 4.17666 2.93992C4.17901 3.31691 4.41228 3.63735 4.7657 3.76379C4.82382 3.785 4.88115 3.82191 4.92671 3.86511C5.05237 3.98684 5.17646 4.11094 5.29977 4.23503C5.36181 4.29786 5.42386 4.35991 5.48591 4.42195C5.5024 4.43766 5.51968 4.45258 5.54245 4.47222C5.55581 4.484 5.57073 4.49656 5.58801 4.51227V3.81249C5.6422 3.81249 5.69639 3.81249 5.7498 3.81249C5.89588 3.8117 6.03804 3.81092 6.17941 3.8172C6.2336 3.81877 6.298 3.84626 6.33727 3.88317C6.46136 4.00098 6.58231 4.12272 6.70326 4.24445C6.75745 4.29943 6.81243 4.35441 6.86741 4.4086C6.88547 4.42666 6.90511 4.44316 6.93338 4.4675C6.94595 4.4785 6.96009 4.49107 6.97658 4.50599V3.81406C7.04648 3.81406 7.11559 3.81406 7.18392 3.81327C7.40226 3.81327 7.61432 3.81327 7.82559 3.81641C7.85857 3.8172 7.89784 3.84547 7.92376 3.87061C8.02822 3.97192 8.1311 4.07559 8.23399 4.17848C8.28111 4.2256 8.32902 4.27351 8.37615 4.32142C8.40913 4.35441 8.44291 4.38661 8.4806 4.42431C8.50809 4.45101 8.53794 4.48007 8.57092 4.51227V3.81406H8.68166C8.75078 3.81327 8.81675 3.81327 8.88272 3.81406C9.19138 3.81484 9.4325 4.04182 9.43328 4.3332C9.43407 4.62066 9.1906 4.85235 8.88351 4.85392C8.52302 4.8547 8.16252 4.85392 7.80203 4.85392C7.77925 4.85392 7.75647 4.85235 7.72898 4.84999C7.71485 4.8492 7.69914 4.84763 7.68186 4.84685V4.18005C7.67479 4.17612 7.66851 4.1722 7.66144 4.16748C7.65437 4.16356 7.6473 4.15885 7.64102 4.15492C7.63317 4.1667 7.62531 4.17927 7.61824 4.19183C7.60332 4.21775 7.58918 4.24288 7.56876 4.2633C7.39519 4.4408 7.22005 4.6183 7.0402 4.78952C7.00328 4.82486 6.94202 4.8492 6.89097 4.85156C6.80536 4.8547 6.71976 4.8547 6.63493 4.85392C6.55404 4.85392 6.47393 4.85235 6.39382 4.85549C6.30271 4.85941 6.27522 4.82957 6.27837 4.74004C6.28229 4.60966 6.28151 4.47929 6.28072 4.34027C6.28072 4.28137 6.28072 4.22168 6.28072 4.15963C6.2658 4.17298 6.25323 4.18398 6.24224 4.19419C6.21868 4.21539 6.2014 4.23032 6.1849 4.24681C6.14406 4.28765 6.10322 4.32849 6.06238 4.36855C5.93436 4.49499 5.80556 4.62223 5.68147 4.7526C5.61157 4.82564 5.54088 4.85706 5.43721 4.85627C4.92671 4.85549 4.52773 5.25918 4.52616 5.77047C4.52616 5.8066 4.52694 5.84273 4.52773 5.87885C4.5293 5.9621 4.53087 6.04536 4.5238 6.12704C4.51359 6.2417 4.55757 6.26291 4.66282 6.26291C6.12679 6.25977 7.59076 6.26055 9.05394 6.26134C9.5613 6.26134 10.0255 6.27155 10.5297 6.34695C10.6577 6.3658 10.7779 6.39564 10.8918 6.43413L10.8941 6.43491C11.0119 6.47339 11.1227 6.52052 11.2303 6.57235C11.6999 6.7365 12.6055 6.95641 13.5959 6.68388C14.225 6.51188 14.8886 6.14039 15.4965 5.43039C15.4981 5.42882 15.5004 5.42568 15.5004 5.42568C15.5436 5.38091 15.5703 5.34557 15.5813 5.33065C15.5837 5.32751 15.586 5.32358 15.586 5.32358L15.5868 5.32201C13.6532 5.92362 12.9424 4.69527 12.9424 4.69527L12.9416 4.69448ZM9.75451 2.68624H8.74764C8.72957 2.52209 8.79162 2.39878 8.88037 2.28883C8.99268 2.1506 9.14033 2.06813 9.31862 2.06421C9.53303 2.05949 9.74744 2.06028 9.96185 2.06185C10.042 2.06185 10.1229 2.06263 10.203 2.06263C10.2132 2.06263 10.2226 2.06499 10.232 2.06735C10.2352 2.06813 10.2391 2.0697 10.2422 2.0697C10.3208 2.43334 10.1189 2.68624 9.75451 2.68624Z" fill="black"/>
</g>
<defs>
<clipPath id="clip0_21_72">
<rect width="16" height="16" fill="white"/>
</clipPath>
</defs>
</svg>
