<svg width="16" height="16" viewBox="0 0 16 16" fill="none" xmlns="http://www.w3.org/2000/svg">
<g clip-path="url(#clip0_6_261)">
<path d="M9.12643 2.97302C9.35443 3.10702 9.62893 3.18602 9.92193 3.18602C10.8019 3.18602 11.5154 2.47252 11.5154 1.59252C11.5154 0.712523 10.8019 -0.000976562 9.92193 -0.000976562C9.33393 -0.000976562 8.81993 0.318023 8.54393 0.792023L8.53993 0.799523C8.40693 1.02702 8.32893 1.30052 8.32893 1.59252C8.32893 2.17952 8.64643 2.69252 9.11943 2.96902L9.12643 2.97302Z" fill="black"/>
<path d="M13.4264 11.433C12.6409 12.108 11.6119 12.519 10.4864 12.5195H4.48493C3.35693 12.5195 2.32543 12.1055 1.53393 11.4215L1.53943 11.4265L0.419434 12.6665C1.12743 13.285 1.98793 13.7475 2.93643 13.9905L2.97943 14C2.78493 14.205 2.66543 14.483 2.66543 14.7885C2.66543 14.804 2.66593 14.82 2.66643 14.8355V14.8335C2.66643 15.478 3.18893 16 3.83293 16C4.47693 16 4.99943 15.4775 4.99943 14.8335C4.99943 14.8285 4.99943 14.8225 4.99943 14.816C4.99943 14.5745 4.92743 14.3495 4.80343 14.162L4.80593 14.1665H10.1924C10.0714 14.3495 9.99893 14.5745 9.99893 14.816C9.99893 14.822 9.99893 14.828 9.99893 14.834V14.833C9.99893 15.4775 10.5214 15.9995 11.1654 15.9995C11.8094 15.9995 12.3319 15.477 12.3319 14.833C12.3224 14.504 12.1809 14.21 11.9589 14C12.9354 13.7595 13.7844 13.312 14.4934 12.706L14.4849 12.713L13.9714 12.0465L13.4264 11.433Z" fill="black"/>
<path d="M11.5599 4.91302C11.4249 4.91302 11.2979 4.87602 11.1899 4.81102L11.1934 4.81302L10.3469 4.30652C10.2044 4.33302 10.0399 4.34852 9.87193 4.34852C9.38243 4.34852 8.92343 4.21952 8.52643 3.99302L8.53993 4.00002C7.85043 3.59452 7.35793 2.91602 7.20943 2.11702L7.20693 2.10002L6.18043 1.33352C5.68743 0.971023 5.06843 0.753524 4.39893 0.753524C4.39743 0.753524 4.39543 0.753524 4.39393 0.753524H2.20743V2.42002H4.56093C4.75043 2.42202 4.92593 2.48152 5.07043 2.58202L5.06743 2.58002L6.40093 3.54002C6.37993 3.55902 6.36193 3.58102 6.34843 3.60552L6.34793 3.60702L5.60793 4.88702C5.47243 5.11902 5.39243 5.39852 5.39243 5.69602C5.39243 5.80352 5.40293 5.90902 5.42293 6.01052L5.42143 6.00002V7.42652C5.42143 7.42852 5.42143 7.43052 5.42143 7.43302C5.42143 7.67152 5.32743 7.88752 5.17443 8.04702L3.20143 10.1135L4.40793 11.26L6.40793 9.17352C6.82043 8.74502 7.07443 8.16152 7.07443 7.51902C7.07443 7.51502 7.07443 7.51052 7.07443 7.50652C7.13943 7.51552 7.21443 7.52102 7.29093 7.52102C7.59943 7.52102 7.88843 7.43652 8.13543 7.28952L8.12793 7.29352L9.41443 8.25352L8.40093 10.32L9.89443 11.0535L10.9679 8.86702C11.0659 8.67302 11.1234 8.44402 11.1234 8.20202C11.1234 7.71202 10.8884 7.27702 10.5249 7.00302L10.5209 7.00002L9.14093 6.00002L9.33443 5.66652L9.88793 5.99302C10.5154 6.37402 11.2734 6.59952 12.0844 6.59952C12.0879 6.59952 12.0914 6.59952 12.0949 6.59952H14.4944V4.91302H11.5599Z" fill="black"/>
</g>
<defs>
<clipPath id="clip0_6_261">
<rect width="16" height="16" fill="white"/>
</clipPath>
</defs>
</svg>
