<svg width="16" height="16" viewBox="0 0 16 16" fill="none" xmlns="http://www.w3.org/2000/svg">
<g clip-path="url(#clip0_6_439)">
<path d="M4.50651 11.4936H11.493C13.982 11.4936 15.9995 13.5111 15.9995 16.0001H-0.000488281C-0.000488281 13.5111 2.01751 11.4936 4.50651 11.4936Z" fill="black"/>
<path d="M12.7065 7.00005C12.7065 9.59955 10.599 11.7066 8.00001 11.7066C5.40101 11.7066 3.29351 9.59905 3.29351 7.00005C3.29351 4.40055 5.40101 2.29355 8.00001 2.29355C10.599 2.29355 12.7065 4.40105 12.7065 7.00005Z" fill="black"/>
<path d="M13.5535 10.6666C13.5525 10.6666 13.5515 10.6666 13.55 10.6666C13.434 10.6666 13.325 10.6371 13.23 10.5851L13.2335 10.5866C13.024 10.4716 12.8845 10.2521 12.8845 10.0006C12.8845 9.88305 12.915 9.77255 12.9685 9.67655L12.967 9.68005C13.387 8.90856 13.634 7.99055 13.634 7.01505C13.634 7.00305 13.634 6.99055 13.634 6.97855V6.98056C13.634 6.61256 13.9325 6.31405 14.3005 6.31405C14.6685 6.31405 14.967 6.61256 14.967 6.98056C14.9655 8.20205 14.652 9.35055 14.102 10.3501L14.1205 10.3136C14.0095 10.5191 13.799 10.6586 13.555 10.6671L13.5535 10.6666ZM2.31351 10.4001C2.31301 10.4001 2.31251 10.4001 2.31201 10.4001C2.05051 10.4001 1.82451 10.2496 1.71501 10.0306L1.71351 10.0266C1.29251 9.16205 1.04601 8.14606 1.04601 7.07205C1.04601 7.03956 1.04601 7.00705 1.04651 6.97456V6.97955C1.04651 6.87305 1.04651 6.75955 1.04651 6.65305C1.06301 6.29755 1.35501 6.01555 1.71301 6.01555C2.08151 6.01555 2.38051 6.31456 2.38051 6.68305C2.38051 6.69355 2.38051 6.70405 2.38001 6.71455V6.71305C2.38001 6.79955 2.38001 6.89305 2.38001 6.97955C2.38001 6.98955 2.38001 7.00105 2.38001 7.01255C2.38001 7.89655 2.58951 8.73155 2.96101 9.47105L2.94651 9.43955C2.98901 9.52455 3.01351 9.62505 3.01351 9.73105C3.01351 9.99505 2.86001 10.2236 2.63701 10.3316L2.63301 10.3331C2.54101 10.3861 2.43101 10.4181 2.31351 10.4196V10.4001ZM13.8135 5.18655C13.813 5.18655 13.812 5.18655 13.811 5.18655C13.5395 5.18655 13.3055 5.02406 13.2015 4.79056L13.2 4.78655C12.8145 3.89455 12.238 3.14905 11.518 2.57555L11.5065 2.56655C11.3775 2.44455 11.2975 2.27255 11.2975 2.08155C11.2975 1.71355 11.596 1.41505 11.964 1.41505C12.1015 1.41505 12.2295 1.45655 12.3355 1.52805L12.333 1.52655C13.2385 2.24155 13.9515 3.16006 14.409 4.21505L14.4265 4.25955C14.46 4.33605 14.479 4.42555 14.479 4.51905C14.479 4.79306 14.3135 5.02855 14.0775 5.13105L14.073 5.13256C14.001 5.16655 13.917 5.18605 13.828 5.18605C13.8225 5.18605 13.8175 5.18605 13.812 5.18605L13.8135 5.18655ZM2.30001 4.94005C2.29451 4.94005 2.28801 4.94055 2.28201 4.94055C2.17901 4.94055 2.08251 4.91606 1.99651 4.87206L2.00001 4.87355C1.78351 4.76055 1.63801 4.53755 1.63801 4.28055C1.63801 4.17855 1.66101 4.08255 1.70151 3.99605L1.70001 4.00005C2.21851 2.91955 2.96701 2.02355 3.88701 1.34705L3.90651 1.33355C3.99951 1.28105 4.11101 1.25005 4.22951 1.25005C4.59751 1.25005 4.89601 1.54855 4.89601 1.91655C4.89601 2.11705 4.80751 2.29705 4.66701 2.41955L4.66601 2.42005C3.91651 2.97755 3.31801 3.69555 2.91451 4.52605L2.89951 4.56005C2.79001 4.78605 2.56351 4.93905 2.30001 4.94005ZM9.69351 1.60655C9.66651 1.61105 9.63551 1.61405 9.60351 1.61405C9.57151 1.61405 9.54051 1.61155 9.51001 1.60655L9.51351 1.60705C9.05951 1.47905 8.53801 1.40555 7.99901 1.40555C7.54801 1.40555 7.10901 1.45705 6.68751 1.55455L6.72651 1.54705C6.68151 1.55805 6.62951 1.56405 6.57601 1.56405C6.26101 1.56405 5.99651 1.34555 5.92701 1.05155L5.92601 1.04705C5.90651 0.987055 5.89501 0.918055 5.89501 0.846555C5.89501 0.526555 6.12051 0.259055 6.42151 0.194555L6.42601 0.193555C6.89851 0.0820547 7.44101 0.0185547 7.99801 0.0185547C8.66251 0.0185547 9.30551 0.109055 9.91601 0.279055L9.86601 0.267055C10.198 0.311555 10.4515 0.593055 10.4515 0.933555C10.4515 1.30505 10.1505 1.60605 9.77901 1.60605C9.74851 1.60605 9.71851 1.60405 9.68901 1.60005L9.69251 1.60055L9.69351 1.60655Z" fill="black"/>
</g>
<defs>
<clipPath id="clip0_6_439">
<rect width="16" height="16" fill="white"/>
</clipPath>
</defs>
</svg>
