<svg width="16" height="16" viewBox="0 0 16 16" fill="none" xmlns="http://www.w3.org/2000/svg">
<g clip-path="url(#clip0_6_375)">
<path d="M7.99 0C3.576 0.006 0 3.5855 0 8C0 9.881 0.649 11.6105 1.7355 12.9765L1.723 12.96C3.201 14.819 5.4625 16 8 16C12.4185 16 16 12.4185 16 8C16 3.5815 12.4185 0 8 0C7.9965 0 7.9935 0 7.99 0ZM7.99 1.3335C7.9925 1.3335 7.9955 1.3335 7.9985 1.3335C9.5735 1.3335 11.02 1.884 12.156 2.803L12.1435 2.7935C12.537 3.12 13.0035 3.6 12.97 4C12.89 4.8665 11.99 4.2335 11.49 5.1735C10.99 6.1135 12.4235 7.1335 11.91 7.74C11.3965 8.3465 10.3035 7.6735 9.5965 8.56C8.7565 9.6065 9.843 10.56 9.03 11.18C8.217 11.8 7.87 10.5135 6.6635 11.06C5.457 11.6065 6.457 13.24 5.3235 13.4665C4.5235 13.6265 3.6635 13.02 3.237 12.6665C2.0585 11.465 1.3315 9.8175 1.3315 8C1.3315 4.321 4.312 1.3375 7.99 1.3335Z" fill="black"/>
<path d="M3.843 11.3335C3.8785 11.338 3.92 11.3405 3.9615 11.3405C4.514 11.3405 4.9615 10.893 4.9615 10.3405C4.9615 9.788 4.514 9.3405 3.9615 9.3405C3.454 9.3405 3.035 9.7185 2.97 10.2085L2.9695 10.2135C2.9645 10.2515 2.9615 10.296 2.9615 10.3405C2.9615 10.851 3.344 11.272 3.838 11.333L3.843 11.3335Z" fill="black"/>
<path d="M6.87 9.88C7.3165 9.7735 7.644 9.378 7.644 8.906C7.644 8.3535 7.1965 7.906 6.644 7.906C6.0915 7.906 5.644 8.3535 5.644 8.906C5.644 8.9865 5.6535 9.065 5.6715 9.14L5.67 9.133C5.777 9.579 6.172 9.9055 6.644 9.9055C6.724 9.9055 6.802 9.896 6.877 9.878L6.87 9.88Z" fill="black"/>
<path d="M9.23 7.5065C9.507 7.3255 9.6875 7.017 9.6875 6.6665C9.6875 6.114 9.24 5.6665 8.6875 5.6665C8.135 5.6665 7.6875 6.114 7.6875 6.6665C7.6875 6.87 7.748 7.059 7.8525 7.217L7.85 7.2135C8.028 7.491 8.3345 7.672 8.6835 7.672C8.887 7.672 9.0765 7.6105 9.2335 7.5045L9.23 7.5065Z" fill="black"/>
<path d="M4.33 7.6465C4.7775 7.5405 5.105 7.1445 5.105 6.672C5.105 6.1195 4.6575 5.672 4.105 5.672C3.5525 5.672 3.105 6.1195 3.105 6.672C3.105 6.7505 3.114 6.8265 3.131 6.9L3.1295 6.893C3.234 7.3425 3.631 7.672 4.1045 7.672C4.184 7.672 4.2615 7.6625 4.336 7.645L4.33 7.6465Z" fill="black"/>
<path d="M7.043 5.14C7.3175 4.9585 7.4955 4.6515 7.4955 4.303C7.4955 3.7505 7.048 3.303 6.4955 3.303C5.943 3.303 5.4955 3.7505 5.4955 4.303C5.4955 4.505 5.5555 4.693 5.6585 4.8505L5.656 4.8465C5.8385 5.1215 6.147 5.3005 6.4975 5.3005C6.7 5.3005 6.889 5.2405 7.0465 5.1375L7.043 5.14Z" fill="black"/>
<path d="M9.2365 4.6665C9.4025 4.7935 9.6125 4.8695 9.841 4.8695C10.3935 4.8695 10.841 4.422 10.841 3.8695C10.841 3.317 10.3935 2.8695 9.841 2.8695C9.5165 2.8695 9.228 3.024 9.045 3.264L9.043 3.2665C8.9165 3.432 8.8405 3.642 8.8405 3.8695C8.8405 4.1935 8.9945 4.482 9.234 4.6645L9.2365 4.6665Z" fill="black"/>
</g>
<defs>
<clipPath id="clip0_6_375">
<rect width="16" height="16" fill="white"/>
</clipPath>
</defs>
</svg>
