<svg width="16" height="16" viewBox="0 0 16 16" fill="none" xmlns="http://www.w3.org/2000/svg">
<path d="M9.42649 2.88695L8.60649 2.85345C8.47299 2.83995 8.32649 2.89995 8.21999 2.99995C8.11349 3.09995 8.05349 3.23345 8.05349 3.37995L7.97999 5.47995L7.49999 4.23345C7.39999 3.97345 7.12649 3.83345 6.86649 3.90695L6.05999 4.12695C5.85999 4.18045 5.71999 4.35345 5.67999 4.55345C5.66649 4.49995 5.64649 4.45345 5.61349 4.40695C5.53349 4.28695 5.40699 4.20695 5.26699 4.18045L4.45349 4.04045C4.15999 3.99395 3.88699 4.18695 3.83999 4.48045L3.37999 7.18045L3.09999 6.43395C3.04649 6.29395 2.93999 6.18045 2.80649 6.12745C2.67299 6.06745 2.51999 6.07395 2.38649 6.13395L1.64649 6.47395C1.38649 6.59395 1.26649 6.89395 1.37299 7.16745L2.82649 12.9809C2.90649 13.1944 3.10649 13.3274 3.32649 13.3274C3.34649 13.3274 3.37299 13.3274 3.39299 13.3274L4.17949 13.2274C4.41299 13.2009 4.59299 13.0209 4.63949 12.7874L5.66599 5.07395L5.59949 12.7939C5.59949 12.9404 5.65299 13.0804 5.75299 13.1804C5.85299 13.2804 5.98649 13.3404 6.13299 13.3404H6.94649C7.23999 13.3404 7.47299 13.1004 7.47999 12.8069L7.49349 11.8134L7.85349 12.8269C7.93349 13.0604 8.16699 13.2069 8.40699 13.1869L9.22699 13.1134C9.49349 13.0869 9.70049 12.867 9.71349 12.5934L9.95349 3.45995C9.96699 3.15995 9.73349 2.91345 9.43999 2.89995L9.42649 2.88695Z" fill="black"/>
<path d="M14.5335 10.1139L13.98 9.46745C13.8865 9.35395 13.7535 9.28745 13.6065 9.28095C13.4665 9.26745 13.32 9.32095 13.213 9.42095L12.1995 10.3744L11.873 4.02095C11.853 3.72745 11.5995 3.51445 11.313 3.52095L10.473 3.56745C10.333 3.57395 10.1995 3.64095 10.0995 3.75395C10.006 3.86045 9.95949 4.00745 9.96599 4.15395L10.406 12.2804C10.4195 12.4669 10.526 12.6269 10.686 12.7204L11.586 13.2204C11.666 13.2669 11.7525 13.2869 11.8395 13.2869C11.973 13.2869 12.106 13.2334 12.213 13.1334L14.4995 10.8669C14.6995 10.6669 14.713 10.3404 14.526 10.1204L14.5335 10.1139Z" fill="black"/>
</svg>
