<svg width="16" height="16" viewBox="0 0 16 16" fill="none" xmlns="http://www.w3.org/2000/svg">
<g clip-path="url(#clip0_6_383)">
<path d="M16 2.31C13.35 0.936667 10.6892 0.25 8.01749 0.25C6.57699 0.2525 5.18199 0.4445 3.85549 0.8035L3.96749 0.7775C3.84549 0.74 3.73949 0.6915 3.64149 0.6315L3.64749 0.635C3.30549 0.414 2.88749 0.283 2.43899 0.283C2.05149 0.283 1.68649 0.381 1.36849 0.5535L1.38049 0.5475C0.696488 0.8745 0.203488 1.506 0.0724883 2.261L0.0704883 2.275L0.000488281 2.31C0.000488281 2.44 0.000488281 2.56 0.0129883 2.695C0.0129883 2.7425 0.0129883 2.79 0.0129883 2.84C0.0184883 2.858 0.0254883 2.874 0.0334883 2.889L0.0329883 2.8875C0.292988 8.62 2.84299 13.0875 8.00049 16C13.5005 13.6725 16.0875 9.06 16 2.31ZM8.01749 2C10.283 2.022 12.423 2.537 14.3425 3.442L14.25 3.4025C14.2115 4.836 13.995 6.2025 13.6215 7.503L13.65 7.3875C13.581 7.324 13.506 7.264 13.427 7.2095L13.42 7.205C12.8525 6.825 12.2525 6.5125 11.53 6.67C11.42 6.695 11.3225 6.7725 11.215 6.8075C11.1305 6.8295 11.027 6.849 10.9215 6.8615L10.91 6.8625L10.88 6.7775L11.63 6.355C11.4655 6.174 11.23 6.061 10.9675 6.06C10.9175 5.9415 10.861 5.8395 10.794 5.745L10.7975 5.75C10.6275 5.5325 10.445 5.325 10.2625 5.1175C10.1475 4.99 10.03 4.8675 9.89749 4.7225C9.95999 4.6125 9.89749 4.5325 9.75999 4.4725C9.62249 4.4125 9.45249 4.325 9.29249 4.2725C9.28049 4.27 9.26699 4.2685 9.25349 4.2685C9.20099 4.2685 9.15399 4.29 9.12049 4.325C9.10549 4.3455 9.09699 4.371 9.09699 4.399C9.09699 4.4625 9.14399 4.5155 9.20499 4.525C9.25699 4.544 9.29849 4.581 9.32249 4.629L9.32299 4.63C9.28299 4.63 9.23549 4.65 9.20049 4.63C8.66999 4.411 8.05449 4.2795 7.40949 4.27H7.40549L7.07049 4.25V4.3075L7.84049 4.5775C7.53799 4.7775 7.29299 5 6.93299 4.8275C6.72799 4.7275 6.51549 4.64 6.30299 4.5575C6.27349 4.5495 6.23999 4.5455 6.20549 4.5455C6.17099 4.5455 6.13749 4.55 6.10549 4.5585L6.10799 4.558C6.05999 4.568 6.00449 4.5735 5.94799 4.5735C5.79299 4.5735 5.64799 4.5305 5.52449 4.4555L5.52799 4.4575C5.36449 4.3595 5.17399 4.268 4.97549 4.193L4.95049 4.185C4.93999 4.183 4.92799 4.182 4.91599 4.182C4.86299 4.182 4.81549 4.2035 4.78049 4.2375C4.60799 4.45 4.57799 4.46 4.29799 4.3575C4.65549 3.9255 4.87249 3.366 4.87249 2.7555C4.87249 2.6255 4.86249 2.498 4.84349 2.3735L4.84549 2.3875C5.79499 2.151 6.88749 2.0105 8.01149 2H8.01749ZM11.5 7.2025C11.4245 7.1095 11.343 7.028 11.253 6.955L11.25 6.9525C11.8475 6.6375 12.9575 7.22 13.4675 7.99C13.405 8.17 13.345 8.3475 13.2775 8.5225C12.995 8.475 12.7025 8.495 12.4225 8.4525C12.073 8.3925 11.7765 8.3225 11.487 8.2355L11.5425 8.25C11.415 8.2175 11.415 8.1375 11.465 8.025C11.5445 7.8995 11.5915 7.7465 11.5915 7.583C11.5915 7.444 11.5575 7.313 11.4975 7.198L11.5 7.2025ZM7.68999 4.9125C7.87399 4.756 8.11499 4.661 8.37749 4.661C8.47249 4.661 8.56449 4.6735 8.65249 4.697L8.64499 4.6955C9.17499 4.783 9.17749 4.778 9.34249 5.298C9.35999 5.353 9.36749 5.413 9.38499 5.5005C9.29249 5.5005 9.22249 5.5005 9.14999 5.5005C8.76749 5.518 8.38749 5.5405 8.00499 5.553C7.99699 5.554 7.98749 5.5545 7.97799 5.5545C7.91199 5.5545 7.85149 5.5315 7.80449 5.493C7.61199 5.243 7.33249 5.291 7.07499 5.2435C7.04599 5.2415 7.01199 5.2405 6.97749 5.2405C6.94299 5.2405 6.90899 5.2415 6.87549 5.244L6.87999 5.2435C6.87999 5.171 6.87999 5.1085 6.85999 4.9935L7.58249 5.2785C7.43999 5.0835 7.57999 5 7.68999 4.9125ZM7.62249 5.8325L8.18999 6.2175C7.98999 6.2875 7.81999 6.1725 7.59249 5.8725L7.62249 5.8325ZM7.94499 5.67C8.12249 5.6535 8.32849 5.6445 8.53699 5.6445C8.98449 5.6445 9.42199 5.6875 9.84549 5.7695L9.80249 5.7625C9.27999 5.785 8.75749 5.7975 8.30249 6.155L7.94499 5.67ZM9.44499 5.145C9.64749 5.0225 9.90499 5.1975 10.14 5.63C9.65749 5.545 9.52499 5.45 9.43499 5.145H9.44499ZM9.49999 6.83L9.74999 6.9425C9.61749 7.2925 9.41249 7.3875 9.06499 7.23L9.49999 6.83ZM10.1425 7.08C10.0705 7.2405 9.98949 7.3785 9.89549 7.5065L9.89999 7.5C9.85499 7.5525 9.73249 7.5375 9.61499 7.5575C9.74999 7.2125 9.97249 7.035 10.135 7.09L10.1425 7.08ZM9.64249 6.71C9.85999 6.4325 9.85999 6.4325 10.1425 6.555L10.6225 6.7625C10.25 7.04 9.96499 6.825 9.64249 6.72V6.71ZM9.99999 6.2625C9.91599 6.31 9.84599 6.3555 9.77849 6.4045L9.78499 6.4C9.82499 6.345 9.85249 6.27 9.90749 6.24C10.035 6.1725 10.18 6.1325 10.3125 6.0725C10.405 6.03 10.4875 5.9575 10.5825 5.92C10.6495 5.9 10.7265 5.8875 10.806 5.885H10.8075L10.8525 5.9525C10.8075 5.994 10.7565 6.03 10.7015 6.058L10.6975 6.06C10.4675 6.1325 10.2325 6.185 9.99999 6.2625ZM10.8425 8.0125L10.98 8.3825H10.655L10.8425 8.0125ZM10.9 7.72C10.885 7.6425 10.855 7.5775 10.875 7.5575C10.9515 7.481 11.033 7.4095 11.119 7.344L11.125 7.34L11.1675 7.3875C11.0875 7.5 11 7.5925 10.9025 7.7275L10.9 7.72ZM11.0275 7.72L11.3 7.37C11.3425 7.5175 11.37 7.62 11.4 7.72H11.0275ZM11.3575 7.9425L11.125 8.3H11.0625C11.0475 8.185 10.99 8.05 11.03 7.9625C11.07 7.875 11.225 7.915 11.33 7.895L11.3575 7.9425ZM4.60749 5.07C4.57499 5.185 4.54249 5.3025 4.50499 5.43L4.31999 5.3475L4.28249 5.37L4.40499 5.595L4.10249 5.7075C4.10249 5.43 4.08749 5.1725 4.10249 4.92C4.13549 4.771 4.18649 4.639 4.25399 4.5175L4.24999 4.525C4.26199 4.499 4.28599 4.48 4.31449 4.475C4.56449 4.4925 4.80249 4.5175 5.04749 4.5425V4.6025C4.86249 4.6325 4.67499 4.6525 4.49499 4.7C4.42999 4.7175 4.38249 4.805 4.31249 4.875L4.60749 5.07ZM4.76749 4.4425L4.81999 4.2375L5.49999 4.5L5.48499 4.5525C5.24999 4.61 5.03249 4.455 4.77749 4.44L4.76749 4.4425ZM3.95749 5.4425C3.95749 5.4625 3.88999 5.49 3.84249 5.52C3.72999 4.77 3.80749 4.3725 4.05499 4.31L3.87499 4.6725C4.15249 4.905 3.94749 5.1825 3.96749 5.4375L3.95749 5.4425ZM2.02749 5.12C2.14299 5.137 2.27599 5.1465 2.41149 5.1465C2.87749 5.1465 3.31699 5.032 3.70299 4.83L3.68749 4.8375C3.70199 4.9385 3.71049 5.055 3.71049 5.1735C3.71049 5.2435 3.70749 5.313 3.70199 5.3815L3.70249 5.3725C3.68849 5.4315 3.68049 5.499 3.68049 5.5685C3.68049 5.859 3.82199 6.1165 4.04049 6.276L4.04299 6.2775C4.19449 6.419 4.39849 6.506 4.62299 6.506C4.75849 6.506 4.88699 6.474 5.00049 6.4175L4.99549 6.4195C5.05349 6.3845 5.10349 6.345 5.14799 6.2995C4.90049 6.2675 4.68099 6.22 4.46749 6.157L4.49799 6.1645C4.38149 6.1155 4.30149 6.0025 4.30149 5.871C4.30149 5.827 4.31049 5.7855 4.32649 5.7475L4.32549 5.7495L4.56049 5.907C4.75299 6.0345 4.77299 6.0295 4.90799 5.8445C4.92849 5.8145 4.94949 5.7885 4.97149 5.7635L4.97049 5.7645L4.78299 5.297L4.85049 5.2495L5.12799 5.6245L5.35549 5.5645V5.8295C5.40099 5.8755 5.46349 5.9035 5.53299 5.9035C5.59049 5.9035 5.64349 5.884 5.68599 5.8515C5.77999 5.7925 5.84149 5.6895 5.84149 5.5715C5.84149 5.521 5.82999 5.473 5.80949 5.43L5.81049 5.432H6.61549V5.3795L6.25049 5.2495C6.27349 5.247 6.29999 5.2455 6.32649 5.2455C6.58249 5.2455 6.80849 5.3735 6.94399 5.5695L6.94549 5.572C6.99799 5.657 7.12299 5.6945 7.21549 5.7495C7.30799 5.8045 7.41799 5.827 7.47799 5.8995C7.67549 6.1495 7.85549 6.3995 8.03799 6.6495C8.12299 6.767 8.19549 6.8995 8.27299 7.012C8.10599 6.9675 7.96749 6.9205 7.83349 6.8655L7.85799 6.8745C7.80649 6.842 7.77149 6.788 7.76549 6.7255C7.76549 6.7205 7.76549 6.713 7.76549 6.707C7.76549 6.2635 7.47699 5.8875 7.07749 5.7565L7.07049 5.7545C6.94399 5.691 6.79549 5.654 6.63799 5.654C6.34599 5.654 6.08399 5.7815 5.90399 5.9835L5.90299 5.9845C5.84299 6.056 5.75349 6.1015 5.65349 6.1015C5.61949 6.1015 5.58649 6.0965 5.55599 6.0865L5.55849 6.087C5.45099 6.0595 5.37849 6.062 5.30849 6.1745C5.27849 6.2295 5.19349 6.252 5.13349 6.2895L5.56849 6.462C5.38849 7.2745 5.68849 7.632 6.33349 7.897C6.80099 8.092 7.31099 7.7795 7.68599 7.117C7.85849 7.1795 8.04099 7.317 8.18599 7.282C8.52099 7.207 8.74349 7.3945 9.00349 7.5145C9.17699 7.6015 9.39899 7.6965 9.62599 7.781L9.67599 7.797C9.76549 7.8165 9.83199 7.8935 9.83599 7.9865C9.86099 8.4115 10.181 8.5595 10.506 8.6645C10.5635 8.6835 10.63 8.6945 10.699 8.6945C10.9365 8.6945 11.144 8.565 11.2545 8.373L11.256 8.37C11.391 8.4825 11.506 8.62 11.656 8.705C11.962 8.9225 12.3435 9.0525 12.7555 9.0525C12.766 9.0525 12.777 9.0525 12.7875 9.052H12.786C12.866 9.0525 12.9435 9.06 13.0195 9.073L13.011 9.072C12.403 10.373 11.573 11.473 10.559 12.3705L10.5485 12.3795C10.3855 12.0775 10.196 11.817 9.97699 11.5855L9.97849 11.587C9.40599 10.962 8.74099 10.4335 8.00349 10.02L7.96349 9.9995C7.55049 9.7525 7.05799 9.5015 6.54849 9.282L6.46349 9.2495C5.69699 8.9375 4.80299 8.6935 3.87349 8.5595L3.81099 8.552C3.51499 8.506 3.25449 8.442 3.00299 8.3595L3.03849 8.3695C2.60049 7.4325 2.25049 6.3425 2.04149 5.2035L2.02849 5.1195L2.02749 5.12ZM6.77749 7.12C6.84499 7.295 6.89999 7.4325 6.96999 7.62L6.44249 7.555L6.77749 7.12ZM6.39999 7.325L6.32999 7.3025L6.40249 6.7425C6.67749 6.9175 6.67999 6.92 6.53749 7.1225L6.39999 7.325ZM6.84749 6.6725C6.80249 6.71 6.66999 6.64 6.57749 6.6175V6.53L7.04249 6.28L7.08749 6.3375C7.01799 6.4635 6.93399 6.5715 6.83549 6.6645L6.84749 6.6725ZM7.01249 6.775C7.09249 6.6375 7.15999 6.525 7.22749 6.395L7.29499 6.3725L7.54499 6.8075L7.01249 6.775ZM7.49499 7.025C7.38999 7.1825 7.28499 7.3425 7.18249 7.5025L7.12499 7.4825C7.08499 7.391 7.04249 7.273 7.00649 7.1525L6.99999 7.1275C6.99949 7.124 6.99949 7.12 6.99949 7.1155C6.99949 7.074 7.01799 7.037 7.04749 7.0125C7.17999 6.9925 7.31749 6.9875 7.45249 6.9775L7.49499 7.025ZM8.11999 14.025C6.27549 12.89 4.76899 11.3765 3.67549 9.5835L3.64249 9.525H3.79749C4.89949 9.6165 5.91849 9.849 6.87699 10.206L6.79749 10.18C7.80549 10.5245 8.67899 11.0055 9.44899 11.612L9.42999 11.5975C9.79049 11.8655 10.0895 12.1935 10.3165 12.57L10.325 12.585C9.67949 13.123 8.95149 13.6025 8.17299 13.995L8.10749 14.025H8.11999Z" fill="black"/>
</g>
<defs>
<clipPath id="clip0_6_383">
<rect width="16" height="16" fill="white"/>
</clipPath>
</defs>
</svg>
