<svg width="16" height="16" viewBox="0 0 16 16" fill="none" xmlns="http://www.w3.org/2000/svg">
<g clip-path="url(#clip0_6_201)">
<path d="M16 3.5535H3.5535V16H5.0935C5.2935 15.223 5.9875 14.6585 6.8135 14.6585C7.6395 14.6585 8.3335 15.2235 8.531 15.988L8.5335 16.0005H11.02C11.22 15.2235 11.914 14.659 12.74 14.659C13.566 14.659 14.26 15.224 14.4575 15.9885L14.46 16.001H16V3.5535ZM6.9865 12.8135L5.333 11.14L6.2795 10.1935L7.013 10.927L8.953 8.987L9.8665 9.9335L6.9865 12.8135ZM14.22 11.7335H11.4065V10.4H14.22V11.7335ZM14.22 7.1135H5.3335V5.78H14.22V7.1135ZM12.4465 0V1.78H1.78V12.4465H0V0H12.4465Z" fill="black"/>
</g>
<defs>
<clipPath id="clip0_6_201">
<rect width="16" height="16" fill="white"/>
</clipPath>
</defs>
</svg>
