<svg width="16" height="16" viewBox="0 0 16 16" fill="none" xmlns="http://www.w3.org/2000/svg">
<path d="M13.3335 6.66631C11.867 6.66631 10.667 7.86631 10.667 9.33281C10.667 10.7993 11.867 11.9993 13.3335 11.9993C14.8 11.9993 16 10.7993 16 9.33281C16 7.86631 14.8 6.66631 13.3335 6.66631ZM13.3335 10.6663C12.6 10.6663 12 10.0663 12 9.33281C12 8.59931 12.6 7.99931 13.3335 7.99931C14.067 7.99931 14.667 8.59931 14.667 9.33281C14.667 10.0663 14.067 10.6663 13.3335 10.6663Z" fill="black"/>
<path d="M9.9335 10.6663C9.2 8.79981 10.067 6.66631 11.9335 5.93281C12.2 5.79931 12.5335 5.73281 12.8 5.73281L12 3.13281L10.7335 3.53281L11.267 5.06631L7.6005 6.33281L4.267 5.13281L3.9335 5.93281C5.8 6.59931 6.8 8.73281 6.067 10.5993V10.6658L9.9335 10.6663Z" fill="black"/>
<path d="M2.6665 6.66631C1.2 6.66631 0 7.86631 0 9.33281C0 10.7993 1.2 11.9993 2.6665 11.9993C4.133 11.9993 5.333 10.7993 5.333 9.33281C5.333 7.86631 4.133 6.66631 2.6665 6.66631ZM2.6665 9.99981C2.2665 9.99981 2 9.73331 2 9.33331C2 8.93331 2.2665 8.66681 2.6665 8.66681C3.0665 8.66681 3.333 8.93331 3.333 9.33331C3.333 9.73331 3.0665 9.99981 2.6665 9.99981Z" fill="black"/>
</svg>
