<svg width="16" height="16" viewBox="0 0 16 16" fill="none" xmlns="http://www.w3.org/2000/svg">
<path d="M4.0665 7.1733C4.4365 5.3158 6.0535 3.9353 7.993 3.9353C9.0225 3.9353 9.961 4.3243 10.67 4.9628L10.6665 4.9598L12.413 2.9598C11.242 1.9168 9.6895 1.2793 7.988 1.2793C4.5785 1.2793 1.767 3.8388 1.3695 7.1413L1.3665 7.1733H0L2.6665 10.9268L5.333 7.1733H4.0665Z" fill="black"/>
<path d="M16 8.8263L13.3335 5.0728L10.667 8.8263H11.9335C11.5535 10.6713 9.942 12.0388 8.012 12.0388C6.996 12.0388 6.0685 11.6598 5.363 11.0358L5.367 11.0393L3.6205 13.0393C4.7915 14.0823 6.344 14.7198 8.0455 14.7198C11.455 14.7198 14.2665 12.1603 14.664 8.8578L14.667 8.8258L16 8.8263Z" fill="black"/>
</svg>
