<svg width="16" height="16" viewBox="0 0 16 16" fill="none" xmlns="http://www.w3.org/2000/svg">
<g clip-path="url(#clip0_6_560)">
<path d="M10.831 11.628C10.1215 12.036 9.651 12.79 9.651 13.654C9.651 14.9405 10.694 15.983 11.98 15.983C13.266 15.983 14.309 14.94 14.309 13.654C14.309 13.2215 14.191 12.8165 13.9855 12.469L13.9915 12.48C13.58 11.784 12.8335 11.325 11.98 11.325C11.5575 11.325 11.161 11.4375 10.8195 11.6345L10.831 11.628Z" fill="black"/>
<path d="M15.7755 1.68548L14.305 0.214977C14.183 0.0829766 14.009 0.000976562 13.816 0.000976562C13.623 0.000976562 13.449 0.0834766 13.3275 0.214977L13.081 0.454977L13.507 1.50648L9.514 5.07998L5.4745 7.80848L0.429998 12.8595C0.170998 13.1135 0.010498 13.467 0.010498 13.858C0.010498 14.249 0.170998 14.6025 0.429498 14.856L1.155 15.5815C1.409 15.8405 1.7625 16.001 2.153 16.001C2.5435 16.001 2.8975 15.8405 3.151 15.582L8.202 10.531L10.9305 6.49798L14.504 2.50498L15.549 2.93098L15.7755 2.66498C15.9075 2.54298 15.9895 2.36898 15.9895 2.17598C15.9895 1.98298 15.907 1.80898 15.7755 1.68748V1.68548Z" fill="black"/>
</g>
<defs>
<clipPath id="clip0_6_560">
<rect width="16" height="16" fill="white"/>
</clipPath>
</defs>
</svg>
