<svg width="16" height="16" viewBox="0 0 16 16" fill="none" xmlns="http://www.w3.org/2000/svg">
<g clip-path="url(#clip0_6_392)">
<path d="M5.87731 3.72098C6.35481 3.43998 6.66981 2.92848 6.66981 2.34348C6.66981 1.46348 5.95631 0.749977 5.07631 0.749977C4.19631 0.749977 3.48281 1.46348 3.48281 2.34348C3.48281 2.63698 3.56231 2.91248 3.70081 3.14848L3.69681 3.14098C3.97731 3.61998 4.48981 3.93698 5.07631 3.93698C5.37131 3.93698 5.64731 3.85698 5.88431 3.71698L5.87731 3.72098Z" fill="black"/>
<path d="M10.0438 11.1345L12.4638 11.801L13.1503 11.4075L15.9903 9.76748L15.0968 8.21398L10.0438 11.1345Z" fill="black"/>
<path d="M9.39031 12.001L6.09031 11.081L6.65681 9.33448C6.79281 8.84598 7.23381 8.49348 7.75681 8.49348C7.77331 8.49348 7.78931 8.49398 7.80581 8.49448H7.80331C7.48231 8.81748 7.28331 9.26248 7.28331 9.75448C7.28331 9.99248 7.32981 10.219 7.41381 10.4265L7.40931 10.4145L9.82931 11.081L9.06281 9.74748L10.6563 8.86098C11.1998 8.54598 11.5593 7.96698 11.5593 7.30398C11.5593 6.97648 11.4718 6.66948 11.3183 6.40548L11.3228 6.41398L10.2093 4.55398C11.9428 3.93748 13.1618 2.31148 13.1628 0.400977V0.000976562H11.4963V0.400977C11.4928 1.80998 10.4208 2.96748 9.04781 3.10648L9.03631 3.10748C8.80981 2.99448 8.54281 2.92848 8.26031 2.92848C7.93781 2.92848 7.63531 3.01448 7.37431 3.16498L7.38281 3.16048L7.32281 3.20048C6.83531 3.48348 6.50181 3.98548 6.45631 4.56798L6.45581 4.57398L6.26231 4.66748C5.63281 5.03298 4.87731 5.24848 4.07181 5.24848C3.38781 5.24848 2.74031 5.09298 2.16231 4.81598L2.18881 4.82748L1.47531 6.34748C2.23481 6.71348 3.12731 6.92698 4.06931 6.92698C5.15031 6.92698 6.16581 6.64548 7.04631 6.15148L7.01581 6.16748L7.40231 6.83398C6.28831 6.98348 5.39181 7.77248 5.08731 8.81448L5.08231 8.83398L4.48231 10.6675L2.65581 10.134C2.15181 9.99198 1.78881 9.53648 1.78881 8.99648C1.78881 8.87948 1.80581 8.76598 1.83781 8.65898L1.83581 8.66748L0.115812 8.21398C0.0473125 8.45148 0.0078125 8.72448 0.0078125 9.00648C0.0078125 10.362 0.918813 11.5045 2.16181 11.8555L2.18281 11.8605L3.10931 12.114L3.52931 12.2275L6.65581 13.094L8.92231 13.714L9.07581 13.7605L10.2823 14.094L13.4423 14.9605L13.9158 13.2405L9.38931 12.0005L9.39031 12.001Z" fill="black"/>
<path d="M4.98381 14.054C4.81531 14.154 4.61231 14.213 4.39581 14.213C3.96531 14.213 3.58931 13.98 3.38681 13.633L3.38381 13.6275L1.83731 14.521C2.35731 15.411 3.30781 15.9995 4.39581 15.9995C4.94131 15.9995 5.45231 15.8515 5.89081 15.5935L5.87681 15.601L7.09031 14.9075L7.85681 14.461L5.43681 13.7945L4.98381 14.054Z" fill="black"/>
</g>
<defs>
<clipPath id="clip0_6_392">
<rect width="16" height="16" fill="white"/>
</clipPath>
</defs>
</svg>
