<svg width="16" height="16" viewBox="0 0 16 16" fill="none" xmlns="http://www.w3.org/2000/svg">
<path d="M10.4665 1.20038C10.4 1.20038 10.333 1.20038 10.2665 1.20038L8 2.00038L5.7335 1.20038C5.3335 1.06688 4.867 1.33388 4.8 1.80038C4.8 1.86688 4.8 1.93388 4.8 2.00038V3.46689C4.8 3.93339 5.2 4.26689 5.6 4.26689C5.6665 4.26689 5.7335 4.26689 5.8 4.26689L8 3.26689L10.2665 4.26689C10.733 4.40039 11.133 4.13339 11.2665 3.66689C11.2665 3.60039 11.2665 3.53339 11.2665 3.46689V2.00038C11.2665 1.53388 10.8665 1.20038 10.4665 1.20038Z" fill="black"/>
<path d="M6.8665 13.8004L3.8665 3.80038C3.6665 3.40038 3.2665 3.20038 2.8 3.33388L1.8 3.66739C1.4665 3.73389 1.2665 4.06738 1.2665 4.40088L0.666504 14.0009C0.666504 14.4674 1 14.8009 1.4 14.8674C1.4 14.8674 1.4 14.8674 1.4665 14.8674H6.0665C6.533 14.8674 6.8665 14.5339 6.8665 14.0674C6.933 14.0009 6.8665 13.8669 6.8665 13.8004Z" fill="black"/>
<path d="M14.7335 4.40039C14.7335 4.06689 14.5335 3.80039 14.2 3.66689L13.2 3.26689C12.8 3.13339 12.3335 3.33338 12.2 3.73339L9.2 13.7334C9.0665 14.1334 9.3335 14.5999 9.7335 14.7334C9.8 14.7334 9.867 14.7999 10 14.7999H14.6C15.0665 14.7999 15.4 14.4664 15.4 13.9999L14.7335 4.40039Z" fill="black"/>
</svg>
