<svg width="16" height="16" viewBox="0 0 16 16" fill="none" xmlns="http://www.w3.org/2000/svg">
<path d="M16 6.62171H13.7393V9.75295H16V6.62171Z" fill="black"/>
<path d="M9.2776 7.99991C9.2776 7.45737 8.92292 6.99631 8.42949 6.82927V9.17034C8.92314 9.0033 9.2776 8.54246 9.2776 7.99991Z" fill="black"/>
<path d="M15.0899 2C15.0885 2 15.0872 2 15.0858 2H8.42949V5.90035C9.43332 6.08844 10.192 6.95692 10.192 7.99991C10.192 9.04291 9.43332 9.91116 8.42949 10.0995V14.0001H14.6313L14.6066 14.0164L16 14.0578V10.6531H12.8086L12.8251 5.73603L16 5.72177V2.01132L15.0899 2Z" fill="black"/>
<path d="M0.91058 2L0 2.01132V2.8979C0 2.8979 0 2.89926 0 2.89994V5.72177H3.16632V10.6531H0V13.1001C0 13.1001 0 13.1015 0 13.1022V14.0578L0.913749 14.0001H7.51529V10.0791C6.55966 9.85503 5.84917 9.00918 5.84917 7.99991C5.84917 6.99065 6.55966 6.1448 7.51529 5.9205V2H0.914428C0.91307 2 0.911938 2 0.91058 2Z" fill="black"/>
<path d="M2.258 6.62171H0V9.75295H2.258V6.62171Z" fill="black"/>
<path d="M7.51529 9.13344V6.86661C7.07256 7.0581 6.7636 7.49358 6.7636 8.00014C6.7636 8.5067 7.07278 8.94173 7.51529 9.13344Z" fill="black"/>
</svg>
