<svg width="16" height="16" viewBox="0 0 16 16" fill="none" xmlns="http://www.w3.org/2000/svg">
<path d="M12 3.33398H13.3335V1.33398H2.66699V3.33398H4.00049L2.00049 8.00048L8.00049 14.667L14.0005 8.00048L12 3.33398ZM8.13999 10.7805C7.97999 10.7005 7.85999 10.607 7.77999 10.514C7.53999 10.2475 7.61349 9.74048 7.39349 8.76048C7.28699 8.78698 6.37349 8.67398 6.05999 8.47398C5.59999 8.18048 5.24649 7.58048 5.55349 7.20048C5.69349 7.02698 5.99349 7.02048 6.05999 6.77398C6.07999 6.69398 6.07349 6.62748 6.05999 6.59398C5.84649 5.90748 5.95999 5.32048 6.27999 5.15398C6.34649 5.12048 6.45999 5.08048 6.63999 5.11398C6.72649 5.16048 6.81999 5.20748 6.89999 5.28048C7.29999 5.66698 7.44649 6.83398 8.13999 6.99398V10.794V10.7805ZM8.13999 12.007V10.7805C8.29999 10.7005 8.41999 10.607 8.49999 10.514C8.73999 10.2475 8.66649 9.74048 8.88649 8.76048C8.99299 8.78698 9.90649 8.67398 10.22 8.47398C10.68 8.18048 11.0335 7.58048 10.7265 7.20048C10.5865 7.02698 10.2865 7.02048 10.22 6.77398C10.2 6.69398 10.2065 6.62748 10.22 6.59398C10.4335 5.90748 10.32 5.32048 9.99999 5.15398C9.93349 5.12048 9.81999 5.08048 9.63999 5.11398C9.55349 5.16048 9.45999 5.20748 9.37999 5.28048C8.97999 5.66698 8.83349 6.83398 8.13999 6.99398V4.68048H10.5335C10.927 5.79398 11.2735 6.78048 11.667 7.89398C10.4805 9.28048 9.32699 10.6405 8.13349 12.0275L8.13999 12.007Z" fill="black"/>
</svg>
