<svg width="16" height="16" viewBox="0 0 16 16" fill="none" xmlns="http://www.w3.org/2000/svg">
<path d="M15 1.44637C15 1.19985 14.7885 1 14.5276 1H7.03122C6.77272 1 6.56223 1.19629 6.55883 1.44051L6.51168 4.83214C6.51002 4.95153 6.55906 5.06657 6.64783 5.15156C6.7366 5.23654 6.8577 5.28437 6.98408 5.28437L14.5276 5.28437C14.7885 5.28437 15 5.08453 15 4.838V1.44637Z" fill="black"/>
<path d="M14.9509 6.80418C14.9509 6.55766 14.7394 6.35781 14.4785 6.35781L1.55372 6.35781C1.29697 6.35781 1.08722 6.55155 1.08141 6.79408L1.00012 10.1857C0.997242 10.3058 1.04573 10.4219 1.13461 10.5079C1.2235 10.5938 1.34528 10.6422 1.47243 10.6422H14.4785C14.7394 10.6422 14.9509 10.4423 14.9509 10.1958V6.80418Z" fill="black"/>
<path d="M12.6688 12.162C12.6688 11.9155 12.4573 11.7156 12.1964 11.7156H2.25976C1.99884 11.7156 1.78732 11.9155 1.78732 12.162L1.78732 15.5536C1.78732 15.8002 1.99884 16 2.25976 16H12.1964C12.4573 16 12.6688 15.8002 12.6688 15.5536V12.162Z" fill="black"/>
</svg>
