<svg width="16" height="16" viewBox="0 0 16 16" fill="none" xmlns="http://www.w3.org/2000/svg">
<g clip-path="url(#clip0_6_190)">
<path d="M9.95998 3.06564C10.1905 3.19664 10.4665 3.27414 10.76 3.27414C11.6655 3.27414 12.4 2.54014 12.4 1.63414C12.4 0.728141 11.666 -0.00585938 10.76 -0.00585938C10.1515 -0.00585938 9.62048 0.325641 9.33748 0.817641L9.33348 0.825641C9.19948 1.05814 9.12048 1.33664 9.12048 1.63414C9.12048 2.24614 9.45548 2.77964 9.95198 3.06164L9.95998 3.06564Z" fill="black"/>
<path d="M6.52648 6.13214C6.76198 6.27064 7.04498 6.35214 7.34698 6.35214C8.25298 6.35214 8.98698 5.61764 8.98698 4.71214C8.98698 3.80664 8.25298 3.07214 7.34698 3.07214C6.74298 3.07214 6.21548 3.39864 5.93098 3.88464L5.92698 3.89214C5.78898 4.12714 5.70748 4.41014 5.70748 4.71214C5.70748 5.31564 6.03348 5.84314 6.51948 6.12814L6.52648 6.13214Z" fill="black"/>
<path d="M15.5135 8.94564L13.8535 4.59914C13.5765 3.89814 12.9045 3.41164 12.1195 3.41164C11.092 3.41164 10.2595 4.24414 10.2595 5.27164C10.2595 5.33064 10.2625 5.38914 10.2675 5.44664L10.267 5.43914C10.2845 5.52814 10.2945 5.63014 10.2945 5.73464C10.2945 6.40614 9.87898 6.98064 9.29098 7.21514L9.28048 7.21914C9.02748 7.29414 8.73648 7.33714 8.43548 7.33714C7.52848 7.33714 6.71348 6.94514 6.14948 6.32164L6.14698 6.31914C6.06298 6.17664 5.96598 6.05414 5.85398 5.94614L5.79998 5.89214C5.47698 5.58714 5.04048 5.39964 4.55998 5.39964C4.04298 5.39964 3.57698 5.61664 3.24748 5.96464L3.24648 5.96564L1.11298 8.21914C0.79848 8.54764 0.60498 8.99414 0.60498 9.48614C0.60498 10.0111 0.82548 10.4841 1.17898 10.8186L1.17998 10.8196L2.51348 12.0931L0.47998 14.1731L1.81348 15.4396L3.85348 13.3396C4.16448 13.0116 4.35548 12.5676 4.35548 12.0791C4.35548 11.7211 4.25298 11.3876 4.07548 11.1051L4.07998 11.1126C4.63198 11.2396 5.04798 11.6961 5.11298 12.2596L5.11348 12.2656V16.0056H6.83348V14.0656L7.57998 14.5321L9.57998 11.3521L12.3865 10.1386L13.5 9.71214L12.9335 11.6456C12.9085 11.7171 12.894 11.7996 12.8935 11.8856V16.0056H14.6135V12.0056L15.52 8.93914L15.5135 8.94564ZM8.39998 10.0056L6.83348 12.5191V12.2656C6.75548 11.0506 5.98098 10.0341 4.90748 9.60614L4.88698 9.59864L5.92048 8.50514C5.96048 8.46514 5.98698 8.41864 6.02698 8.37164C6.72098 8.80664 7.56198 9.07014 8.46298 9.08514H8.46698C8.96998 9.08364 9.45098 8.99064 9.89498 8.82264L9.86698 8.83214C10.3725 8.63714 10.799 8.33664 11.1375 7.95564L11.1405 7.95214L11.427 8.68564L8.39998 10.0056Z" fill="black"/>
</g>
<defs>
<clipPath id="clip0_6_190">
<rect width="16" height="16" fill="white"/>
</clipPath>
</defs>
</svg>
