<svg width="16" height="16" viewBox="0 0 16 16" fill="none" xmlns="http://www.w3.org/2000/svg">
<g clip-path="url(#clip0_6_207)">
<path d="M2.91 0C2.7085 0.0005 2.5455 0.1635 2.5455 0.365C2.5455 0.447 2.5725 0.5225 2.618 0.5835L2.6175 0.5825L3.6375 1.94V14.06L2.25 15.4175C2.2045 15.478 2.1775 15.5545 2.1775 15.6375C2.1775 15.6965 2.1915 15.7525 2.216 15.802L2.215 15.8C2.2765 15.9195 2.399 16 2.54 16H13.09C13.205 16 13.308 15.9465 13.3745 15.863L15.1925 14.045C15.2425 13.9835 15.273 13.904 15.273 13.8175C15.273 13.6175 15.1105 13.455 14.9105 13.455H7.2725V0.3625C7.2725 0.1625 7.11 0 6.91 0H2.91ZM8 1.455V2.1825C8.003 2.1825 8.0065 2.1825 8.01 2.1825C11.619 2.1825 14.545 5.1085 14.545 8.7175C14.545 10.2355 14.0275 11.6325 13.159 12.742L13.17 12.7275H14.0675C14.8225 11.6 15.273 10.2125 15.273 8.72C15.273 4.7075 12.0205 1.455 8.008 1.455C8.0055 1.455 8.0025 1.455 8 1.455ZM8 2.91V12.7275H12.215C13.2075 11.687 13.8185 10.275 13.8185 8.72C13.8185 5.511 11.2175 2.91 8.0085 2.91C8.0055 2.91 8.003 2.91 8 2.91ZM2.91 3.5425C1.659 4.7715 0.8525 6.449 0.751 8.314L0.75 8.3325C0.75 8.4625 0.75 8.595 0.75 8.7275C0.75 8.9425 0.75 9.155 0.7775 9.365C0.9405 11.158 1.734 12.7405 2.931 13.911L2.9325 13.9125V12.8325C2.0265 11.722 1.4775 10.289 1.4775 8.7275C1.4775 7.166 2.0265 5.733 2.942 4.6105L2.9325 4.6225L2.91 3.5425ZM2.91 5.9175C2.452 6.7275 2.1825 7.696 2.1825 8.7275C2.1825 9.759 2.4525 10.7275 2.925 11.5665L2.91 11.5375V5.9175Z" fill="black"/>
</g>
<defs>
<clipPath id="clip0_6_207">
<rect width="16" height="16" fill="white"/>
</clipPath>
</defs>
</svg>
