<svg width="16" height="16" viewBox="0 0 16 16" fill="none" xmlns="http://www.w3.org/2000/svg">
<g clip-path="url(#clip0_6_288)">
<path d="M14.8001 6.76695L8.66661 0.580453C8.50561 0.415953 8.28111 0.314453 8.03311 0.314453C7.78511 0.314453 7.56061 0.416453 7.40011 0.580453L1.20011 6.76045C0.455106 7.52295 -0.00439453 8.56645 -0.00439453 9.71795C-0.00439453 11.9495 1.72261 13.778 3.91261 13.9395L3.92661 13.9405H4.23311C4.88661 13.9395 5.50561 13.7925 6.05911 13.5295L6.03311 13.5405C5.60811 14.032 5.11561 14.45 4.56711 14.785L4.54011 14.8005C4.40661 14.886 4.31961 15.033 4.31961 15.2005C4.31961 15.4595 4.52811 15.67 4.78611 15.674H11.2131C11.4716 15.6705 11.6801 15.46 11.6801 15.2005C11.6801 15.033 11.5931 14.8855 11.4616 14.8015L11.4596 14.8005C10.8971 14.452 10.4161 14.0385 10.0066 13.562L9.99961 13.554C10.5271 13.806 11.1461 13.953 11.7991 13.954H12.1061C14.2991 13.779 16.0121 11.956 16.0121 9.73345C16.0121 8.57795 15.5491 7.53095 14.7986 6.76695H14.8001ZM7.77361 9.52695L7.33361 11.4005H2.83361L3.22011 9.58045L3.34661 9.51395C5.03311 8.66745 6.00011 8.12045 6.00011 7.87395C5.89811 7.83095 5.77961 7.80645 5.65511 7.80645C5.64061 7.80645 5.62561 7.80695 5.61111 7.80745H5.61311C5.24311 7.81145 4.90261 7.93595 4.62911 8.14395L4.63311 8.14095L4.35311 8.34095L3.50661 6.77445L3.70661 6.61445C4.25661 6.19795 4.95261 5.94745 5.70711 5.94745C5.72111 5.94745 5.73511 5.94745 5.74911 5.94795H5.74711C7.14711 5.94795 8.12711 6.70145 8.12711 7.78145C8.09861 8.54395 7.66261 9.19845 7.03161 9.53595L7.02061 9.54145L7.77361 9.52695ZM11.4401 11.4005H9.36661L9.90661 8.94045L9.35311 9.39395L8.35961 8.06045L10.8931 6.00045H12.6266L11.4401 11.4005Z" fill="black"/>
</g>
<defs>
<clipPath id="clip0_6_288">
<rect width="16" height="16" fill="white"/>
</clipPath>
</defs>
</svg>
