<svg width="16" height="16" viewBox="0 0 16 16" fill="none" xmlns="http://www.w3.org/2000/svg">
<g clip-path="url(#clip0_6_432)">
<path d="M3.88001 10.1136L3.56001 10.8136L5.53351 11.3801L5.11351 10.4866L3.88001 10.1136Z" fill="black"/>
<path d="M14.9665 4.72011V4.12661L13.733 3.33311L12.053 3.04661L11.913 3.50661L12.3865 3.96661C11.7665 4.46661 10.773 5.10661 9.93301 4.84661C8.59951 4.44011 8.06651 2.84661 5.69301 2.10011C5.10651 1.92011 3.69301 1.98661 3.11301 2.63361H3.05301C3.05301 2.72011 2.99301 2.81361 2.95951 2.90011C2.92601 2.98661 2.95951 2.90011 2.92601 2.96011L2.88601 3.09361C2.27251 4.72711 1.08601 6.89361 -0.000488281 6.89361V7.89361C1.36601 7.89361 2.46601 6.31361 3.16601 4.93361C3.21951 5.04711 3.28601 5.16011 3.35251 5.28011H3.33251C3.46851 5.58411 3.66301 5.84061 3.90301 6.04411L3.90601 6.04661C4.04151 6.19861 4.18101 6.33761 4.32751 6.46861L4.33251 6.47311L6.25251 10.6066L6.66601 11.4531L6.78601 11.5931L8.87951 13.9996H11.246V13.2661L9.17951 12.5996C8.85101 12.0776 8.52151 11.4626 8.23301 10.8256L8.19301 10.7261C8.00051 10.3216 7.79101 9.80161 7.60751 9.26861L7.57301 9.15261C7.46501 8.85511 7.35051 8.46461 7.25601 8.06711L7.23951 7.98611C7.75301 8.31411 8.20001 8.66561 8.60951 9.05611L8.60601 9.05261C8.74601 9.45911 8.89951 9.84611 9.05251 10.1991L10.386 9.36561H10.426L10.5325 9.33211C11.3035 8.87111 11.87 8.13511 12.1005 7.26261L12.106 7.23861C12.286 6.36511 14.0395 5.35211 14.566 5.80511C15.0925 6.25811 15.9995 5.47861 15.9995 5.47861L14.9665 4.72011Z" fill="black"/>
</g>
<defs>
<clipPath id="clip0_6_432">
<rect width="16" height="16" fill="white"/>
</clipPath>
</defs>
</svg>
