<svg width="16" height="16" viewBox="0 0 16 16" fill="none" xmlns="http://www.w3.org/2000/svg">
<g clip-path="url(#clip0_6_435)">
<path d="M7.44005 3.27984L5.84655 1.68634C5.71005 1.54984 5.52155 1.46484 5.31305 1.46484C5.10455 1.46484 4.91605 1.54934 4.77955 1.68634L0.219547 6.24634C0.0830469 6.38284 -0.00195312 6.57134 -0.00195312 6.77984C-0.00195312 6.98834 0.0825469 7.17684 0.219547 7.31334L1.81305 8.90684L7.44005 3.27984Z" fill="black"/>
<path d="M12.1865 7.33334L14.1865 9.33334V4.45334L12.1865 6.45334C12.075 6.56634 12.006 6.72184 12.006 6.89334C12.006 7.06484 12.075 7.22034 12.1865 7.33334Z" fill="black"/>
<path d="M14.2065 9.37984V4.45334L12.2065 6.45334C12.093 6.56684 12.0225 6.72334 12.0225 6.89684C12.0225 7.07034 12.0925 7.22684 12.206 7.34034L14.2065 9.37984Z" fill="black"/>
<path d="M11.3865 5.66634L13.3865 3.66634L11.3865 1.66634C11.2945 1.57384 11.1675 1.51634 11.0265 1.51634C10.8855 1.51634 10.7585 1.57384 10.6665 1.66634L2.96005 9.37284C2.86755 9.46384 2.81055 9.58984 2.81055 9.72934C2.81055 9.86884 2.86755 9.99534 2.96005 10.0858L7.86655 14.9993C7.96005 15.0888 8.08655 15.1443 8.22655 15.1443C8.36655 15.1443 8.49305 15.0893 8.58655 14.9993L13.4 10.1793L11.4 8.17934C11.07 7.85934 10.8655 7.41134 10.8655 6.91634C10.8655 6.42734 11.065 5.98534 11.3865 5.66634ZM8.13355 10.9598C8.12855 11.0218 8.07705 11.0708 8.01405 11.0708C7.98305 11.0708 7.95505 11.0593 7.93355 11.0398L6.91355 9.99984C6.89455 9.97884 6.88305 9.95084 6.88305 9.91984C6.88305 9.85434 6.93505 9.80134 7.00005 9.79984H7.89355C7.89555 9.79984 7.89805 9.79984 7.90005 9.79984C8.02905 9.79984 8.13355 9.90434 8.13355 10.0333V10.9598ZM10.3065 10.5063C10.303 10.6358 10.197 10.7398 10.0665 10.7398H9.12005C8.99105 10.7398 8.88655 10.6353 8.88655 10.5063V9.33284C8.88755 9.32484 8.88805 9.31534 8.88805 9.30534C8.88805 9.17934 8.79105 9.07584 8.66755 9.06634H7.46655C7.46455 9.06634 7.46205 9.06634 7.46005 9.06634C7.33105 9.06634 7.22655 8.96184 7.22655 8.83284V7.88634C7.22655 7.75734 7.33105 7.65284 7.46005 7.65284C7.46255 7.65284 7.46455 7.65284 7.46705 7.65284H10.0665C10.0685 7.65284 10.071 7.65284 10.073 7.65284C10.202 7.65284 10.3065 7.75734 10.3065 7.88634V10.5063Z" fill="black"/>
</g>
<defs>
<clipPath id="clip0_6_435">
<rect width="16" height="16" fill="white"/>
</clipPath>
</defs>
</svg>
