<svg width="16" height="16" viewBox="0 0 16 16" fill="none" xmlns="http://www.w3.org/2000/svg">
<path d="M13.38 8.46H13.54C13.8 8.46 14.06 8.49 14.3 8.56V5.95C13.4 5.82 12.68 5.12 12.52 4.23H3.45C3.29 5.11 2.6 5.8 1.73 5.94L1.71 9.97C2.6 10.1 3.31 10.8 3.45 11.68H10.29V11.37C10.34 9.76 11.72 8.46 13.38 8.46ZM9.54 9.81C9.25 10.06 8.85 10.21 8.32 10.25V10.94H7.67V10.25C7.15 10.2 6.75 10.04 6.45 9.76C6.16 9.49 6.01 9.11 6.01 8.63H7.45C7.45 8.84 7.5 8.99 7.62 9.11C7.73 9.21 7.87 9.27 8.05 9.27C8.2 9.27 8.32 9.23 8.4 9.16C8.49 9.09 8.53 9 8.53 8.88C8.53 8.76 8.47 8.66 8.35 8.59C8.24 8.52 8.05 8.44 7.8 8.34C7.58 8.25 7.36 8.17 7.16 8.09C6.95 8.01 6.78 7.92 6.62 7.8C6.47 7.69 6.35 7.56 6.25 7.41C6.16 7.26 6.12 7.06 6.12 6.83C6.12 6.63 6.16 6.45 6.24 6.3C6.33 6.15 6.44 6.02 6.57 5.91C6.72 5.81 6.89 5.73 7.08 5.67C7.27 5.61 7.46 5.56 7.67 5.54V4.86H8.32V5.54C8.62 5.57 8.88 5.63 9.07 5.73C9.28 5.81 9.45 5.93 9.57 6.07C9.69 6.2 9.78 6.34 9.83 6.51C9.88 6.67 9.91 6.83 9.91 6.99H8.48C8.48 6.61 8.32 6.43 8 6.43C7.88 6.43 7.78 6.46 7.69 6.51C7.6 6.57 7.56 6.66 7.56 6.78C7.56 6.9 7.62 6.99 7.73 7.07C7.84 7.15 8 7.23 8.22 7.3C8.43 7.37 8.64 7.44 8.84 7.52C9.05 7.59 9.24 7.69 9.41 7.8C9.58 7.91 9.72 8.05 9.82 8.21C9.92 8.37 9.98 8.57 9.98 8.79C9.98 9.22 9.83 9.56 9.54 9.81Z" fill="black"/>
<path d="M14.67 2.5H1.33C0.59 2.5 0 3.08 0 3.79V11.99C0 12.7 0.59 13.29 1.33 13.29H9.96V12.43H2.73V12.06C2.73 11.29 2.13 10.69 1.4 10.69H0.96L0.98 5.22H1.42C2.15 5.2 2.73 4.61 2.73 3.88V3.5L3.11 3.48H13.24V3.86C13.24 4.62 13.85 5.21 14.59 5.21H15.05V8.84C15.42 9.05 15.74 9.32 16 9.65V3.79C16 3.08 15.4 2.5 14.67 2.5Z" fill="black"/>
<path d="M15.63 11.43C15.62 10.9 15.41 10.43 15.05 10.08C14.84 9.87 14.58 9.7 14.3 9.6C14.06 9.51 13.81 9.46 13.54 9.46H13.38C12.22 9.46 11.3 10.35 11.28 11.44V12.37H10.96V16H15.96V12.37H15.63V11.43ZM13.75 14.16V14.62C13.75 14.77 13.63 14.9 13.45 14.9C13.3 14.9 13.17 14.77 13.17 14.62V14.16C12.99 14.07 12.87 13.89 12.87 13.68C12.87 13.52 12.93 13.38 13.04 13.29L13.07 13.26C13.17 13.16 13.3 13.11 13.45 13.11C13.61 13.11 13.74 13.16 13.84 13.26C13.84 13.27 13.86 13.28 13.87 13.29C13.99 13.38 14.06 13.52 14.06 13.68C14.06 13.89 13.94 14.07 13.75 14.16ZM14.84 12.37H12.09V11.44C12.09 10.77 12.66 10.21 13.38 10.21H13.57C13.82 10.22 14.05 10.28 14.24 10.4C14.37 10.48 14.48 10.58 14.57 10.69C14.62 10.75 14.66 10.82 14.7 10.9C14.79 11.06 14.84 11.24 14.84 11.44V12.37Z" fill="black"/>
</svg>
