<svg width="16" height="16" viewBox="0 0 16 16" fill="none" xmlns="http://www.w3.org/2000/svg">
<path d="M14.0335 3.80602L9.12 0.966016C8.7985 0.777516 8.4125 0.666016 8 0.666016C7.5875 0.666016 7.2015 0.777516 6.8695 0.972016L6.88 0.966516L2 3.80652C1.61 4.01252 1.346 4.41052 1.3335 4.87152V10.973C1.3335 10.974 1.3335 10.975 1.3335 10.976C1.3335 11.5285 1.6335 12.011 2.0795 12.2695L2.0865 12.2735L6.8665 15.0335C7.188 15.222 7.574 15.3335 7.9865 15.3335C8.399 15.3335 8.785 15.222 9.117 15.0275L9.1065 15.033L13.8865 12.273C14.351 12.0165 14.662 11.5315 14.6665 10.9735V4.87302C14.661 4.41702 14.4095 4.02052 14.0395 3.80952L14.0335 3.80602ZM4.5065 10.9195C4.14 10.966 3.78 10.4595 3.7065 9.79302C3.633 9.12652 3.8665 8.55302 4.233 8.51302C4.5995 8.47302 4.9595 8.97302 5.033 9.63952C5.1065 10.306 4.8795 10.8795 4.5065 10.9195ZM8.0535 5.58602C7.3535 5.58602 6.787 5.28602 6.787 4.91952C6.787 4.55302 7.3535 4.25302 8.0535 4.25302C8.7535 4.25302 9.32 4.55302 9.32 4.91952C9.32 5.28602 8.7535 5.55952 8.0535 5.55952V5.58602ZM8.0535 3.15302C7.3535 3.15302 6.787 2.85952 6.787 2.48652C6.787 2.11352 7.3535 1.82002 8.0535 1.82002C8.7535 1.82002 9.32 2.12002 9.32 2.48652C9.32 2.85302 8.7535 3.12652 8.0535 3.12652V3.15302ZM11.1135 12.3995C10.98 13.026 10.5935 13.473 10.247 13.393C9.9005 13.313 9.727 12.7265 9.867 12.1265C10.007 11.5265 10.387 11.053 10.7335 11.1265C11.08 11.2 11.2535 11.7465 11.1135 12.373V12.3995ZM11.1135 9.00602C10.98 9.63252 10.5935 10.0795 10.247 10.006C9.9005 9.93252 9.727 9.33952 9.867 8.73252C10.007 8.12552 10.387 7.65902 10.7335 7.73902C11.08 7.81902 11.2535 8.35252 11.1135 8.97902V9.00602ZM13.5535 11.006C13.42 11.6325 13.027 12.0795 12.68 12.006C12.333 11.9325 12.1665 11.3395 12.3 10.7325C12.4335 10.1255 12.8265 9.65902 13.1735 9.73902C13.5205 9.81902 13.687 10.3655 13.5535 10.9925V11.006ZM13.5535 7.61302C13.42 8.23952 13.027 8.68651 12.68 8.61302C12.333 8.53952 12.1665 7.94652 12.3 7.34652C12.4335 6.74652 12.8265 6.27302 13.1735 6.34652C13.5205 6.42002 13.687 6.97302 13.5535 7.60002V7.61302Z" fill="black"/>
</svg>
