<svg width="16" height="16" viewBox="0 0 16 16" fill="none" xmlns="http://www.w3.org/2000/svg">
<g clip-path="url(#clip0_245_127)">
<path d="M8.30702 5.62001H6.46052V6.16001H9.34702C9.14052 5.82651 8.76702 5.62001 8.30702 5.62001Z" fill="black"/>
<path d="M6.45302 8.70651H8.30652C8.76652 8.70651 9.14652 8.50651 9.34652 8.16651H6.45302V8.70651Z" fill="black"/>
<path d="M6.45302 7.42001H9.50652V6.91351H6.45302V7.42001Z" fill="black"/>
<path fill-rule="evenodd" clip-rule="evenodd" d="M8 16C12.4185 16 16 12.4185 16 8C16 3.5815 12.4185 0 8 0C3.5815 0 0 3.5815 0 8C0 12.4185 3.5815 16 8 16ZM12.4935 6.15301V6.90651H11.2935V7.41301H12.5V8.16651H11.2335C11 9.32001 10.06 10.2 8.54002 10.2H6.45352V12.3H4.71352V8.16651H3.50702V7.41301H4.71352V6.90651H3.50702V6.15301H4.71352V4.11951H8.54002C10.06 4.11951 10.9865 4.99951 11.22 6.15301H12.4935Z" fill="black"/>
</g>
<defs>
<clipPath id="clip0_245_127">
<rect width="16" height="16" fill="white"/>
</clipPath>
</defs>
</svg>
