<svg width="16" height="16" viewBox="0 0 16 16" fill="none" xmlns="http://www.w3.org/2000/svg">
<g clip-path="url(#clip0_6_408)">
<path d="M14.0001 6.455H12.9326C12.8926 6.455 12.8801 6.455 12.8701 6.415C12.7876 6.185 12.7026 5.9575 12.6201 5.73C12.6201 5.6975 12.5951 5.6875 12.5526 5.6875H11.2226C11.1826 5.6875 11.1701 5.6875 11.1576 5.7275C11.0701 5.955 10.9801 6.1825 10.8926 6.4125C10.8926 6.4425 10.8676 6.455 10.8251 6.455H9.84511C9.88761 6.3525 9.92511 6.255 9.96511 6.1575L11.2701 2.9075C11.2851 2.8725 11.3026 2.8625 11.3451 2.8625H12.4751C12.5176 2.8625 12.5351 2.8625 12.5501 2.9075C13.0251 4.07417 13.5018 5.24083 13.9801 6.4075C13.9801 6.4075 13.9801 6.435 14.0001 6.4425V6.455ZM12.3626 5L11.9076 3.6L11.8951 3.62L11.4176 4.985C11.4176 5.01 11.4176 5.01 11.4451 5.01H12.3626V5Z" fill="black"/>
<path d="M12.8901 13.465C13.0441 13.49 13.1816 13.531 13.3116 13.587L13.3001 13.5825C13.5411 13.6735 13.7166 13.888 13.7496 14.1465L13.7501 14.15C13.7571 14.1915 13.7611 14.2395 13.7611 14.2885C13.7611 14.5165 13.6741 14.7245 13.5321 14.8805C13.3696 15.045 13.1616 15.1635 12.9281 15.216L12.9201 15.2175C12.6821 15.28 12.4091 15.3155 12.1276 15.3155C12.1066 15.3155 12.0851 15.3155 12.0641 15.315H12.0671H10.1296C10.0846 15.315 10.0721 15.315 10.0721 15.2675V11.735C10.0721 11.71 10.0721 11.6875 10.1146 11.6875C10.8646 11.6875 11.6296 11.6875 12.3871 11.6875C12.3886 11.6875 12.3901 11.6875 12.3921 11.6875C12.6446 11.6875 12.8851 11.739 13.1041 11.832L13.0921 11.8275C13.4216 11.9335 13.6556 12.237 13.6556 12.5955C13.6556 12.622 13.6541 12.6475 13.6521 12.6735V12.67C13.6501 12.9075 13.5346 13.1175 13.3566 13.2485L13.3546 13.25C13.2431 13.3305 13.1131 13.3955 12.9741 13.4375L12.9646 13.44C12.9366 13.4425 12.9111 13.4515 12.8891 13.4655L12.8901 13.465ZM11.2301 14.215C11.2301 14.345 11.2301 14.465 11.2301 14.605C11.2301 14.635 11.2301 14.6425 11.2726 14.6425H11.8951C12.0486 14.6425 12.1966 14.6185 12.3356 14.5745L12.3251 14.5775C12.4806 14.542 12.5971 14.4115 12.6101 14.2515V14.25C12.6126 14.234 12.6141 14.215 12.6141 14.196C12.6141 14.0595 12.5361 13.941 12.4221 13.8835L12.4201 13.8825C12.3191 13.831 12.2001 13.798 12.0746 13.7925H12.0726C11.8051 13.7675 11.5351 13.78 11.2676 13.775C11.2326 13.775 11.2276 13.79 11.2276 13.8125C11.2301 13.9425 11.2301 14.0725 11.2301 14.2025V14.215ZM11.2301 12.7575C11.2301 12.87 11.2301 12.9825 11.2301 13.095C11.2301 13.1225 11.2301 13.135 11.2751 13.135H11.7976C11.8071 13.135 11.8176 13.1355 11.8286 13.1355C11.9981 13.1355 12.1591 13.1005 12.3051 13.037L12.2971 13.04C12.4171 12.997 12.5011 12.8845 12.5011 12.752C12.5011 12.7415 12.5006 12.731 12.4996 12.721V12.7225C12.4981 12.586 12.4051 12.4715 12.2791 12.438L12.2771 12.4375C12.1956 12.4085 12.1011 12.389 12.0026 12.3825H11.9996C11.7496 12.365 11.5171 12.3825 11.2746 12.3825C11.2396 12.3825 11.2321 12.3825 11.2321 12.42C11.2296 12.5225 11.2296 12.635 11.2296 12.75L11.2301 12.7575Z" fill="black"/>
<path d="M13.7101 8.19L13.5151 8.1125C13.2371 8.0015 12.9146 7.9375 12.5776 7.9375C12.5686 7.9375 12.5601 7.9375 12.5516 7.9375H12.5531C11.8681 7.9375 11.3481 8.3225 11.2481 8.89C11.2326 8.9585 11.2236 9.037 11.2236 9.1175C11.2236 9.3425 11.2936 9.5515 11.4131 9.7235L11.4106 9.72C11.5961 9.9655 11.8651 10.1395 12.1751 10.1985L12.1831 10.2C12.3451 10.2345 12.5316 10.254 12.7226 10.254C12.9881 10.254 13.2446 10.216 13.4871 10.145L13.4681 10.15C13.5506 10.13 13.6331 10.105 13.7181 10.08C13.7506 10.08 13.7581 10.08 13.7606 10.1025C13.7756 10.3358 13.7931 10.5683 13.8131 10.8C13.8131 10.8225 13.8131 10.83 13.7831 10.835C13.4271 10.9215 13.0186 10.971 12.5981 10.971C12.3821 10.971 12.1696 10.958 11.9606 10.9325L11.9856 10.935C11.4996 10.884 11.0616 10.712 10.6921 10.4495L10.7006 10.455C10.3996 10.243 10.1811 9.932 10.0901 9.5705L10.0876 9.56C10.0511 9.423 10.0301 9.266 10.0301 9.1035C10.0301 8.815 10.0966 8.542 10.2151 8.299L10.2101 8.31C10.4456 7.863 10.8491 7.531 11.3346 7.3955L11.3476 7.3925C11.6836 7.282 12.0706 7.218 12.4726 7.218C12.5366 7.218 12.6006 7.2195 12.6641 7.223L12.6551 7.2225C13.0601 7.2455 13.4396 7.307 13.8046 7.404L13.7651 7.395C13.7901 7.395 13.8076 7.395 13.8051 7.435C13.7701 7.685 13.7501 7.935 13.7101 8.19Z" fill="black"/>
<path d="M12.1251 0C11.9631 0 11.8071 0.0285 11.6631 0.0805L11.6726 0.0775C11.6446 0.077 11.6111 0.0765 11.5776 0.0765C11.3741 0.0765 11.1731 0.087 10.9751 0.107L11.0001 0.105C10.6826 0.1255 10.3951 0.2395 10.1616 0.42L10.1651 0.4175C10.0026 0.5475 9.84761 0.6825 9.67761 0.805C9.44511 0.97 9.19261 1.1175 8.95011 1.2725C8.58261 1.474 8.28211 1.7565 8.06611 2.0975L8.06011 2.1075C8.04161 2.1335 8.01911 2.155 7.99361 2.172L7.99261 2.1725L7.06761 2.84C7.06761 2.84 7.05011 2.86 7.02761 2.8525C7.02561 2.7 6.99611 2.555 6.94461 2.4215L6.94761 2.43C6.84411 2.1465 6.59261 1.941 6.28861 1.9055L6.28461 1.905C6.21911 1.895 6.14411 1.889 6.06711 1.889C5.89411 1.889 5.72811 1.9185 5.57411 1.973L5.58461 1.97C5.34061 2.038 5.15261 2.226 5.08561 2.465L5.08461 2.47C5.06811 2.531 5.05811 2.6005 5.05811 2.6725C5.05811 2.7685 5.07511 2.86 5.10611 2.9455L5.10411 2.94C5.20161 3.2265 5.33411 3.475 5.49911 3.697L5.49411 3.69C5.51911 3.7185 5.53711 3.7545 5.54411 3.7935V3.795C5.54661 3.8135 5.54861 3.835 5.54861 3.8565C5.54861 3.975 5.50211 4.083 5.42661 4.1625C5.39661 4.1925 5.37161 4.2225 5.34411 4.2525C5.18911 4.415 5.01661 4.56 4.84411 4.7125C4.76811 4.7745 4.70861 4.8545 4.67311 4.946L4.67161 4.95C4.64961 5.0185 4.63661 5.0975 4.63661 5.1795C4.63661 5.3805 4.71361 5.5635 4.83961 5.7005C5.01811 5.8955 5.20261 6.075 5.39811 6.243L5.40661 6.25C5.71911 6.5475 6.03411 6.845 6.31161 7.165C6.42911 7.2915 6.53261 7.433 6.61861 7.5865L6.62411 7.5975C6.65111 7.6415 6.66711 7.6945 6.66711 7.752C6.66711 7.8215 6.64311 7.8855 6.60361 7.936C6.59211 7.9565 6.58211 7.9735 6.57011 7.99L6.57161 7.988C6.50711 8.0775 6.45411 8.1815 6.41861 8.2925L6.41661 8.3005C6.27511 8.6855 6.12561 9.1865 6.00261 9.698L5.98161 9.8005C5.89911 10.178 5.84161 10.5505 5.78911 10.9405C5.77661 11.028 5.78911 11.088 5.89661 11.1155C5.91811 11.116 5.93561 11.1335 5.93561 11.1555C5.93561 11.162 5.93411 11.168 5.93161 11.173C5.91911 11.243 5.90411 11.3155 5.89411 11.3855C5.88811 11.4275 5.86011 11.462 5.82261 11.4775L5.82161 11.478C5.71961 11.534 5.59861 11.589 5.47261 11.6345L5.45411 11.6405C5.24161 11.712 5.05861 11.8195 4.90211 11.957L4.90411 11.9555C4.79411 12.0605 4.68911 12.168 4.58911 12.2805C4.36411 12.5305 4.15661 12.803 3.92411 13.053C3.77711 13.221 3.61311 13.3685 3.43261 13.4945L3.42411 13.5005C3.38411 13.5255 3.35661 13.5305 3.32911 13.5005C3.31961 13.4815 3.30011 13.4685 3.27761 13.4685C3.26161 13.4685 3.24711 13.475 3.23661 13.4855C3.12511 13.5545 2.99011 13.5955 2.84511 13.5955C2.83861 13.5955 2.83211 13.5955 2.82561 13.5955C2.66561 13.599 2.51411 13.6245 2.36961 13.6685L2.38161 13.6655C2.30911 13.6905 2.26911 13.728 2.27161 13.798C2.27711 13.875 2.28011 13.965 2.28011 14.0555C2.28011 14.146 2.27711 14.236 2.27111 14.325L2.27161 14.313C2.25761 14.5295 2.19261 14.7285 2.08811 14.9015L2.09161 14.8955C2.04361 14.968 2.01111 15.0545 1.99961 15.1475L1.99911 15.1505C1.99711 15.181 1.99561 15.217 1.99561 15.253C1.99561 15.455 2.03561 15.6475 2.10761 15.823L2.10411 15.813C2.12311 15.9165 2.21011 15.995 2.31611 16.0005H2.36161C2.45561 15.9745 2.53461 15.9195 2.59061 15.8465L2.59161 15.8455C2.73161 15.6835 2.85111 15.498 2.94311 15.2975L2.94911 15.283C3.05111 15.0875 3.17111 14.919 3.31061 14.769L3.30911 14.7705C3.30911 14.7705 3.32161 14.748 3.34161 14.748C3.32211 14.8115 3.31011 14.8845 3.30911 14.96C3.30961 15.1655 3.35011 15.3615 3.42261 15.541L3.41911 15.5305C3.44411 15.5955 3.48411 15.613 3.56411 15.598C3.62911 15.5825 3.68511 15.548 3.72611 15.501C3.82311 15.397 3.90711 15.278 3.97261 15.149L3.97661 15.1405C4.06911 14.978 4.13911 14.8055 4.22661 14.6405C4.24111 14.61 4.26461 14.586 4.29311 14.571L4.29411 14.5705C4.33311 14.5555 4.36211 14.522 4.37161 14.4815C4.39111 14.4175 4.42861 14.3625 4.47861 14.3235C4.51861 14.286 4.55911 14.2455 4.60161 14.2105C4.92961 13.95 5.30961 13.7365 5.72111 13.589L5.74911 13.5805C6.26161 13.378 6.77411 13.183 7.28411 12.983C7.70361 12.8175 8.04661 12.6555 8.37811 12.475L8.32661 12.5005C8.56861 12.358 8.75561 12.146 8.86361 11.8915L8.86661 11.883C8.90061 11.7685 8.9966 11.683 9.11511 11.6655H9.11661C9.14661 11.6605 9.17061 11.638 9.17661 11.6085C9.33161 11.16 9.43061 10.6415 9.45111 10.103L9.45161 10.093C9.45661 9.996 9.45961 9.883 9.45961 9.769C9.45961 9.2985 9.40911 8.84 9.31361 8.398L9.32111 8.4405C9.25761 8.1005 9.15161 7.797 9.00711 7.517L9.01561 7.5355C8.98061 7.467 8.94611 7.3845 8.91711 7.299L8.91311 7.2855C8.83811 7.0355 8.8006 6.7855 8.7231 6.5355C8.65861 6.341 8.61011 6.114 8.58661 5.879L8.58561 5.8655C8.55361 5.493 8.49411 5.1525 8.40861 4.822L8.41811 4.8655C8.35911 4.5955 8.24211 4.3585 8.08061 4.16L8.08311 4.163C8.20661 4.14 8.31311 4.1115 8.41661 4.0755L8.40061 4.0805C8.80461 3.9355 9.15411 3.759 9.47711 3.5465L9.45811 3.558C9.71461 3.4025 9.93711 3.2375 10.1426 3.054L10.1381 3.058C10.2021 3.0025 10.2481 2.928 10.2676 2.843L10.2681 2.8405C10.3431 2.4655 10.3806 2.0905 10.4306 1.713C10.4506 1.524 10.4776 1.358 10.5136 1.195L10.5081 1.2255C10.5221 1.138 10.5606 1.061 10.6161 1C10.6161 1.0175 10.7481 1.0005 10.7481 1.0005H10.8006C10.7676 1.113 10.7486 1.242 10.7481 1.3755C10.7481 2.135 11.3636 2.7505 12.1231 2.7505C12.8826 2.7505 13.4981 2.135 13.4981 1.3755C13.4981 0.616 12.8826 0.0005 12.1231 0.0005L12.1251 0ZM7.59011 11.765C7.14911 11.9075 6.76561 12.095 6.41511 12.3285L6.43261 12.3175C6.08511 12.5375 5.76011 12.7775 5.42011 13.0025C5.34761 13.05 5.27761 13.1 5.20011 13.1425C5.38061 12.908 5.61311 12.723 5.88161 12.602L5.89261 12.5975C6.04661 12.5425 6.18011 12.468 6.29811 12.375L6.29511 12.3775C6.41761 12.265 6.5451 12.15 6.65761 12.0325C6.93111 11.76 7.17061 11.453 7.36861 11.1185L7.38011 11.097C7.41761 11.032 7.45011 10.962 7.48761 10.8895C7.51761 10.9415 7.53811 11.0025 7.54511 11.0675V11.0695C7.55861 11.1805 7.56661 11.3095 7.56661 11.44C7.56661 11.4735 7.56611 11.5065 7.56511 11.5395V11.5345C7.56511 11.5365 7.56511 11.5385 7.56511 11.541C7.56511 11.5815 7.58811 11.617 7.62211 11.6345C7.68461 11.6745 7.67261 11.75 7.59011 11.765ZM9.11511 2.7225C8.95761 2.782 8.7696 2.834 8.5756 2.8695L8.55511 2.8725C8.60061 2.8255 8.64961 2.783 8.70211 2.7445L8.70511 2.7425C8.91361 2.596 9.09611 2.443 9.26561 2.277C9.29411 2.24 9.33211 2.212 9.37611 2.1955L9.3776 2.195C9.3326 2.3325 9.29761 2.475 9.24011 2.6075C9.21461 2.6605 9.17061 2.701 9.11661 2.722L9.11511 2.7225Z" fill="black"/>
</g>
<defs>
<clipPath id="clip0_6_408">
<rect width="16" height="16" fill="white"/>
</clipPath>
</defs>
</svg>
