<svg width="16" height="16" viewBox="0 0 16 16" fill="none" xmlns="http://www.w3.org/2000/svg">
<g clip-path="url(#clip0_6_594)">
<path d="M14.64 1.36013C12.8265 -0.453375 9.88649 -0.453375 8.07349 1.36013C7.30699 2.12663 6.87349 3.33363 6.74699 4.07363C6.54699 5.23362 5.93349 6.65363 5.15349 7.24713C4.91999 7.36713 4.69999 7.52713 4.50699 7.72713C3.68699 8.54712 3.52049 9.77362 4.00049 10.7606L0.000488281 14.7606L1.24049 16.0006L5.24049 12.0006C6.23399 12.4806 7.45399 12.3141 8.27399 11.4941C8.46749 11.3006 8.62749 11.0806 8.75399 10.8476C9.35399 10.0676 11.054 9.43412 11.9205 9.24763C12.9005 9.03413 13.8805 8.68762 14.6405 7.92762C16.454 6.11412 16.454 3.17412 14.6405 1.36112L14.64 1.36013ZM13.2265 2.77362C13.86 3.40712 14.1 4.28713 13.953 5.11363L10.8865 2.04712C11.04 2.02062 11.193 2.00062 11.353 2.00062C12.0595 2.00062 12.7265 2.27362 13.2265 2.77362ZM12.58 6.95362L9.05349 3.42712C9.17999 3.17362 9.31999 2.93362 9.47999 2.78062C9.51999 2.74062 9.57349 2.70712 9.61999 2.66712L13.34 6.38713C13.3 6.43363 13.2735 6.48062 13.2265 6.52712C13.06 6.69362 12.8465 6.84062 12.58 6.96062V6.95362ZM7.15999 9.64013L7.05999 9.77363L6.97999 9.92712C6.94649 9.98713 6.90649 10.0406 6.85999 10.0936C6.68649 10.2671 6.49349 10.2871 6.38649 10.2871C6.27949 10.2871 6.08649 10.2606 5.91299 10.0936C5.73949 9.92013 5.71949 9.72713 5.71949 9.62012C5.71949 9.51312 5.74599 9.32012 5.91299 9.14662C5.95949 9.10012 6.01949 9.06012 6.07949 9.02662L6.22599 8.94662L6.35949 8.84663C7.56599 7.92663 8.29949 6.22662 8.61299 4.88013L11.133 7.40013C10.293 7.62663 8.17949 8.31362 7.15949 9.64662L7.15999 9.64013Z" fill="black"/>
<path d="M10.8335 11.6466C9.71999 12.2931 9.33349 13.7201 9.97999 14.8331C10.6265 15.9461 12.0535 16.3331 13.1665 15.6866C14.2795 15.0401 14.6665 13.6131 14.02 12.5001C13.3735 11.3871 11.9465 11.0001 10.8335 11.6466Z" fill="black"/>
</g>
<defs>
<clipPath id="clip0_6_594">
<rect width="16" height="16" fill="white"/>
</clipPath>
</defs>
</svg>
