<svg width="16" height="16" viewBox="0 0 16 16" fill="none" xmlns="http://www.w3.org/2000/svg">
<g clip-path="url(#clip0_6_315)">
<path d="M15.9999 6.34622C15.9999 6.33972 15.9999 6.33222 15.9999 6.32422C15.9999 4.66722 14.6569 3.32422 12.9999 3.32422C11.9609 3.32422 11.0449 3.85272 10.5069 4.65522L10.4999 4.66622C9.95494 3.85272 9.03894 3.32472 7.99994 3.32472C6.96094 3.32472 6.04494 3.85322 5.50694 4.65572L5.49994 4.66672C4.95094 3.88222 4.05194 3.37572 3.03394 3.37572C1.37694 3.37572 0.0339355 4.71872 0.0339355 6.37572C0.0339355 7.85572 1.10544 9.08522 2.51494 9.33122L2.53294 9.33372C2.52944 9.38672 2.52794 9.44822 2.52794 9.51022C2.52794 9.57222 2.52994 9.63422 2.53344 9.69522L2.53294 9.68672C2.56644 11.3177 3.89644 12.6267 5.53244 12.6267C6.55094 12.6267 7.45094 12.1192 7.99344 11.3432L7.99994 11.3337C8.54494 12.1472 9.46094 12.6752 10.4999 12.6752C12.1569 12.6752 13.4999 11.3322 13.4999 9.67522C13.4999 9.67472 13.4999 9.67422 13.4999 9.67322C13.4944 9.54822 13.4829 9.43072 13.4644 9.31572L13.4669 9.33322C14.9109 9.09972 16.0004 7.86172 16.0004 6.36972C16.0004 6.36172 16.0004 6.35322 16.0004 6.34522L15.9999 6.34622ZM7.99994 4.66622C8.92044 4.66622 9.66644 5.41222 9.66644 6.33272C9.66193 6.50072 9.63544 6.66072 9.58994 6.81222L9.59344 6.79922C8.92644 7.01322 8.37644 7.43522 8.00694 7.98822L7.99994 7.99922C7.62144 7.44072 7.07194 7.02272 6.42794 6.81822L6.40694 6.81222C6.36494 6.67372 6.33844 6.51372 6.33344 6.34822V6.34572C6.33344 6.34172 6.33344 6.33722 6.33344 6.33222C6.33344 5.41172 7.07944 4.66622 7.99994 4.66622ZM1.33344 6.34622C1.33344 5.42572 2.07944 4.67972 2.99994 4.67972C3.92044 4.67972 4.66644 5.42572 4.66644 6.34622C4.66194 6.51422 4.63544 6.67422 4.58994 6.82572L4.59344 6.81272C3.92494 7.02122 3.37294 7.43922 2.99994 7.98872L2.99344 7.99922C2.08044 7.99572 1.34094 7.25772 1.33344 6.34622ZM5.49994 11.3332C4.57944 11.3332 3.83344 10.5872 3.83344 9.66672C3.83794 9.49872 3.86444 9.33872 3.90994 9.18722L3.90644 9.20022C4.57344 8.98622 5.12344 8.56422 5.49294 8.01122L5.49994 8.00022C5.87844 8.55872 6.42794 8.97672 7.07194 9.18122L7.09294 9.18722C7.13494 9.32572 7.16144 9.48572 7.16644 9.65122V9.65372C7.16644 9.65772 7.16644 9.66222 7.16644 9.66722C7.16644 10.5877 6.42044 11.3332 5.49994 11.3332ZM10.4999 11.3332C9.57944 11.3332 8.83344 10.5872 8.83344 9.66672C8.83794 9.49872 8.86444 9.33872 8.90993 9.18722L8.90644 9.20022C9.57343 8.98622 10.1234 8.56422 10.4929 8.01122L10.4999 8.00022C10.8784 8.55872 11.4279 8.97672 12.0719 9.18122L12.0929 9.18722C12.1349 9.32572 12.1614 9.48572 12.1664 9.65122V9.65372C12.1664 9.65772 12.1664 9.66222 12.1664 9.66722C12.1664 10.5877 11.4204 11.3332 10.4999 11.3332ZM13.0064 7.99972C12.6279 7.43722 12.0754 7.01672 11.4274 6.81222L11.4064 6.80672C11.3644 6.66822 11.3379 6.50822 11.3329 6.34272V6.34022C11.3329 6.33822 11.3329 6.33572 11.3329 6.33372C11.3329 5.41322 12.0789 4.66722 12.9994 4.66722C13.9199 4.66722 14.6659 5.41322 14.6659 6.33372C14.6659 7.25172 13.9234 7.99622 13.0064 7.99972Z" fill="black"/>
</g>
<defs>
<clipPath id="clip0_6_315">
<rect width="16" height="16" fill="white"/>
</clipPath>
</defs>
</svg>
