<svg width="16" height="16" viewBox="0 0 16 16" fill="none" xmlns="http://www.w3.org/2000/svg">
<path d="M9.77833 8.04205C9.77833 7.29651 9.30636 6.65859 8.64458 6.40912V9.67498C9.30636 9.42552 9.77833 8.7876 9.77833 8.04205Z" fill="black"/>
<path d="M13.9323 10.0021H16V6.15324H13.9323V10.0021Z" fill="black"/>
<path d="M15.0904 2H8.64458V5.14968C9.98603 5.43407 10.9959 6.62295 10.9959 8.04205C10.9959 9.46115 9.98603 10.65 8.64458 10.9344V13.943H14.6313L14.607 13.9594L16 14V11.2138H12.7148V4.94155H16V2.0114L15.0904 2Z" fill="black"/>
<path d="M2.18657 6.15324H0V10.0021H2.18657V6.15324Z" fill="black"/>
<path d="M6.26893 8.04205C6.26893 8.75125 6.69579 9.36279 7.30743 9.63578V6.44833C6.69579 6.72131 6.26893 7.33286 6.26893 8.04205Z" fill="black"/>
<path d="M0 2.0114V4.94155H3.40412V11.2138H0V14L0.913876 13.943H7.30743V10.913C6.01325 10.593 5.05139 9.42694 5.05139 8.04205C5.05139 6.65716 6.01325 5.49109 7.30743 5.17106V2H0.910295L0 2.0114Z" fill="black"/>
</svg>
