<svg width="16" height="16" viewBox="0 0 16 16" fill="none" xmlns="http://www.w3.org/2000/svg">
<path d="M8.19999 12.7201C9.87349 12.7161 11.2295 11.3606 11.2335 9.68708L8.19999 9.68658L8.47349 6.66658C8.43249 6.66358 8.38499 6.66158 8.33699 6.66158C8.28899 6.66158 8.24099 6.66358 8.19399 6.66708L8.20049 6.66658C6.86299 6.67508 5.73149 7.55058 5.33999 8.75858L5.33399 8.78008H0.000488281V10.4201H5.26699C5.60399 11.7496 6.78849 12.7176 8.19999 12.7201Z" fill="black"/>
<path d="M6.46649 0.580078H9.93299V2.31358H6.46649V0.580078Z" fill="black"/>
<path d="M12.7265 5.65358L13.62 4.62008L12.2865 3.48008L11.393 4.53358C10.487 3.95508 9.38199 3.61108 8.19649 3.61108C6.47499 3.61108 4.92299 4.33608 3.82899 5.49708L3.82599 5.50008H1.63949V7.14008H5.70599V6.15358C6.39499 5.64358 7.26099 5.33608 8.19899 5.33358C10.49 5.46458 12.299 7.35458 12.299 9.66708C12.299 11.9796 10.4905 13.8696 8.21099 14.0001L8.19949 14.0006C8.19849 14.0006 8.19699 14.0006 8.19549 14.0006C7.26099 14.0006 6.39699 13.7006 5.69349 13.1921L5.70599 13.2006V12.0606H1.63949V13.7006H3.63949C4.75649 14.9576 6.37749 15.7461 8.18299 15.7461C11.5345 15.7461 14.2515 13.0291 14.2515 9.67758C14.2515 8.13108 13.673 6.71958 12.7205 5.64808L12.7265 5.65358Z" fill="black"/>
</svg>
