<svg width="16" height="16" viewBox="0 0 16 16" fill="none" xmlns="http://www.w3.org/2000/svg">
<g clip-path="url(#clip0_6_564)">
<path d="M7.55152 14.0966L4.0062 15.8974C3.89002 15.9623 3.75182 16 3.6051 16C3.12588 16 2.73729 15.5938 2.73729 15.0928C2.73729 15.0514 2.7398 15.0111 2.74481 14.9713L2.74431 14.976L3.29163 10.7881C3.29764 10.7483 3.30114 10.7023 3.30114 10.6557C3.30114 10.417 3.21101 10.2008 3.06429 10.0411L0.25407 6.94935C0.104345 6.78655 0.012207 6.56511 0.012207 6.32116C0.012207 5.87619 0.318667 5.50609 0.722773 5.42861L0.728281 5.42756L4.73429 4.67373C4.99969 4.62505 5.21902 4.45334 5.3397 4.21777L5.3417 4.21306L7.26459 0.478995C7.41231 0.192121 7.69774 0 8.02573 0C8.35372 0 8.63915 0.192121 8.78437 0.474283L8.78687 0.478995L10.6832 4.21306C10.8059 4.45334 11.0252 4.62505 11.2856 4.67321L11.2906 4.67373L15.2966 5.42756C15.7062 5.50609 16.0122 5.87619 16.0122 6.32064C16.0122 6.56459 15.9201 6.78602 15.7703 6.94935L12.9601 10.0128C12.8114 10.1725 12.7198 10.3908 12.7198 10.6311C12.7198 10.6866 12.7248 10.7405 12.7338 10.7928L12.7328 10.7876L13.2801 14.9755C13.2846 15.0106 13.2871 15.0509 13.2871 15.0923C13.2871 15.5932 12.8985 15.9995 12.4193 15.9995C12.2726 15.9995 12.1344 15.9613 12.0137 15.8943L8.45287 14.0961C8.32067 14.0296 8.16594 13.9908 8.00219 13.9908C7.83845 13.9908 7.68371 14.0296 7.54501 14.0987L7.55152 14.0955V14.0966Z" fill="black"/>
</g>
<defs>
<clipPath id="clip0_6_564">
<rect width="16" height="16" fill="white"/>
</clipPath>
</defs>
</svg>
