<svg width="16" height="16" viewBox="0 0 16 16" fill="none" xmlns="http://www.w3.org/2000/svg">
<g clip-path="url(#clip0_6_262)">
<path d="M13.18 7.77977C12.878 7.29327 12.618 6.73277 12.4285 6.14027L12.4135 6.08627C12.047 4.48627 9.86001 1.59277 7.08001 1.59277V3.25927C8.35351 3.25927 9.55351 4.38577 10.2135 5.43927H10.147C10.147 5.43927 6.46701 6.91927 6.38701 6.96577H6.35351C6.01301 7.16527 5.78751 7.52927 5.78701 7.94577C5.78651 7.95727 5.78651 7.97077 5.78651 7.98427C5.78651 8.21877 5.85901 8.43627 5.98301 8.61577L5.98051 8.61227C6.02351 8.67477 6.06951 8.72927 6.12051 8.77877C6.21551 8.87477 6.32851 8.95327 6.45351 9.00927L6.46051 9.01227L8.27401 9.83227L3.72751 13.2058H2.94101V14.5393H6.88101V13.2058H6.52101L10.401 10.3323C10.607 10.1788 10.739 9.93577 10.739 9.66177C10.739 9.63027 10.737 9.59877 10.734 9.56827L10.7345 9.57227C10.6985 9.27427 10.5115 9.02727 10.253 8.90777L10.248 8.90577L9.66801 8.66577L11.1945 7.99927C11.2525 7.97477 11.2985 7.95227 11.3435 7.92827L11.3345 7.93277C11.6145 8.45277 11.908 8.91277 12.001 9.05927C12.1505 9.29227 12.408 9.44477 12.701 9.44577H16.001V7.77927L13.18 7.77977Z" fill="black"/>
<path d="M3.49301 11.9998V10.7463L5.73301 9.73277C5.26151 9.40527 4.93001 8.90527 4.82801 8.32577L4.82601 8.31277L-0.000488281 10.5063L0.666012 11.9998H3.49301Z" fill="black"/>
<path d="M15.1265 5.59327C15.659 5.28877 16.012 4.72427 16.012 4.07777C16.012 3.11677 15.233 2.33777 14.272 2.33777C13.311 2.33777 12.532 3.11677 12.532 4.07777C12.532 4.38977 12.614 4.68227 12.7575 4.93527L12.753 4.92677C13.0545 5.46327 13.62 5.82027 14.269 5.82027C14.584 5.82027 14.88 5.73627 15.1345 5.58927L15.1265 5.59327Z" fill="black"/>
</g>
<defs>
<clipPath id="clip0_6_262">
<rect width="16" height="16" fill="white"/>
</clipPath>
</defs>
</svg>
