<svg width="16" height="16" viewBox="0 0 16 16" fill="none" xmlns="http://www.w3.org/2000/svg">
<g clip-path="url(#clip0_6_404)">
<path d="M5.66651 10.6865C5.66651 11.607 4.92051 12.353 4.00001 12.353C3.07951 12.353 2.33351 11.607 2.33351 10.6865C2.33351 9.76598 3.07951 9.01998 4.00001 9.01998C4.92051 9.01998 5.66651 9.76598 5.66651 10.6865Z" fill="black"/>
<path d="M13.6665 10.6865C13.6665 11.607 12.9205 12.353 12 12.353C11.0795 12.353 10.3335 11.607 10.3335 10.6865C10.3335 9.76598 11.0795 9.01998 12 9.01998C12.9205 9.01998 13.6665 9.76598 13.6665 10.6865Z" fill="black"/>
<path d="M15.56 7.71348C15.42 6.89948 14.8035 6.26048 14.013 6.08898L14 6.08648L12 5.68648L10.6665 4.35298L4.66651 3.64648L2.15301 4.93998L-0.000488281 3.77998V5.29348L0.666012 5.65348V6.98698L-0.000488281 8.32048V10.3205H1.36601C1.57601 9.03948 2.67501 8.07398 3.99951 8.07398C5.32401 8.07398 6.42251 9.03948 6.63051 10.305L6.63251 10.3205H9.36601C9.57601 9.03948 10.675 8.07398 11.9995 8.07398C13.324 8.07398 14.4225 9.03948 14.6305 10.305L14.6325 10.3205H15.999L15.56 7.71348Z" fill="black"/>
</g>
<defs>
<clipPath id="clip0_6_404">
<rect width="16" height="16" fill="white"/>
</clipPath>
</defs>
</svg>
