<svg width="16" height="16" viewBox="0 0 16 16" fill="none" xmlns="http://www.w3.org/2000/svg">
<g clip-path="url(#clip0_6_1826)">
<path d="M8 16C12.418 16 16 12.418 16 8C16 3.582 12.418 0 8 0C3.582 0 0 3.582 0 8C0 12.418 3.582 16 8 16ZM6.66667 3.08H9.33333V8.32667H6.66667V3.08ZM8 9.86C8.84667 9.86 9.53333 10.5467 9.53333 11.3933C9.53333 12.24 8.84667 12.9267 8 12.9267C7.15333 12.9267 6.46667 12.24 6.46667 11.3933C6.46667 11.3913 6.46667 11.3893 6.46667 11.3867C6.46667 10.5433 7.15 9.86 7.99333 9.86C7.996 9.86 7.99733 9.86 8 9.86Z" fill="black"/>
</g>
<defs>
<clipPath id="clip0_6_1826">
<rect width="16" height="16" fill="white"/>
</clipPath>
</defs>
</svg>
