<svg width="16" height="16" viewBox="0 0 16 16" fill="none" xmlns="http://www.w3.org/2000/svg">
<g clip-path="url(#clip0_6_361)">
<path d="M14.0025 7.82288C13.906 8.20188 13.786 8.52988 13.6375 8.84188L13.6515 8.80888C13.484 9.16138 13.303 9.46288 13.0975 9.74488L13.109 9.72838C13.609 10.1694 13.9225 10.8114 13.9225 11.5269C13.9225 11.8999 13.837 12.2529 13.685 12.5679L13.691 12.5534C13.294 13.3809 12.463 13.9419 11.501 13.9419C11.126 13.9419 10.7715 13.8569 10.4545 13.7049L10.469 13.7114L6.78398 11.9779C5.98198 11.5929 5.43248 10.7969 5.40798 9.87038V9.86738C5.40348 9.81288 5.40048 9.74938 5.40048 9.68538C5.40048 9.62138 5.40298 9.55788 5.40848 9.49538L5.40798 9.50338C5.40798 9.43038 5.40798 9.36438 5.40798 9.29188C5.41698 9.23238 5.42848 9.18088 5.44348 9.13088L5.44148 9.13988C5.48548 8.98788 5.53248 8.86038 5.58798 8.73738L5.58048 8.75638C5.65498 8.60888 5.73148 8.48288 5.81748 8.36438L5.81198 8.37238L5.87148 8.29938C5.96248 8.18188 6.05998 8.07788 6.16698 7.98388L6.16948 7.98188C6.59148 7.61538 7.14648 7.39188 7.75348 7.39188C7.78048 7.39188 7.80698 7.39238 7.83398 7.39338H7.82998C7.83448 7.39338 7.83998 7.39338 7.84498 7.39338C8.21498 7.39338 8.56448 7.47888 8.87598 7.63138L8.86198 7.62538L9.97348 8.14788C9.55348 8.50188 9.00648 8.71738 8.40898 8.71738C8.39598 8.71738 8.38348 8.71738 8.37048 8.71688H8.37248H7.82998C7.41098 8.71938 7.04948 8.96438 6.87998 9.31938L6.87748 9.32588C6.81448 9.45638 6.77748 9.60988 6.77748 9.77188C6.77748 10.1094 6.93748 10.4099 7.18598 10.6009L7.18848 10.6029C7.54298 10.7054 7.94998 10.7654 8.37148 10.7684H8.37298C10.825 10.7489 12.805 8.75688 12.805 6.30238C12.805 4.54138 11.7855 3.01838 10.305 2.29138L10.2785 2.27988L6.60648 0.546383C5.98998 0.205383 5.25498 0.00488281 4.47348 0.00488281C2.00348 0.00488281 0.000976562 2.00738 0.000976562 4.47738C0.000976562 6.35038 1.15198 7.95438 2.78548 8.62038L2.81548 8.63138L3.47698 8.93588C3.42398 9.19388 3.39398 9.49038 3.39398 9.79438C3.39398 11.5674 4.42748 13.0994 5.92498 13.8204L5.95148 13.8319L9.62998 15.5654C10.1905 15.8384 10.8495 15.9979 11.5455 15.9979C13.322 15.9979 14.856 14.9589 15.573 13.4554L15.5845 13.4284C15.847 12.8764 16.0005 12.2294 16.0005 11.5459C16.0005 9.99888 15.214 8.63588 14.0195 7.83438L14.0035 7.82438L14.0025 7.82288ZM2.51048 3.55538C2.90848 2.72888 3.73848 2.16788 4.69998 2.16588C5.07248 2.16638 5.42598 2.25138 5.74048 2.40388L5.72598 2.39788L9.43098 4.13138C10.21 4.53238 10.737 5.32338 10.754 6.23988V6.24238L9.70848 5.74638C9.15298 5.47938 8.50048 5.32388 7.81198 5.32388C6.37398 5.32388 5.09448 6.00388 4.27748 7.05938L4.26998 7.06988L3.60848 6.77238C2.80798 6.36788 2.26848 5.55188 2.26848 4.60988C2.26848 4.22688 2.35748 3.86438 2.51648 3.54288L2.50998 3.55688L2.51048 3.55538Z" fill="black"/>
</g>
<defs>
<clipPath id="clip0_6_361">
<rect width="16" height="16" fill="white"/>
</clipPath>
</defs>
</svg>
