<svg width="16" height="16" viewBox="0 0 16 16" fill="none" xmlns="http://www.w3.org/2000/svg">
<g clip-path="url(#clip0_6_558)">
<path d="M3.37339 15.12C3.37339 15.42 3.39339 15.7135 3.43339 16H0.0668945C0.273395 14.0665 1.58689 12.4665 3.36689 11.8465C3.59339 11.953 3.84039 12.033 4.09339 12.093C3.63339 12.9995 3.37339 14.0335 3.37339 15.12Z" fill="black"/>
<path d="M7.17989 9.04C6.53989 9.3535 5.95339 9.76 5.44639 10.2535C5.24639 10.44 5.05989 10.647 4.88639 10.86C4.37989 10.84 3.91989 10.68 3.52639 10.4065C2.83989 9.94 2.38639 9.1465 2.38639 8.253C2.38639 6.8065 3.55989 5.6395 4.99989 5.6395C5.33989 5.6395 5.66639 5.706 5.95989 5.826C5.94639 5.906 5.94639 5.986 5.94639 6.0725C5.94639 7.2325 6.41989 8.279 7.17989 9.039V9.04Z" fill="black"/>
<path d="M8.53339 13.4465C8.53339 14.3465 8.69339 15.2065 8.97989 16H4.77339C4.73339 15.7135 4.70689 15.42 4.70689 15.12C4.70689 14.0265 5.03339 13.0065 5.59339 12.1535C5.69989 11.98 5.81989 11.82 5.95339 11.66C6.06689 11.52 6.19339 11.38 6.32689 11.2465C6.38039 11.2 6.42689 11.1465 6.48039 11.1C6.68689 10.92 6.90039 10.7465 7.12689 10.6C7.25339 10.5135 7.37339 10.44 7.50689 10.3665C7.82689 10.193 8.16039 10.0465 8.5204 9.94C8.5339 9.9465 8.54689 9.9535 8.56039 9.9535C8.79389 10.047 9.03389 10.12 9.28689 10.1735C9.08039 10.5935 8.91339 11.04 8.78689 11.5C8.72689 11.74 8.67339 11.98 8.63339 12.2265C8.58689 12.5 8.55989 12.773 8.53989 13.053C8.53339 13.1865 8.53339 13.3195 8.53339 13.4465Z" fill="black"/>
<path d="M12.9734 6.62C12.9734 6.62 12.9334 6.6335 12.9199 6.6465C12.0064 7.06 11.1934 7.6465 10.5264 8.373C10.3599 8.5465 10.2064 8.7265 10.0599 8.9195C9.65339 8.9195 9.2734 8.8195 8.9264 8.653C8.8399 8.6195 8.7529 8.573 8.6729 8.5195C8.5329 8.446 8.39939 8.346 8.27939 8.2395C7.66589 7.7195 7.27939 6.946 7.27939 6.073C7.27939 6.0195 7.27939 5.9595 7.28589 5.9065C7.29939 5.6465 7.35239 5.393 7.43239 5.153C7.81239 4.033 8.87889 3.2265 10.1324 3.2265C10.6124 3.2265 11.0659 3.3465 11.4589 3.56C11.5389 4.76 12.0924 5.8265 12.9324 6.58C12.9324 6.58 12.9599 6.6135 12.9734 6.62Z" fill="black"/>
<path d="M16.0334 7.78V16H10.4269C10.1004 15.2935 9.90689 14.52 9.87339 13.7C9.86689 13.62 9.86689 13.5335 9.86689 13.4465C9.86689 13.16 9.88689 12.88 9.92689 12.6065C10.0469 11.733 10.3469 10.913 10.7934 10.2C10.8869 10.0535 10.9799 9.92 11.0799 9.78C11.1934 9.6265 11.3134 9.48 11.4399 9.34C11.4799 9.2935 11.5264 9.2465 11.5734 9.2C11.7534 9.0135 11.9469 8.8335 12.1534 8.6735C12.4199 8.4535 12.7069 8.26 13.0069 8.0935C13.3269 7.9135 13.6604 7.767 14.0069 7.647C14.1534 7.5935 14.3069 7.547 14.4534 7.507C14.4534 7.5135 14.4599 7.5135 14.4669 7.507C14.9404 7.687 15.4604 7.7805 16.0004 7.7805L16.0334 7.78Z" fill="black"/>
<path d="M4.09339 12.093C3.63339 12.9995 3.37339 14.0335 3.37339 15.12C3.37339 15.42 3.39339 15.7135 3.43339 16H0.0668945C0.273395 14.0665 1.58689 12.4665 3.36689 11.8465C3.59339 11.953 3.84039 12.033 4.09339 12.093Z" fill="black"/>
<path d="M2.38639 8.253C2.38639 6.8065 3.55989 5.6395 4.99989 5.6395C5.33989 5.6395 5.66639 5.706 5.95989 5.826C5.94639 5.906 5.94639 5.986 5.94639 6.0725C5.94639 7.2325 6.41989 8.28 7.17989 9.04C6.53989 9.3535 5.95339 9.76 5.44639 10.2535C5.24639 10.44 5.05989 10.647 4.88639 10.86C4.37989 10.84 3.91989 10.68 3.52639 10.4065C2.83989 9.94 2.38639 9.1465 2.38639 8.253Z" fill="black"/>
<path d="M8.53989 13.06C8.55989 12.7735 8.58639 12.5 8.63339 12.2265C8.67339 11.98 8.72689 11.74 8.78689 11.5C8.91339 11.04 9.08039 10.5935 9.28689 10.1735C9.03389 10.12 8.79389 10.047 8.56039 9.9535C8.54689 9.9535 8.5339 9.9465 8.5204 9.94C8.16039 10.0465 7.82689 10.193 7.50689 10.3665C7.37339 10.44 7.25339 10.5135 7.12689 10.6C6.90039 10.7465 6.68689 10.92 6.48039 11.1C6.42689 11.1465 6.38039 11.2 6.32689 11.2465C6.19339 11.38 6.06689 11.52 5.95339 11.66C5.81989 11.82 5.69989 11.98 5.59339 12.1535C5.03339 13.0065 4.70689 14.0265 4.70689 15.12C4.70689 15.42 4.73339 15.7135 4.77339 16H8.97989C8.69339 15.2065 8.53339 14.3465 8.53339 13.4465C8.53339 13.32 8.53339 13.1865 8.53989 13.06Z" fill="black"/>
<path d="M8.27939 8.2395C7.66589 7.7195 7.27939 6.946 7.27939 6.073C7.27939 6.0195 7.27939 5.9595 7.28589 5.9065C7.29939 5.6465 7.35239 5.393 7.43239 5.153C7.81239 4.033 8.87889 3.2265 10.1324 3.2265C10.6124 3.2265 11.0659 3.3465 11.4589 3.56C11.5389 4.76 12.0924 5.8265 12.9324 6.58C12.9324 6.58 12.9599 6.6135 12.9734 6.62C12.9534 6.62 12.9334 6.6335 12.9199 6.6465C12.0064 7.06 11.1934 7.6465 10.5264 8.373C10.3599 8.5465 10.2064 8.7265 10.0599 8.9195C9.65339 8.9195 9.2734 8.8195 8.9264 8.653C8.8399 8.6195 8.7529 8.573 8.6729 8.5195C8.5329 8.446 8.39939 8.346 8.27939 8.2395Z" fill="black"/>
<path d="M16.0334 0V6.4465H15.9999C15.4934 6.4465 15.0134 6.3265 14.5864 6.12C14.4929 6.0735 14.3999 6.0265 14.3129 5.9665C14.0329 5.8 13.7864 5.5865 13.5729 5.34C13.1994 4.9135 12.9394 4.3935 12.8394 3.82C12.7994 3.6265 12.7794 3.4265 12.7794 3.2265C12.7794 3.1 12.7859 2.973 12.7994 2.8465C12.9794 1.2465 14.3459 0 15.9994 0H16.0334Z" fill="black"/>
<path d="M16.0004 7.7805L16.0334 7.78V16H10.4269C10.1004 15.2935 9.90689 14.52 9.87339 13.7C9.86689 13.62 9.86689 13.5335 9.86689 13.4465C9.86689 13.16 9.88689 12.88 9.92689 12.6065C10.0469 11.733 10.3469 10.913 10.7934 10.2C10.8869 10.0535 10.9799 9.92 11.0799 9.78C11.1934 9.6265 11.3134 9.48 11.4399 9.34C11.4799 9.2935 11.5264 9.2465 11.5734 9.2C11.7534 9.0135 11.9469 8.8335 12.1534 8.6735C12.4199 8.4535 12.7069 8.26 13.0069 8.0935C13.3269 7.9135 13.6604 7.767 14.0069 7.647C14.1534 7.5935 14.3069 7.547 14.4534 7.507C14.4534 7.5135 14.4599 7.5135 14.4669 7.507C14.9404 7.687 15.4604 7.7805 16.0004 7.7805Z" fill="black"/>
</g>
<defs>
<clipPath id="clip0_6_558">
<rect width="16" height="16" fill="white"/>
</clipPath>
</defs>
</svg>
