<svg width="16" height="16" viewBox="0 0 16 16" fill="none" xmlns="http://www.w3.org/2000/svg">
<g clip-path="url(#clip0_6_235)">
<path d="M8 0C3.5815 0 0 3.5815 0 8C0 12.4185 3.5815 16 8 16C12.4185 16 16 12.4185 16 8C16 3.5815 12.4185 0 8 0ZM11.7265 8.3265C11.6975 8.6765 11.624 9.0005 11.5115 9.3055L11.52 9.28C11.3965 9.611 11.2435 9.897 11.0585 10.1585L11.0665 10.1465L13.333 11.713C12.673 12.6425 11.7955 13.3765 10.773 13.85L10.733 13.8665L9.5795 11.393C9.119 11.613 8.579 11.7415 8.009 11.7415C7.8905 11.7415 7.7735 11.736 7.6585 11.725L7.6735 11.726L7.4335 14.4525C6.825 14.3915 6.267 14.262 5.7385 14.0705L5.787 14.086C5.2145 13.8815 4.719 13.627 4.2635 13.3175L4.287 13.3325L5.8535 11.066C5.319 10.687 4.895 10.186 4.6165 9.602L4.6065 9.579L2.133 10.7325C1.746 9.9275 1.52 8.982 1.52 7.984C1.52 7.778 1.5295 7.5745 1.5485 7.3735L1.5465 7.399L4.273 7.639C4.302 7.289 4.3755 6.965 4.488 6.66L4.4795 6.6855C4.6055 6.3545 4.758 6.0685 4.9415 5.806L4.933 5.819L2.6665 4.2855C3.3265 3.356 4.204 2.622 5.2265 2.1485L5.2665 2.132L6.42 4.6055C6.8805 4.3855 7.4205 4.257 7.9905 4.257C8.109 4.257 8.226 4.2625 8.341 4.2735L8.326 4.2725L8.566 1.546C9.1745 1.607 9.7325 1.7365 10.261 1.928L10.2125 1.9125C10.785 2.117 11.2805 2.3715 11.736 2.6805L11.7125 2.6655L10.146 4.932C10.6805 5.311 11.1045 5.812 11.383 6.396L11.393 6.419L13.8665 5.2655C14.252 6.069 14.477 7.0125 14.477 8.0085C14.477 8.2045 14.4685 8.3985 14.451 8.59L14.453 8.565L11.7265 8.3265Z" fill="black"/>
<path d="M9.6335 7.0065L8.227 7.52L7.7135 6.1135C7.66 5.9675 7.522 5.865 7.36 5.865C7.1525 5.865 6.9845 6.033 6.9845 6.2405C6.9845 6.286 6.9925 6.3295 7.0075 6.37L7.0065 6.3675L7.52 7.774L6.1135 8.2875C5.9675 8.341 5.865 8.479 5.865 8.641C5.865 8.8485 6.033 9.0165 6.2405 9.0165C6.286 9.0165 6.3295 9.0085 6.37 8.9935L6.3675 8.9945L7.774 8.481L8.2875 9.8875C8.341 10.0335 8.479 10.136 8.641 10.136C8.8485 10.136 9.0165 9.968 9.0165 9.7605C9.0165 9.715 9.0085 9.6715 8.9935 9.631L8.9945 9.6335L8.481 8.227L9.8875 7.7135C10.0335 7.66 10.136 7.522 10.136 7.36C10.136 7.1525 9.968 6.9845 9.7605 6.9845C9.715 6.9845 9.6715 6.9925 9.631 7.0075L9.6335 7.0065Z" fill="black"/>
</g>
<defs>
<clipPath id="clip0_6_235">
<rect width="16" height="16" fill="white"/>
</clipPath>
</defs>
</svg>
