<svg width="16" height="16" viewBox="0 0 16 16" fill="none" xmlns="http://www.w3.org/2000/svg">
<g clip-path="url(#clip0_6_316)">
<path d="M8.18262 3.27202C8.18462 3.27202 8.18662 3.27202 8.18912 3.27202C9.30912 3.27202 10.3356 3.67052 11.1351 4.33302L11.1276 4.32702L13.4551 1.99952C12.0541 0.757523 10.2001 -0.000976562 8.16862 -0.000976562C5.21012 -0.000976562 2.62762 1.60802 1.24812 3.99852L1.22762 4.03702L3.80012 6.24952C4.50862 4.49052 6.20112 3.27202 8.17812 3.27202C8.17962 3.27202 8.18112 3.27202 8.18262 3.27202Z" fill="black"/>
<path d="M3.45512 7.99952C3.45512 7.99852 3.45512 7.99802 3.45512 7.99702C3.45512 7.40402 3.56312 6.83602 3.76112 6.31202L3.75012 6.34502L3.80012 6.24952L1.22762 4.03702C1.16012 4.15702 1.09262 4.28752 1.03262 4.40002C0.496617 5.44902 0.182617 6.68752 0.182617 8.00002C0.182617 9.31252 0.496617 10.551 1.05362 11.6455L1.03262 11.6C1.04762 11.6325 1.06762 11.6625 1.08262 11.695L3.69262 9.44502C3.54512 9.01402 3.45812 8.51752 3.45512 8.00152V7.99952Z" fill="black"/>
<path d="M15.8176 7.99952C15.8101 7.48002 15.7451 6.97902 15.6281 6.49852L15.6376 6.54452H8.18262V9.63702H12.4726C12.3306 10.369 11.9856 11.004 11.4996 11.5L13.7076 13.707C15.0001 12.3445 15.8176 10.4195 15.8176 7.99952Z" fill="black"/>
<path d="M11.4996 11.5C11.3061 11.699 11.0911 11.874 10.8571 12.0235L10.8426 12.032L10.7901 12.062C10.0761 12.484 9.21612 12.733 8.29862 12.733C8.25962 12.733 8.22062 12.7325 8.18212 12.7315H8.18812C8.18462 12.7315 8.18012 12.7315 8.17562 12.7315C6.15862 12.7315 4.43712 11.4665 3.76162 9.68652L3.75062 9.65402C3.72812 9.58902 3.70812 9.52402 3.68812 9.45652L1.07812 11.7065C2.43612 14.277 5.09212 15.999 8.15062 15.999C8.16212 15.999 8.17362 15.999 8.18512 15.999H8.18312C8.19962 15.999 8.21862 15.999 8.23812 15.999C10.0616 15.999 11.7361 15.3605 13.0501 14.295L13.0356 14.306C13.1581 14.2085 13.2856 14.111 13.3956 14.0035C13.5056 13.896 13.6031 13.8035 13.7031 13.701L11.4996 11.5Z" fill="black"/>
</g>
<defs>
<clipPath id="clip0_6_316">
<rect width="16" height="16" fill="white"/>
</clipPath>
</defs>
</svg>
