<svg width="16" height="16" viewBox="0 0 16 16" fill="none" xmlns="http://www.w3.org/2000/svg">
<g clip-path="url(#clip0_6_446)">
<path d="M4.2025 10.5776C4.8995 9.81959 5.3265 8.80409 5.3265 7.68859C5.3265 7.60559 5.324 7.52309 5.3195 7.44159L5.32 7.45309C6.265 5.98709 6.8265 4.19609 6.8265 2.27459C6.8265 2.15209 6.824 2.02959 6.8195 1.90809L6.82 1.92559C6.665 -0.844406 3.2825 1.07309 1.945 3.04809C0.825 4.64159 0.114 6.59559 0.001 8.70809L0 8.73559C0.592 6.01359 2.3995 3.80659 4.812 2.67809L4.865 2.65559C4.866 2.69809 4.866 2.74859 4.866 2.79859C4.866 4.26409 4.4885 5.64109 3.8255 6.83809L3.8475 6.79509C3.056 6.81059 2.3245 7.05209 1.71 7.45709L1.725 7.44759C1.432 7.63259 1.2405 7.95459 1.2405 8.32109C1.2405 8.47109 1.2725 8.61309 1.33 8.74159L1.3275 8.73509L0.25 9.66509C0.1705 9.73509 0.121 9.83659 0.121 9.95009C0.121 10.1596 0.2905 10.3291 0.5 10.3291C0.596 10.3291 0.6835 10.2936 0.7505 10.2346L1.75 9.36009L2.23 10.0126L1.215 10.8826C1.1345 10.9516 1.0835 11.0536 1.0835 11.1676C1.0835 11.3746 1.2515 11.5426 1.4585 11.5426C1.4605 11.5426 1.463 11.5426 1.465 11.5426C1.467 11.5426 1.469 11.5426 1.4715 11.5426C1.565 11.5426 1.65 11.5076 1.715 11.4496L2.7145 10.6051C2.9015 10.7916 3.16 10.9066 3.445 10.9066C3.7435 10.9066 4.0125 10.7801 4.2015 10.5781L4.2025 10.5776Z" fill="black"/>
<path d="M14.2975 11.7501L13.065 11.3651C13.0835 11.2916 13.094 11.2076 13.094 11.1211C13.094 10.6096 12.7265 10.1841 12.2415 10.0936L12.235 10.0926C11.9995 10.0471 11.729 10.0206 11.4525 10.0206C10.5285 10.0206 9.6725 10.3126 8.972 10.8091L8.9855 10.8001C8.9705 10.8001 8.953 10.8001 8.935 10.8001C6.9085 10.8001 5.027 11.4226 3.472 12.4866L3.505 12.4651C1.25 14.0501 4.6575 15.9026 7.0425 16.0001C7.2025 16.0086 7.39 16.0131 7.579 16.0131C9.5305 16.0131 11.363 15.5031 12.95 14.6091L12.895 14.6376C12.0155 14.9666 10.999 15.1566 9.938 15.1566C8.16 15.1566 6.507 14.6221 5.131 13.7051L5.163 13.7251C6.31 12.9696 7.6965 12.4856 9.1895 12.3936L9.213 12.3926C9.627 13.0221 10.196 13.5196 10.866 13.8371L10.8905 13.8476C11.0225 13.9131 11.1775 13.9516 11.342 13.9516C11.695 13.9516 12.007 13.7741 12.193 13.5036L12.1955 13.5001L13.558 13.9276C13.591 13.9386 13.6285 13.9451 13.6675 13.9451C13.6685 13.9451 13.6695 13.9451 13.6705 13.9451C13.8775 13.9446 14.045 13.7771 14.045 13.5701C14.045 13.4036 13.9365 13.2621 13.786 13.2136L13.7835 13.2126L12.501 12.8126L12.7985 12.0626L14.076 12.4651C14.1095 12.4746 14.1485 12.4801 14.1885 12.4801C14.391 12.4741 14.553 12.3086 14.553 12.1051C14.553 11.9411 14.4475 11.8016 14.301 11.7506L14.2985 11.7496L14.2975 11.7501Z" fill="black"/>
<path d="M15.5 5.34759C14.1175 2.11259 11.77 0.627594 11.77 0.627594C13.3475 2.19859 14.324 4.37209 14.324 6.77359C14.324 7.21059 14.2915 7.64009 14.2295 8.06009L14.2355 8.01259C13.0075 7.23959 12.0175 6.19359 11.3325 4.95559L11.3105 4.91259C11.69 4.30759 11.9155 3.57209 11.9155 2.78409C11.9155 2.78109 11.9155 2.77809 11.9155 2.77459C11.9155 2.77309 11.9155 2.77159 11.9155 2.76909C11.9155 2.25709 11.543 1.83209 11.054 1.75059L11.048 1.74959L10.858 0.324594C10.8325 0.138094 10.6745 -0.00390625 10.483 -0.00390625C10.274 -0.00390625 10.1045 0.165594 10.1045 0.374594C10.1045 0.392094 10.1055 0.409594 10.108 0.426594V0.424594L10.2955 1.74959L9.5005 1.80459L9.3205 0.482094C9.295 0.295594 9.137 0.153594 8.9455 0.153594C8.7365 0.153594 8.567 0.323094 8.567 0.532094C8.567 0.549594 8.568 0.567094 8.5705 0.584094V0.582094L8.7505 1.86209C8.2715 1.96409 7.9175 2.38309 7.9175 2.88509C7.9175 2.98059 7.9305 3.07359 7.9545 3.16159L7.953 3.15409C8.2575 4.28809 8.984 5.21609 9.95 5.77809L9.9705 5.78909C10.814 7.58059 12.1315 9.03109 13.762 10.0146L13.8055 10.0391C16.198 11.4216 16.423 7.54159 15.5005 5.34659L15.5 5.34759Z" fill="black"/>
</g>
<defs>
<clipPath id="clip0_6_446">
<rect width="16" height="16" fill="white"/>
</clipPath>
</defs>
</svg>
