<svg width="16" height="16" viewBox="0 0 16 16" fill="none" xmlns="http://www.w3.org/2000/svg">
<g clip-path="url(#clip0_6_222)">
<path d="M4.13992 4.18245C4.63392 3.90545 4.96242 3.38495 4.96242 2.78795C4.96242 1.90795 4.24892 1.19445 3.36892 1.19445C2.48892 1.19445 1.77542 1.90795 1.77542 2.78795C1.77542 3.08845 1.85892 3.36995 2.00342 3.60945L1.99942 3.60245C2.28042 4.07295 2.78692 4.38345 3.36642 4.38345C3.65042 4.38345 3.91692 4.30895 4.14742 4.17845L4.13992 4.18245Z" fill="black"/>
<path d="M4.96642 6.08245L1.95992 7.81595L2.85342 9.36945L8.95342 5.83595L8.06692 4.29595C7.75192 3.75695 7.17592 3.40045 6.51692 3.40045C5.52892 3.40045 4.72792 4.20145 4.72792 5.18945C4.72792 5.51845 4.81642 5.82645 4.97142 6.09145L4.96642 6.08245Z" fill="black"/>
<path d="M13.8534 6.72895L11.8534 4.49545L11.3134 4.79545L9.47342 1.60195L10.0199 1.28845L9.39992 0.221953L8.85342 0.535453L8.54692 0.00195312L7.48042 0.621953L11.7204 7.96195L13.8534 6.72895Z" fill="black"/>
<path d="M14.1799 8.21545L8.17992 11.6755L7.33342 10.2155L8.89992 9.33545C9.44292 9.02195 9.80242 8.44445 9.80242 7.78295C9.80242 7.45645 9.71492 7.15045 9.56192 6.88695L9.56642 6.89545L6.45992 8.66895C5.91542 8.98195 5.55442 9.56045 5.55442 10.2235C5.55442 10.552 5.64292 10.86 5.79792 11.1245L5.79342 11.116L6.66692 12.5695L4.07342 14.056C3.90492 14.156 3.70192 14.215 3.48542 14.215C3.05492 14.215 2.67892 13.982 2.47642 13.635L2.47342 13.6295L0.919922 14.523C1.44342 15.412 2.39542 15.9995 3.48492 15.9995C4.03042 15.9995 4.54142 15.8525 4.98042 15.5955L4.96642 15.603L15.0799 9.76945L14.1799 8.21545Z" fill="black"/>
</g>
<defs>
<clipPath id="clip0_6_222">
<rect width="16" height="16" fill="white"/>
</clipPath>
</defs>
</svg>
