<svg width="16" height="16" viewBox="0 0 16 16" fill="none" xmlns="http://www.w3.org/2000/svg">
<g clip-path="url(#clip0_6_407)">
<path d="M7.73246 0H8.32746C8.37746 0 8.42746 0.025 8.47746 0.03C8.82996 0.075 9.18746 0.09 9.53246 0.1625C12.395 0.7725 14.3775 2.4425 15.5 5.1475C15.595 5.3825 15.55 5.45 15.2925 5.44C15.0225 5.433 14.764 5.4055 14.5125 5.358L14.5425 5.3625C12.396 4.993 10.6455 3.5805 9.81096 1.6755L9.79496 1.635C9.75946 1.5635 9.69846 1.5095 9.62446 1.483L9.62246 1.4825C9.31496 1.3975 8.99996 1.315 8.69496 1.25C8.50446 1.203 8.28546 1.1755 8.05996 1.1755C7.76796 1.1755 7.48696 1.221 7.22296 1.305L7.24246 1.2995C6.81196 1.4425 6.50646 1.842 6.50646 2.3125C6.50646 2.352 6.50846 2.391 6.51296 2.4295L6.51246 2.4245C6.54096 2.787 6.67046 3.1145 6.87346 3.384L6.86996 3.3795C7.18496 3.817 7.55896 4.188 7.98546 4.4895L7.99996 4.4995C9.58596 5.662 11.453 6.552 13.4735 7.054L13.5825 7.077C14.29 7.252 15.015 7.352 15.7325 7.4795C15.85 7.502 15.965 7.5395 15.9825 7.657C15.997 7.7705 16.005 7.902 16.005 8.0355C16.005 8.0985 16.003 8.161 15.9995 8.223L16 8.2145C15.996 8.314 15.915 8.393 15.815 8.3945C15.63 8.417 15.445 8.4445 15.2575 8.472C13.195 8.739 11.329 9.3725 9.65346 10.3075L9.73246 10.267C8.76496 10.7905 7.93446 11.419 7.21146 12.153L7.20996 12.1545C6.94346 12.421 6.73046 12.7415 6.58896 13.098L6.58246 13.117C6.33246 13.842 6.56496 14.5445 7.40996 14.7395C7.56446 14.78 7.74196 14.803 7.92496 14.803C8.00046 14.803 8.07546 14.799 8.14896 14.7915L8.13996 14.7925C8.61246 14.7325 9.07996 14.625 9.55246 14.5425C9.67046 14.525 9.76546 14.4435 9.80196 14.3345L9.80246 14.3325C10.5165 12.732 11.833 11.5085 13.456 10.9335L13.5 10.92C14.0315 10.7125 14.6465 10.5915 15.2895 10.59C15.5245 10.59 15.565 10.6525 15.475 10.865C14.25 13.8125 12.0425 15.5 8.86746 15.935C8.67746 15.96 8.48496 15.9775 8.29496 16H7.79496C7.50996 15.9675 7.22496 15.9425 6.94246 15.9025C5.17496 15.6665 3.62496 14.8745 2.44146 13.7115L2.44246 13.7125C2.06246 13.3555 1.78296 12.8955 1.64896 12.377L1.64496 12.3575C1.61396 12.2565 1.59596 12.141 1.59596 12.0205C1.59596 11.7335 1.69846 11.47 1.86896 11.2655L1.86746 11.2675C2.08496 11.005 2.32096 10.7725 2.57796 10.565L2.58746 10.5575C3.31496 9.9825 4.17496 9.645 5.01746 9.2825C5.93596 8.8765 7.06796 8.4715 8.23246 8.1415L8.42496 8.095C8.48046 8.069 8.52846 8.0375 8.57046 7.9995C8.52696 7.966 8.47696 7.9365 8.42496 7.912L8.41996 7.91C7.89996 7.7425 7.37496 7.5925 6.85746 7.41C5.44396 6.936 4.23796 6.399 3.09346 5.7645L3.20746 5.8225C2.67796 5.5495 2.23446 5.179 1.88646 4.7315L1.87996 4.7225C1.71646 4.5185 1.61746 4.256 1.61746 3.971C1.61746 3.91 1.62196 3.85 1.63096 3.791L1.62996 3.7975C1.70546 3.2915 1.92746 2.847 2.25146 2.4985L2.24996 2.5C3.49746 1.1665 5.20096 0.2735 7.11096 0.0705L7.14496 0.0675C7.33996 0.0425 7.53496 0.0225 7.73246 0Z" fill="black"/>
<path d="M0.0299609 7.7025C0.0624609 7.42 0.0899609 7.135 0.129961 6.8525C0.220461 6.2045 0.378461 5.6195 0.600461 5.0665L0.582461 5.1175C0.602461 5.065 0.667461 5.03 0.712461 4.99C0.737461 5.0315 0.757961 5.08 0.771461 5.131L0.772461 5.135C0.818461 5.514 0.992461 5.846 1.24946 6.092C1.73846 6.579 2.31946 6.9745 2.96446 7.249L2.99996 7.2625C3.49996 7.49 4.02746 7.6875 4.54496 7.9L4.74996 8C4.62746 8.0475 4.54996 8.08 4.46996 8.1075C3.42096 8.436 2.50846 8.899 1.69146 9.487L1.71996 9.4675C1.47996 9.658 1.26696 9.863 1.07496 10.0865L1.06996 10.0925C0.891961 10.294 0.774461 10.5525 0.747961 10.8375L0.747461 10.8425C0.729961 10.897 0.707461 10.944 0.678461 10.987L0.679961 10.985C0.642461 10.9425 0.579961 10.9075 0.564961 10.8575C0.434961 10.42 0.289961 9.9825 0.192461 9.5375C0.114961 9.1875 0.0974609 8.825 0.0524609 8.47C0.0524609 8.4125 0.0324609 8.3575 0.0224609 8.3025L0.0299609 7.7025Z" fill="black"/>
</g>
<defs>
<clipPath id="clip0_6_407">
<rect width="16" height="16" fill="white"/>
</clipPath>
</defs>
</svg>
