<svg width="16" height="16" viewBox="0 0 16 16" fill="none" xmlns="http://www.w3.org/2000/svg">
<g clip-path="url(#clip0_6_522)">
<path d="M9.96646 3.61302L11.4 1.68652V4.14002L12.3535 4.35352L12.8535 3.92702C12.3735 1.69352 10.4 0.0205236 8.03346 0.000523567L9.08696 3.61402H9.96696L9.96646 3.61302Z" fill="black"/>
<path d="M4.59996 4.13952V1.68602L6.03346 3.61252H6.91346L8.03346 -0.000976562C8.03346 -0.000976562 8.01346 -0.000976562 7.99996 -0.000976562C5.61346 -0.000976562 3.62646 1.67902 3.15346 3.92552L3.65346 4.35202L4.60696 4.13852L4.59996 4.13952Z" fill="black"/>
<path d="M11 6.56602C11.2335 7.23952 11.3665 7.99252 11.3665 8.79952C11.3665 11.5395 9.85996 13.7595 7.99296 13.7595C6.12596 13.7595 4.61946 11.5395 4.61946 8.79952C4.61946 8.00602 4.74596 7.25952 4.97296 6.59302C4.07296 6.70652 3.39946 6.83952 3.03296 6.91302V13.5195C7.52646 17.706 10.2995 15.813 12.953 13.5195V6.91302C12.293 6.75952 11.6395 6.64652 10.993 6.56652L11 6.56602Z" fill="black"/>
</g>
<defs>
<clipPath id="clip0_6_522">
<rect width="16" height="16" fill="white"/>
</clipPath>
</defs>
</svg>
