<svg width="16" height="16" viewBox="0 0 16 16" fill="none" xmlns="http://www.w3.org/2000/svg">
<g clip-path="url(#clip0_6_486)">
<path d="M0.170989 10.737L1.55849 12.1245C1.85399 11.829 2.26249 11.646 2.71349 11.646C3.61549 11.646 4.34699 12.3775 4.34699 13.2795C4.34699 13.7305 4.16399 14.139 3.86849 14.4345L5.24349 15.822C5.35249 15.932 5.50399 16 5.67099 16C5.83799 16 5.98949 15.932 6.09849 15.822L8.32349 13.6095L2.38349 7.6695L0.170989 9.882C0.060989 9.991 -0.0070109 10.1425 -0.00701092 10.3095C-0.00701093 10.4765 0.0609889 10.628 0.170989 10.737Z" fill="black"/>
<path d="M9.14849 12.7845L15.816 6.117C15.9295 6.007 16.0005 5.8535 16.0005 5.6835C16.0005 5.5135 15.93 5.3595 15.8165 5.25L14.429 3.875C14.1335 4.1705 13.725 4.3535 13.274 4.3535C12.372 4.3535 11.6405 3.622 11.6405 2.72C11.6405 2.269 11.8235 1.8605 12.119 1.565L10.7315 0.1775C10.6225 0.0675006 10.471 -0.000500209 10.304 -0.000500223C10.137 -0.000500238 9.98549 0.0675005 9.87649 0.1775L3.20899 6.845L9.14849 12.7845Z" fill="black"/>
</g>
<defs>
<clipPath id="clip0_6_486">
<rect width="16" height="16" fill="white"/>
</clipPath>
</defs>
</svg>
