<svg width="16" height="16" viewBox="0 0 16 16" fill="none" xmlns="http://www.w3.org/2000/svg">
<g clip-path="url(#clip0_6_553)">
<path d="M8.00009 16C7.98309 16 7.96259 16.0005 7.94259 16.0005C6.24409 16.0005 4.68959 15.384 3.49059 14.362L3.50009 14.37C2.09659 13.188 1.16959 11.48 1.02409 9.5535L1.02259 9.53C1.01059 9.3735 1.00359 9.1915 1.00359 9.0075C1.00359 8.5505 1.04609 8.1035 1.12709 7.67L1.12009 7.715C1.33909 6.566 1.81209 5.553 2.47909 4.6995L2.46759 4.715C2.57259 4.5775 2.57259 4.5775 2.65009 4.74C2.80509 5.0625 2.95759 5.3875 3.11259 5.7125C3.12409 5.7335 3.13109 5.7585 3.13109 5.785C3.13109 5.821 3.11859 5.8545 3.09759 5.8805C2.71759 6.4685 2.43409 7.1565 2.28859 7.8955L2.28259 7.9325C2.21859 8.2485 2.18209 8.612 2.18209 8.984C2.18209 9.142 2.18859 9.298 2.20159 9.453L2.20009 9.433C2.38759 11.832 4.00109 13.81 6.18659 14.531L6.22759 14.543C6.28009 14.5605 6.31759 14.5705 6.33009 14.503C6.45359 14.0155 6.52959 13.4535 6.54009 12.875V12.868C6.51809 12.1155 6.32059 11.4135 5.98809 10.7955L6.00009 10.8205C5.65659 10.185 5.28459 9.6375 4.86409 9.1315L4.87759 9.148C4.85559 9.128 4.84159 9.0995 4.84159 9.068C4.84159 9.0455 4.84859 9.025 4.86009 9.0075C5.70842 7.46917 6.55342 5.93217 7.39509 4.3955C7.58009 4.0555 7.76509 3.713 7.95259 3.373C7.96759 3.348 7.97009 3.3055 8.00259 3.303C8.03509 3.3005 8.04759 3.3455 8.06259 3.3755C8.78092 4.6805 9.49759 5.9855 10.2126 7.2905C10.5193 7.85217 10.8276 8.413 11.1376 8.973C11.1571 8.998 11.1691 9.03 11.1691 9.0645C11.1691 9.1085 11.1501 9.1475 11.1206 9.175C10.6431 9.7355 10.2266 10.3705 9.89409 11.0545L9.87059 11.1075C9.61559 11.6445 9.46709 12.2745 9.46709 12.9395C9.46709 13.049 9.47109 13.157 9.47909 13.2645L9.47809 13.25C9.51959 13.713 9.58759 14.1315 9.68259 14.54L9.67059 14.4775C9.68559 14.545 9.70559 14.5625 9.77559 14.5375C11.5686 13.9585 12.9546 12.5775 13.5291 10.8285L13.5406 10.7875C13.6666 10.421 13.7551 9.996 13.7896 9.5555L13.7906 9.5375C13.8051 9.3875 13.8131 9.2135 13.8131 9.0375C13.8131 8.8615 13.8051 8.6875 13.7886 8.5155L13.7901 8.5375C13.7161 7.5555 13.4046 6.66 12.9136 5.8895L12.9276 5.9125C12.8996 5.876 12.8831 5.8295 12.8831 5.779C12.8831 5.746 12.8901 5.7145 12.9031 5.6865L12.9026 5.688C13.0501 5.328 13.1876 4.9655 13.3301 4.603C13.3701 4.503 13.3726 4.503 13.4401 4.5855C13.8166 5.0485 14.1421 5.576 14.3946 6.1435L14.4126 6.188C14.6861 6.793 14.8786 7.495 14.9526 8.232L14.9551 8.2605C14.9781 8.4745 14.9911 8.7225 14.9911 8.9735C14.9911 9.4395 14.9461 9.8945 14.8606 10.3355L14.8681 10.291C14.3786 12.855 12.5446 14.895 10.1426 15.672L10.0931 15.686C9.48759 15.886 8.79059 16.0015 8.06659 16.0015C8.04359 16.0015 8.02009 16.0015 7.99709 16.001H8.00059L8.00009 16ZM8.00009 11.165C9.20909 11.1645 10.1891 10.184 10.1891 8.975C10.1891 7.766 9.20859 6.785 7.99909 6.785C6.78959 6.785 5.80909 7.7655 5.80909 8.975C5.80909 8.996 5.80959 9.017 5.81009 9.038V9.035C5.83959 10.2175 6.80509 11.165 7.99209 11.165C7.99509 11.165 7.99709 11.165 8.00009 11.165Z" fill="black"/>
<path d="M10.6751 13.91C10.6126 13.56 10.5426 13.2225 10.4976 12.88C10.4491 12.603 10.4216 12.284 10.4216 11.9585C10.4216 11.922 10.4221 11.886 10.4226 11.8495V11.855C10.4456 11.3395 10.4956 10.858 10.5721 10.3855L10.5626 10.4575C10.5761 10.387 10.5866 10.3015 10.5921 10.214L10.5926 10.2075C10.6411 9.996 10.7451 9.8135 10.8876 9.67C11.0126 9.5 11.1376 9.335 11.2751 9.17C11.2951 9.1465 11.3071 9.116 11.3071 9.0825C11.3071 9.049 11.2951 9.0185 11.2746 8.995L11.0246 8.535C11.0041 8.4995 10.9921 8.457 10.9921 8.4115C10.9921 8.3895 10.9951 8.3685 11.0001 8.3485L10.9996 8.35C11.1621 7.7325 11.3246 7.115 11.4996 6.505C11.6746 5.895 11.8546 5.3375 12.0296 4.755C12.2271 4.1075 12.4396 3.4625 12.6446 2.8175C12.9296 1.9275 13.2221 1.0425 13.5321 0.1625C13.5426 0.112 13.5871 0.075 13.6396 0.075C13.6411 0.075 13.6431 0.075 13.6446 0.075C14.1071 0.03 14.5621 0.03 15.0171 0C15.0771 0 15.0971 0 15.0696 0.0725C14.9396 0.3925 14.7871 0.7025 14.6471 1.0175C14.3621 1.67 14.0721 2.3175 13.7946 2.9725C13.5563 3.5325 13.3238 4.095 13.0971 4.66C12.8471 5.295 12.5971 5.9325 12.3646 6.575C12.1946 7.05 12.0246 7.525 11.8646 8.005C11.7046 8.485 11.5446 9.005 11.4121 9.5275C11.2746 10.013 11.1496 10.6135 11.0631 11.227L11.0546 11.3025C11.0381 11.4635 11.0286 11.6505 11.0286 11.8395C11.0286 11.963 11.0326 12.0855 11.0406 12.2065L11.0396 12.19C11.0581 12.6185 11.1136 13.0235 11.2031 13.415L11.1946 13.37C11.2471 13.62 11.2746 13.54 11.0621 13.6875C10.9501 13.773 10.8226 13.8475 10.6861 13.9055L10.6751 13.91Z" fill="black"/>
<path d="M5.32509 13.91C5.38759 13.56 5.45759 13.2225 5.50259 12.88C5.55109 12.603 5.57859 12.284 5.57859 11.9585C5.57859 11.922 5.57809 11.886 5.57759 11.8495V11.855C5.55459 11.3395 5.50459 10.858 5.42809 10.3855L5.43759 10.4575C5.42409 10.387 5.41359 10.3015 5.40809 10.214L5.40759 10.2075C5.35909 9.996 5.25509 9.8135 5.11259 9.67C4.98759 9.5 4.86259 9.335 4.72509 9.17C4.70509 9.1465 4.69309 9.116 4.69309 9.0825C4.69309 9.049 4.70509 9.0185 4.72559 8.995L4.97559 8.535C4.99609 8.4995 5.00809 8.457 5.00809 8.4115C5.00809 8.3895 5.00509 8.3685 5.00009 8.3485L5.00059 8.35C4.83809 7.7325 4.67559 7.115 4.50059 6.505C4.32559 5.895 4.14559 5.3375 3.97059 4.755C3.77309 4.1075 3.56059 3.4625 3.35559 2.8175C3.06309 1.9225 2.77059 1.0375 2.46059 0.1575C2.45009 0.107 2.40559 0.07 2.35309 0.07C2.35159 0.07 2.34959 0.07 2.34809 0.07C1.89309 0.03 1.43809 0.03 0.983086 0C0.923086 0 0.903086 0 0.930586 0.0725C1.06059 0.3925 1.21309 0.7025 1.35309 1.0175C1.63809 1.67 1.92809 2.3175 2.20559 2.9725C2.44225 3.5325 2.67475 4.095 2.90309 4.66C3.15309 5.295 3.40309 5.9325 3.63559 6.575C3.80559 7.05 3.97559 7.525 4.13559 8.005C4.29559 8.485 4.45559 9.005 4.58809 9.5275C4.72559 10.013 4.85059 10.6135 4.93709 11.227L4.94559 11.3025C4.96209 11.4635 4.97159 11.6505 4.97159 11.8395C4.97159 11.963 4.96759 12.0855 4.95959 12.2065L4.96059 12.19C4.94209 12.6185 4.88659 13.0235 4.79709 13.415L4.80559 13.37C4.75309 13.62 4.72559 13.54 4.93809 13.6875C5.05009 13.773 5.17759 13.8475 5.31409 13.9055L5.32509 13.91Z" fill="black"/>
<path d="M6.27509 8.9775C6.27659 8.0245 7.04959 7.2525 8.00259 7.2525C8.95659 7.2525 9.73009 8.026 9.73009 8.98C9.73009 9.934 8.95659 10.7075 8.00259 10.7075C7.99659 10.7075 7.99009 10.7075 7.98409 10.7075C7.03909 10.7045 6.27509 9.938 6.27509 8.9925C6.27509 8.987 6.27509 8.982 6.27509 8.9765V8.9775Z" fill="black"/>
<path d="M6.43759 9.8625H6.45259V9.8475L6.43759 9.8625Z" fill="black"/>
<path d="M3.00009 0.25L5.25009 6.75L8.00009 1.9375L10.7501 6.75L13.0001 0.25C11.4966 0.5325 9.76709 0.6945 8.00009 0.6945C6.23309 0.6945 4.50359 0.533 2.82559 0.2235L3.00009 0.25Z" fill="black"/>
</g>
<defs>
<clipPath id="clip0_6_553">
<rect width="16" height="16" fill="white"/>
</clipPath>
</defs>
</svg>
