<svg width="16" height="16" viewBox="0 0 16 16" fill="none" xmlns="http://www.w3.org/2000/svg">
<g clip-path="url(#clip0_6_278)">
<path d="M8 0C3.581 0 0 3.581 0 8C0 12.419 3.581 16 8 16C12.419 16 16 12.4185 16 8C16 3.5815 12.4185 0 8 0ZM11.9315 5.4845L10.619 11.669C10.5285 12.1095 10.263 12.2125 9.894 12.0095L7.894 10.5315L6.9345 11.466C6.822 11.5755 6.7345 11.666 6.5345 11.666C6.275 11.666 6.319 11.569 6.2315 11.322L5.55 9.0845L3.572 8.469C3.144 8.338 3.141 8.044 3.669 7.8345L11.375 4.8595C11.725 4.7 12.0655 4.944 11.9315 5.4845Z" fill="black"/>
</g>
<defs>
<clipPath id="clip0_6_278">
<rect width="16" height="16" fill="white"/>
</clipPath>
</defs>
</svg>
