<svg width="16" height="16" viewBox="0 0 16 16" fill="none" xmlns="http://www.w3.org/2000/svg">
<g clip-path="url(#clip0_6_282)">
<path d="M1.92638 1.62603V2.76603H5.13988C5.13988 2.76603 5.06638 3.59953 5.06638 3.87253C5.06638 3.99903 5.31988 5.21253 5.59288 6.50603V1.62603C5.64638 1.44603 5.75938 1.27953 5.89288 1.12603C6.02638 1.28603 6.13288 1.44603 6.19288 1.62603V9.25253C6.25938 9.55903 6.29938 9.75253 6.29938 9.75253L8.02588 3.44603L9.75238 9.75253C9.75238 9.75253 9.79238 9.55903 9.85888 9.25253V1.62603C9.91238 1.44603 10.0254 1.27953 10.1589 1.12603C10.2924 1.28603 10.3989 1.44603 10.4589 1.62603V6.50603C10.7324 5.21253 10.9854 3.99953 10.9854 3.87253C10.9854 3.59253 10.9119 2.76603 10.9119 2.76603H14.1254V1.62603C14.4119 0.686031 16.0054 0.0195312 16.0054 0.0195312H0.0453789C0.0453789 0.0195312 1.63988 0.686031 1.92638 1.62603Z" fill="black"/>
<path d="M14.1199 14.466V2.77253C14.1199 2.77253 13.3064 3.25903 12.7864 5.67903C12.2729 8.09903 11.2999 12.1655 11.2999 12.1655C11.2999 12.1655 11.4734 13.0055 11.8399 13.159H10.4464V14.4655C10.4464 14.4655 10.3264 14.599 10.1464 14.772C9.97288 14.592 9.84638 14.4655 9.84638 14.4655V13.159H8.39288C8.39288 13.159 8.73938 12.419 8.63938 12.079C8.53938 11.739 8.01288 9.13903 8.01288 9.13903C8.01288 9.13903 7.48638 11.739 7.38638 12.079C7.28638 12.419 7.63288 13.159 7.63288 13.159H6.17938V14.4655C6.17938 14.4655 6.05938 14.599 5.87938 14.772C5.70588 14.592 5.57938 14.4655 5.57938 14.4655V13.159H4.18588C4.55238 13.0055 4.72588 12.1655 4.72588 12.1655C4.72588 12.1655 3.75238 8.10553 3.23938 5.67903C2.72588 3.25903 1.91288 2.77253 1.90588 2.77253V14.466C1.90588 14.466 0.645879 15.846 0.0258789 15.9725H15.9794C15.3594 15.8525 14.0994 14.466 14.0994 14.466H14.1199Z" fill="black"/>
</g>
<defs>
<clipPath id="clip0_6_282">
<rect width="16" height="16" fill="white"/>
</clipPath>
</defs>
</svg>
