<svg width="16" height="16" viewBox="0 0 16 16" fill="none" xmlns="http://www.w3.org/2000/svg">
<path d="M2.75706 10.2315C2.75706 9.82545 3.08083 9.49628 3.48023 9.49628H6.64407C6.89082 9.49628 7.10871 9.62193 7.23921 9.81372H8.76079C8.89129 9.62193 9.10918 9.49628 9.35593 9.49628H12.5198C12.9192 9.49628 13.2429 9.82545 13.2429 10.2315V11.5296C13.2429 12.3417 12.5954 13 11.7966 13H10.0791C9.28031 13 8.63277 12.3417 8.63277 11.5296V10.696H7.36723V11.5296C7.36723 12.3417 6.71969 13 5.9209 13H4.20339C3.40461 13 2.75706 12.3417 2.75706 11.5296V10.2315Z" fill="black"/>
<path fill-rule="evenodd" clip-rule="evenodd" d="M12.4804 3.59838C12.2528 2.47009 11.137 1.77011 10.043 2.0692C8.70477 2.43506 7.29523 2.43506 5.95701 2.0692C4.86296 1.77011 3.74721 2.4701 3.51956 3.59838L2.91131 6.61294H0.813559C0.364243 6.61294 0 6.98325 0 7.44005C0 7.89685 0.364243 8.26716 0.813559 8.26716H15.1864C15.6358 8.26716 16 7.89685 16 7.44005C16 6.98325 15.6358 6.61294 15.1864 6.61294H13.0887L12.4804 3.59838Z" fill="black"/>
</svg>
