<svg width="16" height="16" viewBox="0 0 16 16" fill="none" xmlns="http://www.w3.org/2000/svg">
<path d="M15.95 5.55039C15.7 5.25039 15.45 4.95039 15.225 4.67539C14.525 4.67539 13.825 4.67539 13.125 4.67539C13.15 4.67539 13.125 4.70039 13.125 4.70039C13.075 4.92539 13.025 5.12539 12.975 5.35039C12.9 5.62539 12.85 5.90039 12.775 6.17539C13.025 6.17539 13.275 6.17539 13.55 6.17539C13.475 6.45039 13.425 6.70039 13.35 6.97539C13.35 7.02539 13.325 7.05039 13.275 7.05039C13 7.05039 12.7 7.05039 12.425 7.05039C12.375 7.05039 12.35 7.07539 12.325 7.12539C12.225 7.62539 12.1 8.10039 12 8.57539C11.975 8.62539 12 8.65039 12.05 8.65039C12.325 8.65039 12.625 8.65039 12.9 8.65039C12.975 8.65039 12.975 8.65039 12.975 8.72539C12.9 9.00039 12.85 9.27539 12.775 9.55039C12.75 9.60039 12.725 9.62539 12.675 9.62539C12.45 9.62539 12.25 9.62539 12.025 9.62539C11.975 9.62539 11.975 9.62539 11.95 9.67539C11.85 10.1254 11.725 10.6004 11.625 11.0504C11.6 11.1254 11.625 11.1254 11.675 11.1254C12.325 11.1254 13 11.1254 13.65 11.1254C13.7 11.1254 13.725 11.1004 13.775 11.0754C14.15 10.8004 14.525 10.5004 14.9 10.2254C14.95 10.2004 14.95 10.1504 14.975 10.1004C15.075 9.62539 15.2 9.15039 15.3 8.70039C15.325 8.65039 15.3 8.62539 15.275 8.57539C15.075 8.32539 14.875 8.10039 14.675 7.85039C14.7 7.82539 14.7 7.82539 14.725 7.80039C15.025 7.55039 15.325 7.32539 15.625 7.07539C15.65 7.05039 15.675 7.02539 15.7 6.97539C15.8 6.55039 15.9 6.10039 16 5.67539C16 5.62539 15.975 5.57539 15.95 5.55039ZM2.675 8.72539C2.675 8.67539 2.7 8.65039 2.75 8.65039C3.05 8.65039 3.325 8.65039 3.625 8.65039C3.675 8.65039 3.7 8.65039 3.7 8.60039C3.8 8.10039 3.925 7.62539 4.05 7.12539C4.075 7.07539 4.05 7.05039 4 7.05039C3.7 7.05039 3.425 7.05039 3.125 7.05039C3.075 7.05039 3.05 7.05039 3.075 7.00039C3.15 6.75039 3.2 6.50039 3.25 6.25039C3.25 6.20039 3.275 6.20039 3.325 6.20039C3.5 6.20039 3.7 6.20039 3.875 6.20039C3.925 6.20039 3.95 6.20039 3.95 6.15039C4.075 5.65039 4.175 5.17539 4.3 4.67539C3.625 4.67539 2.95 4.67539 2.275 4.67539C2.1 4.82539 1.9 4.97539 1.7 5.12539C1.5 5.27539 1.3 5.42539 1.1 5.60039C1.075 5.62539 1.05 5.65039 1.025 5.70039C0.925 6.15039 0.8 6.60039 0.7 7.02539C0.7 7.07539 0.7 7.10039 0.725 7.15039C0.925 7.37539 1.1 7.60039 1.3 7.82539C1.325 7.87539 1.325 7.87539 1.3 7.92539C1 8.17539 0.7 8.40039 0.4 8.65039C0.375 8.67539 0.35 8.70039 0.35 8.75039C0.25 9.20039 0.125 9.67539 0.025 10.1254C0.025 10.1254 0.025 10.1504 0 10.1504C0 10.1754 0 10.2004 0 10.2254C0 10.2254 0.025 10.2254 0.025 10.2504C0.275 10.5254 0.5 10.8254 0.75 11.1004C0.775 11.1254 0.8 11.1504 0.85 11.1504C1.5 11.1504 2.175 11.1504 2.825 11.1504C2.875 11.1504 2.875 11.1504 2.9 11.1004C2.95 10.9004 3 10.6754 3.05 10.4754C3.125 10.2004 3.175 9.92539 3.25 9.65039C3 9.65039 2.75 9.65039 2.475 9.65039C2.55 9.30039 2.625 9.00039 2.675 8.72539ZM10.95 9.60039C10.8 9.60039 10.65 9.60039 10.475 9.60039C10.425 9.60039 10.375 9.57539 10.35 9.52539C10 8.97539 9.625 8.42539 9.275 7.87539C9.45 7.72539 10.65 6.65039 11.15 6.22539C11.175 6.20039 11.225 6.17539 11.275 6.17539C11.425 6.17539 11.6 6.17539 11.75 6.17539C11.8 6.17539 11.825 6.15039 11.825 6.12539C11.85 5.97539 11.9 5.82539 11.925 5.65039C12 5.32539 12.075 5.00039 12.15 4.67539C12.125 4.67539 12.125 4.67539 12.125 4.67539C11.5 4.67539 10.875 4.67539 10.25 4.67539C10.225 4.67539 10.2 4.67539 10.175 4.70039C9.675 5.12539 8.5 6.20039 8.3 6.35039C7.925 5.77539 7.575 5.22539 7.2 4.65039C6.55 4.65039 5.9 4.65039 5.25 4.65039C5.25 4.67539 5.25 4.70039 5.25 4.72539C5.15 5.17539 5.025 5.65039 4.925 6.10039C4.925 6.15039 4.925 6.15039 4.975 6.15039C5.125 6.15039 5.275 6.15039 5.45 6.15039C5.5 6.15039 5.525 6.17539 5.575 6.20039C5.925 6.75039 6.3 7.30039 6.65 7.85039C5.825 8.60039 5.025 9.30039 4.8 9.52539C4.775 9.55039 4.725 9.57539 4.675 9.57539C4.55 9.57539 4.425 9.57539 4.275 9.57539C4.225 9.57539 4.225 9.60039 4.2 9.62539C4.1 10.0754 3.975 10.5504 3.875 11.0004C3.85 11.0504 3.875 11.0754 3.925 11.0754C4.225 11.0754 4.5 11.0754 4.8 11.0754C5.1 11.0754 5.375 11.0754 5.675 11.0754C5.725 11.0754 5.75 11.0504 5.775 11.0254C6 10.8254 6.8 10.1004 7.625 9.37539C7.975 9.92539 8.35 10.4754 8.7 11.0254C8.725 11.0504 8.725 11.0754 8.775 11.0754C9.4 11.0754 10 11.0754 10.625 11.0754C10.675 11.0754 10.675 11.0504 10.7 11.0254C10.8 10.5504 10.925 10.0754 11.025 9.62539C11 9.60039 11 9.60039 10.95 9.60039ZM15.625 3.40039H0L0.35 2.15039H15.975L15.625 3.40039ZM15.625 13.6254H0L0.35 12.3754H15.975L15.625 13.6254Z" fill="black"/>
</svg>
