<svg width="16" height="16" viewBox="0 0 16 16" fill="none" xmlns="http://www.w3.org/2000/svg">
<g clip-path="url(#clip0_107_207)">
<path fill-rule="evenodd" clip-rule="evenodd" d="M0.347656 0.549633C0.347656 2.02369 1.42611 15.8199 1.55033 15.9353C1.64335 16.0216 1.77099 16.0216 1.91631 15.9353C2.1545 15.7937 7.33073 7.02614 7.23474 6.92698C7.20339 6.89456 6.5603 6.85536 5.80577 6.8399C3.17471 6.78564 3.31943 6.80382 3.31943 6.52724C3.31943 6.30098 3.95613 4.63268 5.38333 1.11907L5.83801 0H0.347656V0.549633ZM9.95154 0.915603C9.08111 3.02692 8.81721 3.70121 8.81721 3.8142C8.81721 3.87999 9.53995 3.9337 10.4233 3.9337C12.9447 3.9337 12.9408 3.65739 10.479 7.87812L8.38854 11.462L10.5602 11.4997C11.7545 11.5203 12.7839 11.4897 12.8478 11.4313C12.9887 11.3028 15.6516 0.737095 15.652 0.305201C15.6523 0 15.6518 0 12.9906 0H10.3291L9.95154 0.915603Z" fill="black"/>
</g>
<defs>
<clipPath id="clip0_107_207">
<rect width="16" height="16" fill="white"/>
</clipPath>
</defs>
</svg>
