<svg width="16" height="16" viewBox="0 0 16 16" fill="none" xmlns="http://www.w3.org/2000/svg">
<g clip-path="url(#clip0_6_254)">
<path d="M8.27509 0C8.27909 0.0275 8.28109 0.0595 8.28109 0.0915C8.28109 0.166 8.26959 0.2375 8.24909 0.305L8.25059 0.3C8.16309 0.9275 8.10809 1.55 8.06809 2.19C8.01309 3.035 8.00309 3.8775 8.01809 4.7225C8.03309 5.5675 8.09059 6.4275 8.17809 7.2775C8.23559 7.8425 8.31059 8.405 8.40809 8.9625C8.59259 10.036 8.8166 10.9555 9.09559 11.8505L9.05309 11.6925C9.4136 12.864 9.83809 13.87 10.3486 14.823L10.3031 14.73C10.4081 14.9275 10.5256 15.12 10.6356 15.3125C10.6481 15.3375 10.6706 15.3575 10.6681 15.3875C10.5681 15.3675 10.5406 15.27 10.4856 15.2075C10.3281 15.03 10.1831 14.8425 10.0381 14.655C9.76559 14.305 9.50809 13.945 9.25559 13.58C8.77409 12.8865 8.28359 12.0795 7.84109 11.2435L7.77809 11.1125C7.65059 10.8625 7.52809 10.6125 7.40809 10.3625C7.16976 9.8825 6.95059 9.39333 6.75059 8.895C5.98309 7.1105 5.28259 4.976 4.76459 2.7715L4.71059 2.5C4.64309 2.2075 4.58059 1.915 4.50809 1.625C4.48309 1.5325 4.50809 1.4975 4.59059 1.4625C5.34059 1.17 6.07059 0.87 6.81059 0.575L8.11559 0.055C8.15059 0.04 8.19309 0.035 8.21809 0H8.27509Z" fill="black"/>
<path d="M9.53259 11.75C9.4851 11.58 9.43759 11.4125 9.39509 11.25C9.31259 10.93 9.22759 10.61 9.14509 10.2875C9.10259 10.1025 9.07259 9.9125 9.03509 9.725C8.99759 9.5375 8.95759 9.3475 8.92509 9.16C8.90009 9.0325 8.89509 8.91 8.86509 8.7725C8.83509 8.635 8.82009 8.4675 8.79009 8.315C8.76009 8.1625 8.76759 7.98 8.73509 7.815C8.70259 7.65 8.71509 7.5275 8.68009 7.3875C8.66909 7.326 8.66159 7.2545 8.66009 7.1815V7.18C8.59859 6.466 8.56359 5.6345 8.56359 4.7955C8.56359 4.398 8.57159 4.0025 8.58709 3.6085L8.58509 3.665C8.63859 2.423 8.79259 1.2505 9.04009 0.113L9.01509 0.25C9.03759 0.1475 9.04009 0.1475 9.13259 0.2C9.90009 0.6375 10.6651 1.0775 11.4326 1.5125C11.5001 1.55 11.5026 1.5825 11.4701 1.6475C10.9751 2.629 10.5246 3.784 10.1821 4.985L10.1476 5.1275C9.97009 5.75 9.82509 6.3775 9.70759 7.0175C9.64259 7.365 9.59009 7.7175 9.55259 8.07C9.51509 8.4225 9.48259 8.76 9.46009 9.105C9.44309 9.3645 9.43359 9.6675 9.43359 9.973C9.43359 10.1955 9.43859 10.4165 9.44909 10.6365L9.44809 10.6055C9.45959 10.993 9.49659 11.362 9.55709 11.723L9.55059 11.6755C9.55059 11.7055 9.55059 11.738 9.55059 11.768L9.53259 11.75Z" fill="black"/>
<path d="M0.682594 9.5875C0.655094 9.4475 0.662594 9.3025 0.635094 9.1625C0.635094 9.105 0.635094 9.045 0.635094 8.9875C0.626094 8.8505 0.621094 8.6905 0.621094 8.529C0.621094 6.058 1.82559 3.868 3.67909 2.5145L3.70009 2.5C3.76759 2.4475 3.78259 2.4675 3.80759 2.54C3.81709 2.5615 3.82259 2.586 3.82259 2.6125C3.82259 2.681 3.78459 2.741 3.72859 2.772L3.72759 2.7725C2.98809 3.3985 2.40109 4.1815 2.01559 5.072L2.00009 5.1125C1.62009 5.936 1.36609 6.893 1.29159 7.9L1.29009 7.9275C1.27559 8.1065 1.26709 8.315 1.26709 8.525C1.26709 10.039 1.69909 11.452 2.44659 12.6475L2.42759 12.615C2.77609 13.188 3.18109 13.681 3.64559 14.111L3.65009 14.115C4.10609 14.54 4.63459 14.8955 5.21359 15.16L5.25009 15.175C5.32509 15.2075 5.34009 15.2425 5.32009 15.31C5.31459 15.327 5.30909 15.348 5.30559 15.37L5.30509 15.3725C5.30509 15.4475 5.25759 15.445 5.20259 15.4225C4.72759 15.22 4.32259 15 3.94109 14.747L3.97009 14.765C3.69359 14.586 3.45359 14.403 3.22859 14.2045L3.23509 14.21C3.03259 14.0325 2.83509 13.85 2.65009 13.6525C2.35059 13.3325 2.07309 12.983 1.82609 12.612L1.80759 12.5825C1.59109 12.2515 1.38559 11.8695 1.21209 11.4705L1.19259 11.42C1.04059 11.066 0.901094 10.6415 0.796094 10.2035L0.785094 10.148C0.750094 9.963 0.717594 9.775 0.682594 9.5875Z" fill="black"/>
<path d="M15.5326 8.47C15.5326 8.4815 15.5326 8.495 15.5326 8.509C15.5326 9.514 15.3371 10.4735 14.9816 11.351L14.9996 11.3C14.6841 12.0775 14.2731 12.748 13.7711 13.338L13.7796 13.3275C13.1851 14.0305 12.4761 14.615 11.6781 15.058L11.6396 15.0775C11.5271 15.14 11.5196 15.05 11.4821 14.995C11.4446 14.94 11.4471 14.9 11.5171 14.86C11.8776 14.6605 12.1886 14.441 12.4736 14.192L12.4671 14.1975C12.6661 14.025 12.8471 13.8475 13.0176 13.6605L13.0221 13.655C13.2506 13.404 13.4616 13.128 13.6476 12.8345L13.6621 12.81C13.9141 12.4225 14.1436 11.977 14.3271 11.508L14.3446 11.4575C14.4956 11.0795 14.6266 10.6305 14.7146 10.167L14.7221 10.12C14.7621 9.9075 14.8046 9.6925 14.8271 9.48C14.8526 9.3085 14.8676 9.1095 14.8696 8.907V8.905C14.8696 8.77 14.8946 8.635 14.8871 8.5C14.8696 8.23 14.8571 7.9575 14.8346 7.6875C14.7361 6.599 14.4286 5.6015 13.9516 4.708L13.9721 4.75C13.5266 3.8625 12.8981 3.127 12.1316 2.5695L12.1146 2.5575C12.0871 2.5375 12.0371 2.5225 12.0546 2.475C12.0701 2.4085 12.1016 2.3515 12.1446 2.305C12.1646 2.2875 12.1896 2.305 12.2096 2.33C13.8541 3.4365 15.0211 5.1455 15.3971 7.1335L15.4046 7.18C15.4751 7.561 15.5211 8.006 15.5321 8.4595L15.5326 8.47Z" fill="black"/>
<path d="M6.52759 9.555C6.60259 9.725 6.68009 9.8925 6.74759 10.055C7.01659 10.6945 7.26809 11.467 7.45859 12.2635L7.48009 12.37C7.59676 12.86 7.69509 13.3542 7.77509 13.8525C7.84259 14.28 7.89759 14.71 7.94259 15.14C7.97009 15.39 7.98009 15.64 8.01259 15.89C8.01259 15.955 7.99509 15.9925 7.92759 15.9875C7.76759 15.9875 7.61009 15.96 7.45259 15.9525C7.29509 15.945 7.20259 15.9275 7.07259 15.9125C6.90009 15.895 6.73259 15.86 6.57259 15.8275C6.48309 15.8015 6.36759 15.775 6.25009 15.7555L6.23009 15.7525C6.13009 15.7525 6.13759 15.6825 6.15509 15.625C6.19509 15.5025 6.21759 15.375 6.24759 15.25C6.31509 14.9675 6.36259 14.685 6.41259 14.4C6.44509 14.2125 6.47259 14.025 6.49759 13.8375C6.52259 13.65 6.54259 13.4575 6.56009 13.2675C6.57759 13.0775 6.59759 12.93 6.60759 12.7675C6.61759 12.605 6.63509 12.4425 6.63509 12.2675C6.63509 12.0925 6.65759 11.8925 6.65509 11.705C6.65259 11.5175 6.65509 11.2975 6.65509 11.0925C6.65509 10.8875 6.64009 10.61 6.61759 10.37C6.59509 10.13 6.55759 9.8175 6.52759 9.54V9.555Z" fill="black"/>
<path d="M8.72259 15.9625H8.62509C8.59259 15.9625 8.57009 15.9475 8.57259 15.9125C8.56959 15.7935 8.55659 15.68 8.53559 15.5695L8.53759 15.5825C8.51509 15.435 8.50509 15.2875 8.48009 15.14C8.45509 14.9925 8.41759 14.81 8.39009 14.64C8.34759 14.39 8.29259 14.14 8.24259 13.89C8.19259 13.64 8.14759 13.4175 8.09259 13.1825C8.03759 12.9475 7.98759 12.65 7.90509 12.3875C7.90509 12.3875 7.90509 12.35 7.90509 12.3475C7.90509 12.345 7.94009 12.365 7.95009 12.3825L8.20009 12.8375C8.62559 13.576 9.03909 14.199 9.48609 14.795L9.45009 14.745C9.68759 15.067 9.91759 15.348 10.1611 15.617L10.1526 15.6075C10.2176 15.68 10.1526 15.7 10.1176 15.7125C10.0076 15.7475 9.89509 15.7675 9.78509 15.795C9.52009 15.8575 9.25259 15.9 8.98259 15.9375C8.90009 15.95 8.81009 15.955 8.72259 15.9625Z" fill="black"/>
<path d="M10.6951 15.435V15.43H10.7001L10.6951 15.435Z" fill="black"/>
</g>
<defs>
<clipPath id="clip0_6_254">
<rect width="16" height="16" fill="white"/>
</clipPath>
</defs>
</svg>
