<svg width="16" height="16" viewBox="0 0 16 16" fill="none" xmlns="http://www.w3.org/2000/svg">
<path d="M12.67 4.20615C12.44 3.98861 12.145 3.8643 11.835 3.8643C11.525 3.8643 11.225 3.98861 10.995 4.20615C10.77 4.42887 10.635 4.73446 10.62 5.05559C10.625 5.38191 10.76 5.6875 10.985 5.9154C11.215 6.1433 11.515 6.26761 11.835 6.26243C12.15 6.26761 12.455 6.1433 12.68 5.9154C12.905 5.6875 13.04 5.38191 13.045 5.05559C13.03 4.73446 12.895 4.42887 12.67 4.20615ZM12.67 4.20615C12.44 3.98861 12.145 3.8643 11.835 3.8643C11.525 3.8643 11.225 3.98861 10.995 4.20615C10.77 4.42887 10.635 4.73446 10.62 5.05559C10.625 5.38191 10.76 5.6875 10.985 5.9154C11.215 6.1433 11.515 6.26761 11.835 6.26243C12.15 6.26761 12.455 6.1433 12.68 5.9154C12.905 5.6875 13.04 5.38191 13.045 5.05559C13.03 4.73446 12.895 4.42887 12.67 4.20615ZM13.99 1H2.01C0.9 1 0 1.93232 0 3.077V13.923C0 15.0677 0.9 16 2.01 16H13.99C15.1 16 16 15.0677 16 13.923V3.077C16 1.93232 15.1 1 13.99 1ZM8.165 14.7828H6.52V11.2193C6.52 11.0846 6.47 10.9603 6.38 10.8671C6.285 10.7738 6.165 10.7169 6.035 10.7169C5.905 10.7169 5.785 10.7738 5.695 10.8671C5.605 10.9603 5.555 11.0846 5.555 11.2193V14.7828H3.915V11.2193C3.915 11.0846 3.86 10.9603 3.77 10.8671C3.68 10.7738 3.555 10.7169 3.43 10.7169C3.305 10.7169 3.18 10.7738 3.09 10.8671C2.995 10.9603 2.945 11.0846 2.945 11.2193V14.7828H1.31V11.24C1.315 10.9499 1.375 10.6702 1.485 10.4061C1.595 10.1471 1.755 9.90884 1.955 9.71202C2.155 9.51519 2.39 9.35981 2.645 9.25104C2.9 9.14745 3.175 9.09565 3.455 9.10601C3.915 9.10083 4.36 9.25104 4.735 9.53073C5.11 9.25104 5.56 9.10083 6.02 9.10601C6.295 9.09565 6.57 9.14745 6.825 9.25104C7.085 9.35463 7.32 9.51001 7.52 9.71202C7.72 9.90884 7.88 10.1471 7.99 10.4061C8.1 10.6702 8.16 10.9499 8.165 11.24V14.7828ZM8.165 7.89399H6.52V4.33046C6.52 4.19579 6.47 4.07148 6.38 3.97825C6.285 3.87983 6.165 3.82804 6.035 3.82804C5.905 3.82804 5.785 3.87983 5.695 3.97825C5.605 4.07148 5.555 4.19579 5.555 4.33046V7.89399H3.915V4.33046C3.915 4.19579 3.86 4.07148 3.77 3.97825C3.68 3.87983 3.555 3.82804 3.43 3.82804C3.305 3.82804 3.18 3.87983 3.09 3.97825C2.995 4.07148 2.945 4.19579 2.945 4.33046V7.89399H1.31V4.34599C1.325 3.77106 1.555 3.22203 1.955 2.8232C2.36 2.42438 2.895 2.20684 3.455 2.2172C3.915 2.2172 4.36 2.3674 4.735 2.6471C5.11 2.3674 5.56 2.2172 6.02 2.2172C6.575 2.20684 7.115 2.42438 7.515 2.8232C7.92 3.22203 8.155 3.77106 8.165 4.34599V7.89399ZM11.835 14.7724C10.26 14.7724 8.98 13.5035 8.98 11.934C8.98 10.3646 10.26 9.10601 11.835 9.10601C13.41 9.10601 14.685 10.3802 14.685 11.9444C14.685 13.5086 13.405 14.7724 11.835 14.7724ZM11.835 7.88363C10.26 7.88363 8.98 6.61464 8.98 5.05041C8.98 3.48619 10.26 2.2172 11.835 2.2172C13.41 2.2172 14.69 3.48619 14.69 5.05041C14.69 6.61464 13.405 7.88363 11.835 7.88363ZM12.335 10.8256C12.125 10.7376 11.89 10.7065 11.665 10.7531C11.44 10.7945 11.235 10.9033 11.07 11.0691C10.905 11.2348 10.79 11.442 10.74 11.6751C10.69 11.9082 10.705 12.1464 10.785 12.3691C10.87 12.5919 11.01 12.7835 11.195 12.9182C11.385 13.058 11.605 13.1357 11.835 13.1461C11.99 13.1564 12.145 13.1253 12.29 13.0684C12.435 13.0062 12.57 12.9182 12.68 12.8042C12.795 12.6903 12.885 12.5556 12.945 12.4106C13.01 12.2604 13.04 12.0998 13.045 11.9392C13.045 11.701 12.975 11.4679 12.85 11.2711C12.725 11.0742 12.545 10.9189 12.335 10.8256ZM11.835 3.8643C11.52 3.8643 11.225 3.98861 10.995 4.20615C10.77 4.42887 10.635 4.73446 10.62 5.05559C10.625 5.38191 10.76 5.6875 10.985 5.9154C11.215 6.1433 11.515 6.26761 11.835 6.26243C12.15 6.26761 12.455 6.1433 12.68 5.9154C12.905 5.6875 13.04 5.38191 13.045 5.05559C13.03 4.73446 12.895 4.42887 12.67 4.20615C12.44 3.98861 12.145 3.8643 11.835 3.8643ZM12.67 4.20615C12.44 3.98861 12.145 3.8643 11.835 3.8643C11.525 3.8643 11.225 3.98861 10.995 4.20615C10.77 4.42887 10.635 4.73446 10.62 5.05559C10.625 5.38191 10.76 5.6875 10.985 5.9154C11.215 6.1433 11.515 6.26761 11.835 6.26243C12.15 6.26761 12.455 6.1433 12.68 5.9154C12.905 5.6875 13.04 5.38191 13.045 5.05559C13.03 4.73446 12.895 4.42887 12.67 4.20615ZM12.67 4.20615C12.44 3.98861 12.145 3.8643 11.835 3.8643C11.525 3.8643 11.225 3.98861 10.995 4.20615C10.77 4.42887 10.635 4.73446 10.62 5.05559C10.625 5.38191 10.76 5.6875 10.985 5.9154C11.215 6.1433 11.515 6.26761 11.835 6.26243C12.15 6.26761 12.455 6.1433 12.68 5.9154C12.905 5.6875 13.04 5.38191 13.045 5.05559C13.03 4.73446 12.895 4.42887 12.67 4.20615Z" fill="black"/>
</svg>
