<svg width="16" height="16" viewBox="0 0 16 16" fill="none" xmlns="http://www.w3.org/2000/svg">
<path d="M14.8064 13.5798C14.7414 13.6982 14.6364 13.7878 14.5104 13.8317L14.5064 13.8328C14.4659 13.8413 14.4194 13.8463 14.3719 13.8463C14.2329 13.8463 14.1039 13.8038 13.9974 13.7312L13.9999 13.7327L0.666371 6.49275L0.052871 7.66625L13.3329 14.8997C13.6294 15.0743 13.9849 15.1797 14.3644 15.1862H14.3664C14.3704 15.1862 14.3754 15.1862 14.3799 15.1862C14.5654 15.1862 14.7444 15.1567 14.9119 15.1027L14.8999 15.1062C15.3864 14.9462 15.7754 14.6047 15.9949 14.1637L15.9999 14.1528L14.8064 13.5798Z" fill="black"/>
<path d="M3.92637 6.79325L9.37287 9.87325L14.2264 12.6667L15.0529 11.2133L10.2529 8.47975L10.3194 8.38625L15.2394 10.4998L15.9059 8.96625L9.75937 6.29975L5.53287 3.93325C5.37137 3.84225 5.18287 3.77475 4.98287 3.74125L4.97237 3.73975C4.89787 3.72775 4.81237 3.72075 4.72487 3.72075C3.81887 3.72075 3.08487 4.45525 3.08487 5.36075C3.08487 5.97325 3.42037 6.50675 3.91737 6.78875L3.92637 6.79325Z" fill="black"/>
<path d="M2.17337 4.40625C2.76687 4.16775 3.17837 3.59675 3.17837 2.93025C3.17837 2.05375 2.46787 1.34375 1.59187 1.34375C0.715871 1.34375 0.00537109 2.05425 0.00537109 2.93025C0.00537109 3.13775 0.0453711 3.33575 0.117371 3.51725L0.113371 3.50675C0.350371 4.10325 0.922871 4.51725 1.59187 4.51725C1.80137 4.51725 2.00137 4.47675 2.18437 4.40275L2.17337 4.40625Z" fill="black"/>
</svg>
