<svg width="16" height="16" viewBox="0 0 16 16" fill="none" xmlns="http://www.w3.org/2000/svg">
<path d="M5.58194 2.99745C6.06294 2.71395 6.38094 2.19845 6.38094 1.60845C6.38094 0.720953 5.66144 0.00195312 4.77444 0.00195312C3.88744 0.00195312 3.16794 0.721453 3.16794 1.60845C3.16794 1.90395 3.24744 2.18045 3.38644 2.41795L3.38244 2.41045C3.66344 2.89595 4.17994 3.21745 4.77194 3.21745C5.07094 3.21745 5.35044 3.13545 5.58944 2.99295L5.58194 2.99745Z" fill="black"/>
<path d="M12.0019 13.131L10.2554 6.46445L9.11544 4.46445C9.26294 4.45295 9.43494 4.44645 9.60894 4.44645C9.78294 4.44645 9.95444 4.45295 10.1249 4.46595L10.1024 4.46445C10.1544 4.46295 10.2149 4.46195 10.2759 4.46195C11.3864 4.46195 12.4214 4.78595 13.2909 5.34445L13.2689 5.33095L14.3624 4.07095C13.3359 3.19095 11.5159 2.83095 10.1624 2.79745C10.0999 2.79595 10.0264 2.79495 9.95244 2.79495C9.19544 2.79495 8.46144 2.89295 7.76294 3.07745L7.82244 3.06395C7.64194 2.99595 7.43344 2.95695 7.21594 2.95695C6.89244 2.95695 6.58894 3.04345 6.32744 3.19495L6.33594 3.19045H6.27594C5.73394 3.49895 5.37444 4.07295 5.37444 4.73045C5.37444 5.05445 5.46144 5.35745 5.61344 5.61845L5.60894 5.60995L6.98894 7.99645L6.48894 9.24295L6.78244 10.3495L4.00244 8.90945C3.62944 8.70445 3.38094 8.31445 3.38094 7.86595C3.38094 7.66995 3.42844 7.48545 3.51244 7.32295L3.50944 7.32945L1.90944 6.46945C1.69244 6.87295 1.56494 7.35245 1.56494 7.86195C1.56494 9.00595 2.20844 9.99995 3.15344 10.5015L3.16944 10.5095L4.00294 10.963L4.38944 11.163L9.38294 13.7895L10.6364 14.456L13.5964 15.996L14.4364 14.396L12.0019 13.131ZM8.80194 11.431L8.26194 9.38445L8.60844 8.51795L9.06194 8.42445L10.0019 12.078L8.80194 11.431Z" fill="black"/>
</svg>
