<svg width="16" height="16" viewBox="0 0 16 16" fill="none" xmlns="http://www.w3.org/2000/svg">
<g clip-path="url(#clip0_6_519)">
<path d="M11.94 5.33302C11.94 3.49302 10.18 1.99952 8.00001 1.99952C5.82001 1.99952 4.06001 3.49302 4.06001 5.33302C4.06001 7.17302 5.82001 8.66652 8.00001 8.66652C10.18 8.66652 11.94 7.17302 11.94 5.33302Z" fill="black"/>
<path d="M11.2735 0.706023C10.312 0.259523 9.18651 -0.000976562 8.00001 -0.000976562C6.81351 -0.000976562 5.68801 0.259523 4.67751 0.726023L4.72651 0.705523C4.94651 0.845523 5.87301 1.33202 8.00001 1.33202C10.127 1.33202 11.0535 0.846023 11.2735 0.706023Z" fill="black"/>
<path d="M3.02651 5.33302C3.55451 4.45752 3.86701 3.40052 3.86701 2.27052C3.86701 1.89702 3.83301 1.53102 3.76751 1.17652L3.77301 1.21352C1.49401 2.64852 0.00151172 5.14952 -0.000488281 8.00002C0.00151172 8.38752 0.0330117 8.76652 0.0915117 9.13602L0.0860117 9.09402C1.27251 8.04602 2.25601 6.80102 2.99201 5.40452L3.02601 5.33402L3.02651 5.33302Z" fill="black"/>
<path d="M12.2135 1.20602C12.1545 1.52302 12.121 1.88702 12.121 2.25952C12.121 3.39302 12.433 4.45352 12.9755 5.36002L12.96 5.33252C13.73 6.81552 14.7185 8.07452 15.9 9.12052L15.9135 9.13252C15.968 8.79252 15.9995 8.40002 16 8.00002C15.9975 5.14452 14.499 2.63902 12.2465 1.22502L12.2135 1.20602Z" fill="black"/>
<path d="M1.06001 8.93302C0.714012 9.28352 0.456512 9.72252 0.324512 10.213L0.320012 10.233C1.01401 12.545 2.66201 14.3805 4.79501 15.313L4.84651 15.333C5.55701 15.269 6.18751 14.9685 6.66801 14.512L6.66651 14.513C8.00001 13.1795 7.78651 10.8995 6.24651 9.35952C4.70651 7.81952 2.36651 7.62602 1.06001 8.93302Z" fill="black"/>
<path d="M9.78651 9.33302C8.24651 10.873 8.05301 13.1795 9.36001 14.4865C9.82651 14.948 10.445 15.257 11.1335 15.332L11.147 15.333C13.3345 14.378 14.983 12.537 15.659 10.2765L15.6735 10.22C15.5445 9.69752 15.288 9.24652 14.9395 8.88602L14.9405 8.88702C13.634 7.62702 11.3335 7.82002 9.78651 9.33302Z" fill="black"/>
</g>
<defs>
<clipPath id="clip0_6_519">
<rect width="16" height="16" fill="white"/>
</clipPath>
</defs>
</svg>
