<svg width="16" height="16" viewBox="0 0 16 16" fill="none" xmlns="http://www.w3.org/2000/svg">
<path d="M3.1875 4.54492C3.2875 4.58242 3.2975 4.60992 3.245 4.72242C3.02 5.22242 2.7925 5.69992 2.565 6.18992C2.305 6.75326 2.04333 7.31659 1.78 7.87992V7.90992C1.75 7.96492 1.7125 8.01492 1.645 8.01492C1.5775 8.01392 1.5205 7.96942 1.5005 7.90842L1.5 7.90742C1.01 6.84576 0.520833 5.78492 0.0325 4.72492C0.0325 4.69992 0.01 4.67492 0 4.65242V4.54492H0.7325C0.8015 4.57642 0.8535 4.63442 0.877 4.70542L0.8775 4.70742L1.5875 6.29492C1.6025 6.32742 1.62 6.35742 1.64 6.39742L1.6625 6.35492C1.9125 5.79992 2.1625 5.24492 2.4125 4.68992C2.434 4.62592 2.4785 4.57492 2.536 4.54542L2.5375 4.54492H3.1875Z" fill="black"/>
<path d="M16 8.27742C15.9655 8.34792 15.933 8.40492 15.8975 8.46042L15.9025 8.45242L15.0425 9.73492C14.9675 9.84192 14.9225 9.97492 14.9225 10.1184C14.9225 10.1239 14.9225 10.1299 14.9225 10.1354V10.1344C14.9225 10.5444 14.9225 10.9569 14.9225 11.3669C14.9225 11.5294 14.905 11.5444 14.7425 11.5444H14.31C14.1875 11.5444 14.1625 11.5169 14.16 11.3944C14.16 10.9719 14.16 10.5519 14.16 10.1294C14.16 10.1249 14.16 10.1194 14.16 10.1139C14.16 9.97792 14.119 9.85192 14.0485 9.74742L14.05 9.74992C13.755 9.30992 13.465 8.86742 13.175 8.42742C13.16 8.40242 13.1425 8.37742 13.13 8.35242C13.0725 8.24742 13.0975 8.18992 13.2175 8.18242C13.405 8.18242 13.595 8.18242 13.7825 8.18242C13.85 8.18942 13.9065 8.23092 13.9345 8.28892L13.935 8.28992L14.5 9.12742L14.545 9.19242C14.73 8.91742 14.9175 8.65742 15.085 8.38242C15.1455 8.24942 15.277 8.15842 15.43 8.15842C15.455 8.15842 15.479 8.16092 15.5025 8.16542L15.5 8.16492C15.6125 8.18242 15.7325 8.16492 15.8475 8.16492C15.901 8.17342 15.949 8.18742 15.994 8.20642L15.99 8.20492L16 8.27742Z" fill="black"/>
<path d="M8.8725 11.6524C9.0325 11.7349 9.03 11.8624 9.0175 12.0024C8.94 12.8374 8.865 13.6749 8.79 14.5024C8.7475 14.9549 8.7075 15.4049 8.6675 15.8574C8.665 15.8909 8.6555 15.9214 8.6395 15.9484L8.64 15.9474C8.6275 15.8124 8.6125 15.6749 8.6 15.5399L8.4575 13.9199C8.415 13.4499 8.375 12.9824 8.3325 12.5124C8.3175 12.3474 8.305 12.1799 8.285 12.0124C8.278 11.9874 8.2735 11.9589 8.2735 11.9289C8.2735 11.8154 8.3335 11.7159 8.4235 11.6604L8.425 11.6594L8.25 11.6244C7.9755 11.5489 7.736 11.4334 7.523 11.2819L7.53 11.2869C7.2235 11.0719 7.001 10.7554 6.9095 10.3874L6.9075 10.3769C6.8615 10.2189 6.835 10.0369 6.835 9.84892C6.835 9.61692 6.875 9.39442 6.949 9.18792L6.9445 9.20142C7.115 8.76642 7.438 8.42242 7.846 8.22842L7.857 8.22392C7.947 8.17642 8.042 8.13642 8.142 8.08892L6.787 6.61142C6.787 6.67142 6.787 6.71642 6.787 6.76142V7.78142C6.787 7.81392 6.787 7.84892 6.787 7.88142C6.787 7.88392 6.7875 7.88642 6.7875 7.88892C6.7875 7.93842 6.747 7.97892 6.6975 7.97892C6.6955 7.97892 6.694 7.97892 6.692 7.97892C6.4995 7.97892 6.305 7.97892 6.1125 7.97892C6.052 7.97892 6.0025 7.92992 6.0025 7.86892C6.0025 7.86792 6.0025 7.86692 6.0025 7.86642C6.0015 7.85092 6.0005 7.83242 6.0005 7.81392C6.0005 7.79542 6.001 7.77692 6.0025 7.75892V7.76142C6.0025 6.76142 6.0025 5.76142 6.0025 4.76142C6.0025 4.68892 6.0025 4.60892 6.0775 4.57392C6.1525 4.53892 6.23 4.57392 6.3075 4.65142C6.8975 5.31809 7.48833 5.97892 8.08 6.63392L8.185 6.75142H8.205V4.78892C8.205 4.59142 8.2225 4.57392 8.4225 4.57392C8.565 4.57392 8.7075 4.57392 8.85 4.57392C8.9925 4.57392 8.99 4.60142 8.9925 4.71642V7.96642C8.9925 8.06392 9.01 8.08892 9.1125 8.12142C9.644 8.27992 10.0635 8.66642 10.2635 9.16442L10.2675 9.17642C10.349 9.37542 10.3965 9.60592 10.3965 9.84792C10.3965 10.7019 9.807 11.4179 9.0125 11.6114L9 11.6139L8.8725 11.6524ZM7.7225 9.83992C7.735 9.92492 7.7425 10.0124 7.7625 10.0899C7.8505 10.4904 8.202 10.7859 8.623 10.7859C8.765 10.7859 8.899 10.7524 9.0175 10.6929L9.0125 10.6954C9.314 10.5234 9.514 10.2034 9.514 9.83692C9.514 9.77792 9.509 9.72042 9.499 9.66442L9.5 9.67042C9.434 9.23092 9.0595 8.89792 8.607 8.89792C8.5365 8.89792 8.4675 8.90592 8.4015 8.92142L8.4075 8.92042C8.009 9.03442 7.7225 9.39542 7.7225 9.82342C7.7225 9.82942 7.7225 9.83542 7.7225 9.84142V9.83992Z" fill="black"/>
<path d="M12.5 10.2199L12.9125 10.9699C12.9775 11.0924 13.045 11.2199 13.11 11.3399C13.125 11.3644 13.137 11.3929 13.1445 11.4229L13.145 11.4249C13.1485 11.4329 13.1505 11.4424 13.1505 11.4524C13.1505 11.4904 13.12 11.5214 13.0825 11.5224C13.0655 11.5244 13.046 11.5254 13.026 11.5254C13.006 11.5254 12.9865 11.5244 12.9675 11.5224H12.97C12.81 11.5224 12.65 11.5224 12.49 11.5224C12.486 11.5229 12.481 11.5229 12.476 11.5229C12.388 11.5229 12.313 11.4684 12.283 11.3914L12.2825 11.3899C12.1125 11.0499 11.94 10.7124 11.7825 10.3699C11.75 10.2669 11.6555 10.1929 11.5435 10.1929C11.5275 10.1929 11.5115 10.1944 11.496 10.1974H11.4975C11.4775 10.1994 11.4545 10.2004 11.431 10.2004C11.4075 10.2004 11.3845 10.1994 11.362 10.1974H11.365V11.3474C11.365 11.4799 11.3275 11.5174 11.195 11.5174H10.73C10.61 11.5174 10.5725 11.4824 10.5725 11.3649C10.5725 10.3416 10.5725 9.31909 10.5725 8.29742V8.23742C10.5725 8.23492 10.572 8.23242 10.572 8.22942C10.572 8.18092 10.611 8.14192 10.6595 8.14192C10.6625 8.14192 10.665 8.14192 10.6675 8.14242C10.8525 8.14242 11.037 8.14242 11.2195 8.14242C11.552 8.14242 11.882 8.14242 12.2195 8.14242C12.7575 8.16092 13.186 8.60142 13.186 9.14192C13.186 9.44042 13.055 9.70842 12.848 9.89142L12.847 9.89242C12.727 10.0299 12.61 10.1199 12.5 10.2199ZM11.365 9.58492H11.705C11.8475 9.58492 11.99 9.58492 12.13 9.57242C12.3005 9.54742 12.4305 9.40192 12.4305 9.22592C12.4305 9.22092 12.4305 9.21642 12.43 9.21192C12.4305 9.20592 12.4305 9.19942 12.4305 9.19242C12.4305 9.02142 12.295 8.88192 12.1255 8.87492C11.9455 8.87492 11.765 8.87492 11.585 8.87492H11.365V9.58492Z" fill="black"/>
<path d="M3.8175 10.4749H3.5675C3.465 10.4749 3.4325 10.4424 3.4325 10.3399C3.4325 10.2374 3.4325 10.0724 3.4325 9.93992C3.4325 9.84492 3.465 9.81242 3.56 9.80992H4.46C4.555 9.80992 4.59 9.84492 4.59 9.93992C4.59 10.3449 4.59 10.7499 4.59 11.1524C4.5905 11.1559 4.5905 11.1599 4.5905 11.1639C4.5905 11.2304 4.552 11.2874 4.496 11.3149L4.495 11.3154C4.1675 11.4939 3.7775 11.5989 3.363 11.5989C3.274 11.5989 3.186 11.5939 3.099 11.5844L3.1095 11.5854C2.2575 11.4699 1.608 10.7469 1.608 9.87292C1.608 9.84642 1.6085 9.82042 1.6095 9.79442V9.79792C1.6225 9.25992 1.884 8.78542 2.2825 8.48342L2.2865 8.48042C2.577 8.26392 2.9425 8.13342 3.339 8.13342C3.7355 8.13342 4.101 8.26392 4.396 8.48392L4.3915 8.48042L4.539 8.59542C4.5615 8.61042 4.576 8.63542 4.576 8.66442C4.576 8.68742 4.5665 8.70792 4.5515 8.72292C4.4265 8.85792 4.3015 8.99542 4.1715 9.12542C4.1215 9.17792 4.069 9.17042 3.999 9.12542C3.8915 9.03392 3.7595 8.96842 3.6145 8.93892L3.609 8.93792C3.5485 8.92442 3.479 8.91642 3.4075 8.91642C2.8745 8.91642 2.4425 9.34842 2.4425 9.88142C2.4425 10.4144 2.8745 10.8464 3.4075 10.8464C3.479 10.8464 3.5485 10.8389 3.6155 10.8239L3.609 10.8249L3.7515 10.7924C3.7945 10.7864 3.827 10.7499 3.827 10.7059C3.827 10.7029 3.827 10.6999 3.8265 10.6974C3.8215 10.6124 3.819 10.5504 3.8165 10.4754L3.8175 10.4749Z" fill="black"/>
<path d="M3.84 7.49992C3.6425 7.49992 3.4525 7.49992 3.265 7.49992C3.2325 7.49992 3.19 7.54742 3.1725 7.58242C3.1425 7.64942 3.112 7.73242 3.0865 7.81742L3.0825 7.83242C3.0685 7.91192 3 7.97092 2.9175 7.97092C2.9105 7.97092 2.9035 7.97042 2.8965 7.96942H2.21C2.1025 7.96942 2.0725 7.92692 2.1175 7.82692C2.195 7.64442 2.28 7.46192 2.3675 7.28192C2.7625 6.42692 3.1575 5.57192 3.5525 4.71692C3.583 4.62942 3.6645 4.56792 3.761 4.56792C3.7705 4.56792 3.7795 4.56842 3.789 4.56942C4.074 4.56942 4.358 4.56942 4.653 4.56942V4.64192C4.653 5.67526 4.64883 6.70609 4.6405 7.73442C4.6405 7.95192 4.6205 7.96942 4.4055 7.97192H4.0005C3.8905 7.97192 3.838 7.91942 3.8355 7.80692C3.833 7.69442 3.84 7.60492 3.84 7.49992ZM3.8125 5.99992H3.79L3.445 6.70492H3.8125V5.99992Z" fill="black"/>
<path d="M6.75 10.8249C6.8825 10.8249 6.91 10.8549 6.9125 10.9874V11.4074C6.9125 11.5024 6.8725 11.5424 6.7775 11.5424H5.0275C4.93 11.5424 4.8925 11.5024 4.8925 11.4024C4.8925 11.1524 4.8925 10.9024 4.8925 10.6524V8.33242C4.8925 8.16492 4.9075 8.14992 5.0725 8.14742H5.5C5.635 8.14742 5.6575 8.17492 5.6625 8.30742C5.6625 8.33742 5.6625 8.36992 5.6625 8.39992V10.8249H6.75Z" fill="black"/>
<path d="M5.6475 6.28742V7.77242C5.6475 7.96742 5.6475 7.97492 5.4425 7.97492H5.0625C4.97 7.97492 4.9325 7.93742 4.9225 7.84242V4.76992C4.9225 4.73992 4.9225 4.71242 4.9225 4.68242C4.9225 4.68142 4.9225 4.67992 4.9225 4.67892C4.9225 4.61942 4.9705 4.57142 5.03 4.57142C5.0355 4.57142 5.0405 4.57192 5.0455 4.57242H5.5175C5.6 4.57242 5.6325 4.60492 5.6425 4.68742C5.6425 4.71992 5.6425 4.74992 5.6425 4.78242V6.28242L5.6475 6.28742Z" fill="black"/>
</svg>
