<svg width="16" height="16" viewBox="0 0 16 16" fill="none" xmlns="http://www.w3.org/2000/svg">
<g clip-path="url(#clip0_6_309)">
<path d="M8.6665 3.0665C8.482 3.0415 8.269 3.027 8.052 3.027C5.3865 3.027 3.2255 5.188 3.2255 7.8535C3.2255 10.519 5.3865 12.68 8.052 12.68C10.5015 12.68 12.525 10.855 12.837 8.4905L12.8395 8.466C12.8675 8.272 12.8835 8.048 12.8835 7.82C12.8835 6.8665 12.6035 5.9785 12.1215 5.234L12.133 5.2525L13.9995 1.119C14.012 1.098 14.019 1.073 14.019 1.046C14.019 0.965 13.9535 0.8995 13.8725 0.8995C13.837 0.8995 13.8045 0.912 13.7795 0.933L10.2395 3.5465C9.783 3.31 9.2515 3.141 8.69 3.069L8.6665 3.0665ZM10.3535 8.1465C10.203 9.2955 9.23 10.1735 8.052 10.1735C6.7705 10.1735 5.732 9.135 5.732 7.8535C5.732 6.572 6.7705 5.5335 8.052 5.5335C8.1585 5.5335 8.263 5.5405 8.3655 5.5545L8.3535 5.553C9.508 5.702 10.391 6.6785 10.391 7.8615C10.391 7.962 10.3845 8.0605 10.3725 8.1575L10.3735 8.146L10.3535 8.1465Z" fill="black"/>
<path d="M8 16C3.5815 16 0 12.4185 0 8C0 3.5815 3.5815 0 8 0C8.368 0 8.6665 0.2985 8.6665 0.6665C8.6665 1.0345 8.368 1.333 8 1.333C4.318 1.333 1.3335 4.318 1.3335 7.9995C1.3335 11.681 4.3185 14.666 8 14.666C11.682 14.666 14.6665 11.681 14.6665 7.9995C14.6665 7.6315 14.965 7.333 15.333 7.333C15.701 7.333 15.9995 7.6315 15.9995 7.9995C15.9995 12.418 12.4185 16 8 16Z" fill="black"/>
</g>
<defs>
<clipPath id="clip0_6_309">
<rect width="16" height="16" fill="white"/>
</clipPath>
</defs>
</svg>
