<svg width="16" height="16" viewBox="0 0 16 16" fill="none" xmlns="http://www.w3.org/2000/svg">
<g clip-path="url(#clip0_6_336)">
<path d="M8 0C3.5815 0 0 3.5815 0 8C0 12.4185 3.5815 16 8 16C12.4185 16 16 12.4185 16 8C16 3.5815 12.4185 0 8 0ZM7.7465 4.5535H11.333L10.933 5.567H9.213V6.5135H10.6265L10.233 7.527H9.213V9.207H7.7465V4.5535ZM5.2935 4.5535H6.747V9.22H5.2935V4.5535ZM1.2935 4.5535H4.847L4.467 5.567H2.747V6.5135H4.1605L3.767 7.527H2.747V9.207H1.2735L1.2935 4.5535ZM13.96 11.4465H2.0935V10.34H13.907L13.96 11.4465ZM13.8665 8.5735H12.1865L12 9.2H10.6065L12.2665 4.5335H13.773L15.4595 9.2H13.9995L13.8665 8.5735Z" fill="black"/>
<path d="M12.4335 7.6865H13.5735L12.9935 5.7465L12.4335 7.6865Z" fill="black"/>
</g>
<defs>
<clipPath id="clip0_6_336">
<rect width="16" height="16" fill="white"/>
</clipPath>
</defs>
</svg>
