<svg width="16" height="16" viewBox="0 0 16 16" fill="none" xmlns="http://www.w3.org/2000/svg">
<path d="M11.5335 1.13984C11.4595 1.13484 11.373 1.13184 11.2855 1.13184C9.905 1.13184 8.6935 1.85534 8.0095 2.94384L8 2.95984C7.3065 1.85534 6.095 1.13184 4.7145 1.13184C4.6275 1.13184 4.541 1.13484 4.455 1.14034L4.4665 1.13984C1.853 1.13984 0 3.39984 0 6.11334C0 8.82684 3.6465 13.0668 8 14.8598C12.3535 13.0663 16 8.85984 16 6.11334C16 3.36684 14.1465 1.13984 11.5335 1.13984ZM13.1735 7.64634H10.1335L8.62 10.3998C8.5065 10.6153 8.284 10.7598 8.028 10.7598C8.025 10.7598 8.0225 10.7598 8.0195 10.7598C8.017 10.7598 8.015 10.7598 8.012 10.7598C7.756 10.7598 7.5335 10.6153 7.422 10.4033L7.42 10.3998L5.28 6.48634L4.8 7.33284C4.6835 7.53734 4.467 7.67284 4.219 7.67284C4.2145 7.67284 4.2105 7.67284 4.206 7.67284H2.8265C2.4455 7.67284 2.1365 7.36384 2.1365 6.98284C2.1365 6.60184 2.4455 6.29284 2.8265 6.29284H3.813L4.7065 4.73284C4.834 4.52734 5.0585 4.39234 5.3145 4.39234C5.321 4.39234 5.3275 4.39234 5.334 4.39284C5.3365 4.39284 5.338 4.39284 5.341 4.39284C5.597 4.39284 5.8195 4.53734 5.931 4.74934L5.933 4.75284L7.9995 8.62634L9.0995 6.62634C9.213 6.41084 9.4355 6.26634 9.6915 6.26634C9.6965 6.26634 9.702 6.26634 9.707 6.26634H13.1525C13.5335 6.26634 13.8425 6.57534 13.8425 6.95634C13.8425 7.33734 13.5335 7.64634 13.1525 7.64634H13.1735Z" fill="black"/>
</svg>
