<svg width="16" height="16" viewBox="0 0 16 16" fill="none" xmlns="http://www.w3.org/2000/svg">
<g clip-path="url(#clip0_245_123)">
<path fill-rule="evenodd" clip-rule="evenodd" d="M8 16C12.4185 16 16 12.4185 16 8C16 3.5815 12.4185 0 8 0C3.5815 0 0 3.5815 0 8C0 12.4185 3.5815 16 8 16ZM11.5735 10.4135L10.36 9.79349L10.3595 9.80649C9.9725 10.48 9.1995 10.98 8.326 10.98C7.146 10.98 6.206 10.3265 5.7795 9.30649H9.05949V8.49299H5.5595C5.5465 8.35299 5.533 8.20599 5.533 8.05949C5.533 7.89949 5.546 7.74599 5.5595 7.59949H9.05949V6.78599H5.786C6.213 5.77949 7.153 5.13949 8.3195 5.13949C9.193 5.13949 9.96649 5.64649 10.353 6.31299L11.5665 5.69299C10.96 4.71949 9.9535 3.87299 8.31999 3.87299C6.3665 3.87299 4.7665 5.01299 4.26 6.77949H3.62V7.59299H4.1065C4.0935 7.73949 4.08 7.89299 4.08 8.05299C4.08 8.19299 4.093 8.33999 4.1065 8.48649H3.62V9.29999H4.2535C4.767 11.08 6.36699 12.2335 8.32699 12.2335C9.96 12.2335 10.9535 11.38 11.5735 10.4135Z" fill="black"/>
</g>
<defs>
<clipPath id="clip0_245_123">
<rect width="16" height="16" fill="white"/>
</clipPath>
</defs>
</svg>
