<svg width="16" height="16" viewBox="0 0 16 16" fill="none" xmlns="http://www.w3.org/2000/svg">
<g clip-path="url(#clip0_6_314)">
<path d="M10.855 11.6143C10.149 12.0278 9.68195 12.7823 9.68195 13.6463C9.68195 14.9423 10.7325 15.9928 12.0285 15.9928C13.3245 15.9928 14.375 14.9423 14.375 13.6463C14.375 13.2148 14.2585 12.8103 14.0555 12.4633L14.0615 12.4743C13.6485 11.7673 12.893 11.2998 12.0285 11.2998C11.5965 11.2998 11.1915 11.4168 10.844 11.6203L10.855 11.6143Z" fill="black"/>
<path d="M14.582 0.841313C13.9135 0.321313 13.0625 0.0078125 12.138 0.0078125C11.003 0.0078125 9.97795 0.480812 9.24995 1.23981L8.18845 2.30131C7.00295 3.50431 6.27095 5.15631 6.27095 6.97981C6.27095 7.06231 6.27245 7.14431 6.27545 7.22631L6.27495 7.21431C6.27795 7.26181 6.27995 7.31681 6.27995 7.37281C6.27995 8.05531 6.00845 8.67481 5.56795 9.12831L3.66195 11.0343L3.11545 10.4878L0.00195312 13.5943L2.35545 15.9478L5.46895 12.8413L4.92245 12.2948L6.82895 10.3883C7.28195 9.94831 7.90145 9.67681 8.58395 9.67681C8.63945 9.67681 8.69495 9.67881 8.74945 9.68231L8.74195 9.68181C8.81195 9.68431 8.89395 9.68581 8.97645 9.68581C10.8 9.68581 12.4525 8.95381 13.656 7.76731L13.655 7.76831L14.835 6.61481C15.553 5.90931 15.998 4.92781 15.998 3.84231C15.998 2.63681 15.4495 1.55981 14.588 0.846812L14.582 0.841313ZM13.5885 5.32781L12.4085 6.50131C11.282 7.62131 9.30845 8.28131 8.49495 7.46131C7.68145 6.64131 8.32145 4.66131 9.45495 3.55481L10.495 2.48831C10.8995 2.04931 11.4775 1.77481 12.1195 1.77481C12.618 1.77481 13.078 1.94031 13.447 2.21881L13.4415 2.21481L13.6015 2.35481C13.985 2.73631 14.222 3.26431 14.222 3.84831C14.222 4.43231 13.9845 4.95981 13.6015 5.34131L13.5885 5.32781Z" fill="black"/>
</g>
<defs>
<clipPath id="clip0_6_314">
<rect width="16" height="16" fill="white"/>
</clipPath>
</defs>
</svg>
