<svg width="16" height="16" viewBox="0 0 16 16" fill="none" xmlns="http://www.w3.org/2000/svg">
<g clip-path="url(#clip0_6_447)">
<path d="M11.4265 2.2865L9.14 0C8.849 0.293 8.4455 0.4745 8 0.4745C7.5545 0.4745 7.151 0.293 6.86 0L0 6.86C0.293 7.151 0.4745 7.5545 0.4745 8C0.4745 8.4455 0.293 8.849 0 9.14L2.2865 11.4265C2.571 11.1745 2.947 11.0205 3.359 11.0205C4.2535 11.0205 4.979 11.746 4.979 12.6405C4.979 13.0525 4.825 13.429 4.5715 13.715L4.573 13.7135L6.8595 16C7.1505 15.707 7.554 15.5255 7.9995 15.5255C8.445 15.5255 8.8485 15.707 9.1395 16L15.9995 9.14C15.7065 8.849 15.525 8.4455 15.525 8C15.525 7.5545 15.7065 7.151 15.9995 6.86L13.713 4.5735C13.4285 4.8255 13.0525 4.9795 12.6405 4.9795C11.746 4.9795 11.0205 4.254 11.0205 3.3595C11.0205 2.9475 11.1745 2.571 11.428 2.285L11.4265 2.2865ZM7 10.14L6.14 11L5 9.86L5.86 9L7 10.14ZM9 8.14L8.14 9L7 7.86L7.86 7L9 8.14ZM11 6.14L10.14 7L9 5.86L9.86 5L11 6.14Z" fill="black"/>
</g>
<defs>
<clipPath id="clip0_6_447">
<rect width="16" height="16" fill="white"/>
</clipPath>
</defs>
</svg>
