<svg width="16" height="16" viewBox="0 0 16 16" fill="none" xmlns="http://www.w3.org/2000/svg">
<path d="M14.67 2.5H1.33C0.59 2.5 0 3.09129 0 3.81511V12.1747C0 12.8985 0.59 13.5 1.33 13.5H14.67C15.4 13.5 16 12.8985 16 12.1747V3.81511C16 3.09129 15.4 2.5 14.67 2.5ZM15.05 10.8596H14.65L14.59 10.8494C13.85 10.8494 13.24 11.4611 13.24 12.2155V12.5927L12.87 12.6233H2.73V12.2461C2.73 11.4611 2.13 10.8494 1.4 10.8494H0.96L0.98 5.27294H1.42C2.15 5.25255 2.73 4.65107 2.73 3.90686V3.51946L3.11 3.49907H13.24V3.88647C13.24 4.66126 13.85 5.26274 14.59 5.26274H15.05V10.8596ZM12.52 4.26367H3.45C3.29 5.1608 2.6 5.86423 1.73 6.00695L1.71 10.1154C2.6 10.2479 3.31 10.9615 3.45 11.8587H12.52C12.68 10.9411 13.4 10.2377 14.3 10.1052V6.01715C13.4 5.88462 12.68 5.17099 12.52 4.26367ZM9.54 9.95227C9.25 10.2071 8.85 10.3601 8.32 10.4008V11.1043H7.67V10.4008C7.15 10.3499 6.75 10.1867 6.45 9.9013C6.16 9.62604 6.01 9.23865 6.01 8.74931H7.45C7.45 8.96339 7.5 9.11631 7.62 9.23865C7.73 9.34059 7.87 9.40176 8.05 9.40176C8.2 9.40176 8.32 9.36098 8.4 9.28962C8.49 9.21826 8.53 9.12651 8.53 9.00417C8.53 8.88183 8.47 8.77989 8.35 8.70853C8.24 8.63716 8.05 8.55561 7.8 8.45366C7.58 8.36191 7.36 8.28035 7.16 8.1988C6.95 8.11724 6.78 8.02549 6.62 7.90315C6.47 7.79101 6.35 7.65848 6.25 7.50556C6.16 7.35264 6.12 7.14875 6.12 6.91427C6.12 6.71038 6.16 6.52688 6.24 6.37396C6.33 6.22104 6.44 6.08851 6.57 5.97637C6.72 5.87442 6.89 5.79286 7.08 5.7317C7.27 5.67053 7.46 5.61956 7.67 5.59917V4.90593H8.32V5.59917C8.62 5.62975 8.88 5.69092 9.07 5.79286C9.28 5.87442 9.45 5.99676 9.57 6.13948C9.69 6.27201 9.78 6.41474 9.83 6.58804C9.88 6.75116 9.91 6.91427 9.91 7.07739H8.48C8.48 6.68999 8.32 6.50649 8 6.50649C7.88 6.50649 7.78 6.53707 7.69 6.58804C7.6 6.64921 7.56 6.74096 7.56 6.8633C7.56 6.98563 7.62 7.07739 7.73 7.15894C7.84 7.2405 8 7.32206 8.22 7.39342C8.43 7.46478 8.64 7.53614 8.84 7.6177C9.05 7.68906 9.24 7.79101 9.41 7.90315C9.58 8.01529 9.72 8.15802 9.82 8.32113C9.92 8.48424 9.98 8.68814 9.98 8.91242C9.98 9.35079 9.83 9.6974 9.54 9.95227Z" fill="black"/>
</svg>
