<svg width="16" height="16" viewBox="0 0 16 16" fill="none" xmlns="http://www.w3.org/2000/svg">
<path d="M5.9996 0C6.30082 0 6.54502 0.236349 6.54502 0.527895V2.63948C6.54502 2.93102 6.30082 3.16737 5.9996 3.16737C5.69837 3.16737 5.45418 2.93102 5.45418 2.63948V0.527895C5.45418 0.236349 5.69837 0 5.9996 0ZM1.75724 1.70078C1.97025 1.49463 2.31558 1.49463 2.52858 1.70078L4.07125 3.1939C4.28426 3.40006 4.28426 3.7343 4.07125 3.94045C3.85825 4.1466 3.51292 4.1466 3.29992 3.94045L1.75724 2.44734C1.54424 2.24119 1.54424 1.90694 1.75724 1.70078ZM10.242 1.70078C10.4549 1.90694 10.4549 2.24119 10.242 2.44734L8.69928 3.94045C8.48628 4.14662 8.14094 4.14662 7.92795 3.94045C7.71494 3.7343 7.71494 3.40006 7.92795 3.1939L9.47064 1.70078C9.68357 1.49463 10.0289 1.49463 10.242 1.70078ZM0 5.80684C0 5.5153 0.244195 5.27895 0.545418 5.27895H2.72709C3.02831 5.27895 3.27251 5.5153 3.27251 5.80684C3.27251 6.09839 3.02831 6.33474 2.72709 6.33474H0.545418C0.244195 6.33474 0 6.09839 0 5.80684ZM5.66164 5.69328V15.4711C5.66164 15.9413 6.24913 16.1769 6.59272 15.8443L9.38597 13.1409C9.79514 12.7448 10.35 12.5224 10.9286 12.5224H14.4536C14.9708 12.5224 15.1975 11.8904 14.7915 11.5802L6.54502 5.27895C6.18734 5.00565 5.66164 5.25223 5.66164 5.69328Z" fill="black"/>
</svg>
