<svg width="16" height="16" viewBox="0 0 16 16" fill="none" xmlns="http://www.w3.org/2000/svg">
<path d="M3.5876 6.18738H12.9126C13.2371 6.18738 13.5001 5.92438 13.5001 5.59988V4.77488C13.5001 4.45038 13.2371 4.18738 12.9126 4.18738H5.6626L5.9976 3.18738C6.1206 2.82438 6.4586 2.56738 6.8566 2.56738C6.8561 2.56738 6.8571 2.56738 6.8566 2.56738H12.3751C12.7201 2.56738 13.0001 2.28738 13.0001 1.94238C13.0001 1.59738 12.7201 1.31738 12.3751 1.31738H6.8551C6.8541 1.31738 6.8536 1.31738 6.8526 1.31738C5.9056 1.31738 5.1016 1.92788 4.8121 2.77738L4.8076 2.79238L4.3401 4.19238H3.5901C3.5891 4.19238 3.5886 4.19238 3.5876 4.19238C3.2651 4.19238 3.0031 4.45238 3.0001 4.77438V5.59988C3.0001 5.92438 3.2631 6.18738 3.5876 6.18738Z" fill="black"/>
<path d="M3.7501 14.6874H12.2501C14.1431 14.6854 15.7076 13.2809 15.9606 11.4569L15.9626 11.4374H0.0375977C0.292598 13.2809 1.8571 14.6854 3.7501 14.6874Z" fill="black"/>
<path d="M12.2501 7.18738H3.7501C1.8571 7.18938 0.292598 8.59388 0.0395977 10.4179L0.0375977 10.4374H15.9626C15.7076 8.59388 14.1431 7.18938 12.2501 7.18738Z" fill="black"/>
</svg>
