<svg width="16" height="16" viewBox="0 0 16 16" fill="none" xmlns="http://www.w3.org/2000/svg">
<g clip-path="url(#clip0_245_125)">
<path fill-rule="evenodd" clip-rule="evenodd" d="M8 16C12.4185 16 16 12.4185 16 8C16 3.5815 12.4185 0 8 0C3.5815 0 0 3.5815 0 8C0 12.4185 3.5815 16 8 16ZM9.05998 4.86689H11L11.007 4.85389V3.90039H5.00048V5.30039H6.87398C7.48698 5.30039 7.92698 5.56689 8.10048 6.04689H5.00048V7.01339H8.06698C7.89348 7.47989 7.45348 7.77339 6.85348 7.77339H4.97998V9.17339H6.29348L7.89998 12.0799H9.91348L8.05998 8.96639C8.84648 8.78639 9.66648 8.14639 9.82648 7.01989H10.993V6.05339H9.80648C9.69998 5.58039 9.43998 5.17339 9.05998 4.86689Z" fill="black"/>
</g>
<defs>
<clipPath id="clip0_245_125">
<rect width="16" height="16" fill="white"/>
</clipPath>
</defs>
</svg>
