<svg width="16" height="16" viewBox="0 0 16 16" fill="none" xmlns="http://www.w3.org/2000/svg">
<g clip-path="url(#clip0_6_306)">
<path d="M8.7973 10.88L8.1398 12.4525C6.1098 11.355 4.5573 9.8525 3.5648 7.8775L5.1373 7.22C5.6748 6.72 2.3073 3.085 1.7698 3.5725L0.499801 5.355C0.192301 5.8035 0.00830078 6.3575 0.00830078 6.955C0.00830078 7.574 0.205301 8.1465 0.540301 8.614L0.534301 8.6055C2.3893 11.333 4.6768 13.613 7.3228 15.404L7.4118 15.4605C7.8753 15.798 8.4563 16.0005 9.0843 16.0005C9.6803 16.0005 10.2333 15.8185 10.6918 15.5065L10.6818 15.513L12.4443 14.2505C12.9293 13.713 9.2823 10.345 8.7973 10.88Z" fill="black"/>
<path d="M7.3123 0H7.2498V1H7.3123C11.5563 1.0045 14.9953 4.4435 14.9998 8.687C14.9998 8.707 14.9998 8.73 14.9998 8.75H15.9998C15.9998 8.73 15.9998 8.7075 15.9998 8.6875C15.9943 3.892 12.1073 0.0055 7.3123 0Z" fill="black"/>
<path d="M7.3123 2.52H7.2498V3.52H7.3123C10.1653 3.523 12.4768 5.8345 12.4798 8.687C12.4798 8.707 12.4798 8.73 12.4798 8.75H13.4798V8.6875C13.4753 5.283 10.7163 2.5245 7.3123 2.52Z" fill="black"/>
<path d="M7.3123 5.0375H7.2498V6.0375H7.3123C8.7748 6.0405 9.9593 7.225 9.9623 8.687C9.9628 8.6965 9.9633 8.708 9.9633 8.719C9.9633 8.73 9.9628 8.741 9.9623 8.7515V8.75H10.9623C10.9623 8.73 10.9623 8.7075 10.9623 8.6875C10.9593 6.673 9.3263 5.0405 7.3123 5.0375Z" fill="black"/>
</g>
<defs>
<clipPath id="clip0_6_306">
<rect width="16" height="16" fill="white"/>
</clipPath>
</defs>
</svg>
