<svg width="16" height="16" viewBox="0 0 16 16" fill="none" xmlns="http://www.w3.org/2000/svg">
<g clip-path="url(#clip0_6_577)">
<path d="M13.1065 16H16V13.1065L13.1065 16Z" fill="black"/>
<path d="M2.8265 0L0 2.9665L2.8935 2.893L2.8265 0Z" fill="black"/>
<path d="M5.6935 7.8265C5.027 8.34 4.4135 8.593 4.0135 8.2C3.4735 7.66 4.127 6.6735 5.3935 5.4065C6.66 4.1395 7.647 3.4865 8.187 4C8.567 4.3735 8.387 4.86 7.9335 5.5335L10.0335 6.5335C10.66 5.3935 11.367 3.76 9.9135 2.3C8.067 0.46 5.66 1.1665 3.407 3.42C1.154 5.6735 0.447 8.0865 2.2935 9.92C3.7935 11.4265 5.56 10.5865 6.667 9.92L5.6935 7.8265Z" fill="black"/>
<path d="M15.1935 11.6935C15.82 10.5535 16.527 8.92 15.067 7.46C13.227 5.62 10.8205 6.3265 8.567 8.58C6.3135 10.8335 5.607 13.2465 7.4535 15.08C8.9535 16.58 10.72 15.7465 11.82 15.08L10.8535 13C10.187 13.52 9.5735 13.7735 9.1735 13.38C8.6335 12.84 9.287 11.8535 10.5535 10.5865C11.82 9.3195 12.807 8.6665 13.3335 9.1865C13.7135 9.56 13.5335 10.0465 13.08 10.72L15.1935 11.6935Z" fill="black"/>
</g>
<defs>
<clipPath id="clip0_6_577">
<rect width="16" height="16" fill="white"/>
</clipPath>
</defs>
</svg>
