<svg width="16" height="16" viewBox="0 0 16 16" fill="none" xmlns="http://www.w3.org/2000/svg">
<g clip-path="url(#clip0_6_532)">
<path d="M5.49996 14.54C5.32646 14.5 5.21996 14.38 5.11346 14.2465C3.67996 12.46 2.24696 10.673 0.813459 8.88648C0.599959 8.61998 0.393459 8.35298 0.179959 8.08648C0.0599592 7.93298 -4.07984e-05 7.76648 -4.07984e-05 7.55998C-4.07984e-05 5.59348 -4.07984e-05 3.62648 -4.07984e-05 1.65348C-4.07984e-05 1.61998 -0.0065408 1.58698 -4.07984e-05 1.55998C0.0134592 1.51998 0.0334592 1.46648 0.0599592 1.45998C0.0934592 1.45348 0.139959 1.47998 0.166459 1.50648C0.192959 1.52648 0.212959 1.55998 0.232959 1.58648C2.81296 4.81998 5.39296 8.05998 7.97296 11.3C8.77296 12.3065 9.56646 13.32 10.3665 14.3265C10.413 14.3865 10.4465 14.4665 10.4865 14.533H5.49296L5.49996 14.54Z" fill="black"/>
<path d="M16 1.47998V1.66648C16 3.60648 16 5.53998 16 7.47998C16 7.68648 15.9335 7.85998 15.8135 8.01998C15.3335 8.63348 14.847 9.25348 14.36 9.85998C14.2465 10.0065 14.0935 10.0865 13.9 10.0865C12.34 10.0865 10.78 10.0865 9.21346 10.0865C9.16696 10.0865 9.11346 10.06 9.07996 10.033C9.06646 10.0195 9.08646 9.94648 9.11346 9.91298C9.31996 9.66648 9.52696 9.41948 9.73346 9.17298C11.1335 7.41948 12.5335 5.67298 13.927 3.91948C14.5335 3.15298 15.1335 2.38598 15.7335 1.61298C15.7935 1.53298 15.8335 1.41948 15.9935 1.48648L16 1.47998Z" fill="black"/>
</g>
<defs>
<clipPath id="clip0_6_532">
<rect width="16" height="16" fill="white"/>
</clipPath>
</defs>
</svg>
