<svg width="16" height="16" viewBox="0 0 16 16" fill="none" xmlns="http://www.w3.org/2000/svg">
<path d="M13.5098 7.393C12.4823 4.527 10.3048 1.953 7.99979 0C5.69479 1.9535 3.51729 4.527 2.48979 7.393C1.85429 9.1655 1.79179 11.0895 2.68629 12.79C3.71529 14.7455 5.78979 16 7.99929 16C10.2088 16 12.2838 14.7455 13.3123 12.79C14.2073 11.0895 14.1443 9.1655 13.5088 7.393H13.5098ZM11.5428 11.8585C10.8583 13.1595 9.46779 14 7.99979 14C7.13829 14 6.30429 13.7105 5.62329 13.2085C5.83029 13.2355 6.03929 13.25 6.25029 13.25C8.08529 13.25 9.82329 12.2 10.6783 10.5745C11.3793 9.242 11.3188 7.858 11.0513 6.7565C11.2788 7.1965 11.4718 7.6345 11.6268 8.068C11.9798 9.0535 12.2523 10.511 11.5428 11.8585Z" fill="black"/>
</svg>
