<svg width="16" height="16" viewBox="0 0 16 16" fill="none" xmlns="http://www.w3.org/2000/svg">
<path d="M15.6998 1.91C15.6998 1.907 15.6998 1.9035 15.6998 1.9C15.6998 1.6825 15.5263 1.5055 15.3103 1.5H0.689805C0.473305 1.5055 0.299805 1.6825 0.299805 1.9C0.299805 1.9035 0.299805 1.907 0.299805 1.9105V14C0.299805 14.004 0.299805 14.008 0.299805 14.0125C0.299805 14.2285 0.472305 14.4045 0.686805 14.41H15.3123C15.5293 14.403 15.7023 14.2255 15.7023 14.0075C15.7023 14.005 15.7023 14.002 15.7023 13.9995C15.699 9.96617 15.6981 5.93667 15.6998 1.91ZM12.9498 8.41C12.9198 8.432 12.8978 8.463 12.8878 8.499L12.8873 8.5C12.8748 8.5345 12.8428 8.5585 12.8048 8.5585C12.7893 8.5585 12.7748 8.5545 12.7618 8.5475C12.7243 8.5275 12.7073 8.5475 12.6948 8.5775C12.6888 8.6235 12.6503 8.6585 12.6028 8.6585C12.5848 8.6585 12.5683 8.6535 12.5543 8.6445C12.5293 8.6445 12.5148 8.6445 12.4973 8.6445L11.9573 8.907C11.9323 8.907 11.9098 8.9245 11.9123 8.9695C11.9148 9.0145 11.8223 9.057 11.7848 9.0295C11.7473 9.002 11.7148 9.0095 11.7048 9.067C11.6948 9.1245 11.6123 9.167 11.5698 9.127C11.5273 9.087 11.5348 9.127 11.5148 9.127C11.4983 9.132 11.4788 9.1345 11.4593 9.1345C11.3493 9.1345 11.2593 9.05 11.2503 8.9425V8.9415C11.2503 8.874 11.2278 8.804 11.2203 8.7365C11.2203 8.678 11.1753 8.6295 11.1183 8.624C10.8518 8.57 10.5453 8.539 10.2318 8.539C10.2163 8.539 10.2008 8.539 10.1853 8.539H10.1878C10.0678 8.549 9.9288 8.555 9.7878 8.555C9.6468 8.555 9.5078 8.549 9.3698 8.538L9.3878 8.539C9.2078 8.5235 9.0458 8.4605 8.9098 8.362L8.9128 8.364C8.8098 8.286 8.6798 8.239 8.5383 8.239C8.5328 8.239 8.5273 8.239 8.5218 8.239C8.1368 8.239 7.7528 8.2215 7.3678 8.209C7.3228 8.209 7.2928 8.209 7.2878 8.2715C7.2828 8.334 7.2528 8.3215 7.2153 8.3215C6.8053 8.3215 6.3928 8.3215 5.9828 8.3215H5.2028L5.4528 8.4565C5.4883 8.47 5.5128 8.5035 5.5128 8.543C5.5128 8.5425 5.5128 8.5435 5.5128 8.543C5.5403 8.8255 5.5678 9.109 5.6003 9.3915C5.6003 9.439 5.6003 9.459 5.5503 9.4615C5.5003 9.464 5.4978 9.494 5.5003 9.5415C5.5403 9.9315 5.5578 10.3215 5.5628 10.714C5.5633 10.7215 5.5633 10.7305 5.5633 10.7395C5.5633 10.9235 5.4708 11.086 5.3293 11.183L5.3273 11.184C5.2198 11.26 5.0958 11.3375 4.9668 11.407L4.9473 11.4165C4.9198 11.4315 4.8898 11.439 4.9123 11.4865C4.9348 11.534 4.8873 11.5365 4.8623 11.549C4.5448 11.709 4.2173 11.8365 3.8898 11.964C3.3618 12.145 2.9298 12.326 2.5113 12.5305L2.5823 12.499C2.2488 12.661 1.9703 12.8885 1.7538 13.1665L1.7498 13.1715C1.7093 13.227 1.6698 13.291 1.6343 13.3575L1.6298 13.3665C1.6088 13.4125 1.5638 13.4435 1.5113 13.4435C1.4938 13.4435 1.4768 13.44 1.4618 13.4335L1.4628 13.434C1.3978 13.4165 1.3503 13.3585 1.3503 13.289C1.3503 13.288 1.3503 13.2875 1.3503 13.2865C1.3503 13.214 1.3753 13.139 1.3128 13.0715C1.3038 13.0565 1.2983 13.039 1.2983 13.0195C1.2983 12.9895 1.3118 12.9625 1.3328 12.944C1.3638 12.9125 1.3833 12.869 1.3833 12.821C1.3833 12.7995 1.3793 12.779 1.3723 12.76L1.3728 12.761C1.3663 12.7475 1.3628 12.731 1.3628 12.714C1.3628 12.668 1.3903 12.6285 1.4298 12.611C1.4388 12.607 1.4468 12.6005 1.4528 12.593C1.5453 12.4415 1.6368 12.3115 1.7358 12.188L1.7303 12.1955C1.7578 12.153 1.7878 12.118 1.7628 12.053C1.7608 12.045 1.7593 12.036 1.7593 12.0265C1.7593 11.985 1.7838 11.949 1.8198 11.933C1.8493 11.921 1.8703 11.8915 1.8703 11.8585C1.8703 11.8465 1.8678 11.835 1.8628 11.8245C1.8613 11.8175 1.8603 11.81 1.8603 11.802C1.8603 11.7525 1.8908 11.71 1.9343 11.693L1.9353 11.6925C1.9353 11.6925 1.9603 11.6925 1.9653 11.6925C2.0853 11.58 2.1978 11.63 2.3178 11.6925C2.3933 11.741 2.4858 11.77 2.5853 11.77C2.7358 11.77 2.8708 11.7035 2.9623 11.598C3.1973 11.3755 3.4253 11.1425 3.6703 10.93C3.8218 10.7895 3.9933 10.668 4.1798 10.571L4.1928 10.565C4.2658 10.5295 4.3503 10.505 4.4393 10.4955L4.4428 10.495C4.3603 10.2875 4.2803 10.0825 4.2128 9.875C4.1768 9.7795 4.14331 9.663 4.1183 9.5435L4.1153 9.5275C4.1153 9.4775 4.0853 9.455 4.0403 9.4525C4.0393 9.4525 4.0378 9.4525 4.0363 9.4525C3.9873 9.4525 3.9463 9.417 3.9378 9.3705C3.7438 8.745 3.6318 8.025 3.6318 7.2795C3.6318 7.235 3.6323 7.19 3.6328 7.1455V7.152C3.6328 7.1095 3.6328 7.0645 3.6478 7.0095L3.5453 7.0545C3.5298 7.0055 3.5208 6.9495 3.5208 6.8915C3.5208 6.861 3.5233 6.8305 3.5278 6.8015L3.5273 6.8045C3.5823 6.099 3.7023 5.4465 3.8818 4.8195L3.8648 4.8895C3.9173 4.6995 3.9973 4.5595 4.1923 4.5195C4.2443 4.5055 4.2898 4.4815 4.3278 4.449L3.9723 4.422C3.7748 4.4045 3.5748 4.392 3.3773 4.372C3.3708 4.371 3.3633 4.3705 3.3558 4.3705C3.3118 4.3705 3.2723 4.3895 3.2448 4.4195C2.8998 4.7295 2.5748 5.0295 2.2498 5.322C2.1598 5.3965 2.0948 5.499 2.0678 5.616L2.0673 5.6195C2.0533 5.6705 2.0243 5.7135 1.9853 5.744C1.8448 5.889 1.6568 5.9885 1.4468 6.0165L1.4423 6.017C1.4223 6.0215 1.3998 6.024 1.3763 6.024C1.3303 6.024 1.2868 6.014 1.2478 5.996L1.2498 5.997C1.1873 5.9595 1.1848 5.9145 1.2498 5.8695L1.4573 5.707L1.5398 5.6395C1.4898 5.6045 1.4673 5.6395 1.4448 5.6395C1.3853 5.6665 1.3163 5.6865 1.2438 5.6965L1.2398 5.697C1.2373 5.6975 1.2348 5.6975 1.2318 5.6975C1.2013 5.6975 1.1758 5.6745 1.1723 5.645C1.1688 5.637 1.1668 5.6275 1.1668 5.618C1.1668 5.59 1.1833 5.566 1.2068 5.555L1.2998 5.515C1.4273 5.4695 1.5318 5.3865 1.6033 5.2795L1.6048 5.2775C1.6633 5.182 1.7613 5.116 1.8758 5.1025H1.8773C1.9173 5.1025 1.9298 5.07 1.9473 5.045C2.2748 4.605 2.6048 4.1625 2.9473 3.745C3.0108 3.659 3.1118 3.604 3.2253 3.604C3.2338 3.604 3.2423 3.6045 3.2508 3.605C3.3108 3.605 3.3348 3.59 3.3373 3.5325C3.3398 3.475 3.3798 3.46 3.4273 3.4575C3.7073 3.4235 4.0313 3.404 4.3603 3.404C4.5398 3.404 4.7173 3.41 4.8938 3.421L4.8698 3.42C5.0308 3.43 5.1808 3.4555 5.3248 3.496L5.3098 3.4925C5.3698 3.5125 5.3923 3.51 5.3923 3.435C5.3923 3.4345 5.3923 3.4355 5.3923 3.435C5.3923 3.299 5.4173 3.1675 5.4623 3.0475L5.4598 3.055C5.5448 2.756 5.8158 2.5405 6.1368 2.5405C6.1873 2.5405 6.2368 2.546 6.2843 2.556L6.2798 2.555C6.5503 2.6125 6.7758 2.7735 6.9173 2.9935L6.9198 2.9975C6.9728 3.066 7.0043 3.1525 7.0043 3.247C7.0043 3.309 6.9908 3.3675 6.9663 3.42L6.9673 3.4175C6.9308 3.506 6.9098 3.609 6.9098 3.717C6.9098 3.772 6.9153 3.8255 6.9258 3.8775L6.9248 3.8725C6.9398 3.985 6.9523 4.0875 6.8298 4.1475C6.8048 4.16 6.7898 4.195 6.7723 4.2225C6.7283 4.299 6.6843 4.3895 6.6473 4.483L6.6423 4.4975C6.5823 4.6425 6.5823 4.6425 6.4273 4.63L6.1998 4.6125C6.1948 4.611 6.1893 4.61 6.1833 4.61C6.1558 4.61 6.1333 4.629 6.1273 4.6545C5.8998 5.131 5.7078 5.6875 5.5793 6.2675L5.5698 6.32C5.5498 6.43 5.5498 6.4275 5.6573 6.445L7.3823 6.695C7.4188 6.695 7.4483 6.724 7.4498 6.76C7.4513 6.8085 7.4908 6.8475 7.5398 6.8475C7.9443 6.909 8.3083 7.0225 8.6463 7.1825L8.6223 7.1725C8.6663 7.189 8.7168 7.1985 8.7703 7.1985C8.7808 7.1985 8.7913 7.198 8.8013 7.1975H8.7998C8.8243 7.196 8.8523 7.195 8.8808 7.195C9.0123 7.195 9.1393 7.214 9.2588 7.25L9.2493 7.2475C9.2493 7.2475 9.2743 7.2475 9.2793 7.2475C9.3493 7.1725 9.4168 7.2325 9.4793 7.2475C9.8593 7.3825 10.2293 7.5675 10.5868 7.73C11.1748 7.997 11.8603 8.158 12.5823 8.17H12.5868C12.6838 8.17 12.7793 8.1755 12.8733 8.186L12.8618 8.185C12.9168 8.1935 12.9623 8.226 12.9888 8.2715L12.9893 8.2725C13.0023 8.288 13.0108 8.3085 13.0108 8.3305C13.0108 8.369 12.9868 8.402 12.9528 8.4145L12.9498 8.41ZM13.9873 7.91C13.9738 7.9105 13.9583 7.911 13.9423 7.911C13.4453 7.911 13.0423 7.508 13.0423 7.011C13.0423 6.514 13.4453 6.111 13.9423 6.111C14.4393 6.111 14.8423 6.514 14.8423 7.011C14.8423 7.0115 14.8423 7.012 14.8423 7.0125C14.8428 7.0225 14.8428 7.034 14.8428 7.0455C14.8428 7.5175 14.4688 7.9025 14.0013 7.92H13.9998L13.9873 7.91Z" fill="black"/>
</svg>
