<svg width="16" height="16" viewBox="0 0 16 16" fill="none" xmlns="http://www.w3.org/2000/svg">
<g clip-path="url(#clip0_6_414)">
<path d="M7.60696 11.8696C7.28296 12.4756 6.76596 12.9431 6.13946 13.1961L6.11996 13.2031C5.86646 13.2946 5.57446 13.3476 5.26996 13.3476C4.85096 13.3476 4.45496 13.2476 4.10546 13.0696L4.11996 13.0766C3.49496 12.7776 3.01896 12.2516 2.79196 11.6081L2.78646 11.5901C2.69346 11.3331 2.63946 11.0361 2.63946 10.7266C2.63946 10.3131 2.73546 9.92209 2.90646 9.57459L2.89946 9.59009C3.00496 9.40359 3.06696 9.18059 3.06696 8.94359C3.06696 8.70659 3.00496 8.48309 2.89596 8.29009L2.89946 8.29659C2.66496 7.89409 2.23546 7.62759 1.74346 7.62759C1.20396 7.62759 0.739455 7.94759 0.529455 8.40859L0.525955 8.41709C0.188955 9.09259 -0.00854492 9.88859 -0.00854492 10.7306C-0.00854492 13.6436 2.35295 16.0051 5.26595 16.0051C7.33696 16.0051 9.12895 14.8116 9.99195 13.0746L14.106 4.12409L12.3125 3.23059C10.799 6.10409 8.67245 10.1171 7.60596 11.8706L7.60696 11.8696Z" fill="black"/>
<path d="M14.007 -0.00390625C14.007 -0.00390625 13.5805 0.822594 12.9335 2.04959L14.6735 2.91609L16.007 -0.00390625H14.007Z" fill="black"/>
<path d="M7.50696 9.01609C8.20946 8.60509 8.67395 7.85459 8.67395 6.99509C8.67395 5.70659 7.62946 4.66159 6.34046 4.66159C5.05146 4.66159 4.00696 5.70609 4.00696 6.99509C4.00696 7.42509 4.12346 7.82759 4.32596 8.17359L4.31996 8.16259C4.73096 8.86459 5.48146 9.32859 6.33996 9.32859C6.76946 9.32859 7.17196 9.21259 7.51746 9.01009L7.50696 9.01609Z" fill="black"/>
</g>
<defs>
<clipPath id="clip0_6_414">
<rect width="16" height="16" fill="white"/>
</clipPath>
</defs>
</svg>
