<svg width="16" height="16" viewBox="0 0 16 16" fill="none" xmlns="http://www.w3.org/2000/svg">
<g clip-path="url(#clip0_6_362)">
<path d="M14.4667 1.00048L14.9267 0.333984H13.7867C9.82669 0.333984 9.78669 5.83398 7.70019 5.83398C5.74019 5.83398 3.44669 5.96048 2.80019 7.34748C2.10469 7.48848 1.55719 8.00248 1.37019 8.66748L1.36719 8.68048C0.887191 10.227 0.0336914 10.214 0.0336914 10.214V12.994C1.42719 12.994 2.35369 10.5675 2.78719 9.09398C3.08069 9.90749 3.68719 10.474 3.66069 10.694C3.62069 11.034 2.63419 12.0805 2.63419 12.0805V16.0005H3.43419C3.43419 16.0005 3.54069 12.814 3.78769 12.527C4.03469 12.24 5.92769 10.967 6.20119 9.46698C6.20119 9.46698 10.1412 9.80048 11.3612 7.66698H12.5812C12.5812 7.66698 11.7547 9.58048 10.5347 9.58048L10.1412 10.667C10.1412 10.667 14.6277 10.107 14.6277 6.60698C14.6277 6.60698 13.1877 6.03348 13.1877 3.64048C13.1877 3.64048 13.6877 5.08698 14.7942 4.61398L15.3677 5.52048L16.0012 4.62698L14.4667 1.00048Z" fill="black"/>
</g>
<defs>
<clipPath id="clip0_6_362">
<rect width="16" height="16" fill="white"/>
</clipPath>
</defs>
</svg>
