<svg width="16" height="16" viewBox="0 0 16 16" fill="none" xmlns="http://www.w3.org/2000/svg">
<g clip-path="url(#clip0_6_378)">
<path d="M6.6665 0.186023L0.1865 6.66602C0.071 6.06652 0.003 5.37502 0 4.66852V4.66602C0.002 3.24752 0.266 1.89152 0.746 0.642023L0.72 0.719023C1.892 0.265023 3.248 0.00102344 4.666 -0.000976562C5.375 0.00202344 6.0675 0.0700234 6.7375 0.197023L6.6665 0.186023ZM15.82 9.33302L9.3335 15.8195C9.934 15.9325 10.6255 15.998 11.332 15.9995H11.3335C12.752 15.9975 14.108 15.7335 15.3575 15.2535L15.2805 15.2795C15.7345 14.1075 15.9985 12.7515 16.0005 11.3335C15.999 10.6255 15.9335 9.93302 15.8095 9.26202L15.82 9.33302ZM15.3335 7.50602L7.507 15.3325C4.3115 14.163 1.8365 11.688 0.6925 8.57102L0.667 8.49252L8.4935 0.666023C11.689 1.83552 14.164 4.31052 15.308 7.42752L15.3335 7.50602ZM11.5465 8.23952C11.425 8.11352 11.255 8.03552 11.0665 8.03552C10.878 8.03552 10.708 8.11352 10.5865 8.23952L10.1265 8.69952L9.193 7.77302L9.6595 7.30652C9.7795 7.18252 9.8535 7.01302 9.8535 6.82652C9.8535 6.44502 9.5445 6.13602 9.163 6.13602C8.968 6.13602 8.792 6.21652 8.6665 6.34652L8.1995 6.81352L7.333 5.88002L7.793 5.42002C7.9165 5.29752 7.993 5.12752 7.993 4.94002C7.993 4.56652 7.69 4.26352 7.3165 4.26352C7.1305 4.26352 6.962 4.33852 6.84 4.46002L4.46 6.80652C4.3385 6.92902 4.2635 7.09702 4.2635 7.28302C4.2635 7.65652 4.5665 7.95952 4.94 7.95952C5.1275 7.95952 5.2975 7.88302 5.42 7.75952L5.88 7.33302L6.8135 8.25952L6.3535 8.72602C6.2405 8.84602 6.1715 9.00802 6.1715 9.18602C6.1715 9.55702 6.4725 9.85802 6.8435 9.85802C7.0365 9.85802 7.2105 9.77652 7.333 9.64652L7.8 9.18602L8.7265 10.1195L8.2665 10.5795C8.143 10.702 8.0665 10.872 8.0665 11.0595C8.0665 11.433 8.3695 11.736 8.743 11.736C8.929 11.736 9.0975 11.661 9.2195 11.5395L11.566 9.19302C11.682 9.07302 11.7535 8.90952 11.7535 8.72952C11.7535 8.53602 11.671 8.36202 11.5395 8.24002L11.5465 8.23952Z" fill="black"/>
</g>
<defs>
<clipPath id="clip0_6_378">
<rect width="16" height="16" fill="white"/>
</clipPath>
</defs>
</svg>
