<svg width="16" height="16" viewBox="0 0 16 16" fill="none" xmlns="http://www.w3.org/2000/svg">
<path d="M16 11.5376L15.9085 1L2.64179 1.03976V6.81206C2.77362 6.76475 2.94928 6.71744 3.08111 6.71744C3.21295 6.67053 3.76816 6.63918 3.9 6.63918V2.23596H14.7124V5.51082L10.4632 8.89135L6.24482 5.51082L4.66277 6.67053C5.27814 6.81206 5.80549 7.04822 6.33284 7.42631C7.43136 8.27711 8.13436 9.60021 8.13436 11.1595C8.13436 11.5376 8.09054 11.9157 8.00252 12.2934C7.9587 12.4353 7.9145 12.6241 7.87068 12.7661C7.82687 12.908 7.73885 13.0968 7.69503 13.2388H15.986V11.7622C15.995 11.6886 16 11.6139 16 11.5376Z" fill="black"/>
<path d="M10.5951 6.81405C11.4444 6.81405 12.1329 6.07358 12.1329 5.16016C12.1329 4.24675 11.4444 3.50628 10.5951 3.50628C9.74573 3.50628 9.05722 4.24675 9.05722 5.16016C9.05722 6.07358 9.74573 6.81405 10.5951 6.81405Z" fill="black"/>
<path d="M3.6771 7.4597C1.65456 7.4597 0 9.15613 0 11.2299C0 13.3036 1.65456 15 3.6771 15C5.69963 15 7.35419 13.3032 7.35419 11.2299C7.35419 9.15653 5.69963 7.4597 3.6771 7.4597ZM3.65732 13.2165L1.52466 10.8311H2.59758C2.60534 10.8378 2.6127 10.845 2.62007 10.8526L3.2176 11.5447V9.34458H4.13659V11.5447L4.73412 10.8526H5.78998L3.65732 13.2165Z" fill="black"/>
</svg>
