<svg width="16" height="16" viewBox="0 0 16 16" fill="none" xmlns="http://www.w3.org/2000/svg">
<g clip-path="url(#clip0_6_371)">
<path d="M10.3598 5.3335L8.7798 8.2335L5.9263 6.807C5.7538 6.7195 5.5503 6.6685 5.3348 6.6685C4.8528 6.6685 4.4303 6.9245 4.1963 7.3075L4.1928 7.3135L0.192801 13.98C0.0768008 14.1735 0.00830078 14.4075 0.00830078 14.657C0.00830078 15.1445 0.269801 15.5705 0.660301 15.8035L0.666301 15.807C0.855801 15.926 1.0858 15.9975 1.3323 16.0005C1.8173 15.995 2.2403 15.731 2.4693 15.34L2.4728 15.3335L5.8393 9.727L8.7393 11.1735C8.9183 11.269 9.1308 11.325 9.3563 11.325C9.8438 11.325 10.2698 11.0635 10.5028 10.673L10.5063 10.667L12.6998 6.667C11.7578 6.4965 10.9488 6.017 10.3643 5.339L10.3598 5.3335Z" fill="black"/>
<path d="M15.9998 2.6665C15.9998 4.1395 14.8058 5.333 13.3333 5.333C11.8608 5.333 10.6668 4.139 10.6668 2.6665C10.6668 1.1935 11.8608 0 13.3333 0C14.8058 0 15.9998 1.194 15.9998 2.6665Z" fill="black"/>
</g>
<defs>
<clipPath id="clip0_6_371">
<rect width="16" height="16" fill="white"/>
</clipPath>
</defs>
</svg>
