<svg width="16" height="16" viewBox="0 0 16 16" fill="none" xmlns="http://www.w3.org/2000/svg">
<path d="M4 7C1.8 7 0 8.8 0 11C0 13.2 1.8 15 4 15C6.2 15 8 13.2 8 11C8 8.8 6.2 7 4 7ZM5.85 11.3L4.35 12.85C4.3 12.9 4.25 12.95 4.2 12.95C4.15 13 4.05 13 4 13C3.95 13 3.85 13 3.8 12.95C3.75 12.9 3.7 12.9 3.65 12.85L2.15 11.3C1.95 11.1 1.95 10.8 2.15 10.6C2.35 10.4 2.65 10.4 2.85 10.6L3.5 11.25V9C3.5 8.7 3.7 8.5 4 8.5C4.3 8.5 4.5 8.7 4.5 9V11.25L5.15 10.6C5.35 10.4 5.65 10.4 5.85 10.6C6.05 10.8 6.05 11.1 5.85 11.3Z" fill="black"/>
<path d="M14.5 3H10.05L8.9 1.25C8.85 1.1 8.65 1 8.5 1H3.5C2.65 1 2 1.65 2 2.5V6.4C2.6 6.15 3.3 6 4 6C6.75 6 9 8.25 9 11C9 11.7 8.85 12.4 8.6 13H14.5C15.35 13 16 12.35 16 11.5V4.5C16 3.65 15.35 3 14.5 3ZM15 10.8L10.7 4H14.5C14.8 4 15 4.2 15 4.5V10.8Z" fill="black"/>
</svg>
