<svg width="16" height="16" viewBox="0 0 16 16" fill="none" xmlns="http://www.w3.org/2000/svg">
<path d="M15.9551 4.58249V2.69697C15.9551 1.75421 15.236 1 14.3371 1H3.95506C3.05618 1 2.33708 1.75421 2.33708 2.69697V6.79798C2.47191 6.75084 2.65169 6.7037 2.78652 6.7037C2.92135 6.65657 3.10112 6.65657 3.23596 6.65657V2.69697C3.23596 2.27273 3.55056 1.94276 3.95506 1.94276H14.3371C14.7416 1.94276 15.0562 2.27273 15.0562 2.69697V5.5L10.3371 8.87205L6.02247 5.5L4.40449 6.65657C5.03371 6.79798 5.57303 7.03367 6.11236 7.41077C7.23596 8.25926 7.95506 9.57912 7.95506 11.1347C7.95506 11.5118 7.91011 11.8889 7.82023 12.266C7.77528 12.4074 7.73034 12.596 7.68539 12.7374C7.64045 12.8788 7.55056 13.0673 7.50562 13.2088H14.382C15.2809 13.2088 16 12.4545 16 11.5118V4.62963" fill="black"/>
<path d="M12.0449 5.14983C12.0449 4.25421 11.3708 3.5 10.4719 3.5C9.61798 3.5 8.89888 4.20707 8.89888 5.14983C8.89888 6.09259 9.57303 6.79966 10.4719 6.79966C11.3708 6.79966 12.0449 6.04545 12.0449 5.14983Z" fill="black"/>
<path d="M4.98876 7.74074C4.53933 7.55219 4.08989 7.45791 3.59551 7.45791H3.50562C3.41573 7.45791 3.32584 7.45791 3.23596 7.45791C3.10112 7.45791 2.92135 7.50505 2.78652 7.55219C2.65169 7.59933 2.47191 7.64646 2.33708 7.6936C0.988764 8.21212 0 9.62626 0 11.229C0 13.303 1.61798 15 3.59551 15C4.85393 15 6.02247 14.2929 6.65168 13.2088C6.74157 13.0673 6.83146 12.8788 6.8764 12.7374C6.92135 12.596 7.01124 12.4074 7.05618 12.266C7.14607 11.936 7.19101 11.5589 7.19101 11.229C7.19101 9.6734 6.24719 8.3064 4.98876 7.74074ZM4.08989 12.7374L3.91011 12.9731C3.86517 13.0202 3.82023 13.0202 3.77528 13.0673C3.73034 13.1145 3.64045 13.1145 3.59551 13.1145C3.55056 13.1145 3.46068 13.1145 3.41573 13.0673C3.37079 13.0673 3.32584 13.0202 3.2809 12.9731L2.42697 12.0303L1.93258 11.5118C1.75281 11.3232 1.75281 11.0404 1.93258 10.8519C2.06742 10.7104 2.20225 10.7104 2.33708 10.7104C2.42697 10.7104 2.47191 10.7576 2.5618 10.8519L3.14607 11.4646V9.34343C3.14607 9.20202 3.19101 9.10774 3.23596 9.01347C3.32584 8.91919 3.41573 8.87205 3.59551 8.87205C3.86517 8.87205 4.04494 9.06061 4.04494 9.34343V11.4646L4.62921 10.8519C4.80899 10.6633 5.07865 10.6633 5.25843 10.8519C5.4382 11.0404 5.4382 11.3232 5.25843 11.5118L4.08989 12.7374Z" fill="black"/>
</svg>
