<svg width="16" height="16" viewBox="0 0 16 16" fill="none" xmlns="http://www.w3.org/2000/svg">
<g clip-path="url(#clip0_6_410)">
<path d="M5.857 6.9285H1.5715C0.98 6.9285 0.5 6.449 0.5 5.857V1.5715C0.5 0.98 0.9795 0.5 1.5715 0.5H5.857C6.4485 0.5 6.9285 0.9795 6.9285 1.5715V5.857C6.9285 6.4485 6.449 6.9285 5.857 6.9285ZM15.5 5.857V1.5715C15.5 0.98 15.0205 0.5 14.4285 0.5H10.143C9.5515 0.5 9.0715 0.9795 9.0715 1.5715V5.857C9.0715 6.4485 9.551 6.9285 10.143 6.9285H14.4285C15.02 6.9285 15.5 6.449 15.5 5.857ZM6.9285 14.4285V10.143C6.9285 9.5515 6.449 9.0715 5.857 9.0715H1.5715C0.98 9.0715 0.5 9.551 0.5 10.143V14.4285C0.5 15.02 0.9795 15.5 1.5715 15.5H5.857C6.4485 15.5 6.9285 15.0205 6.9285 14.4285ZM15.5 14.4285V10.143C15.5 9.5515 15.0205 9.0715 14.4285 9.0715H10.143C9.5515 9.0715 9.0715 9.551 9.0715 10.143V14.4285C9.0715 15.02 9.551 15.5 10.143 15.5H14.4285C15.02 15.5 15.5 15.0205 15.5 14.4285Z" fill="black"/>
</g>
<defs>
<clipPath id="clip0_6_410">
<rect width="16" height="16" fill="white"/>
</clipPath>
</defs>
</svg>
