<svg width="16" height="16" viewBox="0 0 16 16" fill="none" xmlns="http://www.w3.org/2000/svg">
<g clip-path="url(#clip0_6_246)">
<path d="M15.96 8.98624C15.729 8.87874 15.4585 8.81574 15.1735 8.81574C14.8885 8.81574 14.618 8.87874 14.375 8.99124L14.3865 8.98624C14.4385 8.79624 14.4685 8.57824 14.4685 8.35374C14.4685 7.48274 14.0205 6.71624 13.343 6.27224L13.3335 6.26624C14.48 6.15974 15.08 4.17974 15.08 4.17974C14.3245 2.78474 13.217 1.66424 11.8745 0.914242L11.8335 0.893242C11.8335 0.893242 9.90004 0.626742 9.32004 1.23974C8.60004 0.0732422 6.55354 0.0732422 6.55354 0.0732422C4.93004 0.384742 3.52204 1.15174 2.42604 2.23424L2.42704 2.23324C2.42804 2.87974 2.72804 3.45574 3.19604 3.83024L3.20004 3.83324C2.18004 4.07324 1.12004 5.50674 1.29354 6.08674C1.08854 5.81424 0.765539 5.63974 0.401539 5.63974C0.391539 5.63974 0.382039 5.63974 0.372039 5.64024H0.373539C0.163539 6.32474 0.0415391 7.11124 0.0400391 7.92624V7.92774C0.0400391 8.80724 0.184039 9.65274 0.449539 10.4427L0.433539 10.3872C0.805539 10.0862 1.09104 9.69174 1.25454 9.23874L1.26004 9.22074C1.76554 9.55424 2.38604 9.75224 3.05254 9.75224C3.38054 9.75224 3.69754 9.70424 3.99704 9.61474L3.97354 9.62074C3.76354 10.0452 3.64054 10.5447 3.64054 11.0732C3.64054 11.7367 3.83454 12.3547 4.16854 12.8737L4.16054 12.8607C3.50904 12.9542 2.94404 13.2662 2.52904 13.7187L2.52704 13.7207C3.95854 15.0857 5.90104 15.9262 8.04004 15.9272C8.72004 15.9257 9.37954 15.8382 10.008 15.6752L9.95354 15.6872C9.58204 14.8267 8.90554 14.1567 8.06354 13.8027L8.04004 13.7942C8.97354 13.7407 9.89354 12.3742 10.04 11.4407C10.7105 11.7457 11.4945 11.9232 12.32 11.9232C12.522 11.9232 12.7215 11.9127 12.918 11.8917L12.8935 11.8937C12.7505 12.2452 12.6675 12.6532 12.6675 13.0802C12.6675 13.5072 12.7505 13.9152 12.9015 14.2887L12.894 14.2672C14.532 13.0052 15.66 11.1502 15.956 9.02924L15.961 8.98724L15.96 8.98624ZM9.84654 10.4332C8.82654 8.99324 5.90654 8.13324 4.37304 8.98674C5.25304 6.82674 4.94654 5.42024 3.85304 3.92674C5.85304 4.11324 8.22654 3.07324 9.18654 1.74024C9.46004 3.18674 11.053 5.60024 12.52 6.08674C10.1335 7.17324 9.86004 8.88674 9.84654 10.4332Z" fill="black"/>
</g>
<defs>
<clipPath id="clip0_6_246">
<rect width="16" height="16" fill="white"/>
</clipPath>
</defs>
</svg>
