<svg width="16" height="16" viewBox="0 0 16 16" fill="none" xmlns="http://www.w3.org/2000/svg">
<g clip-path="url(#clip0_6_465)">
<path d="M7.9922 -0.000476599C6.8462 0.0020234 5.7577 0.247023 4.7752 0.686523L4.8257 0.666523V1.76652L5.3257 2.26652C6.1137 1.88952 7.0387 1.66902 8.0152 1.66902C11.5242 1.66902 14.3687 4.51352 14.3687 8.02252C14.3687 11.5315 11.5242 14.376 8.0152 14.376C4.5062 14.376 1.6617 11.5315 1.6617 8.02252C1.6617 7.04602 1.8822 6.12102 2.2757 5.29452L2.2592 5.33302L1.7592 4.83952H0.659199C0.248199 5.77102 0.00869918 6.85752 0.00869918 7.99952C0.00869918 12.418 3.5902 15.9995 8.0087 15.9995C12.4272 15.9995 16.0087 12.418 16.0087 7.99952C16.0087 3.58102 12.4272 -0.000476599 8.0087 -0.000476599C8.0032 -0.000476599 7.9977 -0.000476599 7.9922 -0.000476599Z" fill="black"/>
<path d="M2.3122 3.49952L2.9787 4.16602L6.6587 7.85952C6.6572 7.88052 6.6562 7.90502 6.6562 7.92952C6.6562 7.95402 6.6572 7.97852 6.6587 8.00252V7.99952C6.6587 8.73602 7.2557 9.33302 7.9922 9.33302C8.7287 9.33302 9.3257 8.73602 9.3257 7.99952C9.3257 7.26302 8.7287 6.66602 7.9922 6.66602H7.8522L3.4787 2.31252V-0.000976562H1.8252V1.83252H-0.00830078V3.49902L2.3122 3.49952Z" fill="black"/>
<path d="M7.9922 10.9995C6.3637 10.9965 5.0397 9.69602 4.9987 8.07652V8.07252L3.5387 6.60602C3.4032 7.01902 3.3252 7.49402 3.3252 7.98752C3.3252 7.99152 3.3252 7.99602 3.3252 8.00002C3.3252 10.5775 5.4147 12.666 7.9917 12.666C10.5687 12.666 12.6582 10.5765 12.6582 7.99952C12.6582 5.42202 10.5687 3.33302 7.9917 3.33302C7.9882 3.33302 7.9842 3.33302 7.9797 3.33302C7.4862 3.33302 7.0112 3.41102 6.5657 3.55552L6.5982 3.54652L8.0647 5.00652C9.7057 5.02702 11.0282 6.36252 11.0282 8.00652C11.0282 9.66352 9.6852 11.0065 8.0282 11.0065C8.0152 11.0065 8.0022 11.0065 7.9897 11.0065H7.9917L7.9922 10.9995Z" fill="black"/>
</g>
<defs>
<clipPath id="clip0_6_465">
<rect width="16" height="16" fill="white"/>
</clipPath>
</defs>
</svg>
