<svg width="16" height="16" viewBox="0 0 16 16" fill="none" xmlns="http://www.w3.org/2000/svg">
<path d="M4.59487 7.47587C6.18587 7.47587 7.47587 6.18587 7.47587 4.59487C7.47587 3.00387 6.18587 1.71387 4.59487 1.71387C3.00387 1.71387 1.71387 3.00387 1.71387 4.59487C1.71387 6.18587 3.00387 7.47587 4.59487 7.47587ZM4.59487 3.80937C5.02887 3.80937 5.38037 4.16137 5.38037 4.59487C5.38037 5.02837 5.02837 5.38037 4.59487 5.38037C4.16087 5.38037 3.80937 5.02837 3.80937 4.59487C3.80937 4.16087 4.16137 3.80937 4.59487 3.80937Z" fill="black"/>
<path d="M11.4049 8.52387C9.81387 8.52387 8.52387 9.81387 8.52387 11.4049C8.52387 12.9959 9.81387 14.2859 11.4049 14.2859C12.9959 14.2859 14.2859 12.9959 14.2859 11.4049C14.2859 9.81387 12.9959 8.52387 11.4049 8.52387ZM11.4049 12.1904C10.9709 12.1904 10.6194 11.8384 10.6194 11.4049C10.6194 10.9714 10.9714 10.6194 11.4049 10.6194C11.8389 10.6194 12.1904 10.9714 12.1904 11.4049C12.1904 11.8389 11.8384 12.1904 11.4049 12.1904Z" fill="black"/>
<path d="M11.5514 1.71437L1.71437 14.2859H4.37537L14.2124 1.71437H11.5514Z" fill="black"/>
</svg>
