<svg width="16" height="16" viewBox="0 0 16 16" fill="none" xmlns="http://www.w3.org/2000/svg">
<path d="M13.6665 14.6665C13.6665 15.403 13.0695 16 12.333 16H4.9995C4.263 16 3.666 15.403 3.666 14.6665V14H13.666L13.6665 14.6665Z" fill="black"/>
<path d="M3.04 4.6665C3.1 5.094 3.177 5.464 3.275 5.825L3.26 5.7595C3.4025 6.2285 3.4895 6.7685 3.5 7.327V7.333H4.5C4.489 6.69 4.39 6.0745 4.2145 5.4915L4.227 5.5395C4.113 5.149 4.0325 4.6945 4.0015 4.226L4.0005 4.2065V2C4.0005 0.8955 4.896 0 6.0005 0H10.667C12.876 0 14.667 1.791 14.667 4V8.6665L13.4135 12.6665H4L1.3335 8.6665V6.6665C1.3335 6.66 1.3335 6.6525 1.3335 6.645C1.3335 5.644 2.069 4.8145 3.029 4.668L3.04 4.6665Z" fill="black"/>
</svg>
