<svg width="16" height="16" viewBox="0 0 16 16" fill="none" xmlns="http://www.w3.org/2000/svg">
<path d="M4.06727 11.7394L1.087 8.88772C1.03331 8.8356 1 8.76435 1 8.68523C1 8.60611 1.03331 8.53486 1.087 8.48274L4.06727 5.62915C4.12174 5.57777 4.1962 5.5459 4.27889 5.5459C4.36157 5.5459 4.43603 5.57777 4.4905 5.62915L7.47077 8.48274C7.52446 8.53486 7.55777 8.60611 7.55777 8.68523C7.55777 8.76435 7.52446 8.8356 7.47077 8.88772L4.4905 11.7394C4.43603 11.7908 4.36157 11.8227 4.27889 11.8227C4.1962 11.8227 4.12174 11.7908 4.06727 11.7394Z" fill="black"/>
<path d="M11.5095 11.7394L8.52727 8.88772C8.47358 8.8356 8.44027 8.76435 8.44027 8.68523C8.44027 8.60611 8.47358 8.53486 8.52727 8.48274L11.5095 5.62915C11.564 5.57777 11.6384 5.5459 11.7211 5.5459C11.8038 5.5459 11.8783 5.57777 11.9327 5.62915L14.913 8.48274C14.9667 8.53486 15 8.60611 15 8.68523C15 8.76435 14.9667 8.8356 14.913 8.88772L11.9327 11.7394C11.8783 11.7908 11.8038 11.8227 11.7211 11.8227C11.6384 11.8227 11.564 11.7908 11.5095 11.7394Z" fill="black"/>
<path d="M10.7433 14C10.7441 14 10.7449 14 10.7457 14C10.8954 14 11.0165 13.8841 11.0165 13.7409C11.0165 13.6689 10.9859 13.6036 10.9361 13.5568L8.19059 10.9315C8.1416 10.885 8.0742 10.8565 8.00014 10.8565C7.99739 10.8565 7.99465 10.8565 7.99151 10.8565L6.97928 14H10.7433Z" fill="black"/>
<path d="M8.21067 8.19279L11.1909 5.34294C11.2446 5.29082 11.2779 5.21957 11.2779 5.14045C11.2779 5.06133 11.2446 4.99009 11.1909 4.93796L8.21067 2.08437C8.15659 2.03225 8.08135 2 7.99866 2C7.99631 2 7.99396 2 7.992 2L6.79911 4.84572L7.99239 8.27678C7.99435 8.27678 7.9967 8.27678 7.99905 8.27678C8.08213 8.27678 8.15659 8.24491 8.21067 8.19279Z" fill="black"/>
<path d="M7.7874 2.08458L4.80713 4.9363C4.75344 4.98842 4.72013 5.05967 4.72013 5.13879C4.72013 5.21791 4.75344 5.28916 4.80713 5.34128L7.7874 8.193C7.83992 8.24362 7.91163 8.27549 7.99157 8.27737L7.992 2C7.91166 2.00187 7.83992 2.03396 7.7874 2.08458Z" fill="black"/>
<path d="M5.06377 13.5568C5.014 13.6036 4.98343 13.6689 4.98343 13.7409C4.98343 13.8841 5.10452 14 5.25422 14C5.25501 14 5.25579 14 5.25657 14H7.99192L7.99151 10.8565C7.91941 10.858 7.85476 10.8865 7.80734 10.9315L5.06377 13.5568Z" fill="black"/>
</svg>
