<svg width="16" height="16" viewBox="0 0 16 16" fill="none" xmlns="http://www.w3.org/2000/svg">
<g clip-path="url(#clip0_6_386)">
<path d="M4.24641 2.16657C4.30891 2.00107 4.34541 1.81007 4.34541 1.61057C4.34541 0.71957 3.62291 -0.00292969 2.73191 -0.00292969C1.84091 -0.00292969 1.11841 0.71957 1.11841 1.61057C1.11841 2.30357 1.55541 2.89407 2.16841 3.12307L2.17941 3.12657C2.34341 3.18807 2.53341 3.22407 2.73141 3.22407C3.42291 3.22407 4.01291 2.78907 4.24241 2.17757L4.24641 2.16657Z" fill="black"/>
<path d="M14.8534 1.44007C12.2899 1.53207 10.0604 2.88007 8.75141 4.88407L8.73341 4.91307L7.27991 4.06657L8.85991 3.54007C9.20391 3.42007 9.44641 3.09807 9.44641 2.72007C9.44641 2.64457 9.43691 2.57107 9.41841 2.50107L9.41991 2.50707L8.82641 0.11357L7.14641 0.53357L7.54641 2.14707L4.66641 3.10707C4.26591 3.22707 3.94041 3.49207 3.74391 3.83907L3.73991 3.84707L3.64641 4.00057V4.04057C3.62341 4.06807 3.60141 4.09857 3.58191 4.13057L3.57991 4.13407L2.29341 6.93407C2.24691 7.03757 2.21991 7.15807 2.21991 7.28507C2.21991 7.61057 2.39841 7.89507 2.66241 8.04507L2.66691 8.04757L5.11341 9.42757L5.96691 7.92107L4.20041 6.92757L4.47391 6.33407L7.71391 8.22057V8.16057V16.0006H9.38041V7.56707C10.4339 3.24707 14.6669 3.11357 14.8469 3.10707L14.8534 1.44007Z" fill="black"/>
</g>
<defs>
<clipPath id="clip0_6_386">
<rect width="16" height="16" fill="white"/>
</clipPath>
</defs>
</svg>
