<svg width="16" height="16" viewBox="0 0 16 16" fill="none" xmlns="http://www.w3.org/2000/svg">
<g clip-path="url(#clip0_6_380)">
<path d="M3.81008 3.20309C4.32558 2.89959 4.66608 2.34759 4.66608 1.71609C4.66608 0.766094 3.89608 -0.00390625 2.94608 -0.00390625C1.99608 -0.00390625 1.22608 0.766094 1.22608 1.71609C1.22608 2.03309 1.31158 2.32959 1.46108 2.58459L1.45658 2.57659C1.75958 3.09409 2.31258 3.43609 2.94608 3.43609C3.26458 3.43609 3.56258 3.34959 3.81808 3.19909L3.81008 3.20309Z" fill="black"/>
<path d="M4.73658 5.25659L1.45008 7.13659L2.41658 8.81659L13.4966 2.41659L12.5301 0.736594L8.07008 3.32309C7.75258 2.66459 7.09008 2.21809 6.32308 2.21809C5.25508 2.21809 4.38958 3.08359 4.38958 4.15159C4.38958 4.56509 4.51958 4.94859 4.74058 5.26259L4.73658 5.25659Z" fill="black"/>
<path d="M14.6701 7.56959L8.19658 11.3231L7.28308 9.74309L8.95658 8.77659C9.54458 8.43759 9.93358 7.81259 9.93358 7.09609C9.93358 6.73209 9.83308 6.39159 9.65808 6.10109L9.66308 6.10959L6.32958 8.04309C5.74008 8.38359 5.35008 9.01059 5.35008 9.72859C5.35008 10.0901 5.44908 10.4286 5.62158 10.7186L5.61658 10.7096L6.53008 12.2896L3.73658 13.8831C3.55408 13.9911 3.33408 14.0551 3.09958 14.0551C2.63358 14.0551 2.22658 13.8036 2.00658 13.4291L2.00358 13.4231L0.330078 14.3896C0.893578 15.3611 1.92858 16.0041 3.11358 16.0041C3.71208 16.0041 4.27208 15.8401 4.75158 15.5546L4.73708 15.5626L15.6706 9.24909L14.6701 7.56959Z" fill="black"/>
</g>
<defs>
<clipPath id="clip0_6_380">
<rect width="16" height="16" fill="white"/>
</clipPath>
</defs>
</svg>
