<svg width="16" height="16" viewBox="0 0 16 16" fill="none" xmlns="http://www.w3.org/2000/svg">
<g clip-path="url(#clip0_6_209)">
<path d="M0.0301054 5.32977C0.130105 5.12977 0.237605 4.93227 0.335105 4.72727C0.835105 3.64477 1.34761 2.55977 1.86511 1.44727L3.69511 5.35977H2.58261C2.56161 5.23927 2.53261 5.13327 2.49561 5.03127L2.50011 5.04477C2.27011 4.51977 2.02511 3.99977 1.77011 3.43727L1.45511 4.10227C1.60261 4.18977 1.79011 4.03977 1.89261 4.20227C1.95811 4.31777 2.02911 4.46227 2.09311 4.61077L2.10511 4.64227C1.83761 4.64227 1.59011 4.64227 1.35511 4.64227C1.34561 4.64027 1.33461 4.63927 1.32361 4.63927C1.24261 4.63927 1.17411 4.69377 1.15261 4.76827L1.15211 4.76927C1.08461 4.96177 0.914605 5.12427 0.994605 5.36427H0.0296054L0.0301054 5.32977Z" fill="black"/>
<path d="M12.5001 5.33477C12.2101 5.33477 11.9451 5.33477 11.6776 5.33477C11.6276 5.33477 11.5676 5.26977 11.5351 5.22227C11.2251 4.76727 10.9226 4.30727 10.6176 3.85227C10.5926 3.81127 10.5616 3.77677 10.5261 3.74777L10.5251 3.74727C10.5501 4.27227 10.4326 4.80227 10.5951 5.32977H9.63761V2.57977C9.91511 2.57977 10.1851 2.57977 10.4551 2.57977C10.5051 2.57977 10.5601 2.65227 10.5951 2.70477L11.5151 4.07227L11.5976 4.18227V2.58227H12.5701C12.5386 2.74627 12.5141 2.94527 12.5011 3.14727L12.5001 3.16227C12.5001 3.81727 12.5001 4.47477 12.5001 5.12977V5.33477Z" fill="black"/>
<path d="M6.78761 5.46727C6.51511 5.46727 6.24511 5.46727 5.97261 5.46727C5.87461 5.45527 5.78811 5.41177 5.72261 5.34727C5.62261 5.24777 5.53761 5.13327 5.47111 5.00727L5.46761 4.99977C5.26011 4.59227 5.06761 4.17477 4.85511 3.73477C5.03511 3.73477 5.18261 3.73477 5.32761 3.73477C5.63011 3.73477 5.73511 3.62227 5.74761 3.31977C5.74761 3.23727 5.74761 3.15477 5.74761 3.06977H4.77011C4.77011 3.12977 4.77011 3.17727 4.77011 3.22477C4.77011 3.76977 4.77011 4.31477 4.77011 4.85727C4.78611 5.03627 4.81561 5.19977 4.85711 5.35777L4.85261 5.33727H3.86511V5.15977C3.86511 4.45977 3.86511 3.75977 3.86511 3.05977C3.84561 2.88277 3.81211 2.72277 3.76511 2.56827L3.77011 2.58727H6.57011C6.55511 2.89477 6.57011 3.19977 6.52261 3.49977C6.47561 3.74427 6.31561 3.94327 6.09961 4.04277L6.09511 4.04477L5.92761 4.12977C6.15261 4.60477 6.34761 5.10227 6.78761 5.46727Z" fill="black"/>
<path d="M6.9326 5.32227V2.57227H9.30011V3.14227C8.82761 2.91977 8.3201 3.08727 7.8151 3.01727V3.72477H9.0176C8.9466 3.89877 8.8791 4.03827 8.8056 4.17377L8.81761 4.14977C8.7976 4.18477 8.7226 4.19727 8.6726 4.19727C8.3901 4.19727 8.1076 4.19727 7.8151 4.19727V4.86727C8.31511 4.82227 8.8151 4.95477 9.3026 4.76977V5.31977L6.9326 5.32227Z" fill="black"/>
<path d="M14.5376 2.36227C14.8751 3.08227 15.2176 3.82727 15.5726 4.56477C15.6976 4.82977 15.8576 5.07977 16.0001 5.33477C15.7726 5.33477 15.5001 5.33477 15.2501 5.33477C15.2026 5.33477 15.1401 5.25477 15.1151 5.19977C14.8426 4.62227 14.5751 4.04477 14.3076 3.46477C14.2936 3.44177 14.2796 3.42227 14.2646 3.40377L14.2651 3.40477L13.8901 4.21727C14.0476 4.21727 14.1826 4.21727 14.3176 4.21727C14.3281 4.21527 14.3396 4.21377 14.3521 4.21377C14.4326 4.21377 14.5006 4.26727 14.5221 4.34077L14.5226 4.34177C14.5626 4.44927 14.6176 4.54927 14.6801 4.68177C14.4126 4.68177 14.1651 4.68177 13.9301 4.68177C13.9086 4.67627 13.8836 4.67277 13.8576 4.67277C13.7111 4.67277 13.5886 4.77827 13.5626 4.91727L13.5621 4.91927C13.5246 5.05427 13.4896 5.18677 13.4471 5.34177H12.5996C12.7496 5.02927 12.8696 4.74927 12.9996 4.45177C13.2696 3.86927 13.5471 3.28927 13.8146 2.70177C13.8501 2.61827 13.9266 2.55927 14.0186 2.54927C14.2266 2.48777 14.3996 2.42377 14.5661 2.35027L14.5376 2.36227Z" fill="black"/>
<path d="M16.0001 13.4173C15.6501 13.4173 15.3501 13.4173 15.0526 13.4173C14.9531 13.4043 14.8661 13.3568 14.8031 13.2878C14.6966 13.1853 14.6056 13.0673 14.5341 12.9373L14.5301 12.9298C14.2801 12.4473 14.0576 11.9548 13.8076 11.4298C14.0001 11.4298 14.1601 11.4298 14.3076 11.4298C14.6126 11.4298 14.7226 11.3173 14.7426 11.0098C14.7426 10.9198 14.7426 10.8273 14.7426 10.7223H13.7501C13.6401 11.0773 13.7176 12.8973 13.8551 13.1198H12.7726V12.9348C12.7726 12.2048 12.7726 11.4723 12.7726 10.7423C12.7536 10.5448 12.7196 10.3648 12.6701 10.1908L12.6751 10.2123H15.6176C15.6026 10.5673 15.6776 10.9248 15.5601 11.2723C15.4511 11.5433 15.2321 11.7503 14.9596 11.8403L14.9526 11.8423C15.2326 12.4023 15.4201 12.9998 16.0001 13.4173Z" fill="black"/>
<path d="M12.4276 11.6598C12.4276 11.6618 12.4276 11.6648 12.4276 11.6673C12.4276 12.5328 11.7256 13.2348 10.8601 13.2348C9.99461 13.2348 9.29261 12.5328 9.29261 11.6673C9.29261 10.8053 9.98861 10.1053 10.8496 10.0998C10.8526 10.0998 10.8566 10.0998 10.8601 10.0998C11.7231 10.0998 12.4231 10.7978 12.4276 11.6598ZM11.6651 11.6223C11.6651 11.5948 11.6651 11.5248 11.6451 11.4573C11.5896 11.1018 11.3206 10.8218 10.9756 10.7508L10.9701 10.7498C10.9371 10.7448 10.8991 10.7418 10.8606 10.7418C10.5501 10.7418 10.2836 10.9308 10.1696 11.1998L10.1676 11.2048C10.0941 11.3403 10.0511 11.5018 10.0511 11.6733C10.0511 11.8988 10.1261 12.1073 10.2521 12.2748L10.2501 12.2723C10.3821 12.4703 10.6046 12.5988 10.8571 12.5988C11.0876 12.5988 11.2931 12.4913 11.4266 12.3238L11.4276 12.3223C11.5761 12.1488 11.6666 11.9218 11.6666 11.6738C11.6666 11.6558 11.6661 11.6378 11.6651 11.6198V11.6223Z" fill="black"/>
<path d="M5.19761 11.0698L4.79261 11.9398C4.97011 11.9398 5.1176 11.9398 5.2676 11.9398C5.2771 11.9378 5.2881 11.9368 5.2991 11.9368C5.3776 11.9368 5.44411 11.9893 5.46461 12.0608L5.46511 12.0618C5.50761 12.1793 5.57011 12.2918 5.63511 12.4318C5.30761 12.4318 5.0051 12.4318 4.7001 12.4318C4.6911 12.4303 4.6806 12.4293 4.6701 12.4293C4.5851 12.4293 4.51361 12.4858 4.49061 12.5628L4.4901 12.5643C4.4226 12.7443 4.29511 12.9118 4.39511 13.1218H3.43761C3.68761 12.5593 3.95261 12.0093 4.2101 11.4618C4.38261 11.0868 4.5576 10.7118 4.7276 10.3418C4.7621 10.2573 4.83911 10.1973 4.93161 10.1868C5.11411 10.1418 5.29011 10.0693 5.49261 9.99927L5.93511 10.9318C6.20261 11.4993 6.46511 12.0693 6.7501 12.6393C6.8301 12.8043 6.9376 12.9543 7.0401 13.1243C6.7751 13.1243 6.49511 13.1243 6.21761 13.1243C6.18261 13.1243 6.1376 13.0543 6.1151 13.0068C5.8276 12.3943 5.5426 11.7793 5.25511 11.1668L5.19761 11.0698Z" fill="black"/>
<path d="M2.12011 14.5523L1.62511 13.4998C1.18261 12.5373 0.750106 11.5798 0.292605 10.6298C0.200105 10.4663 0.103105 10.3258 -0.00439453 10.1943L0.000105469 10.1998C0.103105 10.2073 0.223605 10.2118 0.345105 10.2118C0.466605 10.2118 0.587105 10.2073 0.706105 10.1988L0.690105 10.1998C1.06511 10.1473 1.24011 10.2948 1.38761 10.6423C1.75011 11.4998 2.17511 12.3623 2.58011 13.2198C2.60511 13.2648 2.61961 13.3178 2.61961 13.3748C2.61961 13.4318 2.60511 13.4848 2.57961 13.5313L2.58061 13.5298C2.42811 13.8573 2.28261 14.1898 2.12011 14.5523Z" fill="black"/>
<path d="M8.19261 12.6398C8.5401 12.6073 8.86761 12.7048 9.1601 12.5498L9.5801 13.1123H7.2676C7.2676 13.0598 7.2676 12.9973 7.2676 12.9373V10.7273C7.2701 10.7078 7.2711 10.6848 7.2711 10.6613C7.2711 10.4818 7.1916 10.3213 7.0656 10.2128L7.0646 10.2123H8.1996L8.19261 12.6398Z" fill="black"/>
<path d="M2.75011 13.1298C2.60261 12.8248 2.46511 12.5523 2.34261 12.2723C2.34011 12.2588 2.33861 12.2433 2.33861 12.2273C2.33861 12.1793 2.35211 12.1343 2.37561 12.0963L2.37511 12.0973C2.61011 11.5973 2.85261 11.0973 3.08261 10.5973C3.12111 10.4868 3.15111 10.3573 3.16661 10.2238L3.16761 10.2148H4.1251L2.75011 13.1298Z" fill="black"/>
<path d="M7.3251 6.49977C7.3271 6.49977 7.3301 6.49977 7.3326 6.49977C8.0686 6.49977 8.6651 7.09627 8.6651 7.83227C8.6651 8.56827 8.0686 9.16477 7.3326 9.16477C6.5966 9.16477 6.0001 8.56827 6.0001 7.83227C6.0001 7.83027 6.0001 7.82877 6.0001 7.82677C6.0096 7.09827 6.5981 6.51077 7.3251 6.49977ZM7.3526 7.04727C6.9536 7.06627 6.6376 7.39427 6.6376 7.79627C6.6376 7.80177 6.6376 7.80727 6.6376 7.81277V7.81177C6.6371 7.82327 6.6366 7.83677 6.6366 7.85027C6.6366 8.24477 6.9271 8.57176 7.3056 8.62877L7.3101 8.62927C7.71161 8.59727 8.0251 8.26327 8.0251 7.85677C8.0251 7.85577 8.0251 7.85527 8.0251 7.85427C8.0271 7.83277 8.0286 7.80827 8.0286 7.78327C8.0286 7.39527 7.7336 7.07577 7.3561 7.03727L7.35311 7.03677L7.3526 7.04727Z" fill="black"/>
<path d="M10.9251 6.61477V7.01227H9.65761V7.62227H10.6426C10.5126 8.28227 9.99011 7.92977 9.67011 8.09727C9.48011 8.54727 9.95511 9.29227 9.07761 9.50477V6.61477H10.9251Z" fill="black"/>
</g>
<defs>
<clipPath id="clip0_6_209">
<rect width="16" height="16" fill="white"/>
</clipPath>
</defs>
</svg>
