<svg width="16" height="16" viewBox="0 0 16 16" fill="none" xmlns="http://www.w3.org/2000/svg">
<path d="M14.4625 6.3225C14.3925 5.145 14.2475 3.97 14.15 2.7925C14.139 2.5735 13.9885 2.3925 13.786 2.336L13.7825 2.335L8.08751 0H7.87501L2.25001 2.2875C2.00651 2.358 1.83201 2.579 1.83201 2.8405C1.83201 2.85 1.83201 2.8595 1.83251 2.8685V2.867C1.83251 3.1745 1.77001 3.4795 1.75001 3.7845C1.63751 5.6145 1.43001 7.4445 1.44001 9.2845C1.44001 11.422 1.33001 11.6245 3.36751 13.1145C4.82251 14.1645 6.41501 15.0395 7.94751 15.9995H8.08751C8.22251 15.9095 8.35251 15.807 8.49251 15.727C10.327 14.7 11.8945 13.657 13.376 12.5085L13.2875 12.5745C14.067 11.992 14.566 11.0715 14.566 10.0345C14.566 9.952 14.563 9.87 14.5565 9.789L14.557 9.7995C14.5145 8.642 14.53 7.48 14.4625 6.3225ZM13.8525 10.275C13.8535 10.296 13.854 10.3205 13.854 10.345C13.854 10.923 13.5845 11.4385 13.164 11.772L13.16 11.775C12.555 12.25 11.9725 12.75 11.3325 13.17C10.3325 13.8425 9.27001 14.4625 8.22751 15.0925C8.16101 15.1305 8.08201 15.1525 7.99751 15.1525C7.93551 15.1525 7.87651 15.1405 7.82201 15.1185L7.82501 15.1195C6.34501 14.1878 4.87251 13.2453 3.40751 12.292C2.61201 11.8005 2.09001 10.9335 2.09001 9.9445C2.09001 9.8355 2.09651 9.7275 2.10901 9.6215L2.10801 9.6345C2.24301 7.512 2.35801 5.3845 2.47551 3.2595C2.47551 3.2585 2.47551 3.2575 2.47551 3.2565C2.47551 3.051 2.61401 2.878 2.80251 2.8255L2.80551 2.8245C4.45551 2.1795 6.09551 1.4995 7.75051 0.8645C7.82501 0.8375 7.91101 0.8215 8.00051 0.8215C8.09001 0.8215 8.17601 0.837 8.25551 0.866L8.25051 0.8645C9.91718 1.53117 11.5797 2.20783 13.238 2.8945C13.369 2.9615 13.465 3.0805 13.5 3.2235L13.5005 3.227L13.8605 8.8195C13.853 9.3045 13.855 9.79 13.8525 10.275Z" fill="black"/>
<path d="M4.12501 6.985C4.19751 6.235 4.26751 5.5425 4.33501 4.84C4.37001 4.5 4.40001 4.1575 4.42751 3.815C4.42851 3.5675 4.58901 3.358 4.81101 3.2835L4.81501 3.2825C5.10501 3.1675 5.38501 3.0325 5.69251 2.88L5.80251 3.435C6.08501 3.335 6.32251 3.2275 6.54951 3.104L6.52251 3.1175C6.61351 3.0355 6.67051 2.9175 6.67051 2.786C6.67051 2.7795 6.67051 2.773 6.67001 2.7665C6.66501 2.744 6.66251 2.719 6.66251 2.6925C6.66251 2.5105 6.79101 2.3585 6.96251 2.323L6.96501 2.3225C6.98751 2.3225 7.00751 2.3025 7.03001 2.2925C8.09251 1.7925 8.10251 1.7925 9.11251 2.3825C9.20301 2.4405 9.26501 2.537 9.27501 2.6485V2.65C9.22501 2.9925 9.39251 3.15 9.69001 3.235C9.87901 3.304 10.0305 3.3695 10.178 3.4425L10.15 3.43L10.275 2.875C10.7275 3.075 11.092 3.261 11.4455 3.4645L11.385 3.4325C11.4925 3.5 11.525 3.7225 11.545 3.88C11.65 4.8075 11.7525 5.735 11.83 6.665C11.85 6.915 11.92 7.02 12.1675 6.9825C12.545 6.925 12.6375 7.115 12.6175 7.455C12.5975 7.795 12.6175 8.19 12.6175 8.555C12.5845 8.7105 12.531 8.8485 12.459 8.9745L12.4625 8.9675L12.355 8.9475C12.455 9.43 12.53 9.9175 12.66 10.3925C12.677 10.444 12.6865 10.503 12.6865 10.564C12.6865 10.7345 12.6115 10.8875 12.493 10.992C11.7615 11.793 10.9005 12.462 9.94101 12.968L9.89001 12.9925C9.34501 13.2775 8.80251 13.5625 8.25001 13.83C8.17951 13.8675 8.09551 13.8895 8.00651 13.8895C7.95251 13.8895 7.90051 13.8815 7.85151 13.8665L7.85501 13.8675C6.68501 13.31 5.50001 12.7675 4.50001 11.94C3.21001 10.8775 3.21501 10.8725 3.57251 9.2825C3.61001 9.115 3.71251 8.935 3.45001 8.8475C3.41751 8.8475 3.40251 8.7425 3.40251 8.6875C3.40251 8.2025 3.38751 7.715 3.40251 7.23C3.40251 7.145 3.55251 7.0325 3.65251 6.995C3.73351 6.9805 3.82701 6.972 3.92201 6.972C3.99351 6.972 4.06401 6.9765 4.13301 6.986L4.12501 6.985ZM8.29751 5.87C8.95001 5.87 9.54751 5.855 10.15 5.87C10.3425 5.87 10.52 5.975 10.5875 5.6925C10.655 5.41 10.485 5.3725 10.2925 5.3125C9.65851 5.1 8.92901 4.978 8.17051 4.978C7.83151 4.978 7.49851 5.0025 7.17301 5.0495L7.21001 5.045C6.57351 5.1555 6.03951 5.2815 5.51701 5.4345L5.62501 5.4075C5.48001 5.4425 5.29001 5.5025 5.39751 5.705C5.43251 5.77 5.62751 5.785 5.73751 5.765C5.90751 5.7325 6.06751 5.6275 6.23751 5.595C6.72501 5.505 7.21501 5.435 7.75001 5.345C7.43501 6.4125 7.36001 6.4775 6.41251 6.5775C6.40751 6.5775 6.40201 6.5775 6.39601 6.5775C6.34001 6.5775 6.28501 6.582 6.23151 6.591L6.23751 6.59C5.85001 6.6825 5.41751 6.7125 5.21751 7.1325C5.17101 7.275 5.03951 7.376 4.88401 7.376C4.85701 7.376 4.83051 7.373 4.80501 7.367L4.80751 7.3675C4.75201 7.3645 4.68751 7.3625 4.62251 7.3625C4.55751 7.3625 4.49301 7.364 4.42851 7.3675L4.43751 7.367L4.46001 7.762L7.28751 7.972C7.23151 7.9155 7.17901 7.855 7.13101 7.7915L7.12751 7.787C7.07251 7.677 7.02501 7.562 6.97501 7.4495C7.07301 7.404 7.18701 7.3675 7.30601 7.346L7.31501 7.3445C7.74001 7.332 8.16751 7.332 8.59251 7.3445C8.76751 7.363 8.92551 7.393 9.07901 7.4345L9.05751 7.4295C8.98001 7.577 8.90251 7.727 8.82751 7.877C8.82751 7.892 8.82751 7.9195 8.82751 7.972L11.5775 7.7545L11.55 7.3745C11.345 7.3745 11.1775 7.3745 11.015 7.3745C10.935 7.3745 10.815 7.322 10.795 7.2645C10.64 6.8395 10.27 6.747 9.89751 6.6695C9.64751 6.6115 9.35751 6.5745 9.06051 6.567H9.05501C8.61501 6.5695 8.45501 6.27 8.29751 5.87ZM11.2125 8.9425C10.905 9.505 10.58 10.03 10.0975 10.2675C9.97651 10.199 9.83651 10.144 9.68801 10.1095L9.67751 10.1075C8.56418 10.0975 7.45251 10.0975 6.34251 10.1075C6.22751 10.1075 6.11501 10.205 5.91251 10.2975C5.69501 10.124 5.50101 9.945 5.32001 9.753L5.31751 9.75C5.15051 9.5255 4.98551 9.27 4.83601 9.004L4.81751 8.9675H4.72251C4.66651 9.1265 4.62251 9.3135 4.59901 9.5065L4.59751 9.52C4.57001 10.34 5.01251 10.8775 5.70501 11.2275C5.94001 11.3565 6.22001 11.4325 6.51801 11.4325C6.97901 11.4325 7.39751 11.2505 7.70601 10.9545C7.77651 10.8675 7.88301 10.813 8.00301 10.813C8.12301 10.813 8.23001 10.868 8.30001 10.9545C8.62601 11.243 9.05751 11.42 9.52951 11.42C10.1945 11.42 10.7775 11.0705 11.106 10.5455L11.1105 10.5375C11.299 10.3 11.413 9.9965 11.413 9.6655C11.413 9.3985 11.3385 9.149 11.2095 8.936L11.2125 8.9425ZM10.2275 9C9.70001 9.0275 9.19501 9.0375 8.69501 9.0825C8.33001 9.115 8.06251 9.0825 8.06751 8.62C8.06751 8.5825 8.01251 8.5425 7.96501 8.48L7.82501 9.045H5.79751C5.79751 9.605 5.79751 9.605 6.29751 9.605H9.65001C10.1525 9.6125 10.1525 9.6125 10.2275 9Z" fill="black"/>
</svg>
