<svg width="16" height="16" viewBox="0 0 16 16" fill="none" xmlns="http://www.w3.org/2000/svg">
<g clip-path="url(#clip0_14_351)">
<path d="M14.899 11.3521L5.72686 4.39362C5.56047 4.26755 5.32322 4.38754 5.32322 4.59777V15.7441C5.32322 15.9681 5.58831 16.0832 5.74901 15.9293L9.4169 12.4163C9.45739 12.3776 9.50927 12.3533 9.56463 12.3479L14.7731 11.81C15.0018 11.7863 15.0824 11.4916 14.899 11.3521Z" fill="black"/>
<path d="M4.2363 5.72408C4.19644 5.58905 4.05599 5.51321 3.92281 5.55481L1.17956 6.40914C1.04638 6.45074 0.97078 6.59377 1.01064 6.72879L1.19 7.33515C1.22986 7.47018 1.37031 7.54601 1.50349 7.50441L4.24642 6.65008C4.3796 6.60848 4.4552 6.46546 4.41503 6.33043L4.2363 5.72408Z" fill="black"/>
<path d="M4.36979 3.57001L1.82109 2.22196C1.69772 2.15668 1.54619 2.20564 1.48324 2.33107L1.20076 2.89358C1.13749 3.01933 1.18652 3.17388 1.30989 3.23947L3.85891 4.58753C3.98228 4.6528 4.13381 4.60385 4.19676 4.47842L4.47924 3.9159C4.54251 3.79015 4.49316 3.6356 4.36979 3.57001Z" fill="black"/>
<path d="M7.84788 4.49921C7.94816 4.59713 8.10665 4.59329 8.20218 4.49057L10.1808 2.35986C10.2764 2.25715 10.2723 2.09461 10.172 1.99637L9.72691 1.56121C9.62663 1.4633 9.46815 1.46714 9.37262 1.56985L7.39394 3.70056C7.29841 3.80327 7.30252 3.96582 7.4028 4.06405L7.84788 4.49921Z" fill="black"/>
<path d="M5.51321 0.251953L5.47456 3.19898C5.47271 3.33999 5.58422 3.45581 5.72362 3.45768L6.33441 3.46588C6.47381 3.46775 6.58832 3.35496 6.59017 3.21395L6.62882 0.266922C6.63067 0.125915 6.51916 0.0100889 6.37976 0.00821844L5.76897 2.29324e-05C5.62957 -0.00184757 5.51506 0.110945 5.51321 0.251953Z" fill="black"/>
</g>
<defs>
<clipPath id="clip0_14_351">
<rect width="16" height="16" fill="white"/>
</clipPath>
</defs>
</svg>
