<svg width="16" height="16" viewBox="0 0 16 16" fill="none" xmlns="http://www.w3.org/2000/svg">
<path d="M15.4888 4.08374C15.416 3.47642 15.0504 3.12106 14.4824 3.11961C13.2926 3.11815 12.1041 3.11669 10.9143 3.11815C10.6405 3.11669 10.3652 3.11669 10.0914 3.11669C7.8966 3.11669 5.7018 3.11669 3.50555 3.11961C2.94047 3.11961 2.56472 3.4939 2.51083 4.08374V4.64154H2.50792V5.58238H2.51083V6.13872H2.49481C2.49481 7.44511 2.49481 8.718 2.49627 9.98944C2.49627 10.7176 2.89241 11.1152 3.61624 11.1152C5.77462 11.1152 7.93301 11.1152 10.0914 11.1152H10.9143C12.0692 11.1152 13.2241 11.1152 14.379 11.1152C15.1043 11.1152 15.499 10.7191 15.5005 9.99235C15.5034 8.80248 15.5019 7.61405 15.5019 6.42563V6.13872L15.4888 4.08374ZM10.2108 8.57236C10.1744 8.60586 10.1351 8.6379 10.0928 8.66412C9.89915 8.79956 9.65156 8.87967 9.34863 8.91025V9.42727H8.88404V8.91025C8.51848 8.87093 8.23157 8.74568 8.0233 8.53887C7.81358 8.32623 7.71018 8.03787 7.71018 7.67231H8.7282C8.7282 7.82815 8.76752 7.94903 8.84471 8.0335C8.9219 8.11506 9.02676 8.15584 9.15784 8.15584C9.26124 8.15584 9.3428 8.12962 9.40106 8.07719C9.46368 8.02622 9.49572 7.95485 9.49572 7.86164C9.49572 7.76843 9.45349 7.69416 9.36756 7.64318C9.286 7.58638 9.15638 7.52376 8.97724 7.45239C8.81995 7.38977 8.66994 7.32714 8.52139 7.26452C8.37866 7.20481 8.2505 7.13053 8.13981 7.04606C8.0335 6.96013 7.94611 6.85964 7.88203 6.74313C7.81504 6.62516 7.783 6.47806 7.783 6.30184C7.783 6.14892 7.81358 6.01493 7.87184 5.90133C7.93301 5.78336 8.01311 5.68578 8.11214 5.60714C8.21263 5.52558 8.32915 5.4615 8.46314 5.4178C8.59712 5.37266 8.73694 5.34062 8.88404 5.3246V4.80175H9.34863V5.3246C9.56126 5.34353 9.73894 5.39013 9.88167 5.4615C9.96031 5.49936 10.0317 5.54305 10.0928 5.59112C10.1438 5.63044 10.189 5.67413 10.2297 5.72074C10.3186 5.81977 10.3798 5.93483 10.4162 6.06008C10.454 6.17805 10.4744 6.30038 10.4744 6.42563H9.4564C9.4564 6.14163 9.3428 5.99745 9.11852 5.99745C9.03404 5.99745 8.95977 6.02075 8.90005 6.06299C8.83743 6.10523 8.80393 6.17513 8.80393 6.26834C8.80393 6.36155 8.84471 6.42855 8.9219 6.48826C9.00055 6.54797 9.11851 6.60331 9.27581 6.65866C9.4229 6.71109 9.56854 6.76643 9.71418 6.82614C9.85545 6.88003 9.9807 6.94557 10.0928 7.02567C10.1016 7.03004 10.1089 7.03586 10.1176 7.04169C10.237 7.12616 10.3332 7.22957 10.4045 7.35336C10.4802 7.4757 10.5167 7.62134 10.5167 7.79902C10.5167 8.12525 10.4162 8.38303 10.2108 8.57236Z" fill="black"/>
<path d="M1.36319 1.97488H9.99964V1.23648C9.99964 0.495176 9.45349 0 8.63645 0C6.21154 0 3.78809 0 1.36319 0C0.547606 0 0.0014564 0.498089 0.0014564 1.2394C0 3.49827 0 5.75715 0 8.01748V14.749C0 15.3577 0.352449 15.8048 0.955398 15.9549C1.08647 15.9869 1.22774 15.9985 1.36465 15.9985C3.78955 16.0015 6.21445 16.0015 8.63936 16C9.45494 16 9.99964 15.5048 9.99964 14.7635V12.3794L1.36319 12.2935V1.97488ZM6.73585 0.712179V1.27144H3.27253V0.712179H6.73585ZM5.00127 13.3683C5.44985 13.3683 5.74841 13.6931 5.75715 14.0994C5.76588 14.5028 5.45421 14.8451 5.00273 14.8451C4.55125 14.8451 4.22064 14.5043 4.22647 14.0994C4.2323 13.6931 4.5527 13.3697 5.00127 13.3683Z" fill="black"/>
</svg>
