<svg width="16" height="16" viewBox="0 0 16 16" fill="none" xmlns="http://www.w3.org/2000/svg">
<path d="M4.20645 5.51998C4.23295 5.33348 4.26645 5.09348 4.19295 4.79348H4.21945C4.04595 4.05998 3.42595 3.59348 3.01295 3.34698C3.01295 3.34698 2.92645 3.26698 2.93295 3.17348C2.93945 3.09348 2.99945 3.03998 3.01295 3.03348C3.31945 2.85348 3.66645 2.60698 4.02645 2.28698C4.33995 2.01348 4.58645 1.74698 4.78645 1.50048C5.00645 1.63398 5.65995 1.98048 6.54645 1.90048C7.29995 1.83398 7.81995 1.49398 8.03295 1.33398C8.23945 1.48748 8.76645 1.83398 9.51945 1.90048C10.3994 1.98048 11.0594 1.63398 11.2794 1.50048C11.4794 1.74698 11.7259 2.01398 12.0394 2.28698C12.3929 2.60698 12.7459 2.85348 13.0529 3.03348C13.0664 3.03998 13.1264 3.09348 13.1329 3.17348C13.1394 3.27348 13.0529 3.34698 13.0529 3.34698C12.6394 3.59348 12.0194 4.06048 11.8464 4.79348C11.7799 5.08698 11.8064 5.31998 11.8329 5.50698C11.9464 6.36048 12.1129 6.82048 12.2529 7.18048C12.3394 7.41398 12.4129 7.60698 12.4464 7.83398C12.4664 8.00748 12.5264 8.52748 12.2929 9.09398C11.9529 9.90048 11.2264 10.2805 11.0064 10.3875C10.6264 10.581 10.3529 10.614 10.0799 10.654C9.81995 10.6875 9.55345 10.7275 9.20645 10.894C8.62645 11.1675 8.25995 11.6005 8.03295 11.9205C7.80645 11.6005 7.43945 11.174 6.85945 10.894C6.50595 10.7205 6.24595 10.6875 5.97945 10.654C5.70595 10.614 5.43295 10.5805 5.05295 10.3875C4.82645 10.2675 4.09945 9.89398 3.76645 9.09398C3.52645 8.52748 3.59295 8.00048 3.61295 7.83398C3.64645 7.60748 3.71295 7.41398 3.80645 7.18048C3.93995 6.82048 4.11295 6.36048 4.22645 5.51398L4.20645 5.51998ZM8.00645 3.19348L6.73295 5.40698H6.73945V7.75348L9.27945 9.35349V5.46698L8.00645 3.19348ZM2.03345 9.63348L3.15345 9.09348C3.30695 9.37998 3.49345 9.73348 3.73345 10.0335L2.80695 10.8535L2.73345 10.767C2.42695 10.3935 2.19995 9.95348 2.03345 9.64048V9.63348ZM11.5534 10.6135C11.1799 10.847 10.8669 10.8935 10.5134 10.9535C10.5134 10.9535 10.4534 10.967 10.4199 10.967C9.97995 11.0405 9.46645 11.127 8.92645 11.5605C8.56645 11.847 8.19295 12.174 7.99995 12.6005C7.93345 12.234 7.52645 11.9205 7.18645 11.6605C7.12645 11.614 7.06645 11.567 7.01295 11.5205C6.47295 11.087 5.96645 11.0005 5.51945 10.927C5.48595 10.927 5.45945 10.9135 5.42595 10.9135C5.07245 10.8535 4.75945 10.8 4.38595 10.5735C4.21945 10.4735 4.12595 10.407 3.97945 10.247L3.03295 11.1005C3.27295 11.3605 3.46645 11.507 3.74645 11.674C4.36645 12.0475 4.89995 12.1475 5.31995 12.214C5.70645 12.2805 5.92645 12.3605 6.26645 12.554C6.94645 12.954 7.69295 13.7875 7.97295 14.574C7.97295 14.6005 7.98645 14.6275 7.99295 14.6475V14.661C7.99295 14.661 7.99295 14.6475 8.00645 14.641C8.00645 14.641 8.00645 14.6545 8.01295 14.661V14.6275C8.28645 13.821 9.04645 12.961 9.74645 12.5675C10.0799 12.374 10.3129 12.294 10.6929 12.2275H10.7129C11.1329 12.154 11.6529 12.061 12.2664 11.6875C12.5464 11.514 12.7464 11.3675 12.9799 11.114L11.9664 10.3005C11.8199 10.4605 11.7264 10.527 11.5599 10.627V10.6135H11.5534ZM12.7399 9.14648C12.7399 9.14648 12.7599 9.10648 12.7664 9.09298L13.9664 9.62648C13.7999 9.94648 13.5664 10.38 13.2664 10.753L13.1929 10.8395L12.1864 10.0195C12.4199 9.73298 12.5929 9.41298 12.7329 9.13948L12.7399 9.14648Z" fill="black"/>
</svg>
