<svg width="16" height="16" viewBox="0 0 16 16" fill="none" xmlns="http://www.w3.org/2000/svg">
<g clip-path="url(#clip0_6_461)">
<path d="M7.33351 8.30652C7.56151 8.44052 7.83601 8.51952 8.12901 8.51952C9.00901 8.51952 9.72251 7.80602 9.72251 6.92602C9.72251 6.04602 9.00901 5.33252 8.12901 5.33252C7.54101 5.33252 7.02701 5.65152 6.75101 6.12552L6.74701 6.13302C6.61401 6.36052 6.53601 6.63402 6.53601 6.92602C6.53601 7.51302 6.85351 8.02602 7.32651 8.30252L7.33351 8.30652Z" fill="black"/>
<path d="M16 6.35352V0.353516H13.6665V2.52002H2.33301V0.353516H-0.000488281V6.35352H2.33301V4.18702H3.07951C3.15301 4.85352 3.70601 9.05352 6.20601 10.5205C6.16001 10.67 6.13301 10.842 6.13251 11.02V12.3535C6.13251 12.3545 6.13251 12.3555 6.13251 12.3565C6.13251 12.4875 6.14701 12.6155 6.17451 12.7385L6.17251 12.727L5.33251 12.5535C5.20601 12.5285 5.06101 12.514 4.91251 12.514C3.67201 12.514 2.66601 13.5195 2.66601 14.76V16H4.33251V14.76C4.33251 14.759 4.33251 14.7575 4.33251 14.756C4.33251 14.575 4.41501 14.414 4.54501 14.3075L4.54601 14.3065C4.64451 14.224 4.77301 14.174 4.91301 14.174C4.95551 14.174 4.99701 14.1785 5.03651 14.1875L5.03251 14.187L6.09251 14.407C6.71601 14.542 7.43201 14.6195 8.16601 14.6195C8.90001 14.6195 9.61601 14.542 10.3065 14.395L10.2395 14.407L11.3995 14.1735C11.4355 14.1655 11.477 14.161 11.5195 14.161C11.84 14.161 12.0995 14.4205 12.0995 14.741C12.0995 14.743 12.0995 14.745 12.0995 14.747V16H13.766V14.7535C13.765 13.51 12.7565 12.502 11.5125 12.502C11.3545 12.502 11.2 12.5185 11.051 12.5495L11.0655 12.547L10.1255 12.7405C10.151 12.6255 10.1655 12.493 10.1655 12.3575C10.1655 12.356 10.1655 12.355 10.1655 12.3535V11.02C10.1625 10.8335 10.1335 10.655 10.082 10.4865L10.0855 10.5C12.492 9.02652 12.9255 4.95352 12.992 4.18652H13.6655V6.35302L16 6.35352ZM8.92651 9.18651C8.69301 9.08202 8.42051 9.02052 8.13351 9.02002C7.84101 9.02202 7.56351 9.08601 7.31351 9.19851L7.32651 9.19351C5.49301 8.42702 4.89301 5.12002 4.76001 4.18702H11.28C11.1935 5.06052 10.72 8.39301 8.92651 9.18651Z" fill="black"/>
</g>
<defs>
<clipPath id="clip0_6_461">
<rect width="16" height="16" fill="white"/>
</clipPath>
</defs>
</svg>
