<svg width="16" height="16" viewBox="0 0 16 16" fill="none" xmlns="http://www.w3.org/2000/svg">
<g clip-path="url(#clip0_6_512)">
<path d="M2.82716 7.72361C3.12566 7.23761 3.38566 6.67711 3.57816 6.08661L3.59416 6.03061C3.96066 4.43061 6.14766 1.53711 8.92766 1.53711V3.20361C7.65416 3.20361 6.45416 4.33011 5.79416 5.38361H5.86066C5.86066 5.38361 9.55416 6.84361 9.63416 6.89011H9.66766C10.0082 7.08961 10.2337 7.45361 10.2342 7.87011C10.2347 7.88161 10.2347 7.89511 10.2347 7.90861C10.2347 8.14311 10.1622 8.36061 10.0382 8.54011L10.0407 8.53661C9.99766 8.59911 9.95166 8.65361 9.90067 8.70311C9.80567 8.79911 9.69267 8.87761 9.56767 8.93361L9.56067 8.93661L7.74716 9.75661L12.2937 13.1301H13.0802V14.4636H9.12667V13.1301H9.48666L5.60666 10.2766C5.40066 10.1231 5.26866 9.88011 5.26866 9.60611C5.26866 9.57461 5.27066 9.54311 5.27366 9.51261L5.27316 9.51661C5.30916 9.22061 5.49316 8.97461 5.74816 8.85211L5.75316 8.85011L6.33966 8.61011L4.80616 7.94361C4.75366 7.92211 4.71016 7.89961 4.66816 7.87411L4.67266 7.87661C4.39266 8.39661 4.09916 8.85661 4.00616 9.00311C3.85666 9.23611 3.59916 9.38861 3.30616 9.38961H0.00616407V7.72311L2.82716 7.72361Z" fill="black"/>
<path d="M12.5137 11.9436V10.6901L10.2737 9.67661C10.7452 9.34911 11.0767 8.84911 11.1787 8.26961L11.1807 8.25661L16.0072 10.4501L15.3407 11.9436H12.5137Z" fill="black"/>
<path d="M0.873664 5.53661C0.344164 5.23161 -0.00683594 4.66861 -0.00683594 4.02361C-0.00683594 3.06261 0.772164 2.28361 1.73316 2.28361C2.69416 2.28361 3.47316 3.06261 3.47316 4.02361C3.47316 4.33411 3.39166 4.62611 3.24916 4.87861L3.25366 4.87011C2.95066 5.40711 2.38366 5.76411 1.73316 5.76411C1.41716 5.76411 1.12066 5.67961 0.865164 5.53261L0.873664 5.53661Z" fill="black"/>
</g>
<defs>
<clipPath id="clip0_6_512">
<rect width="16" height="16" fill="white"/>
</clipPath>
</defs>
</svg>
