<svg width="16" height="16" viewBox="0 0 16 16" fill="none" xmlns="http://www.w3.org/2000/svg">
<path d="M8.37752 10.7225H7.62752C6.07002 10.35 4.26502 10.4225 2.33002 10.7225V11.3375L3.08002 11.48C3.08002 11.48 3.08002 13.75 5.35002 13.75C6.88002 13.75 7.37752 12.3775 7.54002 11.48H8.45502C8.61752 12.3775 9.11502 13.75 10.645 13.75C12.915 13.75 12.915 11.48 12.915 11.48L13.665 11.3375V10.7225C11.7675 10.4175 9.97502 10.3575 8.37752 10.7225Z" fill="black"/>
<path d="M15.2625 7.6975H0.75002C0.41602 7.6975 0.14502 7.9685 0.14502 8.3025C0.14502 8.6365 0.41602 8.9075 0.75002 8.9075C2.93152 9.22 5.45102 9.3985 8.01252 9.3985C10.574 9.3985 13.093 9.22 15.5595 8.8745L15.275 8.907C15.609 8.907 15.88 8.636 15.88 8.302C15.88 7.968 15.609 7.697 15.275 7.697L15.2625 7.6975Z" fill="black"/>
<path d="M11.9475 3.355C11.76 2.712 11.1755 2.25 10.4835 2.25H5.51752C4.82552 2.25 4.24002 2.712 4.05502 3.344L4.05252 3.355L3.15752 6.5H12.8425L11.9475 3.355Z" fill="black"/>
</svg>
