<svg width="16" height="16" viewBox="0 0 16 16" fill="none" xmlns="http://www.w3.org/2000/svg">
<path d="M9.99353 8.33398H6.00703C6.02053 9.20048 6.08703 10.014 6.19353 10.754C6.83353 10.6805 7.48703 10.6405 8.12703 10.6405C8.68053 10.6405 9.24703 10.674 9.80053 10.727C9.90703 10.0005 9.97403 9.19348 9.98703 8.34048L9.99353 8.33398Z" fill="black"/>
<path d="M8.13353 11.3005C7.52003 11.3005 6.90703 11.3405 6.30703 11.407C6.68703 13.387 7.36703 14.667 8.00053 14.667C8.63403 14.667 9.31403 13.3805 9.69403 11.3805C9.18753 11.334 8.66753 11.307 8.13403 11.307L8.13353 11.3005Z" fill="black"/>
<path d="M14.6465 7.66698C14.5865 6.43348 14.193 5.28698 13.553 4.32048C12.6665 4.74048 11.593 5.02698 10.4595 5.19398C10.573 5.98748 10.6395 6.82748 10.653 7.66748L14.6465 7.66698Z" fill="black"/>
<path d="M13.56 11.6805C14.2 10.714 14.5935 9.56698 14.6535 8.33398H10.66C10.6465 9.16748 10.58 10.0075 10.4665 10.8075C11.6 10.974 12.6665 11.2605 13.56 11.6805Z" fill="black"/>
<path d="M9.80653 5.28048C9.25303 5.33398 8.68653 5.36698 8.13303 5.36698C7.46653 5.36698 6.81953 5.32698 6.19953 5.25348C6.09303 5.98698 6.02603 6.79998 6.01303 7.66698H9.99953C9.98603 6.80698 9.91953 6.00698 9.81303 5.28048H9.80653Z" fill="black"/>
<path d="M10.36 4.54048C11.3935 4.39398 12.36 4.13398 13.16 3.78048C12.1865 2.59398 10.8135 1.75398 9.25353 1.46048C9.75353 2.16048 10.127 3.26698 10.367 4.54698L10.36 4.54048Z" fill="black"/>
<path d="M5.64653 11.5005C4.62653 11.667 3.68653 11.9405 2.92003 12.314C3.88653 13.454 5.22653 14.2605 6.75353 14.5475C6.26003 13.854 5.88653 12.7605 5.64653 11.5005Z" fill="black"/>
<path d="M13.12 12.2005C12.34 11.854 11.4 11.607 10.36 11.4605C10.12 12.7405 9.74653 13.847 9.24653 14.547C10.813 14.247 12.1865 13.407 13.16 12.2205C13.1465 12.2205 13.1335 12.207 13.12 12.2005Z" fill="black"/>
<path d="M8.13353 4.70048C8.66003 4.70048 9.18003 4.67398 9.69353 4.62048C9.31353 2.62048 8.63353 1.33398 8.00003 1.33398C7.36653 1.33398 6.69353 2.60748 6.30653 4.59398C6.90653 4.66048 7.52053 4.70048 8.13353 4.70048Z" fill="black"/>
<path d="M5.34003 8.33398H1.35353C1.41353 9.60748 1.83353 10.7875 2.51353 11.774C3.37353 11.334 4.42703 11.0275 5.54703 10.8405C5.42703 10.034 5.36053 9.18048 5.34703 8.32698L5.34003 8.33398Z" fill="black"/>
<path d="M5.64653 4.50048C5.88653 3.24048 6.25303 2.14698 6.75303 1.45398C5.22653 1.74048 3.88653 2.55398 2.91953 3.68748C3.68603 4.06098 4.62653 4.33348 5.64653 4.50048Z" fill="black"/>
<path d="M5.34003 7.66698C5.35353 6.82048 5.42003 5.96698 5.54003 5.16048C4.55353 5.00048 3.64003 4.74698 2.88003 4.41398C2.74653 4.35398 2.62653 4.29398 2.50653 4.22748C1.82653 5.21398 1.41303 6.39398 1.35303 7.66748H5.34653L5.34003 7.66698Z" fill="black"/>
</svg>
