<svg width="16" height="16" viewBox="0 0 16 16" fill="none" xmlns="http://www.w3.org/2000/svg">
<g clip-path="url(#clip0_6_528)">
<path d="M15.9465 15.9509L15.9065 15.8974L15.833 15.7974L15.7665 15.7109L15.66 15.5709L15.4335 15.2774L15.287 15.0839L15.1605 14.9239L14.9805 14.6974L14.847 14.5239L14.667 14.2704C14.667 14.2304 14.607 14.1969 14.5805 14.1639L14.0805 13.5574L13.9405 13.3909L13.7005 13.1174L13.5405 12.9309L13.3005 12.6644L13.127 12.4779L12.8935 12.2314L12.667 12.0449L12.4335 11.8184C12.379 11.7594 12.3225 11.7049 12.263 11.6539L12.2605 11.6514L12.0405 11.4449L11.907 11.3314L11.7005 11.1579C11.587 11.0714 11.4805 10.9979 11.374 10.9314C11.282 10.8689 11.177 10.8109 11.0665 10.7629L11.054 10.7579C10.972 10.7174 10.876 10.6929 10.7745 10.6914C10.7465 10.6874 10.7135 10.6854 10.6805 10.6854C10.6475 10.6854 10.615 10.6874 10.5835 10.6919L10.587 10.6914L10.507 10.7249L10.367 10.7849L10.127 10.9184L9.96699 11.0184C9.83349 11.1049 9.68699 11.2119 9.54049 11.3249L9.48049 11.3649C8.40249 12.2259 7.43949 13.0874 6.52649 13.9989L6.34049 14.1849L5.79399 13.8514C5.40749 13.6249 4.87399 13.3114 4.40049 13.0849C4.13549 12.9274 3.82649 12.8114 3.49699 12.7539L3.48049 12.7514C3.46049 12.7479 3.43749 12.7464 3.41399 12.7464C3.39049 12.7464 3.36749 12.7484 3.34499 12.7519L3.34749 12.7514C2.89199 13.0384 2.49799 13.3649 2.15049 13.7349L2.14749 13.7379C1.56099 14.3044 0.927488 14.9844 0.513988 15.4314L0.000488281 15.9979H16.0005L15.9465 15.9509Z" fill="black"/>
<path d="M5.70649 4.66443C5.20149 4.71393 4.75799 4.78243 4.32199 4.87243L4.40649 4.85793C4.42299 6.39893 4.72249 7.86543 5.25549 9.21393L5.22649 9.13143C5.59599 10.1504 6.04599 11.0304 6.58849 11.8434L6.55999 11.7979C6.75499 11.8509 6.99849 11.8999 7.24749 11.9344L7.27999 11.9379C7.76649 11.4914 8.18649 11.1379 8.54649 10.8514C8.47299 10.6979 8.39999 10.5579 8.32649 10.3979C7.56799 8.71843 6.98149 6.76743 6.66299 4.72743L6.64649 4.59793C6.31299 4.58443 5.99999 4.59793 5.70649 4.66443Z" fill="black"/>
<path d="M9.84649 3.67743C10.0465 3.42393 10.2265 3.17743 10.4 2.92393C9.45149 2.58793 8.35799 2.39393 7.21899 2.39393C7.06449 2.39393 6.91099 2.39743 6.75849 2.40443L6.77999 2.40343C5.27949 2.49593 3.87799 2.78643 2.55749 3.24993L2.66649 3.21643C2.52249 3.48743 2.38649 3.80743 2.27849 4.13943L2.26649 4.18293C3.23299 3.85043 4.36299 3.59893 5.53099 3.47543L5.59949 3.46943C6.01699 3.42893 6.50149 3.40543 6.99199 3.40543C8.00149 3.40543 8.98799 3.50393 9.94249 3.69193L9.84599 3.67593L9.84649 3.67743Z" fill="black"/>
<path d="M4.76649 11.0044C4.55949 10.6109 4.33499 10.1144 4.13649 9.60493L4.09949 9.49793C3.59999 8.19943 3.29099 6.69793 3.24649 5.13043L3.24599 5.11143C2.84599 5.22493 2.44599 5.35143 2.03949 5.50493C1.99949 5.65843 1.99949 5.81843 1.99949 5.99843C2.01649 8.09343 3.10499 9.93043 4.74249 10.9909L4.76649 11.0044Z" fill="black"/>
<path d="M11.7935 5.49743C12.378 4.89193 12.8885 4.20893 13.3075 3.46743L13.3335 3.41743C13.3345 3.40443 13.335 3.38943 13.335 3.37393C13.335 3.35843 13.3345 3.34343 13.3335 3.32843V3.33043C13.057 2.77893 12.7235 2.30493 12.3305 1.88743L12.3335 1.89043C12.304 1.96993 12.27 2.03793 12.2305 2.10193L12.2335 2.09693C11.803 2.93743 11.3335 3.66043 10.7995 4.33043L10.82 4.30393C11.1865 4.66393 11.5065 5.09043 11.7935 5.49743Z" fill="black"/>
<path d="M12.9265 7.43743C13.3005 7.12143 13.638 6.79243 13.951 6.44093L13.9595 6.43093C13.9595 6.27743 13.9595 6.13093 13.9595 5.97743C13.958 5.54493 13.912 5.12343 13.8255 4.71743L13.8325 4.75743C13.394 5.41093 12.929 5.98193 12.417 6.50643L12.4195 6.50393C12.5805 6.75843 12.749 7.06443 12.901 7.37993L12.9265 7.43743Z" fill="black"/>
<path d="M11.0335 1.91743L11.22 1.56393C11.2935 1.40393 11.3735 1.24393 11.44 1.08393C10.482 0.40743 9.29049 0.00292969 8.00449 0.00292969C6.38949 0.00292969 4.92349 0.64093 3.84449 1.67893L3.84649 1.67693C4.69449 1.45243 5.68199 1.29793 6.69699 1.24493L6.73299 1.24343C6.87499 1.23693 7.04149 1.23293 7.20849 1.23293C8.58149 1.23293 9.89599 1.48343 11.109 1.94193L11.0335 1.91743Z" fill="black"/>
<path d="M9.47999 10.1374C9.82999 9.86343 10.2685 9.68743 10.747 9.65793L10.7535 9.65743C11.298 9.71393 11.783 9.93143 12.1705 10.2604L12.167 10.2574C12.2935 10.1309 12.427 9.99743 12.547 9.86393C12.402 9.24893 12.226 8.71993 12.009 8.21193L12.034 8.27743C11.448 6.95693 10.689 5.82393 9.76799 4.84443L9.77399 4.85093C9.21049 4.73293 8.53649 4.64293 7.84949 4.59993L7.80699 4.59793C8.11499 6.57643 8.64749 8.35443 9.38749 10.0199L9.33349 9.88443C9.39999 9.99793 9.43999 10.0504 9.47999 10.1374Z" fill="black"/>
</g>
<defs>
<clipPath id="clip0_6_528">
<rect width="16" height="16" fill="white"/>
</clipPath>
</defs>
</svg>
