<svg width="16" height="16" viewBox="0 0 16 16" fill="none" xmlns="http://www.w3.org/2000/svg">
<g clip-path="url(#clip0_6_326)">
<path d="M8 0C3.5815 0 0 3.5815 0 8C0 12.4185 3.5815 16 8 16C12.4185 16 16 12.4185 16 8C16 3.5815 12.4185 0 8 0ZM8 1.75C10.552 1.7505 12.746 3.28 13.7165 5.4725L13.7325 5.5125C12.9975 5.3875 12.2575 5.295 11.565 5.23L9.2875 4.66C8.901 4.5585 8.4575 4.5005 8 4.5005C7.5425 4.5005 7.099 4.5585 6.676 4.668L6.7125 4.66L4.435 5.23C3.7425 5.295 3.0025 5.3875 2.2675 5.5125C3.254 3.28 5.448 1.7505 8 1.75ZM6.375 14.035C4.1365 13.4125 2.4275 11.637 1.911 9.405L1.9025 9.3625C2.736 9.1255 3.725 8.939 4.739 8.8405L4.81 8.835C5.5295 9.0245 6.101 9.536 6.3695 10.202L6.375 10.2175V14.035ZM8 9.125C6.9645 9.125 6.125 8.2855 6.125 7.25C6.125 6.2145 6.9645 5.375 8 5.375C9.0355 5.375 9.875 6.2145 9.875 7.25C9.875 8.2855 9.0355 9.125 8 9.125ZM9.625 14.035V10.2175C9.899 9.536 10.4705 9.0245 11.174 8.8385L11.19 8.835C12.275 8.939 13.264 9.1255 14.2195 9.3915L14.0975 9.3625C13.5725 11.637 11.8635 13.4125 9.669 14.0245L9.625 14.035Z" fill="black"/>
<path d="M9.125 7.25C9.125 7.8715 8.6215 8.375 8 8.375C7.3785 8.375 6.875 7.8715 6.875 7.25C6.875 6.6285 7.3785 6.125 8 6.125C8.6215 6.125 9.125 6.6285 9.125 7.25Z" fill="black"/>
</g>
<defs>
<clipPath id="clip0_6_326">
<rect width="16" height="16" fill="white"/>
</clipPath>
</defs>
</svg>
