<svg width="16" height="16" viewBox="0 0 16 16" fill="none" xmlns="http://www.w3.org/2000/svg">
<g clip-path="url(#clip0_15_390)">
<path fill-rule="evenodd" clip-rule="evenodd" d="M15.9775 11.6723V2.39675C15.9775 2.18634 15.8081 2.01518 15.5978 2.01413L13.6361 2H13.5812C13.5812 2 3.72047 2 2.39681 2H2.34294L0.380205 2.01413C0.169968 2.0157 0 2.18634 0 2.39675V4.31667C0 4.31667 0 4.31981 0 4.32138V11.6723C0 11.6723 0 11.6755 0 11.677V13.6174C0 13.8299 0.172583 14.0016 0.384912 14C0.947637 13.9958 1.96274 13.989 2.29117 13.9911C2.29117 13.9911 2.29169 13.9911 2.29221 13.9911H2.29483C2.3283 13.9927 2.36177 13.9932 2.39576 13.9932H15.6177C15.8306 13.9932 16.0026 13.8189 16 13.6059L15.9775 11.6723ZM1.09982 12.8516V5.94137H14.8542L14.8463 12.7993L1.09982 12.8516Z" fill="black"/>
</g>
<defs>
<clipPath id="clip0_15_390">
<rect width="16" height="16" fill="white"/>
</clipPath>
</defs>
</svg>
