<svg width="16" height="16" viewBox="0 0 16 16" fill="none" xmlns="http://www.w3.org/2000/svg">
<g clip-path="url(#clip0_6_451)">
<path d="M11.925 11.9223L0.965 0.964844L0.03 1.89984L2.9075 4.77734C1.7145 5.62884 0.7385 6.70534 0.0255 7.95134L0 7.99984C1.6575 10.9173 4.62 12.8623 8 12.8623H8.003C8.928 12.8623 9.8185 12.7158 10.6535 12.4453L10.593 12.4623L13.1505 15.0198L14.0855 14.0848L11.9255 11.9248L11.925 11.9223ZM8.015 11.4673C6.101 11.4643 4.55 9.91184 4.55 7.99734C4.55 7.52234 4.6455 7.06934 4.8185 6.65684L4.81 6.67984L5.975 7.84234C5.975 7.89484 5.975 7.94734 5.975 7.99984C5.975 9.13184 6.893 10.0498 8.025 10.0498H8.1825L9.345 11.2123C8.959 11.3738 8.511 11.4673 8.0405 11.4673C8.0315 11.4673 8.0225 11.4673 8.0135 11.4673H8.015Z" fill="black"/>
<path d="M8.015 4.53234C9.93 4.53234 11.483 6.08484 11.483 7.99984C11.483 8.48434 11.3835 8.94584 11.204 9.36484L11.2125 9.34234L13.095 11.2248C14.286 10.3713 15.261 9.29434 15.9745 8.04834L16 7.99984C14.3425 5.08234 11.38 3.13734 8 3.13734C7.074 3.13884 6.182 3.28484 5.346 3.55434L5.4075 3.53734L6.675 4.80234C7.0705 4.63184 7.531 4.53234 8.015 4.53234Z" fill="black"/>
<path d="M7.83 5.95984L10.055 8.18484C10.055 8.12234 10.055 8.06234 10.055 7.99984C10.055 6.86784 9.137 5.94984 8.005 5.94984C7.9525 5.94984 7.8925 5.95484 7.83 5.95984Z" fill="black"/>
</g>
<defs>
<clipPath id="clip0_6_451">
<rect width="16" height="16" fill="white"/>
</clipPath>
</defs>
</svg>
