<svg width="16" height="16" viewBox="0 0 16 16" fill="none" xmlns="http://www.w3.org/2000/svg">
<path d="M12.62 8.6C12.62 8.6 12.58 8.6 12.56 8.6C11.75 8.6 11.1 9.25 11.1 10.06C11.1 10.87 11.75 11.52 12.56 11.52C12.58 11.52 12.6 11.52 12.62 11.52H15.99V8.6H12.61H12.62ZM13.4 10.06C13.4 10.43 13.1 10.72 12.73 10.72C12.36 10.72 12.06 10.42 12.06 10.05C12.06 9.68 12.36 9.38 12.73 9.38C13.1 9.38 13.4 9.68 13.4 10.05V10.06Z" fill="black"/>
<path d="M11.92 4.6H14.5V3.67H2.61C2.37 3.67 2.17 3.87 2.17 4.12V4.17C2.17 4.41 2.37 4.61 2.61 4.61H11.92C11.92 4.61 11.92 4.61 11.92 4.62V4.6Z" fill="black"/>
<path d="M12.55 12.45C11.23 12.45 10.15 11.38 10.15 10.05C10.15 8.72 11.22 7.65 12.55 7.65C12.58 7.65 12.6 7.65 12.63 7.65H15.56V6.85C15.56 6.12 14.97 5.52 14.23 5.52H2.54C1.81 5.47 1.23 4.86 1.23 4.12C1.23 4.12 1.23 4.07 1.23 4.05C1.23 4.03 1.23 4.01 1.23 3.98C1.29 3.27 1.88 2.71 2.61 2.71H12.68C12.68 2.71 12.68 2.73 12.68 2.74V2.71H13.81V2H1.77C0.79 2 0 2.79 0 3.77V13.04C0 13.89 0.69 14.57 1.53 14.57H14.23C14.96 14.57 15.56 13.98 15.56 13.24V12.44H12.63C12.63 12.44 12.58 12.44 12.55 12.44V12.45Z" fill="black"/>
</svg>
