<svg width="16" height="16" viewBox="0 0 16 16" fill="none" xmlns="http://www.w3.org/2000/svg">
<path d="M13.205 2.875H13.125V1.295C13.125 0.58 12.545 0 11.83 0H3.265C2.29 0 1.5 0.79 1.5 1.765V14.235C1.5 15.21 2.29 16 3.265 16H13.205C13.92 16 14.5 15.42 14.5 14.705V4.17C14.5 3.455 13.92 2.875 13.205 2.875ZM11.1575 13.125H5.0925C4.852 13.1215 4.6585 12.926 4.6585 12.685C4.6585 12.664 4.66 12.643 4.663 12.6225L4.6625 12.625C4.9205 10.9245 6.3725 9.636 8.125 9.636C9.8775 9.636 11.3295 10.9245 11.585 12.6055L11.5875 12.625C11.59 12.643 11.5915 12.664 11.5915 12.685C11.5915 12.926 11.398 13.1215 11.1575 13.125ZM6.125 6.8C6.125 5.6955 7.0205 4.8 8.125 4.8C9.2295 4.8 10.125 5.6955 10.125 6.8C10.125 7.9045 9.2295 8.8 8.125 8.8C7.0205 8.8 6.125 7.9045 6.125 6.8ZM11.875 2.52C11.8735 2.7155 11.7155 2.8735 11.52 2.875H3.375C2.961 2.875 2.625 2.539 2.625 2.125C2.625 1.711 2.961 1.375 3.375 1.375H11.52C11.7155 1.3765 11.8735 1.5345 11.875 1.73V2.52Z" fill="black"/>
</svg>
