<svg width="16" height="16" viewBox="0 0 16 16" fill="none" xmlns="http://www.w3.org/2000/svg">
<path d="M7.294 5.23285C6.8495 6.02135 6.588 6.96335 6.588 7.96685C6.588 8.97035 6.85 9.91285 7.3085 10.7294L7.294 10.7009C7.083 10.7584 6.84 10.7924 6.5895 10.7949H6.588C5.0285 10.7949 3.7645 9.53085 3.7645 7.97135C3.7645 6.41185 5.0285 5.14785 6.588 5.14785C6.591 5.14785 6.5945 5.14785 6.598 5.14785C6.845 5.14785 7.085 5.17885 7.314 5.23685L7.294 5.23285ZM2.259 6.11735C2.0195 6.66285 1.8805 7.29835 1.8805 7.96685C1.8805 8.63535 2.02 9.27085 2.271 9.84635L2.259 9.81585C2.2025 9.82035 2.137 9.82285 2.071 9.82285C2.005 9.82285 1.939 9.82035 1.874 9.81535L1.8825 9.81585C0.843 9.81585 0 8.97285 0 7.93335C0 6.89385 0.8425 6.05085 1.8825 6.05085C2.024 6.06485 2.152 6.08835 2.2765 6.12085L2.259 6.11735ZM12.2355 11.7644C10.1565 11.7644 8.471 10.0789 8.471 7.99985C8.471 5.92085 10.1565 4.23535 12.2355 4.23535C14.3145 4.23535 16 5.92085 16 7.99985C15.984 10.0539 14.326 11.7154 12.275 11.7364H12.273L12.2355 11.7644Z" fill="black"/>
</svg>
