<svg width="16" height="16" viewBox="0 0 16 16" fill="none" xmlns="http://www.w3.org/2000/svg">
<g clip-path="url(#clip0_6_385)">
<path d="M5.40883 9.02C6.11133 8.609 6.57583 7.8585 6.57583 6.999C6.57583 5.7105 5.53133 4.6655 4.24233 4.6655C2.95333 4.6655 1.90883 5.71 1.90883 6.999C1.90883 7.429 2.02533 7.8315 2.22783 8.1775L2.22183 8.1665C2.63283 8.8685 3.38333 9.3325 4.24183 9.3325C4.67133 9.3325 5.07383 9.2165 5.41933 9.014L5.40883 9.02Z" fill="black"/>
<path d="M14.5753 0L6.48183 9.2535C5.69233 10.151 4.64833 10.8075 3.46333 11.111L3.42183 11.12L1.10183 11.7C0.516332 11.849 0.090332 12.372 0.090332 12.994C0.090332 13.0715 0.096832 13.1475 0.109832 13.2215L0.108832 13.2135L0.202332 13.7735C0.420832 15.045 1.51483 16.0005 2.83233 16.0005C2.84533 16.0005 2.85783 16.0005 2.87083 16H2.86883H4.93533C5.54033 15.999 6.05083 15.5955 6.21283 15.043L6.21533 15.0335L6.78883 13.0335C7.13583 11.847 7.66983 10.814 8.36533 9.9115L8.34883 9.9335L15.9088 0H14.5753Z" fill="black"/>
</g>
<defs>
<clipPath id="clip0_6_385">
<rect width="16" height="16" fill="white"/>
</clipPath>
</defs>
</svg>
