<svg width="16" height="16" viewBox="0 0 16 16" fill="none" xmlns="http://www.w3.org/2000/svg">
<path d="M6.866 15.25H2.674C2.2115 15.25 1.837 14.875 1.837 14.413V9.384C1.3745 9.384 1 9.009 1 8.547V6.8665C1 6.404 1.375 6.0295 1.837 6.0295H6.866V15.25ZM13.569 6.029H8.54V15.25H12.732C13.1945 15.25 13.569 14.875 13.569 14.413V9.384C14.0315 9.384 14.406 9.009 14.406 8.547V6.8665C14.406 6.404 14.031 6.029 13.569 6.029ZM11.0575 1C9.2045 1 7.703 2.502 7.703 4.3545H11.0575C11.52 4.3545 11.8945 3.9795 11.8945 3.5175V1.837C11.8945 1.3745 11.5195 1 11.0575 1ZM4.3485 1C3.886 1 3.5115 1.375 3.5115 1.837V3.5175C3.5115 3.98 3.8865 4.3545 4.3485 4.3545H7.703C7.703 2.5015 6.201 1 4.3485 1Z" fill="black"/>
</svg>
