<svg width="16" height="16" viewBox="0 0 16 16" fill="none" xmlns="http://www.w3.org/2000/svg">
<g clip-path="url(#clip0_6_500)">
<path d="M9.11 0.14C9.112 0.131 9.113 0.1205 9.113 0.11C9.113 0.0995 9.112 0.089 9.1095 0.079C8.7765 0.0285 8.3915 0.0005 8 0C5.779 0.001 3.769 0.907 2.32 2.3695C4.882 3.47 7.087 4.871 9.0295 6.5655L8.9995 6.54C9.9995 4.88 10 2.64 9.11 0.14Z" fill="black"/>
<path d="M7.72 8.05C5.8305 6.3855 3.6285 5.0185 1.222 4.054L1.07 4C0.3975 5.1465 0 6.5255 0 7.997C0 7.998 0 7.999 0 8.0005C0.0045 8.358 0.03 8.7045 0.075 9.045L0.07 9.0005C3.13 9.7505 5.91 9.47 7.72 8.05Z" fill="black"/>
<path d="M10.47 15.61C11.361 15.313 12.1335 14.8985 12.8195 14.3755L12.8 14.39C12.43 13.72 12.05 13.06 11.62 12.39C10.9785 13.292 10.5615 14.3945 10.4715 15.5885L10.47 15.61Z" fill="black"/>
<path d="M9.18 9.43C7.637 10.6435 5.6665 11.3765 3.5245 11.3765C3.4035 11.3765 3.283 11.374 3.163 11.3695L3.1805 11.37C2.27 11.3615 1.3855 11.2745 0.5265 11.1155L0.6205 11.13C1.871 14.017 4.695 16 7.983 16C7.989 16 7.9955 16 8.0015 16H8.4405C8.4765 14.0115 9.2035 12.1995 10.391 10.7875L10.3805 10.8C10.0005 10.3267 9.6 9.87 9.18 9.43Z" fill="black"/>
<path d="M10.51 7.93C11 8.44 11.51 8.93 11.93 9.51C13.003 8.8785 14.2935 8.5055 15.6715 8.5055C15.7625 8.5055 15.853 8.507 15.943 8.5105L15.93 8.51C15.93 8.34 15.93 8.17 15.93 7.99C15.9275 4.805 14.064 2.056 11.3685 0.771L11.32 0.7505C11.5865 1.554 11.7405 2.479 11.7405 3.4395C11.7405 5.0965 11.283 6.6465 10.488 7.97L10.51 7.93Z" fill="black"/>
<path d="M14.28 13C14.831 12.305 15.2765 11.495 15.5735 10.6165L15.59 10.56C14.6935 10.563 13.85 10.788 13.1115 11.184L13.14 11.17C13.54 11.7233 13.92 12.3333 14.28 13Z" fill="black"/>
</g>
<defs>
<clipPath id="clip0_6_500">
<rect width="16" height="16" fill="white"/>
</clipPath>
</defs>
</svg>
