<svg width="16" height="16" viewBox="0 0 16 16" fill="none" xmlns="http://www.w3.org/2000/svg">
<g clip-path="url(#clip0_6_475)">
<path d="M8 0C3.5815 0 0 3.5815 0 8C0 12.4185 3.5815 16 8 16C12.4185 16 16 12.4185 16 8C16 3.5815 12.4185 0 8 0ZM9.0935 3.3335L8.54 5.2135H10.04L10.5865 3.3335H11.84L10.4065 8.1935H9.173L9.753 6.1935H8.253L7.6665 8.1935H6.4265L7.84 3.3335H9.0935ZM1.84 8.1935L3.1 3.9L2.36 3.3335H4.42L5.1665 6.1335L6 3.3335H7.24L5.82 8.1935H4.6665L3.92 5.3735L3.1 8.1935H1.84ZM7.1735 11.68L5.44 12.2065C5.378 12.227 5.331 12.2765 5.3135 12.3385L5.313 12.34L5.193 12.78H7.333L7.0465 13.76H3.713L4.233 12C4.329 11.678 4.5775 11.4295 4.8925 11.335L4.8995 11.333L6.666 10.853C6.726 10.8325 6.7725 10.7865 6.792 10.7275L6.7925 10.726L7.039 9.9125H5.999L5.8255 10.5325L4.732 10.3125L4.872 9.7725C5.004 9.27 5.454 8.906 5.989 8.906C5.9925 8.906 5.9955 8.906 5.999 8.906H7.632C7.9825 8.928 8.2585 9.2175 8.2585 9.5715C8.2585 9.6285 8.2515 9.6845 8.2375 9.7375L8.2385 9.733L7.825 11.0265C7.7215 11.3385 7.4785 11.579 7.172 11.678L7.165 11.68H7.1735ZM12.24 9.68L11.3 12.9535C11.1605 13.412 10.742 13.7395 10.2465 13.74H8.4665C8.1215 13.7385 7.842 13.4585 7.842 13.1135C7.842 13.052 7.851 12.992 7.8675 12.9355L7.8665 12.94L8.82 9.6735C8.9595 9.215 9.378 8.8875 9.8735 8.887H11.6335C11.6365 8.887 11.6405 8.887 11.6445 8.887C11.987 8.887 12.2645 9.1645 12.2645 9.507C12.2645 9.576 12.253 9.6425 12.2325 9.705L12.234 9.7005L12.24 9.68ZM12.24 8.1735H11L12.42 3.3335H13.6735L12.5335 7.207H14.4535L14.167 8.1935L12.24 8.1735Z" fill="black"/>
<path d="M9.0935 12.7535H10.2L11.0335 9.92H9.9135L9.0935 12.7535Z" fill="black"/>
</g>
<defs>
<clipPath id="clip0_6_475">
<rect width="16" height="16" fill="white"/>
</clipPath>
</defs>
</svg>
