<svg width="16" height="16" viewBox="0 0 16 16" fill="none" xmlns="http://www.w3.org/2000/svg">
<g clip-path="url(#clip0_6_224)">
<path d="M11.3316 5.24588C11.5611 5.38138 11.8371 5.46138 12.1321 5.46138C13.0121 5.46138 13.7256 4.74788 13.7256 3.86788C13.7256 2.98788 13.0121 2.27438 12.1321 2.27438C11.5451 2.27438 11.0321 2.59188 10.7556 3.06438L10.7516 3.07188C10.6191 3.29988 10.5411 3.57338 10.5411 3.86488C10.5411 4.44988 10.8551 4.96188 11.3241 5.24088L11.3316 5.24588Z" fill="black"/>
<path d="M2.90508 10.9529H2.95158C3.02558 10.9989 3.11108 11.0414 3.20108 11.0759L3.21158 11.0794C3.43958 11.1724 3.70408 11.2259 3.98158 11.2259C3.98758 11.2259 3.99358 11.2259 3.99908 11.2259C4.01558 11.2264 4.03408 11.2264 4.05358 11.2264C4.58058 11.2264 5.06408 11.0399 5.44158 10.7294L5.43758 10.7324C6.12108 10.2079 6.98808 9.89188 7.92908 9.89188C7.95308 9.89188 7.97708 9.89188 8.00108 9.89238H7.99758C8.01508 9.89188 8.03608 9.89188 8.05708 9.89188C8.99908 9.89188 9.86658 10.2079 10.5606 10.7394L10.5506 10.7319C10.9246 11.0394 11.4081 11.2259 11.9351 11.2259C11.9571 11.2259 11.9786 11.2254 12.0006 11.2249H11.9976C12.0136 11.2254 12.0321 11.2254 12.0506 11.2254C12.5806 11.2254 13.0671 11.0389 13.4486 10.7284L13.4446 10.7314C14.1246 10.2069 14.9891 9.89088 15.9271 9.89088C15.9521 9.89088 15.9766 9.89088 16.0016 9.89138H15.9981V7.89138C15.9786 7.89088 15.9551 7.89088 15.9321 7.89088C14.9926 7.89088 14.1266 8.20688 13.4351 8.73838L13.4446 8.73138C13.0676 9.03888 12.5811 9.22538 12.0506 9.22538C12.0321 9.22538 12.0136 9.22538 11.9951 9.22488H11.9976C11.9791 9.22538 11.9576 9.22588 11.9356 9.22588C11.4086 9.22588 10.9246 9.03938 10.5471 8.72888L10.5511 8.73188C10.0431 8.34638 9.43008 8.07188 8.76258 7.95538L8.73758 7.95188H8.61108C8.42558 7.92338 8.21058 7.90638 7.99208 7.90538C7.96858 7.90488 7.94008 7.90438 7.91208 7.90438C6.97858 7.90438 6.11808 8.21538 5.42758 8.73938L5.43758 8.73188C5.06358 9.03938 4.58008 9.22588 4.05308 9.22588C4.03358 9.22588 4.01408 9.22588 3.99458 9.22488H3.99758C3.97858 9.22538 3.95608 9.22588 3.93308 9.22588C3.40658 9.22588 2.92358 9.03938 2.54708 8.72838L2.55058 8.73138L2.30408 8.56488L2.25058 8.53138L1.99708 8.39788L1.92358 8.35788L1.66358 8.23138H1.60358C1.13058 8.01888 0.578582 7.89388 -0.00241797 7.89138H-0.00341797V9.89138C0.015082 9.89088 0.036582 9.89088 0.058582 9.89088C0.999582 9.89088 1.86658 10.2069 2.56008 10.7384L2.55008 10.7314L2.90508 10.9529Z" fill="black"/>
<path d="M15.9981 11.2259C15.8846 11.2259 15.7781 11.2259 15.6716 11.2259C14.8241 11.2829 14.0581 11.5899 13.4356 12.0729L13.4451 12.0659C13.0681 12.3734 12.5816 12.5599 12.0511 12.5599C12.0326 12.5599 12.0141 12.5599 11.9956 12.5594H11.9981C11.9796 12.5599 11.9581 12.5604 11.9361 12.5604C11.4091 12.5604 10.9251 12.3739 10.5476 12.0634L10.5516 12.0664C9.93658 11.5979 9.17008 11.2974 8.33658 11.2469L8.32508 11.2464C8.21858 11.2464 8.11858 11.2464 8.00508 11.2464C7.89158 11.2464 7.78508 11.2464 7.68508 11.2464C6.83258 11.2934 6.05908 11.5944 5.42808 12.0739L5.43808 12.0664C5.06408 12.3739 4.58058 12.5604 4.05358 12.5604C4.03408 12.5604 4.01458 12.5604 3.99508 12.5594H3.99808C3.97908 12.5599 3.95658 12.5604 3.93358 12.5604C3.40708 12.5604 2.92408 12.3739 2.54758 12.0629L2.55108 12.0659C1.93758 11.5979 1.17408 11.2979 0.342582 11.2464L0.331082 11.2459C0.224582 11.2459 0.117582 11.2459 0.00458192 11.2459H-0.00191808V13.2459C0.0240819 13.2454 0.0550819 13.2449 0.0855819 13.2449C1.01508 13.2449 1.87258 13.5534 2.56158 14.0734L2.55108 14.0659C2.92408 14.3734 3.40708 14.5604 3.93358 14.5604C3.95608 14.5604 3.97858 14.5599 4.00108 14.5594H3.99758C4.01408 14.5599 4.03358 14.5599 4.05308 14.5599C4.58008 14.5599 5.06358 14.3734 5.44108 14.0629L5.43708 14.0659C6.12058 13.5414 6.98758 13.2254 7.92858 13.2254C7.95258 13.2254 7.97658 13.2254 8.00058 13.2259H7.99708C8.01458 13.2254 8.03558 13.2254 8.05658 13.2254C8.99858 13.2254 9.86608 13.5414 10.5601 14.0729L10.5501 14.0654C10.9241 14.3729 11.4076 14.5594 11.9346 14.5594C11.9566 14.5594 11.9781 14.5589 12.0001 14.5584H11.9971C12.0131 14.5589 12.0316 14.5589 12.0501 14.5589C12.5801 14.5589 13.0666 14.3724 13.4481 14.0619L13.4441 14.0649C14.1261 13.5404 14.9916 13.2244 15.9311 13.2244C15.9546 13.2244 15.9776 13.2244 16.0006 13.2249H15.9971V11.2249L15.9981 11.2259Z" fill="black"/>
<path d="M3.29158 7.61938C3.67808 7.87938 3.70508 7.89288 3.95808 7.89288C4.21108 7.89288 4.27808 7.89288 4.66458 7.61938C5.55308 6.95638 6.67308 6.55838 7.88608 6.55838C7.92558 6.55838 7.96458 6.55888 8.00408 6.55938H7.99808C8.01058 6.55938 8.02508 6.55938 8.03958 6.55938C9.27508 6.55938 10.4181 6.95688 11.3476 7.63088L11.3311 7.61938C11.7176 7.87938 11.7446 7.89288 12.0376 7.89288C12.3306 7.89288 12.3511 7.89288 12.7441 7.61938C13.5576 7.02088 14.5646 6.64038 15.6566 6.57988L15.6706 6.57938L14.9106 5.34588C11.3041 7.44588 10.1771 5.55938 9.80408 4.93938C8.36408 2.52588 5.69758 0.619376 2.99758 1.79938L3.66408 3.32588C4.99758 2.75238 6.23758 3.40588 7.17758 4.29938L1.99758 6.91288C2.49158 7.11388 2.91758 7.35088 3.30958 7.63238L3.29158 7.61938Z" fill="black"/>
</g>
<defs>
<clipPath id="clip0_6_224">
<rect width="16" height="16" fill="white"/>
</clipPath>
</defs>
</svg>
