<svg width="16" height="16" viewBox="0 0 16 16" fill="none" xmlns="http://www.w3.org/2000/svg">
<path d="M3.50041 8.0149C3.50041 9.97842 3.50041 11.9414 3.50041 13.9049C3.50041 14.4375 3.81695 14.8284 4.36005 14.9597C4.47798 14.9881 4.60522 14.998 4.72812 14.998C6.91044 15.0001 9.09214 15.0007 11.2745 14.999C12.0087 14.999 12.4991 14.5654 12.4991 13.917C12.5003 9.97132 12.5003 6.02678 12.4991 2.08169C12.4991 1.43374 12.0075 1.00178 11.2726 1.00123C9.09028 0.99959 6.90858 0.999589 4.72626 1.00123C3.99323 1.00123 3.50165 1.43593 3.50103 2.08387C3.49917 4.06106 3.50041 6.03771 3.50041 8.0149ZM11.3746 2.72799L11.3746 11.756L4.72626 11.756L4.72626 2.72799L11.3746 2.72799ZM7.99601 1.62293C8.51801 1.62293 9.56138 1.62293 9.56138 1.62293L9.56013 2.11231L6.44493 2.11231L6.44617 1.62293C6.44617 1.62293 7.47961 1.62293 7.99601 1.62293ZM8.00098 13.9886C7.59381 13.9886 7.2967 13.6906 7.30229 13.3357C7.30787 12.9808 7.59567 12.6971 7.99912 12.6965C8.40256 12.6965 8.67233 12.9803 8.67978 13.3357C8.68723 13.6895 8.40753 13.988 8.00098 13.9886Z" fill="black"/>
</svg>
