<svg width="16" height="16" viewBox="0 0 16 16" fill="none" xmlns="http://www.w3.org/2000/svg">
<g clip-path="url(#clip0_6_551)">
<path d="M11.0137 4.17395H11.4202V4.28045H11.0137V4.17395Z" fill="black"/>
<path d="M15.6402 1.74695C7.02018 -2.12655 0.34668 1.74695 0.34668 1.74695C0.83318 15.5534 7.99318 15.9804 7.99318 15.9804C16.3467 13.9204 15.6402 1.74695 15.6402 1.74695ZM7.14668 10.4004H6.60018L5.98018 10.0804L6.05368 8.73395L5.54018 7.95395H5.10018L4.88018 8.73395L4.56668 9.16045L4.21318 10.7804V11.4404L4.07968 11.6939L3.66618 11.8274L3.49268 11.6209L3.73918 10.5009L3.67918 9.02745L3.76568 8.51395L4.21918 7.10045L4.03918 6.95395L4.02568 6.43395L4.21918 6.22745L4.11268 5.98095L4.13918 5.30095L3.43268 5.26745L3.39918 4.38095H2.45918V4.54095H2.31268V4.38095H1.26618V4.24745H0.87968V4.06745H1.17318V3.59395H1.37968L1.64618 4.06745H2.26618V3.86095H2.42618V3.71445H4.91968V3.49445L4.67318 3.02095V2.70745L4.75968 2.36745L5.11318 2.05395H5.62668L5.88018 2.36745V2.95395L5.79368 3.20745V3.59395L6.22018 3.75395L6.70668 4.30045L6.94018 4.77395V5.39395L6.70668 5.94045L6.24668 5.80695L6.14018 6.04045V6.33395L6.27368 6.94045L6.50718 7.80695L6.82068 8.56045L6.71418 9.04695V9.78695L7.16768 10.1669V10.4134L7.14668 10.4004ZM15.1337 4.79395H13.3872L13.1072 5.21395L12.7537 5.28045L11.2602 6.11395L10.5802 5.86745L10.4402 6.50745L10.1867 7.24095L10.2867 7.74095L10.8732 8.77445V9.79445L10.7132 10.3609L11.3732 10.8744V11.1209H10.6467L10.0667 10.8074V9.20095L9.56668 8.60745H9.35318L8.93968 9.80745L8.20618 10.8009L8.17268 11.4009L7.82618 11.9274H7.40618V11.4209L7.62618 11.1074L7.79968 10.5139L8.06618 9.76045V7.87395L8.21968 6.50745L8.41968 5.03395L8.87318 4.42045L9.33318 4.26045V3.76045L9.92668 3.28695H10.5532L11.0197 3.96695H12.1797L12.5932 3.84045H13.3797V4.16045H12.2732V4.26695H14.4867V4.56045H15.1267V4.78695L15.1337 4.79395Z" fill="black"/>
</g>
<defs>
<clipPath id="clip0_6_551">
<rect width="16" height="16" fill="white"/>
</clipPath>
</defs>
</svg>
