<svg width="16" height="16" viewBox="0 0 16 16" fill="none" xmlns="http://www.w3.org/2000/svg">
<path d="M10.0152 12.9918V11.5291H10.9823C10.9873 11.6017 10.9949 11.6617 10.9949 11.7218C10.9949 12.7541 11.0011 13.785 10.9936 14.8173C10.9886 15.5167 10.5106 15.9959 9.80871 15.9972C6.93218 16.0022 4.05566 16.0022 1.17913 15.9972C0.482208 15.9972 0.00299524 15.5105 0.00299524 14.8085C-0.000758386 10.2754 -0.000758386 5.74103 0.00174403 1.20791C0.00174403 0.48471 0.475952 0.00299524 1.19289 0.00299524C4.05941 -0.000758386 6.92593 -0.000758386 9.79244 0.00174403C10.5144 0.00174403 10.9848 0.478454 10.9936 1.1979C10.9986 1.6133 10.9936 2.0287 10.9936 2.46662H10.0164V1.00271H1.00521V12.9918H10.0152ZM6.00504 14.4932C5.99753 14.2217 5.76981 14.0003 5.49955 14.0015C5.21302 14.0015 4.98405 14.238 4.99156 14.5233C4.99907 14.7948 5.22554 15.015 5.49705 15.015C5.78232 15.015 6.01255 14.7785 6.00504 14.4932Z" fill="black"/>
<path d="M15.9872 3.96807C15.9146 3.36124 15.5493 3.00589 14.9812 3.00464C11.3252 3.00089 7.66915 3.00089 4.01186 3.00464C3.44632 3.00464 3.07096 3.37875 3.01715 3.96807V4.52486H3.01465V5.46577H3.01715V6.0213H3.00214C3.00214 7.32757 3.00089 8.59879 3.00339 9.87002C3.00339 10.597 3.39877 10.9949 4.12197 10.9949C7.70668 10.9961 11.2926 10.9961 14.8774 10.9949C15.6031 10.9949 15.9972 10.5995 15.9984 9.87252C16.0009 8.68388 15.9997 7.49648 15.9997 6.30783V6.0213L15.9872 3.96807ZM10.7121 8.45365C10.5056 8.64258 10.2191 8.75519 9.85125 8.79148V9.30823H9.38705V8.79148C9.02045 8.75144 8.73392 8.62757 8.52622 8.41987C8.31727 8.20842 8.21342 7.91939 8.21342 7.55403H9.23065C9.23065 7.71043 9.26944 7.83055 9.34701 7.91563C9.42459 7.99696 9.52969 8.03825 9.65982 8.03825C9.76367 8.03825 9.845 8.01198 9.9038 7.95942C9.96636 7.90813 9.99764 7.83681 9.99764 7.74422C9.99764 7.65163 9.9551 7.57656 9.87002 7.52526C9.78869 7.46895 9.65856 7.40639 9.47964 7.33507C9.32199 7.27251 9.17184 7.20995 9.0242 7.14739C8.88156 7.08733 8.75394 7.01351 8.64258 6.92843C8.53623 6.84335 8.44865 6.742 8.38484 6.62564C8.31852 6.50802 8.28599 6.36038 8.28599 6.18521C8.28599 6.03257 8.31727 5.89869 8.37483 5.78483C8.43614 5.66596 8.51621 5.56962 8.61506 5.49079C8.71515 5.40946 8.83152 5.34565 8.9654 5.30061C9.09928 5.25557 9.23941 5.22429 9.38705 5.20802V4.68501H9.85125V5.20802C10.0627 5.22679 10.2404 5.27433 10.383 5.34565C10.5269 5.41322 10.642 5.5008 10.7308 5.60465C10.8197 5.7035 10.881 5.81736 10.9173 5.94248C10.9548 6.06134 10.9761 6.18396 10.9761 6.30783H9.95885C9.95885 6.02506 9.84499 5.88117 9.62103 5.88117C9.53595 5.88117 9.46213 5.90369 9.40207 5.94623C9.33951 5.98877 9.30698 6.05759 9.30698 6.15143C9.30698 6.24027 9.34701 6.31158 9.42459 6.37039C9.50342 6.43045 9.62103 6.48675 9.77743 6.54181C9.92507 6.59436 10.0702 6.64941 10.2166 6.70822C10.368 6.76702 10.5006 6.83834 10.6195 6.92343C10.7384 7.00851 10.8347 7.11236 10.906 7.23623C10.9811 7.35759 11.0186 7.50399 11.0186 7.68166C11.0186 8.00697 10.9173 8.26472 10.7121 8.45365Z" fill="black"/>
</svg>
