<svg width="16" height="16" viewBox="0 0 16 16" fill="none" xmlns="http://www.w3.org/2000/svg">
<path d="M9.45 4.62461C9.45 6.57161 7.872 8.14961 5.925 8.14961C3.978 8.14961 2.4 6.57161 2.4 4.62461C2.4 2.67761 3.978 1.09961 5.925 1.09961C7.872 1.09961 9.45 2.67761 9.45 4.62461Z" fill="black"/>
<path d="M6.05 11.9246C6.05 11.0246 6.25 10.1246 6.65 9.32461C6.4 9.29961 6.15 9.27461 5.9 9.27461C2.925 9.27461 0.4 11.4746 0 14.3996H6.6C6.25 13.6246 6.05 12.7746 6.05 11.9246Z" fill="black"/>
<path d="M9.575 11.9246C9.575 12.4076 9.183 12.7996 8.7 12.7996C8.217 12.7996 7.825 12.4076 7.825 11.9246C7.825 11.4416 8.217 11.0496 8.7 11.0496C9.183 11.0496 9.575 11.4416 9.575 11.9246Z" fill="black"/>
<path d="M12.8 11.9246C12.8 12.4076 12.408 12.7996 11.925 12.7996C11.442 12.7996 11.05 12.4076 11.05 11.9246C11.05 11.4416 11.442 11.0496 11.925 11.0496C12.408 11.0496 12.8 11.4416 12.8 11.9246Z" fill="black"/>
<path d="M16 11.9246C16 12.4076 15.608 12.7996 15.125 12.7996C14.642 12.7996 14.25 12.4076 14.25 11.9246C14.25 11.4416 14.642 11.0496 15.125 11.0496C15.608 11.0496 16 11.4416 16 11.9246Z" fill="black"/>
</svg>
