<svg width="16" height="16" viewBox="0 0 16 16" fill="none" xmlns="http://www.w3.org/2000/svg">
<g clip-path="url(#clip0_6_339)">
<path d="M1.97498 1.5575C2.00248 1.5575 2.01248 1.5725 2.02498 1.5825C2.46948 1.8795 2.99748 2.0895 3.56648 2.175L3.58748 2.1775C3.74898 2.2 3.93598 2.2125 4.12548 2.2125C4.78598 2.2125 5.41048 2.0575 5.96398 1.7815L5.93998 1.7925C6.69498 1.45 7.32148 0.939 7.79098 0.305L7.79998 0.2925C7.86598 0.208 7.93198 0.1125 7.99248 0.0135L7.99998 0L8.05248 0.0875C8.36348 0.566 8.74798 0.9675 9.19448 1.2885L9.20748 1.2975C9.73848 1.6935 10.3715 1.9855 11.059 2.1295L11.09 2.135C11.33 2.1895 11.6055 2.2205 11.8885 2.2205C12.6765 2.2205 13.408 1.9795 14.013 1.567L14 1.5755C14.0035 1.5735 14.008 1.5725 14.0125 1.5725C14.017 1.5725 14.0215 1.5735 14.025 1.5755C14.0275 1.584 14.0285 1.593 14.0285 1.603C14.0285 1.613 14.027 1.622 14.0245 1.631C14.0245 5.08767 14.0245 8.54467 14.0245 12.003C14.02 12.4555 13.848 12.867 13.568 13.1795L13.5695 13.178C13.272 13.515 12.899 13.778 12.476 13.9415L12.457 13.948C12.0725 14.109 11.625 14.233 11.159 14.2995L11.1295 14.303C10.59 14.3745 10.1025 14.5015 9.64098 14.6805L9.68448 14.6655C8.99748 14.9325 8.43248 15.388 8.03748 15.9685L8.02948 15.9805C8.02948 16.0005 8.00948 16.033 7.97948 15.9805C7.55098 15.3455 6.93598 14.865 6.21398 14.613L6.18948 14.6055C5.83098 14.475 5.40898 14.37 4.97298 14.3095L4.93948 14.3055C4.36798 14.232 3.84898 14.0845 3.36598 13.871L3.40198 13.8855C3.02448 13.7225 2.70498 13.4925 2.44398 13.2075L2.44198 13.2055C2.14898 12.883 1.96948 12.4525 1.96948 11.98C1.96948 11.9715 1.96948 11.963 1.96948 11.954V11.9555V1.558L1.97498 1.5575ZM11.11 4.1075C11.1225 4.09 11.11 4.0725 11.11 4.0525C11.0625 3.9 11.015 3.745 10.965 3.59C10.9615 3.5835 10.959 3.5755 10.959 3.5675C10.959 3.549 10.9695 3.5335 10.9845 3.5255L11.26 3.3205L11.42 3.198C11.4115 3.1945 11.4015 3.193 11.391 3.193C11.3805 3.193 11.371 3.195 11.3615 3.1985H10.8945C10.8915 3.199 10.8875 3.1995 10.884 3.1995C10.8525 3.1995 10.827 3.1765 10.822 3.1465C10.767 2.9815 10.707 2.816 10.647 2.646L10.6295 2.691C10.5745 2.846 10.522 2.9985 10.4695 3.1535C10.465 3.181 10.441 3.2015 10.413 3.2015C10.41 3.2015 10.407 3.2015 10.4045 3.201H9.93998C9.93148 3.198 9.92148 3.1965 9.91098 3.1965C9.90048 3.1965 9.89098 3.198 9.88148 3.201C9.88148 3.216 9.90198 3.221 9.91198 3.2285C10.042 3.326 10.162 3.426 10.302 3.521C10.323 3.534 10.3365 3.5565 10.3365 3.5825C10.3365 3.5935 10.334 3.6045 10.3295 3.614C10.2795 3.7615 10.2345 3.911 10.1895 4.061C10.1895 4.076 10.1695 4.091 10.1895 4.1085C10.2055 4.104 10.219 4.095 10.2295 4.0835L10.6245 3.8085C10.637 3.8085 10.6495 3.781 10.6745 3.8085L11.11 4.1075ZM11.11 5.98C11.1275 5.96 11.11 5.9425 11.11 5.925C11.0625 5.77 11.015 5.615 10.965 5.4625C10.961 5.4555 10.959 5.4475 10.959 5.439C10.959 5.42 10.9695 5.404 10.9845 5.3955C11.122 5.2955 11.257 5.193 11.3895 5.0905C11.3895 5.0905 11.417 5.0905 11.417 5.058C11.242 5.058 11.067 5.058 10.8945 5.058C10.892 5.0585 10.889 5.0585 10.886 5.0585C10.857 5.0585 10.833 5.038 10.8275 5.011C10.7725 4.8435 10.7125 4.678 10.6525 4.5105L10.635 4.5555C10.5825 4.7055 10.5275 4.853 10.48 5.003C10.4745 5.038 10.4445 5.0645 10.4085 5.0645C10.403 5.0645 10.3975 5.064 10.392 5.0625C10.237 5.0625 10.08 5.0625 9.92248 5.0625C9.90998 5.0625 9.89498 5.0625 9.88498 5.0625L10.18 5.285C10.235 5.3275 10.315 5.36 10.335 5.415C10.355 5.47 10.305 5.55 10.285 5.6175C10.2475 5.735 10.2125 5.85 10.1725 5.9775L10.62 5.665C10.6325 5.665 10.645 5.6375 10.67 5.665C10.8125 5.77 10.965 5.8675 11.11 5.98ZM4.87998 5.98C4.98248 5.92 5.07248 5.8475 5.16998 5.78L5.34748 5.66L5.52748 5.7825L5.81498 5.9825C5.81498 5.9675 5.81498 5.96 5.81498 5.95C5.76998 5.8025 5.72498 5.6525 5.67498 5.5075C5.66748 5.4945 5.66348 5.4785 5.66348 5.462C5.66348 5.4255 5.68398 5.3935 5.71448 5.3775C5.85198 5.28 5.98498 5.1745 6.12248 5.072C6.11448 5.0685 6.10498 5.067 6.09498 5.067C6.08498 5.067 6.07548 5.069 6.06698 5.0725C5.90698 5.0725 5.74998 5.0725 5.58998 5.0725C5.58798 5.0725 5.58598 5.073 5.58348 5.073C5.55748 5.073 5.53548 5.055 5.52998 5.0305C5.47998 4.8805 5.42748 4.73 5.37498 4.5825C5.37498 4.565 5.37498 4.5425 5.34748 4.53C5.28998 4.6925 5.23248 4.8525 5.17998 5.0125C5.16498 5.0575 5.14748 5.075 5.09748 5.0725C4.93998 5.0725 4.77998 5.0725 4.62248 5.0725C4.60998 5.0725 4.59498 5.0725 4.58248 5.0725L5.01498 5.3975C5.03198 5.4065 5.04298 5.424 5.04298 5.444C5.04298 5.4525 5.04098 5.4605 5.03748 5.468C4.98748 5.6205 4.93998 5.775 4.89248 5.93C4.89248 5.9475 4.87498 5.9625 4.89248 5.98H4.87998ZM2.74998 6.55C2.69748 6.55 2.68498 6.55 2.68498 6.615C2.68498 8.41 2.68498 10.2042 2.68498 11.9975C2.68498 12.001 2.68498 12.0045 2.68498 12.0085C2.68498 12.262 2.77348 12.4945 2.92148 12.677L2.91998 12.675C3.11948 12.9175 3.37048 13.11 3.65698 13.2375L3.66998 13.2425C4.04848 13.418 4.48698 13.5495 4.94748 13.6145L4.97248 13.6175C5.54448 13.7 6.05948 13.839 6.54698 14.0315L6.49998 14.015C7.07298 14.2275 7.56148 14.546 7.96498 14.95C7.98748 14.97 7.99998 14.97 8.02248 14.95C8.29948 14.6695 8.62248 14.4355 8.97898 14.2595L8.99998 14.25C9.56248 13.96 10.216 13.746 10.9055 13.644L10.94 13.64C11.3715 13.5785 11.759 13.4775 12.128 13.3375L12.09 13.35C12.4335 13.231 12.7275 13.0465 12.9705 12.8095C13.1735 12.622 13.3005 12.3565 13.305 12.061V6.6125C13.305 6.5625 13.305 6.55 13.2425 6.55H2.74998ZM6.62748 5.8575C6.62748 5.83 6.62748 5.81 6.62748 5.7925C6.62748 5.775 6.62748 5.75 6.62748 5.7275C6.71848 5.125 6.88298 4.5825 7.11348 4.0765L7.09748 4.115C7.13748 4.0275 7.13748 4.03 7.04498 4C6.99998 3.985 6.92498 4 6.91748 3.9575C6.90998 3.915 6.95498 3.87 6.97498 3.825C6.99498 3.78 7.00498 3.79 7.03748 3.795C7.26048 3.843 7.45748 3.9295 7.63048 4.0485L7.62498 4.045C7.71248 4.105 7.71248 4.105 7.65498 4.2C7.64248 4.216 7.63148 4.234 7.62298 4.2535L7.62248 4.255C7.62248 4.2825 7.59498 4.2775 7.57498 4.255C7.55498 4.2325 7.47248 4.1875 7.42498 4.1525C7.37748 4.1175 7.37248 4.1275 7.34998 4.17C7.07848 4.6465 6.85798 5.1985 6.71848 5.782L6.70998 5.825C6.69498 5.8925 6.70998 5.91 6.77498 5.905C6.83998 5.9 6.91998 5.885 6.99248 5.8725C7.47898 5.7995 7.91698 5.645 8.31148 5.4225L8.29248 5.4325C8.78948 5.16 9.17398 4.734 9.38648 4.2185L9.39248 4.2025C9.51898 3.8935 9.59298 3.5345 9.59298 3.1585C9.59298 2.8965 9.55748 2.643 9.49048 2.4025L9.49498 2.4225C9.46348 2.2925 9.42398 2.18 9.37498 2.073L9.37998 2.085C9.34748 2.0175 9.31998 2.01 9.25998 2.0475C9.06948 2.18 8.90248 2.3225 8.75098 2.479L8.74998 2.48C8.72498 2.505 8.73248 2.515 8.74998 2.53L8.90248 2.63C8.93248 2.65 8.92998 2.665 8.90248 2.685C8.86698 2.714 8.83548 2.7435 8.80548 2.7745C8.78548 2.797 8.76998 2.7975 8.74748 2.775C8.64198 2.691 8.52198 2.618 8.39298 2.5615L8.38248 2.5575C8.30498 2.5225 8.22498 2.5 8.13248 2.47L8.18998 2.43C8.31998 2.34 8.31998 2.34 8.46998 2.395C8.47998 2.402 8.49248 2.406 8.50648 2.406C8.52048 2.406 8.53248 2.402 8.54298 2.395C8.70698 2.27 8.89198 2.155 9.08848 2.0585L9.10798 2.05L9.25048 2C9.25048 1.985 9.23548 2 9.22548 2C9.20248 1.997 9.17598 1.9955 9.14948 1.9955C9.12298 1.9955 9.09598 1.997 9.06998 2.0005L9.07298 2C8.69798 2.0085 8.34348 2.0855 8.01848 2.2195L8.03798 2.2125C7.33148 2.4785 6.78698 3.035 6.54348 3.7325L6.53798 3.75C6.44148 4.0355 6.38598 4.3645 6.38598 4.706C6.38598 5.0475 6.44148 5.3765 6.54398 5.684L6.53748 5.662C6.56198 5.7365 6.59348 5.801 6.63198 5.8605L6.62998 5.857L6.62748 5.8575ZM2.49998 5.0675C2.49998 5.0925 2.52748 5.1 2.53998 5.11L2.86498 5.36C2.96498 5.4375 2.96498 5.4375 2.92748 5.5575C2.88998 5.6775 2.83748 5.845 2.79248 5.9925C2.81448 5.989 2.83348 5.9785 2.84748 5.9625L3.14748 5.7525C3.18748 5.725 3.22748 5.6775 3.26748 5.6775C3.30748 5.6775 3.34748 5.725 3.38748 5.7525C3.50248 5.8325 3.61498 5.915 3.73248 6.0025C3.73548 5.996 3.73748 5.988 3.73748 5.98C3.73748 5.972 3.73548 5.964 3.73248 5.957C3.68498 5.802 3.63748 5.6475 3.58748 5.495C3.58348 5.487 3.58098 5.4775 3.58098 5.468C3.58098 5.4455 3.59348 5.4255 3.61198 5.4155C3.74698 5.318 3.87748 5.218 4.00998 5.118C4.00998 5.118 4.03748 5.118 4.03498 5.083H3.49998C3.46248 5.083 3.44998 5.0705 3.43748 5.0355C3.38248 4.8705 3.32248 4.7055 3.26498 4.5355C3.24498 4.5355 3.24498 4.5655 3.23998 4.583C3.18998 4.7255 3.13498 4.8655 3.09248 5.0105C3.08598 5.0515 3.05098 5.0825 3.00848 5.0825C3.00198 5.0825 2.99548 5.082 2.98948 5.0805L2.49998 5.0675ZM3.73248 4.1175C3.73548 4.111 3.73748 4.103 3.73748 4.095C3.73748 4.087 3.73548 4.079 3.73248 4.072C3.68498 3.917 3.63748 3.7625 3.58748 3.61C3.58398 3.6025 3.58198 3.5935 3.58198 3.584C3.58198 3.561 3.59398 3.5415 3.61248 3.5305C3.74748 3.433 3.87798 3.333 4.01048 3.233C4.01048 3.233 4.03798 3.233 4.03798 3.198H3.51798C3.51548 3.1985 3.51248 3.1985 3.50948 3.1985C3.47498 3.1985 3.44648 3.1735 3.44048 3.141C3.38798 2.9785 3.32798 2.8155 3.27298 2.6405C3.25298 2.6405 3.25298 2.6705 3.24798 2.6855C3.20298 2.808 3.16048 2.9355 3.11798 3.053C3.07548 3.1705 3.07298 3.183 2.93548 3.183H2.50048C2.50048 3.208 2.52298 3.213 2.53298 3.2205L2.83298 3.4455C2.87548 3.478 2.93548 3.503 2.95298 3.5455C2.97048 3.588 2.93048 3.648 2.91298 3.7005C2.87298 3.833 2.83298 3.9655 2.79048 4.098C2.81548 4.098 2.82548 4.083 2.84048 4.073C2.97048 3.983 3.09048 3.893 3.22798 3.8005C3.23798 3.7915 3.25098 3.7855 3.26548 3.7855C3.27998 3.7855 3.29298 3.791 3.30298 3.8005C3.36798 3.8505 3.43548 3.8955 3.50298 3.943L3.73248 4.1175ZM5.82498 4.1175L5.81248 4.08C5.76415 3.91333 5.71415 3.75333 5.66248 3.6C5.65948 3.593 5.65748 3.5845 5.65748 3.576C5.65748 3.553 5.67048 3.533 5.68948 3.523L5.89998 3.368L6.11998 3.2005C6.11148 3.198 6.10148 3.196 6.09148 3.196C6.08148 3.196 6.07148 3.1975 6.06198 3.2005C5.90698 3.2005 5.75248 3.2005 5.59748 3.2005C5.59448 3.201 5.59048 3.2015 5.58698 3.2015C5.55448 3.2015 5.52748 3.1775 5.52248 3.146C5.47498 3.001 5.42248 2.853 5.37248 2.708C5.37248 2.6905 5.37248 2.668 5.34498 2.658C5.28748 2.823 5.22748 2.9855 5.17248 3.158C5.16798 3.187 5.14298 3.2085 5.11348 3.2085C5.11048 3.2085 5.10748 3.2085 5.10498 3.208H4.57298L4.62298 3.2505C4.75298 3.348 4.87298 3.4455 5.01298 3.5405C5.02948 3.55 5.04048 3.568 5.04048 3.588C5.04048 3.596 5.03848 3.604 5.03548 3.611C4.98298 3.7685 4.93548 3.9255 4.88798 4.083C4.88798 4.0955 4.87298 4.108 4.88798 4.1255C5.02548 4.0305 5.16298 3.9355 5.29798 3.838C5.31148 3.8235 5.33048 3.814 5.35148 3.814C5.37248 3.814 5.39198 3.823 5.40498 3.838C5.53748 3.928 5.67498 4.0205 5.82498 4.1255V4.1175ZM13.2025 5.9675C13.2025 5.95 13.2025 5.9375 13.2025 5.9225C13.155 5.77 13.1075 5.615 13.0575 5.46C13.0535 5.4525 13.051 5.4435 13.051 5.4335C13.051 5.4115 13.0635 5.392 13.082 5.3825C13.2195 5.2825 13.3525 5.18 13.4875 5.0775C13.4875 5.0775 13.5125 5.0775 13.505 5.05C13.3325 5.05 13.1575 5.05 12.9825 5.05C12.98 5.0505 12.977 5.0505 12.974 5.0505C12.947 5.0505 12.9245 5.031 12.92 5.005L12.7475 4.5045C12.7325 4.5045 12.7325 4.522 12.7275 4.532C12.6725 4.6895 12.615 4.8495 12.5625 5.0095C12.558 5.0315 12.539 5.0475 12.516 5.0475C12.514 5.0475 12.512 5.0475 12.51 5.047C12.425 5.047 12.3425 5.047 12.26 5.047H11.9725C11.9725 5.0695 11.9975 5.077 12.0125 5.087L12.4075 5.387C12.4225 5.3935 12.433 5.4085 12.433 5.426C12.433 5.4335 12.431 5.441 12.4275 5.447L12.2925 5.8745C12.2925 5.9045 12.2775 5.932 12.265 5.9745L12.6975 5.6695C12.7085 5.658 12.724 5.6505 12.741 5.6505C12.758 5.6505 12.774 5.658 12.7845 5.6695C12.922 5.7795 13.062 5.877 13.202 5.9745L13.2025 5.9675ZM11.9775 3.18V3.1925L12.41 3.5175C12.425 3.5255 12.435 3.5415 12.435 3.559C12.435 3.5665 12.433 3.5735 12.43 3.58C12.4125 3.6325 12.3975 3.6845 12.38 3.737L12.265 4.107L12.705 3.797C12.7145 3.7875 12.728 3.781 12.7425 3.781C12.757 3.781 12.7705 3.787 12.78 3.797C12.8275 3.8345 12.88 3.8695 12.9325 3.9045L13.205 4.097C13.2085 4.0915 13.211 4.0845 13.211 4.077C13.211 4.0695 13.209 4.0625 13.205 4.057C13.16 3.907 13.115 3.757 13.065 3.6095C13.059 3.5985 13.0555 3.5855 13.0555 3.5715C13.0555 3.54 13.0735 3.513 13.0995 3.5C13.2395 3.4 13.375 3.295 13.5125 3.19C13.5045 3.1865 13.495 3.1845 13.485 3.1845C13.475 3.1845 13.4655 3.1865 13.457 3.19C13.3095 3.19 13.1625 3.19 13.015 3.19C13.0105 3.191 13.005 3.1915 12.9995 3.1915C12.955 3.1915 12.9185 3.1585 12.9125 3.1155C12.8625 2.958 12.805 2.8025 12.745 2.6375L12.7225 2.69C12.6725 2.835 12.62 2.98 12.5725 3.1275C12.5665 3.1635 12.5355 3.191 12.4985 3.191C12.4945 3.191 12.491 3.1905 12.487 3.19C12.312 3.185 12.145 3.1875 11.9775 3.1875V3.18Z" fill="black"/>
<path d="M4.41998 9.6725V11.8425C4.41998 11.8445 4.41948 11.8475 4.41948 11.85C4.41948 11.881 4.43548 11.9085 4.45948 11.925C4.55948 11.9975 4.65498 12.075 4.75498 12.1475C4.77498 12.161 4.78748 12.184 4.78748 12.2095C4.78748 12.2115 4.78748 12.2135 4.78748 12.2155C4.78748 12.418 4.78748 12.618 4.78748 12.8205C4.78748 12.8605 4.78748 12.8655 4.73748 12.8555L3.23748 12.473C3.20248 12.473 3.18748 12.453 3.18748 12.413C3.18748 12.2455 3.18748 12.078 3.18748 11.913C3.18698 11.911 3.18698 11.9085 3.18698 11.906C3.18698 11.882 3.20298 11.862 3.22448 11.8555C3.31948 11.823 3.41248 11.783 3.50498 11.7505C3.53398 11.7435 3.55548 11.718 3.55548 11.687C3.55548 11.684 3.55548 11.6805 3.55498 11.6775C3.55498 11.2975 3.55498 10.928 3.55498 10.538C3.55498 9.7005 3.55498 8.8605 3.55498 8.0205C3.55548 8.0175 3.55598 8.0135 3.55598 8.0095C3.55598 7.977 3.53498 7.95 3.50548 7.9405C3.40798 7.8955 3.31248 7.8455 3.21498 7.798C3.19298 7.7915 3.17748 7.7715 3.17748 7.7475C3.17748 7.746 3.17748 7.7445 3.17748 7.7425C3.17748 7.5425 3.17748 7.3425 3.17748 7.1425C3.17748 7.11 3.17748 7.1 3.21998 7.1H4.34748C4.38998 7.1 4.39748 7.125 4.40498 7.1525C4.63165 7.8475 4.85748 8.5425 5.08248 9.2375C5.22082 9.6525 5.35665 10.0692 5.48998 10.4875C5.48998 10.5025 5.48998 10.52 5.50998 10.53C5.51248 10.522 5.51348 10.513 5.51348 10.504C5.51348 10.495 5.51198 10.4855 5.50948 10.477V8.0225C5.50998 8.019 5.51048 8.0145 5.51048 8.01C5.51048 7.978 5.49048 7.951 5.46248 7.94C5.37748 7.8975 5.29698 7.8475 5.21198 7.8025C5.19248 7.7935 5.17948 7.7745 5.17948 7.7525C5.17948 7.7515 5.17948 7.751 5.17948 7.75C5.17948 7.5475 5.17948 7.3475 5.17948 7.145C5.17948 7.115 5.17948 7.1075 5.21948 7.1075H6.63448C6.66448 7.1075 6.67448 7.1075 6.67448 7.145V7.75C6.67498 7.752 6.67498 7.7545 6.67498 7.7575C6.67498 7.7785 6.66248 7.7965 6.64498 7.805L6.39448 7.945C6.36898 7.9575 6.35148 7.983 6.35148 8.013C6.35148 8.0155 6.35148 8.018 6.35198 8.0205V13.225C6.35198 13.29 6.35198 13.29 6.29198 13.2725C6.06198 13.2025 5.83448 13.1325 5.60698 13.0675C5.57248 13.06 5.54598 13.034 5.53698 13.0005C5.17865 11.9038 4.81365 10.8075 4.44198 9.7125C4.43798 9.702 4.43348 9.6885 4.42998 9.675L4.42948 9.6725H4.41998Z" fill="black"/>
<path d="M8.59748 14.015L8.13998 13.845L7.05498 13.44C7.02748 13.4345 7.00698 13.41 7.00698 13.381C7.00698 13.378 7.00698 13.375 7.00748 13.372C7.00748 13.2053 7.00748 13.0458 7.00748 12.8925C7.00698 12.8905 7.00698 12.888 7.00698 12.8855C7.00698 12.8605 7.02398 12.839 7.04698 12.8325C7.13448 12.8 7.21998 12.7625 7.29748 12.7275C7.32698 12.72 7.34798 12.6935 7.34798 12.662C7.34798 12.6585 7.34748 12.6555 7.34748 12.652V8.015C7.34798 8.012 7.34798 8.009 7.34798 8.0055C7.34798 7.9755 7.32948 7.95 7.30298 7.94C7.21298 7.8975 7.12748 7.85 7.03998 7.8075C7.01648 7.7985 7.00048 7.776 6.99998 7.75C6.99998 7.55333 6.99998 7.35583 6.99998 7.1575C6.99998 7.1175 7.01248 7.1075 7.05248 7.1075H9.72248C9.76248 7.1075 9.77498 7.1075 9.77498 7.1575C9.77498 7.5825 9.77498 8.01 9.77498 8.435C9.77498 8.4725 9.77498 8.4875 9.72498 8.4875C9.55498 8.4875 9.38248 8.4875 9.22498 8.4875C9.22248 8.488 9.21998 8.488 9.21698 8.488C9.19048 8.488 9.16848 8.4685 9.16498 8.4425C9.11498 8.2825 9.05998 8.122 9.00998 7.962C9.00998 7.932 8.98748 7.9195 8.95498 7.9195C8.74998 7.9195 8.54498 7.9195 8.33998 7.9195C8.30248 7.9195 8.29248 7.932 8.29248 7.967C8.29248 8.467 8.29248 8.967 8.29248 9.467C8.29248 9.502 8.29248 9.5145 8.33748 9.5145H8.78248C8.78498 9.515 8.78748 9.515 8.78998 9.515C8.81248 9.515 8.83198 9.503 8.84198 9.485L8.99948 9.2495C9.01048 9.2285 9.03198 9.2145 9.05698 9.2145C9.05798 9.2145 9.05848 9.2145 9.05948 9.2145H9.39948C9.42948 9.2145 9.43698 9.2145 9.43698 9.2545V10.5945C9.43698 10.627 9.43698 10.6345 9.39698 10.6345H9.04948C9.04798 10.6345 9.04648 10.6345 9.04498 10.6345C9.02298 10.6345 9.00448 10.6225 8.99448 10.6045C8.94198 10.527 8.88698 10.4515 8.83698 10.374C8.82548 10.356 8.80498 10.344 8.78198 10.344C8.78098 10.344 8.77998 10.344 8.77898 10.344H8.31898C8.28648 10.344 8.27898 10.344 8.27898 10.3865V12.9365C8.27898 12.937 8.27898 12.9375 8.27898 12.938C8.27898 12.962 8.28848 12.9835 8.30398 12.9995L8.57148 13.317C8.58698 13.333 8.59648 13.3545 8.59648 13.378C8.59648 13.3785 8.59648 13.379 8.59648 13.3795L8.59748 14.015Z" fill="black"/>
<path d="M10.035 13.215V12.55C10.036 12.53 10.0465 12.513 10.0625 12.5025L10.3975 12.23C10.4175 12.2155 10.43 12.192 10.43 12.1655C10.43 12.1645 10.43 12.1635 10.43 12.1625V8.0125C10.43 8.0105 10.4305 8.008 10.4305 8.006C10.4305 7.9795 10.414 7.957 10.3905 7.9475C10.303 7.905 10.2175 7.8575 10.14 7.8125C10.118 7.806 10.1025 7.786 10.1025 7.762C10.1025 7.7605 10.1025 7.759 10.1025 7.757C10.1025 7.5545 10.1025 7.3545 10.1025 7.152C10.1025 7.1195 10.1025 7.107 10.1475 7.107H11.6475C11.68 7.107 11.6875 7.107 11.6875 7.147V7.7495C11.6875 7.7515 11.688 7.7535 11.688 7.7555C11.688 7.779 11.6735 7.7985 11.653 7.8065L11.43 7.9315C11.397 7.944 11.3745 7.975 11.3745 8.0115C11.3745 8.015 11.3745 8.0185 11.375 8.022C11.375 9.157 11.375 10.2915 11.375 11.4265C11.375 11.584 11.375 11.744 11.375 11.9015C11.375 11.939 11.375 11.949 11.42 11.9365L12.0225 11.774C12.0525 11.774 12.06 11.754 12.065 11.724L12.1775 10.819C12.1775 10.7215 12.1775 10.7215 12.285 10.7215H12.785C12.82 10.7215 12.83 10.7215 12.83 10.764V12.4215C12.83 12.454 12.83 12.4665 12.79 12.474L10.065 13.2015L10.035 13.215Z" fill="black"/>
<path d="M7.13998 3.5525C7.17748 3.4925 7.21498 3.4375 7.24998 3.38C7.24998 3.36 7.27498 3.38 7.28998 3.38C7.55048 3.439 7.77848 3.552 7.97048 3.7075L7.96748 3.705C7.98998 3.7225 7.98748 3.735 7.96748 3.755C7.94198 3.788 7.91648 3.8255 7.89298 3.8645L7.88998 3.87C7.86998 3.9025 7.85748 3.905 7.82498 3.87C7.66598 3.7425 7.47698 3.644 7.27098 3.5875L7.25998 3.585L7.13998 3.5525Z" fill="black"/>
<path d="M7.56998 3C7.65448 3.015 7.72898 3.0365 7.79998 3.065L7.79248 3.0625C7.96798 3.1275 8.12048 3.212 8.25698 3.3155L8.25248 3.3125C8.27998 3.3325 8.28248 3.3475 8.25248 3.3725C8.22248 3.3975 8.18998 3.45 8.15998 3.49C8.12998 3.53 8.13498 3.5125 8.11498 3.49C7.92798 3.334 7.70198 3.219 7.45348 3.162L7.44248 3.16C7.41748 3.16 7.40998 3.1475 7.42748 3.125C7.44498 3.1025 7.49748 3.045 7.52998 3.0025C7.56248 2.96 7.55498 2.9825 7.56998 3Z" fill="black"/>
<path d="M7.74998 2.79C7.81248 2.7375 7.86748 2.6925 7.91998 2.645C7.93248 2.645 7.94498 2.645 7.95998 2.645C8.19998 2.709 8.40898 2.8165 8.58848 2.96L8.58498 2.9575C8.60998 2.9775 8.60498 2.9875 8.58498 3.0075C8.56498 3.0275 8.50998 3.115 8.45998 3.125C8.40998 3.135 8.36998 3.0675 8.32248 3.0375C8.15898 2.926 7.96748 2.8405 7.76148 2.7925L7.74998 2.79Z" fill="black"/>
</g>
<defs>
<clipPath id="clip0_6_339">
<rect width="16" height="16" fill="white"/>
</clipPath>
</defs>
</svg>
