<svg width="16" height="17" viewBox="0 0 16 17" fill="none" xmlns="http://www.w3.org/2000/svg">
<path d="M13 10C13.0749 9.47875 12.9495 9.43739 13.0477 8.92114C13.2001 8.11864 13.4004 7.32489 13.5813 6.52613C13.5322 5.86613 13.3513 5.27988 12.9766 4.74863C12.0813 3.47987 11.1886 2.20862 10.2907 0.942368C9.56975 -0.0751343 8.47289 -0.276385 7.41219 0.414867C6.14867 1.23862 4.88772 2.06737 3.62807 2.89612C2.56867 3.59238 2.36196 4.64363 3.08287 5.67738C3.94072 6.90863 4.81408 8.12864 5.65902 9.36864C6.12541 10.0524 6.74942 10.5099 7.55689 10.7199C7.9897 10.8324 8.43671 10.8949 8.87985 10.9674C9.72091 11.1074 10.2248 11.0837 11 11.5C11.6876 11.0207 12.3687 10.5515 13 10Z" fill="black"/>
<path d="M15.8745 14.7162C15.567 14.3599 15.2427 14.0162 14.9611 13.6412C14.5761 13.1299 14.2234 12.5949 13.8564 12.0699C13.5916 11.6936 13.3242 11.3186 13.0283 10.8999C12.6265 11.1636 12.2712 11.4124 11.8991 11.6361C11.6782 11.7686 11.6769 11.8836 11.8177 12.0786C12.3694 12.8461 12.9185 13.6149 13.4417 14.3999C13.7415 14.8499 13.9921 15.3312 14.2621 15.8012C14.4068 16.0537 14.5825 16.0624 14.8138 15.8999C15.1264 15.6799 15.443 15.4649 15.7724 15.2699C16.0385 15.1112 16.0696 14.9412 15.8758 14.7149L15.8745 14.7162Z" fill="black"/>
<path d="M1.67076 7.42114C0.74056 7.41114 0.0054401 8.10614 0.000272301 9.00239C-0.0048955 9.90864 0.701802 10.6036 1.63717 10.6149C2.548 10.6261 3.30896 9.89864 3.30767 9.01864C3.30767 8.14739 2.57384 7.43239 1.67076 7.42114Z" fill="black"/>
</svg>
