<svg width="16" height="16" viewBox="0 0 16 16" fill="none" xmlns="http://www.w3.org/2000/svg">
<g clip-path="url(#clip0_6_290)">
<path d="M8 0.0694297C7.928 0.0669297 7.843 0.0654297 7.7575 0.0654297C3.5635 0.0654297 0.1465 3.39193 0.0005 7.55043L0 7.56393C0.0055 9.41793 0.7125 11.1059 1.869 12.3779L1.864 12.3719C1.692 13.3789 1.3915 14.2809 0.976 15.1154L1.0015 15.0584C2.16 14.9594 3.221 14.6259 4.165 14.1059L4.124 14.1264C5.2425 14.7139 6.5675 15.0584 7.9735 15.0584C7.983 15.0584 7.9925 15.0584 8.0015 15.0584H8C8.075 15.0609 8.1635 15.0624 8.252 15.0624C12.444 15.0624 15.859 11.7349 15.9995 7.57693L16 7.56393C15.8535 3.39193 12.4365 0.0659297 8.2425 0.0659297C8.157 0.0659297 8.0725 0.0674297 7.988 0.0699297L8 0.0694297ZM4.0345 8.99143C3.2135 8.99143 2.5475 8.32593 2.5475 7.50443C2.5475 6.68293 3.2135 6.01743 4.0345 6.01743C4.8555 6.01743 5.5215 6.68343 5.5215 7.50443C5.5215 8.32543 4.8555 8.99143 4.0345 8.99143ZM8 8.99143C7.179 8.99143 6.513 8.32593 6.513 7.50443C6.513 6.68293 7.179 6.01743 8 6.01743C8.821 6.01743 9.487 6.68343 9.487 7.50443C9.487 8.32543 8.8215 8.99143 8 8.99143ZM11.9655 8.99143C11.1445 8.99143 10.4785 8.32593 10.4785 7.50443C10.4785 6.68293 11.144 6.01743 11.9655 6.01743C12.7865 6.01743 13.4525 6.68343 13.4525 7.50443C13.4525 8.32543 12.787 8.99143 11.9655 8.99143Z" fill="black"/>
</g>
<defs>
<clipPath id="clip0_6_290">
<rect width="16" height="16" fill="white"/>
</clipPath>
</defs>
</svg>
