<svg width="16" height="16" viewBox="0 0 16 16" fill="none" xmlns="http://www.w3.org/2000/svg">
<g clip-path="url(#clip0_6_328)">
<path d="M15.6665 6.9735C15.6665 6.1935 15.353 5.44 14.8065 4.8935L10.78 0.867C10.2265 0.3135 9.48 0.00699997 8.7 0.00699997H1.8865L7.9665 6.087L11.04 3.0135L13.3465 5.34V11.4065L15.6665 13.7265V6.9735Z" fill="black"/>
<path d="M14.46 16L10.88 12.42V6.6535L7.96 9.5735L5.0665 6.68V13.16L2.6 10.6465V4.2065L0.333496 1.94V8.9865C0.333496 9.7665 0.646996 10.52 1.1935 11.0665L5.267 15.14C5.8205 15.6935 6.567 16 7.347 16H14.46Z" fill="black"/>
<path d="M15.6665 3.6535V0H12.013L15.6665 3.6535Z" fill="black"/>
<path d="M15.64 16H15.6665V15.9665L15.64 16Z" fill="black"/>
<path d="M0.333496 12.3V16H4.027L0.333496 12.3Z" fill="black"/>
</g>
<defs>
<clipPath id="clip0_6_328">
<rect width="16" height="16" fill="white"/>
</clipPath>
</defs>
</svg>
