<svg width="16" height="16" viewBox="0 0 16 16" fill="none" xmlns="http://www.w3.org/2000/svg">
<g clip-path="url(#clip0_6_526)">
<path d="M8 0C3.5815 0 0 3.5815 0 8C0 12.4185 3.5815 16 8 16C12.4185 16 16 12.4185 16 8C16 3.5815 12.4185 0 8 0ZM15.3775 8.575L14.91 8L14.41 5.8675L14.425 5.755L14.57 4.61C15.093 5.5935 15.401 6.7605 15.4025 7.9995C15.4025 8.192 15.3925 8.385 15.3775 8.575ZM14.08 3.785L13.875 5.3975L12.6025 5.3225L9.75 2.565L9.6875 1.5425L11.25 1.3475C12.404 1.924 13.356 2.751 14.064 3.761L14.08 3.785ZM8 15.4025C7.998 15.4025 7.996 15.4025 7.994 15.4025C6.313 15.4025 4.7635 14.8385 3.525 13.8895L3.5425 13.9025L3.13 13.3125L4.5275 11.8125L6.585 12.14L8.975 14.265L8.03 15.3975L8 15.4025ZM1.36 6.67L1.93 4.2975L1.945 4.25L5.075 2.5L6.2875 3.63L5.5125 7.175L3.5125 8.425L1.36 6.67ZM12.15 5.7175L12.13 5.94L11.63 7.97L8.2125 8.97L6.6125 7.6925L6.0975 7.225L6.8475 3.78L9.435 3.11L12.15 5.7175ZM11.71 13.2175L9.5 13.9275L7.25 11.945L8.185 9.6075L11.7925 8.55L13.1125 10.05L11.71 13.2175ZM10.065 0.8925L9.1975 1V1.0475L6.8975 0.695V0.6775C7.222 0.6265 7.596 0.5975 7.977 0.5975C7.985 0.5975 7.993 0.5975 8.001 0.5975H8C8.736 0.598 9.4465 0.7055 10.1175 0.906L10.065 0.8925ZM6.2725 0.8025L6.3025 0.8525L5.415 1.6225L2.165 3.44C3.183 2.1515 4.597 1.215 6.2215 0.813L6.2725 0.8025ZM0.6 7.9275L1.1 7.23L3.4825 9.1725L4.0675 11.4225L2.7025 12.8875L2.1225 12.5C1.171 11.2715 0.5975 9.7085 0.5975 8.0115C0.5975 8.0075 0.5975 8.0035 0.5975 7.999C0.5975 7.974 0.6 7.95 0.6 7.9275ZM12.5125 13.8625L12.295 13.3625L13.895 9.75L14.785 8.7975L15.27 9.39C14.909 11.222 13.915 12.776 12.5295 13.85L12.5125 13.8625Z" fill="black"/>
</g>
<defs>
<clipPath id="clip0_6_526">
<rect width="16" height="16" fill="white"/>
</clipPath>
</defs>
</svg>
