<svg width="16" height="16" viewBox="0 0 16 16" fill="none" xmlns="http://www.w3.org/2000/svg">
<g clip-path="url(#clip0_6_495)">
<path d="M13.6535 6.99959C13.6535 7.01009 13.6535 7.02209 13.6535 7.03459C13.6535 8.01009 13.4065 8.92809 12.972 9.72959L12.987 9.69959C12.9355 9.79209 12.905 9.90259 12.905 10.0201C12.905 10.2716 13.0445 10.4911 13.2505 10.6046L13.254 10.6061C13.3455 10.6566 13.4545 10.6861 13.5705 10.6861C13.5715 10.6861 13.573 10.6861 13.574 10.6861C13.5745 10.6861 13.575 10.6861 13.576 10.6861C13.827 10.6861 14.0455 10.5476 14.159 10.3426L14.1605 10.3391C14.692 9.37559 15.0055 8.22759 15.007 7.00609C15.007 6.63809 14.7085 6.33909 14.3405 6.33909C14.3345 6.33909 14.3275 6.33859 14.3205 6.33859C13.9545 6.33859 13.6575 6.63359 13.654 6.99859L13.6535 6.99959Z" fill="black"/>
<path d="M2 4.87309C2.082 4.91509 2.1785 4.93959 2.2815 4.93959C2.2835 4.93959 2.2855 4.93959 2.287 4.93959C2.5505 4.93859 2.777 4.78559 2.885 4.56359L2.8865 4.55959C3.309 3.69409 3.912 2.97559 4.651 2.43059L4.6665 2.41959C4.8075 2.29659 4.896 2.11659 4.896 1.91609C4.896 1.54809 4.5975 1.24959 4.2295 1.24959C4.111 1.24959 3.9995 1.28059 3.903 1.33459L3.9065 1.33309C2.967 2.02359 2.2185 2.91959 1.718 3.95759L1.7 3.99959C1.661 4.08159 1.638 4.17809 1.638 4.28009C1.638 4.53709 1.7835 4.76009 1.996 4.87109L2 4.87309Z" fill="black"/>
<path d="M6.7265 1.49309C7.109 1.40309 7.548 1.35159 7.999 1.35159C8.5375 1.35159 9.059 1.42509 9.554 1.56259L9.5135 1.55309C9.5405 1.55759 9.5715 1.56059 9.6035 1.56059C9.6355 1.56059 9.6665 1.55809 9.697 1.55309L9.6935 1.55359C9.7195 1.55709 9.7495 1.55909 9.78 1.55909C10.1515 1.55909 10.4525 1.25809 10.4525 0.886594C10.4525 0.546094 10.199 0.264094 9.8705 0.220094L9.867 0.219594C9.3345 0.0775937 8.7235 -0.00390625 8.093 -0.00390625C7.5015 -0.00390625 6.927 0.0680937 6.3775 0.203094L6.4265 0.193094C6.128 0.263594 5.9095 0.527594 5.9095 0.842594C5.9095 0.896094 5.9155 0.947594 5.9275 0.997594L5.9265 0.993094C5.997 1.29159 6.261 1.51009 6.576 1.51009C6.6295 1.51009 6.681 1.50359 6.731 1.49209L6.7265 1.49309Z" fill="black"/>
<path d="M11.4935 11.4931H9.407C11.3335 10.8896 12.707 9.12059 12.707 7.03109C12.707 7.02009 12.707 7.00909 12.707 6.99809V6.99959C12.707 6.91309 12.707 6.82609 12.707 6.73959L3.427 15.9996H16.0005C16.0005 13.5106 13.9825 11.4931 11.4935 11.4931Z" fill="black"/>
<path d="M16 -0.000406265L0 15.9996V12.2131L1.9265 10.2931C1.8365 10.2296 1.7645 10.1466 1.715 10.0501L1.7135 10.0461C1.2925 9.18159 1.046 8.16559 1.046 7.09159C1.046 7.05909 1.046 7.02659 1.0465 6.99409V6.99909C1.0465 6.89259 1.0465 6.77909 1.0465 6.67259C1.0465 6.30459 1.345 6.00509 1.713 6.00509C1.7245 6.00509 1.7365 6.00559 1.748 6.00609H1.7465C2.1 6.02459 2.38 6.31559 2.38 6.67209C2.38 6.75859 2.38 6.85309 2.38 6.93959C2.3795 6.97259 2.379 7.01109 2.379 7.05009C2.379 7.87709 2.5585 8.66209 2.881 9.36809L2.8665 9.33309L3.593 8.60659C3.403 8.12459 3.293 7.56659 3.293 6.98259C3.293 6.98159 3.293 6.98109 3.293 6.98009C3.3045 4.38909 5.407 2.29359 7.9995 2.29359C8.587 2.29759 9.148 2.40709 9.6655 2.60459L9.633 2.59359L12.2265 9.37348e-05L16 -0.000406265Z" fill="black"/>
</g>
<defs>
<clipPath id="clip0_6_495">
<rect width="16" height="16" fill="white"/>
</clipPath>
</defs>
</svg>
