<svg width="16" height="16" viewBox="0 0 16 16" fill="none" xmlns="http://www.w3.org/2000/svg">
<g clip-path="url(#clip0_6_552)">
<path d="M16 1.52507V0.77507C16 0.56457 15.83 0.39407 15.62 0.39257H14.095C14.082 0.39207 14.067 0.39207 14.052 0.39207C13.9325 0.39207 13.816 0.40707 13.705 0.43457L13.715 0.43257V0.38007C13.715 0.17007 13.545 7.03125e-05 13.335 7.03125e-05H11.0475C11.025 -0.00192969 10.9985 -0.00292969 10.972 -0.00292969C10.503 -0.00292969 10.1095 0.32007 10.0015 0.75557L10 0.76257H9.6975C9.6095 0.65757 9.5485 0.52757 9.5255 0.38457L9.525 0.38007C9.5235 0.17007 9.353 7.03125e-05 9.1425 7.03125e-05H6.475C6.279 0.00157031 6.1185 0.15007 6.0975 0.34107V0.34257C6.0975 0.42257 5.9275 0.76257 5.675 0.76257H4.63C4.595 0.71807 4.5645 0.66657 4.5415 0.61207L4.54 0.60757C4.4785 0.47257 4.345 0.38057 4.19 0.38007H0.38C0.17 0.38157 0 0.55207 0 0.76257V3.81007C0.0385 4.79057 0.175 5.71957 0.4 6.61357L0.38 6.52007V7.09757L0.13 7.34757C0.053 7.41457 0.004 7.51107 0 7.61957V9.14357C0 9.24857 0.043 9.34407 0.1125 9.41257L0.38 9.68257V11.3676L0.02 12.4501C0.0105 12.4821 0.005 12.5191 0.005 12.5576C0.005 12.5961 0.0105 12.6331 0.0205 12.6681L0.02 12.6651L0.3725 14.0801L0.02 15.1176C0.0075 15.1536 0.0005 15.1946 0.0005 15.2376C0.0005 15.4471 0.1705 15.6171 0.38 15.6176H5.715C5.8205 15.6166 5.9155 15.5716 5.9825 15.5001L6.0175 15.4651C6.194 15.7611 6.499 15.9646 6.853 15.9996L6.8575 16.0001H8C8.279 15.9821 8.535 15.8991 8.7575 15.7661L8.75 15.7706C8.865 15.6991 8.9995 15.6466 9.143 15.6216L9.15 15.6206H11.055C11.159 15.6166 11.2515 15.5716 11.3175 15.5006L11.41 15.4081L11.48 15.4981C11.665 15.7481 11.86 15.9981 12.19 15.9981H14.095C14.305 15.9981 14.475 15.8281 14.475 15.6181V15.3431L15.5275 15.5931C15.5555 15.6006 15.5875 15.6046 15.6205 15.6046C15.7095 15.6046 15.791 15.5736 15.8555 15.5226L15.8545 15.5231C15.94 15.4546 15.995 15.3521 15.9995 15.2361C15.9995 15.1986 15.9745 11.4606 15.9995 9.52807V9.52257C15.9995 9.41657 15.9565 9.32007 15.887 9.25057L15.6195 8.98057V7.24457C15.6195 7.13657 15.5735 7.03907 15.4995 6.97107L15.312 6.78357L15.542 6.32107L15.8795 5.98607C15.9515 5.91807 15.997 5.82257 15.9995 5.71657V3.80607C16.001 3.79257 16.002 3.77707 16.002 3.76107C16.002 3.74507 16.001 3.72957 15.999 3.71407V3.71607L15.6415 2.33107L15.959 1.69607C15.984 1.64757 15.999 1.58957 15.999 1.52857V1.52557L16 1.52507ZM11.4625 3.04757L12.6225 3.81007L12.235 6.09507L9.1425 3.81007L11.4625 3.04757ZM4.19 12.9526L2.6675 11.8101L3.4175 9.14257L6.475 12.1901L4.19 12.9526ZM12.2675 12.5726H10.5L2.6675 3.40007L4.09 3.04757L13.34 10.1026L12.2675 12.5726Z" fill="black"/>
</g>
<defs>
<clipPath id="clip0_6_552">
<rect width="16" height="16" fill="white"/>
</clipPath>
</defs>
</svg>
