<svg width="16" height="16" viewBox="0 0 16 16" fill="none" xmlns="http://www.w3.org/2000/svg">
<path d="M13.58 11.3334H13.5735C13.5735 11.3334 13.147 13.4869 11.74 14.1599C12.8735 15.0864 14.1265 14.5934 14.4265 13.7734C14.6665 13.1069 14.353 12.0199 13.573 11.3269L13.58 11.3334Z" fill="black"/>
<path d="M8.58002 3.47343H8.59352C8.84002 3.47343 9.55352 3.47343 10.307 3.86693C10.307 3.86693 9.96052 0.70043 6.46702 1.44693H6.47352C7.05352 1.52693 8.27352 2.14693 8.58002 3.47343Z" fill="black"/>
<path d="M11.2735 4.32643C11.2735 4.32643 12.027 4.64643 12.4735 5.55993C12.4735 5.47343 12.4735 5.37993 12.4735 5.27993C12.4935 4.15343 12.5335 2.17993 10.3135 2.07343C10.34 2.09343 11.34 2.90643 11.2735 4.32643Z" fill="black"/>
<path d="M12.38 11.5999C12.4335 11.3999 12.4735 11.1799 12.4735 10.9464V7.03993C11.7535 5.78643 10.0335 4.67993 8.04702 4.67343C5.98702 4.66693 4.31352 5.67993 3.52052 7.07343V10.9534C3.52702 11.1869 3.56052 11.4069 3.61402 11.6069C3.93402 12.8269 4.98752 13.8134 6.16752 14.3334L6.22752 14.3534C6.64752 14.4869 7.21402 14.6599 7.89402 14.6734C8.65402 14.6869 9.28752 14.5069 9.75402 14.3734L9.81402 14.3534C10.3275 14.1134 11.954 13.2734 12.3875 11.5999H12.38Z" fill="black"/>
<path d="M7.56002 3.45343C7.56002 3.45343 6.61352 1.87343 5.06652 1.87343C3.97302 2.46693 3.52002 2.73993 3.52002 5.54693C3.91352 4.67343 5.80002 3.42693 7.56002 3.45343Z" fill="black"/>
</svg>
