<svg width="16" height="16" viewBox="0 0 16 16" fill="none" xmlns="http://www.w3.org/2000/svg">
<g clip-path="url(#clip0_6_424)">
<path d="M2.44 2.24702C3.8775 0.856023 5.8385 -0.000976562 8 -0.000976562C9.723 -0.000976562 11.319 0.543523 12.6245 1.47052L12.5995 1.45402C12.506 1.67402 12.413 1.88752 12.306 2.12052C12.199 2.35352 12.146 2.43402 12.0525 2.59402C10.51 2.00052 8.725 1.65652 6.86 1.65652C6.663 1.65652 6.4665 1.66052 6.2715 1.66802L6.2995 1.66702C4.892 1.74302 3.5715 1.95002 2.299 2.27752L2.44 2.24702ZM0.9 4.30702C2.5095 3.73252 4.3725 3.34452 6.3075 3.22352L6.3665 3.22052C6.557 3.21102 6.7795 3.20552 7.004 3.20552C8.51 3.20552 9.957 3.45502 11.3075 3.91502L11.2135 3.88702C10.987 4.22052 10.7335 4.55352 10.467 4.89352C9.3715 4.68302 8.112 4.56252 6.8245 4.56252C6.1025 4.56252 5.389 4.60052 4.6865 4.67402L4.774 4.66652C3.1395 4.83552 1.6455 5.16452 0.2195 5.64302L0.3675 5.60002C0.527 5.09802 0.7075 4.67002 0.922 4.26202L0.9 4.30702ZM16 8.60702C15.566 9.08102 15.1135 9.51652 14.635 9.92252L14.6135 9.94052C14.42 9.52052 14.207 9.10702 13.947 8.69402C14.6285 7.99502 15.2495 7.23002 15.797 6.41202L15.8335 6.35402C15.9395 6.84902 16 7.41752 16 8.00052C16 8.20702 16 8.40702 16 8.60702ZM15.1665 4.44052L15.093 4.57402C14.511 5.63352 13.8475 6.54802 13.085 7.36952L13.093 7.36052C12.6665 6.82052 12.2665 6.28052 11.7995 5.74702C12.4875 4.88602 13.1165 3.91852 13.647 2.89152L13.693 2.79352C13.7395 2.70002 13.7865 2.61352 13.8265 2.52002C14.348 3.07302 14.7945 3.70502 15.1455 4.39402L15.1665 4.44052ZM14.08 13.2005C13.2595 14.158 12.2295 14.9115 11.0595 15.3945L11.0065 15.414C10.594 14.7935 10.198 14.0785 9.8595 13.3315L9.82 13.234C8.893 11.1865 8.168 8.80702 7.7625 6.32002L7.74 6.15402C8.732 6.21752 9.6465 6.33802 10.54 6.51602L10.407 6.49402C11.626 7.79702 12.6385 9.31352 13.379 10.9775L13.42 11.081C13.6705 11.6735 13.8975 12.382 14.0635 13.113L14.08 13.2005ZM0 7.36702C0.54 7.16702 1.08 6.99352 1.6135 6.84052C1.6865 8.97002 2.1155 10.978 2.8425 12.837L2.8 12.714C3.098 13.534 3.3835 14.194 3.701 14.835L3.6465 14.714C1.438 13.266 0 10.802 0 8.00202C0 8.00152 0 8.00102 0 8.00052C0 7.78702 0 7.58052 0 7.36702ZM6.1335 6.12052C6.59 9.02502 7.3805 11.6345 8.4785 14.076L8.4 13.8805C8.762 14.6785 9.111 15.3345 9.4955 15.967L9.4465 15.8805C9.0325 15.957 8.556 16.001 8.0695 16.001C8.045 16.001 8.0205 16.001 7.996 16.0005H8C7.3035 15.999 6.628 15.9115 5.983 15.748L6.04 15.76C5.364 14.7305 4.7725 13.5485 4.3235 12.298L4.2865 12.18C3.613 10.485 3.2135 8.52202 3.193 6.46852V6.46002C3.77967 6.34436 4.35967 6.25769 4.933 6.20002C5.333 6.16002 5.7395 6.13352 6.1595 6.12002L6.1335 6.12052Z" fill="black"/>
</g>
<defs>
<clipPath id="clip0_6_424">
<rect width="16" height="16" fill="white"/>
</clipPath>
</defs>
</svg>
