<svg width="16" height="16" viewBox="0 0 16 16" fill="none" xmlns="http://www.w3.org/2000/svg">
<path d="M12.8464 4.86037C12.8274 2.19788 10.6649 0.046875 7.99993 0.046875C5.50143 0.046875 3.44493 1.93687 3.18193 4.36537L3.17993 4.38687V16.0004L11.3334 8.38037C12.2659 7.49937 12.8469 6.25437 12.8469 4.87337C12.8469 4.86888 12.8469 4.86438 12.8469 4.85938L12.8464 4.86037ZM7.99993 7.70687C6.42393 7.70687 5.14643 6.42937 5.14643 4.85337C5.14643 3.27737 6.42393 1.99988 7.99993 1.99988C9.57593 1.99988 10.8534 3.27737 10.8534 4.85337C10.8534 4.85588 10.8534 4.85787 10.8534 4.86037C10.8494 6.43337 9.57343 7.70687 7.99993 7.70687Z" fill="black"/>
<path d="M7.99993 3.40688C7.19743 3.40688 6.54643 4.05738 6.54643 4.86038C6.54643 5.66338 7.19693 6.31388 7.99993 6.31388C8.80243 6.31388 9.45343 5.66338 9.45343 4.86038C9.45343 4.05788 8.80293 3.40688 7.99993 3.40688Z" fill="black"/>
</svg>
