<svg width="16" height="16" viewBox="0 0 16 16" fill="none" xmlns="http://www.w3.org/2000/svg">
<g clip-path="url(#clip0_6_191)">
<path d="M7.6675 0H8.3325L8.4175 0.0125C8.72 0.045 9.025 0.0625 9.325 0.1125C10.469 0.306 11.4885 0.719 12.382 1.3085L12.3525 1.29C12.3915 1.3165 12.44 1.3325 12.492 1.3325H14.6675V3.5275C14.6675 3.5645 14.678 3.599 14.6955 3.6285L14.695 3.6275C14.9115 3.9555 15.121 4.3345 15.301 4.7295L15.3225 4.7825C15.6675 5.542 15.9005 6.4235 15.9735 7.35L15.975 7.3775C15.975 7.4775 15.99 7.58 16 7.68V8.32C16 8.35 16 8.38 16 8.41C15.9795 8.848 15.926 9.26 15.841 9.6605L15.85 9.61C15.63 10.6515 15.2365 11.573 14.6965 12.39L14.715 12.36C14.6935 12.3925 14.6805 12.432 14.68 12.475C14.68 13.1775 14.68 13.88 14.68 14.5825V14.665H12.4725C12.4365 14.6655 12.403 14.6755 12.374 14.693L12.375 14.6925C11.915 14.9965 11.388 15.268 10.8315 15.481L10.775 15.5C10.1435 15.744 9.4125 15.911 8.651 15.9685L8.625 15.97L8.32 16H7.5825C7.25 15.9625 6.9175 15.9425 6.5825 15.885C5.464 15.684 4.4685 15.273 3.596 14.692L3.625 14.71C3.595 14.692 3.559 14.681 3.5205 14.68C2.8155 14.68 2.1125 14.68 1.4075 14.68H1.3325V14.5925C1.3325 13.895 1.3325 13.2 1.3325 12.505C1.3325 12.453 1.3165 12.404 1.2895 12.364L1.29 12.365C0.5895 11.303 0.132 10.023 0.0265 8.6445L0.025 8.6175C0.025 8.5225 0.0075 8.4275 0 8.3325V7.6675C0 7.6375 0 7.61 0.0125 7.5825C0.0305 7.169 0.081 6.7795 0.161 6.4005L0.1525 6.4475C0.366 5.3855 0.7635 4.4445 1.3135 3.613L1.295 3.6425C1.318 3.6065 1.3315 3.5625 1.3325 3.515C1.3325 2.815 1.3325 2.115 1.3325 1.415V1.3325H3.5275C3.5665 1.3315 3.6025 1.3205 3.6335 1.302L3.6325 1.3025C3.996 1.0615 4.414 0.835 4.852 0.6455L4.905 0.625C5.6285 0.31 6.468 0.0965 7.3475 0.027L7.375 0.025C7.4725 0.02 7.57 0 7.6675 0ZM13.3325 2.6675H13.25C12.9025 2.6675 12.5575 2.6675 12.21 2.6675C12.203 2.668 12.195 2.668 12.187 2.668C12.0485 2.668 11.9205 2.622 11.8185 2.544L11.82 2.545C10.7575 1.787 9.432 1.3325 8.0005 1.3325C7.232 1.3325 6.4945 1.4635 5.8085 1.704L5.855 1.69C5.166 1.9315 4.569 2.25 4.0305 2.6435L4.05 2.63C4.02 2.6515 3.983 2.665 3.9425 2.665H2.6675V2.75C2.6675 3.1175 2.6675 3.4875 2.6675 3.855C2.6675 3.858 2.6675 3.8615 2.6675 3.865C2.6675 3.965 2.6345 4.057 2.579 4.1315L2.58 4.1305C1.8005 5.206 1.3335 6.552 1.3335 8.007C1.3335 8.7705 1.462 9.5045 1.699 10.1875L1.685 10.141C1.928 10.831 2.2475 11.429 2.6435 11.9675L2.63 11.9485C2.652 11.979 2.665 12.0175 2.665 12.0585C2.665 12.4585 2.665 12.8585 2.665 13.2585V13.3335H2.75C3.1175 13.3335 3.4875 13.3335 3.855 13.3335C3.858 13.3335 3.8615 13.3335 3.865 13.3335C3.965 13.3335 4.057 13.3665 4.1315 13.422L4.1305 13.421C5.2045 14.2015 6.5495 14.6695 8.004 14.6695C8.741 14.6695 9.45 14.5495 10.1125 14.3275L10.0655 14.341C10.786 14.0995 11.4115 13.771 11.9725 13.36L11.953 13.3735C11.982 13.3515 12.019 13.3385 12.059 13.3385C12.0595 13.3385 12.06 13.3385 12.0605 13.3385H13.3355V13.251C13.3355 12.8635 13.3355 12.4735 13.3355 12.086C13.3355 12.0825 13.335 12.0785 13.335 12.0745C13.335 12.0165 13.355 11.963 13.388 11.9205C13.6405 11.577 13.871 11.188 14.0625 10.776L14.08 10.7335C14.368 10.117 14.567 9.4005 14.638 8.647L14.64 8.621C14.6585 8.4355 14.669 8.2205 14.669 8.0025C14.669 6.967 14.4315 5.987 14.008 5.114L14.0255 5.1535C13.8205 4.7305 13.6025 4.369 13.356 4.03L13.3705 4.051C13.349 4.021 13.336 3.984 13.3355 3.9435C13.3355 3.546 13.3355 3.1485 13.3355 2.7485L13.3325 2.6675Z" fill="black"/>
<path d="M6.5 8.5525L8 4.6675L9.5 8.5525H9.515C9.5375 8.465 9.5625 8.375 9.5825 8.2875C9.81083 7.38583 10.0367 6.48417 10.26 5.5825C10.2745 5.531 10.2825 5.4715 10.2825 5.41C10.2825 5.2975 10.2545 5.1915 10.2055 5.0985L10.207 5.102L10.0245 4.7345C10.0245 4.7145 10.0045 4.6945 9.9945 4.6695H12.6445C12.6345 4.6845 12.6235 4.6975 12.612 4.7095C12.4895 4.8345 12.362 4.9595 12.2395 5.0795C12.0685 5.234 11.949 5.4425 11.908 5.678L11.907 5.6845C11.6345 6.9345 11.352 8.1845 11.072 9.4495C10.9595 9.9645 10.842 10.4795 10.7345 10.9945C10.7245 11.0365 10.7185 11.0845 10.7185 11.1335C10.7185 11.2995 10.7835 11.4505 10.8895 11.562C11.012 11.6945 11.1395 11.8115 11.2645 11.9415L11.3145 11.994H8.672L8.6945 11.944C8.7795 11.769 8.867 11.5965 8.9445 11.424C8.95 11.4115 8.953 11.397 8.953 11.3815C8.953 11.366 8.95 11.3515 8.9445 11.338L8.945 11.339C8.64833 10.459 8.3375 9.58067 8.0125 8.704C8.0125 8.704 8.0125 8.704 7.9975 8.679L7.935 8.8415C7.64 9.67483 7.34417 10.5007 7.0475 11.319C7.0385 11.336 7.0335 11.3565 7.0335 11.3775C7.0335 11.3985 7.0385 11.419 7.048 11.437C7.133 11.602 7.2125 11.7665 7.2975 11.9365C7.2975 11.9565 7.315 11.9765 7.325 12.0015H4.6775L4.71 11.9615C4.8125 11.8565 4.915 11.749 5.0225 11.649C5.174 11.5145 5.269 11.3195 5.269 11.102C5.269 11.0295 5.2585 10.9595 5.239 10.8935L5.2405 10.8985C5.0055 9.8635 4.778 8.826 4.5455 7.791L4.0455 5.541C4.0145 5.4075 3.9475 5.2925 3.8555 5.2035L3.3905 4.7235L3.3405 4.6685H6.0005C6.0005 4.6885 6.0005 4.706 5.9805 4.721C5.918 4.8435 5.858 4.971 5.7955 5.091C5.7455 5.184 5.7165 5.294 5.7165 5.411C5.7165 5.475 5.7255 5.537 5.7415 5.596L5.7405 5.591C5.9855 6.566 6.22967 7.541 6.473 8.516C6.4725 8.5205 6.472 8.5255 6.472 8.531C6.472 8.5365 6.4725 8.5415 6.473 8.5465L6.5 8.5525Z" fill="black"/>
</g>
<defs>
<clipPath id="clip0_6_191">
<rect width="16" height="16" fill="white"/>
</clipPath>
</defs>
</svg>
