<svg width="16" height="16" viewBox="0 0 16 16" fill="none" xmlns="http://www.w3.org/2000/svg">
<g clip-path="url(#clip0_6_501)">
<path d="M15.0135 13.4069C14.4945 14.1409 13.649 14.6144 12.693 14.6144C12.1945 14.6144 11.726 14.4854 11.319 14.2594L11.3335 14.2669L9.83351 13.4404L10.5 12.2204L12 13.0539C12.1915 13.1614 12.42 13.2249 12.6635 13.2249C13.179 13.2249 13.628 12.9409 13.863 12.5209L13.8665 12.5139C14.1895 11.9394 14.3795 11.2534 14.3795 10.5224C14.3795 8.98143 13.5335 7.63793 12.28 6.93093L12.2595 6.92043L9.24601 5.26043L8.91951 5.85393C8.80601 6.06993 8.58351 6.21443 8.32751 6.21443C8.20151 6.21443 8.08401 6.17943 7.98351 6.11893L7.98651 6.12043L4.98651 4.46043L3.65301 2.16043L1.44651 0.94043L1.19301 7.07393L3.03301 8.09393L2.35951 9.33393L0.666012 8.38043L-0.000488281 9.54693L10.666 15.4334C11.242 15.7604 11.9315 15.9529 12.666 15.9534H12.6695C14.079 15.9534 15.325 15.2524 16.077 14.1799L16.086 14.1664L15.0135 13.4069ZM4.20001 8.74043L9.33351 11.5739L8.66701 12.7939L3.52701 9.96043L4.20001 8.74043Z" fill="black"/>
</g>
<defs>
<clipPath id="clip0_6_501">
<rect width="16" height="16" fill="white"/>
</clipPath>
</defs>
</svg>
