<svg width="16" height="16" viewBox="0 0 16 16" fill="none" xmlns="http://www.w3.org/2000/svg">
<path d="M14.67 2H1.33C0.59 2 0 2.59129 0 3.31511V11.6747C0 12.3985 0.59 13 1.33 13H14.67C15.4 13 16 12.3985 16 11.6747V3.31511C16 2.59129 15.4 2 14.67 2ZM15.05 10.3596H14.65L14.59 10.3494C13.85 10.3494 13.24 10.9611 13.24 11.7155V12.0927L12.87 12.1233H2.73V11.7461C2.73 10.9611 2.13 10.3494 1.4 10.3494H0.96L0.98 4.77294H1.42C2.15 4.75255 2.73 4.15107 2.73 3.40686V3.01946L3.11 2.99907H13.24V3.38647C13.24 4.16126 13.85 4.76274 14.59 4.76274H15.05V10.3596ZM12.52 3.76367H3.45C3.29 4.6608 2.6 5.36423 1.73 5.50695L1.71 9.61538C2.6 9.74791 3.31 10.4615 3.45 11.3587H12.52C12.68 10.4411 13.4 9.73772 14.3 9.60519V5.51715C13.4 5.38462 12.68 4.67099 12.52 3.76367ZM9.54 9.45227C9.25 9.70714 8.85 9.86006 8.32 9.90083V10.6043H7.67V9.90083C7.15 9.84986 6.75 9.68675 6.45 9.4013C6.16 9.12604 6.01 8.73865 6.01 8.24931H7.45C7.45 8.46339 7.5 8.61631 7.62 8.73865C7.73 8.84059 7.87 8.90176 8.05 8.90176C8.2 8.90176 8.32 8.86098 8.4 8.78962C8.49 8.71826 8.53 8.62651 8.53 8.50417C8.53 8.38183 8.47 8.27989 8.35 8.20853C8.24 8.13716 8.05 8.05561 7.8 7.95366C7.58 7.86191 7.36 7.78035 7.16 7.6988C6.95 7.61724 6.78 7.52549 6.62 7.40315C6.47 7.29101 6.35 7.15848 6.25 7.00556C6.16 6.85264 6.12 6.64875 6.12 6.41427C6.12 6.21038 6.16 6.02688 6.24 5.87396C6.33 5.72104 6.44 5.58851 6.57 5.47637C6.72 5.37442 6.89 5.29286 7.08 5.2317C7.27 5.17053 7.46 5.11956 7.67 5.09917V4.40593H8.32V5.09917C8.62 5.12975 8.88 5.19092 9.07 5.29286C9.28 5.37442 9.45 5.49676 9.57 5.63948C9.69 5.77201 9.78 5.91474 9.83 6.08804C9.88 6.25116 9.91 6.41427 9.91 6.57739H8.48C8.48 6.18999 8.32 6.00649 8 6.00649C7.88 6.00649 7.78 6.03707 7.69 6.08804C7.6 6.14921 7.56 6.24096 7.56 6.3633C7.56 6.48563 7.62 6.57739 7.73 6.65894C7.84 6.7405 8 6.82206 8.22 6.89342C8.43 6.96478 8.64 7.03614 8.84 7.1177C9.05 7.18906 9.24 7.29101 9.41 7.40315C9.58 7.51529 9.72 7.65802 9.82 7.82113C9.92 7.98424 9.98 8.18814 9.98 8.41242C9.98 8.85079 9.83 9.1974 9.54 9.45227Z" fill="black"/>
</svg>
