<svg width="16" height="16" viewBox="0 0 16 16" fill="none" xmlns="http://www.w3.org/2000/svg">
<g clip-path="url(#clip0_18_39)">
<path fill-rule="evenodd" clip-rule="evenodd" d="M0 8C0 3.58172 3.58172 0 8 0C12.4183 0 16 3.58172 16 8C16 12.4183 12.4183 16 8 16C3.58172 16 0 12.4183 0 8ZM9.50942 4.70118C9.24777 4.57036 8.92368 4.48711 8.53715 4.45143V3.497H7.68976V4.45143C7.42217 4.48116 7.16646 4.53765 6.92265 4.6209C6.67884 4.70416 6.46477 4.82012 6.28042 4.96878C6.10203 5.1115 5.95633 5.2899 5.84335 5.50397C5.73631 5.7121 5.68279 5.95591 5.68279 6.2354C5.68279 6.55652 5.74226 6.82412 5.86119 7.03819C5.98012 7.25227 6.1377 7.43661 6.33394 7.59123C6.53613 7.74584 6.76804 7.87964 7.02969 7.99262C7.29729 8.10561 7.57381 8.21859 7.85924 8.33158C8.1863 8.4624 8.42417 8.57836 8.57283 8.67945C8.72744 8.7746 8.80475 8.9084 8.80475 9.08085C8.80475 9.24735 8.74826 9.37817 8.63527 9.47332C8.52823 9.56847 8.37957 9.61604 8.18928 9.61604C7.95141 9.61604 7.76112 9.54171 7.6184 9.39304C7.47569 9.23843 7.40433 9.01841 7.40433 8.73297H5.54899C5.54899 9.39899 5.73928 9.92526 6.11986 10.3118C6.50045 10.6924 7.02375 10.9183 7.68976 10.9897V11.9352H8.53715V10.9897C9.20912 10.9243 9.73242 10.7191 10.1071 10.3742C10.4817 10.0293 10.669 9.55955 10.669 8.96489C10.669 8.64377 10.6006 8.3732 10.4638 8.15318C10.333 7.92721 10.1576 7.73692 9.93758 7.58231C9.7235 7.42769 9.47969 7.29687 9.20614 7.18983C8.93855 7.08279 8.67095 6.9817 8.40335 6.88656C8.11792 6.78546 7.90384 6.6814 7.76112 6.57436C7.6184 6.46732 7.54705 6.33352 7.54705 6.17296C7.54705 6.00051 7.60354 5.87563 7.71652 5.79833C7.82951 5.72102 7.96331 5.68237 8.11792 5.68237C8.52823 5.68237 8.73339 5.94105 8.73339 6.4584H10.5887C10.5887 6.23243 10.553 6.00943 10.4817 5.78941C10.4163 5.56344 10.3033 5.35828 10.1427 5.17394C9.98217 4.98365 9.77107 4.82606 9.50942 4.70118Z" fill="black"/>
</g>
<defs>
<clipPath id="clip0_18_39">
<rect width="16" height="16" fill="white"/>
</clipPath>
</defs>
</svg>
