<svg width="16" height="16" viewBox="0 0 16 16" fill="none" xmlns="http://www.w3.org/2000/svg">
<g clip-path="url(#clip0_6_517)">
<path d="M8 0C3.584 0 0 3.584 0 8C0 12.416 3.584 16 8 16C12.416 16 16 12.416 16 8C16 3.584 12.416 0 8 0ZM14.352 7.2H11.584C11.496 5.176 11.064 3.368 10.416 2.072C12.52 2.928 14.064 4.872 14.352 7.2ZM1.648 8.8H4.416C4.504 10.824 4.936 12.632 5.584 13.928C3.48 13.072 1.944 11.128 1.648 8.8ZM4.416 7.2H1.648C1.936 4.872 3.48 2.928 5.584 2.072C4.936 3.368 4.512 5.176 4.416 7.2ZM9.088 13C8.816 13.6 8.536 13.992 8.304 14.208C8.192 14.312 8.112 14.36 8.064 14.384C8.024 14.4 8.008 14.4 8 14.4C7.992 14.4 7.976 14.4 7.936 14.384C7.888 14.36 7.808 14.312 7.696 14.208C7.464 13.992 7.184 13.6 6.912 13C6.448 11.96 6.104 10.496 6.016 8.8H9.976C9.896 10.496 9.552 11.96 9.088 13ZM6.016 7.2C6.096 5.504 6.44 4.04 6.912 3C7.184 2.4 7.464 2.008 7.696 1.792C7.808 1.688 7.888 1.64 7.936 1.616C7.976 1.6 7.992 1.6 8 1.6C8.008 1.6 8.024 1.6 8.064 1.616C8.112 1.64 8.192 1.688 8.304 1.792C8.536 2.008 8.816 2.4 9.088 3C9.552 4.04 9.896 5.504 9.984 7.2H6.016ZM10.416 13.928C11.056 12.632 11.488 10.824 11.584 8.8H14.352C14.064 11.128 12.52 13.072 10.416 13.928Z" fill="black"/>
</g>
<defs>
<clipPath id="clip0_6_517">
<rect width="16" height="16" fill="white"/>
</clipPath>
</defs>
</svg>
