<svg width="16" height="16" viewBox="0 0 16 16" fill="none" xmlns="http://www.w3.org/2000/svg">
<path d="M9.36 8.32698H6.88L5.82 9.82698L3.3335 8.39348V10.947C3.34 11.1735 3.38 11.3805 3.4335 11.5735C3.94 13.3935 6.18 14.6535 8 14.6535C9.82 14.6535 12.06 13.387 12.5665 11.5735C12.62 11.38 12.653 11.1735 12.6665 10.947V8.80048L10.4 9.90698L9.3665 8.32048L9.36 8.32698ZM6.88 11.2005C6.88 11.2005 6.68 11.094 6.5865 10.8805L7.2065 9.78698H8.9665L9.52 10.8005C9.52 10.8005 9.5 11.134 9.24 11.2005H6.88Z" fill="black"/>
<path d="M10.1735 1.73398C9.5 1.42048 8.7935 1.34748 8.007 1.33398C7.2205 1.34748 6.5005 1.42048 5.8405 1.73398V5.18048H10.174L10.1735 1.73398Z" fill="black"/>
<path d="M4.9465 2.14048H4.933C4.673 2.26698 4.253 2.56698 3.9995 2.84698C3.6995 3.14048 3.3395 3.59348 3.3395 4.06698V7.58698L4.946 6.44698L4.9465 2.14048Z" fill="black"/>
<path d="M12.0065 2.84698C11.96 2.80698 11.9065 2.76698 11.853 2.72048C11.6265 2.52698 11.3265 2.28048 11.0465 2.14048V6.54698L12.673 7.64048V4.07398C12.673 3.60048 12.3065 3.14748 12.013 2.85398L12.0065 2.84698Z" fill="black"/>
</svg>
