<svg width="16" height="16" viewBox="0 0 16 16" fill="none" xmlns="http://www.w3.org/2000/svg">
<g clip-path="url(#clip0_6_507)">
<path d="M14.3536 5.65385C13.8151 4.65635 13.3301 3.49185 12.9626 2.27685L12.9271 2.14085L12.8936 2.00085C12.8936 -0.665648 3.27357 -0.665648 3.27357 2.00085C2.84957 3.44485 2.33257 4.69135 1.70107 5.86785L1.75357 5.76085L1.80707 5.65435C0.847075 7.44085 0.953574 8.82785 1.94707 9.82085C2.94057 10.8139 2.34057 14.9809 3.53357 15.5744C4.14907 15.8429 4.86607 15.9994 5.62007 15.9994C5.82457 15.9994 6.02607 15.9879 6.22457 15.9654L6.20007 15.9674V9.92085C6.20007 9.92085 4.90657 9.72085 4.90657 4.76085L4.71307 4.16735C4.71307 4.16735 5.61307 3.56085 8.04657 3.55385C10.4801 3.54685 11.4131 4.16735 11.4131 4.16735L11.2131 4.76085C11.2131 9.72085 9.91957 9.92085 9.91957 9.92085V16.0009C10.0976 16.0224 10.3031 16.0344 10.5121 16.0344C11.2616 16.0344 11.9746 15.8774 12.6201 15.5944L12.5866 15.6074C13.7801 15.0139 13.1866 10.8539 14.1801 9.85385C15.1736 8.85385 15.2736 7.47385 14.3136 5.68735L14.3536 5.65385Z" fill="black"/>
<path d="M6.76007 10.0004L7.20007 15.2004C7.22157 15.6474 7.58907 16.0014 8.03907 16.0014C8.05357 16.0014 8.06757 16.0009 8.08207 16.0004H8.08007C8.09457 16.0014 8.11107 16.0019 8.12807 16.0019C8.57607 16.0019 8.94207 15.6514 8.96657 15.2094V15.2074L9.42657 10.0074C9.02857 10.1299 8.57107 10.2009 8.09707 10.2009H8.09307C7.60557 10.2004 7.13557 10.1274 6.69257 9.99185L6.72657 10.0009L6.76007 10.0004Z" fill="black"/>
</g>
<defs>
<clipPath id="clip0_6_507">
<rect width="16" height="16" fill="white"/>
</clipPath>
</defs>
</svg>
