<svg width="16" height="16" viewBox="0 0 16 16" fill="none" xmlns="http://www.w3.org/2000/svg">
<g clip-path="url(#clip0_14_354)">
<path d="M8 10.2996C9.08935 10.2996 9.97244 9.4644 9.97244 8.43407C9.97244 7.40374 9.08935 6.5685 8 6.5685C6.91065 6.5685 6.02756 7.40374 6.02756 8.43407C6.02756 9.4644 6.91065 10.2996 8 10.2996Z" fill="black"/>
<path d="M10.3367 1.19548L10.6191 0.73371C10.6348 0.708055 10.6464 0.681375 10.6558 0.654695L11.0579 0L5.79766 0.0513084H4.98517L5.33998 0.643407C5.35048 0.674192 5.36308 0.703951 5.38092 0.73371L5.6633 1.19548C2.38499 2.14058 0 5.02412 0 8.43407C0 12.6126 3.58168 16 8 16C12.4183 16 16 12.6126 16 8.43407C16 5.02412 13.615 2.14161 10.3378 1.19548H10.3367ZM14.1934 5.67163C14.5608 6.40739 14.7855 7.21806 14.8358 8.07388H13.5405C13.4953 7.44074 13.3305 6.83735 13.0692 6.28527L14.1934 5.67163ZM11.8725 3.09389C12.6052 3.57004 13.234 4.1765 13.7231 4.87943L12.601 5.49205C12.2294 4.97383 11.7622 4.52027 11.2237 4.157L11.8725 3.09389ZM11.0442 2.63315L10.3965 3.6942C9.97979 3.50539 9.53366 3.36378 9.06653 3.2786L9.74255 2.17137C10.1971 2.28425 10.6327 2.4392 11.0442 2.63315ZM6.2564 2.17137L6.92193 3.28066C6.46004 3.36685 6.01811 3.50641 5.60451 3.6942L4.95683 2.63315C5.36832 2.4392 5.80291 2.28425 6.2564 2.17137ZM4.12754 3.09389L4.77628 4.15598C4.23776 4.52027 3.77063 4.97281 3.39903 5.49102L2.27792 4.8784C2.76709 4.1765 3.39588 3.56901 4.12859 3.09287L4.12754 3.09389ZM1.80659 5.67163L2.93085 6.28527C2.66842 6.83735 2.50466 7.44074 2.45952 8.07388H1.16415C1.21349 7.21806 1.43918 6.40636 1.80659 5.67163ZM1.88322 11.3443C1.49902 10.6239 1.25338 9.82658 1.17885 8.98307H2.47632C2.54455 9.60493 2.7272 10.1939 3.00433 10.7317L1.88322 11.3443ZM4.21152 13.8276C3.49246 13.3751 2.86891 12.7963 2.37554 12.1252L3.4998 11.5115C3.87351 12 4.33434 12.4248 4.8592 12.7665L4.21152 13.8276ZM7.52027 14.8938C6.63955 14.8363 5.80501 14.6208 5.04711 14.2771L5.69584 13.215C6.25955 13.4582 6.87469 13.6152 7.52027 13.6675V14.8938ZM8.00105 12.5962C5.57092 12.5962 3.60058 10.7327 3.60058 8.43407C3.60058 6.28527 5.32214 4.51719 7.53182 4.29656L7.97166 5.02925L8.32752 4.44946C8.36216 4.4197 8.3926 4.38379 8.41779 4.34274L8.44719 4.29348C10.6674 4.50487 12.4015 6.27809 12.4015 8.43407C12.4015 10.7327 10.4312 12.5962 8.00105 12.5962ZM8.48183 14.8938V13.6675C9.12741 13.6152 9.74255 13.4582 10.3063 13.214L10.955 14.2771C10.1971 14.6198 9.36255 14.8353 8.48183 14.8938ZM11.7906 13.8276L11.1429 12.7665C11.6688 12.4248 12.1286 12 12.5023 11.5115L13.6266 12.1252C13.1332 12.7963 12.5096 13.374 11.7906 13.8276ZM14.1189 11.3443L12.9967 10.7317C13.2738 10.1939 13.4565 9.60493 13.5247 8.98307H14.8233C14.7487 9.82658 14.5031 10.6239 14.1189 11.3443Z" fill="black"/>
</g>
<defs>
<clipPath id="clip0_14_354">
<rect width="16" height="16" fill="white"/>
</clipPath>
</defs>
</svg>
