<svg width="16" height="16" viewBox="0 0 16 16" fill="none" xmlns="http://www.w3.org/2000/svg">
<path d="M10 0C8.6665 0 6 2.6665 6 6C6 6 5.3335 4 4 4C4 5.3335 2 7 2 10C2 13.3135 4.6865 16 8 16C11.3135 16 14 13.3135 14 10C14 4.6665 10 2.6665 10 0ZM11.7 10.7135L11.1335 12.8135C10.9905 13.336 10.52 13.7135 9.9615 13.7135H5.0805V9.18L8.9205 5.6335C9.341 5.8455 9.624 6.2735 9.624 6.768C9.624 7.028 9.5455 7.27 9.411 7.4715L9.414 7.467L8.2805 9.1805H10.527C10.528 9.1805 10.529 9.1805 10.53 9.1805C11.2 9.1805 11.7435 9.7235 11.7435 10.394C11.7435 10.508 11.728 10.618 11.6985 10.7225L11.7 10.7135Z" fill="black"/>
</svg>
