<svg width="16" height="16" viewBox="0 0 16 16" fill="none" xmlns="http://www.w3.org/2000/svg">
<g clip-path="url(#clip0_6_353)">
<path d="M13.9465 1.83351L13.26 3.88701H15.3135L16 1.83351H13.9465Z" fill="black"/>
<path d="M11.8865 1.83351H9.83301L9.14651 3.88701H11.2065L11.8865 1.83351Z" fill="black"/>
<path d="M11.8935 8.00001H13.947L14.6335 5.94651H12.5735L11.8935 8.00001Z" fill="black"/>
<path d="M10.52 5.94651H8.46651L7.78001 8.00001H9.83351L10.52 5.94651Z" fill="black"/>
<path d="M5.72001 8.00001L6.40651 5.94651H4.35301L5.03951 3.88651H7.09301L7.77951 1.83301H4.11301L-0.000488281 14.1665H1.61301L3.66651 8.00001H5.72001Z" fill="black"/>
<path d="M10.52 5.94651H12.5735L13.26 3.88701H11.2065L10.52 5.94651Z" fill="black"/>
<path d="M6.40651 5.94651H8.46651L9.14651 3.88701L7.09301 3.88651L6.40651 5.94651Z" fill="black"/>
<path d="M9.14651 10.0535H11.2065L11.8865 8.00001H9.83351L9.14651 10.0535Z" fill="black"/>
<path d="M5.04001 10.0535H7.09351L7.78001 8.00001H5.72001L5.04001 10.0535Z" fill="black"/>
</g>
<defs>
<clipPath id="clip0_6_353">
<rect width="16" height="16" fill="white"/>
</clipPath>
</defs>
</svg>
