<svg width="16" height="16" viewBox="0 0 16 16" fill="none" xmlns="http://www.w3.org/2000/svg">
<g clip-path="url(#clip0_6_423)">
<path d="M8.00002 4.00018L8.77352 5.44018C9.20902 6.24468 9.97702 6.82168 10.888 6.99068L10.9065 6.99368L12.513 7.28018L11.3865 8.46018C10.8615 9.00168 10.5375 9.74168 10.5375 10.5567C10.5375 10.7037 10.548 10.8482 10.5685 10.9897L10.5665 10.9737L10.7865 12.5872L9.40002 11.9207C8.99102 11.7187 8.50902 11.6002 8.00002 11.6002C7.49102 11.6002 7.00902 11.7182 6.58102 11.9287L6.60002 11.9202L5.21352 12.5867L5.43352 10.9732C5.45202 10.8482 5.46252 10.7032 5.46252 10.5562C5.46252 9.74068 5.13902 9.00118 4.61302 8.45868L4.61402 8.45968L3.48752 7.24618L5.09402 6.95968C6.02402 6.78768 6.79152 6.21068 7.21952 5.42218L7.22752 5.40618L8.00102 3.99968L8.00002 4.00018ZM8.00002 0.34668C7.99952 0.34668 7.99902 0.34668 7.99852 0.34668C7.66852 0.34668 7.38202 0.53068 7.23552 0.80218L7.23302 0.80668L5.33302 4.38018C5.20652 4.61068 4.98652 4.77618 4.72502 4.82618L4.71952 4.82718L0.719523 5.54718C0.308023 5.61968 -0.000976562 5.97468 -0.000976562 6.40118C-0.000976562 6.63368 0.0905234 6.84468 0.239523 7.00068L3.04552 9.92668C3.19752 10.0797 3.29102 10.2902 3.29102 10.5232C3.29102 10.5742 3.28652 10.6237 3.27802 10.6722L3.27902 10.6672L2.73252 14.6672C2.72702 14.7032 2.72402 14.7447 2.72402 14.7872C2.72402 15.2657 3.11202 15.6537 3.59052 15.6537C3.59102 15.6537 3.59152 15.6537 3.59252 15.6537C3.60002 15.6542 3.60952 15.6542 3.61852 15.6542C3.75752 15.6542 3.88902 15.6197 4.00352 15.5582L3.99902 15.5602L7.56552 13.8402C7.70002 13.7732 7.85802 13.7337 8.02552 13.7337C8.19302 13.7337 8.35102 13.7732 8.49152 13.8427L8.48552 13.8402L11.999 15.5602C12.1075 15.6192 12.237 15.6537 12.374 15.6537C12.3755 15.6537 12.3775 15.6537 12.3795 15.6537C12.388 15.6542 12.3975 15.6542 12.4075 15.6542C12.886 15.6542 13.274 15.2662 13.274 14.7877C13.274 14.7452 13.271 14.7032 13.265 14.6627L13.2655 14.6672L12.719 10.6672C12.713 10.6292 12.7095 10.5852 12.7095 10.5407C12.7095 10.3097 12.802 10.0997 12.9525 9.94718L15.759 7.02068C15.9085 6.86518 16.0005 6.65368 16.0005 6.42068C16.0005 5.99568 15.6945 5.64218 15.291 5.56818L15.2855 5.56718L11.2855 4.84718C11.0125 4.79368 10.789 4.62018 10.668 4.38568L10.6655 4.38068L8.76552 0.80718C8.61702 0.53118 8.33002 0.34668 8.00002 0.34668Z" fill="black"/>
</g>
<defs>
<clipPath id="clip0_6_423">
<rect width="16" height="16" fill="white"/>
</clipPath>
</defs>
</svg>
