<svg width="16" height="16" viewBox="0 0 16 16" fill="none" xmlns="http://www.w3.org/2000/svg">
<g clip-path="url(#clip0_6_384)">
<path d="M4.4514 0.201234L7.7654 3.51523C8.0259 3.77573 8.0259 4.19773 7.7654 4.45823L4.4514 7.77223C4.1909 8.03273 3.7689 8.03273 3.5084 7.77223L0.194398 4.45823C-0.0661016 4.19773 -0.0661016 3.77573 0.194398 3.51523L3.5084 0.201234C3.7689 -0.0592656 4.1909 -0.0592656 4.4514 0.201234Z" fill="black"/>
<path d="M9.6664 0.973734H14.3529C14.7209 0.973734 15.0194 1.27223 15.0194 1.64023V6.32673C15.0194 6.69473 14.7209 6.99323 14.3529 6.99323H9.6664C9.2984 6.99323 8.9999 6.69473 8.9999 6.32673V1.64023C8.9999 1.27223 9.2984 0.973734 9.6664 0.973734Z" fill="black"/>
<path d="M1.6399 9.00023H6.3264C6.6944 9.00023 6.9929 9.29873 6.9929 9.66673V14.3532C6.9929 14.7212 6.6944 15.0197 6.3264 15.0197H1.6399C1.2719 15.0197 0.973398 14.7212 0.973398 14.3532V9.66673C0.973398 9.29873 1.2719 9.00023 1.6399 9.00023Z" fill="black"/>
<path d="M9.6664 9.00023H14.3529C14.7209 9.00023 15.0194 9.29873 15.0194 9.66673V14.3532C15.0194 14.7212 14.7209 15.0197 14.3529 15.0197H9.6664C9.2984 15.0197 8.9999 14.7212 8.9999 14.3532V9.66673C8.9999 9.29873 9.2984 9.00023 9.6664 9.00023Z" fill="black"/>
</g>
<defs>
<clipPath id="clip0_6_384">
<rect width="16" height="16" fill="white"/>
</clipPath>
</defs>
</svg>
