<svg width="16" height="16" viewBox="0 0 16 16" fill="none" xmlns="http://www.w3.org/2000/svg">
<g clip-path="url(#clip0_6_531)">
<path d="M16 6.625C16 3.3805 13.3695 0.75 10.125 0.75H5.875C2.6305 0.75 0 3.3805 0 6.625C0 9.8695 2.6305 12.5 5.875 12.5H7.75C8.185 13.61 9.3575 15.25 12.5 15.25C12.5 15.25 11.425 14.71 11.095 12.42C13.8955 11.9375 15.999 9.527 16 6.625ZM3.305 7.8975C2.602 7.8975 2.0325 7.328 2.0325 6.625C2.0325 5.922 2.602 5.3525 3.305 5.3525C4.008 5.3525 4.5775 5.922 4.5775 6.625C4.5775 7.328 4.008 7.8975 3.305 7.8975ZM7.305 7.8975C6.602 7.8975 6.0325 7.328 6.0325 6.625C6.0325 5.922 6.602 5.3525 7.305 5.3525C8.008 5.3525 8.5775 5.922 8.5775 6.625C8.5775 7.328 8.008 7.8975 7.305 7.8975ZM10.6475 8.455L10.615 8.485L10.115 7.985L10.1475 7.9575C10.487 7.6165 10.6965 7.1465 10.6965 6.6275C10.6965 6.1085 10.4865 5.6385 10.147 5.2975L10.1145 5.27L10.6145 4.77L10.647 4.8C11.1135 5.2685 11.4015 5.914 11.4015 6.6275C11.4015 7.341 11.113 7.9865 10.6465 8.455H10.6475ZM11.9125 9.72L11.88 9.75L11.38 9.25L11.4125 9.22C12.075 8.556 12.485 7.6395 12.485 6.6275C12.485 5.6155 12.0755 4.699 11.4125 4.035L11.3775 4L11.8775 3.5L11.91 3.53C12.701 4.323 13.19 5.4175 13.19 6.626C13.19 7.8335 12.702 8.927 11.9125 9.72Z" fill="black"/>
</g>
<defs>
<clipPath id="clip0_6_531">
<rect width="16" height="16" fill="white"/>
</clipPath>
</defs>
</svg>
