<svg width="16" height="16" viewBox="0 0 16 16" fill="none" xmlns="http://www.w3.org/2000/svg">
<g clip-path="url(#clip0_6_397)">
<path d="M15 15H13.875C13.392 15 13 14.608 13 14.125V12.2175L15.5 12L15.885 10.8425C15.2625 10.8425 12.18 10.945 9.75 11.6575V12.5L11.75 12.325V14.125C11.75 14.608 11.358 15 10.875 15H6.375C5.892 15 5.5 14.608 5.5 14.125V12.595C5 12.6225 4.5 12.635 4 12.64V14.125C4 14.608 3.608 15 3.125 15H3.0625C2.3695 15 1.7545 14.6685 1.3665 14.1555L1.3625 14.15C1.292 14.05 1.25 13.9255 1.25 13.7915V13.79C1.2365 13.4895 0.99 13.251 0.6875 13.25H0.5625C0.252 13.25 0 13.502 0 13.8125V14.0625C0.0005 14.1855 0.0395 14.299 0.106 14.3915L0.105 14.39L0.605 15.09C0.9995 15.6385 1.636 15.9915 2.355 15.9925H16C15.9955 15.4435 15.5495 15 15 15Z" fill="black"/>
<path d="M15.5 5.49989C15.25 4.84239 14.75 2.08989 14.75 2.08989C13.5325 0.499889 11.63 -0.277611 8.75 0.0898894C8.7695 0.318389 8.7805 0.584889 8.7805 0.853889C8.7805 1.12289 8.7695 1.38889 8.7475 1.65189L8.75 1.61739L10.31 1.99989L10.19 2.49989L8.7025 2.11989C8.6605 2.45339 8.608 2.74039 8.541 3.02189L8.5525 2.96489L9.8475 3.51989L9.6525 3.97989L8.42 3.45239C8.327 3.75589 8.2255 4.01189 8.1055 4.25739L8.12 4.22489L9.155 5.05489L8.845 5.44489L7.8775 4.66989C7.691 4.96939 7.4785 5.22789 7.237 5.45539L7.235 5.45739L7.945 6.34489L7.555 6.65489L6.8425 5.76739C6.672 5.88539 6.477 5.99339 6.272 6.08139L6.25 6.08989C6.1225 6.14239 6 6.19239 5.865 6.23989L6.2325 7.15739L5.7675 7.34239L5.3925 6.40739C2.6625 7.30989 0 7.33989 0 10.5899V11.1674C0 11.2024 0 11.2374 0 11.2724C0.0825 11.7299 0.68 12.1099 1.175 12.1174H1.485C3.55 12.1549 7.01 12.2124 8.39 11.6049C11.2125 10.3724 15.7975 10.3399 16 10.3399C16 9.46989 15.9225 6.55739 15.5 5.49989Z" fill="black"/>
</g>
<defs>
<clipPath id="clip0_6_397">
<rect width="16" height="16" fill="white"/>
</clipPath>
</defs>
</svg>
