<svg width="16" height="16" viewBox="0 0 16 16" fill="none" xmlns="http://www.w3.org/2000/svg">
<g clip-path="url(#clip0_6_456)">
<path d="M13.4466 13.4996C13.0671 13.8111 12.5771 14.0001 12.0426 14.0001C12.0276 14.0001 12.0126 14.0001 11.9976 13.9996H11.9996C11.9841 14.0001 11.9661 14.0001 11.9476 14.0001C11.4161 14.0001 10.9286 13.8111 10.5491 13.4966L10.5526 13.4996C9.86959 12.9791 9.00409 12.6656 8.06509 12.6656C8.04209 12.6656 8.01859 12.6656 7.99559 12.6661H7.99909C7.97859 12.6656 7.95509 12.6656 7.93109 12.6656C6.99309 12.6656 6.12859 12.9791 5.43609 13.5071L5.44609 13.4996C5.30009 13.5896 5.17359 13.6816 5.05509 13.7831L5.05909 13.7796C5.05909 13.7546 5.05859 13.7256 5.05859 13.6961C5.05859 12.8576 5.15859 12.0426 5.34659 11.2621L5.33209 11.3326C6.12659 10.6426 6.71609 9.73607 7.00959 8.70407L7.01909 8.66557C7.01909 8.66557 10.6256 8.97207 11.7391 7.01907H12.8656C12.8656 7.01907 12.1121 8.77257 10.9921 8.77257L10.6656 9.79907C10.6656 9.79907 14.7656 9.28557 14.7656 6.08557C14.7656 6.08557 13.4321 5.55907 13.4321 3.37207C13.4321 3.37207 13.8856 4.70557 14.8986 4.25857L15.4186 5.08507L15.9986 4.25857L14.6121 0.92507L15.0321 0.30507H13.9986C10.3521 0.32507 10.2986 5.33157 8.40509 5.33157C6.51159 5.33157 4.51159 5.44507 3.91859 6.71807C3.27259 6.83507 2.76159 7.30607 2.58809 7.91957L2.58509 7.93157C2.17159 9.37157 -0.00140625 9.45157 -0.00140625 9.45157V11.3316C2.06509 11.3316 3.28509 9.33157 3.81859 8.13807C4.04509 8.98457 4.70509 9.57807 4.66509 9.79807C4.62509 10.0181 3.72509 11.0646 3.72509 11.0646V13.9981C3.27109 13.9516 2.86509 13.7786 2.53359 13.5146L2.53809 13.5181C1.85109 12.9856 0.976594 12.6646 0.0270938 12.6646C0.0165938 12.6646 0.00659375 12.6646 -0.00390625 12.6646H-0.00240625V14.6646C0.0180937 14.6641 0.0415937 14.6641 0.0655937 14.6641C1.00359 14.6641 1.86809 14.9776 2.56059 15.5056L2.55059 15.4981C2.92559 15.8096 3.41209 15.9986 3.94309 15.9986C3.96209 15.9986 3.98109 15.9981 4.00009 15.9981H3.99709C4.01259 15.9986 4.03059 15.9986 4.04909 15.9986C4.58059 15.9986 5.06809 15.8096 5.44759 15.4951L5.44409 15.4981C6.12659 14.9776 6.99109 14.6641 7.92909 14.6641C7.95309 14.6641 7.97709 14.6641 8.00109 14.6646H7.99759C8.01909 14.6641 8.04459 14.6641 8.07009 14.6641C9.00859 14.6641 9.87409 14.9776 10.5676 15.5056L10.5576 15.4981C10.9336 15.8096 11.4206 15.9986 11.9521 15.9986C11.9681 15.9986 11.9841 15.9986 12.0001 15.9981H11.9976C12.0101 15.9986 12.0251 15.9986 12.0401 15.9986C12.5746 15.9986 13.0651 15.8096 13.4481 15.4951L13.4441 15.4981C14.1241 14.9776 14.9871 14.6641 15.9226 14.6641C15.9491 14.6641 15.9751 14.6641 16.0011 14.6646H15.9971V12.6646C15.9751 12.6641 15.9486 12.6641 15.9226 12.6641C14.9866 12.6641 14.1241 12.9776 13.4341 13.5056L13.4441 13.4981L13.4466 13.4996Z" fill="black"/>
<path d="M1.37359 1.70607C1.64959 1.54507 1.83209 1.25007 1.83209 0.91257C1.83209 0.40707 1.42209 -0.00292969 0.916594 -0.00292969C0.748594 -0.00292969 0.591094 0.0425703 0.455594 0.12157L0.460094 0.11907C0.183594 0.28307 0.00159383 0.57957 0.00159383 0.91907C0.00159383 1.08557 0.0455938 1.24207 0.122594 1.37707L0.120094 1.37257C0.282594 1.64707 0.577594 1.82857 0.914594 1.82857C1.08359 1.82857 1.24159 1.78307 1.37809 1.70357L1.37359 1.70607Z" fill="black"/>
<path d="M4.87359 1.70607C5.14959 1.54357 5.33159 1.24857 5.33159 0.910571C5.33159 0.745071 5.28759 0.589571 5.21109 0.45507L5.21359 0.45957C5.05259 0.183571 4.75759 0.0010705 4.42009 0.0010705C3.91459 0.0010705 3.50459 0.41107 3.50459 0.91657C3.50459 1.08457 3.55009 1.24207 3.62909 1.37757L3.62659 1.37307C3.78759 1.64757 4.08109 1.82857 4.41709 1.82857C4.58509 1.82857 4.74259 1.78307 4.87759 1.70407L4.87359 1.70607Z" fill="black"/>
<path d="M1.37359 5.25307C1.64609 5.09157 1.82559 4.79907 1.82559 4.46507C1.82559 3.96057 1.41659 3.55157 0.912094 3.55157C0.407594 3.55157 -0.00140619 3.96057 -0.00140619 4.46507C-0.00140619 4.63257 0.0435938 4.78957 0.122094 4.92407L0.119594 4.91957C0.280094 5.19557 0.574594 5.37807 0.911594 5.37807C1.08159 5.37807 1.24059 5.33157 1.37709 5.25057L1.37359 5.25307Z" fill="black"/>
<path d="M3.96009 3.67307C3.68959 3.83507 3.51109 4.12657 3.51109 4.45957C3.51109 4.96407 3.92009 5.37307 4.42459 5.37307C4.92909 5.37307 5.33809 4.96407 5.33809 4.45957C5.33809 4.29007 5.29209 4.13157 5.21159 3.99557L5.21409 3.99957C5.05259 3.72657 4.76009 3.54607 4.42509 3.54607C4.25409 3.54607 4.09359 3.59307 3.95659 3.67507L3.96009 3.67307Z" fill="black"/>
<path d="M2.05359 3.36607C2.21609 3.51657 2.43409 3.60907 2.67409 3.60907C3.17859 3.60907 3.58759 3.20007 3.58759 2.69557C3.58759 2.19107 3.17859 1.78207 2.67409 1.78207C2.40759 1.78207 2.16759 1.89607 2.00059 2.07807C1.85209 2.24007 1.76059 2.45707 1.76059 2.69507C1.76059 2.95957 1.87309 3.19807 2.05259 3.36457L2.05359 3.36607Z" fill="black"/>
</g>
<defs>
<clipPath id="clip0_6_456">
<rect width="16" height="16" fill="white"/>
</clipPath>
</defs>
</svg>
