<svg width="16" height="16" viewBox="0 0 16 16" fill="none" xmlns="http://www.w3.org/2000/svg">
<g clip-path="url(#clip0_6_337)">
<path d="M14.1025 -0.00021875L12.3925 0.199781C10.698 0.395781 9.2085 1.14978 8.085 2.26978L5.4125 4.94478L3.2925 4.71228L0 7.99978L3.2275 8.40478C4.0625 10.5298 5.495 12.0098 7.59 12.7673L8 15.9998L11.2875 12.7073L11.055 10.5873L13.73 7.91478C14.8505 6.79128 15.604 5.30178 15.797 3.64078L15.8 3.60728L16 1.89728C16.0075 1.83728 16.0115 1.76828 16.0115 1.69828C16.0115 0.753781 15.246 -0.0117188 14.3015 -0.0117188C14.2315 -0.0117188 14.162 -0.00771875 14.094 0.00078125L14.1025 -0.00021875ZM11.0775 6.72478C9.973 6.72478 9.0775 5.82928 9.0775 4.72478C9.0775 3.62028 9.973 2.72478 11.0775 2.72478C12.182 2.72478 13.0775 3.62028 13.0775 4.72478C13.0775 4.72778 13.0775 4.73128 13.0775 4.73478C13.0775 5.83928 12.182 6.73478 11.0775 6.73478V6.72478Z" fill="black"/>
<path d="M5.8975 13.9848C4.129 13.3713 2.761 12.0033 2.1605 10.2768L2.1475 10.2348C2.1475 10.2348 0.0175 11.3998 0.725 15.3973C4.7225 16.1023 5.8975 13.9848 5.8975 13.9848Z" fill="black"/>
</g>
<defs>
<clipPath id="clip0_6_337">
<rect width="16" height="16" fill="white"/>
</clipPath>
</defs>
</svg>
