<svg width="16" height="16" viewBox="0 0 16 16" fill="none" xmlns="http://www.w3.org/2000/svg">
<g clip-path="url(#clip0_6_389)">
<path d="M13.3161 0.535156H2.68463C1.49813 0.535156 0.536133 1.49716 0.536133 2.68366V13.3152C0.536133 14.5017 1.49813 15.4637 2.68463 15.4637H13.3161C14.5026 15.4637 15.4646 14.5017 15.4646 13.3152V2.68366C15.4646 1.49716 14.5026 0.535156 13.3161 0.535156ZM3.85263 13.8057C2.93663 13.8057 2.19413 13.0632 2.19413 12.1472C2.19413 11.2312 2.93663 10.4887 3.85263 10.4887C4.76863 10.4887 5.51113 11.2312 5.51113 12.1472C5.51113 13.0632 4.76863 13.8057 3.85263 13.8057ZM3.85263 5.51066C2.93663 5.51066 2.19413 4.76816 2.19413 3.85216C2.19413 2.93616 2.93663 2.19366 3.85263 2.19366C4.76863 2.19366 5.51113 2.93616 5.51113 3.85216C5.51113 4.76816 4.76863 5.51066 3.85263 5.51066ZM8.00013 9.65816C7.08413 9.65816 6.34163 8.91566 6.34163 7.99966C6.34163 7.08366 7.08413 6.34116 8.00013 6.34116C8.91613 6.34116 9.65863 7.08366 9.65863 7.99966C9.65863 8.91566 8.91613 9.65816 8.00013 9.65816ZM12.1476 13.8057C11.2316 13.8057 10.4891 13.0632 10.4891 12.1472C10.4891 11.2312 11.2316 10.4887 12.1476 10.4887C13.0636 10.4887 13.8061 11.2312 13.8061 12.1472C13.8061 13.0632 13.0636 13.8057 12.1476 13.8057ZM12.1476 5.51066C11.2316 5.51066 10.4891 4.76816 10.4891 3.85216C10.4891 2.93616 11.2316 2.19366 12.1476 2.19366C13.0636 2.19366 13.8061 2.93616 13.8061 3.85216C13.8061 4.76816 13.0636 5.51066 12.1476 5.51066Z" fill="black"/>
</g>
<defs>
<clipPath id="clip0_6_389">
<rect width="16" height="16" fill="white"/>
</clipPath>
</defs>
</svg>
