<svg width="16" height="16" viewBox="0 0 16 16" fill="none" xmlns="http://www.w3.org/2000/svg">
<g clip-path="url(#clip0_6_199)">
<path d="M4.16651 3.66602C4.16651 5.69102 5.80801 7.33252 7.83301 7.33252V-0.000976562C5.80801 -0.000976562 4.16651 1.64102 4.16651 3.66602Z" fill="black"/>
<path d="M8.16651 8.66602V15.9995C10.1915 15.9995 11.833 14.358 11.833 12.333C11.833 10.308 10.1915 8.66602 8.16651 8.66602Z" fill="black"/>
<path d="M12.3335 4.16602C10.3085 4.16602 8.66701 5.80752 8.66701 7.83252H16.0005C16.0005 5.80752 14.3585 4.16602 12.3335 4.16602Z" fill="black"/>
<path d="M3.66651 11.833C5.69151 11.833 7.33301 10.1915 7.33301 8.16652H-0.000488281C-0.000488281 10.1915 1.64151 11.833 3.66651 11.833Z" fill="black"/>
</g>
<defs>
<clipPath id="clip0_6_199">
<rect width="16" height="16" fill="white"/>
</clipPath>
</defs>
</svg>
