<svg width="16" height="16" viewBox="0 0 16 16" fill="none" xmlns="http://www.w3.org/2000/svg">
<path d="M3.00045 8.01703C3.00045 10.2611 3.00045 12.5045 3.00045 14.7485C3.00045 15.3571 3.35217 15.8039 3.95561 15.9539C4.08665 15.9864 4.22802 15.9977 4.36457 15.9977C6.78937 16.0002 9.21349 16.0008 11.6383 15.9989C12.4541 15.9989 12.999 15.5034 12.999 14.7622C13.0003 10.2529 13.0003 5.74489 12.999 1.23621C12.999 0.495704 12.4528 0.00203089 11.6362 0.00140591C9.21142 -0.000469008 6.78731 -0.00046922 4.36251 0.00140528C3.54803 0.0014052 3.00183 0.498203 3.00114 1.23871C2.99907 3.49836 3.00045 5.75738 3.00045 8.01703ZM11.7495 1.97485L11.7495 12.2926L4.36251 12.2926L4.36251 1.97485L11.7495 1.97485ZM7.99557 0.71192C8.57556 0.71192 9.73486 0.71192 9.73486 0.71192L9.73348 1.27121L6.27214 1.27121L6.27352 0.71192C6.27352 0.71192 7.42178 0.71192 7.99557 0.71192ZM8.00109 14.8441C7.54868 14.8441 7.21856 14.5035 7.22476 14.098C7.23097 13.6924 7.55075 13.3681 7.99902 13.3674C8.44729 13.3674 8.74703 13.6918 8.75531 14.098C8.76358 14.5023 8.45281 14.8435 8.00109 14.8441Z" fill="black"/>
</svg>
