<svg width="16" height="16" viewBox="0 0 16 16" fill="none" xmlns="http://www.w3.org/2000/svg">
<g clip-path="url(#clip0_6_223)">
<path d="M13.9 4.79373C12.822 4.79473 11.935 5.61023 11.821 6.65773L11.82 6.66723L10.2 7.10073C9.96798 6.80223 9.66148 6.57273 9.30748 6.43873L9.29348 6.43423V4.66773C10.077 4.35123 10.62 3.59673 10.62 2.71523C10.62 1.55523 9.67998 0.615234 8.51998 0.615234C7.35998 0.615234 6.41998 1.55523 6.41998 2.71523C6.41998 3.59673 6.96298 4.35123 7.73248 4.66273L7.74648 4.66773V6.38123C7.56048 6.45373 7.39998 6.54573 7.25548 6.65773L7.25998 6.65423L4.17998 4.97423C4.18148 4.94723 4.18248 4.91573 4.18248 4.88423C4.18248 4.85273 4.18148 4.82123 4.17998 4.78973V4.79423C4.17998 3.63423 3.23998 2.69423 2.07998 2.69423C0.91998 2.69423 -0.0200195 3.63423 -0.0200195 4.79423C-0.0200195 5.95423 0.91998 6.89423 2.07998 6.89423C2.61548 6.89323 3.10248 6.68823 3.46798 6.35273L3.46648 6.35423L6.45298 8.00073C6.44798 8.05273 6.44548 8.11323 6.44548 8.17423C6.44548 8.23523 6.44798 8.29573 6.45348 8.35523L6.45298 8.34773C6.45398 8.63873 6.51248 8.91573 6.61848 9.16873L6.61298 9.15473L4.27948 11.4212C4.02748 11.3007 3.73198 11.2297 3.41998 11.2277C3.40798 11.2277 3.39348 11.2272 3.37948 11.2272C2.21598 11.2272 1.27298 12.1702 1.27298 13.3337C1.27298 14.4972 2.21598 15.4402 3.37948 15.4402C4.54298 15.4402 5.48598 14.4972 5.48598 13.3337C5.48648 13.3167 5.48698 13.2967 5.48698 13.2772C5.48698 12.9992 5.43048 12.7347 5.32798 12.4942L5.33298 12.5072L7.66648 10.2407C7.91748 10.3587 8.21148 10.4272 8.52198 10.4272C8.52348 10.4272 8.52498 10.4272 8.52698 10.4272C8.72948 10.4257 8.92448 10.3942 9.10798 10.3367L9.09398 10.3407L9.76048 11.3742C9.52748 11.7052 9.38798 12.1167 9.38698 12.5607C9.38698 12.5627 9.38698 12.5652 9.38698 12.5672C9.38698 13.7307 10.33 14.6737 11.4935 14.6737C12.657 14.6737 13.6 13.7307 13.6 12.5672C13.6 11.4037 12.657 10.4607 11.4935 10.4607C11.335 10.4612 11.181 10.4807 11.0335 10.5167L11.047 10.5137L10.3135 9.40023C10.46 9.16373 10.5595 8.88323 10.5925 8.58274L10.5935 8.57373L12.22 8.14023C12.606 8.66774 13.2235 9.00673 13.9195 9.00673C15.0795 9.00673 16.0195 8.06673 16.0195 6.90673C16.0195 5.74673 15.0795 4.80673 13.9195 4.80673C13.9125 4.80673 13.9055 4.80673 13.899 4.80673L13.9 4.79373Z" fill="black"/>
</g>
<defs>
<clipPath id="clip0_6_223">
<rect width="16" height="16" fill="white"/>
</clipPath>
</defs>
</svg>
