<svg width="16" height="16" viewBox="0 0 16 16" fill="none" xmlns="http://www.w3.org/2000/svg">
<g clip-path="url(#clip0_6_276)">
<path d="M0.666667 14H3.33333V6H0.666667V14ZM15.3333 6.66667C15.3333 5.93 14.7367 5.33333 14 5.33333H9.79L10.4267 2.28667C10.44 2.22 10.45 2.15 10.45 2.07667C10.45 1.8 10.3367 1.55 10.1567 1.37L9.44667 0.666667L5.05667 5.05667C4.81667 5.3 4.66667 5.63333 4.66667 6V12.6667C4.66667 13.4033 5.26333 14 6 14H12C12.5533 14 13.0267 13.6633 13.2267 13.1867L15.2367 8.48667C15.2967 8.33333 15.3333 8.17 15.3333 8V6.72333L15.3267 6.71667L15.3333 6.66667Z" fill="black"/>
</g>
<defs>
<clipPath id="clip0_6_276">
<rect width="16" height="16" fill="white"/>
</clipPath>
</defs>
</svg>
