<svg width="16" height="16" viewBox="0 0 16 16" fill="none" xmlns="http://www.w3.org/2000/svg">
<g clip-path="url(#clip0_6_1830)">
<path d="M4.11682 3.99213C6.54182 1.58401 10.1087 0.250256 14.2587 0.125256C11.9256 -0.457869 6.75057 -1.11662 2.99182 3.00026C-0.591305 6.92526 -0.325055 11.6421 0.11682 14.0003C0.399945 9.73338 1.72495 6.35838 4.1087 3.99213H4.11682Z" fill="black"/>
<path d="M14.5418 0.933381C10.4837 1.00838 7.0337 2.27526 4.7087 4.58338C2.39182 6.88338 1.14182 10.2165 0.933695 14.4915C12.5256 12.9246 14.3087 2.90838 14.5418 0.933381Z" fill="black"/>
<path d="M2.09182 16.0003C4.6087 16.5921 9.64994 16.9503 13.8337 12.1671C16.6918 8.90026 16.4668 4.78401 16.0087 2.41713C15.3918 5.54213 12.7256 14.109 2.09182 16.0003Z" fill="black"/>
</g>
<defs>
<clipPath id="clip0_6_1830">
<rect width="16" height="16" fill="white"/>
</clipPath>
</defs>
</svg>
