<svg width="16" height="16" viewBox="0 0 16 16" fill="none" xmlns="http://www.w3.org/2000/svg">
<path d="M7.1352 13.5486C6.18794 13.07 5.7879 11.8644 6.23889 10.8668C6.68987 9.8692 7.82772 9.43865 8.76884 9.91671L5.69874 8.36054C4.75148 7.88199 4.35145 6.67636 4.80243 5.67875C5.25389 4.67464 6.39126 4.2506 7.33239 4.72865L13.7773 7.9965L11.4955 1.12426C11.203 0.248168 10.294 -0.209881 9.46797 0.0936513L2.06302 2.86295C1.23653 3.17298 0.798279 4.13658 1.09076 5.01218L4.37692 14.8757C4.6694 15.7518 5.57845 16.2099 6.40447 15.9063L9.50004 14.7477L7.1352 13.5486Z" fill="black"/>
<path d="M14 11.5339C14 12.7285 13.0867 13.6966 11.9597 13.6966C10.8327 13.6966 9.91943 12.7285 9.91943 11.5339C9.91943 10.3393 10.8327 9.37115 11.9597 9.37115C13.0867 9.37115 14 10.3393 14 11.5339Z" fill="black"/>
</svg>
