<svg width="16" height="16" viewBox="0 0 16 16" fill="none" xmlns="http://www.w3.org/2000/svg">
<path d="M11.3999 5.1333C10.5334 5.1333 9.73341 5.3998 9.06641 5.7998C8.93291 5.9333 8.79991 5.9998 8.66641 6.1333C8.59991 6.1998 8.53291 6.1998 8.46641 6.2668C8.26641 6.4003 8.13291 6.60031 7.99991 6.7333C7.93341 6.79981 7.86641 6.9333 7.73341 6.9998C7.66691 7.0663 7.59991 7.1998 7.53341 7.2663C7.46691 7.39981 7.33341 7.5328 7.26691 7.7328C7.26691 7.7993 7.20041 7.8663 7.20041 7.93281C7.13391 8.1328 7.06691 8.3993 7.00041 8.6663C7.00041 8.7328 7.00041 8.7998 6.93391 8.8663C6.86741 9.1328 6.86741 9.3998 6.86741 9.6663C6.86741 9.7998 6.86741 9.9998 6.93391 10.1328C7.20041 12.3993 9.06741 14.1993 11.4004 14.1993C13.8669 14.1993 15.9339 12.1993 15.9339 9.6658C15.9339 7.1993 13.9339 5.1323 11.4004 5.1323L11.3999 5.1333Z" fill="black"/>
<path d="M8.39991 3.9333C7.59991 2.6668 6.19991 1.7998 4.59991 1.7998C2.13341 1.7998 0.0664062 3.7998 0.0664062 6.3333C0.0664062 8.8668 2.06641 10.8668 4.59991 10.8668C4.73341 10.8668 4.86641 10.8668 4.99991 10.8003C4.93341 10.4668 4.86641 10.0668 4.86641 9.6668C4.86641 7.2003 6.33291 5.0003 8.39991 3.9333Z" fill="black"/>
</svg>
