<svg width="16" height="16" viewBox="0 0 16 16" fill="none" xmlns="http://www.w3.org/2000/svg">
<g clip-path="url(#clip0_6_494)">
<path d="M2.21362 4.15252L4.44012 5.64602C4.41462 5.75152 4.39962 5.87252 4.39962 5.99702C4.39962 6.56552 4.70762 7.06202 5.16612 7.32902L5.17362 7.33302L8.97362 9.47952C9.12362 9.56502 9.29862 9.62802 9.48462 9.65852L9.49362 9.65952C9.56262 9.66902 9.64262 9.67452 9.72362 9.67452C9.80462 9.67452 9.88462 9.66902 9.96262 9.65852L9.95362 9.65952L10.1401 10.406C10.1866 10.584 10.2856 10.7345 10.4186 10.845L10.4201 10.846L13.0866 13.1325L14.1466 11.846L11.6931 9.73252L11.2266 7.85252C11.1356 7.40652 10.8641 7.03702 10.4936 6.81652L10.4866 6.81252L6.66662 4.66602C6.44962 4.54052 6.18912 4.46602 5.91162 4.46602C5.82512 4.46602 5.74012 4.47302 5.65762 4.48702L5.66662 4.48602L3.33312 2.91252L2.14662 -0.000976562H0.340117L1.90662 3.77902C1.97012 3.93452 2.07612 4.06202 2.21012 4.15052L2.21362 4.15252Z" fill="black"/>
<path d="M13.4466 13.499C13.0671 13.8105 12.5771 13.9995 12.0426 13.9995C12.0276 13.9995 12.0126 13.9995 11.9976 13.999H11.9996C11.9841 13.9995 11.9661 13.9995 11.9476 13.9995C11.4161 13.9995 10.9286 13.8105 10.5491 13.496L10.5526 13.499C9.86962 12.9785 9.00412 12.665 8.06512 12.665C8.04212 12.665 8.01862 12.665 7.99562 12.6655H7.99912C7.97862 12.665 7.95512 12.665 7.93112 12.665C6.99312 12.665 6.12862 12.9785 5.43612 13.5065L5.44612 13.499C5.07012 13.8105 4.58262 13.9995 4.05112 13.9995C4.03262 13.9995 4.01462 13.9995 3.99662 13.999H3.99912C3.98512 13.9995 3.96812 13.9995 3.95162 13.9995C3.42112 13.9995 2.93462 13.8105 2.55562 13.496L2.55912 13.499C1.87662 12.9785 1.01162 12.665 0.0736172 12.665C0.0471172 12.665 0.0211172 12.665 -0.00488281 12.6655H-0.000882813V14.6655C0.0196172 14.665 0.0431172 14.665 0.0671172 14.665C1.00512 14.665 1.86962 14.9785 2.56212 15.5065L2.55212 15.499C2.92712 15.8105 3.41362 15.9995 3.94462 15.9995C3.96362 15.9995 3.98262 15.999 4.00162 15.999H3.99862C4.01412 15.9995 4.03212 15.9995 4.05062 15.9995C4.58212 15.9995 5.06962 15.8105 5.44912 15.496L5.44562 15.499C6.12812 14.9785 6.99262 14.665 7.93062 14.665C7.95462 14.665 7.97862 14.665 8.00262 14.6655H7.99912C8.02062 14.665 8.04612 14.665 8.07162 14.665C9.01012 14.665 9.87562 14.9785 10.5691 15.5065L10.5591 15.499C10.9351 15.8105 11.4221 15.9995 11.9536 15.9995C11.9696 15.9995 11.9856 15.9995 12.0016 15.999H11.9991C12.0116 15.9995 12.0266 15.9995 12.0416 15.9995C12.5761 15.9995 13.0666 15.8105 13.4496 15.496L13.4456 15.499C14.1256 14.9785 14.9886 14.665 15.9241 14.665C15.9506 14.665 15.9766 14.665 16.0026 14.6655H15.9986V12.6655C15.9766 12.665 15.9501 12.665 15.9241 12.665C14.9881 12.665 14.1256 12.9785 13.4356 13.5065L13.4466 13.499Z" fill="black"/>
<path d="M15.0936 7.61902C14.8246 7.15952 14.3336 6.85602 13.7716 6.85602C12.9286 6.85602 12.2451 7.53952 12.2451 8.38252C12.2451 9.22552 12.9286 9.90902 13.7716 9.90902C14.0521 9.90902 14.3151 9.83352 14.5406 9.70152L14.5336 9.70552C14.9926 9.43502 15.2961 8.94302 15.2961 8.38002C15.2961 8.10002 15.2211 7.83752 15.0896 7.61152L15.0936 7.61902Z" fill="black"/>
</g>
<defs>
<clipPath id="clip0_6_494">
<rect width="16" height="16" fill="white"/>
</clipPath>
</defs>
</svg>
