<svg width="16" height="16" viewBox="0 0 16 16" fill="none" xmlns="http://www.w3.org/2000/svg">
<path d="M14.37 2.36545C12.715 1.03545 10.2925 1.25045 8.78752 2.75045L8.30002 3.25045C8.22352 3.32845 8.11752 3.37645 8.00002 3.37645C7.88252 3.37645 7.77652 3.32845 7.70002 3.25045L7.21252 2.75045C5.71252 1.25045 3.28502 1.02795 1.63002 2.35795C0.677021 3.12195 0.0720215 4.28645 0.0720215 5.59195C0.0720215 6.73495 0.535521 7.76945 1.28502 8.51795L7.56252 14.7505C7.67502 14.8615 7.82952 14.93 8.00002 14.93C8.17052 14.93 8.32502 14.8615 8.43752 14.7505L14.715 8.51795C15.462 7.76995 15.924 6.73695 15.924 5.59595C15.924 4.29245 15.3205 3.12945 14.378 2.37145L14.37 2.36545Z" fill="black"/>
<path d="M13.25 3.25045C13.25 3.66445 12.6905 4.00045 12 4.00045C11.3095 4.00045 10.75 3.66445 10.75 3.25045C10.75 2.83645 11.3095 2.50045 12 2.50045C12.6905 2.50045 13.25 2.83645 13.25 3.25045Z" fill="black"/>
</svg>
