<svg width="16" height="16" viewBox="0 0 16 16" fill="none" xmlns="http://www.w3.org/2000/svg">
<g clip-path="url(#clip0_6_588)">
<path d="M5.44002 4.55316C6.14702 4.38016 6.66302 3.75216 6.66302 3.00366C6.66302 2.12366 5.94952 1.41016 5.06952 1.41016C4.18952 1.41016 3.47602 2.12366 3.47602 3.00366C3.47602 3.13466 3.49202 3.26216 3.52152 3.38416L3.51902 3.37316C3.69202 4.08016 4.32002 4.59666 5.06902 4.59666C5.20052 4.59666 5.32802 4.58066 5.45002 4.55066L5.44002 4.55316Z" fill="black"/>
<path d="M13.88 3.53316L14.5465 2.58666H12.9265C9.25302 2.58666 8.00002 5.95316 6.66652 8.24016C7.25252 8.48566 7.93352 8.62866 8.64802 8.62866C8.69702 8.62866 8.74552 8.62816 8.79402 8.62666H8.78702H9.80052V10.8267H8.90702V9.49316H8.82052C8.71952 9.50066 8.60202 9.50466 8.48352 9.50466C7.26252 9.50466 6.14602 9.05866 5.28752 8.32116L5.29402 8.32666C5.32352 8.19266 5.34052 8.03916 5.34052 7.88116C5.34052 6.69166 4.37652 5.72766 3.18702 5.72766C2.25902 5.72766 1.46802 6.31516 1.16502 7.13816L1.16002 7.15316L0.113523 10.1932C0.0410234 10.4002 -0.000976562 10.6387 -0.000976562 10.8872C-0.000976562 11.8252 0.596524 12.6232 1.43202 12.9217L1.44702 12.9262C1.65452 12.9957 1.89352 13.0362 2.14252 13.0362C2.21702 13.0362 2.29052 13.0327 2.36302 13.0257L2.35402 13.0262L4.19402 13.8127C4.64102 14.0087 4.94752 14.4472 4.94752 14.9577C4.94752 14.9577 4.94752 14.9587 4.94752 14.9597V15.9997H12.6675C13.2155 15.1397 13.5405 14.0917 13.5405 12.9682C13.5405 11.9357 13.266 10.9672 12.786 10.1322L12.8005 10.1597C12.801 10.1527 12.8015 10.1447 12.8015 10.1362C12.8015 10.1277 12.801 10.1197 12.8005 10.1117C12.3785 9.34766 12.13 8.43766 12.13 7.46866C12.13 7.39516 12.1315 7.32166 12.1345 7.24866L12.134 7.25916C12.134 7.25916 12.834 9.25916 14.3805 8.59266L15.187 9.86616L16.0005 8.61266L13.88 3.53316ZM7.46652 15.9997H6.66652V14.9597C6.66152 13.7697 5.94402 12.7482 4.91852 12.3002L4.90002 12.2927L4.07352 11.9392C4.13552 11.8377 4.18952 11.7212 4.23002 11.5977L4.23352 11.5857L4.73352 9.99916C4.92302 10.1337 5.14102 10.2687 5.36702 10.3897L5.40002 10.4057C5.26402 10.6782 5.12002 11.0192 4.99502 11.3697L4.97352 11.4392L5.16702 11.5192C6.51452 12.1082 7.43902 13.4287 7.44052 14.9657L7.46652 15.9997Z" fill="black"/>
</g>
<defs>
<clipPath id="clip0_6_588">
<rect width="16" height="16" fill="white"/>
</clipPath>
</defs>
</svg>
