<svg width="16" height="16" viewBox="0 0 16 16" fill="none" xmlns="http://www.w3.org/2000/svg">
<path d="M14.03 3.62462H11.925C12.129 3.30412 12.25 2.91412 12.25 2.49512C12.25 1.32162 11.2985 0.370117 10.125 0.370117C8.9515 0.370117 8 1.32162 8 2.49512C8 1.32162 7.0485 0.370117 5.875 0.370117C4.7015 0.370117 3.75 1.32162 3.75 2.49512C3.75 2.91362 3.871 3.30412 4.08 3.63312L4.075 3.62462H1.97C1.5725 3.62462 1.25 3.94712 1.25 4.34462V5.90462C1.25 6.30212 1.5725 6.62462 1.97 6.62462H14.03C14.4275 6.62462 14.75 6.30212 14.75 5.90462V4.34462C14.75 3.94712 14.4275 3.62462 14.03 3.62462ZM9.25 2.49962C9.25 2.01662 9.642 1.62462 10.125 1.62462C10.608 1.62462 11 2.01662 11 2.49962C11 2.98262 10.608 3.37462 10.125 3.37462H9.25V2.49962ZM5.875 1.62462C6.358 1.62462 6.75 2.01662 6.75 2.49962V3.37462H5.875C5.392 3.37462 5 2.98262 5 2.49962C5 2.01662 5.392 1.62462 5.875 1.62462Z" fill="black"/>
<path d="M2.25 14.7496C2.25 15.2371 2.645 15.6321 3.1325 15.6321H6.75V8.13212H2.25V14.7496Z" fill="black"/>
<path d="M9.25 15.6246H12.8675C13.3525 15.6246 13.7455 15.2336 13.75 14.7501V8.12462H9.25V15.6246Z" fill="black"/>
</svg>
