<svg width="16" height="16" viewBox="0 0 16 16" fill="none" xmlns="http://www.w3.org/2000/svg">
<g clip-path="url(#clip0_6_400)">
<path d="M9.4665 7.84656C8.882 8.94956 8.537 10.2576 8.533 11.6456V12.4801H5.3865C5.3935 11.1036 5.7 9.80006 6.2435 8.62956L6.2195 8.68656C6.834 7.34006 7.586 6.18056 8.4815 5.14856L8.4665 5.16656H3.8V2.72656H12V4.02006C11.075 5.13806 10.2345 6.39206 9.525 7.72606L9.4665 7.84656Z" fill="black"/>
<path d="M13.8665 10.5536C13.3845 11.1601 13.034 11.8931 12.872 12.6941L12.8665 12.7266L12.7665 13.2266L10 12.7201C10.301 11.2126 11.1 9.92806 12.2155 9.01556L12.227 9.00656L10.227 8.61306L11.067 6.83956L16.0005 7.81306L15.847 8.58656C15.117 9.18456 14.4685 9.82906 13.886 10.5301L13.8665 10.5536Z" fill="black"/>
<path d="M4.1135 9.71356C4.0215 10.0731 3.9685 10.4856 3.9685 10.9101C3.9685 11.3346 4.0215 11.7476 4.121 12.1416L4.1135 12.1071L4.2335 12.6071L1.52 13.2736C1.4045 12.8216 1.338 12.3026 1.338 11.7681C1.338 10.7426 1.5825 9.77356 2.0165 8.91756L2 8.95356L0 9.42706V7.48056L4.8935 6.30706L5.08 7.07356C4.6995 7.82606 4.369 8.70456 4.1335 9.62156L4.1135 9.71356Z" fill="black"/>
</g>
<defs>
<clipPath id="clip0_6_400">
<rect width="16" height="16" fill="white"/>
</clipPath>
</defs>
</svg>
