<svg width="16" height="16" viewBox="0 0 16 16" fill="none" xmlns="http://www.w3.org/2000/svg">
<path d="M6.67504 11.7196V5.02465C6.67504 4.54965 6.79254 4.43215 7.27254 4.43215C7.82004 4.43215 8.37004 4.43215 8.91754 4.43215C8.91954 4.43215 8.92204 4.43215 8.92454 4.43215C9.34354 4.43215 9.73854 4.53465 10.086 4.71615L10.072 4.70965C10.52 4.94365 10.8475 5.35765 10.96 5.85315L10.962 5.86465C11.003 6.03015 11.026 6.22065 11.026 6.41615C11.026 6.71515 10.9715 7.00165 10.8715 7.26615L10.877 7.24965C10.751 7.60215 10.4995 7.88415 10.1775 8.04615L10.1695 8.04965L10.3445 8.14465C10.6705 8.34515 10.908 8.66415 10.9975 9.03965L10.9995 9.04965C11.0505 9.23515 11.0795 9.44865 11.0795 9.66865C11.0795 9.92965 11.0385 10.1811 10.962 10.4171L10.967 10.4001C10.717 11.1501 10.162 11.5576 9.39454 11.6901C9.26304 11.7126 9.11154 11.7251 8.95704 11.7251C8.95204 11.7251 8.94654 11.7251 8.94154 11.7251H8.94254C8.23254 11.7251 7.52504 11.7251 6.81504 11.7251L6.67504 11.7196ZM8.10504 10.4696C8.35504 10.4696 8.57504 10.4696 8.80504 10.4696C8.80854 10.4696 8.81304 10.4696 8.81704 10.4696C9.16954 10.4696 9.46654 10.2301 9.55354 9.90465L9.55454 9.89915C9.59104 9.79965 9.61204 9.68465 9.61204 9.56465C9.61204 9.25515 9.47154 8.97865 9.25104 8.79565L9.24954 8.79415C9.22204 8.77465 9.19104 8.75715 9.15804 8.74265L9.15454 8.74165C8.81204 8.60415 8.45704 8.67915 8.10454 8.65665L8.10504 10.4696ZM8.10504 7.43465C8.35504 7.43465 8.60504 7.43465 8.85504 7.43465C9.21804 7.42615 9.51454 7.15265 9.55954 6.80065L9.56004 6.79715C9.57254 6.72215 9.57954 6.63565 9.57954 6.54715C9.57954 6.45865 9.57254 6.37215 9.55854 6.28815L9.55954 6.29715C9.52804 6.02515 9.34154 5.80365 9.09204 5.72115L9.08704 5.71965C8.76704 5.60965 8.43704 5.67715 8.10954 5.65715L8.10504 7.43465Z" fill="black"/>
<path d="M14.5 9.27465H13.1575V11.7221H11.7025C11.7025 11.6821 11.7025 11.6471 11.7025 11.6096C11.7025 9.82965 11.7025 8.04965 11.7025 6.26965C11.7015 6.24565 11.701 6.21765 11.701 6.18965C11.701 5.57215 11.994 5.02265 12.448 4.67315L12.4525 4.66965C12.806 4.41665 13.2475 4.26465 13.7245 4.26465C13.8215 4.26465 13.9175 4.27115 14.0115 4.28315L14.0005 4.28215C14.2735 4.29765 14.5295 4.35215 14.7685 4.44065L14.7505 4.43465C15.4855 4.71215 15.833 5.29465 15.933 6.04465C15.9425 6.11565 15.948 6.19765 15.948 6.28115C15.948 6.29015 15.948 6.29965 15.948 6.30865V6.30715V11.7171H14.5005L14.5 9.27465ZM14.4725 7.90715C14.4725 7.32715 14.4725 6.76215 14.4725 6.19965C14.469 6.14565 14.4575 6.09565 14.439 6.04865L14.44 6.05215C14.357 5.78365 14.111 5.59165 13.82 5.59165C13.5375 5.59165 13.297 5.77265 13.2085 6.02515L13.207 6.02965C13.1735 6.13015 13.1525 6.24565 13.1495 6.36565V6.36715C13.1495 6.84465 13.1495 7.32215 13.1495 7.79965C13.1495 7.83465 13.1495 7.86965 13.1495 7.90715H14.4725Z" fill="black"/>
<path d="M1.50004 5.83715V7.36965H3.56254V8.72965H1.50004V11.7296H0.0400391V5.02465C0.0400391 4.98465 0.0400391 4.94215 0.0400391 4.90215C0.0400391 4.57715 0.185039 4.43465 0.510039 4.43465C1.64754 4.43465 2.78504 4.43465 3.92254 4.43465H3.98254V5.83215L1.50004 5.83715Z" fill="black"/>
<path d="M5.93254 11.7221H4.48254V4.91215C4.49504 4.58215 4.63004 4.44215 4.96004 4.43465C5.29004 4.42715 5.60254 4.43465 5.93254 4.43465V11.7221Z" fill="black"/>
</svg>
