<svg width="16" height="16" viewBox="0 0 16 16" fill="none" xmlns="http://www.w3.org/2000/svg">
<g clip-path="url(#clip0_6_564)">
<path d="M7.54021 13.8263L4.00021 15.5463C3.88421 15.6083 3.74621 15.6443 3.59971 15.6443C3.12121 15.6443 2.73321 15.2563 2.73321 14.7778C2.73321 14.7383 2.73571 14.6998 2.74071 14.6618L2.74021 14.6663L3.28671 10.6663C3.29271 10.6283 3.29621 10.5843 3.29621 10.5398C3.29621 10.3118 3.20621 10.1053 3.05971 9.9528L0.253707 6.9998C0.104207 6.8443 0.012207 6.6328 0.012207 6.3998C0.012207 5.9748 0.318207 5.6213 0.721707 5.5473L0.727207 5.5463L4.72721 4.8263C4.99221 4.7798 5.21121 4.6158 5.33171 4.3908L5.33371 4.3863L7.25371 0.819805C7.40121 0.545805 7.68621 0.362305 8.01371 0.362305C8.34121 0.362305 8.62621 0.545805 8.77121 0.815305L8.77371 0.819805L10.6672 4.3863C10.7897 4.6158 11.0087 4.7798 11.2687 4.8258L11.2737 4.8263L15.2737 5.5463C15.6827 5.6213 15.9882 5.9748 15.9882 6.3993C15.9882 6.6323 15.8962 6.8438 15.7467 6.9998L12.9407 9.9258C12.7922 10.0783 12.7007 10.2868 12.7007 10.5163C12.7007 10.5693 12.7057 10.6208 12.7147 10.6708L12.7137 10.6658L13.2602 14.6658C13.2647 14.6993 13.2672 14.7378 13.2672 14.7773C13.2672 15.2558 12.8792 15.6438 12.4007 15.6438C12.2542 15.6438 12.1162 15.6073 11.9957 15.5433L8.44021 13.8258C8.30821 13.7623 8.15371 13.7253 7.99021 13.7253C7.82671 13.7253 7.67221 13.7623 7.53371 13.8283L7.54021 13.8253V13.8263Z" fill="black"/>
</g>
<defs>
<clipPath id="clip0_6_564">
<rect width="16" height="16" fill="white"/>
</clipPath>
</defs>
</svg>
