<svg width="16" height="16" viewBox="0 0 16 16" fill="none" xmlns="http://www.w3.org/2000/svg">
<path d="M14 11.9375L13.9375 11.92C13.847 11.8925 13.743 11.877 13.635 11.877C13.527 11.877 13.423 11.893 13.325 11.922L13.3325 11.92L10.9575 12.5975C10.908 13.197 10.4105 13.6655 9.80251 13.6675H7.37501C7.23701 13.6675 7.12501 13.5555 7.12501 13.4175C7.12501 13.2795 7.23701 13.1675 7.37501 13.1675H9.75001C9.75401 13.1675 9.75901 13.1675 9.76401 13.1675C10.0985 13.1675 10.3775 12.9315 10.444 12.617L10.445 12.6125C10.451 12.5785 10.4545 12.54 10.4545 12.5C10.4545 12.1315 10.156 11.833 9.78751 11.8325H7.25001L6.62251 11.345C6.21501 11.0255 5.69501 10.8325 5.13001 10.8325C5.12751 10.8325 5.12501 10.8325 5.12251 10.8325H3.49801C3.12551 10.8325 2.77301 10.9175 2.45851 11.0685L2.47301 11.0625L0.458008 12V16L2.93551 14.4525C3.00301 14.409 3.08601 14.3835 3.17451 14.3835C3.23151 14.3835 3.28601 14.394 3.33601 14.4135L3.33301 14.4125L7.06551 15.85C7.30601 15.945 7.58451 16 7.87601 16H8.56301C8.57001 16 8.57851 16 8.58701 16C8.96501 16 9.32201 15.9075 9.63551 15.744L9.62301 15.75L14.793 13V12.9975C14.793 12.4985 14.4625 12.077 14.0085 11.9395L14 11.9375Z" fill="black"/>
<path d="M9.29251 0H9.29001C6.34351 0 3.95501 2.3885 3.95501 5.335C3.95501 8.2815 6.34351 10.67 9.29001 10.67C12.2365 10.67 14.625 8.2815 14.625 5.335V5.3325C14.625 2.3875 12.2375 0 9.29251 0ZM9.70751 7.6075V8.2125H8.95751V7.6075C8.33651 7.57 7.78151 7.3155 7.36151 6.919L7.36251 6.92L7.96751 6.0625C8.32951 6.424 8.82901 6.6475 9.38101 6.6475H9.38551C9.77801 6.6475 10.0155 6.495 10.0155 6.2825C10.0155 5.6775 7.51551 6.1625 7.51551 4.4525C7.51551 3.78 8.01551 3.175 8.97051 3.0625V2.4375H9.72051V3.07C10.2505 3.136 10.7215 3.3485 11.1025 3.666L11.098 3.6625L10.4705 4.48C10.1195 4.1955 9.66801 4.022 9.17601 4.02C8.84101 4.02 8.69551 4.1525 8.69551 4.34C8.69551 4.905 11.1955 4.4925 11.1955 6.1425C11.1905 6.94 10.665 7.5 9.70751 7.6075Z" fill="black"/>
</svg>
