<svg width="16" height="16" viewBox="0 0 16 16" fill="none" xmlns="http://www.w3.org/2000/svg">
<g clip-path="url(#clip0_6_268)">
<path d="M4.8925 1.99968L0.2925 7.22468C0.111 7.43018 0 7.70218 0 7.99968C0 8.29718 0.111 8.56918 0.294 8.77568L0.293 8.77418L4.893 13.9992C5.11 14.2432 5.425 14.3962 5.7755 14.3967H14.828C15.4745 14.3967 15.999 13.8732 16.0005 13.2267V2.77168C16.0005 2.77068 16.0005 2.77018 16.0005 2.76918C16.0005 2.12168 15.4755 1.59668 14.828 1.59668H5.7755C5.424 1.59868 5.1095 1.75318 4.894 1.99768L4.8925 1.99968ZM12.8675 9.82468L11.9625 10.7247L10.1425 8.90468L8.3225 10.7247L7.4175 9.81968L9.25 7.99968L7.43 6.17968L8.335 5.27468L10.155 7.09468L11.975 5.27468L12.88 6.17968L11.0475 7.99968L12.8675 9.82468Z" fill="black"/>
</g>
<defs>
<clipPath id="clip0_6_268">
<rect width="16" height="16" fill="white"/>
</clipPath>
</defs>
</svg>
