<svg width="16" height="16" viewBox="0 0 16 16" fill="none" xmlns="http://www.w3.org/2000/svg">
<path d="M9.06008 7C9.28308 7.1645 9.56358 7.2635 9.86708 7.2635C9.93508 7.2635 10.0021 7.2585 10.0671 7.249L10.0596 7.25C10.1181 7.2365 10.1856 7.229 10.2546 7.229C10.6021 7.229 10.9041 7.424 11.0576 7.71L11.0601 7.715C11.1156 7.7935 11.1976 7.851 11.2921 7.8745L11.2951 7.875C12.1151 8.0375 12.2651 7.965 12.7301 7.2675C12.8226 7.107 12.8771 6.915 12.8771 6.71C12.8771 6.608 12.8636 6.509 12.8381 6.4145L12.8401 6.4225C12.7606 5.862 12.6206 5.3565 12.4246 4.88L12.4401 4.9225C11.9011 3.718 11.2351 2.6805 10.4391 1.759L10.4526 1.775C10.4076 1.7225 10.3676 1.665 10.3151 1.5925C10.7301 1.3425 11.1926 1.2175 11.5151 0.8425C11.3426 0.7875 11.1371 0.7415 10.9256 0.7145L10.9076 0.7125C10.2926 0.64 9.67508 0.57 9.05758 0.5075C8.98158 0.5025 8.92208 0.4395 8.92208 0.363C8.92208 0.3485 8.92408 0.335 8.92808 0.3215L8.92758 0.3225C8.95008 0.23 8.96508 0.1275 9.00008 0H8.83258C7.85408 0.023 6.98508 0.475 6.40458 1.1745L6.40008 1.18L6.38758 1.195C5.45208 2.304 4.59658 3.542 3.86558 4.859L3.80508 4.9775C3.38758 5.776 3.14258 6.722 3.14258 7.725C3.14258 7.741 3.14258 7.7565 3.14258 7.7725V7.77C3.15758 9.8725 3.76508 11.6825 4.17508 13.735C4.20508 13.8875 4.26508 13.925 4.41008 13.925C7.00008 13.925 9.09008 13.925 11.6801 13.925C11.8676 13.925 11.9151 13.85 11.9301 13.675L12.5826 10.655C12.5856 10.64 12.5876 10.623 12.5876 10.605C12.5876 10.488 12.5076 10.39 12.3991 10.3625L12.3976 10.362C12.0451 10.2145 11.7501 10.064 11.4681 9.894L11.5001 9.912C10.2756 9.0915 9.26358 8.0535 8.49758 6.844L8.47258 6.802C8.45708 6.7735 8.44358 6.7405 8.43358 6.7055L8.43258 6.702L8.46258 6.662C8.69608 6.7745 8.89158 6.887 9.07908 7.011L9.06008 7Z" fill="black"/>
<path d="M12.8426 16H3.37258C3.38358 15.943 3.39658 15.8945 3.41258 15.847L3.41008 15.855C3.57258 15.4425 3.74008 15.0325 3.89508 14.605C3.91908 14.5135 4.00108 14.4475 4.09858 14.4475C4.10958 14.4475 4.12058 14.4485 4.13158 14.45C6.73908 14.45 9.34808 14.45 11.9556 14.465C12.0281 14.465 12.1431 14.5 12.1681 14.555C12.3956 15.0275 12.6076 15.5 12.8426 16Z" fill="black"/>
</svg>
