<svg width="16" height="16" viewBox="0 0 16 16" fill="none" xmlns="http://www.w3.org/2000/svg">
<g clip-path="url(#clip0_15_387)">
<path d="M7.99595 0C3.58439 0 0 3.5925 0 8.00406C0 12.4156 3.58439 16 7.99595 16C12.4075 16 16 12.4156 16 8.00406C16 3.5925 12.4075 0 7.99595 0ZM6.89306 10.9397C4.55753 10.9397 2.6518 9.04207 2.6518 6.69843C2.6518 4.35479 4.55753 2.45717 6.89306 2.45717C9.22859 2.45717 11.1424 4.35479 11.1424 6.69843C11.1424 9.04207 9.2367 10.9397 6.89306 10.9397Z" fill="black"/>
<path d="M7.84998 4.30613C6.66599 3.83578 5.70096 4.03041 5.40902 4.77648C5.19818 5.3036 5.32793 5.75773 5.82261 6.21186C5.10897 6.11455 4.64673 6.34161 4.42778 6.89306C4.11962 7.67157 4.73594 8.47441 6.03345 8.9853C7.33097 9.4962 8.34465 9.29346 8.66903 8.4663C8.91232 7.86619 8.75824 7.37152 8.14192 6.85251C8.75013 6.90928 9.16371 6.69843 9.34212 6.23619C9.62595 5.53066 9.04207 4.76837 7.84998 4.30613ZM7.53371 7.97973C7.38773 8.35276 6.92549 8.44197 6.34972 8.2149C5.75773 7.97973 5.48201 7.59047 5.6442 7.19311C5.77395 6.85251 6.04156 6.70654 6.51191 6.71465L6.90928 6.98226C7.48505 7.3553 7.66346 7.64724 7.53371 7.97973ZM8.19057 5.93614C8.07704 6.21997 7.85808 6.35783 7.46883 6.37405L7.1039 6.13888C6.57679 5.79017 6.40649 5.52255 6.52002 5.2225C6.64977 4.89002 7.03903 4.82514 7.56614 5.02788C8.10137 5.23872 8.32843 5.57121 8.19057 5.93614Z" fill="black"/>
</g>
<defs>
<clipPath id="clip0_15_387">
<rect width="16" height="16" fill="white"/>
</clipPath>
</defs>
</svg>
