<svg width="16" height="16" viewBox="0 0 16 16" fill="none" xmlns="http://www.w3.org/2000/svg">
<g clip-path="url(#clip0_6_322)">
<path d="M8.625 13.7125C10.051 13.5285 11.2745 12.7825 12.0855 11.708L12.095 11.695L11.05 11C10.3365 11.912 9.236 12.4925 8 12.4925C6.764 12.4925 5.6635 11.912 4.9565 11.0085L4.95 11L3.905 11.6875C4.724 12.778 5.9475 13.5265 7.349 13.7095L7.375 13.7125V14.75H2V16H14.25V14.75H8.625V13.7125Z" fill="black"/>
<path d="M11.75 3.74998C11.7495 1.67948 10.071 0.000976562 8 0.000976562C6.7245 0.000976562 5.598 0.637477 4.9205 1.61048L4.9125 1.62298L11.75 6.00048V3.74998Z" fill="black"/>
<path d="M0.75 0.532477L0 1.71998L4.25 4.44248V7.49998C4.2595 9.56398 5.935 11.2335 8 11.2335C9.5095 11.2335 10.811 10.3415 11.4055 9.05598L11.415 9.03298L15.25 11.483L16 10.2955L0.75 0.532477Z" fill="black"/>
</g>
<defs>
<clipPath id="clip0_6_322">
<rect width="16" height="16" fill="white"/>
</clipPath>
</defs>
</svg>
