<svg width="16" height="16" viewBox="0 0 16 16" fill="none" xmlns="http://www.w3.org/2000/svg">
<g clip-path="url(#clip0_6_471)">
<path d="M5.71244 4.48285V4.51785C5.71394 4.56985 5.72694 4.61885 5.74844 4.66235L5.74744 4.66035C5.87244 4.79785 6.67244 5.00285 7.99744 5.00285C9.32244 5.00285 10.1249 4.79785 10.2474 4.66035C10.2679 4.61885 10.2809 4.56985 10.2824 4.51835V4.48285C10.2819 4.32285 10.1784 4.18735 10.0349 4.13885L10.0324 4.13785L10.7499 2.25035C10.7499 1.93035 9.62244 1.75035 8.38994 1.72535L8.26244 1.25035H8.67494C8.81294 1.25035 8.92494 1.13835 8.92494 1.00035C8.92494 0.862352 8.81294 0.750352 8.67494 0.750352H8.32744L8.45744 0.250352C8.45744 -0.0821484 7.54244 -0.0821484 7.54244 0.250352L7.67244 0.750352H7.32494C7.18694 0.750352 7.07494 0.862352 7.07494 1.00035C7.07494 1.13835 7.18694 1.25035 7.32494 1.25035H7.74994L7.62744 1.72535C6.38244 1.75035 5.24994 1.93035 5.24994 2.25035L5.95744 4.13785C5.81344 4.18885 5.71244 4.32435 5.71244 4.48285Z" fill="black"/>
<path d="M7.99994 5.67035C7.96394 5.67085 7.92094 5.67135 7.87794 5.67135C7.28544 5.67135 6.70594 5.61535 6.14444 5.50885L6.20194 5.51785C6.13444 5.50535 6.04194 5.48535 5.95194 5.45785V5.76535C5.82044 5.79785 5.72394 5.91385 5.72194 6.05285V6.08035C5.72194 6.16985 5.76394 6.25035 5.82894 6.30235C6.07894 6.43485 6.82944 6.59535 8.00944 6.59535C9.18944 6.59535 9.93944 6.43535 10.1894 6.30285C10.2549 6.25085 10.2969 6.17085 10.2969 6.08085V6.05235C10.2949 5.91335 10.1984 5.79735 10.0689 5.76535L10.0669 5.76485V5.45985C9.52594 5.59635 8.90494 5.67435 8.26544 5.67435C8.17194 5.67435 8.07894 5.67285 7.98594 5.66935L7.99994 5.67035Z" fill="black"/>
<path d="M5.63244 15.2629C5.24044 15.2314 4.87944 15.1269 4.55344 14.9629L4.56994 14.9704V15.5004C4.56994 16.1679 11.4299 16.1679 11.4299 15.5004V14.9754C11.0399 15.1979 10.1299 15.3954 7.99994 15.3954C7.95644 15.3959 7.90544 15.3959 7.85394 15.3959C7.07094 15.3959 6.29944 15.3474 5.54194 15.2539L5.63244 15.2629Z" fill="black"/>
<path d="M7.99994 12.6729C8.07894 12.6754 8.17144 12.6769 8.26444 12.6769C9.04194 12.6769 9.79594 12.5759 10.5134 12.3869L10.4519 12.4004C9.78694 11.4004 9.83694 9.24285 9.88694 7.09285L9.79694 7.11035C9.29294 7.20785 8.71394 7.26385 8.12144 7.26385C8.07844 7.26385 8.03594 7.26335 7.99294 7.26285H7.99944C7.96344 7.26335 7.92044 7.26385 7.87744 7.26385C7.28494 7.26385 6.70544 7.20785 6.14394 7.10135L6.20144 7.11035L6.11144 7.09285C6.16144 9.24285 6.21144 11.3979 5.54644 12.4004C6.20294 12.5759 6.95694 12.6769 7.73444 12.6769C7.82744 12.6769 7.91994 12.6754 8.01244 12.6724L7.99994 12.6729Z" fill="black"/>
<path d="M11.2024 13.0004L11.1124 12.9654C10.6074 13.3129 9.56744 13.5004 7.99994 13.5004C7.95844 13.5009 7.90944 13.5014 7.86044 13.5014C7.13294 13.5014 6.42144 13.4339 5.73144 13.3044L5.80244 13.3154C5.45644 13.2574 5.14694 13.1404 4.87044 12.9739L4.88244 12.9804L4.79744 13.0129C4.11244 13.2629 4.11244 13.7629 4.56994 14.2629C4.56994 14.9579 11.4299 14.9579 11.4299 14.2629C11.8874 13.7504 11.8874 13.2504 11.2024 13.0004Z" fill="black"/>
</g>
<defs>
<clipPath id="clip0_6_471">
<rect width="16" height="16" fill="white"/>
</clipPath>
</defs>
</svg>
