<svg width="16" height="16" viewBox="0 0 16 16" fill="none" xmlns="http://www.w3.org/2000/svg">
<g clip-path="url(#clip0_6_541)">
<path d="M6.51491 15.55C5.74991 14.7775 3.03741 11.46 3.85241 3.83C3.85291 3.8265 3.85291 3.822 3.85291 3.818C3.85291 3.763 3.80791 3.718 3.75291 3.718C3.73191 3.718 3.71291 3.7245 3.69691 3.735C3.33191 3.985 2.49491 4.5625 2.00991 4.985C1.88591 5.092 1.80141 5.242 1.78041 5.4115L1.77991 5.415C1.62741 6.7875 1.17741 13.4475 6.45741 15.64C6.46541 15.6455 6.47541 15.6485 6.48591 15.6485C6.51541 15.6485 6.53941 15.6245 6.53941 15.595C6.53941 15.576 6.52991 15.5595 6.51491 15.55Z" fill="black"/>
<path d="M9.46491 15.665C10.5874 15.185 16.6149 12 13.2149 0.19C13.1869 0.08 13.0889 0 12.9724 0C12.9699 0 12.9674 0 12.9649 0C12.9604 0 12.9554 0 12.9499 0C12.5534 0 12.1719 0.065 11.8154 0.185L11.8404 0.1775C11.7339 0.2075 11.6569 0.304 11.6569 0.4185C11.6569 0.4415 11.6599 0.4635 11.6654 0.4845L11.6649 0.483C12.0124 1.908 13.7124 9.9655 9.40241 15.588C9.39291 15.597 9.38741 15.61 9.38741 15.624C9.38741 15.6515 9.40991 15.674 9.43741 15.674C9.44791 15.674 9.45691 15.6705 9.46491 15.665Z" fill="black"/>
<path d="M9.80241 0.7975C8.60241 0.9675 6.43741 2.155 5.83741 2.4925C5.74241 2.549 5.67941 2.651 5.67741 2.767C5.44491 16.7495 7.99991 16 7.99991 16C10.8524 15.2875 10.1999 2.9575 10.0799 1.0375C10.0754 0.903 9.96491 0.796 9.82991 0.796C9.82041 0.796 9.81041 0.7965 9.80091 0.7975H9.80241ZM8.30241 9.775C8.21091 9.794 8.10541 9.8055 7.99741 9.8055C7.14141 9.8055 6.44741 9.1115 6.44741 8.2555C6.44741 7.3995 7.14141 6.7055 7.99741 6.7055C8.85341 6.7055 9.54741 7.3995 9.54741 8.2555C9.54741 8.3635 9.53641 8.4685 9.51541 8.5705L9.51691 8.5605C9.39091 9.1735 8.91691 9.6485 8.31441 9.774L8.30441 9.7755L8.30241 9.775Z" fill="black"/>
</g>
<defs>
<clipPath id="clip0_6_541">
<rect width="16" height="16" fill="white"/>
</clipPath>
</defs>
</svg>
