<svg width="16" height="16" viewBox="0 0 16 16" fill="none" xmlns="http://www.w3.org/2000/svg">
<path d="M0.712955 3C0.31898 3 0 3.29905 0 3.66842V12.3747C0 12.7197 0.297981 13 0.666958 13H15.333C15.701 13 16 12.7206 16 12.3747V3.66842C16 3.29905 15.681 3 15.287 3H0.712955ZM8.77145 4.67432H10.3184V5.92397H8.77145V4.67432ZM8.77145 7.36861H10.3184V8.61826H8.77145V7.36861ZM5.67864 4.67432H7.22555V5.92397H5.67864V4.67432ZM5.67864 7.36861H7.22555V8.61826H5.67864V7.36861ZM2.59184 4.67432H4.13874V5.92397H2.59184V4.67432ZM2.59184 7.36861H4.13874V8.61826H2.59184V7.36861ZM13.4052 11.3247H2.59284V10.0751H13.4052V11.3247ZM13.4052 8.63045H11.8583V7.37424H13.4052V8.63045ZM13.4052 5.94366H11.8583V4.69401H13.4052V5.94366Z" fill="black"/>
</svg>
