<svg width="16" height="16" viewBox="0 0 16 16" fill="none" xmlns="http://www.w3.org/2000/svg">
<g clip-path="url(#clip0_6_221)">
<path d="M12.599 6.50086C12.6 6.50586 12.601 6.51136 12.601 6.51736C12.601 6.52336 12.6005 6.52886 12.599 6.53436V6.50086Z" fill="black"/>
<path d="M11.8125 10.3409C12.348 9.49336 12.666 8.46186 12.666 7.35586C12.666 7.06586 12.644 6.78086 12.602 6.50286L12.606 6.53436L6.53247 12.6079C6.77097 12.6459 7.04547 12.6679 7.32497 12.6679C7.32747 12.6679 7.32997 12.6679 7.33247 12.6679C7.33447 12.6679 7.33597 12.6679 7.33847 12.6679C8.45097 12.6679 9.48847 12.3449 10.3615 11.7879L10.339 11.8014L13.999 16.0014L15.999 14.0014L11.8125 10.3409Z" fill="black"/>
<path d="M10.4325 2.23436C7.76597 -0.432136 3.76597 -0.759136 1.50597 1.50786C-0.75403 3.77486 -0.43403 7.76786 2.23247 10.4344C3.04497 11.2444 4.04097 11.8709 5.15247 12.2454L5.20597 12.2609L12.2795 5.21436C11.883 4.04586 11.25 3.04736 10.4325 2.23436ZM3.33247 8.00086C2.22797 8.00086 1.33247 7.10536 1.33247 6.00086C1.33247 4.89636 2.22797 4.00086 3.33247 4.00086C4.43697 4.00086 5.33247 4.89636 5.33247 6.00086C5.33247 7.10536 4.43697 8.00086 3.33247 8.00086Z" fill="black"/>
</g>
<defs>
<clipPath id="clip0_6_221">
<rect width="16" height="16" fill="white"/>
</clipPath>
</defs>
</svg>
