<svg width="16" height="16" viewBox="0 0 16 16" fill="none" xmlns="http://www.w3.org/2000/svg">
<g clip-path="url(#clip0_6_427)">
<path d="M12.26 0.1055C12.085 0.1055 11.91 0.073 11.7325 0.0605C11.4825 0.043 11.21 0.0255 10.9475 0.0155C10.685 0.0055 10.4075 0.0005 10.125 0.0005C10.103 0 10.077 0 10.051 0C9.552 0 9.0725 0.0855 8.6275 0.2425L8.6575 0.2335C7.9365 0.48 7.3505 0.9645 6.9805 1.5915L6.9725 1.606C6.754 1.979 6.5945 2.415 6.5205 2.8795L6.5175 2.901C6.4745 3.1555 6.45 3.4485 6.45 3.7475C6.45 3.7635 6.45 3.78 6.45 3.796V3.7935C6.45 4.4585 6.45 5.1235 6.45 5.7935C6.45 5.816 6.45 5.8385 6.45 5.8635H4V8.7135H6.4475V16.001H9.4075V8.711H11.85C11.9725 7.7585 12.1 6.8135 12.2175 5.861H9.4075C9.407 5.853 9.4065 5.843 9.4065 5.8335C9.4065 5.824 9.407 5.814 9.4075 5.8045V5.806C9.4075 5.1635 9.4075 4.5185 9.4075 3.876C9.4075 3.8745 9.4075 3.873 9.4075 3.871C9.4075 3.666 9.447 3.47 9.5185 3.2905L9.515 3.301C9.617 3.036 9.8315 2.8345 10.0985 2.7525L10.105 2.751C10.285 2.692 10.492 2.6585 10.707 2.6585C10.7175 2.6585 10.7285 2.6585 10.739 2.6585H10.7375H12.2525C12.315 2.6585 12.315 2.6585 12.315 2.5985V0.171C12.315 0.131 12.31 0.108 12.26 0.1055Z" fill="black"/>
</g>
<defs>
<clipPath id="clip0_6_427">
<rect width="16" height="16" fill="white"/>
</clipPath>
</defs>
</svg>
