<svg width="16" height="16" viewBox="0 0 16 16" fill="none" xmlns="http://www.w3.org/2000/svg">
<g clip-path="url(#clip0_6_518)">
<path d="M12.639 1.64222C11.533 0.743716 10.488 0.294716 9.65854 0.130216C9.08854 0.0177164 8.53554 0.000716383 8.00004 0.000716383C7.37804 0.000716383 5.49454 -0.0857837 3.36954 1.64222C3.01554 1.97922 2.59204 2.49722 2.59204 3.04172V7.47372L3.92254 6.71372V4.31222L11.801 6.50672L10.8765 4.31222L13.4075 5.12422V3.04222C13.4075 2.49822 12.9845 1.97922 12.639 1.64222Z" fill="black"/>
<path d="M10.747 11.5077L9.71054 9.70222H6.55754L5.47754 11.5077L4.25954 9.52922L2.59204 8.79472V11.5162C2.60054 11.7927 2.64404 12.0432 2.70454 12.2762C3.29204 14.4707 5.89254 15.9997 8.00004 15.9997C10.1075 15.9997 12.708 14.4707 13.2955 12.2762C13.356 12.0432 13.399 11.7922 13.408 11.5162V8.85522L12.233 9.30422L10.747 11.5077ZM9.48604 12.9072H6.75604C6.75604 12.9072 6.50554 12.7172 6.53154 12.5187L7.18804 11.1277H9.03654L9.72754 12.5447C9.72754 12.5447 9.75404 12.8377 9.48604 12.9072Z" fill="black"/>
</g>
<defs>
<clipPath id="clip0_6_518">
<rect width="16" height="16" fill="white"/>
</clipPath>
</defs>
</svg>
