<svg width="16" height="16" viewBox="0 0 16 16" fill="none" xmlns="http://www.w3.org/2000/svg">
<path d="M12.5001 5.0625C12.1571 4.7295 11.7801 4.427 11.3766 4.1625L11.3476 4.145C11.1906 4.035 11.0111 3.931 10.8226 3.842L10.8001 3.8325C10.6601 3.77 10.6851 3.7425 10.6551 3.9125C10.6251 4.0885 10.5711 4.2465 10.4956 4.3915L10.5001 4.3825L10.4576 4.4525C10.2501 4.2925 10.0001 4.1325 9.7751 4C9.6076 3.8975 9.4376 3.8025 9.2751 3.71C9.1946 3.6595 9.0961 3.63 8.9916 3.63C8.9506 3.63 8.9101 3.6345 8.8716 3.6435L8.8751 3.643C8.3006 3.7445 7.7876 3.9465 7.3321 4.231L7.3501 4.2205C7.2356 4.2945 7.1376 4.366 7.0441 4.4425L7.0501 4.438C7.0176 4.4655 7.0126 4.4805 7.0501 4.5105C7.1401 4.583 7.2251 4.6605 7.3201 4.7405C6.9061 4.8925 6.5596 5.1445 6.2986 5.4685L6.2951 5.473C6.4626 5.498 6.6151 5.5255 6.7676 5.5455C6.8201 5.5455 6.8451 5.5655 6.8501 5.628C6.9381 6.1695 7.3451 6.596 7.8686 6.7115L7.8776 6.713C8.0651 6.7475 8.2811 6.7675 8.5016 6.7675C8.6241 6.7675 8.7456 6.7615 8.8651 6.7495L8.8501 6.7505C8.9426 6.742 9.0506 6.7375 9.1596 6.7375C9.4841 6.7375 9.7986 6.7795 10.0981 6.859L10.0726 6.8535L10.1876 6.8885C10.1876 6.8885 10.1876 6.8885 10.2126 6.8885C10.0226 6.6735 9.8351 6.461 9.6276 6.2685C9.5051 6.151 9.3776 6.041 9.2476 5.926C9.2051 5.8905 9.1521 5.866 9.0941 5.8585H9.0926C8.9536 5.836 8.7931 5.8235 8.6301 5.8235C8.5546 5.8235 8.4796 5.826 8.4051 5.8315L8.4151 5.831C8.4126 5.831 8.4096 5.831 8.4066 5.831C8.1606 5.831 7.9286 5.772 7.7241 5.667L7.7326 5.671C7.5831 5.596 7.4586 5.5225 7.3396 5.4425L7.3526 5.451C7.6341 5.18 7.9941 4.9885 8.3946 4.913L8.4076 4.911C8.4086 4.911 8.4096 4.911 8.4106 4.911C8.4791 4.911 8.5426 4.9305 8.5966 4.9645L8.5951 4.9635C8.9001 5.0695 9.1646 5.2055 9.4061 5.373L9.3951 5.366C9.4426 5.3985 9.4676 5.391 9.5101 5.3535C9.6546 5.22 9.8451 5.1345 10.0556 5.1235H10.0576C9.9851 5.21 9.9231 5.309 9.8756 5.4155L9.8726 5.4235C9.8521 5.4805 9.8381 5.547 9.8326 5.616V5.6185C9.8321 5.624 9.8321 5.6305 9.8321 5.637C9.8321 5.7085 9.8621 5.773 9.9101 5.8185C10.2071 6.0925 10.4816 6.3775 10.7386 6.6775L10.7501 6.691C10.7626 6.711 10.7846 6.724 10.8096 6.724C10.8246 6.724 10.8391 6.719 10.8506 6.711C11.0191 6.6325 11.2151 6.582 11.4216 6.571H11.4256C11.5076 6.561 11.6026 6.5555 11.6986 6.5555C11.9581 6.5555 12.2086 6.597 12.4426 6.6735L12.4256 6.6685L12.5206 6.706L12.5381 6.7235H12.5531C12.5531 6.7235 12.5531 6.7235 12.5356 6.7235C12.5181 6.7235 12.5356 6.701 12.5356 6.691C12.3091 6.4385 12.0636 6.212 11.7986 6.0105L11.7856 6.001C11.6826 5.922 11.5986 5.8235 11.5381 5.711L11.5356 5.706C11.4311 5.516 11.3201 5.3525 11.1961 5.2L11.2006 5.206C11.2206 5.1835 11.2381 5.206 11.2556 5.206C11.4386 5.284 11.5961 5.383 11.7356 5.503L11.7331 5.501C11.7756 5.536 11.7956 5.531 11.8281 5.501C11.9206 5.3965 12.0396 5.3175 12.1751 5.275L12.1806 5.2735C12.1921 5.2675 12.2061 5.264 12.2206 5.264C12.2476 5.264 12.2721 5.2765 12.2881 5.296C12.3921 5.403 12.4671 5.539 12.4996 5.6905L12.5006 5.696C12.5031 5.7055 12.5046 5.716 12.5046 5.7275C12.5046 5.768 12.4841 5.804 12.4531 5.826L12.3151 5.944L12.8276 6.5015L12.8826 6.094C13.4451 6.8615 13.8761 7.764 14.1211 8.741L14.1326 8.794C14.2316 9.2185 14.2881 9.706 14.2881 10.207C14.2881 11.0005 14.1461 11.761 13.8856 12.464L13.9001 12.419L13.3551 11.814C13.3321 11.8785 13.3186 11.9535 13.3176 12.031C13.1971 12.991 12.8341 13.8495 12.2931 14.5645L12.3026 14.5515C11.9231 15.0465 11.4771 15.4665 10.9726 15.8065L10.9526 15.819C10.8676 15.8765 10.8676 15.8765 10.8451 15.779C10.7776 15.514 10.7126 15.249 10.6451 14.9765C10.4976 15.0815 10.3251 15.191 10.1476 15.291L10.1181 15.3065C9.5891 15.606 8.9721 15.826 8.3171 15.93L8.2856 15.934C8.0536 15.976 7.7866 15.9995 7.5141 15.9995C6.7386 15.9995 6.0081 15.806 5.3686 15.4645L5.3931 15.4765C5.3566 15.4635 5.3311 15.4295 5.3311 15.389C5.3311 15.3765 5.3336 15.364 5.3381 15.353C5.4256 14.9405 5.4931 14.526 5.5406 14.1035C5.5676 13.882 5.5826 13.6255 5.5826 13.3655C5.5826 13.1665 5.5736 12.97 5.5561 12.776L5.5581 12.801C5.5186 12.358 5.4346 11.9505 5.3096 11.561L5.3206 11.601L5.0706 11.9635C4.7141 12.4795 4.3371 12.931 3.9231 13.346C3.7686 13.4995 3.6056 13.645 3.4351 13.7815L3.4231 13.791C3.3581 13.8435 3.3431 13.816 3.3156 13.7635C3.1746 13.495 3.0591 13.184 2.9856 12.8565L2.9806 12.831C2.8881 12.4365 2.8241 11.9745 2.8011 11.5015L2.8006 11.4835C2.7931 11.345 2.7891 11.183 2.7891 11.0205C2.7891 10.7225 2.8031 10.4275 2.8311 10.1365L2.8281 10.1735C2.8456 9.959 2.8806 9.7615 2.9336 9.571L2.9281 9.5935L1.7706 9.9535C1.7506 9.3135 2.2506 7.5885 3.1531 6.531C3.0721 6.5085 2.9756 6.49 2.8761 6.479L2.8681 6.4785C2.7456 6.4535 2.6181 6.4385 2.5006 6.4235C2.4406 6.4235 2.4406 6.391 2.4656 6.3435C2.7206 5.843 3.0071 5.4115 3.3371 5.0175L3.3281 5.0285C3.6736 4.609 4.0586 4.2425 4.4831 3.926L4.5006 3.9135C4.5006 3.9135 4.5231 3.876 4.5481 3.8985C4.4546 4.0885 4.3996 4.3125 4.3996 4.5495C4.3996 4.867 4.4981 5.161 4.6666 5.4035L4.6631 5.3985C4.7686 5.5475 4.9061 5.667 5.0666 5.748L5.0731 5.751C5.0731 5.7505 5.0731 5.75 5.0731 5.7495C5.0731 5.7165 5.0606 5.6865 5.0406 5.6635C4.9046 5.409 4.8251 5.1075 4.8251 4.787C4.8251 4.7355 4.8271 4.685 4.8311 4.6345L4.8306 4.641C4.8311 4.2835 5.0576 3.979 5.3746 3.863L5.3806 3.861C5.4636 3.837 5.5591 3.8235 5.6581 3.8235C5.8536 3.8235 6.0366 3.8775 6.1926 3.9715L6.1881 3.969C6.2531 4.0015 6.3106 4.0415 6.3781 4.0715C6.2406 3.674 5.8961 3.382 5.4766 3.322L5.4706 3.3215C5.8131 3.14 6.2136 2.9765 6.6316 2.8535L6.6781 2.8415C7.2771 2.6695 7.9656 2.57 8.6771 2.57C8.7611 2.57 8.8446 2.5715 8.9276 2.574L8.9156 2.5735C9.2201 2.591 9.4911 2.7205 9.6906 2.921C9.8726 3.0755 10.0361 3.239 10.1856 3.415L10.1906 3.421C10.2056 3.436 10.2131 3.4635 10.2431 3.461C10.2316 3.198 10.1691 2.952 10.0656 2.729L10.0706 2.741C10.2651 2.7795 10.4326 2.827 10.5946 2.886L10.5706 2.8785C11.0971 3.0485 11.5536 3.298 11.9516 3.6175L11.9431 3.611C12.0551 3.695 12.1306 3.823 12.1431 3.969V3.971C12.2111 4.3465 12.3246 4.682 12.4806 4.9925L12.4706 4.971L12.5081 5.0585L12.5001 5.0625ZM11.6051 8.2025C11.6051 8.0725 11.6051 7.9525 11.6051 7.8175C11.6051 7.7675 11.5901 7.745 11.5401 7.725C11.2676 7.619 11.0326 7.4845 10.8211 7.32L10.8276 7.325C10.8006 7.3045 10.7671 7.2925 10.7301 7.2925C10.7161 7.2925 10.7021 7.2945 10.6891 7.298L10.6901 7.2975C10.5991 7.3175 10.5236 7.339 10.4501 7.3645L10.4651 7.36C9.8636 7.5805 9.3446 7.882 8.8886 8.2575L8.8976 8.25C8.8601 8.2775 8.8676 8.3025 8.8851 8.3375C9.1151 8.7675 9.34343 9.1975 9.5701 9.6275C9.5841 9.6615 9.6171 9.6845 9.6551 9.685C9.6751 9.6865 9.6991 9.687 9.7226 9.687C9.8786 9.687 10.0271 9.655 10.1621 9.597L10.1546 9.6C10.7021 9.3585 11.1731 9.0495 11.5841 8.676L11.5796 8.68C11.6031 8.66 11.6176 8.631 11.6176 8.598C11.6176 8.5945 11.6176 8.5905 11.6171 8.587C11.6021 8.462 11.6051 8.3325 11.6051 8.2025ZM11.4926 10.7025C11.5661 10.96 11.6081 11.256 11.6081 11.5615C11.6081 11.611 11.6071 11.6605 11.6046 11.7095V11.7025L11.6646 11.67L11.7671 11.59C12.0941 11.2965 12.3316 10.909 12.4366 10.47L12.4396 10.455C12.4596 10.409 12.4711 10.3555 12.4711 10.2995C12.4711 10.266 12.4671 10.2335 12.4591 10.202L12.4596 10.205C12.3831 9.975 12.2771 9.775 12.1431 9.597L12.1471 9.6025C12.1286 9.579 12.1001 9.5645 12.0686 9.5645C12.0646 9.5645 12.0606 9.5645 12.0566 9.565H11.4921C11.4531 9.566 11.4181 9.582 11.3921 9.6075C11.1816 9.783 10.9481 9.9485 10.7016 10.094L10.6771 10.1075C10.4971 10.227 10.2856 10.3145 10.0576 10.356L10.0476 10.3575C9.9726 10.3575 9.9801 10.39 10.0076 10.44C10.1401 10.69 10.2726 10.94 10.4001 11.19C10.4251 11.235 10.4426 11.245 10.4926 11.23C10.8826 11.129 11.2211 10.946 11.5031 10.7L11.5001 10.7025H11.4926ZM12.7501 7.3225C12.5816 7.4645 12.3946 7.599 12.1976 7.7185L12.1776 7.73C12.1411 7.7485 12.1166 7.7855 12.1166 7.8285C12.1166 7.8335 12.1171 7.8385 12.1176 7.843C12.1176 8.093 12.1176 8.33 12.1176 8.575C12.1176 8.5785 12.1171 8.583 12.1171 8.5875C12.1171 8.655 12.1461 8.7155 12.1921 8.7575C12.3981 8.9575 12.5751 9.1865 12.7166 9.4375L12.7246 9.4525C12.7396 9.5005 12.7646 9.5415 12.7971 9.575C13.1521 8.815 13.0401 8.0725 12.7501 7.3225Z" fill="black"/>
<path d="M4.2701 1.3675C4.3026 1.3475 4.3226 1.3675 4.3451 1.385C4.7441 1.5825 5.0876 1.8065 5.4021 2.065L5.3926 2.0575C5.4166 2.0775 5.4436 2.097 5.4716 2.1155L5.4751 2.1175L5.2251 0.5225C5.4501 0.675 5.6576 0.82 5.8651 0.965C6.1926 1.19 6.5176 1.415 6.8401 1.645C6.8976 1.685 6.9151 1.675 6.9376 1.6125C7.10426 1.0975 7.27843 0.5825 7.4601 0.0675C7.4646 0.046 7.4741 0.0275 7.4876 0.0125C7.7001 0.355 7.9101 0.6975 8.1226 1.0375C8.2076 1.1775 8.2976 1.315 8.3726 1.4575C8.4001 1.5025 8.4151 1.5125 8.4576 1.4575C8.7026 1.1825 8.9526 0.909167 9.2076 0.6375L9.7901 0L9.9026 1.615C10.0151 1.4825 10.1126 1.365 10.2201 1.235C10.4266 1.0005 10.6516 0.7925 10.8961 0.6085L10.9076 0.6C10.9226 0.6275 10.9076 0.6475 10.8901 0.6675C10.7256 1.045 10.6036 1.483 10.5451 1.941L10.5426 1.965C10.5226 2.0975 10.5051 2.2325 10.4901 2.3675C10.4901 2.4325 10.4401 2.3975 10.4201 2.3925C10.2736 2.344 10.0846 2.295 9.8921 2.256L9.8576 2.25C9.4961 2.185 9.0801 2.1475 8.6556 2.1475C8.5921 2.1475 8.5291 2.1485 8.4661 2.15H8.4756C7.8496 2.159 7.2481 2.2495 6.6766 2.412L6.7256 2.4C6.1431 2.56 5.6346 2.7725 5.1621 3.04L5.1956 3.0225C5.1306 3.0575 5.1031 3.065 5.0756 2.98C4.9086 2.4585 4.6931 2.006 4.4266 1.589L4.4406 1.6125C4.3881 1.53 4.3306 1.4525 4.2756 1.3625L4.2701 1.3675Z" fill="black"/>
<path d="M12.5001 5.0525V5.0725C12.5001 5.0725 12.5001 5.0725 12.4876 5.0725L12.5001 5.0525Z" fill="black"/>
</svg>
