<svg width="16" height="16" viewBox="0 0 16 16" fill="none" xmlns="http://www.w3.org/2000/svg">
<path d="M10.4337 8.91952C15.8472 8.25302 14.8602 3.28602 14.8602 3.28602H12.4267C12.5182 2.60102 12.5712 1.80752 12.5732 1.00152V0.999023H3.42673C3.42873 1.80702 3.48173 2.60052 3.58323 3.37902L3.57323 3.28552H1.13973C1.13973 3.28552 0.153229 8.24552 5.56623 8.91902C5.94823 9.48352 6.36973 9.97552 6.84123 10.4145L6.84623 10.419C6.78623 11.2325 6.45973 13.5725 4.57273 13.5725H3.42623V14.999H12.5727V13.5725L10.9862 13.519C9.48623 13.179 9.20623 11.159 9.15273 10.419C9.62923 9.97552 10.0507 9.48352 10.4137 8.94902L10.4327 8.91902L10.4337 8.91952ZM12.0002 5.41302L12.3202 4.61952H13.5602C13.5122 5.29602 13.2692 5.90752 12.8877 6.40752L12.8937 6.39952C12.4882 6.86002 11.9582 7.20202 11.3562 7.37402L11.3332 7.37952C11.5862 6.82702 11.8147 6.17152 11.9832 5.49252L12.0002 5.41302ZM3.10673 6.39952C2.73123 5.90752 2.48823 5.29602 2.44073 4.63002L2.44023 4.61952H3.66673L4.00023 5.41302C4.20373 6.18902 4.44523 6.85402 4.73873 7.49052L4.70673 7.41302C4.06373 7.23302 3.51923 6.87852 3.11023 6.40402L3.10673 6.39952ZM9.05373 6.97952L8.12023 6.52602C8.08573 6.50702 8.04423 6.49602 8.00023 6.49602C7.95623 6.49602 7.91473 6.50702 7.87873 6.52702L7.88023 6.52652L6.94673 6.98002C6.91873 6.99252 6.88623 7.00002 6.85173 7.00002C6.72273 7.00002 6.61823 6.89552 6.61823 6.76652C6.61823 6.75702 6.61873 6.74752 6.61973 6.73852L6.76623 5.69302C6.76773 5.68402 6.76823 5.67302 6.76823 5.66202C6.76823 5.60152 6.74473 5.54652 6.70623 5.50602L5.99973 4.73952C5.96023 4.69902 5.93623 4.64302 5.93623 4.58202C5.93623 4.47202 6.01473 4.38052 6.11823 4.35952H6.11973L7.16623 4.16602C7.23873 4.15802 7.29973 4.11502 7.33223 4.05402L7.33273 4.05302L7.83273 3.11952C7.87173 3.04752 7.94673 2.99952 8.03273 2.99952C8.11873 2.99952 8.19373 3.04752 8.23223 3.11852L8.23273 3.11952L8.73273 4.05302C8.76423 4.11352 8.82273 4.15652 8.89173 4.16602L9.93923 4.35952C10.0447 4.38052 10.1227 4.47202 10.1227 4.58202C10.1227 4.64302 10.0982 4.69852 10.0592 4.73952L9.32573 5.50602C9.28723 5.54652 9.26373 5.60152 9.26373 5.66202C9.26373 5.67302 9.26473 5.68352 9.26573 5.69402L9.41223 6.73952C9.41523 6.75352 9.41723 6.77002 9.41723 6.78702C9.41723 6.91602 9.31273 7.02052 9.18373 7.02052C9.13473 7.02052 9.08923 7.00552 9.05123 6.97952L9.05223 6.98002L9.05373 6.97952Z" fill="black"/>
</svg>
