<svg width="16" height="16" viewBox="0 0 16 16" fill="none" xmlns="http://www.w3.org/2000/svg">
<path d="M7.49347 6.6335C7.87997 6.6335 8.33997 6.8335 8.57347 7.1335V8.8465C8.33997 9.1535 7.87347 9.36 7.49347 9.36C6.78697 9.36 6.26697 8.8335 6.26697 7.9935C6.26697 7.1535 6.78697 6.6335 7.49347 6.6335Z" fill="black"/>
<path fill-rule="evenodd" clip-rule="evenodd" d="M8 16C12.4185 16 16 12.4185 16 8C16 3.5815 12.4185 0 8 0C3.5815 0 0 3.5815 0 8C0 12.4185 3.5815 16 8 16ZM10.347 4.7065H10.9735V3.74H10.347V3.0665H8.57347V3.74H6.94697V4.7135H8.57347V5.86C8.11997 5.3065 7.52697 5.06 6.91347 5.06C5.51347 5.06 4.43347 6.0935 4.43347 7.9935C4.43347 9.8935 5.53347 10.94 6.91347 10.94C7.53997 10.94 8.10697 10.687 8.57347 10.1535V10.8H10.347V4.7065ZM9.81347 11.96H5.59997V12.9465H9.81347V11.96Z" fill="black"/>
</svg>
