<svg width="16" height="16" viewBox="0 0 16 16" fill="none" xmlns="http://www.w3.org/2000/svg">
<path fill-rule="evenodd" clip-rule="evenodd" d="M15.257 12.4037H0.8L0 14H16L15.257 12.4037Z" fill="black"/>
<path fill-rule="evenodd" clip-rule="evenodd" d="M10.2844 11.1579H10.8055C11.3584 10.5895 11.7307 9.85685 11.8463 9.04053V9.01843C11.737 8.96948 11.604 8.9379 11.4693 8.9379C11.3347 8.9379 11.2095 8.96948 11.0923 9.01843C11.1176 8.92685 11.1319 8.8258 11.1319 8.71685C11.1319 8.30316 10.9164 7.93527 10.5933 7.72053C11.1414 7.67159 11.4265 6.72422 11.4265 6.72422C11.0685 6.0579 10.5362 5.52422 9.89307 5.1658L9.87564 5.15632C9.87564 5.15632 8.94574 5.03001 8.66693 5.32053C8.32317 4.76316 7.34416 4.76316 7.34416 4.76316C6.56634 4.91317 5.8899 5.27948 5.36554 5.79422C5.36554 6.10369 5.5097 6.38001 5.73624 6.56001C5.24673 6.67843 4.7398 7.35895 4.82376 7.63685C4.72555 7.50738 4.5703 7.42211 4.39762 7.42211H4.38337C4.28198 7.74895 4.22495 8.12474 4.22178 8.51316C4.22178 8.92369 4.28832 9.31685 4.41188 9.68948C4.59089 9.54422 4.72554 9.35474 4.80634 9.14159V9.13053C5.04871 9.29159 5.34812 9.38632 5.66495 9.38632C5.8202 9.38632 5.96753 9.36264 6.10852 9.32316C6.00713 9.52369 5.94693 9.76211 5.94693 10.0147C5.94693 10.3337 6.04198 10.6258 6.19723 10.8705C5.9501 10.9053 5.72673 11.0079 5.54614 11.1579H8.43089C8.72555 10.9305 8.96475 10.509 9.01228 10.19C9.33703 10.3384 9.70931 10.4221 10.1069 10.4221C10.1988 10.4221 10.2907 10.419 10.3826 10.4079C10.3113 10.5768 10.2733 10.7758 10.2733 10.9763C10.2733 11.0379 10.2764 11.0979 10.2844 11.1579ZM8.9204 9.71001C8.43248 9.02159 7.03366 8.61106 6.29861 9.01843C6.72158 7.98738 6.57267 7.3179 6.04832 6.60422C7.0099 6.69264 8.14733 6.19843 8.60357 5.55895C8.73822 6.25053 9.49861 7.40159 10.202 7.63685C9.05822 8.15632 8.92832 8.97264 8.9204 9.71001Z" fill="black"/>
<path fill-rule="evenodd" clip-rule="evenodd" d="M4.75248 11.6316C3.9604 10.6842 3.52158 9.4779 3.52158 8.47527C3.52158 5.95527 5.5699 3.91369 8.09663 3.91369C10.6234 3.91369 12.6733 5.95527 12.6733 8.47527C12.6733 9.4779 12.1156 10.8784 11.5644 11.6316H15.1731V2.61211C15.1731 2.27895 14.9418 2.00895 14.6566 2.00738L1.55089 2.00001C1.26257 1.99843 1.02653 2.27001 1.02812 2.60632L1.03921 11.6316H4.75248Z" fill="black"/>
</svg>
