<svg width="16" height="16" viewBox="0 0 16 16" fill="none" xmlns="http://www.w3.org/2000/svg">
<g clip-path="url(#clip0_6_197)">
<path d="M7.415 12.7845C7.2175 12.582 7.096 12.305 7.096 11.9995C7.096 11.378 7.5995 10.8745 8.221 10.8745H9.2875C9.1675 9.17202 8.425 6.53202 5.2875 4.72452C4.9465 4.52702 4.7205 4.16352 4.7205 3.74752C4.7205 3.12602 5.224 2.62252 5.8455 2.62252C5.909 2.62252 5.971 2.62802 6.0315 2.63802L6.025 2.63702C8.47 3.01952 12.6375 4.68452 14.4 8.38702C14.4595 8.04802 14.4955 7.65452 14.5 7.25402V7.24952C14.5 3.24552 11.254 -0.000976562 7.25 -0.000976562C3.246 -0.000976562 0 3.24502 0 7.24902C0 11.253 3.246 14.499 7.25 14.499C7.8345 14.499 8.4025 14.43 8.947 14.2995L8.8975 14.3095L7.415 12.7845Z" fill="black"/>
<path d="M14.11 11.9995C13.97 5.01952 5.86 3.74952 5.86 3.74952C10.36 6.35702 10.51 10.5645 10.415 11.9995H8.2225L12.11 15.9995L16 11.9995H14.11Z" fill="black"/>
</g>
<defs>
<clipPath id="clip0_6_197">
<rect width="16" height="16" fill="white"/>
</clipPath>
</defs>
</svg>
