<svg width="16" height="16" viewBox="0 0 16 16" fill="none" xmlns="http://www.w3.org/2000/svg">
<g clip-path="url(#clip0_6_382)">
<path d="M14.9335 0H1.06699C0.477988 0 0.000488281 0.4775 0.000488281 1.0665V15C0.000488281 15.5525 0.447988 16 1.00049 16H15.0005C15.553 16 16.0005 15.5525 16.0005 15V1.0665C16.0005 0.4775 15.5225 0 14.9335 0ZM4.49999 12.56L2.49999 10.56L3.56649 9.4935L4.53299 10.467L6.96649 8.0005L8.03299 9.067L4.49999 12.56ZM4.49999 7.56L2.49999 5.56L3.53349 4.4665L4.49999 5.44L6.96649 2.9665L8.03299 4.033L4.49999 7.56ZM13.5 11.2535H9.99999V9.747H13.5V11.2535ZM13.5 6.2535H9.99999V4.747H13.5V6.2535Z" fill="black"/>
</g>
<defs>
<clipPath id="clip0_6_382">
<rect width="16" height="16" fill="white"/>
</clipPath>
</defs>
</svg>
