<svg width="16" height="16" viewBox="0 0 16 16" fill="none" xmlns="http://www.w3.org/2000/svg">
<g clip-path="url(#clip0_6_1833)">
<path d="M11.4986 0.796875C11.8396 0.796875 12.1165 1.05432 12.1165 1.37262V3.10173C12.1165 3.41909 11.8396 3.67747 11.4986 3.67747C11.1576 3.67747 10.8808 3.41909 10.8808 3.10173V1.37262C10.8808 1.05432 11.1576 0.796875 11.4986 0.796875ZM4.50087 0.796875C4.84288 0.796875 5.1187 1.05432 5.1187 1.37262V3.10173C5.1187 3.41909 4.84288 3.67747 4.50087 3.67747C4.15985 3.67747 3.88404 3.41909 3.88404 3.10173V1.37262C3.88404 1.05432 4.15985 0.796875 4.50087 0.796875ZM15.2031 7.71189V14.0507C15.2031 14.6873 14.6505 15.2031 13.9685 15.2031H2.03204C1.35002 15.2031 0.797376 14.6873 0.797376 14.0507V7.71189H15.2031ZM9.64563 1.75739V3.10266C9.64563 4.05755 10.4751 4.8313 11.4981 4.8313C12.5212 4.8313 13.3501 4.05755 13.3501 3.10266V1.75739H13.968C14.65 1.75739 15.2026 2.27321 15.2026 2.90981V6.55947H0.796875V2.90981C0.796875 2.27321 1.34951 1.75739 2.03154 1.75739H2.64837V3.10266C2.64837 4.05755 3.47733 4.8313 4.50037 4.8313C5.5234 4.8313 6.35286 4.05755 6.35286 3.10266V1.75739H9.64563Z" fill="black"/>
</g>
<defs>
<clipPath id="clip0_6_1833">
<rect width="16" height="16" fill="white"/>
</clipPath>
</defs>
</svg>
