<svg width="16" height="16" viewBox="0 0 16 16" fill="none" xmlns="http://www.w3.org/2000/svg">
<g clip-path="url(#clip0_6_426)">
<path d="M13.6865 3.76602H14.4665V2.10602H8.66651V0.666016H7.00001V2.10602H1.18651V3.76602H2.31301L-0.000488281 9.37952C-0.000488281 11.1395 1.42601 12.566 3.18601 12.566C4.94601 12.566 6.37251 11.1395 6.37251 9.37952L4.05901 3.76602H6.99251V13.706H4.66601V15.366H10.9595V13.706H8.66601V3.76602H11.946L9.63251 9.37952C9.63251 11.1395 11.059 12.566 12.819 12.566C14.579 12.566 16.0055 11.1395 16.0055 9.37952L13.6865 3.76602ZM1.33351 9.37952L3.18701 4.90602L5.02701 9.37952H1.33351ZM10.96 9.37952L12.8 4.90602L14.6665 9.37952H10.96Z" fill="black"/>
</g>
<defs>
<clipPath id="clip0_6_426">
<rect width="16" height="16" fill="white"/>
</clipPath>
</defs>
</svg>
