<svg width="16" height="16" viewBox="0 0 16 16" fill="none" xmlns="http://www.w3.org/2000/svg">
<path d="M12.6665 3.85969V4.93319C9.33301 5.74669 6.38001 5.72669 3.33301 4.87969V3.83969C3.33301 3.39319 3.69301 2.96619 3.99301 2.68619C4.16651 2.54619 4.34651 2.42619 4.51951 2.31269L4.58601 2.26619C4.71951 2.18619 4.83951 2.11969 4.95951 2.05269C4.95951 2.05269 5.01951 2.01919 5.05301 1.99919C5.10651 1.97269 5.15301 1.93919 5.20651 1.91919C5.28001 1.88569 5.35301 1.85269 5.42651 1.81919C5.46001 1.80569 5.49301 1.79269 5.52001 1.77919C5.60651 1.73919 5.69351 1.70569 5.78001 1.67269C5.82001 1.65919 5.86001 1.64619 5.89351 1.63269C5.96701 1.60619 6.03351 1.58619 6.10001 1.56619C6.12001 1.55969 6.18001 1.54619 6.18001 1.54619H6.19351C6.98701 1.31969 7.62001 1.32619 7.94001 1.32619C7.96001 1.32619 7.97351 1.32619 7.98651 1.32619C8.44651 1.32619 8.93301 1.33969 9.42001 1.43969C9.51351 1.45969 9.62001 1.49319 9.72651 1.51969H9.77301C9.82651 1.53319 9.88651 1.55969 9.94651 1.57969L10.013 1.59969C10.1995 1.66619 10.3865 1.73969 10.5865 1.83969C10.593 1.84619 10.6 1.84619 10.6 1.84619C11.04 2.05269 11.5 2.32619 11.9735 2.69969H11.98C12.2735 2.97319 12.64 3.41319 12.64 3.85319L12.6665 3.85969ZM9.97351 11.3462L12.667 8.54619V6.07969C11.0405 6.45969 9.48701 6.65319 7.98051 6.65319C6.47401 6.65319 4.88701 6.43969 3.33401 6.03969V8.55319L6.02751 11.3532L3.35401 11.1467C3.36751 11.3002 3.40051 11.4402 3.43401 11.5667C3.43401 11.5867 3.44751 11.6067 3.45401 11.6202C3.45401 11.6267 3.46051 11.6402 3.46751 11.6467C3.51401 11.8002 3.57401 11.9532 3.65401 12.1002C3.69401 12.1867 3.74051 12.2737 3.79401 12.3537C3.84051 12.4272 3.88751 12.4937 3.94051 12.5672C4.81401 13.8407 6.51401 14.6737 8.01401 14.6737C8.62751 14.6737 9.28051 14.5272 9.89401 14.2737H9.90051C9.94701 14.2602 9.99401 14.2337 10.0405 14.2137C10.107 14.1872 10.1805 14.1537 10.247 14.1202C10.407 14.0402 10.567 13.9467 10.7205 13.8537C10.787 13.8072 10.8605 13.7672 10.9205 13.7202C11.054 13.6337 11.174 13.5402 11.287 13.4402C11.3535 13.3802 11.427 13.3202 11.487 13.2602C11.5935 13.1537 11.6935 13.0537 11.7935 12.9402C11.86 12.8602 11.9335 12.7802 11.9935 12.6867C12.08 12.5667 12.16 12.4467 12.2335 12.3267C12.2535 12.2932 12.2735 12.2602 12.2935 12.2202C12.3135 12.1867 12.3335 12.1467 12.3535 12.1137C12.44 11.9402 12.5135 11.7672 12.567 11.5802V11.5602C12.607 11.4337 12.627 11.2937 12.647 11.1467L9.98701 11.3532L9.97351 11.3462Z" fill="black"/>
</svg>
