<svg width="16" height="16" viewBox="0 0 16 16" fill="none" xmlns="http://www.w3.org/2000/svg">
<g clip-path="url(#clip0_6_593)">
<path d="M9.68476 0C9.25776 0.1605 8.88926 0.3565 8.55076 0.5935L8.56726 0.5825C8.47726 0.6475 8.39226 0.715 8.28476 0.7975C8.99076 1.0065 9.59676 1.253 10.1718 1.5505L10.1123 1.5225C9.68726 1.54 9.26226 1.54 8.83976 1.5775C8.41726 1.615 7.95976 1.66 7.51976 1.7C7.45476 1.705 7.40026 1.744 7.37276 1.799L7.37226 1.8C7.05176 2.3025 6.80176 2.8875 6.65476 3.5115L6.64726 3.55C6.63476 3.605 6.62226 3.66 6.60476 3.73C6.43526 3.5645 6.27876 3.387 6.13576 3.1995L6.12726 3.1875C5.89876 2.9135 5.69076 2.606 5.51426 2.2795L5.49976 2.25C5.44726 2.145 5.38976 2.1375 5.28726 2.17C4.57726 2.3825 3.98476 2.6095 3.41276 2.8735L3.49976 2.8375C3.47976 2.8375 3.45726 2.8525 3.40476 2.8725C3.68826 2.5125 3.99426 2.194 4.32826 1.9075L4.33726 1.9C4.52276 1.7375 4.72576 1.5795 4.93776 1.434L4.95976 1.42C5.02226 1.3775 5.04476 1.35 4.99726 1.275C4.86676 1.0395 4.71226 0.837 4.53276 0.6605C4.67026 0.6085 4.82926 0.573 4.99526 0.5625H4.99976C5.26576 0.5215 5.57226 0.4985 5.88476 0.4985C6.05526 0.4985 6.22476 0.5055 6.39176 0.519L6.36976 0.5175C6.39776 0.52 6.43076 0.5215 6.46376 0.5215C6.60976 0.5215 6.74976 0.4935 6.87776 0.4425L6.87026 0.445C7.43426 0.2335 8.08776 0.086 8.76726 0.0315L8.79276 0.03C8.82776 0.03 8.87276 0.0475 8.89526 0H9.68476Z" fill="black"/>
<path d="M11.1698 9.71C10.7498 9.6175 10.3623 9.5375 9.97476 9.445C9.40976 9.3075 8.84226 9.17 8.27976 9.02C8.25976 9.0115 8.23676 9.0065 8.21276 9.0065C8.13926 9.0065 8.07626 9.052 8.05026 9.116L8.04976 9.117C7.62226 9.7995 7.18226 10.4745 6.79976 11.187C6.78476 11.212 6.77976 11.2445 6.73726 11.252C6.57676 10.679 6.44176 9.9865 6.35876 9.2785L6.35226 9.212C6.32476 8.9845 6.29976 8.757 6.28976 8.5295C6.28976 8.4195 6.21726 8.407 6.14226 8.382C5.39226 8.132 4.64226 7.847 3.90726 7.522C3.99226 7.4605 4.08976 7.4075 4.19326 7.3675L4.20226 7.3645C4.8306 7.0695 5.4706 6.802 6.12226 6.562C6.19976 6.5475 6.25776 6.4805 6.25776 6.3995C6.25776 6.396 6.25776 6.3925 6.25726 6.389C6.30326 5.453 6.44376 4.5725 6.66976 3.726L6.64976 3.8145C6.70476 3.8145 6.70726 3.8595 6.72226 3.8895C7.09226 4.5395 7.49226 5.172 7.91226 5.792C7.93626 5.841 7.98576 5.8745 8.04326 5.8745C8.06876 5.8745 8.09226 5.868 8.11326 5.8565L8.11226 5.857C9.02726 5.5595 9.95226 5.297 10.8898 5.092L10.9798 5.0745L10.8848 5.202C10.3331 5.917 9.79309 6.642 9.26476 7.377C9.23626 7.403 9.21876 7.4405 9.21876 7.482C9.21876 7.5235 9.23626 7.561 9.26476 7.587C9.85676 8.33 10.4513 8.9935 11.0818 9.6215L11.0828 9.622C11.1143 9.6495 11.1428 9.678 11.1693 9.7085L11.1698 9.71Z" fill="black"/>
<path d="M14.8198 7.1425C14.9448 7.8925 15.0098 8.6175 15.0698 9.365C15.4818 9.2085 15.8218 8.942 16.0653 8.6015L16.0698 8.595C16.0183 8.9505 15.9308 9.271 15.8098 9.5735L15.8198 9.545C15.6448 10.022 15.4253 10.435 15.1588 10.8115L15.1698 10.795C15.0953 10.9055 15.0448 11.038 15.0303 11.1815L15.0298 11.185C14.9778 11.6425 14.8643 12.06 14.6963 12.4485L14.7073 12.42C14.6673 12.5075 14.6198 12.5925 14.5673 12.695C14.4408 12.5315 14.3118 12.3865 14.1728 12.2505C13.9378 12.0405 13.9373 12.0375 13.6723 12.2075C13.1558 12.539 12.5568 12.804 11.9183 12.9705L11.8748 12.98C11.8373 12.98 11.7973 12.98 11.7523 13C11.7523 12.9325 11.7948 12.9 11.8223 12.8625C12.1598 12.4025 12.4673 11.925 12.7648 11.44C12.8123 11.36 12.8023 11.3225 12.7323 11.2675C12.1543 10.7905 11.6418 10.273 11.1858 9.708L11.1698 9.6875C11.6018 9.7535 12.0998 9.791 12.6068 9.791C12.7723 9.791 12.9368 9.787 13.1003 9.779L13.0773 9.78C13.2373 9.78 13.3973 9.75 13.5573 9.7425H13.5583C13.6573 9.7425 13.7423 9.6795 13.7743 9.5915L13.7748 9.59C14.0858 8.9905 14.4223 8.233 14.7198 7.4565L14.7748 7.2925L14.8198 7.1425Z" fill="black"/>
<path d="M6.71726 11.2725C6.66726 11.5875 6.61976 11.8675 6.57726 12.1475C6.50526 12.537 6.44476 13.019 6.40976 13.5075L6.40726 13.5525C6.40576 13.5605 6.40476 13.57 6.40476 13.58C6.40476 13.6485 6.44676 13.7075 6.50576 13.732L6.50676 13.7325C7.00676 14.015 7.52676 14.275 8.05426 14.5075C8.07426 14.5075 8.10426 14.5075 8.10426 14.56C7.62426 14.6025 7.14176 14.6325 6.65676 14.6375C6.34926 14.6375 6.35176 14.6375 6.40676 14.95C6.44326 15.2735 6.53126 15.5685 6.66376 15.8385L6.65676 15.8225C6.65576 15.8225 6.65476 15.8225 6.65326 15.8225C6.54726 15.8225 6.44776 15.7955 6.36076 15.7485L6.36376 15.75C5.75376 15.501 5.24226 15.1195 4.84626 14.639L4.84126 14.6325C4.75876 14.5375 4.64376 14.472 4.51426 14.453L4.51126 14.4525C3.80076 14.332 3.16576 14.0865 2.60126 13.737L2.62376 13.75C2.45076 13.642 2.30126 13.519 2.16976 13.3785L2.16876 13.3775C2.31626 13.402 2.48676 13.4155 2.66026 13.4155C2.76176 13.4155 2.86226 13.4105 2.96176 13.4015L2.94926 13.4025C3.23626 13.3705 3.49576 13.317 3.74576 13.242L3.71426 13.25C3.81926 13.22 3.82676 13.185 3.77426 13.0925C3.49576 12.6095 3.23426 12.0455 3.02276 11.4575L2.99926 11.3825C2.98176 11.335 2.96676 11.285 2.93926 11.205C3.37176 11.565 3.78176 11.9075 4.20926 12.225C4.39176 12.3625 4.57926 12.495 4.75676 12.635C4.78226 12.658 4.81576 12.6725 4.85326 12.6725C4.89076 12.6725 4.92426 12.6585 4.94976 12.635C5.56926 12.2485 6.10676 11.8365 6.60176 11.3785L6.59476 11.385L6.71726 11.2725Z" fill="black"/>
<path d="M15.6098 5.1725C15.3203 4.981 14.9733 4.8525 14.5998 4.8135L14.5898 4.8125C14.7208 5.395 14.7958 6.064 14.7958 6.751C14.7958 6.867 14.7938 6.982 14.7893 7.097L14.7898 7.0805C14.7423 7.068 14.7373 7.0255 14.7223 6.9955C14.2703 6.1465 13.8303 5.4355 13.3503 4.754L13.3948 4.8205C13.3578 4.759 13.2918 4.719 13.2163 4.719C13.2068 4.719 13.1978 4.7195 13.1888 4.721C12.4358 4.7595 11.7298 4.8595 11.0448 5.017L11.1273 5.001L11.0123 5.021C11.0123 4.966 11.0448 4.951 11.0673 4.926C11.4583 4.4915 11.8273 4.017 12.1613 3.5165L12.1898 3.471C12.2143 3.4445 12.2298 3.409 12.2298 3.37C12.2298 3.3225 12.2073 3.2805 12.1728 3.2535C11.6273 2.654 11.0238 2.123 10.3668 1.664L10.3323 1.641C10.2903 1.616 10.2538 1.586 10.2228 1.5515C10.5573 1.574 10.8678 1.6285 11.1663 1.7135L11.1348 1.706C11.7228 1.856 12.2353 2.052 12.7173 2.2985L12.6748 2.2785C12.7548 2.316 12.7948 2.331 12.8198 2.216C12.8678 2.0465 12.8953 1.8515 12.8953 1.6505C12.8953 1.5855 12.8923 1.521 12.8868 1.4575L12.8873 1.4655C12.9348 1.506 12.9783 1.547 13.0193 1.59C13.3998 2.001 13.7273 2.4705 13.9838 2.9805L13.9998 3.0155C14.0373 3.0915 14.0878 3.1555 14.1488 3.2075L14.1498 3.208C14.7708 3.7335 15.2698 4.3835 15.6108 5.121L15.6248 5.1555L15.6098 5.1725Z" fill="black"/>
<path d="M2.90976 11.125C2.82126 11.102 2.74426 11.0625 2.67876 11.009L2.67976 11.01C2.26526 10.774 1.91026 10.532 1.57576 10.2645L1.59226 10.2775C1.49476 10.1975 1.46226 10.22 1.40726 10.32C1.21326 10.66 1.05526 11.053 0.953762 11.4685L0.947262 11.5C0.937762 11.5365 0.925762 11.568 0.910762 11.598L0.912262 11.595C0.714262 11.1495 0.582762 10.6325 0.545762 10.0895L0.544762 10.075C0.536262 9.977 0.531762 9.863 0.531762 9.7475C0.531762 9.632 0.536762 9.518 0.545762 9.405L0.544762 9.42C0.545262 9.413 0.545762 9.4045 0.545762 9.3965C0.545762 9.3335 0.522762 9.2765 0.484262 9.2325C0.317262 9.0335 0.174762 8.807 0.0662617 8.561L0.0592617 8.543C0.0412617 8.5165 0.0307617 8.4835 0.0307617 8.4485C0.0307617 8.3795 0.0717617 8.32 0.130762 8.2935L0.131762 8.293C0.275762 8.1925 0.440262 8.102 0.614262 8.0295L0.631762 8.023C0.732762 7.99 0.809262 7.909 0.836262 7.8075L0.836762 7.8055C1.04576 7.1865 1.30976 6.65 1.63326 6.156L1.61676 6.183C1.63026 6.162 1.64326 6.144 1.65726 6.127L1.65676 6.128C1.69926 6.5105 1.73926 6.878 1.77926 7.243C1.79676 7.383 1.77926 7.5655 1.85426 7.648C1.92926 7.7305 2.10426 7.633 2.25176 7.613C2.72026 7.547 3.27576 7.502 3.83876 7.4885L3.85676 7.488C3.85676 7.5505 3.79426 7.573 3.75926 7.603C3.21376 8.063 2.72326 8.5475 2.27326 9.069L2.25926 9.0855C2.22076 9.1245 2.19726 9.1775 2.19726 9.2365C2.19726 9.267 2.20376 9.2955 2.21476 9.322L2.21426 9.3205C2.40826 9.9925 2.64576 10.573 2.93626 11.121L2.91176 11.0705C2.91176 11.0905 2.93926 11.1105 2.91176 11.1355L2.90976 11.125Z" fill="black"/>
<path d="M13.5448 13.845C13.2008 14.195 12.8148 14.501 12.3933 14.7555L12.3673 14.77C11.1853 15.5355 9.74176 15.993 8.19176 16H8.18976C8.17126 16.002 8.14926 16.003 8.12726 16.003C8.10526 16.003 8.08326 16.002 8.06176 16H8.06476C8.54026 15.863 8.95526 15.6745 9.33526 15.4355L9.31476 15.4475C8.88376 15.1995 8.51126 14.918 8.17826 14.596L8.17976 14.5975C8.53726 14.6375 8.85476 14.665 9.17976 14.68C9.50476 14.695 9.85226 14.695 10.1798 14.68C10.2613 14.679 10.3338 14.6435 10.3848 14.588C10.8033 14.1775 11.1873 13.735 11.5338 13.263L11.5548 13.233L11.6873 13.0555C11.7873 13.2605 11.7873 13.7505 11.6873 14.4905C12.3853 14.3325 12.9998 14.1045 13.5733 13.8075L13.5298 13.828L13.5448 13.845Z" fill="black"/>
<path d="M1.65226 6.09C1.43326 5.7965 1.23026 5.465 1.05876 5.1145L1.04226 5.0775C0.730262 5.4565 0.439262 5.879 0.185262 6.326L0.162262 6.37C0.521762 4.45 1.54676 2.816 2.98326 1.68L2.99976 1.6675C2.74926 2.0565 2.51376 2.5055 2.31826 2.975L2.29726 3.0325C2.63076 2.954 3.01826 2.903 3.41526 2.89H3.42476L3.27476 3C2.78376 3.3695 2.35276 3.7295 1.94076 4.1105L1.95226 4.1C1.90376 4.151 1.87026 4.217 1.85976 4.2905V4.2925C1.79976 4.533 1.74726 4.8305 1.71276 5.134L1.70976 5.1675C1.67726 5.4625 1.66476 5.75 1.65226 6.09Z" fill="black"/>
<path d="M15.6248 5.1555C15.6248 5.168 15.6248 5.185 15.6248 5.1875C15.6248 5.19 15.6048 5.1875 15.6023 5.1725L15.6248 5.1555Z" fill="black"/>
<path d="M2.90726 11.1275H2.92726V11.145V11.125L2.90726 11.1275Z" fill="black"/>
<path d="M13.5248 13.8275C13.5398 13.815 13.5523 13.805 13.5673 13.8275L13.5448 13.8475L13.5248 13.8275Z" fill="black"/>
</g>
<defs>
<clipPath id="clip0_6_593">
<rect width="16" height="16" fill="white"/>
</clipPath>
</defs>
</svg>
