<svg width="16" height="16" viewBox="0 0 16 16" fill="none" xmlns="http://www.w3.org/2000/svg">
<g clip-path="url(#clip0_6_546)">
<path d="M7.88342 0C8.09942 0.606 8.32392 1.112 8.58142 1.5985L8.54992 1.5335L9.27642 1.207C9.36642 1.1585 9.47342 1.13 9.58742 1.13C9.95542 1.13 10.2539 1.4285 10.2539 1.7965C10.2539 2.08 10.0769 2.322 9.82792 2.4185L9.82342 2.42L9.21692 2.6935C9.65842 3.3575 10.1144 3.9365 10.6124 4.4765L10.6034 4.467L11.5634 3.5005C11.6844 3.3795 11.8519 3.3045 12.0369 3.3045C12.4064 3.3045 12.7064 3.604 12.7064 3.974C12.7064 4.159 12.6314 4.326 12.5104 4.4475L11.5239 5.414C12.0034 5.8585 12.5259 6.275 13.0779 6.651L13.1239 6.6805L13.4104 6.014C13.5219 5.7745 13.7604 5.6115 14.0369 5.6115C14.4174 5.6115 14.7259 5.92 14.7259 6.3005C14.7259 6.4045 14.7029 6.503 14.6619 6.5915L14.6639 6.5875L14.3039 7.374C14.7769 7.6325 15.3364 7.8805 15.9169 8.083L15.9974 8.1075C15.9974 8.074 15.9974 8.041 15.9974 8.001C15.9974 3.5825 12.4159 0.001 7.99742 0.001L7.88342 0Z" fill="black"/>
<path d="M13.7299 8.5735L13.3764 9.3335C13.2694 9.567 13.0384 9.726 12.7699 9.727C12.6709 9.7265 12.5769 9.7045 12.4924 9.6655L12.4964 9.667C12.2634 9.5595 12.1049 9.328 12.1049 9.0595C12.1049 8.9605 12.1264 8.867 12.1649 8.7825L12.1634 8.7865L12.5699 7.873C11.8199 7.381 11.1669 6.872 10.5579 6.3155L10.5699 6.3265L10.1364 6.76C10.0164 6.879 9.85192 6.9525 9.66992 6.9535C9.66892 6.9535 9.66742 6.9535 9.66592 6.9535C9.48292 6.9535 9.31692 6.8795 9.19642 6.76C9.07642 6.6395 9.00242 6.4735 9.00242 6.29C9.00242 6.1065 9.07642 5.9405 9.19642 5.82L9.62292 5.3865C9.04642 4.7515 8.51042 4.0545 8.03442 3.316L7.99642 3.253L7.04992 3.6795C6.96992 3.717 6.87592 3.739 6.77692 3.7395C6.77192 3.7395 6.76542 3.7395 6.75942 3.7395C6.39142 3.7395 6.09292 3.441 6.09292 3.073C6.09292 2.805 6.25142 2.5735 6.47942 2.468L6.48342 2.4665L7.32992 2.08C7.04592 1.5325 6.78342 0.8875 6.57842 0.217L6.55642 0.1335C3.28492 0.749 0.745418 3.2885 0.137418 6.5105L0.129418 6.56C0.883418 6.7865 1.52892 7.0495 2.14242 7.3645L2.07592 7.3335L2.46242 6.487C2.57642 6.2735 2.79792 6.131 3.05242 6.131C3.42042 6.131 3.71892 6.4295 3.71892 6.7975C3.71892 6.8825 3.70292 6.9635 3.67442 7.038L3.67592 7.0335L3.24942 8C4.06042 8.5235 4.76592 9.07 5.42142 9.6705L5.40942 9.66L5.84292 9.2335C5.95892 9.134 6.11042 9.073 6.27642 9.073C6.64442 9.073 6.94292 9.3715 6.94292 9.7395C6.94292 9.9055 6.88242 10.0575 6.78192 10.174L6.78242 10.173L6.35592 10.6065C6.90892 11.202 7.41842 11.8555 7.86892 12.551L7.90292 12.6065L8.80942 12.2C8.92242 12.1095 9.06692 12.055 9.22442 12.055C9.59242 12.055 9.89092 12.3535 9.89092 12.7215C9.89092 13.0525 9.64942 13.3275 9.33292 13.3795L9.32892 13.38L8.54242 13.7335C8.86492 14.337 9.15942 15.0435 9.38592 15.78L9.40892 15.867C12.6804 15.2515 15.2199 12.712 15.8279 9.49L15.8359 9.4405C15.0199 9.1845 14.3224 8.8905 13.6594 8.5405L13.7289 8.574L13.7299 8.5735Z" fill="black"/>
<path d="M8.10342 16C7.87842 15.329 7.63042 14.761 7.33992 14.2185L7.36992 14.28L6.58342 14.6665C6.50342 14.704 6.40942 14.726 6.31042 14.7265C6.30442 14.7265 6.29792 14.727 6.29092 14.727C5.92292 14.727 5.62442 14.4285 5.62442 14.0605C5.62442 13.7865 5.78992 13.551 6.02592 13.4485L6.03042 13.447L6.69692 13.1605C6.29142 12.5625 5.87492 12.04 5.42242 11.552L5.43042 11.5605L4.45042 12.494C4.33242 12.6015 4.17492 12.6675 4.00192 12.6675C4.00042 12.6675 3.99842 12.6675 3.99692 12.6675C3.99592 12.6675 3.99492 12.6675 3.99342 12.6675C3.81042 12.6675 3.64442 12.5935 3.52392 12.474C3.40192 12.353 3.32692 12.1855 3.32692 12.0005C3.32692 11.8155 3.40242 11.648 3.52392 11.527L4.49042 10.567C3.95642 10.086 3.37092 9.636 2.75142 9.2335L2.69692 9.2005L2.42342 9.807C2.31642 10.0405 2.08542 10.1995 1.81692 10.2005C1.71792 10.2 1.62392 10.178 1.53942 10.139L1.54342 10.1405C1.31042 10.033 1.15192 9.8015 1.15192 9.533C1.15192 9.434 1.17342 9.3405 1.21192 9.256L1.21042 9.26L1.53692 8.5335C1.11592 8.3075 0.609918 8.0825 0.086918 7.893L0.00341797 7.8665C0.00341797 7.9065 0.00341797 7.94 0.00341797 7.98C0.00341797 7.986 0.00341797 7.993 0.00341797 8C0.00341797 12.416 3.58142 15.996 7.99642 16H8.10342Z" fill="black"/>
</g>
<defs>
<clipPath id="clip0_6_546">
<rect width="16" height="16" fill="white"/>
</clipPath>
</defs>
</svg>
