<svg width="16" height="16" viewBox="0 0 16 16" fill="none" xmlns="http://www.w3.org/2000/svg">
<g clip-path="url(#clip0_6_225)">
<path d="M7.99994 0C7.99344 0 7.98644 0 7.97894 0C4.26394 0 1.25244 3.0115 1.25244 6.7265C1.25244 6.771 1.25294 6.8155 1.25394 6.86V6.8535V12.447H5.60044V7.6535H3.55394V6.8535C3.55244 6.8095 3.55144 6.7585 3.55144 6.7065C3.55144 4.273 5.52444 2.3 7.95794 2.3C7.97294 2.3 7.98794 2.3 8.00244 2.3H7.99994C8.01244 2.3 8.02744 2.3 8.04244 2.3C10.4759 2.3 12.4489 4.273 12.4489 6.7065C12.4489 6.758 12.4479 6.8095 12.4464 6.861V6.8535V7.6535H10.3999V12.447H12.2864C11.8529 13.4805 10.4664 13.7005 7.99994 13.7005V16.0005C10.1934 16.0005 14.7464 16.0005 14.7464 11.654V6.854C14.7474 6.8165 14.7474 6.772 14.7474 6.7275C14.7474 3.0125 11.7359 0.001 8.02094 0.001C8.01344 0.001 8.00594 0.001 7.99844 0.001L7.99994 0Z" fill="black"/>
</g>
<defs>
<clipPath id="clip0_6_225">
<rect width="16" height="16" fill="white"/>
</clipPath>
</defs>
</svg>
