<svg width="16" height="16" viewBox="0 0 16 16" fill="none" xmlns="http://www.w3.org/2000/svg">
<g clip-path="url(#clip0_6_586)">
<path d="M8 16C3.5815 16 0 12.4185 0 8C0 3.5815 3.5815 0 8 0C12.4185 0 16 3.5815 16 8C16 12.4185 12.4185 16 8 16ZM11.5945 7.01C11.7515 5.962 10.953 5.3985 9.862 5.0225L10.216 3.6025L9.352 3.3875L9.007 4.77C8.78 4.713 8.547 4.66 8.3145 4.607L8.662 3.2155L7.798 3L7.444 4.4195C7.256 4.3765 7.071 4.3345 6.892 4.2895L6.893 4.285L5.701 3.9875L5.471 4.9105C5.471 4.9105 6.1125 5.0575 6.099 5.0665C6.449 5.154 6.512 5.3855 6.5015 5.5695L6.0985 7.187C6.1225 7.193 6.1535 7.202 6.1885 7.2155L6.097 7.193L5.532 9.459C5.489 9.565 5.3805 9.7245 5.1355 9.664C5.1445 9.6765 4.5075 9.5075 4.5075 9.5075L4.0785 10.4965L5.2035 10.777C5.4125 10.8295 5.6175 10.8845 5.819 10.936L5.4615 12.372L6.325 12.587L6.679 11.167C6.915 11.2305 7.144 11.2895 7.368 11.3455L7.015 12.7595L7.879 12.9745L8.2365 11.5415C9.7105 11.8205 10.8185 11.708 11.285 10.375C11.661 9.302 11.2665 8.6825 10.491 8.279C11.056 8.149 11.481 7.7775 11.5945 7.01ZM9.6195 9.779C9.353 10.8525 7.5455 10.272 6.9595 10.1265L7.4345 8.224C8.0205 8.3705 9.899 8.66 9.6195 9.779ZM9.887 6.9945C9.6435 7.971 8.1395 7.4745 7.652 7.353L8.082 5.628C8.5695 5.7495 10.141 5.976 9.887 6.9945Z" fill="black"/>
</g>
<defs>
<clipPath id="clip0_6_586">
<rect width="16" height="16" fill="white"/>
</clipPath>
</defs>
</svg>
