<svg width="16" height="16" viewBox="0 0 16 16" fill="none" xmlns="http://www.w3.org/2000/svg">
<g clip-path="url(#clip0_6_493)">
<path d="M16 12.666H15.6735C14.831 12.7215 14.068 13.021 13.443 13.4935L13.4535 13.486C13.0715 13.8055 12.575 13.9995 12.0335 13.9995C12.022 13.9995 12.01 13.9995 11.9985 13.999H12.0005C11.985 13.9995 11.967 13.9995 11.9485 13.9995C11.417 13.9995 10.9295 13.8105 10.55 13.496L10.5535 13.499C9.938 13.0285 9.173 12.7245 8.34 12.6665L8.327 12.666H7.6805C6.836 12.7205 6.07 13.02 5.4435 13.4935L5.454 13.486C5.0755 13.8055 4.582 13.9995 4.0435 13.9995C4.0285 13.9995 4.0135 13.9995 3.9985 13.999H4.0005C3.9865 13.9995 3.9695 13.9995 3.953 13.9995C3.4225 13.9995 2.936 13.8105 2.557 13.496L2.5605 13.499C1.9455 13.028 1.18 12.724 0.3465 12.6665L0.3335 12.666H0V14.666C0.0205 14.6655 0.044 14.6655 0.068 14.6655C1.006 14.6655 1.8705 14.979 2.563 15.507L2.553 15.4995C2.928 15.811 3.4145 16 3.9455 16C3.9645 16 3.9835 15.9995 4.0025 15.9995H3.9995C4.015 16 4.033 16 4.0515 16C4.583 16 5.0705 15.811 5.45 15.4965L5.4465 15.4995C6.129 14.979 6.9935 14.6655 7.9315 14.6655C7.9555 14.6655 7.9795 14.6655 8.0035 14.666H8C8.0215 14.6655 8.047 14.6655 8.0725 14.6655C9.011 14.6655 9.8765 14.979 10.57 15.507L10.56 15.4995C10.936 15.811 11.423 16 11.9545 16C11.9705 16 11.9865 16 12.0025 15.9995H12C12.0125 16 12.0275 16 12.0425 16C12.577 16 13.0675 15.811 13.4505 15.4965L13.4465 15.4995C14.1265 14.979 14.9895 14.6655 15.925 14.6655C15.9515 14.6655 15.9775 14.6655 16.0035 14.666H15.9995L16 12.666Z" fill="black"/>
<path d="M9.1265 2.97302C9.3545 3.10702 9.629 3.18602 9.922 3.18602C10.802 3.18602 11.5155 2.47252 11.5155 1.59252C11.5155 0.712523 10.802 -0.000976562 9.922 -0.000976562C9.334 -0.000976562 8.82 0.318023 8.544 0.792023L8.54 0.799523C8.407 1.02702 8.329 1.30052 8.329 1.59252C8.329 2.17952 8.6465 2.69252 9.1195 2.96902L9.1265 2.97302Z" fill="black"/>
<path d="M14.22 9.66602C13.7315 9.99452 13.143 10.2125 12.508 10.2715L12.493 10.2725L10.993 7.85902C10.713 7.32802 10.2755 6.91152 9.743 6.66602L9.7265 6.65902L8.9465 6.31252L9.34 5.64602L13.6065 7.77952L14.353 6.28602L10.3995 4.28602C10.2395 4.31852 10.056 4.33752 9.868 4.33752C9.381 4.33752 8.9235 4.21252 8.525 3.99252L8.5395 3.99952C7.9755 3.65952 7.55 3.13902 7.3385 2.51902L7.333 2.49952C6.733 2.25952 5.9995 1.63952 5.9995 -0.000476599H4.2995C4.2995 2.05952 5.233 3.20602 6.226 3.78602L5.606 4.88602C5.4725 5.12052 5.3935 5.40152 5.3935 5.70052C5.3935 6.21652 5.628 6.67802 5.9965 6.98402L5.999 6.98602L6.2925 7.86602L2.826 9.19952L0.2325 8.85952C0.225 8.91952 0.2205 8.98902 0.2205 9.05902C0.2205 9.91002 0.8555 10.6125 1.6775 10.7185L1.686 10.7195L11.386 11.9195C11.6075 11.952 11.864 11.9715 12.1245 11.973H12.126C13.2555 11.9725 14.304 11.626 15.1715 11.0345L15.153 11.0465L14.22 9.66602ZM6.3665 9.61952L7.233 9.27952C7.7205 9.09802 8.0615 8.63652 8.0615 8.09552C8.0615 7.95652 8.039 7.82252 7.997 7.69702L7.9995 7.70602L9.073 8.17952C9.282 8.27902 9.448 8.44052 9.5505 8.64052L9.553 8.64652L10.4665 10.1265L6.3665 9.61952Z" fill="black"/>
</g>
<defs>
<clipPath id="clip0_6_493">
<rect width="16" height="16" fill="white"/>
</clipPath>
</defs>
</svg>
