<svg width="16" height="16" viewBox="0 0 16 16" fill="none" xmlns="http://www.w3.org/2000/svg">
<path d="M3.8125 14.5H12.3125V16H3.8125V14.5Z" fill="black"/>
<path d="M0 1.75V13.25H16V1.75H0ZM7.625 10.5C7.625 11.0525 7.1775 11.5 6.625 11.5H2.625C2.0725 11.5 1.625 11.0525 1.625 10.5V4.5C1.625 3.9475 2.0725 3.5 2.625 3.5H6.625C7.1775 3.5 7.625 3.9475 7.625 4.5V10.5ZM14.375 10.5C14.375 11.0525 13.9275 11.5 13.375 11.5H9.375C8.8225 11.5 8.375 11.0525 8.375 10.5V4.5C8.375 3.9475 8.8225 3.5 9.375 3.5H13.375C13.9275 3.5 14.375 3.9475 14.375 4.5V10.5Z" fill="black"/>
<path d="M4.625 5C3.465 5 2.805 5.9325 2.805 7.5C2.805 9.0675 3.465 10 4.625 10C5.785 10 6.445 9.0675 6.445 7.5C6.445 5.9325 5.7825 5 4.625 5ZM4.625 8.945C4.19 8.945 3.95 8.4275 3.95 7.4875C3.95 6.5475 4.2 6.03 4.625 6.03C5.05 6.03 5.3 6.5575 5.3 7.4875C5.3 8.4175 5.0575 8.945 4.625 8.945Z" fill="black"/>
<path d="M11.375 5C10.215 5 9.555 5.9325 9.555 7.5C9.555 9.0675 10.215 10 11.375 10C12.535 10 13.195 9.0675 13.195 7.5C13.195 5.9325 12.5325 5 11.375 5ZM11.375 8.945C10.94 8.945 10.7 8.4275 10.7 7.4875C10.7 6.5475 10.95 6.03 11.375 6.03C11.8 6.03 12.05 6.5575 12.05 7.4875C12.05 8.4175 11.8075 8.945 11.375 8.945Z" fill="black"/>
</svg>
