<svg width="16" height="16" viewBox="0 0 16 16" fill="none" xmlns="http://www.w3.org/2000/svg">
<g clip-path="url(#clip0_6_484)">
<path d="M7.97494 6.39273C6.87994 5.93023 5.63494 6.43523 4.05744 8.34773C2.47994 10.2602 2.88994 11.7227 2.92494 12.2502C2.95994 12.7777 3.69494 15.9252 7.53244 16.0002C11.3699 16.0752 12.6724 9.92023 12.6724 9.92023C12.6724 9.92023 9.06744 6.85273 7.97494 6.39273Z" fill="black"/>
<path d="M8.41994 0.135234C8.29794 0.0827344 8.15594 0.0527344 8.00694 0.0527344C7.56644 0.0527344 7.18744 0.318734 7.02244 0.698734L7.01994 0.705734L3.26994 9.57573C3.25894 9.60223 3.25244 9.63274 3.25244 9.66473C3.25244 9.75974 3.30944 9.84173 3.39094 9.87773L3.39244 9.87823L4.93994 10.5307C4.96544 10.5412 4.99544 10.5477 5.02694 10.5477C5.12144 10.5477 5.20294 10.4912 5.23944 10.4097L5.23994 10.4082L8.99994 1.53573C9.05244 1.41423 9.08294 1.27223 9.08294 1.12373C9.08294 0.680234 8.81244 0.299734 8.42744 0.138734L8.42044 0.136234L8.41994 0.135234Z" fill="black"/>
<path d="M12.5124 2.38273C12.3229 2.21023 12.0704 2.10473 11.7929 2.10473C11.4854 2.10473 11.2079 2.23473 11.0129 2.44223L4.59244 9.40273C4.55444 9.44323 4.53144 9.49773 4.53144 9.55773C4.53144 9.62373 4.55944 9.68373 4.60494 9.72523L5.83994 10.8627C5.88094 10.9007 5.93594 10.9237 5.99644 10.9237C6.06294 10.9237 6.12294 10.8952 6.16494 10.8502L12.5749 3.89273C12.7504 3.70323 12.8579 3.44873 12.8579 3.16873C12.8579 2.85823 12.7254 2.57823 12.5134 2.38323L12.5124 2.38273Z" fill="black"/>
<path d="M9.44244 9.46273L8.30244 8.66523C7.56294 8.14173 6.64994 7.81723 5.66244 7.78523H5.65494L4.49994 7.75023C4.49344 7.74973 4.48594 7.74973 4.47794 7.74973C4.21844 7.74973 3.99544 7.90673 3.89894 8.13123L3.89744 8.13523L3.74994 8.47523L9.39994 10.3427L9.53244 10.1952C9.60694 10.1082 9.65244 9.99473 9.65244 9.87023C9.65244 9.70273 9.56994 9.55473 9.44394 9.46373L9.44244 9.46273Z" fill="black"/>
<path d="M8.59644 10.5372L8.58594 10.5307C8.08694 10.2197 7.93494 9.56323 8.24594 9.06423L8.52694 8.61373C8.83794 8.11473 9.49444 7.96274 9.99344 8.27374L10.0039 8.28023C10.5029 8.59123 10.6549 9.24774 10.3439 9.74673L10.0629 10.1972C9.75194 10.6962 9.09544 10.8482 8.59644 10.5372Z" fill="black"/>
<path d="M10.7499 7.25023C10.5884 7.14723 10.3909 7.08623 10.1799 7.08623C9.80144 7.08623 9.46844 7.28223 9.27794 7.57873L9.27544 7.58273L8.61544 8.63023C8.52544 8.78373 8.47194 8.96823 8.47194 9.16573C8.47194 9.75673 8.95094 10.2357 9.54194 10.2357C9.90594 10.2357 10.2274 10.0542 10.4204 9.77623L10.4229 9.77273L11.0829 8.72523C11.1864 8.56324 11.2479 8.36623 11.2479 8.15423C11.2479 7.77573 11.0514 7.44323 10.7544 7.25273L10.7499 7.25023Z" fill="black"/>
<path d="M10.5684 11.6352L10.5579 11.6287C10.0619 11.3152 9.91444 10.6587 10.2279 10.1627L10.5524 9.64923C10.8659 9.15323 11.5224 9.00573 12.0184 9.31923L12.0289 9.32573C12.5249 9.63923 12.6724 10.2957 12.3589 10.7917L12.0344 11.3052C11.7209 11.8012 11.0644 11.9487 10.5684 11.6352Z" fill="black"/>
<path d="M12.5324 8.51773C12.3704 8.41323 12.1729 8.35123 11.9604 8.35123C11.5829 8.35123 11.2514 8.54774 11.0624 8.84373L11.0599 8.84823L10.4999 9.73073C10.3959 9.89273 10.3344 10.0902 10.3344 10.3017C10.3344 10.8917 10.8124 11.3697 11.4024 11.3697C11.7804 11.3697 12.1124 11.1732 12.3024 10.8772L12.3049 10.8727L12.8649 10.0002C12.9719 9.83723 13.0354 9.63723 13.0354 9.42223C13.0354 9.04223 12.8364 8.70874 12.5369 8.52024L12.5324 8.51773Z" fill="black"/>
<path d="M9.39494 10.2502C9.39494 10.2502 9.15744 11.5252 7.22244 11.2252C5.28744 10.9252 4.74994 10.9627 4.74994 10.9627L5.71494 9.28773L9.39494 10.2502Z" fill="black"/>
<path d="M9.27494 9.48273L7.39494 8.52773C6.97094 8.30573 6.47444 8.15873 5.94794 8.11873L4.39744 8.00023C4.37594 7.99823 4.35044 7.99723 4.32494 7.99723C3.93994 7.99723 3.61344 8.24874 3.50144 8.59674L3.49994 8.60273L3.06244 10.0152C3.06244 10.0152 3.82744 13.1527 5.59244 10.8027C6.35994 9.78023 6.55994 10.9527 8.14994 10.8502C8.89994 10.8027 9.26994 10.5477 9.46494 10.2877C9.53094 10.1987 9.57094 10.0872 9.57094 9.96573C9.57094 9.75623 9.45194 9.57423 9.27794 9.48423L9.27494 9.48273Z" fill="black"/>
</g>
<defs>
<clipPath id="clip0_6_484">
<rect width="16" height="16" fill="white"/>
</clipPath>
</defs>
</svg>
