<svg width="16" height="16" viewBox="0 0 16 16" fill="none" xmlns="http://www.w3.org/2000/svg">
<g clip-path="url(#clip0_6_450)">
<path d="M8 0C3.5815 0 0 3.5815 0 8C0 12.4185 3.5815 16 8 16C12.4185 16 16 12.4185 16 8C16 3.5815 12.4185 0 8 0ZM8 10.435C7.231 10.435 6.6075 9.8115 6.6075 9.0425C6.6075 8.2735 7.231 7.65 8 7.65C8.769 7.65 9.3925 8.2735 9.3925 9.0425C9.3925 9.8115 8.769 10.435 8 10.435ZM10.0875 5.9125H10.085C9.316 5.9125 8.6925 5.289 8.6925 4.52C8.6925 3.751 9.316 3.1275 10.085 3.1275C10.854 3.1275 11.4775 3.751 11.4775 4.52V4.5225C11.4775 5.29 10.855 5.9125 10.0875 5.9125ZM13.2175 10.0875H13.215C12.446 10.0875 11.8225 9.464 11.8225 8.695C11.8225 7.926 12.446 7.3025 13.215 7.3025C13.984 7.3025 14.6075 7.926 14.6075 8.695C14.6075 9.463 13.9855 10.086 13.2175 10.0875Z" fill="black"/>
</g>
<defs>
<clipPath id="clip0_6_450">
<rect width="16" height="16" fill="white"/>
</clipPath>
</defs>
</svg>
