<svg width="16" height="16" viewBox="0 0 16 16" fill="none" xmlns="http://www.w3.org/2000/svg">
<g clip-path="url(#clip0_6_286)">
<path d="M12.8665 6.0665C12.4245 6.0665 12.0665 6.4245 12.0665 6.8665V9.08H11.533C11.535 9.058 11.5365 9.0325 11.5365 9.007C11.5365 8.565 11.1785 8.207 10.7365 8.207C10.2945 8.207 9.93649 8.565 9.93649 9.007C9.93649 9.0325 9.93749 9.058 9.93999 9.083V9.08H9.40649V8.5465C9.40649 8.1045 9.04849 7.7465 8.60649 7.7465C8.16449 7.7465 7.80649 8.1045 7.80649 8.5465V9.08H7.27299V4.7935C7.27499 4.7715 7.27649 4.746 7.27649 4.7205C7.27649 4.2785 6.91849 3.9205 6.47649 3.9205C6.03449 3.9205 5.67649 4.2785 5.67649 4.7205C5.67649 4.746 5.67749 4.7715 5.67999 4.7965L5.67949 4.7935V11.687L3.71949 10.3535C3.57649 10.249 3.39749 10.1865 3.20349 10.1865C2.71749 10.1865 2.32349 10.5805 2.32349 11.0665C2.32349 11.3085 2.42149 11.528 2.57949 11.687L6.13299 15.367C6.51699 15.758 7.05099 16.0005 7.64149 16.0005C7.64299 16.0005 7.64499 16.0005 7.64649 16.0005H11.533C12.706 15.9965 13.656 15.047 13.6595 13.874V6.867C13.6595 6.865 13.6595 6.8625 13.6595 6.8605C13.6595 6.4225 13.305 6.0665 12.8665 6.0665Z" fill="black"/>
<path d="M10.1335 5.9735L12.0135 2.1735H10.1335V0L8.25349 3.5335H10.1335V5.9735Z" fill="black"/>
</g>
<defs>
<clipPath id="clip0_6_286">
<rect width="16" height="16" fill="white"/>
</clipPath>
</defs>
</svg>
