<svg width="16" height="16" viewBox="0 0 16 16" fill="none" xmlns="http://www.w3.org/2000/svg">
<g clip-path="url(#clip0_6_413)">
<path d="M8.06999 0.0478516C8.18999 0.112852 8.31999 0.0778516 8.44999 0.100352C8.70099 0.148352 8.91549 0.205852 9.12349 0.275852L9.08749 0.265352C9.18749 0.300352 9.18249 0.345352 9.11499 0.407852C9.01749 0.497852 8.90649 0.575352 8.78599 0.636352L8.77749 0.640352C8.14649 0.980852 7.39449 1.31335 6.61599 1.58935L6.49999 1.62535C5.52549 2.01285 4.32549 2.38735 3.09349 2.67835L2.90749 2.71535C2.71499 2.76135 2.48649 2.79585 2.25349 2.81235L2.23999 2.81285C2.17749 2.81285 2.09999 2.81285 2.06749 2.75535C2.03499 2.69785 2.09749 2.64535 2.13249 2.60035C2.40499 2.28385 2.70599 2.00435 3.03499 1.76085L3.04999 1.75035C3.09999 1.71035 3.12249 1.73285 3.15749 1.75035C3.23149 1.81535 3.32899 1.85485 3.43549 1.85485C3.48649 1.85485 3.53499 1.84585 3.58049 1.82935L3.57749 1.83035C4.30249 1.63035 5.02999 1.44535 5.75749 1.25535C6.08849 1.14635 6.36849 1.02585 6.63649 0.885352L6.60499 0.900352C7.05249 0.707852 7.49999 0.500352 7.95249 0.297852C7.82249 0.218352 7.67049 0.158352 7.50899 0.126852L7.49999 0.125352C7.60749 0.0453516 7.74999 0.125352 7.85749 0.0478516H8.06999Z" fill="black"/>
<path d="M10.29 3.84785C9.43499 3.86685 8.61449 3.97235 7.82399 4.15635L7.90499 4.14035C7.84149 4.15085 7.78899 4.19135 7.76299 4.24685L7.76249 4.24785C7.35599 5.00035 6.99349 5.87735 6.72249 6.79385L6.69749 6.89285C6.69099 6.91335 6.68749 6.93635 6.68749 6.96085C6.68749 6.99685 6.69599 7.03135 6.71099 7.06185L6.71049 7.06035C7.12949 7.97135 7.68349 8.74835 8.35649 9.40385L8.35799 9.40535C8.43799 9.48285 8.52299 9.45535 8.60799 9.44785C8.91299 9.41535 8.92049 9.41035 8.96549 9.71285C9.02799 10.1454 9.07799 10.5779 9.11299 11.0129C9.11299 11.0854 9.11299 11.1054 9.03049 11.0904C7.83199 10.8844 6.81849 10.2184 6.15999 9.28435L6.15049 9.27035C5.72199 8.66785 5.43499 7.93685 5.35199 7.14485L5.35049 7.12535C5.32149 6.93835 5.30499 6.72235 5.30499 6.50235C5.30499 5.60735 5.57799 4.77635 6.04499 4.08785L6.03549 4.10285C6.70799 3.04585 7.82299 2.32235 9.11299 2.19185L9.13049 2.19035C9.24999 2.17785 9.38849 2.17035 9.52899 2.17035C10.4235 2.17035 11.2495 2.46385 11.916 2.96035L11.9055 2.95285C12.902 3.63735 13.5895 4.71035 13.7485 5.94885L13.7505 5.97035C13.794 6.20385 13.819 6.47285 13.819 6.74785C13.819 8.05085 13.258 9.22235 12.364 10.0349L12.3605 10.0384C12.0055 10.3644 11.592 10.6344 11.139 10.8299L11.1105 10.8409C11.0005 10.8884 10.983 10.8609 10.978 10.7509C10.9655 10.2579 10.925 9.78685 10.858 9.32435L10.8655 9.38835C10.8455 9.26085 10.8505 9.17335 11.023 9.18085C11.0245 9.18085 11.026 9.18085 11.028 9.18085C11.219 9.18085 11.383 9.06585 11.4545 8.90135L11.4555 8.89835C11.8985 8.21085 12.2345 7.40785 12.417 6.54785L12.4255 6.50085C12.4325 6.47135 12.436 6.43785 12.436 6.40335C12.436 6.32585 12.4165 6.25235 12.3815 6.18885L12.3825 6.19135C11.953 5.34585 11.4385 4.61885 10.8355 3.97635L10.84 3.98135C10.774 3.89335 10.67 3.83685 10.553 3.83685C10.528 3.83685 10.504 3.83935 10.4805 3.84435L10.483 3.84385C10.4445 3.84835 10.4 3.85035 10.355 3.85035C10.3325 3.85035 10.3095 3.84985 10.2875 3.84835L10.29 3.84785Z" fill="black"/>
<path d="M0.129988 6.37785C0.179988 6.17935 0.243488 6.00735 0.321988 5.84385L0.314988 5.86035C0.439988 5.55285 0.608988 5.28835 0.816988 5.06085L0.814988 5.06285C0.990988 4.84085 1.26049 4.69985 1.56299 4.69985C1.72749 4.69985 1.88249 4.74185 2.01749 4.81485L2.01249 4.81235C2.47149 5.04585 2.84349 5.39335 3.10099 5.81785L3.10749 5.82985C3.56999 6.52635 3.89949 7.35185 4.03799 8.24035L4.04249 8.27485C4.11399 8.68885 4.15499 9.16585 4.15499 9.65185C4.15499 9.99885 4.13399 10.3414 4.09349 10.6779L4.09749 10.6374C4.04249 11.2849 3.86399 11.8794 3.58499 12.4134L3.59749 12.3874C3.53599 12.5004 3.47299 12.5969 3.40349 12.6879L3.40749 12.6824C3.02749 13.1824 2.49499 13.2349 1.95249 13.0249C1.40999 12.8149 1.12249 12.3649 0.874988 11.8499C1.07499 11.8849 1.30549 11.9049 1.54049 11.9049C1.72099 11.9049 1.89899 11.8929 2.07299 11.8704L2.05249 11.8724C2.06349 11.8719 2.07599 11.8714 2.08849 11.8714C2.10099 11.8714 2.11399 11.8719 2.12649 11.8724H2.12499C2.59999 11.7824 2.60249 11.7849 2.69749 11.2799C2.82499 10.6069 2.91499 9.81285 2.94649 9.00385L2.94749 8.97235C2.94849 8.95285 2.94899 8.93035 2.94899 8.90735C2.94899 8.67885 2.90149 8.46135 2.81599 8.26435L2.81999 8.27485C2.47449 7.40585 2.04399 6.65535 1.52349 5.97735L1.53999 5.99985C1.51449 5.95535 1.46749 5.92585 1.41349 5.92585C1.39299 5.92585 1.37399 5.92985 1.35649 5.93735L1.35749 5.93685C0.931988 6.04835 0.563488 6.18685 0.213988 6.35785L0.249988 6.34185C0.214988 6.35685 0.184988 6.39035 0.129988 6.37785Z" fill="black"/>
<path d="M11.81 15.0654C11.847 14.8434 11.8705 14.5839 11.875 14.3204V14.3154C11.8815 14.2749 11.885 14.2284 11.885 14.1809C11.885 14.0639 11.863 13.9519 11.823 13.8489L11.825 13.8549C11.75 13.7449 11.55 13.7699 11.4025 13.7374C10.749 13.5859 9.93099 13.4494 9.09899 13.3584L8.99999 13.3499C8.99499 13.3494 8.98899 13.3494 8.98249 13.3494C8.94249 13.3494 8.90499 13.3579 8.87049 13.3729L8.87199 13.3724C7.88349 13.7204 7.02749 14.1554 6.24149 14.6859L6.28199 14.6599C6.23499 14.6839 6.20349 14.7319 6.20349 14.7869C6.20349 14.8014 6.20549 14.8149 6.20949 14.8284L6.20899 14.8274C6.27699 15.2359 6.40799 15.6024 6.59299 15.9349L6.58399 15.9174C6.02149 15.7774 5.48649 15.6449 5.17649 15.1199C5.09349 14.9764 5.04499 14.8044 5.04499 14.6204C5.04499 14.3334 5.16449 14.0744 5.35649 13.8899C5.73299 13.4869 6.19999 13.1719 6.72499 12.9774L6.74949 12.9694C7.67149 12.5734 8.74449 12.3429 9.87149 12.3429C9.92549 12.3429 9.97899 12.3434 10.0325 12.3444H10.0245C10.736 12.3489 11.4085 12.5119 12.0105 12.7989L11.982 12.7869C12.146 12.8659 12.2875 12.9604 12.414 13.0714L12.412 13.0694C12.623 13.2454 12.756 13.5084 12.756 13.8024C12.756 13.9659 12.7145 14.1199 12.642 14.2544L12.6445 14.2494C12.4445 14.5949 12.161 14.8719 11.8205 15.0589L11.8095 15.0644L11.81 15.0654Z" fill="black"/>
<path d="M9.74999 8.04785C9.72799 8.04885 9.70199 8.04985 9.67549 8.04985C8.87199 8.04985 8.22049 7.39835 8.22049 6.59485C8.22049 5.79135 8.87199 5.13985 9.67549 5.13985C10.446 5.13985 11.0765 5.73835 11.127 6.49585V6.50035C11.1295 6.53085 11.1305 6.56635 11.1305 6.60185C11.1305 7.37785 10.52 8.01135 9.75249 8.04785H9.74899H9.74999Z" fill="black"/>
<path d="M16 8.10285C15.957 9.49735 15.614 10.8014 15.033 11.9669L15.0575 11.9129C14.981 12.0744 14.882 12.2129 14.7625 12.3304C14.6475 12.4379 14.5825 12.4179 14.5575 12.2629C14.536 12.0779 14.524 11.8639 14.524 11.6469C14.524 11.4299 14.536 11.2154 14.56 11.0049L14.5575 11.0309C14.5925 10.4084 14.66 9.78085 14.7475 9.17335C14.88 8.02735 15.0915 6.99685 15.3835 6.00035L15.35 6.13335C15.3845 6.02185 15.4295 5.92485 15.4855 5.83585L15.4825 5.84085C15.5225 5.78085 15.56 5.77335 15.59 5.85835C15.7535 6.28335 15.8765 6.77785 15.937 7.29135L15.94 7.32085C15.97 7.59335 15.9825 7.86785 16 8.10285Z" fill="black"/>
<path d="M1.65999 9.40035C1.66049 9.41785 1.66099 9.43835 1.66099 9.45885C1.66099 9.75485 1.60199 10.0374 1.49499 10.2949L1.50049 10.2804C1.46349 10.3624 1.42199 10.4334 1.37349 10.4984L1.37549 10.4954C1.29049 10.6314 1.14149 10.7204 0.971488 10.7204C0.844988 10.7204 0.729988 10.6709 0.644988 10.5904C0.397988 10.3744 0.217488 10.0874 0.134988 9.76185L0.132488 9.75035C0.0489883 9.50085 0.000488281 9.21335 0.000488281 8.91435C0.000488281 8.64585 0.0394883 8.38585 0.112488 8.14085L0.107488 8.15985C0.150488 8.02035 0.213488 7.89885 0.294488 7.79185L0.292488 7.79485C0.378488 7.65735 0.528988 7.56685 0.700988 7.56685C0.834488 7.56685 0.955488 7.62135 1.04249 7.70935C1.31999 7.97285 1.51499 8.32135 1.58599 8.71335L1.58749 8.72435C1.63249 8.92685 1.65899 9.15985 1.65999 9.39835V9.40035Z" fill="black"/>
<path d="M8.78749 15.9529C8.77699 15.9529 8.76449 15.9534 8.75249 15.9534C8.51249 15.9534 8.28099 15.9159 8.06449 15.8464L8.08049 15.8509C7.97149 15.8159 7.87699 15.7659 7.79299 15.7019L7.79549 15.7034C7.69549 15.6349 7.63049 15.5214 7.63049 15.3924C7.63049 15.3089 7.65749 15.2319 7.70399 15.1694L7.70349 15.1704C7.78499 15.0404 7.89549 14.9354 8.02649 14.8629L8.03099 14.8604C8.46549 14.5994 8.98949 14.4454 9.54949 14.4454C9.79299 14.4454 10.03 14.4744 10.2565 14.5294L10.236 14.5254C10.3625 14.5544 10.474 14.6064 10.571 14.6774L10.5685 14.6754C10.686 14.7439 10.764 14.8694 10.764 15.0134C10.764 15.1194 10.722 15.2154 10.6535 15.2854C10.539 15.4234 10.398 15.5354 10.2385 15.6144L10.231 15.6179C9.81199 15.8294 9.31749 15.9529 8.79399 15.9529C8.79199 15.9529 8.78899 15.9529 8.78749 15.9529Z" fill="black"/>
<path d="M11.0325 0.735352C11.67 0.983352 12.2205 1.29985 12.7145 1.68635L12.7 1.67535C13.5645 2.30335 14.273 3.09035 14.7935 3.99935L14.8125 4.03535C14.83 4.06535 14.86 4.08785 14.8475 4.14285C14.502 3.88935 14.2005 3.64335 13.912 3.38335L13.9225 3.39285C12.985 2.55535 12.0525 1.71035 11.12 0.867852C11.082 0.831352 11.047 0.793352 11.0145 0.752852L11.0125 0.750352L11.0325 0.735352Z" fill="black"/>
<path d="M3.80249 1.26285C3.80249 1.20035 3.85249 1.20285 3.88249 1.18535C4.57599 0.775352 5.38149 0.456352 6.23699 0.272352L6.28999 0.262852C6.31549 0.260352 6.34499 0.259352 6.37499 0.259352C6.40499 0.259352 6.43449 0.260852 6.46399 0.263352L6.45999 0.262852C6.46249 0.267852 6.46449 0.273852 6.46449 0.280352C6.46449 0.296352 6.45449 0.309852 6.44049 0.315352C5.69999 0.740352 4.83849 1.06485 3.92549 1.24185L3.87249 1.25035C3.86149 1.25135 3.84899 1.25235 3.83649 1.25235C3.82399 1.25235 3.81099 1.25185 3.79849 1.25035H3.79999L3.80249 1.26285Z" fill="black"/>
<path d="M11.0125 0.750352C11.0125 0.750352 10.985 0.750352 10.9975 0.725352C11.01 0.700352 11.02 0.725352 11.0325 0.725352L11.0125 0.750352Z" fill="black"/>
</g>
<defs>
<clipPath id="clip0_6_413">
<rect width="16" height="16" fill="white"/>
</clipPath>
</defs>
</svg>
