<svg width="16" height="16" viewBox="0 0 16 16" fill="none" xmlns="http://www.w3.org/2000/svg">
<path d="M5.69257 12.0726C5.86007 12.0726 6.02257 12.0726 6.18007 12.0726C6.19207 12.0706 6.20607 12.0691 6.22007 12.0691C6.32907 12.0691 6.42057 12.1431 6.44707 12.2436L6.44757 12.2451C6.51757 12.4076 6.60757 12.5601 6.69757 12.7251H1.13257C0.595066 12.7251 0.207566 12.2851 0.207566 11.6801V4.76757C0.206066 4.74907 0.205566 4.72707 0.205566 4.70507C0.205566 4.25957 0.505066 3.88457 0.913066 3.76907L0.920066 3.76757C0.976566 3.75457 1.04157 3.74757 1.10807 3.74757C1.11207 3.74757 1.11657 3.74757 1.12057 3.74757H9.66757C9.67057 3.74707 9.67357 3.74707 9.67707 3.74707C9.71507 3.74707 9.74807 3.76807 9.76507 3.79957C10.6667 5.1329 11.5697 6.4559 12.4731 7.76757C12.4921 7.79157 12.5031 7.82257 12.5031 7.85607C12.5031 7.87257 12.5001 7.88857 12.4951 7.90357L12.4956 7.90257C12.4581 8.03757 12.4281 8.17757 12.3931 8.31257C12.2681 8.24257 12.1431 8.16757 12.0206 8.10507C11.8326 8.00907 11.6106 7.95257 11.3756 7.95257C11.3686 7.95257 11.3616 7.95257 11.3546 7.95257H11.3556C10.9531 7.95257 10.5506 7.95257 10.1506 7.95257C10.0206 7.95257 9.96057 7.90257 9.93057 7.75757C9.91757 7.68007 9.91007 7.59107 9.91007 7.50007C9.91007 7.40907 9.91757 7.32007 9.93207 7.23307L9.93057 7.24257C9.93057 7.24257 9.93057 7.24257 9.94807 7.24257C10.1156 7.24257 10.1006 7.27507 10.1106 7.06507C10.1146 6.99957 10.1171 6.92357 10.1171 6.84657C10.1171 6.58407 10.0891 6.32807 10.0361 6.08107L10.0406 6.10507C9.95157 5.64057 9.67657 5.25307 9.29757 5.01657L9.29057 5.01257C8.95707 4.78757 8.54657 4.65307 8.10457 4.65307C7.96957 4.65307 7.83807 4.66557 7.71007 4.68957L7.72307 4.68757C7.09257 4.82757 6.61707 5.34957 6.54857 5.99357L6.54807 6.00007C6.52807 6.12507 6.52307 6.25007 6.50557 6.37757C6.49907 6.41407 6.48207 6.44557 6.45807 6.47007L5.63807 7.11757L5.55557 7.18507H6.70557C6.72707 7.23357 6.73957 7.29057 6.73957 7.35007C6.73957 7.40957 6.72707 7.46657 6.70457 7.51757L6.70557 7.51507C6.61307 7.70507 6.53807 7.90757 6.45557 8.10507C6.44557 8.12357 6.43707 8.14557 6.43107 8.16807L6.43057 8.17007C6.41307 8.25757 6.43057 8.28257 6.51057 8.28507C6.59057 8.28757 6.70307 8.28507 6.80057 8.28507C6.83207 8.28807 6.85907 8.30507 6.87557 8.32957C6.93207 8.45257 6.96557 8.59707 6.96557 8.74907C6.96557 8.79857 6.96207 8.84757 6.95507 8.89557L6.95557 8.89007C6.95107 8.92407 6.93007 8.95257 6.90107 8.96707C6.55157 9.11557 6.27757 9.38707 6.12907 9.72557L6.12557 9.73507C5.93457 10.1086 5.80157 10.5436 5.75207 11.0036L5.75057 11.0201C5.71307 11.3501 5.70307 11.6851 5.68057 12.0201C5.68257 12.0396 5.68707 12.0571 5.69357 12.0741L5.69257 12.0726ZM2.05257 9.90507C1.70107 9.94307 1.42957 10.2381 1.42957 10.5966C1.42957 10.9551 1.70107 11.2501 2.04957 11.2876L2.05257 11.2881C2.40407 11.2501 2.67557 10.9551 2.67557 10.5966C2.67557 10.2381 2.40407 9.94307 2.05557 9.90557L2.05257 9.90507Z" fill="black"/>
<path d="M11.0576 3.75007H14.8976C15.3576 3.75957 15.7341 4.10657 15.7896 4.55307L15.7901 4.55757C15.8016 4.62757 15.8081 4.70807 15.8081 4.79007C15.8081 4.80057 15.8081 4.81107 15.8076 4.82157V4.82007C15.8076 7.10507 15.8076 9.3884 15.8076 11.6701C15.8086 11.6886 15.8096 11.7096 15.8096 11.7316C15.8096 12.1956 15.4936 12.5861 15.0646 12.6986L15.0576 12.7001C15.0316 12.7026 15.0016 12.7036 14.9716 12.7036C14.9416 12.7036 14.9111 12.7021 14.8816 12.6996L14.8856 12.7001H13.2056V12.0601H13.2881C13.6881 12.0601 14.0906 12.0601 14.4931 12.0601C14.4966 12.0601 14.5006 12.0601 14.5041 12.0601C14.6336 12.0601 14.7506 12.0076 14.8356 11.9226C15.0991 11.6536 15.2931 11.3151 15.3876 10.9376L15.3906 10.9226C15.3911 10.9156 15.3916 10.9076 15.3916 10.8996C15.3916 10.8656 15.3846 10.8331 15.3726 10.8036L15.3731 10.8051C15.3631 10.7781 15.3486 10.7546 15.3306 10.7351C15.1501 10.5311 15.0121 10.2846 14.9341 10.0136L14.9306 10.0001C14.8916 9.88007 14.8096 9.78357 14.7031 9.72657L14.7006 9.72507C14.5331 9.61757 14.3781 9.49007 14.2156 9.37007C14.1841 9.34707 14.1641 9.31057 14.1641 9.26907C14.1641 9.26257 14.1646 9.25607 14.1656 9.24957C14.1656 9.20207 14.1656 9.15257 14.1656 9.10257C14.1696 9.08407 14.1716 9.06307 14.1716 9.04107C14.1716 8.94107 14.1256 8.85157 14.0536 8.79307C14.0031 8.75857 13.9441 8.72457 13.8836 8.69607L13.8756 8.69257C13.8766 8.68207 13.8771 8.67007 13.8771 8.65807C13.8771 8.54507 13.8286 8.44357 13.7506 8.37307C13.7261 8.35007 13.6936 8.33407 13.6581 8.33007C13.6181 8.33007 13.5926 8.30507 13.6001 8.25507C13.6006 8.24757 13.6011 8.23857 13.6011 8.22957C13.6011 8.12457 13.5531 8.03007 13.4781 7.96807C13.4481 7.93307 13.3801 7.93257 13.3276 7.92757C13.2861 7.92557 13.2506 7.89957 13.2356 7.86307L11.0881 3.81507L11.0576 3.75007Z" fill="black"/>
</svg>
