<svg width="16" height="16" viewBox="0 0 16 16" fill="none" xmlns="http://www.w3.org/2000/svg">
<path d="M10.1589 6.4865C9.32946 6.4865 8.64992 5.8 8.64992 4.9465C8.64992 4.64 8.76113 4.3665 8.91105 4.1265C8.77387 4.1065 8.63669 4.0865 8.49951 4.0865C7.12131 4.0865 6.00426 5.2265 6.00426 6.633C6.00426 8.0395 7.12131 9.1795 8.49951 9.1795C9.8777 9.1795 10.9948 8.0395 10.9948 6.633C10.9948 6.4865 10.9752 6.353 10.9556 6.213C10.7204 6.3665 10.4524 6.4795 10.1521 6.4795L10.1589 6.4865Z" fill="black"/>
<path d="M11.2044 12.66C13.4449 11.6135 15 9.3135 15 6.6335C15.0064 2.9735 12.0932 0 8.49999 0C4.9068 0 2 2.9735 2 6.6335C2 9.3135 3.56143 11.6135 5.79554 12.66L3.5874 14.6C3.03867 15.08 3.37182 16 4.09693 16H12.9026C13.6277 16 13.9608 15.08 13.4121 14.6L11.2044 12.66ZM4.13613 6.6335C4.13613 4.1735 6.0895 2.18 8.49999 2.18C10.9105 2.18 12.8639 4.1735 12.8639 6.6335C12.8639 9.0935 10.9105 11.087 8.49999 11.087C6.0895 11.087 4.13613 9.0935 4.13613 6.6335Z" fill="black"/>
</svg>
