<svg width="16" height="16" viewBox="0 0 16 16" fill="none" xmlns="http://www.w3.org/2000/svg">
<g clip-path="url(#clip0_6_263)">
<path d="M11.5825 9.6375C11.061 10.4135 10.4135 11.061 9.6625 11.5665L9.6375 11.5825L14.055 16L16 14.055L11.5825 9.6375Z" fill="black"/>
<path d="M5.775 0C2.5855 0 0 2.5855 0 5.775C0 8.9645 2.5855 11.55 5.775 11.55C8.9645 11.55 11.55 8.9645 11.55 5.775C11.55 2.5855 8.9645 0 5.775 0ZM5.775 9.25C3.856 9.25 2.3 7.694 2.3 5.775C2.3 3.856 3.856 2.3 5.775 2.3C7.694 2.3 9.25 3.856 9.25 5.775C9.25 7.694 7.694 9.25 5.775 9.25Z" fill="black"/>
</g>
<defs>
<clipPath id="clip0_6_263">
<rect width="16" height="16" fill="white"/>
</clipPath>
</defs>
</svg>
