<svg width="16" height="16" viewBox="0 0 16 16" fill="none" xmlns="http://www.w3.org/2000/svg">
<path d="M8 3.42083C8.65236 3.42083 9.18121 2.87891 9.18121 2.21042C9.18121 1.54192 8.65236 1 8 1C7.34764 1 6.81879 1.54192 6.81879 2.21042C6.81879 2.87891 7.34764 3.42083 8 3.42083Z" fill="black"/>
<path d="M1.18121 5.23646C1.83357 5.23646 2.36242 4.69454 2.36242 4.02604C2.36242 3.35755 1.83357 2.81563 1.18121 2.81563C0.528845 2.81563 0 3.35755 0 4.02604C0 4.69454 0.528845 5.23646 1.18121 5.23646Z" fill="black"/>
<path d="M6.97142 4.98982C7.49366 4.30553 8.51145 4.32891 9.00325 5.03649L11.5666 8.72453L12.7363 7.04152C13.5181 5.9167 15.246 6.65265 15.0193 8.01394L14.1485 13.2435C13.9796 14.258 13.1215 15 12.1172 15H3.88286C2.87852 15 2.02047 14.2581 1.85154 13.2435L0.92605 7.68546C0.704545 6.3552 2.36374 5.60335 3.17501 6.66637L4.43346 8.31533L6.97142 4.98982Z" fill="black"/>
<path d="M16 4.02604C16 4.69454 15.4712 5.23646 14.8188 5.23646C14.1664 5.23646 13.6376 4.69454 13.6376 4.02604C13.6376 3.35755 14.1664 2.81563 14.8188 2.81563C15.4712 2.81563 16 3.35755 16 4.02604Z" fill="black"/>
</svg>
