<svg width="16" height="16" viewBox="0 0 16 16" fill="none" xmlns="http://www.w3.org/2000/svg">
<g clip-path="url(#clip0_6_405)">
<path d="M1.83502 10.6021C2.08502 7.40459 5.52002 4.27459 6.32002 3.10209C7.01502 2.04959 6.75002 0.799594 6.52752 0.249594C6.52202 0.232094 6.51852 0.212094 6.51852 0.191094C6.51852 0.0835937 6.60602 -0.00390625 6.71352 -0.00390625C6.72652 -0.00390625 6.73902 -0.00240625 6.75102 -0.00040625C10.226 0.729594 10.4 3.37209 10.295 4.55459C10.19 5.73709 10.4 6.53459 11.165 6.36209C11.93 6.18959 11.6725 4.24959 11.6725 4.24959C11.6725 4.24959 15.185 8.42209 13.8975 12.5246C13.25 14.6696 11.6375 15.5746 10.2825 15.9996C10.2125 16.0346 10.1425 15.9646 10.1425 15.8621C10.3175 15.2021 10.77 14.6796 10.9075 13.9496C11.1875 12.7496 10.075 11.6446 9.25002 11.0196C8.73402 10.6351 8.40302 10.0266 8.40302 9.34059C8.40302 9.30859 8.40352 9.27659 8.40502 9.24509V9.24959C8.40502 9.17959 8.30002 9.14459 8.26752 9.17959C7.72452 9.83359 7.17902 10.4231 6.60302 10.9816L6.59752 10.9871C5.31252 12.4121 4.65002 14.0121 5.79752 15.7846C5.83252 15.8546 5.76252 15.9571 5.69502 15.9246C2.84252 15.1571 1.66252 12.9996 1.83502 10.6021Z" fill="black"/>
</g>
<defs>
<clipPath id="clip0_6_405">
<rect width="16" height="16" fill="white"/>
</clipPath>
</defs>
</svg>
