<svg width="16" height="16" viewBox="0 0 16 16" fill="none" xmlns="http://www.w3.org/2000/svg">
<g clip-path="url(#clip0_6_332)">
<path d="M11.3335 5.18045C11.563 5.31595 11.839 5.39595 12.134 5.39595C13.014 5.39595 13.7275 4.68245 13.7275 3.80245C13.7275 2.92245 13.014 2.20895 12.134 2.20895C11.547 2.20895 11.034 2.52645 10.7575 2.99895L10.7535 3.00645C10.621 3.23445 10.543 3.50795 10.543 3.79945C10.543 4.38445 10.857 4.89645 11.326 5.17545L11.3335 5.18045Z" fill="black"/>
<path d="M2.90655 10.8869H2.95305C3.02705 10.9329 3.11255 10.9754 3.20255 11.0099L3.21305 11.0134C3.44105 11.1064 3.70555 11.1599 3.98305 11.1599C3.98905 11.1599 3.99505 11.1599 4.00055 11.1599C4.01705 11.1604 4.03555 11.1604 4.05505 11.1604C4.58205 11.1604 5.06555 10.9739 5.44305 10.6634L5.43905 10.6664C6.12255 10.1419 6.98955 9.82595 7.93055 9.82595C7.95455 9.82595 7.97855 9.82595 8.00255 9.82645H7.99905C8.01655 9.82595 8.03755 9.82595 8.05855 9.82595C9.00055 9.82595 9.86805 10.1419 10.562 10.6734L10.552 10.6659C10.926 10.9734 11.4095 11.1599 11.9365 11.1599C11.9585 11.1599 11.98 11.1594 12.002 11.1589H11.999C12.015 11.1594 12.0335 11.1594 12.052 11.1594C12.582 11.1594 13.0685 10.9729 13.45 10.6624L13.446 10.6654C14.126 10.1409 14.9905 9.82495 15.9285 9.82495C15.9535 9.82495 15.978 9.82495 16.003 9.82545H15.9995V7.82545C15.98 7.82495 15.9565 7.82495 15.9335 7.82495C14.994 7.82495 14.128 8.14095 13.4365 8.67245L13.446 8.66545C13.069 8.97295 12.5825 9.15945 12.052 9.15945C12.0335 9.15945 12.015 9.15945 11.9965 9.15895H11.999C11.9805 9.15945 11.959 9.15995 11.937 9.15995C11.41 9.15995 10.926 8.97345 10.5485 8.66295L10.5525 8.66595C10.0445 8.28045 9.43155 8.00595 8.76405 7.88945L8.73905 7.88595H8.61255C8.42705 7.85745 8.21205 7.84045 7.99355 7.83945H7.99255C7.96905 7.83895 7.94155 7.83845 7.91355 7.83845C6.98005 7.83845 6.11955 8.14945 5.42905 8.67345L5.43905 8.66595C5.06505 8.97345 4.58155 9.15995 4.05455 9.15995C4.03505 9.15995 4.01555 9.15995 3.99605 9.15895H3.99905C3.98005 9.15945 3.95755 9.15995 3.93455 9.15995C3.40805 9.15995 2.92505 8.97345 2.54855 8.66245L2.55205 8.66545L2.30555 8.49895L2.25205 8.46545L1.99855 8.33195L1.92505 8.29195L1.66505 8.16545H1.60505C1.13205 7.95295 0.580047 7.82795 -0.000953125 7.82545H-0.00195312V9.82545C0.0165469 9.82495 0.0380469 9.82495 0.0600469 9.82495C1.00105 9.82495 1.86805 10.1409 2.56155 10.6724L2.55155 10.6654L2.90655 10.8869Z" fill="black"/>
<path d="M16 11.1604C15.8865 11.1604 15.78 11.1604 15.6735 11.1604C14.826 11.2174 14.06 11.5244 13.4375 12.0074L13.447 12.0004C13.07 12.3079 12.5835 12.4944 12.053 12.4944C12.0345 12.4944 12.016 12.4944 11.9975 12.4939H12C11.9815 12.4944 11.96 12.4949 11.938 12.4949C11.411 12.4949 10.927 12.3084 10.5495 11.9979L10.5535 12.0009C9.93855 11.5324 9.17205 11.2319 8.33855 11.1814L8.32705 11.1809C8.22055 11.1809 8.12055 11.1809 8.00705 11.1809C7.89355 11.1809 7.78705 11.1809 7.68705 11.1809C6.83455 11.2279 6.06105 11.5289 5.43005 12.0084L5.44005 12.0009C5.06605 12.3084 4.58255 12.4949 4.05555 12.4949C4.03605 12.4949 4.01655 12.4949 3.99705 12.4939H4.00005C3.98105 12.4944 3.95855 12.4949 3.93555 12.4949C3.40905 12.4949 2.92605 12.3084 2.54955 11.9974L2.55305 12.0004C1.93955 11.5324 1.17605 11.2324 0.344547 11.1809L0.333047 11.1804C0.226547 11.1804 0.119547 11.1804 0.00654697 11.1804H4.69685e-05V13.1804C0.026047 13.1799 0.057047 13.1794 0.087547 13.1794C1.01705 13.1794 1.87455 13.4879 2.56355 14.0079L2.55305 14.0004C2.92605 14.3079 3.40905 14.4949 3.93555 14.4949C3.95805 14.4949 3.98055 14.4944 4.00305 14.4939H3.99955C4.01605 14.4944 4.03555 14.4944 4.05505 14.4944C4.58205 14.4944 5.06555 14.3079 5.44305 13.9974L5.43905 14.0004C6.12255 13.4759 6.98955 13.1599 7.93055 13.1599C7.95455 13.1599 7.97855 13.1599 8.00255 13.1604H7.99905C8.01655 13.1599 8.03755 13.1599 8.05855 13.1599C9.00055 13.1599 9.86805 13.4759 10.562 14.0074L10.552 13.9999C10.926 14.3074 11.4095 14.4939 11.9365 14.4939C11.9585 14.4939 11.98 14.4934 12.002 14.4929H11.999C12.015 14.4934 12.0335 14.4934 12.052 14.4934C12.582 14.4934 13.0685 14.3069 13.45 13.9964L13.446 13.9994C14.128 13.4749 14.9935 13.1589 15.933 13.1589C15.9565 13.1589 15.9795 13.1589 16.0025 13.1594H15.999V11.1594L16 11.1604Z" fill="black"/>
<path d="M3.29355 7.55395C3.68005 7.81395 3.70705 7.82745 3.96005 7.82745C4.21305 7.82745 4.28005 7.82745 4.66655 7.55395C5.55505 6.89095 6.67505 6.49295 7.88805 6.49295C7.92755 6.49295 7.96655 6.49345 8.00605 6.49395H8.00005C8.01255 6.49395 8.02705 6.49395 8.04155 6.49395C9.27705 6.49395 10.42 6.89145 11.3495 7.56545L11.333 7.55395C11.7195 7.81395 11.7465 7.82745 12.0395 7.82745C12.3325 7.82745 12.353 7.82745 12.746 7.55395C13.5595 6.95545 14.5665 6.57495 15.6585 6.51445L15.6725 6.51395L14.9125 5.28045C11.306 7.38045 10.179 5.49395 9.80605 4.87395C8.36605 2.46045 5.69955 0.553947 2.99955 1.73395L3.66605 3.26045C4.99955 2.68695 6.23955 3.34045 7.17955 4.23395L1.99955 6.84745C2.49355 7.04845 2.91955 7.28545 3.31155 7.56695L3.29355 7.55395Z" fill="black"/>
</g>
<defs>
<clipPath id="clip0_6_332">
<rect width="16" height="16" fill="white"/>
</clipPath>
</defs>
</svg>
