<svg width="16" height="16" viewBox="0 0 16 16" fill="none" xmlns="http://www.w3.org/2000/svg">
<g clip-path="url(#clip0_6_343)">
<path d="M2.36001 15.0595L2.08001 15.873C2.05201 15.9475 1.98151 16 1.89851 16C1.83701 16 1.78251 15.9715 1.74701 15.927L1.21301 15.22C1.18001 15.1755 1.12751 15.1465 1.06801 15.1465C1.06801 15.1465 1.06701 15.1465 1.06601 15.1465H0.186012C0.0830117 15.1465 -0.000488281 15.063 -0.000488281 14.96C-0.000488281 14.92 0.0120117 14.883 0.0335117 14.8525L0.539512 14.1265C0.550512 14.103 0.557012 14.0755 0.557012 14.0465C0.557012 14.0175 0.550512 13.99 0.539012 13.9655L0.539512 13.9665L0.306012 13.1C0.300512 13.083 0.297012 13.063 0.297012 13.0425C0.297012 12.9395 0.380512 12.856 0.483512 12.856C0.506012 12.856 0.527512 12.86 0.547012 12.867L0.545512 12.8665L1.38551 13.12C1.41001 13.131 1.43851 13.1375 1.46901 13.1375C1.49951 13.1375 1.52801 13.131 1.55351 13.1195L1.55201 13.12L2.27851 12.6135C2.30801 12.5925 2.34501 12.58 2.38501 12.58C2.48801 12.58 2.57151 12.6635 2.57151 12.7665V13.648C2.57151 13.7075 2.60001 13.76 2.64451 13.7925L3.35151 14.333C3.40751 14.366 3.44501 14.426 3.44501 14.4945C3.44501 14.571 3.39901 14.637 3.33301 14.6655L3.33201 14.666L2.51201 14.9525C2.44651 14.965 2.39201 15.004 2.35901 15.058L2.35851 15.059L2.36001 15.0595ZM15.06 2.39252L15.8735 2.11252C15.948 2.08452 16.0005 2.01402 16.0005 1.93102C16.0005 1.86952 15.972 1.81502 15.9275 1.77952L15.2205 1.24552C15.176 1.21252 15.147 1.16002 15.147 1.10052C15.147 1.10052 15.147 1.09952 15.147 1.09852V0.218523C15.147 0.115523 15.0635 0.0320234 14.9605 0.0320234C14.9205 0.0320234 14.8835 0.0445234 14.853 0.0660234L14.107 0.539023C14.0835 0.550023 14.056 0.556523 14.027 0.556523C13.998 0.556523 13.9705 0.550023 13.946 0.538523L13.947 0.539023L13.1005 0.305523C13.0835 0.300023 13.0635 0.296523 13.043 0.296523C12.94 0.296523 12.8565 0.380023 12.8565 0.483023C12.8565 0.505523 12.8605 0.527023 12.8675 0.546523L12.867 0.545023L13.1205 1.38502C13.1315 1.40952 13.138 1.43802 13.138 1.46852C13.138 1.49902 13.1315 1.52752 13.12 1.55302L13.1205 1.55152L12.614 2.27802C12.593 2.30752 12.5805 2.34452 12.5805 2.38452C12.5805 2.48752 12.664 2.57102 12.767 2.57102H13.6485C13.708 2.57102 13.7605 2.59952 13.793 2.64402L14.3335 3.35102C14.3665 3.40702 14.4265 3.44452 14.495 3.44452C14.5715 3.44452 14.6375 3.39852 14.666 3.33252L14.6665 3.33152L14.953 2.51152C14.9655 2.44602 15.0045 2.39152 15.0585 2.35852L15.0595 2.35802L15.06 2.39252Z" fill="black"/>
<path d="M6.66651 0.186023L0.186512 6.66602C0.0710117 6.06652 0.00301168 5.37502 1.16825e-05 4.66852V4.66602C0.00201168 3.24752 0.266012 1.89152 0.746012 0.642023L0.720012 0.719023C1.89201 0.265023 3.24801 0.00102344 4.66601 -0.000976562C5.37501 0.00202344 6.06751 0.0700234 6.73751 0.197023L6.66651 0.186023ZM15.82 9.33252L9.33351 15.819C9.93401 15.932 10.6255 15.9975 11.332 15.999H11.3335C12.752 15.997 14.108 15.733 15.3575 15.253L15.2805 15.279C15.7345 14.107 15.9985 12.751 16.0005 11.333C15.999 10.625 15.9335 9.93252 15.8095 9.26152L15.82 9.33252ZM15.3335 7.50602L7.50701 15.3325C4.31151 14.163 1.83651 11.688 0.692512 8.57102L0.667012 8.49252L8.49351 0.666023C11.689 1.83552 14.164 4.31052 15.308 7.42752L15.3335 7.50602ZM11.5465 8.23952C11.425 8.11352 11.255 8.03552 11.0665 8.03552C10.878 8.03552 10.708 8.11352 10.5865 8.23952L10.1265 8.69952L9.19301 7.77302L9.65951 7.30652C9.77951 7.18252 9.85351 7.01302 9.85351 6.82652C9.85351 6.44502 9.54451 6.13602 9.16301 6.13602C8.96801 6.13602 8.79201 6.21652 8.66651 6.34652L8.19951 6.81352L7.33301 5.88002L7.79301 5.42002C7.91651 5.29752 7.99301 5.12752 7.99301 4.94002C7.99301 4.56652 7.69001 4.26352 7.31651 4.26352C7.13051 4.26352 6.96201 4.33852 6.84001 4.46002L4.46001 6.80652C4.33851 6.92902 4.26351 7.09702 4.26351 7.28302C4.26351 7.65652 4.56651 7.95952 4.94001 7.95952C5.12751 7.95952 5.29751 7.88302 5.42001 7.75952L5.88001 7.33302L6.81351 8.25952L6.35351 8.72602C6.24051 8.84602 6.17151 9.00802 6.17151 9.18602C6.17151 9.55702 6.47251 9.85802 6.84351 9.85802C7.03651 9.85802 7.21051 9.77652 7.33301 9.64652L7.80001 9.18602L8.72651 10.1195L8.26651 10.5795C8.14301 10.702 8.06651 10.872 8.06651 11.0595C8.06651 11.433 8.36951 11.736 8.74301 11.736C8.92901 11.736 9.09751 11.661 9.21951 11.5395L11.566 9.19302C11.682 9.07302 11.7535 8.90952 11.7535 8.72952C11.7535 8.53602 11.671 8.36202 11.5395 8.24002L11.5465 8.23952Z" fill="black"/>
</g>
<defs>
<clipPath id="clip0_6_343">
<rect width="16" height="16" fill="white"/>
</clipPath>
</defs>
</svg>
