<svg width="16" height="16" viewBox="0 0 16 16" fill="none" xmlns="http://www.w3.org/2000/svg">
<path d="M11.82 1.94651C10.4265 1.48001 7.98 1.35301 8 1.33301C8 1.33301 5.5735 1.48651 4.18 1.94651C3.1535 2.28651 2 3.48651 2 3.91301C2 5.41951 2.3 7.17951 2.3 8.67951C2.3 9.42601 2.9065 10.486 3.4335 11.613C3.92 12.6465 4.467 13.4595 4.94 14.053C5.0535 14.2065 5.24 14.453 5.5 14.453C6.14 14.453 7.2865 12.9065 7.58 12.5065C8.0065 11.9265 8.0335 10.9665 7.78 10.273C7.3865 9.16651 6.4535 8.37301 5.62 8.37301C5.4265 8.37301 5.1735 8.38651 4.88 8.52651L4.74 7.50651H11.2465L11.1065 8.52651C10.8065 8.38651 10.5665 8.37301 10.3665 8.37301C9.533 8.37301 8.6 9.16651 8.2065 10.273C7.953 10.973 7.9865 11.933 8.4065 12.5065C8.7 12.9065 9.8465 14.453 10.4865 14.453C10.753 14.453 10.94 14.2065 11.0465 14.053C11.513 13.4595 12.0665 12.6465 12.553 11.613C13.0795 10.4865 13.6865 9.42651 13.6865 8.67951C13.6865 7.17951 13.9865 5.41301 13.9865 3.91301C13.9865 3.47951 12.84 2.29301 11.8065 1.94651H11.82ZM8 6.00001C7.08 6.00001 6.3335 5.25351 6.3335 4.33351C6.3335 3.41351 7.08 2.66701 8 2.66701C8.92 2.66701 9.6665 3.41351 9.6665 4.33351C9.6665 5.25351 8.92 6.00001 8 6.00001Z" fill="black"/>
</svg>
