<svg width="16" height="16" viewBox="0 0 16 16" fill="none" xmlns="http://www.w3.org/2000/svg">
<path d="M12 10.8275C12.4325 10.8275 12.865 10.8275 13.295 10.8275C13.3025 10.828 13.3115 10.828 13.3205 10.828C13.5305 10.828 13.716 10.7205 13.8235 10.557L13.825 10.5545C13.8765 10.468 13.9235 10.367 13.961 10.262L13.965 10.2495V7.022C13.9195 6.9965 13.8665 6.9775 13.8105 6.9675L13.8075 6.967C13.51 6.967 13.2125 6.967 12.915 6.967C12.7975 6.967 12.7725 6.992 12.7725 7.1045C12.7725 7.3095 12.7725 7.512 12.7725 7.717C12.7725 7.7995 12.805 7.847 12.895 7.847C12.985 7.847 12.995 7.892 12.995 7.962C12.995 8.582 12.995 9.1995 12.995 9.8195C12.995 9.902 12.9575 9.9395 12.8775 9.9395H12.575C12.4875 9.9395 12.45 9.902 12.45 9.812C12.45 9.637 12.45 9.4595 12.45 9.2845V5.447C12.45 5.297 12.465 5.282 12.6175 5.282C12.77 5.282 12.8675 5.282 13.0025 5.282C13.0875 5.282 13.13 5.3195 13.1275 5.407C13.1275 5.557 13.1275 5.7045 13.1275 5.8545C13.1275 5.9445 13.1675 5.9845 13.26 5.982C13.4425 5.982 13.625 5.982 13.8075 5.982C13.867 5.97 13.9195 5.95 13.9675 5.923L13.9645 5.9245V4.6745C13.906 4.525 13.763 4.421 13.5955 4.421C13.5765 4.421 13.558 4.4225 13.54 4.425L13.542 4.4245C13.027 4.4245 12.512 4.4245 11.997 4.4245C11.9845 4.4235 11.97 4.423 11.9555 4.423C11.6585 4.423 11.418 4.6635 11.418 4.9605C11.418 4.9745 11.4185 4.988 11.4195 5.0015V4.9995V10.2245C11.4185 10.2365 11.418 10.2505 11.418 10.265C11.418 10.5755 11.67 10.8275 11.9805 10.8275C11.987 10.8275 11.9935 10.828 12 10.8275Z" fill="black"/>
<path d="M1.955 8.44C1.955 9.1375 1.955 9.8375 1.955 10.535C1.954 10.5445 1.953 10.555 1.953 10.566C1.953 10.7165 2.075 10.8385 2.2255 10.8385C2.234 10.8385 2.2425 10.838 2.251 10.8375H2.635C2.885 10.8375 2.975 10.7425 2.975 10.5C2.975 9.7925 2.975 9.0825 2.975 8.375C2.975 8.2775 3 8.24 3.1025 8.2425C3.3925 8.2425 3.685 8.2425 3.975 8.2425C3.9825 8.243 3.9915 8.243 4.0005 8.243C4.263 8.243 4.4755 8.0305 4.4755 7.768C4.4755 7.759 4.475 7.75 4.4745 7.741C4.4745 7.7085 4.4745 7.6795 4.4745 7.6495C4.4745 6.9295 4.4745 6.21033 4.4745 5.492C4.4745 5.2595 4.4745 5.027 4.4745 4.797C4.4745 4.7955 4.4745 4.7935 4.4745 4.792C4.4745 4.5965 4.3175 4.4375 4.122 4.4345H2.0815C1.989 4.4345 1.9515 4.4795 1.954 4.5695V4.8495C1.954 5.617 1.954 6.3845 1.954 7.152C1.954 7.2445 1.929 7.302 1.8265 7.317C1.7915 7.317 1.7615 7.3595 1.729 7.382V8.1895C1.7565 8.2095 1.7815 8.2445 1.8115 8.2445C1.9515 8.2495 1.954 8.3345 1.954 8.4395L1.955 8.44ZM2.9825 5.48C2.9825 5.345 3.01 5.3175 3.145 5.3175C3.2075 5.3175 3.27 5.3175 3.3325 5.3175C3.395 5.3175 3.47 5.3625 3.4675 5.4575V6.3175C3.4675 6.5925 3.4675 6.87 3.4675 7.145C3.4675 7.2725 3.4375 7.3025 3.31 7.305H3.1425C3.01 7.305 2.9825 7.275 2.9825 7.1375C2.9825 7 2.9825 6.925 2.9825 6.8175C2.9825 6.37 2.98 5.925 2.9825 5.48Z" fill="black"/>
<path d="M8.25 7.8275C8.3925 7.8475 8.4 7.9375 8.4 8.0525C8.4 8.9225 8.4 9.8025 8.4 10.665C8.4 10.7575 8.425 10.825 8.53 10.825C9.115 10.825 9.6975 10.825 10.28 10.825C10.6205 10.806 10.889 10.5255 10.89 10.1825C10.89 9.455 10.89 8.725 10.89 7.995C10.89 7.989 10.8905 7.982 10.8905 7.975C10.8905 7.8345 10.837 7.706 10.7495 7.6095L10.53 7.36C10.594 7.32 10.6495 7.279 10.7015 7.2335L10.7 7.235C10.7705 7.1565 10.814 7.052 10.814 6.938C10.814 6.9175 10.8125 6.8975 10.81 6.878V6.8805C10.81 6.1755 10.81 5.4705 10.81 4.7655C10.811 4.756 10.8115 4.7445 10.8115 4.733C10.8115 4.5575 10.6695 4.4155 10.494 4.4155C10.48 4.4155 10.4665 4.4165 10.4535 4.418H10.455H8.58C8.42 4.418 8.4025 4.4355 8.4025 4.5955V6.773C8.4025 6.868 8.3775 6.928 8.2725 6.9505C8.226 6.972 8.192 7.014 8.1825 7.0645C8.1825 7.277 8.1825 7.493 8.1825 7.708C8.185 7.7505 8.225 7.8225 8.25 7.8275ZM9.3675 5.4075C9.367 5.404 9.367 5.4 9.367 5.396C9.367 5.3325 9.4185 5.281 9.482 5.281C9.4885 5.281 9.4945 5.2815 9.5005 5.2825H9.7175C9.8125 5.2825 9.8525 5.3325 9.8525 5.425V6.835C9.8525 6.96 9.815 6.995 9.6925 6.9975H9.5C9.415 6.9975 9.3675 6.9525 9.3675 6.87C9.37 6.3825 9.37 5.895 9.3725 5.4075H9.3675ZM9.3675 8.075C9.3665 8.0695 9.366 8.0625 9.366 8.056C9.366 7.9885 9.421 7.9335 9.4885 7.9335C9.495 7.9335 9.502 7.934 9.508 7.935H9.725C9.73 7.9345 9.7355 7.934 9.7415 7.934C9.809 7.934 9.864 7.989 9.864 8.0565C9.864 8.063 9.8635 8.0695 9.8625 8.076C9.8625 8.3635 9.8625 8.6505 9.8625 8.9355V9.7755C9.8625 9.9055 9.8325 9.9355 9.705 9.9355H9.5275C9.4 9.9355 9.3675 9.903 9.3675 9.7755V8.075Z" fill="black"/>
<path d="M5.1075 10.23C5.1325 10.5465 5.385 10.7965 5.7005 10.8175H5.7025C6.2025 10.8175 6.7025 10.8175 7.2025 10.8175C7.5175 10.7975 7.7685 10.549 7.7925 10.237V10.235C7.7925 10.1325 7.8075 10.03 7.8075 9.925V5C7.8075 4.865 7.8075 4.7325 7.8075 4.5975C7.8075 4.4625 7.765 4.43 7.64 4.43H7C6.805 4.43 6.7825 4.4525 6.7825 4.6475V9.75C6.7825 9.895 6.745 9.9325 6.5975 9.935H6.36C6.165 9.935 6.14 9.91 6.14 9.7125V4.6225C6.14 4.4575 6.11 4.43 5.9475 4.43H5.3225C5.1175 4.43 5.095 4.45 5.095 4.6525C5.095 6.4325 5.095 8.2125 5.095 9.9925C5.0975 10.07 5.1025 10.15 5.1075 10.23Z" fill="black"/>
<path d="M16 6.42V4.61H15.525V2.5H0.475V4.685H0V6.5H0.475V8.91H0V10.72H0.475V12.75H15.525V10.64H16V8.83H15.525V6.42H16ZM14.7125 11.845H1.2875V3.405H14.7125V11.845Z" fill="black"/>
</svg>
