<svg width="16" height="16" viewBox="0 0 16 16" fill="none" xmlns="http://www.w3.org/2000/svg">
<g clip-path="url(#clip0_6_418)">
<path d="M11.1735 0C10.4345 0.941 9.29698 1.54 8.01948 1.54C8.01248 1.54 8.00598 1.54 7.99948 1.54C7.99398 1.54 7.98798 1.54 7.98148 1.54C6.70398 1.54 5.56598 0.941 4.83398 0.0085L4.82748 0L0.000976562 1.1335V6.32H2.14098V16H13.861V6.32H16.001V1.1335L11.1735 0ZM7.99998 11.9535C6.40948 11.9535 5.11998 10.664 5.11998 9.0735C5.11998 7.483 6.40948 6.1935 7.99998 6.1935C9.59048 6.1935 10.88 7.483 10.88 9.0735C10.88 9.0755 10.88 9.078 10.88 9.08C10.88 10.667 9.59348 11.9535 8.00648 11.9535C8.00398 11.9535 8.00248 11.9535 7.99998 11.9535Z" fill="black"/>
</g>
<defs>
<clipPath id="clip0_6_418">
<rect width="16" height="16" fill="white"/>
</clipPath>
</defs>
</svg>
