<svg width="16" height="16" viewBox="0 0 16 16" fill="none" xmlns="http://www.w3.org/2000/svg">
<g clip-path="url(#clip0_6_499)">
<path d="M10.2604 3.90073C10.4889 4.03523 10.7644 4.11473 11.0579 4.11473C11.9379 4.11473 12.6514 3.40123 12.6514 2.52123C12.6514 1.64123 11.9379 0.927734 11.0579 0.927734C10.4729 0.927734 9.96143 1.24323 9.68443 1.71323L9.68043 1.72073C9.54643 1.94973 9.46693 2.22523 9.46693 2.51873C9.46693 3.10523 9.78243 3.61773 10.2529 3.89623L10.2604 3.90073Z" fill="black"/>
<path d="M12.9804 8.42073L13.2804 7.52073L12.1939 7.16073C11.1004 6.73623 10.2649 5.85673 9.90843 4.76123L9.90093 4.73423C9.87993 4.22973 9.62343 3.78923 9.23893 3.51773L9.23393 3.51423L9.09393 3.42073C8.84543 3.24423 8.53593 3.13873 8.20143 3.13873C7.68043 3.13873 7.21893 3.39523 6.93693 3.78923L6.93393 3.79373L4.44743 7.34023L5.11393 7.80023L7.11393 9.71373V13.6672H8.78043V9.00073L7.88043 8.14073L8.98043 6.58073C9.55893 7.50223 10.3944 8.21523 11.3864 8.62823L11.4204 8.64073C10.1789 9.14423 9.31943 10.3407 9.31943 11.7377C9.31943 13.5787 10.8119 15.0712 12.6529 15.0712C14.4939 15.0712 15.9864 13.5787 15.9864 11.7377C15.9864 10.0122 14.6754 8.59273 12.9949 8.42173L12.9804 8.42073ZM12.6804 13.7207C11.5759 13.7207 10.6804 12.8252 10.6804 11.7207C10.6804 10.6162 11.5759 9.72073 12.6804 9.72073C13.7849 9.72073 14.6804 10.6162 14.6804 11.7207C14.6804 12.8252 13.7849 13.7207 12.6804 13.7207Z" fill="black"/>
<path d="M3.34693 8.38773C1.50593 8.38773 0.0134277 9.88024 0.0134277 11.7212C0.0134277 13.5622 1.50593 15.0547 3.34693 15.0547C5.18793 15.0547 6.68043 13.5622 6.68043 11.7212C6.68043 9.88024 5.18793 8.38773 3.34693 8.38773ZM3.34693 13.7207C2.24243 13.7207 1.34693 12.8252 1.34693 11.7207C1.34693 10.6162 2.24243 9.72073 3.34693 9.72073C4.45143 9.72073 5.34693 10.6162 5.34693 11.7207C5.34693 12.8252 4.45143 13.7207 3.34693 13.7207Z" fill="black"/>
</g>
<defs>
<clipPath id="clip0_6_499">
<rect width="16" height="16" fill="white"/>
</clipPath>
</defs>
</svg>
