<svg width="16" height="16" viewBox="0 0 16 16" fill="none" xmlns="http://www.w3.org/2000/svg">
<g clip-path="url(#clip0_6_236)">
<path d="M12.367 8.5015C12.347 6.475 14.0195 5.5035 14.094 5.455C13.154 4.0795 11.69 3.8915 11.1685 3.8695C9.92251 3.7435 8.73751 4.603 8.10501 4.603C7.47451 4.603 6.49851 3.888 5.46501 3.907C4.10701 3.927 2.85451 4.6965 2.15551 5.913C0.744511 8.3615 1.79401 11.9885 3.16951 13.9745C3.84151 14.9465 4.64301 16.038 5.69501 15.999C6.70801 15.9585 7.09151 15.3435 8.31601 15.3435C9.54051 15.3435 9.88501 15.999 10.9575 15.979C12.0475 15.9585 12.7385 14.9885 13.406 14.0135C14.1775 12.886 14.4955 11.794 14.514 11.738C14.49 11.727 12.388 10.922 12.367 8.5015ZM10.3525 2.555C10.911 1.8775 11.288 0.9375 11.185 0C10.3805 0.033 9.40551 0.536 8.82851 1.2115C8.31051 1.811 7.85751 2.768 7.97901 3.687C8.87701 3.757 9.79351 3.2305 10.3525 2.555Z" fill="black"/>
</g>
<defs>
<clipPath id="clip0_6_236">
<rect width="16" height="16" fill="white"/>
</clipPath>
</defs>
</svg>
