<svg width="16" height="16" viewBox="0 0 16 16" fill="none" xmlns="http://www.w3.org/2000/svg">
<g clip-path="url(#clip0_6_364)">
<path d="M15.25 2H13V9.5675C13 10.635 12.135 11.5 11.0675 11.5H6V16H7.25C7.3575 15.314 7.926 14.7895 8.6235 14.75H8.6275C9.3275 14.791 9.8935 15.315 9.999 15.9915L10 16H12C12.107 15.3135 12.6755 14.7885 13.3735 14.75H13.3775C14.0825 14.785 14.655 15.311 14.7615 15.9915L14.7625 16H16.0125V2.75C16.0125 2.336 15.6765 2 15.2625 2C15.258 2 15.254 2 15.25 2Z" fill="black"/>
<path d="M10.5 0H0.75C0.336 0 0 0.336 0 0.75V9C0 9.414 0.336 9.75 0.75 9.75H1V12.5L5.125 9.75H10.5C10.914 9.75 11.25 9.414 11.25 9V0.75C11.25 0.336 10.914 0 10.5 0Z" fill="black"/>
</g>
<defs>
<clipPath id="clip0_6_364">
<rect width="16" height="16" fill="white"/>
</clipPath>
</defs>
</svg>
