<svg width="16" height="16" viewBox="0 0 16 16" fill="none" xmlns="http://www.w3.org/2000/svg">
<g clip-path="url(#clip0_18_48)">
<path fill-rule="evenodd" clip-rule="evenodd" d="M2.29944 5.64818C3.34163 4.39178 4.70641 3.37243 6.26599 2.92377C6.23027 2.90719 6.19443 2.89034 6.15856 2.87322C5.79543 2.69994 5.40747 2.4899 5.10302 2.25908C4.95081 2.14368 4.80268 2.01062 4.68907 1.86064C4.57665 1.71224 4.47408 1.51522 4.47408 1.28272C4.47408 0.946841 4.61732 0.6632 4.87709 0.458106C5.11327 0.271636 5.41505 0.173989 5.70417 0.115998C6.27793 0.000912889 7.04252 0 7.79799 0C8.55345 0 9.31805 0.000912948 9.89181 0.115998C10.1809 0.173989 10.4827 0.271636 10.7189 0.458105C10.9787 0.663199 11.1219 0.94684 11.1219 1.28272C11.1219 1.51522 11.0193 1.71224 10.9069 1.86064C10.7933 2.01062 10.6452 2.14368 10.493 2.25908C10.1991 2.48189 9.82736 2.68534 9.47528 2.85506C11.1427 3.26115 12.6012 4.32277 13.7006 5.64818C15.1159 7.35446 16 9.56885 16 11.6099C16 12.6346 15.7767 13.4577 15.3296 14.1032C14.8798 14.7526 14.2348 15.1771 13.481 15.4537C12.0159 15.991 10.0336 16 8.00002 16C5.96645 16 3.98409 15.991 2.51904 15.4537C1.76519 15.1771 1.12023 14.7526 0.670449 14.1032C0.223347 13.4577 0 12.6346 0 11.6099C0 9.56885 0.884073 7.35446 2.29944 5.64818ZM9.63578 6.53688C9.35783 6.4076 9.01355 6.32532 8.60293 6.29006V5.34684H7.70275V6.29006C7.41848 6.31944 7.14684 6.37527 6.88784 6.45755C6.62884 6.53982 6.40142 6.65442 6.20559 6.80134C6.01608 6.94238 5.86131 7.11868 5.74128 7.33025C5.62758 7.53593 5.57072 7.77688 5.57072 8.05309C5.57072 8.37044 5.63389 8.63489 5.76024 8.84645C5.88658 9.05802 6.05398 9.2402 6.26245 9.39299C6.47723 9.54579 6.72359 9.67802 7.00155 9.78968C7.28582 9.90134 7.57956 10.013 7.88278 10.1247C8.23022 10.2539 8.48291 10.3685 8.64084 10.4684C8.80508 10.5625 8.8872 10.6947 8.8872 10.8651C8.8872 11.0297 8.82719 11.159 8.70717 11.253C8.59346 11.347 8.43553 11.394 8.23338 11.394C7.9807 11.394 7.77855 11.3206 7.62694 11.1737C7.47533 11.0209 7.39953 10.8034 7.39953 10.5213H5.42859C5.42859 11.1795 5.63074 11.6996 6.03503 12.0816C6.43932 12.4577 6.99523 12.681 7.70275 12.7516V13.686H8.60293V12.7516C9.31677 12.6869 9.87267 12.4842 10.2706 12.1433C10.6686 11.8025 10.8676 11.3382 10.8676 10.7505C10.8676 10.4332 10.795 10.1658 10.6497 9.94835C10.5107 9.72503 10.3243 9.53697 10.0906 9.38418C9.8632 9.23138 9.6042 9.10209 9.31361 8.99631C9.02934 8.89053 8.74507 8.79063 8.4608 8.6966C8.15758 8.59669 7.93016 8.49385 7.77855 8.38807C7.62694 8.28228 7.55114 8.15006 7.55114 7.99138C7.55114 7.82096 7.61115 7.69755 7.73117 7.62115C7.8512 7.54475 7.99333 7.50655 8.15758 7.50655C8.59346 7.50655 8.8114 7.76219 8.8114 8.27347H10.7823C10.7823 8.05015 10.7444 7.82977 10.6686 7.61233C10.5991 7.38902 10.4791 7.18627 10.3086 7.00409C10.138 6.81603 9.91373 6.6603 9.63578 6.53688Z" fill="black"/>
</g>
<defs>
<clipPath id="clip0_18_48">
<rect width="16" height="16" fill="white"/>
</clipPath>
</defs>
</svg>
