<svg width="16" height="16" viewBox="0 0 16 16" fill="none" xmlns="http://www.w3.org/2000/svg">
<path d="M6.1736 0.00195312H9.8336V1.82845H6.1736V0.00195312Z" fill="black"/>
<path d="M12.7736 5.33545L13.7201 4.24895L12.3401 3.04895L11.3736 4.16895C10.4161 3.56195 9.2501 3.20195 8.0001 3.20195C6.7501 3.20195 5.5841 3.56195 4.6006 4.18445L4.6266 4.16895L3.6601 3.06245L2.2801 4.26245L3.2266 5.33595C2.2171 6.46245 1.6001 7.95895 1.6001 9.59945C1.6001 13.134 4.4656 15.9995 8.0001 15.9995C11.5346 15.9995 14.4001 13.134 14.4001 9.59945C14.4001 7.95895 13.7831 6.46295 12.7681 5.32995L12.7736 5.33545ZM8.0001 9.60195L5.0601 12.5285C4.3131 11.7785 3.8511 10.744 3.8511 9.60195C3.8511 7.31195 5.7076 5.45545 7.9976 5.45545H8.0001V9.60195Z" fill="black"/>
</svg>
