<svg width="16" height="16" viewBox="0 0 16 16" fill="none" xmlns="http://www.w3.org/2000/svg">
<g clip-path="url(#clip0_6_428)">
<path d="M10.9274 5.37452C10.9624 5.34702 10.9849 5.37452 11.0074 5.39452C11.1089 5.45552 11.2259 5.50702 11.3494 5.54202L11.3594 5.54452C11.5069 5.57702 11.5869 5.49202 11.5544 5.33952C11.5164 5.20402 11.4589 5.08602 11.3844 4.98102L11.3869 4.98452C11.3069 4.86302 11.2589 4.71402 11.2589 4.55352C11.2589 4.47002 11.2719 4.38952 11.2959 4.31402L11.2944 4.31952C11.3894 4.02752 11.6589 3.82002 11.9769 3.81952C12.5944 3.79202 12.8369 4.46702 12.6169 4.91952C12.5664 5.02102 12.4944 5.10502 12.4064 5.16802L12.4044 5.16952C12.3184 5.22952 12.2429 5.29452 12.1749 5.36652C12.1364 5.40652 12.1049 5.45452 12.0829 5.50652L12.0819 5.50952C12.0469 5.60452 12.0819 5.66452 12.1794 5.66452C12.3364 5.65552 12.4774 5.59452 12.5879 5.49902L12.5869 5.49952C12.8279 5.31452 13.0254 5.08552 13.1689 4.82302L13.1744 4.81202C13.5094 4.22952 13.7689 3.55352 13.9169 2.83652L13.9244 2.79202C14.0099 2.44402 14.0654 2.04102 14.0789 1.62652V1.61702C14.0789 1.59702 14.0789 1.57702 14.0939 1.56202C14.3734 1.86602 14.6314 2.20052 14.8589 2.55552L14.8764 2.58452C14.8689 2.61352 14.8629 2.64852 14.8589 2.68402V2.68702C14.7344 3.63002 14.4544 4.48402 14.0439 5.25802L14.0639 5.21702C13.9764 5.39552 13.8874 5.54602 13.7884 5.68952L13.7964 5.67702C13.7214 5.69752 13.6559 5.72652 13.5959 5.76402L13.5989 5.76202C13.3799 5.90652 13.2369 6.15152 13.2369 6.43002C13.2369 6.45902 13.2384 6.48752 13.2414 6.51552L13.2409 6.51202C13.2489 6.66352 13.2994 6.80152 13.3799 6.91702L13.3784 6.91452C13.4109 6.96002 13.4394 7.01202 13.4614 7.06702L13.4629 7.07202C13.4979 7.17452 13.4629 7.23702 13.3554 7.24452C13.3414 7.24652 13.3254 7.24752 13.3089 7.24752C13.2924 7.24752 13.2764 7.24652 13.2609 7.24452H13.2629C13.1144 7.21152 12.9854 7.14152 12.8824 7.04402C12.8499 7.01652 12.8304 7.00702 12.7954 7.04452C12.6129 7.24702 12.4279 7.44702 12.2429 7.64702C12.2204 7.66952 12.2069 7.70052 12.2069 7.73502C12.2069 7.74552 12.2084 7.75552 12.2109 7.76552C12.2389 7.94452 12.2549 8.15002 12.2549 8.36052C12.2549 8.66852 12.2209 8.96852 12.1559 9.25652L12.1609 9.22952C11.9694 10.0745 11.6229 10.817 11.1494 11.461L11.1609 11.4445C11.1159 11.5035 11.0894 11.5785 11.0894 11.6595C11.0894 11.672 11.0899 11.684 11.0914 11.696V11.6945C11.1164 12.032 11.1714 12.362 11.2289 12.6945C11.2364 12.751 11.2729 12.7975 11.3229 12.819L11.3239 12.8195C11.9919 13.1455 12.5669 13.531 13.0829 13.9825L13.0739 13.9745C13.1594 14.064 13.2509 14.146 13.3484 14.2205L13.3539 14.2245L13.7839 14.6695C13.8189 14.7045 13.8189 14.722 13.7839 14.757C13.2724 15.214 12.6989 15.6195 12.0814 15.9555L12.0339 15.9795C12.0104 15.9915 11.9829 15.9985 11.9539 15.9985C11.9459 15.9985 11.9384 15.998 11.9309 15.997H11.9319C11.7634 15.967 11.6159 15.8915 11.4989 15.784C10.9159 15.3145 10.2214 14.958 9.46289 14.758L9.42439 14.7495C9.16989 14.6795 8.86789 14.6245 8.55789 14.596L8.53689 14.5945C8.35889 14.575 8.15189 14.564 7.94289 14.564C7.90989 14.564 7.87739 14.5645 7.84439 14.565H7.84939C7.09639 14.585 6.38689 14.7505 5.74089 15.034L5.77689 15.02C5.23589 15.263 4.76939 15.554 4.34839 15.899L4.35939 15.89C4.28639 15.959 4.18689 16.0015 4.07789 16.0015C4.00289 16.0015 3.93289 15.9815 3.87239 15.9465L3.87439 15.9475C3.24889 15.5975 2.70839 15.2115 2.21439 14.774L2.22389 14.7825C2.16139 14.7275 2.15889 14.6975 2.22389 14.64C2.36139 14.505 2.49139 14.3625 2.62389 14.225C2.65139 14.225 2.66389 14.205 2.67889 14.19C3.28439 13.622 3.98389 13.1445 4.74989 12.7855L4.79889 12.765C4.82989 12.753 4.85289 12.726 4.85889 12.693C4.97389 12.283 5.03989 11.8115 5.03989 11.3255C5.03989 11.0945 5.02489 10.867 4.99589 10.6435L4.99889 10.67C4.89789 9.89002 4.67989 9.18202 4.36139 8.53252L4.37939 8.57252C4.35689 8.52252 4.33439 8.51502 4.28439 8.52502C4.01939 8.58752 3.75689 8.64002 3.49189 8.69752C3.45689 8.69752 3.42189 8.69752 3.41439 8.65752C3.37439 8.43752 3.32689 8.21752 3.30189 7.99502C3.28689 7.87252 3.28189 7.74502 3.27189 7.62502C3.24939 7.32752 3.21939 7.03252 3.19689 6.73752C3.19439 6.66852 3.17039 6.60502 3.13139 6.55402L3.13189 6.55502C2.93439 6.30502 2.72689 6.05502 2.53939 5.80502C2.35189 5.55502 2.21189 5.33502 2.06939 5.08502C1.92689 4.83502 1.74939 4.53002 1.62939 4.25002C1.39639 3.76552 1.22139 3.20302 1.13339 2.61252L1.12939 2.58002C1.30389 2.30502 1.47939 2.06752 1.66939 1.84302L1.66189 1.85252C1.74939 1.75002 1.84189 1.64252 1.93189 1.53752C1.93189 1.69252 1.95439 1.84752 1.96689 2.00252C1.99939 2.35602 2.06589 2.68052 2.16339 2.99102L2.15439 2.95752C2.29739 3.48652 2.51789 3.95002 2.80639 4.36202L2.79689 4.34802C2.93139 4.53702 3.09789 4.69402 3.28989 4.81402L3.29689 4.81802C3.42289 4.89852 3.57639 4.94652 3.74139 4.94652C3.75589 4.94652 3.76989 4.94602 3.78389 4.94552H3.78189C3.83939 4.94552 3.90189 4.93302 3.92939 4.86802C3.95689 4.80302 3.90939 4.75052 3.86939 4.70802C3.78989 4.62852 3.69289 4.56702 3.58489 4.52952L3.57939 4.52802C3.33589 4.42452 3.16689 4.19052 3.15939 3.91652V3.91552C3.15239 3.87952 3.14839 3.83852 3.14839 3.79602C3.14839 3.55652 3.27939 3.34752 3.47389 3.23702L3.47689 3.23552C3.58589 3.16402 3.71989 3.12152 3.86339 3.12152C3.98639 3.12152 4.10189 3.15252 4.20289 3.20752L4.19889 3.20552C4.40039 3.33552 4.53189 3.55852 4.53189 3.81252C4.53189 3.83552 4.53089 3.85852 4.52889 3.88052V3.87752C4.51589 4.01502 4.48589 4.14102 4.44039 4.26002L4.44389 4.25002C4.40739 4.33352 4.38339 4.43052 4.37639 4.53252V4.53502C4.37639 4.59752 4.36139 4.67252 4.43139 4.70252C4.50139 4.73252 4.54639 4.68252 4.58889 4.63502C4.69839 4.51752 4.78939 4.38102 4.85739 4.23202L4.86139 4.22252C4.91639 4.10252 4.96389 3.97252 5.01389 3.85752C5.01389 3.89252 5.01389 3.92752 5.01389 3.96252C5.01139 4.05402 5.00989 4.16152 5.00989 4.27002C5.00989 4.63802 5.02789 5.00202 5.06289 5.36052L5.05939 5.31502C5.12639 5.90952 5.24439 6.44902 5.41089 6.96702L5.39439 6.90752C5.65089 7.70502 5.98289 8.39802 6.39339 9.03502L6.37189 9.00002C6.5659 9.28802 6.73439 9.61802 6.86189 9.96802L6.87189 10C6.91789 10.11 6.94489 10.2375 6.94489 10.3715C6.94489 10.399 6.94389 10.4265 6.94139 10.4535L6.94189 10.45C6.90439 10.6855 6.81639 10.895 6.68889 11.0745L6.69189 11.07C6.52439 11.32 6.31439 11.52 6.13439 11.7525C6.01539 11.884 5.92039 12.039 5.85739 12.21L5.85439 12.22C5.84989 12.233 5.84739 12.2475 5.84739 12.263C5.84739 12.292 5.85639 12.3185 5.87239 12.3405C5.89239 12.378 5.92689 12.34 5.95439 12.34C6.5799 12.1595 7.29889 12.056 8.04189 12.056C8.09889 12.056 8.15639 12.0565 8.21289 12.058H8.20439C8.32439 12.058 8.45439 12.058 8.56189 12.078C8.78439 12.1005 9.00689 12.118 9.22689 12.1555C9.56789 12.211 9.85789 12.277 10.1414 12.359L10.0869 12.3455C10.1419 12.3605 10.1544 12.3455 10.1569 12.2905C10.1569 12.286 10.1569 12.281 10.1569 12.276C10.1569 12.196 10.1354 12.1205 10.0979 12.056L10.0989 12.058C9.99289 11.8825 9.87739 11.73 9.74739 11.5915L9.74889 11.593C9.55189 11.379 9.37189 11.1425 9.21539 10.8905L9.20389 10.8705C9.11539 10.7225 9.06289 10.5445 9.06289 10.354C9.06289 10.227 9.08639 10.1055 9.12839 9.99352L9.1259 10.0005C9.29189 9.57102 9.48339 9.20202 9.70989 8.85802L9.69589 8.88052C10.1169 8.20652 10.4594 7.42702 10.6819 6.59852L10.6959 6.53802C10.7884 6.21502 10.8689 5.82102 10.9214 5.41852L10.9259 5.37552L10.9274 5.37452Z" fill="black"/>
<path d="M10.7899 3.87452C10.7834 4.26702 10.7349 4.64452 10.6479 5.00752L10.6549 4.97202C10.5474 5.46402 10.4279 5.87652 10.2844 6.27752L10.3074 6.20452C10.0784 6.88152 9.7944 7.46752 9.4479 8.01002L9.46739 7.97702C9.31039 8.22352 9.14039 8.43752 8.95139 8.63302L8.95239 8.63202C8.7369 8.86902 8.44789 9.03652 8.12189 9.09802L8.11239 9.09952C8.07289 9.10502 8.02739 9.10852 7.98139 9.10852C7.81839 9.10852 7.66439 9.06802 7.52939 8.99702L7.53489 8.99952C7.20589 8.81302 6.93489 8.56052 6.73289 8.25802L6.72739 8.24952C6.34439 7.71552 6.01839 7.10252 5.77939 6.44752L5.76239 6.39452C5.65989 6.13302 5.54989 5.79102 5.45689 5.44102L5.43989 5.36702C5.35089 5.07002 5.27789 4.71552 5.23539 4.35202L5.23239 4.32202C5.21539 4.21002 5.20589 4.08052 5.20589 3.94902C5.20589 3.70802 5.23839 3.47502 5.29939 3.25352L5.29489 3.27202C5.37139 3.04002 5.50089 2.84352 5.66889 2.68802L5.66989 2.68702C6.00789 2.38452 6.42089 2.15902 6.87739 2.04152L6.89739 2.03702C7.11739 1.97152 7.37339 1.92602 7.63739 1.91002L7.64739 1.90952C7.76189 1.89902 7.89539 1.89352 8.0304 1.89352C8.0669 1.89352 8.10389 1.89402 8.14039 1.89502H8.13489C8.69589 1.91002 9.22339 2.03902 9.69939 2.26002L9.67489 2.25002C9.98789 2.39402 10.2524 2.59202 10.4679 2.83502L10.4699 2.83752C10.6139 3.01202 10.7134 3.22852 10.7489 3.46552L10.7499 3.47252C10.7754 3.59202 10.7899 3.72952 10.7899 3.87052C10.7899 3.87202 10.7899 3.87302 10.7899 3.87452ZM7.93739 1.94952C7.93239 1.94952 7.92689 1.94952 7.92089 1.94952C7.74139 1.94952 7.56539 1.96502 7.39439 1.99452L7.41289 1.99202C7.07389 2.03552 6.76589 2.12602 6.48089 2.25752L6.50089 2.24952C6.20889 2.37102 5.95989 2.54002 5.75089 2.74952C5.65489 2.84502 5.57689 2.95852 5.52339 3.08502L5.52089 3.09202C5.44289 3.31152 5.39789 3.56452 5.39789 3.82802C5.39789 3.92102 5.40339 4.01252 5.41439 4.10302L5.41339 4.09202C5.45239 4.46852 5.52789 4.81252 5.63839 5.14102L5.62839 5.10702C5.80439 5.65552 6.00739 6.12552 6.25039 6.57052L6.22839 6.52702C6.44689 6.95252 6.71789 7.31652 7.03989 7.62852L7.04089 7.62952C7.22639 7.80752 7.45489 7.94252 7.70939 8.01652L7.72089 8.01952C7.80939 8.04402 7.91089 8.05752 8.01589 8.05752C8.23989 8.05752 8.44889 7.99402 8.6259 7.88402L8.62089 7.88702C8.9139 7.70802 9.15789 7.47902 9.34839 7.20952L9.3534 7.20202C9.5629 6.92552 9.75539 6.61352 9.9164 6.28302L9.93089 6.24952C10.1214 5.86552 10.2979 5.41052 10.4339 4.93852L10.4484 4.87952C10.5324 4.60002 10.5879 4.27702 10.6029 3.94302L10.6034 3.93452C10.6049 3.90052 10.6059 3.86002 10.6059 3.82002C10.6059 3.71502 10.5994 3.61152 10.5869 3.51002L10.5879 3.52202C10.5649 3.35852 10.5249 3.21102 10.4684 3.07202L10.4729 3.08452C10.3684 2.86552 10.2124 2.68552 10.0199 2.55502L10.0154 2.55202C9.82889 2.40702 9.61389 2.28552 9.38239 2.19752L9.36539 2.19202C8.95039 2.03852 8.47089 1.94952 7.97089 1.94952C7.95939 1.94952 7.94889 1.94952 7.93739 1.94952Z" fill="black"/>
<path d="M9.8399 1.98452V2.20702C9.8399 2.25202 9.8224 2.26952 9.7774 2.24452C9.5344 2.12452 9.25089 2.02252 8.95489 1.95252L8.92739 1.94702C8.79589 1.91502 8.63489 1.88752 8.47089 1.87102L8.45489 1.86952C8.33589 1.85702 8.19839 1.85002 8.05889 1.85002C8.01439 1.85002 7.97039 1.85052 7.92639 1.85202H7.93289C7.32139 1.85302 6.74289 1.99302 6.22689 2.24202L6.25039 2.23152C6.16039 2.27152 6.15789 2.27152 6.15789 2.17402C6.15339 2.11552 6.15089 2.04802 6.15089 1.97952C6.15089 1.79702 6.16889 1.61902 6.20339 1.44702L6.20039 1.46402C6.25439 1.16902 6.50939 0.948523 6.81589 0.948523C6.88189 0.948523 6.94539 0.958523 7.00489 0.977523L7.00039 0.976523C7.12289 0.994023 7.11789 1.00152 7.09789 0.874023C7.08339 0.780523 7.05339 0.696023 7.01089 0.620023L7.01289 0.624023C6.97389 0.519523 6.87789 0.445523 6.76389 0.439023C6.68589 0.429023 6.61439 0.402523 6.55339 0.363023L6.55539 0.364023C6.51539 0.341523 6.47039 0.316523 6.47039 0.269023C6.47039 0.221523 6.51789 0.199023 6.55539 0.176523C6.63889 0.135523 6.73589 0.105523 6.83839 0.0920234L6.84289 0.0915234C7.14639 0.0375234 7.49889 0.00402344 7.85839 -0.000976562H7.86289C8.06539 -0.000976562 8.2654 -0.000976562 8.4679 -0.000976562C8.7969 0.00352344 9.11189 0.0570234 9.40789 0.153023L9.3854 0.146523C9.4479 0.166523 9.5254 0.196523 9.5304 0.264023C9.5354 0.331523 9.45539 0.359023 9.40039 0.386523C9.32789 0.420023 9.24339 0.444523 9.15489 0.456023L9.15039 0.456523C9.09439 0.462523 9.04589 0.492523 9.01589 0.536023C8.93689 0.642523 8.88389 0.774023 8.87039 0.916023V0.919023C8.87039 0.974023 8.87039 0.996523 8.94289 0.976523C9.00239 0.961023 9.07039 0.952023 9.14039 0.952023C9.21039 0.952023 9.2784 0.961023 9.3434 0.977523L9.33789 0.976523C9.57239 1.02552 9.75289 1.21152 9.79239 1.44552L9.79289 1.44902C9.82639 1.57102 9.84539 1.71152 9.84539 1.85602C9.84539 1.90102 9.8434 1.94552 9.8399 1.98952L9.84039 1.98352L9.8399 1.98452Z" fill="black"/>
</g>
<defs>
<clipPath id="clip0_6_428">
<rect width="16" height="16" fill="white"/>
</clipPath>
</defs>
</svg>
