<svg width="16" height="16" viewBox="0 0 16 16" fill="none" xmlns="http://www.w3.org/2000/svg">
<path d="M10.05 3.04047L8.74491 1.04237L8.49984 1.04026L1.99599 1.00019L2.00021 6.44024C2.60002 6.19053 3.30022 6.04037 4 6.04037C6.75018 6.04037 9.0001 8.29029 9.0001 11.0405C9.0001 11.7402 8.84994 12.4404 8.60023 13.0403H16V3.04047H10.05ZM14.8 9.95801L10.9009 4.32297L14.8 4.25801V9.95801Z" fill="black"/>
<path d="M4 6.9981C1.79985 6.9981 0 8.79795 0 10.9981C0 13.1982 1.79985 14.9981 4 14.9981C6.20015 14.9981 8 13.1978 8 10.9981C8 8.79838 6.20015 6.9981 4 6.9981ZM3.97849 13.1059L1.65855 10.575H2.82569C2.83412 10.5822 2.84214 10.5898 2.85015 10.5978L3.50016 11.3322V8.99789H4.49984V11.3322L5.14985 10.5978H6.29843L3.97849 13.1059Z" fill="black"/>
</svg>
