<svg width="16" height="16" viewBox="0 0 16 16" fill="none" xmlns="http://www.w3.org/2000/svg">
<path d="M16 8.1C14.3 5.2 11.4 3.2 8 3.2C6.9 3.2 5.8 3.4 4.9 3.8L3 2L1.9 3.1L3.4 4.6C2 5.4 0.8 6.6 0 8.1C1.7 11 4.6 13 8 13C9.1 13 10.2 12.8 11.2 12.4L13 14.2L14.1 13.1L12.6 11.6C14 10.8 15.2 9.6 16 8.1ZM8 11.6C6.1 11.6 4.5 10 4.5 8.1C4.5 7.4 4.7 6.8 5.1 6.2L9.9 11C9.4 11.4 8.7 11.6 8 11.6ZM9.9 8.9C10 8.6 10.1 8.4 10.1 8.1C10.1 7 9.2 6 8.1 6C7.8 6 7.6 6.1 7.3 6.2L6.3 5.2C6.7 4.8 7.3 4.6 8 4.6C9.9 4.6 11.5 6.2 11.5 8.1C11.5 8.8 11.3 9.4 11 9.9L9.9 8.9Z" fill="#070707"/>
</svg>
