<svg width="16" height="16" viewBox="0 0 16 16" fill="none" xmlns="http://www.w3.org/2000/svg">
<g clip-path="url(#clip0_243_135)">
<path fill-rule="evenodd" clip-rule="evenodd" d="M8 16C12.4183 16 16 12.4183 16 8C16 3.58172 12.4183 0 8 0C3.58172 0 0 3.58172 0 8C0 12.4183 3.58172 16 8 16ZM7.96466 6.06157C8.00353 6.04894 8.08128 6.0227 8.08128 6.0227L9.88267 4.22131L11.7812 6.11988L9.90211 7.99902L11.7744 9.87136L9.87587 11.7699L8.00353 9.8976L6.12439 11.7767L4.22582 9.87816L6.10496 7.99902L4.22582 6.11988L6.12439 4.22131L7.96466 6.06157Z" fill="black"/>
</g>
<defs>
<clipPath id="clip0_243_135">
<rect width="16" height="16" fill="white"/>
</clipPath>
</defs>
</svg>
