<svg width="16" height="16" viewBox="0 0 16 16" fill="none" xmlns="http://www.w3.org/2000/svg">
<g clip-path="url(#clip0_6_239)">
<path d="M15.7615 8.47973C15.6495 8.39073 15.5055 8.33723 15.3495 8.33723C15.28 8.33723 15.213 8.34773 15.15 8.36773L15.1545 8.36623C14.5395 8.56024 13.812 8.71473 13.0635 8.80123L13.008 8.80623C12.948 8.10623 12.8945 7.42623 12.848 6.80623C13.468 6.55973 13.9945 6.37273 14.0145 6.36623C13.155 3.31473 10.396 1.11523 7.12404 1.11523C3.17704 1.11523 -0.0224609 4.31473 -0.0224609 8.26173C-0.0224609 10.2307 0.773539 12.0137 2.06154 13.3062C5.33504 13.3062 6.06154 14.6927 7.98804 14.6927C9.91454 14.6927 11.128 13.3192 11.128 12.0262C11.0965 11.3442 10.8715 10.7207 10.5075 10.2017L10.515 10.2127C10.8615 10.2127 11.3015 10.2127 11.8015 10.2127C11.893 11.4907 12.0895 12.6742 12.385 13.8177L12.3545 13.6792C12.7095 14.3987 13.438 14.8847 14.2795 14.8847C14.36 14.8847 14.439 14.8802 14.5175 14.8717L14.508 14.8727C14.51 14.8727 14.513 14.8727 14.5155 14.8727C14.77 14.8727 15.0185 14.8482 15.2595 14.8022L15.235 14.8062C15.531 14.7447 15.7525 14.4937 15.7685 14.1877V14.1862L16.022 9.03973C16.0225 9.03023 16.0225 9.01973 16.0225 9.00873C16.0225 8.79423 15.921 8.60323 15.7635 8.48123L15.7615 8.47973ZM14.6485 9.88623L14.595 10.9127C14.2245 10.9832 13.7675 11.0427 13.304 11.0767L13.262 11.0792C13.262 10.7792 13.1885 10.4592 13.1555 10.1327C13.741 10.0657 14.249 9.97923 14.748 9.86723L14.6485 9.88623ZM8.29504 13.1062C7.73904 13.1062 7.28854 12.6557 7.28854 12.0997C7.28854 11.5437 7.73904 11.0932 8.29504 11.0932C8.85104 11.0932 9.30154 11.5437 9.30154 12.0997C9.30154 12.6557 8.85104 13.1062 8.29504 13.1062ZM10.215 8.83274C10.3215 8.37973 10.5705 7.99623 10.911 7.72223L10.915 7.71923C11.1075 7.58223 11.327 7.46123 11.56 7.36673L11.5815 7.35923C11.5815 7.77923 11.655 8.29923 11.7015 8.87923C11.609 8.88123 11.5 8.88273 11.3905 8.88273C10.9765 8.88273 10.567 8.86473 10.1625 8.82873L10.215 8.83274ZM14.4685 13.5327C14.115 13.5327 13.702 13.4592 13.602 13.1927C13.524 12.9637 13.461 12.6932 13.4245 12.4147L13.422 12.3927C13.7355 12.3927 14.0885 12.3262 14.5285 12.2662L14.4685 13.5327Z" fill="black"/>
</g>
<defs>
<clipPath id="clip0_6_239">
<rect width="16" height="16" fill="white"/>
</clipPath>
</defs>
</svg>
