<svg width="16" height="16" viewBox="0 0 16 16" fill="none" xmlns="http://www.w3.org/2000/svg">
<g clip-path="url(#clip0_6_452)">
<path d="M4.87991 1.06469C5.39991 2.94469 5.91907 4.82635 6.43741 6.70969C6.56741 7.18469 6.68741 7.66219 6.83741 8.12969C6.86341 8.18669 6.87841 8.25369 6.87841 8.32419C6.87841 8.47269 6.81141 8.60569 6.70591 8.69419L6.70491 8.69469C6.23491 9.16469 5.78991 9.65969 5.28991 10.1947C5.16241 9.98969 5.08741 9.87469 5.01741 9.75469C3.42741 6.99969 1.83824 4.24802 0.249908 1.49969C0.163408 1.36519 0.0814082 1.25119 -0.0065918 1.14119L-9.17967e-05 1.14969C0.0814082 1.11369 0.175408 1.08669 0.274408 1.07269L0.279908 1.07219C1.81241 1.06219 3.34741 1.06469 4.87991 1.06469Z" fill="black"/>
<path d="M15.9999 1.14469C15.8299 1.40969 15.6524 1.67219 15.4999 1.94219C14.9374 2.90719 14.3724 3.87219 13.8224 4.84469C13.7729 4.98319 13.6424 5.08019 13.4899 5.08019C13.4404 5.08019 13.3929 5.06969 13.3499 5.05119L13.3524 5.05219C10.9999 4.40469 8.64741 3.77469 6.30491 3.12219C6.14541 3.05069 6.02491 2.91769 5.97091 2.75419L5.96991 2.74969C5.79741 2.19219 5.66491 1.61969 5.51991 1.05469C8.90824 1.05469 12.2949 1.05469 15.6799 1.05469C15.7999 1.07319 15.9074 1.10469 16.0089 1.14819L15.9999 1.14469Z" fill="black"/>
<path d="M8.04741 14.9372C7.24991 13.5422 6.48241 12.2072 5.72741 10.8622C5.71541 10.8277 5.70841 10.7882 5.70841 10.7467C5.70841 10.6657 5.73541 10.5912 5.78091 10.5312L5.78041 10.5322C7.52041 8.74886 9.27041 6.97302 11.0304 5.20469C11.0999 5.13719 11.1949 5.09569 11.2999 5.09569C11.3114 5.09569 11.3229 5.09619 11.3344 5.09719H11.3329C12.0029 5.26219 12.6679 5.44969 13.3704 5.64219L8.04741 14.9372Z" fill="black"/>
<path d="M7.37241 7.62969L6.32241 3.81969L10.2899 4.84719L7.37241 7.62969Z" fill="black"/>
</g>
<defs>
<clipPath id="clip0_6_452">
<rect width="16" height="16" fill="white"/>
</clipPath>
</defs>
</svg>
