<svg width="16" height="16" viewBox="0 0 16 16" fill="none" xmlns="http://www.w3.org/2000/svg">
<path d="M0.0838493 15.7986C0.171289 15.9245 0.315009 16 0.468817 16H15.5312C15.685 16 15.8287 15.9245 15.9162 15.7986C16.0041 15.6722 16.0242 15.5111 15.9702 15.3669C15.7875 14.8785 15.4461 14.45 15.3074 14.2889C15.2186 14.185 15.0886 14.125 14.9517 14.125H1.04835C0.911473 14.125 0.781473 14.185 0.692665 14.2889C0.553977 14.45 0.212473 14.8785 0.0298174 15.3669C-0.0241826 15.5111 -0.00405466 15.6722 0.0838493 15.7986Z" fill="black"/>
<path d="M1.875 7.53128H4.71876V13.1875H1.875V7.53128Z" fill="black"/>
<path d="M6.59376 7.53128H9.40624V13.1875H6.59376V7.53128Z" fill="black"/>
<path d="M11.2813 7.53128H14.125V13.1875H11.2813V7.53128Z" fill="black"/>
<path d="M1.01459 6.45568C1.10259 6.54408 1.22507 6.59376 1.34619 6.59376L14.6534 6.59344C14.7745 6.59344 14.8974 6.54408 14.9854 6.45568C15.0808 6.36032 15.7936 5.618 16 4.71875H1.39512e-06C0.206409 5.618 0.919193 6.36032 1.01459 6.45568Z" fill="black"/>
<path d="M15.7018 3.78125L8.20976 0.049434C8.07792 -0.016478 7.92224 -0.016478 7.7904 0.049434L0.298393 3.78125H15.7018Z" fill="black"/>
</svg>
