<svg width="16" height="16" viewBox="0 0 16 16" fill="none" xmlns="http://www.w3.org/2000/svg">
<path d="M8 11.25C10.071 11.25 11.75 9.571 11.75 7.5V3.75C11.75 1.679 10.071 0 8 0C5.929 0 4.25 1.679 4.25 3.75V7.5C4.25 9.571 5.929 11.25 8 11.25Z" fill="black"/>
<path d="M8.625 14.75V13.7125C10.051 13.5285 11.2745 12.7825 12.0855 11.708L12.095 11.695L11.05 11C10.3365 11.912 9.236 12.4925 8 12.4925C6.764 12.4925 5.6635 11.912 4.9565 11.0085L4.95 11L3.905 11.6875C4.724 12.778 5.9475 13.5265 7.349 13.7095L7.375 13.7125V14.75H2V16H14.25V14.75H8.625Z" fill="black"/>
</svg>
