<svg width="16" height="16" viewBox="0 0 16 16" fill="none" xmlns="http://www.w3.org/2000/svg">
<g clip-path="url(#clip0_6_425)">
<path d="M6.05477 6.45008L8.20477 3.58008H1.95477C1.13477 3.58008 0.619766 4.50008 0.619766 4.50008V5.83508H5.53477L6.04977 6.45008H6.05477Z" fill="black"/>
<path d="M2.05477 10.0351L0.00976562 12.7001C0.00976562 12.7001 5.53977 12.8001 6.05477 12.7001C6.56977 12.6001 7.38477 11.5701 7.07977 10.7551C6.77477 9.94008 3.79477 6.24508 3.79477 6.24508H0.624766L3.89477 10.5501H2.46977L2.05977 10.0401L2.05477 10.0351Z" fill="black"/>
<path d="M8.40977 5.83508H13.2248L13.7498 6.45008L16.0048 3.58008H10.0548C9.28977 4.13008 8.71977 4.90508 8.42477 5.80008L8.41477 5.83008L8.40977 5.83508Z" fill="black"/>
<path d="M11.2848 10.2351C11.0248 9.90008 10.8648 9.47008 10.8598 9.01008C10.8598 7.47508 10.9598 6.24508 10.9598 6.24508H8.30977C8.30977 6.24508 7.38977 8.29008 8.20977 10.3501C9.02977 12.4101 11.8948 13.8301 14.8698 11.3751H13.5648C12.6398 11.3751 11.8148 10.9301 11.2948 10.2451L11.2848 10.2351Z" fill="black"/>
</g>
<defs>
<clipPath id="clip0_6_425">
<rect width="16" height="16" fill="white"/>
</clipPath>
</defs>
</svg>
