<svg width="16" height="16" viewBox="0 0 16 16" fill="none" xmlns="http://www.w3.org/2000/svg">
<g clip-path="url(#clip0_6_255)">
<path d="M4.47262 2.545C4.63212 2.552 4.77462 2.6205 4.87762 2.7275C4.96262 2.796 5.01662 2.9 5.01662 3.0165C5.01662 3.0555 5.01062 3.0925 4.99962 3.128L5.00012 3.1255C4.98762 3.163 4.90762 3.1255 4.84512 3.168C4.79912 3.205 4.76962 3.2615 4.76962 3.3245C4.76962 3.411 4.82462 3.4845 4.90112 3.5125L4.90262 3.513C5.07762 3.5855 5.19262 3.4255 5.23762 3.343C5.25762 3.308 5.25262 3.3555 5.23762 3.383C5.20412 3.566 5.04612 3.703 4.85612 3.703C4.79562 3.703 4.73862 3.689 4.68762 3.6645L4.69012 3.6655C4.51512 3.5675 4.38812 3.4005 4.34612 3.2025L4.34512 3.198C4.48562 3.1875 4.59562 3.071 4.59562 2.9285C4.59562 2.922 4.59562 2.9155 4.59512 2.9095V2.9105C4.57662 2.801 4.52362 2.7065 4.44812 2.636C4.41312 2.601 4.38012 2.5375 4.47262 2.545Z" fill="black"/>
<path d="M10.4551 2.465C10.1891 2.4095 9.97812 2.219 9.89412 1.9705L9.89262 1.965C9.80512 1.6125 9.70262 1.62 9.65762 1.6025C9.62562 1.594 9.58612 1.587 9.54612 1.583L9.54212 1.5825C9.43462 1.5825 9.36212 1.56 9.13712 1.55C9.06962 1.55 8.91962 1.55 8.88712 1.5325C8.79362 1.5035 8.71462 1.4525 8.65262 1.3855C8.59712 1.306 8.56312 1.207 8.56312 1.1005C8.56312 1.087 8.56362 1.074 8.56462 1.061V1.0625C8.81462 1.0175 8.98962 0.88 8.98962 0.72C8.98962 0.56 8.71962 0.36 8.38962 0.36H8.19962C8.17262 0.2545 8.15412 0.1315 8.14712 0.005V0H7.78212C7.77412 0.1295 7.75412 0.2495 7.72412 0.366L7.72712 0.3525H7.53462C7.20712 0.3525 6.93712 0.515 6.93712 0.7125C6.93712 0.91 7.11462 1 7.35962 1.055C7.36112 1.0695 7.36212 1.086 7.36212 1.1025C7.36212 1.206 7.32812 1.3015 7.27112 1.3785L7.27212 1.377C7.21062 1.4455 7.13112 1.497 7.04062 1.5235L7.03712 1.5245C7.01212 1.5245 6.85962 1.5395 6.78712 1.542C6.55962 1.542 6.48712 1.562 6.38212 1.5745C6.33862 1.579 6.29962 1.586 6.26162 1.5955L6.26712 1.5945C6.21962 1.612 6.11712 1.5945 6.01712 1.957C5.93562 2.213 5.72362 2.4045 5.46162 2.4565L5.45712 2.4575C5.45712 2.4575 5.39712 2.4575 5.41712 2.5C5.43712 2.5425 6.88962 4.865 5.76212 6.2725C5.48712 6.6425 5.20462 7.155 5.37462 7.755C5.40212 7.8295 5.43862 7.894 5.48312 7.9515L5.48212 7.95C4.27462 8.64 4.07712 9.295 4.03962 9.7775C3.85212 12.0925 9.71462 13.0275 8.14212 15.9775C8.11962 16.015 8.22212 15.9775 8.33712 15.8525C8.45212 15.7275 9.58712 14.98 9.78212 14.155C10.3221 12.1125 5.47462 11.45 4.49962 10.0525C3.88962 9.19 5.11212 8.365 5.59462 8.0825C5.75212 7.985 6.40712 7.5975 7.07712 7.2675C7.74712 6.9375 8.41462 6.5925 8.74962 6.25C8.80712 6.1925 8.83212 6.3825 8.69962 6.6575H8.54712C8.48212 6.71083 8.41212 6.76333 8.33712 6.815H8.60962C8.55962 6.891 8.50862 6.957 8.45312 7.019L8.45462 7.0175H8.01462C7.92712 7.07 7.83712 7.12 7.74212 7.17H8.30212C8.22262 7.2415 8.13612 7.3105 8.04562 7.374L8.03712 7.38H7.30462L7.17962 7.435C7.11462 7.4625 7.05212 7.4925 6.98962 7.525H7.80712C7.74312 7.5635 7.66612 7.6035 7.58662 7.639L7.57212 7.645L7.36712 7.745H6.61712C6.54712 7.79 6.48212 7.835 6.41962 7.88H7.12212C6.98862 7.958 6.87562 8.033 6.76812 8.114L6.77712 8.1075H6.12462L5.97462 8.235H6.61462C5.37962 9.2875 6.04712 10.5325 6.70462 10.9375C6.74212 10.96 6.76462 10.9625 6.77712 10.9375C6.65362 10.817 6.57662 10.649 6.57662 10.463C6.57662 10.409 6.58312 10.356 6.59562 10.3055L6.59462 10.31C6.83212 8.9075 11.7746 8.685 10.1496 6.285C9.05712 4.67 10.4846 2.5375 10.4996 2.5C10.5146 2.4625 10.4551 2.465 10.4551 2.465Z" fill="black"/>
<path d="M11.4076 2.545C11.2481 2.552 11.1056 2.6205 11.0026 2.7275C10.9236 2.7955 10.8736 2.896 10.8736 3.008C10.8736 3.05 10.8806 3.09 10.8931 3.1275L10.8921 3.125C10.8921 3.1425 10.9196 3.1425 10.9471 3.1425C10.9516 3.142 10.9571 3.1415 10.9621 3.1415C10.9936 3.1415 11.0231 3.151 11.0476 3.1675C11.0956 3.2045 11.1261 3.2615 11.1261 3.326C11.1261 3.41 11.0746 3.4815 11.0011 3.5115L10.9996 3.512C10.8246 3.5845 10.7096 3.4245 10.6646 3.342C10.6446 3.307 10.6496 3.3545 10.6646 3.382C10.6981 3.565 10.8561 3.702 11.0461 3.702C11.1066 3.702 11.1636 3.688 11.2146 3.6635L11.2121 3.6645C11.3871 3.5665 11.5141 3.3995 11.5561 3.2015L11.5571 3.197C11.4166 3.1865 11.3066 3.07 11.3066 2.9275C11.3066 2.921 11.3066 2.9145 11.3071 2.9085C11.3256 2.799 11.3786 2.7055 11.4541 2.635C11.4891 2.6 11.5221 2.537 11.4296 2.5445L11.4076 2.545ZM12.7901 6.89C12.6476 6.622 12.5291 6.311 12.4506 5.985L12.4451 5.9575C12.3746 6.2115 12.3341 6.5035 12.3341 6.805C12.3341 7.1065 12.3746 7.3985 12.4506 7.6755L12.4451 7.6525C12.4551 7.674 12.4606 7.699 12.4606 7.7255C12.4606 7.78 12.4361 7.829 12.3976 7.862C12.1621 7.319 12.0246 6.687 12.0246 6.023C12.0246 5.547 12.0951 5.087 12.2261 4.6535L12.2176 4.687C12.2796 4.489 12.3151 4.262 12.3151 4.026C12.3151 3.6685 12.2331 3.33 12.0866 3.028L12.0926 3.0415C12.0551 3.804 11.2876 4.934 11.4476 6.1215C11.5486 6.9915 11.8576 7.7735 12.3231 8.4375L12.3126 8.4215C12.8926 9.1965 13.2476 9.7115 13.2476 9.7115C14.1626 11.189 13.4476 12.8315 13.4476 12.8315C14.0776 12.189 14.2326 10.999 14.2326 10.999C14.4051 10.9265 15.0401 11.844 15.0401 11.844C15.1001 8.999 13.5001 8.279 12.7676 6.889L12.7901 6.89ZM11.6401 2.3325C11.5411 2.293 11.4266 2.2705 11.3066 2.2705C11.1171 2.2705 10.9411 2.3275 10.7941 2.4245L10.7976 2.4225C10.7401 2.355 11.0251 2.1725 11.0476 2.145C11.1931 2.03 11.3791 1.9605 11.5816 1.9605C11.9326 1.9605 12.2346 2.1695 12.3701 2.4695L12.3721 2.475C12.3721 2.475 12.5696 2.7925 12.4471 3.635C12.3346 3.19 12.1096 2.5975 11.6821 2.3525L11.6421 2.3275L11.6401 2.3325Z" fill="black"/>
<path d="M5.10762 2.4225C5.16512 2.355 4.88012 2.1725 4.85762 2.145C4.71212 2.03 4.52612 1.9605 4.32362 1.9605C3.97262 1.9605 3.67062 2.1695 3.53512 2.4695L3.53312 2.475C3.53312 2.475 3.25812 2.8325 3.44062 4.5525C3.46112 4.6965 3.47312 4.863 3.47312 5.032C3.47312 5.5745 3.35162 6.089 3.13412 6.549L3.14312 6.5275C3.47712 6.2205 3.78362 5.898 4.06762 5.556L4.08062 5.54C4.18812 5.365 4.23812 6.1825 2.71812 7.815C1.75562 8.8475 0.925616 10.2075 0.968116 11.915C0.968116 11.915 1.50812 10.915 1.68312 10.9975C1.68312 10.9975 1.80812 12.1325 2.46312 12.775C2.32162 12.349 2.23962 11.8585 2.23962 11.349C2.23962 11.0575 2.26612 10.7725 2.31762 10.496L2.31312 10.5245C2.50512 9.6515 2.87812 8.8865 3.39212 8.238L3.38312 8.2495C4.17062 7.2745 4.56312 6.8295 4.63312 6.2645C4.78312 5.1445 4.03312 4.0545 3.88312 3.2645C3.88312 3.247 3.86562 3.242 3.86312 3.2645C3.83962 3.406 3.82612 3.569 3.82612 3.735C3.82612 4.067 3.88012 4.387 3.97912 4.6855L3.97312 4.664C3.95812 4.664 3.89812 4.664 3.83312 4.499C3.72562 4.214 3.46562 3.339 3.94312 2.644C4.02212 2.514 4.13262 2.4105 4.26362 2.341L4.26812 2.339C4.36612 2.301 4.47962 2.279 4.59812 2.279C4.78862 2.279 4.96612 2.336 5.11412 2.4335L5.11062 2.4315L5.10762 2.4225Z" fill="black"/>
<path d="M9.98011 8.8775H9.51262L9.30512 8.965C9.20762 9.005 9.11012 9.035 9.11012 9.035H9.61012C9.46511 9.0975 9.33012 9.155 9.20262 9.215H8.70262L8.38512 9.3625H8.88512C8.75512 9.425 8.63512 9.49 8.52762 9.55H8.01262C7.92512 9.595 7.84262 9.6425 7.76262 9.685H8.29762C8.18762 9.7525 8.09012 9.82 8.00262 9.885H7.44762C7.38262 9.9275 7.32262 9.97 7.26762 10.01H7.84512C6.84512 10.835 7.46262 11.4075 7.72762 11.6C7.74612 11.6135 7.76762 11.627 7.78962 11.6385L7.79262 11.64C7.80762 11.625 7.79262 11.5925 7.79262 11.5875C7.19262 10.8375 8.87012 10.5425 9.84012 10.13C9.71512 9.8275 9.87761 9.3625 9.99512 9.0325L10.0301 8.93C10.0316 8.9255 10.0331 8.9205 10.0331 8.915C10.0331 8.8915 10.0141 8.8725 9.99062 8.8725C9.98962 8.8725 9.98862 8.8725 9.98762 8.8725L9.98011 8.8775Z" fill="black"/>
</g>
<defs>
<clipPath id="clip0_6_255">
<rect width="16" height="16" fill="white"/>
</clipPath>
</defs>
</svg>
