<svg width="16" height="16" viewBox="0 0 16 16" fill="none" xmlns="http://www.w3.org/2000/svg">
<path d="M4.69998 3.82512L4.63248 3.29012C4.97248 3.22512 5.29748 3.15012 5.63248 3.10512C6.08648 3.03512 6.61048 2.99512 7.14348 2.99512C8.47548 2.99512 9.74948 3.24462 10.921 3.69912L10.85 3.67462C11.858 4.03812 12.718 4.59612 13.422 5.30912C13.8895 5.77762 14.2465 6.35762 14.4495 7.00512L14.4575 7.03462C14.5275 7.26712 14.565 7.51462 14.62 7.77212H16V8.28462H15.3175C15.115 8.28462 14.915 8.28462 14.715 8.28462C14.657 8.29512 14.6105 8.33662 14.593 8.39112L14.5925 8.39212C14.4415 9.42362 13.922 10.3121 13.174 10.9371L13.1675 10.9421C12.301 11.7066 11.2475 12.2806 10.0855 12.5876L10.0325 12.5996C9.14748 12.8536 8.13148 13.0001 7.08098 13.0001C7.05248 13.0001 7.02398 13.0001 6.99598 12.9996H7.00048C6.88548 12.9996 6.85048 12.9471 6.83048 12.8071C6.78298 12.4346 6.77798 12.4371 6.47298 12.4171C5.37948 12.3496 4.36698 12.0681 3.45498 11.6141L3.50048 11.6346C3.44798 11.6096 3.40048 11.5796 3.31548 11.5346C3.49798 11.2846 3.66298 11.0646 3.83798 10.8496C3.86548 10.8171 3.94298 10.8496 3.99298 10.8496C4.56848 11.0921 5.23748 11.2776 5.93548 11.3746L5.97798 11.3796C6.30298 11.4291 6.67848 11.4576 7.06048 11.4576C8.38748 11.4576 9.63398 11.1146 10.7165 10.5121L10.678 10.5316C11.269 10.2071 11.752 9.75262 12.101 9.20462L12.1105 9.18912C12.336 8.83012 12.4695 8.39312 12.4695 7.92562C12.4695 7.45812 12.336 7.02112 12.1045 6.65162L12.1105 6.66162C11.8765 6.28212 11.5905 5.96062 11.258 5.69462L11.2505 5.68912C10.4935 5.09812 9.57498 4.67862 8.57198 4.50412L8.53548 4.49912C8.08848 4.40762 7.57448 4.35512 7.04798 4.35512C6.77398 4.35512 6.50348 4.36912 6.23698 4.39712L6.27048 4.39412C4.99398 4.47512 3.83598 4.92262 2.88348 5.63112L2.90048 5.61912C2.53048 5.90162 2.21948 6.23962 1.97498 6.62362L1.96548 6.63912C1.73348 6.99462 1.59598 7.42962 1.59598 7.89712C1.59598 7.93312 1.59698 7.96862 1.59848 8.00412V7.99912C1.59848 8.06912 1.59848 8.13912 1.59848 8.24912C1.45848 8.24912 1.32598 8.24912 1.19348 8.24912C0.958477 8.24912 0.720977 8.24912 0.485977 8.24912C0.440977 8.24912 0.365977 8.23662 0.353477 8.20162C0.235977 7.86162 0.128477 7.51162 0.000976562 7.11412C0.293477 7.11412 0.540977 7.11412 0.790977 7.11412C0.863477 7.11412 0.908477 7.09162 0.938477 6.99662C1.17248 6.28912 1.57848 5.69162 2.10848 5.23312L2.11348 5.22912C2.79098 4.63112 3.60198 4.16612 4.49398 3.88462L4.54098 3.87162L4.69998 3.82512Z" fill="black"/>
<path d="M9.24998 7.83012V8.21012C8.99998 8.21012 8.76748 8.21012 8.52998 8.21012C8.43998 8.21012 8.39248 8.24262 8.33498 8.34012C8.26248 8.47762 8.16398 8.59212 8.04498 8.68062L8.04248 8.68262C7.79248 8.85812 7.48148 8.96312 7.14598 8.96312C6.81048 8.96312 6.49998 8.85812 6.24448 8.67912L6.24948 8.68262C6.16598 8.62462 6.09398 8.55662 6.03348 8.47962L6.03198 8.47762C5.94148 8.36512 5.88698 8.22062 5.88698 8.06312C5.88698 7.88412 5.95748 7.72212 6.07248 7.60262C6.25948 7.41212 6.50498 7.28012 6.77998 7.23612L6.78748 7.23512C6.90198 7.20612 7.03348 7.18912 7.16898 7.18912C7.43398 7.18912 7.68398 7.25312 7.90398 7.36662L7.89498 7.36262C8.05598 7.48512 8.19898 7.61112 8.33198 7.74712C8.37598 7.79212 8.43398 7.82462 8.49798 7.83712L8.49998 7.83762C8.74998 7.83512 8.99998 7.83012 9.24998 7.83012Z" fill="black"/>
</svg>
