<svg width="16" height="16" viewBox="0 0 16 16" fill="none" xmlns="http://www.w3.org/2000/svg">
<g clip-path="url(#clip0_6_463)">
<path d="M11.4 7.60019C11.225 6.2502 10.275 5.1502 9.025 4.7502C8.3 4.5252 8.25 3.8752 8.25 3.8752V6.9002C8.25 6.9002 8.25 6.9002 8.275 6.9002C8.3 6.9002 8.325 6.9252 8.35 6.9252C8.375 6.9252 8.4 6.9502 8.425 6.9502C8.425 6.9502 8.425 6.9502 8.45 6.9502C8.475 6.9502 8.5 6.97519 8.525 6.97519C8.55 6.97519 8.575 7.0002 8.6 7.0002C8.625 7.0252 8.65 7.0252 8.675 7.0502C8.7 7.0752 8.725 7.07519 8.725 7.10019C8.75 7.1252 8.775 7.1252 8.775 7.1502C8.8 7.1752 8.825 7.2002 8.825 7.2002C8.925 7.3002 9 7.4252 9.05 7.5502C9.1 7.6752 9.125 7.82519 9.125 7.97519C9.125 8.5252 8.75 8.9752 8.225 9.1002V11.2002C9.875 11.0752 11.2 9.6752 11.2 8.0002C11.2 7.8502 11.2 7.7002 11.175 7.5752H11.4V7.60019Z" fill="black"/>
<path d="M4.675 8.45019C4.85 9.80019 5.8 10.9002 7.05 11.3002C7.775 11.5252 7.825 12.1752 7.825 12.1752V9.15019C7.825 9.15019 7.825 9.15019 7.8 9.15019C7.775 9.15019 7.75 9.12519 7.725 9.12519C7.7 9.12519 7.675 9.10019 7.65 9.10019C7.65 9.10019 7.65 9.10019 7.625 9.10019C7.6 9.10019 7.575 9.0752 7.55 9.0752C7.525 9.0752 7.5 9.0502 7.475 9.0502C7.45 9.0252 7.425 9.02519 7.4 9.00019C7.375 8.97519 7.35 8.97519 7.35 8.9502C7.325 8.9252 7.3 8.92519 7.3 8.90019C7.275 8.87519 7.25 8.85019 7.25 8.85019C7.15 8.75019 7.075 8.62519 7.025 8.5002C6.975 8.3752 6.95 8.22519 6.95 8.07519C6.95 7.52519 7.325 7.07519 7.85 6.95019V4.85019C6.2 4.97519 4.875 6.3752 4.875 8.0502C4.875 8.2002 4.875 8.3502 4.9 8.4752H4.675V8.45019Z" fill="black"/>
<path d="M15.225 6.5752C15.2 6.4252 15.175 6.3002 15.125 6.1752C14.425 2.6752 16 0.775195 16 0.775195L11.85 4.9002C12.55 5.7502 12.95 6.8252 12.95 8.0252C12.95 10.7502 10.725 12.9752 8 12.9752C6.8 12.9752 5.7 12.5502 4.85 11.8502L3.125 13.5752C4.425 14.7252 6.125 15.4252 8 15.4252C9.65 15.4252 11.175 14.8752 12.4 13.9752L12.15 13.7252C12.75 13.3002 13.25 12.7752 13.7 12.1752L14 12.3502C14.875 11.1252 15.4 9.6502 15.4 8.0252C15.375 7.5252 15.325 7.0502 15.225 6.5752Z" fill="black"/>
<path d="M0.775 9.4252C0.8 9.5752 0.825 9.7002 0.875 9.8252C1.575 13.3252 0 15.2252 0 15.2252L4.15 11.1002C3.45 10.2502 3.05 9.1752 3.05 7.9752C3.05 5.2502 5.275 3.0252 8 3.0252C9.2 3.0252 10.3 3.4502 11.15 4.1502L12.875 2.4252C11.575 1.2752 9.875 0.575195 8 0.575195C6.35 0.575195 4.825 1.1252 3.6 2.0252L3.85 2.2752C3.25 2.7252 2.75 3.2502 2.3 3.8502L2 3.6752C1.125 4.9002 0.6 6.3752 0.6 8.0002C0.625 8.4752 0.675 8.9502 0.775 9.4252Z" fill="black"/>
</g>
<defs>
<clipPath id="clip0_6_463">
<rect width="16" height="16" fill="white"/>
</clipPath>
</defs>
</svg>
