<svg width="16" height="16" viewBox="0 0 16 16" fill="none" xmlns="http://www.w3.org/2000/svg">
<path d="M8.00009 16C6.10759 13.75 3.68259 12.25 1.02759 11.0525C3.68009 7.575 5.82759 3.7975 8.00009 0C10.1701 3.79 12.3176 7.5725 14.9726 11.0525C12.3226 12.25 9.89759 13.735 8.00009 16ZM8.00009 2.6125C6.54509 5.3175 5.10009 8.015 3.28509 10.5125C4.95009 11.39 6.56759 12.325 8.00009 13.5475C9.44259 12.315 11.0626 11.3875 12.7126 10.5125C10.8976 8 9.45509 5.315 8.00009 2.6125Z" fill="black"/>
<path d="M8.00009 4.43C9.14359 6.669 10.2776 8.55 11.5246 10.347L11.4151 10.18C11.3626 10.215 11.3226 10.2475 11.2776 10.2725C10.2209 10.9125 9.16092 11.55 8.09759 12.185C8.07009 12.198 8.03809 12.2055 8.00359 12.2055C7.96909 12.2055 7.93709 12.198 7.90859 12.184L7.91009 12.1845C6.83009 11.5362 5.75175 10.8912 4.67509 10.2495L4.58259 10.1895C5.72359 8.5555 6.85859 6.6705 7.86859 4.711L8.00009 4.43Z" fill="black"/>
</svg>
