<svg width="16" height="16" viewBox="0 0 16 16" fill="none" xmlns="http://www.w3.org/2000/svg">
<g clip-path="url(#clip0_14_333)">
<path d="M13.7465 0C12.9465 0.6065 10.6665 2.42 10.6665 2.42L8.913 1.8465L7.9995 0.3665L7.113 1.8465L5.333 2.42C5.333 2.42 3.053 0.6065 2.253 0C2.253 0 2.0265 3.4265 2.3865 3.8465C3.0465 4.613 3.8265 5.653 3.793 6C3.753 6.4665 3.3465 7.8535 3.7595 8.72C4.1725 9.5865 5.193 11.84 5.193 11.84C4.976 11.872 4.8055 12.038 4.767 12.25L4.7665 12.253C4.809 12.722 4.9495 13.15 5.168 13.528L5.16 13.513C5.357 13.6825 5.5745 13.841 5.805 13.981L5.8265 13.993L6.3 15.9995L7.0335 14.666C7.3105 14.8355 7.6385 14.9515 7.989 14.9915L8 14.9925C8.362 14.9515 8.6895 14.835 8.977 14.66L8.9665 14.666L9.7 15.9995L10.1135 13.9595C10.6535 13.613 10.84 13.4795 10.84 13.4795C11.05 13.1165 11.191 12.6885 11.2325 12.2315L11.2335 12.2195C11.1945 12.0045 11.024 11.8385 10.8095 11.8065L10.8065 11.806C10.8065 11.806 11.82 9.5525 12.24 8.686C12.66 7.8195 12.24 6.4325 12.2065 5.966C12.2065 5.6525 12.953 4.6325 13.613 3.846C13.9995 3.426 13.7465 0 13.7465 0ZM6.2 9.04C6.148 9.046 6.0875 9.0495 6.0265 9.0495C5.1685 9.0495 4.473 8.354 4.473 7.496C4.473 7.0545 4.657 6.6565 4.9525 6.3735L6.6065 8.9195C6.4885 8.9735 6.352 9.0155 6.209 9.0385L6.2 9.04ZM9.8 9.04C9.6485 9.0185 9.5115 8.9785 9.383 8.9225L9.393 8.9265L11.0465 6.38C11.3425 6.6635 11.5265 7.0615 11.5265 7.503C11.5265 8.361 10.831 9.0565 9.973 9.0565C9.912 9.0565 9.8515 9.053 9.792 9.046L9.799 9.0465L9.8 9.04Z" fill="black"/>
<path d="M12.5935 11.0865L14.7935 11.373L13.387 9.373L12.5935 11.0865Z" fill="black"/>
<path d="M2.6135 9.3735L1.207 11.3735L3.407 11.087L2.6135 9.3735Z" fill="black"/>
<path d="M2.42 6.1335C2.129 5.6705 1.839 5.2725 1.525 4.895L1.54 4.9135L0 6.067L2.2465 7.547C2.27 7.0315 2.332 6.546 2.43 6.074L2.42 6.1335Z" fill="black"/>
<path d="M14.46 4.9135C14.158 5.265 13.866 5.652 13.6 6.0575L13.5735 6.1005C13.6615 6.513 13.7235 6.998 13.746 7.494L13.7465 7.514L16 6.0675L14.46 4.9135Z" fill="black"/>
</g>
<defs>
<clipPath id="clip0_14_333">
<rect width="16" height="16" fill="white"/>
</clipPath>
</defs>
</svg>
