<svg width="20" height="20" viewBox="0 0 20 20" fill="none" xmlns="http://www.w3.org/2000/svg">
<path d="M9.55412 2.74894C9.73928 2.38369 10.261 2.38369 10.4461 2.74894L12.2554 6.31793C12.5025 6.80551 12.9691 7.14449 13.5092 7.22889L17.4626 7.84671C17.8672 7.90994 18.0284 8.40608 17.7382 8.69504L14.903 11.5186C14.5157 11.9044 14.3375 12.4528 14.4241 12.9926L15.0582 16.9434C15.1231 17.3477 14.701 17.6544 14.3365 17.4677L10.775 15.6438C10.2885 15.3946 9.71177 15.3946 9.22521 15.6438L5.6637 17.4677C5.29921 17.6544 4.87717 17.3477 4.94206 16.9434L5.57615 12.9926C5.66278 12.4528 5.48456 11.9044 5.09723 11.5186L2.262 8.69504C1.97185 8.40608 2.13305 7.90994 2.53765 7.84671L6.49104 7.22889C7.03114 7.14449 7.4977 6.80551 7.74488 6.31793L9.55412 2.74894Z" fill="#404040" stroke="#404040" stroke-width="1.2"/>
</svg>
