<svg width="20" height="20" viewBox="0 0 20 20" fill="none" xmlns="http://www.w3.org/2000/svg">
<path fill-rule="evenodd" clip-rule="evenodd" d="M16.5668 3.51306H3.43262C2.60549 3.51306 1.93496 4.18463 1.93496 5.01306V14.0699C1.93496 14.8983 2.60549 15.5699 3.43262 15.5699H6.90266C7.9136 15.5699 8.73314 16.3907 8.73314 17.4033V17.8393L11.1212 15.9613C11.4436 15.7077 11.8417 15.5699 12.2516 15.5699H16.5668C17.3939 15.5699 18.0644 14.8983 18.0644 14.0699V5.01306C18.0644 4.18464 17.3939 3.51306 16.5668 3.51306ZM3.43262 2.51306C2.05407 2.51306 0.936523 3.63235 0.936523 5.01306V14.0699C0.936523 15.4506 2.05407 16.5699 3.43262 16.5699H6.90266C7.36218 16.5699 7.73469 16.943 7.73469 17.4033V18.182C7.73469 18.8773 8.5346 19.2668 9.08056 18.8375L11.7378 16.7478C11.8843 16.6326 12.0653 16.5699 12.2516 16.5699H16.5668C17.9453 16.5699 19.0629 15.4506 19.0629 14.0699V5.01306C19.0629 3.63235 17.9453 2.51306 16.5668 2.51306H3.43262Z" fill="#404040"/>
<path d="M7.13959 9.01046C7.13959 9.58575 6.67395 10.0521 6.09955 10.0521C5.52515 10.0521 5.05951 9.58575 5.05951 9.01046C5.05951 8.43516 5.52515 7.96879 6.09955 7.96879C6.67395 7.96879 7.13959 8.43516 7.13959 9.01046Z" fill="#404040"/>
<path d="M11.0398 9.01046C11.0398 9.58575 10.5741 10.0521 9.99971 10.0521C9.42531 10.0521 8.95967 9.58575 8.95967 9.01046C8.95967 8.43516 9.42531 7.96879 9.99971 7.96879C10.5741 7.96879 11.0398 8.43516 11.0398 9.01046Z" fill="#404040"/>
<path d="M14.9399 9.01046C14.9399 9.58575 14.4743 10.0521 13.8999 10.0521C13.3255 10.0521 12.8598 9.58575 12.8598 9.01046C12.8598 8.43516 13.3255 7.96879 13.8999 7.96879C14.4743 7.96879 14.9399 8.43516 14.9399 9.01046Z" fill="#404040"/>
</svg>
