<svg width="20" height="20" viewBox="0 0 20 20" fill="none" xmlns="http://www.w3.org/2000/svg">
<path d="M10.0003 5.50479C10.6862 5.50479 11.2423 4.94875 11.2423 4.26283C11.2423 3.57692 10.6862 3.02087 10.0003 3.02087C9.31441 3.02087 8.75836 3.57692 8.75836 4.26283C8.75836 4.94875 9.31441 5.50479 10.0003 5.50479Z" fill="#404040"/>
<path d="M2.83083 7.36774C3.51674 7.36774 4.07279 6.8117 4.07279 6.12578C4.07279 5.43986 3.51674 4.88382 2.83083 4.88382C2.14491 4.88382 1.58887 5.43986 1.58887 6.12578C1.58887 6.8117 2.14491 7.36774 2.83083 7.36774Z" fill="#404040"/>
<path fill-rule="evenodd" clip-rule="evenodd" d="M11.0552 7.16256C10.5381 6.43654 9.46794 6.41255 8.91884 7.11468L6.25035 10.5268L4.92717 8.83492C4.07417 7.7442 2.32965 8.51563 2.56255 9.88056L3.53563 15.5835C3.71325 16.6244 4.61544 17.3857 5.67143 17.3857H14.3293C15.3853 17.3857 16.2874 16.6244 16.4651 15.5835L17.3806 10.2176C17.619 8.82084 15.8023 8.06571 14.9803 9.21984L13.7503 10.9467L11.0552 7.16256ZM9.70656 7.73071C9.84383 7.55518 10.1114 7.56118 10.2406 7.74268L13.3431 12.0987C13.4369 12.2304 13.5886 12.3086 13.7503 12.3086C13.9121 12.3086 14.0638 12.2304 14.1576 12.0987L15.7948 9.79997C16.0003 9.51143 16.4545 9.70023 16.3949 10.0494L15.4793 15.4153C15.3837 15.9758 14.8979 16.3857 14.3293 16.3857H5.67143C5.10282 16.3857 4.61703 15.9758 4.52139 15.4153L3.5483 9.71237C3.49007 9.37113 3.92621 9.17828 4.13946 9.45095L5.85649 11.6465C5.95126 11.7677 6.09652 11.8385 6.25035 11.8385C6.40418 11.8385 6.54945 11.7677 6.64421 11.6465L9.70656 7.73071Z" fill="#404040"/>
<path d="M18.4118 6.12578C18.4118 6.8117 17.8557 7.36774 17.1698 7.36774C16.4839 7.36774 15.9279 6.8117 15.9279 6.12578C15.9279 5.43986 16.4839 4.88382 17.1698 4.88382C17.8557 4.88382 18.4118 5.43986 18.4118 6.12578Z" fill="#404040"/>
</svg>
