<svg width="20" height="20" viewBox="0 0 20 20" fill="none" xmlns="http://www.w3.org/2000/svg">
<path fill-rule="evenodd" clip-rule="evenodd" d="M7.89086 15.5876C8.54596 15.8351 9.25662 15.9708 10.0005 15.9708C13.2982 15.9708 15.9714 13.2975 15.9714 9.99993C15.9714 9.5581 16.3296 9.19993 16.7714 9.19993C17.2132 9.19993 17.5714 9.5581 17.5714 9.99993C17.5714 14.1812 14.1818 17.5708 10.0005 17.5708C8.98275 17.5708 8.01014 17.3695 7.12175 17.004L6.26872 18.575C5.93037 19.1981 5.00864 19.1056 4.80082 18.4277L3.64996 14.6736C3.52046 14.2512 3.75793 13.8038 4.18035 13.6743L8.00661 12.5013C8.69155 12.2913 9.28599 13.0183 8.94413 13.6479L7.89086 15.5876ZM16.0028 6.77731L12.0256 7.22248C11.3136 7.30217 10.8639 6.47776 11.3163 5.92226L12.4365 4.54673C11.6932 4.21411 10.8692 4.02907 10.0005 4.02907C6.70293 4.02907 4.02969 6.70232 4.02969 9.99993C4.02969 10.4418 3.67152 10.7999 3.22969 10.7999C2.78786 10.7999 2.42969 10.4418 2.42969 9.99993C2.42969 5.81866 5.81928 2.42907 10.0005 2.42907C11.2519 2.42907 12.4338 2.73321 13.4748 3.27176L14.8567 1.57495C15.3045 1.02515 16.1932 1.28649 16.2721 1.99114L16.7088 5.89328C16.758 6.33237 16.4419 6.72816 16.0028 6.77731Z" fill="#404040"/>
</svg>
