<svg width="20" height="20" viewBox="0 0 20 20" fill="none" xmlns="http://www.w3.org/2000/svg">
<path fill-rule="evenodd" clip-rule="evenodd" d="M18.221 10L18.2208 10.0485C18.2212 10.0605 18.2211 10.0724 18.2205 10.0844C18.1753 14.5857 14.5122 18.2208 10.0001 18.2208C5.45989 18.2208 1.7793 14.5402 1.7793 10C1.7793 5.45977 5.45989 1.77917 10.0001 1.77917C14.5404 1.77917 18.221 5.45977 18.221 10ZM10.1641 9.44623C10.9667 9.27356 11.77 9.27223 12.5339 9.41906C12.5506 9.42148 12.567 9.42472 12.5831 9.42874C14.3544 9.78478 15.908 10.9383 16.7394 12.5983C17.0259 11.8556 17.1932 11.0537 17.2178 10.2159C15.4288 7.72421 12.1032 6.8558 9.32552 8.15021C9.53066 8.61324 9.81019 9.05129 10.1641 9.44623ZM9.01377 7.19328C11.7565 5.96902 14.9364 6.54711 17.0742 8.54449C16.9377 7.87734 16.7091 7.24371 16.4024 6.65743C14.487 4.64987 11.4116 4.14993 8.93817 5.53309C8.87048 6.0857 8.89568 6.64753 9.01377 7.19328ZM9.26599 4.26914C9.48349 3.73416 9.79824 3.22948 10.2102 2.78217C11.6863 2.82435 13.0515 3.30952 14.1774 4.10942C12.6032 3.59374 10.8621 3.62464 9.26599 4.26914ZM16.1459 13.7927C15.9646 13.2112 15.6845 12.6853 15.3293 12.2288C15.089 13.936 14.2431 15.4615 13.0064 16.5672C14.3066 15.9711 15.3992 15.0001 16.1459 13.7927ZM14.3987 11.3133C13.9538 10.9783 13.4545 10.7193 12.9226 10.5488C12.6106 13.5364 10.5206 16.0009 7.7222 16.8542C8.34519 17.0611 9.00585 17.1855 9.69122 17.2144C12.3879 16.5619 14.3596 14.1477 14.3987 11.3133ZM11.9381 10.3406C11.4349 10.2869 10.9163 10.31 10.3978 10.4189C9.55611 13.0323 7.04982 14.6951 4.38265 14.5374C4.89378 15.1694 5.50942 15.7134 6.20327 16.1432C9.25516 15.8386 11.669 13.3935 11.9381 10.3406ZM8.87958 2.8656C7.40967 5.09695 7.596 8.09899 9.43858 10.135C9.27357 10.6388 9.03408 11.0998 8.73578 11.5089C6.2253 9.75007 5.31452 6.43547 6.57845 3.63976C7.28331 3.25976 8.05855 2.99352 8.87958 2.8656ZM5.20165 4.60407C4.54238 7.45353 5.63197 10.4947 8.06303 12.2574C7.64947 12.6327 7.17554 12.9354 6.66313 13.1531C4.22796 11.7025 3.12312 8.78882 3.90562 6.12566C4.26593 5.56006 4.7028 5.048 5.20165 4.60407ZM2.81027 9.32678C3.1505 10.9484 4.04792 12.441 5.40447 13.5011C4.83161 13.5803 4.23631 13.5597 3.64212 13.4258C3.09172 12.4065 2.7793 11.2397 2.7793 10C2.7793 9.773 2.78977 9.54844 2.81027 9.32678Z" fill="#404040"/>
</svg>
