<svg width="20" height="20" viewBox="0 0 20 20" fill="none" xmlns="http://www.w3.org/2000/svg">
<path d="M11.747 13.6234C13.1926 14.404 11.7181 16.1965 9.26064 16.1098C7.5561 16.0496 6.43657 14.5882 6.34055 13.419C6.08208 10.2718 7.59459 11.1764 9.97489 12.6001C10.5232 12.928 11.1176 13.2835 11.747 13.6234Z" fill="#404040"/>
<path fill-rule="evenodd" clip-rule="evenodd" d="M10.2157 2.02223C10.2545 3.57635 10.4817 5.09061 10.8051 6.14785C10.8125 6.17202 10.8199 6.19595 10.8274 6.21964C10.857 6.31314 10.8873 6.40285 10.9184 6.48844C10.9623 6.60962 11.0076 6.72257 11.0542 6.82643C11.185 7.11838 11.5442 7.049 11.6508 6.74737C11.6763 6.67535 11.7036 6.60015 11.7327 6.52235C11.7671 6.4303 11.804 6.33462 11.8433 6.23631L11.8682 6.17458C12.0925 5.62221 12.3915 4.99501 12.7534 4.46411C13.1199 3.92635 13.7584 4.26649 13.8224 4.91411C14.0183 6.89436 14.8692 8.02932 15.6596 9.08341C16.4258 10.1054 17.135 11.0513 17.135 12.6178C17.135 16.7429 13.556 18.5324 10.2802 18.5324C5.3362 18.5324 2.63672 15.0746 2.63672 11.7989C2.63672 9.25957 3.96791 5.74071 8.7559 1.33372C9.30345 0.829742 10.1972 1.27828 10.2157 2.02223ZM16.135 12.6178C16.135 14.3484 15.4029 15.5342 14.342 16.3175C13.2464 17.1265 11.7548 17.5324 10.2802 17.5324C5.8745 17.5324 3.63672 14.5085 3.63672 11.7989C3.63672 9.67308 4.72837 6.4678 9.22265 2.26476C9.29115 4.18037 9.63097 6.09595 10.1416 7.23539C10.385 7.77848 10.9353 8.08768 11.515 7.99765C12.0373 7.91656 12.4316 7.53928 12.5937 7.08065C12.7008 6.77765 12.8382 6.42723 13.0005 6.07535C13.3745 7.69085 14.1595 8.74939 14.8232 9.63488C15.6133 10.6891 16.135 11.3961 16.135 12.6178Z" fill="#404040"/>
</svg>
