<svg width="20" height="20" viewBox="0 0 20 20" fill="none" xmlns="http://www.w3.org/2000/svg">
<path d="M17 5.30502C16.5483 5.55598 15.9961 5.70656 15.4942 5.75676C16.0463 5.4054 16.4479 4.85328 16.6486 4.20077C16.1467 4.50193 15.5946 4.7529 14.9421 4.90347C14.4402 4.35135 13.7876 4 13.0347 4C11.5792 4 10.3745 5.25483 10.3745 6.861C10.3745 7.06178 10.3745 7.31274 10.4247 7.51351C8.21622 7.41313 6.25869 6.25869 4.95367 4.55212C4.7027 4.95367 4.60232 5.4556 4.60232 6.00772C4.60232 7.01158 5.05405 7.86486 5.75676 8.3668C5.30502 8.3668 4.90348 8.21622 4.55212 8.01544V8.06564C4.55212 9.42085 5.4556 10.5753 6.66023 10.8764C6.45946 10.9266 6.20849 10.9768 5.95753 10.9768C5.80695 10.9768 5.60618 10.9768 5.4556 10.9266C5.80695 12.0811 6.76062 12.8842 7.91506 12.8842C7.01158 13.6371 5.85714 14.0888 4.65251 14.0888C4.45174 14.0888 4.25097 14.0888 4 14.0386C5.15444 14.8417 6.55985 15.3436 8.06564 15.3436C12.9344 15.3436 15.5946 11.027 15.5946 7.26255C15.5946 7.16216 15.5946 7.01158 15.5946 6.9112C16.1969 6.40927 16.6486 5.90734 17 5.30502Z" fill="#1CB7EB"/>
</svg>
