<svg width="20" height="20" viewBox="0 0 20 20" fill="none" xmlns="http://www.w3.org/2000/svg">
<path fill-rule="evenodd" clip-rule="evenodd" d="M15.5929 4.93099H17.1586C17.6233 4.93099 18 5.28818 18 5.72879V8.39645C18 8.83706 17.6233 9.19425 17.1586 9.19425H17.0466V16.7235C17.0466 17.4285 16.4439 18 15.7004 18H4.29969C3.5562 18 2.95348 17.4285 2.95348 16.7235V9.19425H2.84138C2.3767 9.19425 2 8.83706 2 8.39645V5.72879C2 5.28818 2.3767 4.93099 2.84138 4.93099H4.33907C3.93652 4.28638 3.92007 3.42921 4.48681 2.74329C5.25186 1.81733 6.70313 1.74526 7.56601 2.59036L9.95587 4.93099H9.97609L12.3659 2.59036C13.2288 1.74526 14.6801 1.81733 15.4452 2.74329C16.0119 3.42921 15.9954 4.28638 15.5929 4.93099ZM6.09669 4.92104C5.23335 4.92104 4.74916 3.97812 5.28159 3.33371C5.66895 2.86489 6.40374 2.8284 6.84062 3.25628L8.5404 4.92104H6.09669ZM13.8353 4.92104H11.3916L13.0913 3.25628C13.5282 2.8284 14.263 2.86489 14.6504 3.33371C15.1828 3.97812 14.6986 4.92104 13.8353 4.92104ZM3.00966 8.23689V5.88835H9.49518V8.23689H3.00966ZM10.5048 8.23689V5.88835H16.9903V8.23689H10.5048ZM3.96314 9.19425H9.49518L9.49518 17.0426H4.29969C4.11382 17.0426 3.96314 16.8998 3.96314 16.7235V9.19425ZM10.5048 9.19425L10.5048 17.0426H15.7004C15.8863 17.0426 16.0369 16.8998 16.0369 16.7235V9.19425H10.5048Z" fill="#404040"/>
</svg>
