<svg width="20" height="20" viewBox="0 0 20 20" fill="none" xmlns="http://www.w3.org/2000/svg">
<path fill-rule="evenodd" clip-rule="evenodd" d="M7.14645 6.9797C6.95118 7.17496 6.95118 7.49154 7.14645 7.68681L9.45956 9.99992L7.14645 12.313C6.95118 12.5083 6.95118 12.8249 7.14645 13.0201C7.34171 13.2154 7.65829 13.2154 7.85355 13.0201L10.5202 10.3535C10.7155 10.1582 10.7155 9.84163 10.5202 9.64637L7.85355 6.9797C7.65829 6.78444 7.34171 6.78444 7.14645 6.9797Z" fill="#404040"/>
<path fill-rule="evenodd" clip-rule="evenodd" d="M10.4798 6.9797C10.2845 7.17496 10.2845 7.49155 10.4798 7.68681L12.7929 9.99992L10.4798 12.313C10.2845 12.5083 10.2845 12.8249 10.4798 13.0201C10.675 13.2154 10.9916 13.2154 11.1869 13.0201L13.8536 10.3535C14.0488 10.1582 14.0488 9.84163 13.8536 9.64637L11.1869 6.9797C10.9916 6.78444 10.675 6.78444 10.4798 6.9797Z" fill="#404040"/>
</svg>
