<svg width="20" height="20" viewBox="0 0 20 20" fill="none" xmlns="http://www.w3.org/2000/svg">
<path d="M8.57667 4.91352C9.07312 4.08337 10.048 2.88329 10.5287 2.42858C12.4413 0.618554 14.5251 1.81423 16.36 3.60884C18.6554 5.85376 19.4817 7.87739 16.6989 10.599C15.2185 12.0468 12.3299 13.6003 10.7043 14.5934L5.50564 9.50905C5.69139 7.40176 4.48347 6.21269 6.38485 3.95676C8.64421 1.27695 10.0728 2.91082 10.0728 2.91082" fill="#404040"/>
<path d="M5.50449 9.50904L10.7032 14.5934V14.5945L9.48624 15.7847L7.22099 13.5692C7.00958 13.3625 6.66682 13.3625 6.45541 13.5692L5.51856 14.4855C5.30715 14.6923 5.30715 15.0275 5.51856 15.2342L7.78381 17.4497L6.86326 18.35C6.6989 18.5107 6.43098 18.5107 6.26662 18.35L1.66459 13.8491C1.50023 13.6884 1.50023 13.4264 1.66459 13.2656L5.50449 9.50904Z" fill="#404040"/>
<path fill-rule="evenodd" clip-rule="evenodd" d="M12.1137 2.11217C11.7301 2.20119 11.3251 2.41164 10.9051 2.80906C10.4626 3.22772 9.51746 4.38904 9.04396 5.18082C8.89301 5.43322 8.56143 5.51816 8.30336 5.37053C8.04528 5.22291 7.95843 4.89862 8.10938 4.64622C8.40319 4.15491 8.85232 3.54508 9.28094 3.0192C9.20189 2.98963 9.11234 2.96611 9.0129 2.95469C8.62104 2.90966 7.86401 3.03458 6.80257 4.29352M10.0078 2.19103C9.79193 2.06595 9.49984 1.94446 9.13924 1.90303C8.25199 1.80108 7.16507 2.19912 5.96718 3.61993C4.93108 4.84924 4.71364 5.83954 4.76115 6.81386C4.77733 7.14568 4.82566 7.48524 4.87125 7.80559C4.88733 7.91861 4.90308 8.02924 4.91695 8.1363C4.96486 8.506 4.99797 8.87535 4.9791 9.27417L1.2818 12.8912C0.906086 13.2588 0.906048 13.856 1.2818 14.2235L5.88383 18.7244C6.2596 19.0919 6.87028 19.0919 7.24605 18.7244L8.1666 17.8241C8.37801 17.6173 8.37801 17.2821 8.1666 17.0753L5.90135 14.8599L6.8382 13.9436L9.10345 16.1591C9.31486 16.3658 9.65762 16.3658 9.86903 16.1591L11.0432 15.0107C11.3411 14.8296 11.6956 14.6209 12.0801 14.3946C12.6951 14.0326 13.387 13.6254 14.0474 13.213C15.1618 12.517 16.297 11.7409 17.0817 10.9734C18.535 9.55207 19.1458 8.21212 18.9709 6.85876C18.8013 5.54656 17.9057 4.37175 16.7428 3.23447C15.8093 2.32147 14.7523 1.49702 13.6323 1.16083C13.062 0.989627 12.4659 0.942148 11.8637 1.08188C11.2614 1.22165 10.6887 1.54047 10.1523 2.04802M5.50455 10.2578L2.13183 13.5574L6.56494 17.893L7.01823 17.4497L5.13577 15.6086C4.71295 15.1951 4.71295 14.5246 5.13577 14.1111L6.07262 13.1949C6.49544 12.7813 7.18096 12.7813 7.60378 13.1949L9.48624 15.0359L9.93815 14.594L5.50455 10.2578ZM10.7844 13.923C11.0295 13.7766 11.2889 13.6241 11.5593 13.4651C12.1532 13.1159 12.8001 12.7356 13.4647 12.3205C14.5711 11.6295 15.6205 10.905 16.3161 10.2247C17.6456 8.92435 18.0131 7.89167 17.8967 6.99157C17.7751 6.05032 17.1098 5.09086 15.9773 3.98322C15.0758 3.1016 14.1735 2.43091 13.3147 2.17311C12.8956 2.04733 12.4975 2.0231 12.1137 2.11217M10.7844 13.923L6.0615 9.30394C6.08253 8.82497 6.04178 8.39467 5.99105 8.00317C5.97329 7.86608 5.95503 7.73774 5.93757 7.61507C5.89447 7.31212 5.85628 7.04371 5.84262 6.76342C5.80795 6.05242 5.93734 5.32011 6.80257 4.29352M9.66238 3.25609L9.6633 3.25713L9.66479 3.2588L9.66638 3.26056M10.1523 2.04802C10.1076 2.09034 10.0592 2.1383 10.0078 2.19103L10.1523 2.04802Z" fill="#404040"/>
</svg>
