<svg width="20" height="20" viewBox="0 0 20 20" fill="none" xmlns="http://www.w3.org/2000/svg">
<path fill-rule="evenodd" clip-rule="evenodd" d="M2 10C2 5.58172 5.58172 2 10 2C14.4183 2 18 5.58172 18 10C18 14.4183 14.4183 18 10 18C5.58172 18 2 14.4183 2 10ZM10.4864 4.93171C10.4864 4.663 10.2685 4.44517 9.99982 4.44517C9.73111 4.44517 9.51328 4.663 9.51328 4.93171V9.11051C9.34365 9.20352 9.20352 9.34365 9.11051 9.51328H7.41508C7.14637 9.51328 6.92854 9.73111 6.92854 9.99982C6.92854 10.2685 7.14637 10.4864 7.41508 10.4864H9.11042C9.2826 10.8005 9.61638 11.0135 9.9999 11.0135C10.5597 11.0135 11.0135 10.5597 11.0135 9.9999C11.0135 9.61638 10.8005 9.2826 10.4864 9.11042L10.4864 4.93171Z" fill="#404040"/>
</svg>
