<svg width="20" height="20" viewBox="0 0 20 20" fill="none" xmlns="http://www.w3.org/2000/svg">
<path d="M12.7578 11.9802C13.1465 11.9802 13.4615 11.6649 13.4615 11.276C13.4615 10.887 13.1465 10.5717 12.7578 10.5717C12.3692 10.5717 12.0541 10.887 12.0541 11.276C12.0541 11.6649 12.3692 11.9802 12.7578 11.9802Z" fill="#404040"/>
<path fill-rule="evenodd" clip-rule="evenodd" d="M13.7001 2.05738L7.53885 4.2337H4.50205C3.12021 4.2337 2 5.35475 2 6.73762V15.7361C2 17.119 3.1202 18.24 4.50205 18.24H15.3579C16.7398 18.24 17.86 17.119 17.86 15.7361V6.73762C17.86 5.41298 16.8322 4.32859 15.5311 4.2396L14.9769 2.66848C14.793 2.14687 14.2213 1.87327 13.7001 2.05738ZM15.358 5.23527H4.50205C3.67294 5.23527 3.00082 5.9079 3.00082 6.73762V15.7361C3.00082 16.5658 3.67294 17.2384 4.50205 17.2384H15.3579C16.1871 17.2384 16.8592 16.5658 16.8592 15.7361V13.4539H12.7709C11.5473 13.4539 10.5555 12.4613 10.5555 11.2369C10.5555 10.0124 11.5473 9.01984 12.7709 9.01984H16.8592V6.73762C16.8592 5.9079 16.1871 5.23527 15.358 5.23527ZM16.5396 10.0214H12.7709C12.1001 10.0214 11.5563 10.5656 11.5563 11.2369C11.5563 11.9081 12.1001 12.4523 12.7709 12.4523H16.5396V10.0214Z" fill="#404040"/>
</svg>
