<svg width="20" height="20" viewBox="0 0 20 20" fill="none" xmlns="http://www.w3.org/2000/svg">
<path d="M3.95833 13.3694C3.95833 12.9092 4.33143 12.5361 4.79167 12.5361H8.4375C8.72185 12.5361 8.97293 12.6785 9.12331 12.8959H10.8767C11.0271 12.6785 11.2782 12.5361 11.5625 12.5361H15.2083C15.6686 12.5361 16.0417 12.9092 16.0417 13.3694V14.8408C16.0417 15.7613 15.2955 16.5075 14.375 16.5075H12.3958C11.4754 16.5075 10.7292 15.7613 10.7292 14.8408V13.8959H9.27083V14.8408C9.27083 15.7613 8.52464 16.5075 7.60417 16.5075H5.625C4.70453 16.5075 3.95833 15.7613 3.95833 14.8408V13.3694Z" fill="#404040"/>
<path fill-rule="evenodd" clip-rule="evenodd" d="M15.163 5.85102C14.9007 4.57214 13.6149 3.77873 12.3542 4.11775C10.8121 4.53243 9.18787 4.53243 7.64577 4.11775C6.38505 3.77873 5.09932 4.57215 4.83699 5.85102L4.13608 9.26793H1.71875C1.20098 9.26793 0.78125 9.68767 0.78125 10.2054C0.78125 10.7232 1.20098 11.1429 1.71875 11.1429H18.2812C18.799 11.1429 19.2188 10.7232 19.2188 10.2054C19.2188 9.68767 18.799 9.26793 18.2812 9.26793H15.8639L15.163 5.85102Z" fill="#404040"/>
</svg>
