<svg width="20" height="20" viewBox="0 0 20 20" fill="none" xmlns="http://www.w3.org/2000/svg">
<path d="M10.9662 9.23548C10.9662 9.71845 10.6174 10.0404 9.99137 10.0404C9.37424 10.0404 9.01649 9.71845 9.01649 9.23548C9.01649 8.74357 9.37424 8.41265 9.99137 8.41265C10.6174 8.41265 10.9662 8.74357 10.9662 9.23548Z" fill="#404040"/>
<path d="M11.1541 11.9991C11.1541 12.5805 10.6979 12.9651 10.0093 12.9651C9.2848 12.9651 8.84656 12.5894 8.84656 11.9991C8.84656 11.382 9.29375 10.9974 10.0093 10.9974C10.7248 10.9974 11.1541 11.382 11.1541 11.9991Z" fill="#404040"/>
<path fill-rule="evenodd" clip-rule="evenodd" d="M12.2816 2.93616C12.2816 4.19608 11.2602 5.21745 10.0003 5.21745C8.7404 5.21745 7.71903 4.19608 7.71903 2.93616C7.71903 2.8166 7.72823 2.69919 7.74596 2.58459H6.23079L1.6038 3.66787C1.37768 3.72081 1.21777 3.92247 1.21777 4.15471L1.21779 8.50237C1.21779 8.8032 1.48151 9.03591 1.78 8.99849L4.13955 8.70262V16.4153C4.13955 16.9676 4.58727 17.4153 5.13955 17.4153H14.434C14.9862 17.4153 15.434 16.9676 15.434 16.4153V8.70262L18.2285 9.00832C18.5244 9.04069 18.7829 8.80895 18.7829 8.51128L18.7828 4.16729C18.7828 3.92933 18.6151 3.72434 18.3819 3.6772L12.9756 2.58459H12.2547C12.2724 2.69919 12.2816 2.8166 12.2816 2.93616ZM7.37083 12.0886C7.37083 13.3228 8.4888 14.0562 10.0093 14.0562C11.5297 14.0562 12.6298 13.3228 12.6298 12.0528C12.6298 11.3015 12.2005 10.6844 11.3598 10.4518V10.425C12.0216 10.1925 12.3436 9.7095 12.3436 9.1371C12.3436 8.06384 11.4403 7.402 10.0003 7.402C8.5693 7.402 7.63914 8.10856 7.63914 9.16393C7.63914 9.75422 7.95218 10.2193 8.63191 10.4608V10.4876C7.81802 10.738 7.37083 11.3373 7.37083 12.0886Z" fill="#404040"/>
</svg>
