<svg width="20" height="20" viewBox="0 0 20 20" fill="none" xmlns="http://www.w3.org/2000/svg">
<path d="M15.468 3.55655C13.145 1.23465 9.22658 1.52795 6.71948 4.03505C5.63066 5.12387 4.99966 6.1328 4.71616 7.12215C4.434 8.10681 4.5098 9.02419 4.75274 9.90974C4.75832 9.93564 4.76597 9.96119 4.77569 9.98611C4.77827 9.99432 4.78162 10.0052 4.78557 10.0186C4.79678 10.0568 4.81268 10.1147 4.82942 10.188C4.86316 10.3358 4.89893 10.5402 4.90863 10.7679C4.92858 11.2362 4.83656 11.7182 4.49794 12.0568L1.75434 14.8004C1.45819 15.0966 1.45819 15.5775 1.75434 15.8736L3.15006 17.2694C3.44621 17.5655 3.92711 17.5655 4.22326 17.2694L6.96687 14.5258C7.30548 14.1871 7.78748 14.0951 8.25583 14.1151C8.48346 14.1248 8.68786 14.1605 8.83568 14.1943C8.90903 14.211 8.96695 14.2269 9.00507 14.2381C9.01961 14.2424 9.0312 14.246 9.0396 14.2486C9.05469 14.2545 9.0701 14.2596 9.08577 14.2639C9.47397 14.3718 9.86934 14.4487 10.2752 14.4775C10.5507 14.4971 10.7898 14.2896 10.8094 14.0142C10.829 13.7387 10.6215 13.4996 10.3461 13.48C10.0601 13.4597 9.77247 13.4092 9.47839 13.3338L5.69082 9.54625C5.50477 8.82215 5.46825 8.12773 5.67747 7.39761C5.90046 6.61942 6.41662 5.75213 7.42659 4.74216C9.62452 2.54422 12.9051 2.40896 14.7609 4.26364C16.3682 5.87182 16.4813 8.53901 15.0513 10.6637C14.8971 10.8928 14.9578 11.2035 15.1869 11.3577C15.416 11.5119 15.7267 11.4512 15.8809 11.2221C17.5252 8.77896 17.4759 5.56561 15.468 3.55655Z" fill="#404040"/>
<path fill-rule="evenodd" clip-rule="evenodd" d="M12.0703 16.6374C10.9312 15.4982 10.9312 13.6512 12.0703 12.512C13.2095 11.3729 15.0565 11.3729 16.1956 12.512C17.3348 13.6512 17.3348 15.4982 16.1956 16.6374C15.0565 17.7765 13.2095 17.7765 12.0703 16.6374ZM12.7774 13.2192C12.0288 13.9678 12.0288 15.1816 12.7774 15.9303C13.5261 16.6789 14.7399 16.6789 15.4885 15.9303C16.2372 15.1816 16.2372 13.9678 15.4885 13.2192C14.7399 12.4705 13.5261 12.4705 12.7774 13.2192Z" fill="#404040"/>
</svg>
