<svg width="20" height="20" viewBox="0 0 20 20" fill="none" xmlns="http://www.w3.org/2000/svg">
<path fill-rule="evenodd" clip-rule="evenodd" d="M16.9497 1.91138C17.2259 1.91138 17.4497 2.13523 17.4497 2.41138V6.2105C17.4497 6.48665 17.2259 6.7105 16.9497 6.7105L8.96607 6.7105C8.83233 6.7105 8.70415 6.65692 8.6102 6.56173C8.51625 6.46654 8.46436 6.33767 8.46612 6.20394L8.51601 2.40481C8.51961 2.13125 8.74239 1.91138 9.01597 1.91138H16.9497ZM16.4497 2.91138L9.50945 2.91138L9.47268 5.7105L16.4497 5.7105V2.91138Z" fill="#404040"/>
<path fill-rule="evenodd" clip-rule="evenodd" d="M16.8978 7.91296C17.1739 7.91296 17.3978 8.13682 17.3978 8.41296V12.2121C17.3978 12.4882 17.1739 12.7121 16.8978 12.7121H3.13281C2.99824 12.7121 2.86935 12.6578 2.77528 12.5616C2.68121 12.4654 2.62989 12.3353 2.63294 12.2008L2.71897 8.40164C2.72512 8.12998 2.94711 7.91296 3.21884 7.91296L16.8978 7.91296ZM16.3978 8.91296L3.70765 8.91296L3.64426 11.7121H16.3978V8.91296Z" fill="#404040"/>
<path fill-rule="evenodd" clip-rule="evenodd" d="M14.9825 14.4144C14.9825 14.1383 14.7586 13.9144 14.4825 13.9144L3.96608 13.9144C3.68993 13.9144 3.46608 14.1383 3.46608 14.4144L3.46608 18.2136C3.46608 18.4897 3.68993 18.7136 3.96608 18.7136H14.4825C14.7586 18.7136 14.9825 18.4897 14.9825 18.2136V14.4144ZM4.46608 14.9144H13.9825V17.7136H4.46608L4.46608 14.9144Z" fill="#404040"/>
</svg>
