<svg width="20" height="20" viewBox="0 0 20 20" fill="none" xmlns="http://www.w3.org/2000/svg">
<path fill-rule="evenodd" clip-rule="evenodd" d="M18.3 10.8295C18.3 11.5096 17.31 13.0495 15.72 14.3995L16.99 15.5495C17.3 15.8295 17.32 16.2995 17.04 16.5996C16.77 16.8995 16.3 16.9196 16 16.6495L14.52 15.3095L12.09 13.0996L7.18 8.61954L5.51 7.10954L4.74 6.39954L2.42 4.27955C2.12 4.00956 2.1 3.53956 2.37 3.23954C2.64 2.93955 3.11 2.91956 3.41 3.18955L6.09 5.62955C7.18 5.11955 8.38 4.78956 9.65 4.78956C14.43 4.78956 18.3 9.47956 18.3 10.8295ZM12.98 10.8395C12.98 11.1696 12.93 11.4796 12.84 11.7795L12.83 11.7896L14.97 13.7296L15.12 13.6095C15.84 12.9895 16.41 12.3395 16.8 11.7795C16.99 11.5096 17.13 11.2695 17.21 11.0795C17.27 10.9396 17.29 10.8695 17.3 10.8395L17.2952 10.8247C17.2837 10.7889 17.2617 10.7202 17.21 10.5996C17.13 10.4096 16.99 10.1696 16.8 9.89954C16.41 9.33955 15.84 8.68955 15.12 8.06956C13.66 6.81956 11.72 5.79954 9.65 5.79954C8.7 5.79954 7.77 6.00956 6.9 6.37955L8.41 7.74955C8.79 7.58955 9.21 7.50956 9.65 7.50956C11.49 7.50956 12.98 8.99955 12.98 10.8395Z" fill="#404040"/>
<path d="M9.65 15.8796C7.59 15.8796 5.65 14.8595 4.19 13.6095C3.46 12.9895 2.89 12.3395 2.5 11.7795C2.31 11.5096 2.18 11.2695 2.09 11.0795C2.03 10.9396 2.01 10.8695 2.01 10.8395C2.01 10.8095 2.03 10.7395 2.09 10.5996C2.18 10.4096 2.31 10.1696 2.5 9.89954C2.89 9.33955 3.46 8.68955 4.19 8.06956L4.34 7.94956L3.59 7.26954C1.99 8.61954 1 10.1596 1 10.8395C1 12.1896 4.88 16.8796 9.65 16.8796C10.92 16.8796 12.13 16.5495 13.22 16.0396L12.41 15.2995C11.55 15.6596 10.62 15.8796 9.65 15.8796Z" fill="#404040"/>
<path d="M10.9 13.9295L6.46 9.87955C6.37 10.1795 6.32 10.5096 6.32 10.8395C6.32 12.6795 7.81 14.1696 9.65 14.1696C10.09 14.1696 10.51 14.0795 10.9 13.9295Z" fill="#404040"/>
</svg>
