<svg width="20" height="20" viewBox="0 0 20 20" fill="none" xmlns="http://www.w3.org/2000/svg">
<path fill-rule="evenodd" clip-rule="evenodd" d="M7.10993 7.90737C7.11009 6.48467 7.72828 4.98883 8.87263 3.84449C10.9254 1.79171 14.1092 1.43203 15.973 3.29577C17.8367 5.15952 17.477 8.34333 15.4242 10.3961C14.3566 11.4638 12.983 12.0734 11.6483 12.1505C11.5984 12.1584 11.5416 12.1619 11.4773 12.1603C11.3466 12.1591 11.2159 12.1672 11.0858 12.1785C10.8268 12.201 10.4586 12.2505 10.0316 12.3584C9.17537 12.5748 8.10149 13.0208 7.18616 13.9362L7.18262 13.9397L3.65948 17.4628C3.46422 17.6581 3.14764 17.6581 2.95238 17.4628L1.8066 16.3171C1.61134 16.1218 1.61134 15.8052 1.8066 15.6099L5.33336 12.0825C6.24988 11.166 6.69649 10.0908 6.91316 9.23347C7.02123 8.80587 7.07081 8.43728 7.09335 8.1779C7.10314 8.06525 7.10778 7.97367 7.10993 7.90737ZM9.57974 4.55159C7.79859 6.33274 7.66694 8.87361 9.03103 10.2377C10.3951 11.6018 12.936 11.4701 14.7171 9.68899C16.4983 7.90784 16.6299 5.36697 15.2658 4.00288C13.9018 2.63879 11.3609 2.77045 9.57974 4.55159ZM9.14472 11.5793C8.30628 11.8716 7.52005 12.3113 6.84659 12.8888L6.38071 12.4229C7.03138 11.6666 7.43683 10.8527 7.68959 10.1242C7.86141 10.4178 8.07242 10.6933 8.32392 10.9448C8.57548 11.1964 8.85109 11.4074 9.14472 11.5793Z" fill="#404040"/>
<path fill-rule="evenodd" clip-rule="evenodd" d="M12.4661 14.0834C11.9306 15.3762 12.5445 16.8582 13.8372 17.3937C15.13 17.9292 16.612 17.3153 17.1475 16.0225C17.683 14.7298 17.0691 13.2477 15.7763 12.7123C14.4836 12.1768 13.0015 12.7907 12.4661 14.0834ZM14.2199 16.4698C13.4374 16.1457 13.0658 15.2486 13.39 14.4661C13.7141 13.6836 14.6112 13.312 15.3936 13.6362C16.1761 13.9603 16.5477 14.8574 16.2236 15.6398C15.8995 16.4223 15.0024 16.7939 14.2199 16.4698Z" fill="#404040"/>
</svg>
