<svg width="20" height="20" viewBox="0 0 20 20" fill="none" xmlns="http://www.w3.org/2000/svg">
<path fill-rule="evenodd" clip-rule="evenodd" d="M5.19838 5.5729C5.19838 4.88254 5.75803 4.3229 6.44838 4.3229H12.9588C13.6492 4.3229 14.2088 4.88254 14.2088 5.5729V8.28123C14.2088 8.97158 13.6492 9.53123 12.9588 9.53123H6.44838C5.75803 9.53123 5.19838 8.97159 5.19838 8.28123V5.5729ZM6.44838 5.3229H12.9588C13.0969 5.3229 13.2088 5.43482 13.2088 5.5729V8.28123C13.2088 8.4193 13.0969 8.53123 12.9588 8.53123H6.44838C6.31031 8.53123 6.19838 8.4193 6.19838 8.28123V5.5729C6.19838 5.43482 6.31031 5.3229 6.44838 5.3229Z" fill="#404040"/>
<path d="M5.42757 11.4062C5.42757 11.1301 5.65143 10.9062 5.92757 10.9062H10.9276C11.2037 10.9062 11.4276 11.1301 11.4276 11.4062C11.4276 11.6824 11.2037 11.9062 10.9276 11.9062H5.92757C5.65143 11.9062 5.42757 11.6824 5.42757 11.4062Z" fill="#404040"/>
<path d="M5.92757 13.1979C5.65143 13.1979 5.42757 13.4218 5.42757 13.6979C5.42757 13.9741 5.65143 14.1979 5.92757 14.1979H12.0734C12.3495 14.1979 12.5734 13.9741 12.5734 13.6979C12.5734 13.4218 12.3495 13.1979 12.0734 13.1979H5.92757Z" fill="#404040"/>
<path fill-rule="evenodd" clip-rule="evenodd" d="M2.79492 4.86328C2.79492 3.20643 4.13807 1.86328 5.79492 1.86328H13.5187C15.1755 1.86328 16.5187 3.20643 16.5187 4.86328V10.4245H17.0213C17.9878 10.4245 18.7713 11.208 18.7713 12.1745V16.5104C18.7713 17.4086 18.0432 18.1367 17.145 18.1367H5.79492C4.13807 18.1367 2.79492 16.7936 2.79492 15.1367V4.86328ZM16.5187 11.4245H17.0213C17.4356 11.4245 17.7713 11.7603 17.7713 12.1745V16.5104C17.7713 16.8563 17.4909 17.1367 17.145 17.1367C16.7991 17.1367 16.5187 16.8563 16.5187 16.5104L16.5187 11.4245ZM15.5187 16.5104C15.5187 16.7324 15.5632 16.944 15.6437 17.1367H5.79492C4.69035 17.1367 3.79492 16.2413 3.79492 15.1367V4.86328C3.79492 3.75871 4.69035 2.86328 5.79492 2.86328H13.5187C14.6233 2.86328 15.5187 3.75871 15.5187 4.86328L15.5187 16.5104Z" fill="#404040"/>
</svg>
