<svg width="20" height="20" viewBox="0 0 20 20" fill="none" xmlns="http://www.w3.org/2000/svg">
<path d="M9.44938 5.56224C9.25488 5.36622 8.9383 5.36499 8.74228 5.55949C8.56701 5.7334 8.54747 6.00491 8.68433 6.20057C8.54883 6.30112 8.41419 6.40529 8.28073 6.51318L8.23672 6.46882C8.04222 6.2728 7.72564 6.27157 7.52961 6.46607C7.33359 6.66057 7.33236 6.97715 7.52686 7.17317L7.52873 7.17505C7.47041 7.23095 7.41248 7.28766 7.35494 7.3452C7.29453 7.4056 7.235 7.46649 7.17634 7.5278C6.98091 7.33475 6.66599 7.33549 6.47146 7.53001C6.2762 7.72527 6.2762 8.04186 6.47146 8.23712L6.51494 8.28059C6.40706 8.41421 6.30289 8.54901 6.20235 8.68464C6.00751 8.5499 5.7383 8.56927 5.56484 8.74273C5.36958 8.93799 5.36958 9.25457 5.56484 9.44984L5.63396 9.51896C5.46608 9.78756 5.3117 10.0565 5.17044 10.3232C5.04117 10.5672 5.13419 10.8698 5.37821 10.9991C5.62222 11.1283 5.92483 11.0353 6.0541 10.7913C6.151 10.6084 6.25446 10.4245 6.3646 10.2407C6.56007 10.3824 6.83496 10.3652 7.01111 10.189C7.20637 9.99374 7.20637 9.67716 7.01111 9.48189L6.92273 9.39351C7.02025 9.25855 7.12157 9.12447 7.22671 8.99168C7.42291 9.1714 7.72775 9.16627 7.91773 8.97628C8.113 8.78102 8.113 8.46444 7.91773 8.26918L7.88365 8.23509C7.94218 8.17365 8.00165 8.1127 8.06205 8.0523C8.11865 7.9957 8.17571 7.93994 8.23319 7.88501L8.26603 7.91811C8.46053 8.11413 8.77711 8.11536 8.97313 7.92086C9.16471 7.73077 9.17023 7.42406 8.9888 7.22727C9.12152 7.12196 9.25557 7.02048 9.39059 6.92274L9.47869 7.01153C9.6732 7.20755 9.98978 7.20878 10.1858 7.01428C10.3639 6.83757 10.3812 6.5601 10.237 6.36381C10.4252 6.25062 10.6138 6.14405 10.802 6.04385C11.0457 5.91405 11.1381 5.61124 11.0083 5.3675C10.8785 5.12377 10.5757 5.03141 10.332 5.16121C10.0615 5.30522 9.78949 5.4618 9.51827 5.63167L9.44938 5.56224Z" fill="#404040"/>
<path fill-rule="evenodd" clip-rule="evenodd" d="M14.055 2.72913C13.4334 2.72913 12.7302 2.78324 11.9917 2.91497L11.9884 2.91553C9.99818 3.26218 7.68573 4.1386 5.91127 5.91305C4.14296 7.68136 3.26052 9.9935 2.91376 11.9844C2.9119 11.9951 2.9104 12.0057 2.90924 12.0164C2.72755 13.0694 2.69108 14.0484 2.75727 14.8343C2.7906 15.23 2.85077 15.5867 2.93646 15.8842C3.01827 16.1682 3.13812 16.4517 3.32427 16.6506C3.35807 16.6867 3.39668 16.7172 3.43866 16.7415C3.68951 16.9357 4.04941 17.0545 4.41107 17.1309C4.83884 17.2212 5.36402 17.2709 5.94724 17.2709C6.5488 17.2709 7.22679 17.2202 7.93923 17.0975L7.94096 17.0975C7.99509 17.0967 8.04912 17.0872 8.10075 17.0689C10.0717 16.7118 12.3425 15.8295 14.0851 14.0869C15.8569 12.315 16.7396 10.012 17.0873 8.02189L17.0884 8.01577C17.2741 6.95226 17.3103 5.96315 17.242 5.17122C17.2079 4.77578 17.1469 4.41948 17.0605 4.1227C16.9832 3.85706 16.8721 3.59115 16.7037 3.39597C16.6757 3.35922 16.6451 3.32948 16.6147 3.30556C16.3639 3.08361 15.978 2.95175 15.5886 2.86921C15.1621 2.77878 14.6382 2.72913 14.055 2.72913ZM6.61838 6.62016C8.13301 5.10553 10.1152 4.29882 11.9066 3.94761L16.0563 8.0973C15.7048 9.88698 14.8933 11.8645 13.378 13.3798C11.8685 14.8892 9.88627 15.7007 8.09553 16.0523L3.94586 11.9026C4.29742 10.1119 5.10894 8.1296 6.61838 6.62016Z" fill="#404040"/>
</svg>
