<svg width="20" height="20" viewBox="0 0 20 20" fill="none" xmlns="http://www.w3.org/2000/svg">
<path d="M11.2395 6.52324C11.1788 6.23457 10.8158 6.13731 10.6189 6.35693L9.74418 7.33242C9.66685 7.41865 9.55278 7.46244 9.43761 7.4501L8.13485 7.31046C7.84155 7.27902 7.63688 7.59419 7.78489 7.84935L8.44234 8.98269C8.50046 9.08287 8.50686 9.2049 8.45953 9.31061L7.92415 10.5065C7.80361 10.7757 8.0401 11.0677 8.32852 11.0058L9.60955 10.7308C9.72279 10.7065 9.84082 10.7381 9.92673 10.8158L10.8986 11.6945C11.1174 11.8923 11.4683 11.7576 11.4985 11.4642L11.6328 10.1609C11.6446 10.0457 11.7112 9.94318 11.8116 9.88548L12.9476 9.2327C13.2034 9.08573 13.1837 8.71046 12.914 8.59103L11.716 8.06058C11.6101 8.01369 11.5332 7.91873 11.5093 7.80539L11.2395 6.52324Z" fill="#404040"/>
<path d="M5.99672 12.5014L4.65465 12.1418L4.91347 11.1759L6.25554 11.5355L5.99672 12.5014Z" fill="#404040"/>
<path d="M7.15989 12.8131L8.50196 13.1727L8.76078 12.2068L7.41871 11.8471L7.15989 12.8131Z" fill="#404040"/>
<path d="M11.0071 13.8439L9.66508 13.4843L9.9239 12.5184L11.266 12.878L11.0071 13.8439Z" fill="#404040"/>
<path d="M12.1703 14.1556L13.5123 14.5152L13.7712 13.5493L12.4291 13.1897L12.1703 14.1556Z" fill="#404040"/>
<path fill-rule="evenodd" clip-rule="evenodd" d="M5.35889 2.53492C5.60384 1.62077 6.54348 1.07827 7.45763 1.32322L8.46419 1.59293C8.82244 1.68892 9.03504 2.05716 8.93905 2.41541C8.84306 2.77366 9.05566 3.14189 9.41391 3.23788L13.552 4.34667C13.9102 4.44267 14.2785 4.23007 14.3745 3.87182C14.4704 3.51357 14.8387 3.30097 15.1969 3.39696L16.0804 3.6337C16.9267 3.86044 17.4288 4.73023 17.2021 5.57643L13.9835 17.588C13.7568 18.4342 12.887 18.9363 12.0408 18.7096L11.2915 18.5088C10.8591 18.393 10.6025 17.9485 10.7184 17.5162C10.8342 17.0838 10.5776 16.6394 10.1453 16.5235L6.27562 15.4867C5.84325 15.3708 5.39883 15.6274 5.28297 16.0598C5.16712 16.4921 4.7227 16.7487 4.29033 16.6329L3.41798 16.3991C2.50383 16.1542 1.96133 15.2145 2.20628 14.3004L5.35889 2.53492ZM16.2362 5.31761L13.0176 17.3291C12.9338 17.6419 12.6124 17.8275 12.2996 17.7437L11.7239 17.5894C11.8681 16.6851 11.3081 15.7998 10.4041 15.5576L6.53444 14.5207C5.63042 14.2785 4.70281 14.7652 4.37556 15.6204L3.6768 15.4332C3.29611 15.3312 3.0702 14.9399 3.1722 14.5592L6.32481 2.79374C6.42682 2.41306 6.81812 2.18714 7.19881 2.28915L7.91927 2.48219C7.86845 3.26149 8.37196 3.99397 9.15509 4.20381L13.2932 5.3126C14.0763 5.52244 14.8786 5.13984 15.2242 4.43954L15.8216 4.59962C16.1344 4.68342 16.32 5.00487 16.2362 5.31761Z" fill="#404040"/>
</svg>
