<svg width="20" height="20" viewBox="0 0 20 20" fill="none" xmlns="http://www.w3.org/2000/svg">
<path fill-rule="evenodd" clip-rule="evenodd" d="M2.79492 4.86328C2.79492 3.20643 4.13807 1.86328 5.79492 1.86328H13.5187C15.1755 1.86328 16.5187 3.20643 16.5187 4.86328V10.4245H17.0213C17.9878 10.4245 18.7713 11.208 18.7713 12.1745V16.5104C18.7713 17.4086 18.0432 18.1367 17.145 18.1367H5.79492C4.13807 18.1367 2.79492 16.7936 2.79492 15.1367V4.86328ZM16.5187 16.5104L16.5187 11.4245H17.0213C17.4356 11.4245 17.7713 11.7603 17.7713 12.1745V16.5104C17.7713 16.8563 17.4909 17.1367 17.145 17.1367C16.7991 17.1367 16.5187 16.8563 16.5187 16.5104ZM6.44838 4.32295C5.75803 4.32295 5.19838 4.88259 5.19838 5.57295V8.28128C5.19838 8.97164 5.75803 9.53128 6.44838 9.53128H12.9588C13.6492 9.53128 14.2088 8.97164 14.2088 8.28128V5.57295C14.2088 4.88259 13.6492 4.32295 12.9588 4.32295H6.44838ZM5.42757 11.4063C5.42757 11.1302 5.65143 10.9063 5.92757 10.9063H10.9276C11.2037 10.9063 11.4276 11.1302 11.4276 11.4063C11.4276 11.6824 11.2037 11.9063 10.9276 11.9063H5.92757C5.65143 11.9063 5.42757 11.6824 5.42757 11.4063ZM5.92757 13.198C5.65143 13.198 5.42757 13.4218 5.42757 13.698C5.42757 13.9741 5.65143 14.198 5.92757 14.198H12.0734C12.3495 14.198 12.5734 13.9741 12.5734 13.698C12.5734 13.4218 12.3495 13.198 12.0734 13.198H5.92757Z" fill="#404040"/>
</svg>
