<svg width="20" height="20" viewBox="0 0 20 20" fill="none" xmlns="http://www.w3.org/2000/svg">
<path fill-rule="evenodd" clip-rule="evenodd" d="M12.8536 13.0202C13.0488 12.8249 13.0488 12.5083 12.8536 12.3131L10.5404 9.99996L12.8536 7.68685C13.0488 7.49158 13.0488 7.175 12.8536 6.97974C12.6583 6.78448 12.3417 6.78448 12.1464 6.97974L9.47978 9.64641C9.28452 9.84167 9.28452 10.1583 9.47978 10.3535L12.1464 13.0202C12.3417 13.2154 12.6583 13.2154 12.8536 13.0202Z" fill="#404040"/>
<path fill-rule="evenodd" clip-rule="evenodd" d="M9.52022 13.0202C9.71548 12.8249 9.71548 12.5083 9.52022 12.3131L7.20711 9.99996L9.52022 7.68684C9.71548 7.49158 9.71548 7.175 9.52022 6.97974C9.32496 6.78447 9.00838 6.78447 8.81311 6.97974L6.14645 9.6464C5.95118 9.84167 5.95118 10.1582 6.14645 10.3535L8.81311 13.0202C9.00838 13.2154 9.32496 13.2154 9.52022 13.0202Z" fill="#404040"/>
</svg>
