<svg width="20" height="20" viewBox="0 0 20 20" fill="none" xmlns="http://www.w3.org/2000/svg">
<path fill-rule="evenodd" clip-rule="evenodd" d="M4.4852 7.35253C5.4934 6.04604 6.81369 4.98603 8.32241 4.51949C8.28785 4.50225 8.25318 4.48472 8.21848 4.46692C7.86719 4.28673 7.49188 4.06831 7.19736 3.82829C7.05011 3.70829 6.90682 3.56992 6.79691 3.41396C6.68816 3.25964 6.58893 3.05477 6.58893 2.813C6.58893 2.46372 6.7275 2.16877 6.9788 1.9555C7.20728 1.76159 7.49922 1.66005 7.7789 1.59975C8.33395 1.48008 9.07362 1.47913 9.80444 1.47913C10.5353 1.47913 11.2749 1.48008 11.83 1.59975C12.1097 1.66005 12.4016 1.76159 12.6301 1.9555C12.8814 2.16877 13.02 2.46372 13.02 2.813C13.02 3.05477 12.9207 3.25965 12.812 3.41396C12.7021 3.56992 12.5588 3.70829 12.4115 3.82829C12.1272 4.05999 11.7676 4.27155 11.427 4.44803C13.0401 4.87032 14.451 5.97427 15.5146 7.35253C16.8838 9.12685 17.739 11.4295 17.739 13.552C17.739 14.6176 17.5229 15.4735 17.0904 16.1447C16.6553 16.82 16.0314 17.2615 15.3021 17.549C13.8849 18.1078 11.9671 18.1171 9.99989 18.1171C8.03263 18.1171 6.11492 18.1078 4.69764 17.549C3.96837 17.2615 3.34445 16.82 2.90933 16.1447C2.47681 15.4735 2.26074 14.6176 2.26074 13.552C2.26074 11.4295 3.11599 9.12685 4.4852 7.35253ZM11.5823 8.27667C11.3134 8.14223 10.9804 8.05667 10.5831 8.02001V7.03917H9.71231V8.02001C9.43731 8.05056 9.17453 8.10862 8.92398 8.19417C8.67342 8.27973 8.45342 8.3989 8.26398 8.55167C8.08064 8.69834 7.93092 8.88168 7.81481 9.10167C7.70481 9.31556 7.64981 9.56612 7.64981 9.85334C7.64981 10.1833 7.71092 10.4583 7.83314 10.6783C7.95536 10.8983 8.11731 11.0878 8.31898 11.2467C8.52675 11.4056 8.76509 11.5431 9.03398 11.6592C9.30898 11.7753 9.59314 11.8914 9.88648 12.0075C10.2226 12.142 10.467 12.2611 10.6198 12.365C10.7787 12.4628 10.8581 12.6003 10.8581 12.7775C10.8581 12.9486 10.8001 13.0831 10.684 13.1808C10.574 13.2786 10.4212 13.3275 10.2256 13.3275C9.9812 13.3275 9.78564 13.2511 9.63898 13.0983C9.49231 12.9395 9.41898 12.7133 9.41898 12.42H7.51231C7.51231 13.1045 7.70786 13.6453 8.09898 14.0425C8.49009 14.4336 9.02786 14.6658 9.71231 14.7392V15.7108H10.5831V14.7392C11.2737 14.672 11.8115 14.4611 12.1965 14.1067C12.5815 13.7522 12.774 13.2695 12.774 12.6583C12.774 12.3283 12.7037 12.0503 12.5631 11.8242C12.4287 11.592 12.2484 11.3964 12.0223 11.2375C11.8023 11.0786 11.5518 10.9442 11.2706 10.8342C10.9956 10.7242 10.7206 10.6203 10.4456 10.5225C10.1523 10.4186 9.93231 10.3117 9.78564 10.2017C9.63898 10.0917 9.56564 9.95417 9.56564 9.78918C9.56564 9.61195 9.6237 9.48362 9.73981 9.40417C9.85592 9.32473 9.99342 9.28501 10.1523 9.28501C10.574 9.28501 10.7848 9.55084 10.7848 10.0825H12.6915C12.6915 9.85029 12.6548 9.62112 12.5815 9.39501C12.5143 9.16279 12.3981 8.95195 12.2331 8.76251C12.0681 8.56695 11.8512 8.40501 11.5823 8.27667Z" fill="#404040"/>
</svg>
