<svg width="20" height="20" viewBox="0 0 20 20" fill="none" xmlns="http://www.w3.org/2000/svg">
<path d="M10.4865 4.9319C10.4865 4.6632 10.2687 4.44537 10 4.44537C9.73129 4.44537 9.51346 4.6632 9.51346 4.9319V9.11057C9.34375 9.20359 9.20358 9.34378 9.11055 9.51348H7.41526C7.14655 9.51348 6.92872 9.73131 6.92872 10C6.92872 10.2687 7.14655 10.4866 7.41526 10.4866L9.11057 10.4866C9.28277 10.8007 9.61652 11.0136 10 11.0136C10.5598 11.0136 11.0136 10.5598 11.0136 10C11.0136 9.61651 10.8007 9.28275 10.4865 9.11056V4.9319Z" fill="#404040"/>
<path fill-rule="evenodd" clip-rule="evenodd" d="M10 2C5.58172 2 2 5.58172 2 10C2 14.4183 5.58172 18 10 18C14.4183 18 18 14.4183 18 10C18 5.58172 14.4183 2 10 2ZM2.97308 10C2.97308 6.11914 6.11914 2.97308 10 2.97308C13.8809 2.97308 17.0269 6.11914 17.0269 10C17.0269 13.8809 13.8809 17.0269 10 17.0269C6.11914 17.0269 2.97308 13.8809 2.97308 10Z" fill="#404040"/>
</svg>
