<svg width="20" height="20" viewBox="0 0 20 20" fill="none" xmlns="http://www.w3.org/2000/svg">
<path d="M18.2875 7.04373C18.1542 5.96039 17.5125 4.91039 16.2292 3.61873C13.8625 1.25206 11.8125 0.87706 10.1375 2.49373C10.0958 2.53539 10.0542 2.57706 10.0042 2.62706C9.75417 2.47706 9.3625 2.32706 8.9375 2.34373C8.05417 2.34373 7.15417 2.90206 6.27083 3.97706C4.9375 5.60206 5.09583 6.77706 5.25417 7.91039C5.3125 8.35206 5.37083 8.81873 5.34583 9.32706L1.94583 12.7354C1.77917 12.9021 1.6875 13.1271 1.6875 13.3687C1.6875 13.6104 1.77917 13.8271 1.94583 14.0021L6.19583 18.2521C6.37083 18.4271 6.59583 18.5104 6.82083 18.5104C7.04583 18.5104 7.27917 18.4271 7.45417 18.2521L10.9542 14.7437C11.2458 14.5604 11.5708 14.3687 11.9292 14.1521C13.4792 13.2187 15.3958 12.0687 16.5375 10.9271C17.8708 9.59373 18.4458 8.31873 18.2792 7.04373H18.2875ZM2.72917 13.3687L5.84583 10.2521L9.9375 14.3437L9.59583 14.6854L6.4625 11.5521C6.27083 11.3604 5.95417 11.3604 5.75417 11.5521L4.02083 13.2854C3.92917 13.3771 3.87083 13.5104 3.87083 13.6354C3.87083 13.7604 3.92083 13.8937 4.02083 13.9854L7.15417 17.1187L6.8125 17.4604L2.72917 13.3687ZM15.8292 10.2187C14.7792 11.2687 12.9125 12.3854 11.4125 13.2937C11.1708 13.4437 10.9375 13.5854 10.7208 13.7104L6.3625 9.35206C6.3875 8.76039 6.3125 8.24373 6.25417 7.77706C6.10417 6.68539 5.99583 5.90206 7.05417 4.61873C7.72917 3.80206 8.37917 3.36039 8.94583 3.34373C9.1125 3.34373 9.2375 3.36873 9.34583 3.41039C8.94583 3.91039 8.5375 4.48539 8.2625 4.94373C8.12083 5.18539 8.20417 5.48539 8.44583 5.62706C8.67917 5.76873 8.9875 5.68539 9.12917 5.44373C9.5625 4.71039 10.4208 3.61873 10.8458 3.20206C11.6875 2.38539 12.9875 1.76873 15.5292 4.31039C16.6458 5.42706 17.1958 6.30206 17.3042 7.15206C17.4208 8.10206 16.9458 9.10206 15.8458 10.2021L15.8292 10.2187Z" fill="#404040"/>
</svg>
