<svg width="20" height="20" viewBox="0 0 20 20" fill="none" xmlns="http://www.w3.org/2000/svg">
<path fill-rule="evenodd" clip-rule="evenodd" d="M8.8151 12.4247C10.7628 14.0208 13.6398 13.9088 15.4571 12.0887C17.3936 10.1492 17.3936 7.0046 15.4571 5.0651C13.5207 3.1256 10.381 3.1256 8.44453 5.0651C6.62719 6.88528 6.51538 9.76679 8.1091 11.7176L3.58567 16.248C3.39071 16.4433 3.39071 16.7599 3.58567 16.9552C3.78063 17.1504 4.09672 17.1504 4.29168 16.9552L8.8151 12.4247ZM14.7511 11.3816C13.2046 12.9305 10.6971 12.9305 9.15053 11.3816C7.60397 9.83258 7.60397 7.32119 9.15053 5.77221C10.6971 4.22323 13.2046 4.22323 14.7511 5.77221C16.2977 7.32119 16.2977 9.83258 14.7511 11.3816Z" fill="#404040"/>
</svg>
