<svg width="20" height="20" viewBox="0 0 20 20" fill="none" xmlns="http://www.w3.org/2000/svg">
<path d="M14.4423 14.443C14.4423 14.4997 14.4423 14.5377 14.4423 14.5752C14.4423 15.1237 14.4456 15.6727 14.441 16.2211C14.4335 17.095 13.8475 17.8003 12.9912 17.9684C12.8761 17.9909 12.7568 17.9989 12.6396 17.9989C9.6952 18.0005 6.75084 18.0009 3.80649 17.9997C2.78124 17.9997 2 17.2168 2 16.1919C2 13.2547 2 10.317 2 7.37974C2 6.44458 2.61148 5.72299 3.5312 5.5745C3.6263 5.55907 3.72474 5.55865 3.82192 5.55823C4.35665 5.55656 4.89138 5.5574 5.42611 5.5574C5.46407 5.5574 5.50161 5.5574 5.5575 5.5574C5.5575 5.50985 5.5575 5.46981 5.5575 5.43018C5.5575 4.89211 5.55625 4.35363 5.5575 3.81556C5.56084 2.77196 6.3329 2.00073 7.37567 2.00031C10.3129 1.9999 13.2502 1.9999 16.1879 2.00031C17.2198 2.00031 17.9994 2.77947 17.9994 3.81306C18.0002 6.75741 18.0002 9.70177 17.9994 12.6461C17.9994 13.6547 17.224 14.4347 16.2146 14.4418C15.6694 14.4455 15.1243 14.4426 14.5791 14.4426C14.5382 14.4426 14.4978 14.4426 14.4427 14.4426L14.4423 14.443ZM12.6587 16.2191V7.34178H3.78522V16.2195H12.6587V16.2191ZM16.2179 3.78511H7.34022V5.55782C7.3911 5.55782 7.43573 5.55782 7.48036 5.55782C9.188 5.55782 10.896 5.55615 12.6037 5.56032C12.7755 5.56032 12.9524 5.57533 13.1184 5.61788C13.918 5.82351 14.441 6.5205 14.4419 7.37139C14.4435 9.09321 14.4427 10.815 14.4427 12.5364C14.4427 12.5769 14.4427 12.6173 14.4427 12.6582H16.2179V3.78511Z" fill="#404040"/>
</svg>
