<svg width="20" height="20" viewBox="0 0 20 20" fill="none" xmlns="http://www.w3.org/2000/svg">
<path d="M17.1587 5.02146H15.5923C15.9953 4.35671 16.0124 3.47341 15.4455 2.76655C14.6805 1.81154 13.229 1.73755 12.3661 2.60833L9.97552 5.02146H9.95617L7.56556 2.60833C6.70267 1.73755 5.25123 1.81154 4.48623 2.76655C3.91932 3.47341 3.93639 4.35671 4.33824 5.02146H2.84127C2.37681 5.02146 2 5.38912 2 5.84329V8.59334C2 9.04751 2.37681 9.41517 2.84127 9.41517H9.49513V5.50977H10.5049V9.41517H17.1587C17.6232 9.41517 18 9.04751 18 8.59334V5.84329C18 5.38912 17.6232 5.02146 17.1587 5.02146ZM6.15169 5.02259C5.6952 5.02259 5.37759 4.64697 5.33091 4.21442C5.24895 3.44723 6.1164 2.85988 6.6947 3.28673C6.86318 3.41081 8.13134 4.65721 8.55482 5.02259H6.15169ZM14.8102 4.21442C14.7647 4.64697 14.4471 5.02259 13.9895 5.02259H11.5863C12.011 4.65721 13.278 3.41081 13.4465 3.28673C14.0248 2.85988 14.8922 3.44723 14.8102 4.21442Z" fill="#404040"/>
<path d="M3.45827 17.177C3.45827 17.6312 3.83508 17.9989 4.29954 17.9989H9.49513V10.4032H3.45827V17.177Z" fill="#404040"/>
<path d="M10.5049 17.9989H15.7005C16.1649 17.9989 16.5417 17.6312 16.5417 17.177V10.4032H10.5049V18V17.9989Z" fill="#404040"/>
</svg>
