<svg width="20" height="20" viewBox="0 0 20 20" fill="none" xmlns="http://www.w3.org/2000/svg">
<path fill-rule="evenodd" clip-rule="evenodd" d="M17.94 0.072998L18.6305 1.29754L19.855 1.98808L17.0929 4.75021L16.2714 4.37681L11.4725 9.17573C11.6092 9.41949 11.6871 9.70064 11.6871 9.99999C11.6871 10.932 10.9316 11.6875 9.9996 11.6875C9.06761 11.6875 8.31207 10.932 8.31207 9.99999C8.31207 9.06799 9.06761 8.31246 9.9996 8.31246C10.2681 8.31246 10.5219 8.37516 10.7473 8.48672L15.5594 3.67461L15.1778 2.83513L17.94 0.072998ZM17.8964 2.03163L18.2167 2.21223L16.8758 3.55308L16.5315 3.39656L16.3749 3.05222L17.7158 1.71136L17.8964 2.03163Z" fill="#404040"/>
<path d="M1.77832 10C1.77832 5.45952 5.45914 1.7787 9.99966 1.7787C11.8039 1.7787 13.4723 2.35988 14.8281 3.34524L13.1698 5.00349C12.2535 4.42086 11.166 4.08339 9.99965 4.08339C6.73198 4.08339 4.08301 6.73236 4.08301 10C4.08301 13.2677 6.73198 15.9167 9.99965 15.9167C13.2673 15.9167 15.9163 13.2677 15.9163 10C15.9163 8.80335 15.561 7.68966 14.9502 6.75865L16.6048 5.10404C17.6203 6.47173 18.221 8.16573 18.221 10C18.221 14.5406 14.5402 18.2214 9.99966 18.2214C5.45914 18.2214 1.77832 14.5406 1.77832 10Z" fill="#404040"/>
<path d="M12.4416 5.73172C11.7221 5.31922 10.8884 5.08339 9.99965 5.08339C7.28426 5.08339 5.08301 7.28465 5.08301 10C5.08301 12.7154 7.28426 14.9167 9.99965 14.9167C12.715 14.9167 14.9163 12.7154 14.9163 10C14.9163 9.08063 14.6639 8.22018 14.2247 7.48415L12.5522 9.15669C12.6397 9.42191 12.6871 9.70541 12.6871 9.99999C12.6871 11.4843 11.4839 12.6875 9.9996 12.6875C8.51532 12.6875 7.31207 11.4843 7.31207 9.99999C7.31207 8.51571 8.51532 7.31246 9.9996 7.31246C10.2614 7.31246 10.5144 7.34988 10.7536 7.41968L12.4416 5.73172Z" fill="#404040"/>
</svg>
