<svg width="20" height="20" viewBox="0 0 20 20" fill="none" xmlns="http://www.w3.org/2000/svg">
<path fill-rule="evenodd" clip-rule="evenodd" d="M13.5923 13.5923C12.8189 14.3657 12.8189 15.6117 13.5923 16.3851C14.3657 17.1585 15.6117 17.1585 16.3851 16.3851C17.1585 15.6117 17.1585 14.3657 16.3851 13.5923C15.6117 12.8189 14.3657 12.8189 13.5923 13.5923ZM12.8619 17.1156C11.6846 15.9383 11.6846 14.0392 12.8619 12.8619C14.0392 11.6846 15.9383 11.6846 17.1156 12.8619C18.2928 14.0392 18.2928 15.9383 17.1156 17.1156C15.9383 18.2928 14.0392 18.2928 12.8619 17.1156Z" fill="#404040"/>
<path fill-rule="evenodd" clip-rule="evenodd" d="M16.3679 3.63291C13.9704 1.23539 9.93159 1.54475 7.34501 4.12273C6.2193 5.24845 5.5748 6.28823 5.28263 7.30224C5.10217 7.93814 5.0592 8.54826 5.11936 9.1412L10.4644 14.8213C10.6448 14.8557 10.8253 14.8729 11.0143 14.8901C11.0487 14.8901 11.0917 14.8901 11.1261 14.8901C11.1518 13.9362 11.5299 12.991 12.2604 12.2606C13.4806 11.0403 15.3196 10.8083 16.7804 11.5645C16.7804 11.5645 16.789 11.5473 16.7976 11.5387C18.4905 9.02089 18.4389 5.70389 16.3679 3.63291ZM5.48027 11.0661V11.0317L8.75431 14.512C8.32465 14.512 7.90358 14.6323 7.60281 14.9417L4.77563 17.7688C4.46627 18.0782 3.97645 18.0782 3.66709 17.7688L2.23202 16.3338C1.92266 16.0244 1.92266 15.5346 2.23202 15.2252L5.0592 12.398C5.41153 12.0457 5.50605 11.5559 5.48027 11.0661Z" fill="#404040"/>
</svg>
