<svg width="20" height="20" viewBox="0 0 20 20" fill="none" xmlns="http://www.w3.org/2000/svg">
<path d="M11.5823 8.2767C11.3134 8.14226 10.9804 8.0567 10.5831 8.02003V7.0392H9.71231V8.02003C9.43731 8.05059 9.17453 8.10864 8.92398 8.1942C8.67342 8.27976 8.45342 8.39892 8.26398 8.5517C8.08064 8.69837 7.93092 8.8817 7.81481 9.1017C7.70481 9.31559 7.64981 9.56614 7.64981 9.85337C7.64981 10.1834 7.71092 10.4584 7.83314 10.6784C7.95536 10.8984 8.11731 11.0878 8.31898 11.2467C8.52675 11.4056 8.76509 11.5431 9.03398 11.6592C9.30898 11.7753 9.59314 11.8914 9.88648 12.0075C10.2226 12.142 10.467 12.2611 10.6198 12.365C10.7787 12.4628 10.8581 12.6003 10.8581 12.7775C10.8581 12.9486 10.8001 13.0831 10.684 13.1809C10.574 13.2786 10.4212 13.3275 10.2256 13.3275C9.9812 13.3275 9.78564 13.2511 9.63898 13.0984C9.49231 12.9395 9.41898 12.7134 9.41898 12.42H7.51231C7.51231 13.1045 7.70786 13.6453 8.09898 14.0425C8.49009 14.4336 9.02786 14.6659 9.71231 14.7392V15.7109H10.5831V14.7392C11.2737 14.672 11.8115 14.4611 12.1965 14.1067C12.5815 13.7523 12.774 13.2695 12.774 12.6584C12.774 12.3284 12.7037 12.0503 12.5631 11.8242C12.4287 11.592 12.2484 11.3964 12.0223 11.2375C11.8023 11.0786 11.5518 10.9442 11.2706 10.8342C10.9956 10.7242 10.7206 10.6203 10.4456 10.5225C10.1523 10.4186 9.93231 10.3117 9.78564 10.2017C9.63898 10.0917 9.56564 9.9542 9.56564 9.7892C9.56564 9.61198 9.6237 9.48364 9.73981 9.4042C9.85592 9.32475 9.99342 9.28503 10.1523 9.28503C10.574 9.28503 10.7848 9.55087 10.7848 10.0825H12.6915C12.6915 9.85031 12.6548 9.62114 12.5815 9.39503C12.5143 9.16281 12.3981 8.95198 12.2331 8.76253C12.0681 8.56698 11.8512 8.40503 11.5823 8.2767Z" fill="#404040"/>
<path fill-rule="evenodd" clip-rule="evenodd" d="M4.4852 7.35253C5.4934 6.04604 6.81368 4.98603 8.3224 4.51949C8.28784 4.50224 8.25318 4.48472 8.21848 4.46692C7.86719 4.28672 7.49188 4.06831 7.19736 3.82829C7.05011 3.70829 6.90682 3.56992 6.79691 3.41396C6.68816 3.25964 6.58893 3.05477 6.58893 2.813C6.58893 2.46372 6.7275 2.16877 6.9788 1.9555C7.20728 1.76159 7.49921 1.66005 7.7789 1.59975C8.33395 1.48008 9.07362 1.47913 9.80444 1.47913C10.5353 1.47913 11.2749 1.48008 11.83 1.59975C12.1097 1.66005 12.4016 1.76159 12.6301 1.9555C12.8814 2.16877 13.02 2.46372 13.02 2.813C13.02 3.05477 12.9207 3.25965 12.812 3.41396C12.7021 3.56992 12.5588 3.70829 12.4115 3.82829C12.1272 4.05999 11.7676 4.27155 11.427 4.44803C13.0401 4.87032 14.451 5.97427 15.5146 7.35253C16.8838 9.12685 17.739 11.4295 17.739 13.552C17.739 14.6176 17.5229 15.4735 17.0904 16.1447C16.6553 16.82 16.0314 17.2615 15.3021 17.549C13.8849 18.1078 11.9671 18.1171 9.99989 18.1171C8.03263 18.1171 6.11492 18.1078 4.69764 17.549C3.96837 17.2615 3.34445 16.82 2.90933 16.1447C2.47681 15.4735 2.26074 14.6176 2.26074 13.552C2.26074 11.4295 3.11599 9.12685 4.4852 7.35253ZM9.80444 4.08117C9.8683 4.05625 9.9476 4.02468 10.0382 3.98734C10.285 3.88556 10.6109 3.74287 10.934 3.57715C11.2616 3.40911 11.5652 3.22803 11.7798 3.05311C11.8871 2.96564 11.956 2.89267 11.9946 2.83791C12.0088 2.81774 12.0161 2.80411 12.0196 2.79661C12.0173 2.74939 12.0043 2.73597 11.983 2.71794C11.9367 2.67861 11.831 2.62294 11.6192 2.57729C11.1914 2.48505 10.5734 2.47913 9.80444 2.47913C9.03553 2.47913 8.41744 2.48505 7.98967 2.57729C7.77794 2.62294 7.6722 2.67861 7.62586 2.71794C7.60461 2.73597 7.59162 2.74939 7.5893 2.79661C7.59281 2.80411 7.60011 2.81774 7.61432 2.83791C7.65291 2.89267 7.72177 2.96564 7.8291 3.05311C8.04374 3.22803 8.3473 3.40911 8.67489 3.57715C8.99797 3.74287 9.32385 3.88556 9.57072 3.98734C9.66129 4.02468 9.74059 4.05625 9.80444 4.08117ZM5.27689 7.96346C4.02604 9.58439 3.26074 11.6765 3.26074 13.552C3.26074 14.4855 3.44981 15.1373 3.74994 15.6031C4.04746 16.0648 4.48369 16.3897 5.06444 16.6187C6.26723 17.0929 7.96909 17.1171 9.99989 17.1171C12.0307 17.1171 13.7325 17.0929 14.9353 16.6187C15.5161 16.3897 15.9523 16.0648 16.2498 15.6031C16.5499 15.1373 16.739 14.4855 16.739 13.552C16.739 11.6765 15.9737 9.58438 14.7229 7.96346C13.47 6.33985 11.7914 5.26251 9.99989 5.26251C8.20838 5.26251 6.5298 6.33985 5.27689 7.96346Z" fill="#404040"/>
</svg>
