<svg width="20" height="20" viewBox="0 0 20 20" fill="none" xmlns="http://www.w3.org/2000/svg">
<path fill-rule="evenodd" clip-rule="evenodd" d="M8.87493 3.84156C10.9833 1.73323 14.1666 1.48323 15.9749 3.29156V3.31656C17.7833 5.1249 17.5333 8.30823 15.4249 10.4166C14.4166 11.4249 13.1333 12.0416 11.8083 12.1582C11.7083 12.1666 11.6166 12.1666 11.5249 12.1666H11.5083H11.4749C11.2583 12.1666 8.93327 12.2082 7.1916 13.9416L3.6666 17.4666C3.57493 17.5666 3.4416 17.6166 3.3166 17.6166C3.1916 17.6166 3.0666 17.5666 2.9666 17.4666L1.8166 16.3166C1.62493 16.1166 1.62493 15.7999 1.8166 15.6082L5.3416 12.0749C7.14126 10.2752 7.1254 7.84586 7.12494 7.77623C7.12494 7.77558 7.12493 7.77513 7.12493 7.7749V7.7499C7.13327 7.65823 7.13327 7.56656 7.13327 7.46656C7.2416 6.14156 7.8666 4.8499 8.87493 3.84156ZM6.38327 12.4166L6.84993 12.8832L6.85827 12.8749C7.6166 12.2166 8.4416 11.8082 9.17494 11.5582C8.87494 11.3832 8.58327 11.1832 8.33327 10.9332C8.08327 10.6832 7.87493 10.4082 7.69993 10.1082C7.4416 10.8499 7.03327 11.6582 6.38327 12.4166ZM13.8416 12.7084C14.4666 12.4501 15.1582 12.4501 15.7832 12.7084H15.7749C17.0666 13.2417 17.6832 14.7251 17.1499 16.0167C16.8832 16.6417 16.3999 17.1334 15.7749 17.3917C15.4666 17.5167 15.1332 17.5834 14.8082 17.5834C14.4832 17.5834 14.1582 17.5251 13.8416 17.3917C12.5499 16.8584 11.9332 15.3751 12.4666 14.0834C12.7332 13.4584 13.2166 12.9667 13.8416 12.7084Z" fill="#404040"/>
</svg>
