<svg width="20" height="20" viewBox="0 0 20 20" fill="none" xmlns="http://www.w3.org/2000/svg">
<path d="M8.22749 15.4097C8.3731 16.7585 9.15479 17.7548 10.2124 17.9617C11.2699 18.1686 12.3658 17.5249 13.0019 16.3293L8.22749 15.4097Z" fill="#404040"/>
<path d="M16.6574 12.4439C16.6038 12.4362 16.5654 12.3749 16.5808 12.3136L17.0406 9.20985C17.3012 7.64648 16.9563 6.06777 16.075 4.76496C15.5002 3.9143 14.7338 3.2399 13.8525 2.78775C13.9445 1.96774 13.4004 1.20138 12.5804 1.03278C11.7604 0.864179 10.9557 1.36231 10.7258 2.15167C9.73717 2.22064 8.77156 2.55017 7.91323 3.10962C6.59509 3.96794 5.66779 5.28608 5.29228 6.83413L4.51059 9.86892C4.49526 9.93789 4.44162 9.97621 4.38797 9.96089C3.8975 9.86126 3.41469 10.1831 3.31507 10.6813L3.01619 12.0454C2.93189 12.4592 3.18478 12.8577 3.59096 12.9574L5.4149 13.4095C6.07397 13.5704 6.73304 13.7314 7.39211 13.877L12.3428 14.8809C13.0095 14.9959 13.6839 15.1108 14.3507 15.2181L16.2053 15.5093C16.6191 15.5707 17.0023 15.3024 17.0866 14.8886L17.3625 13.5168C17.4621 13.0187 17.1479 12.5359 16.6497 12.4362L16.6574 12.4439Z" fill="#404040"/>
</svg>
