<svg width="20" height="20" viewBox="0 0 20 20" fill="none" xmlns="http://www.w3.org/2000/svg">
<path d="M7.61574 3.43005C7.61574 3.15391 7.8396 2.93005 8.11574 2.93005H11.9149C12.191 2.93005 12.4149 3.15391 12.4149 3.43005V17.195C12.4149 17.4711 12.191 17.695 11.9149 17.695C11.6387 17.695 11.4149 17.4711 11.4149 17.195V3.93005H8.61574V17.109C8.61574 17.3851 8.39189 17.609 8.11574 17.609C7.8396 17.609 7.61574 17.3851 7.61574 17.109V3.43005Z" fill="#404040"/>
<path d="M1.61426 9.2113C1.61426 8.93516 1.83812 8.7113 2.11426 8.7113H5.91338C6.18953 8.7113 6.41338 8.93516 6.41338 9.2113V17.195C6.41338 17.4711 6.18953 17.695 5.91338 17.695C5.63724 17.695 5.41338 17.4711 5.41338 17.195V9.7113H2.61426V17.1451C2.61426 17.4212 2.3904 17.6451 2.11426 17.6451C1.83812 17.6451 1.61426 17.4212 1.61426 17.1451V9.2113Z" fill="#404040"/>
<path d="M14.1173 6.1786C13.8411 6.1786 13.6173 6.40246 13.6173 6.6786V17.1293C13.6173 17.4054 13.8411 17.6293 14.1173 17.6293C14.3934 17.6293 14.6173 17.4054 14.6173 17.1293V7.1786H17.4164V17.195C17.4164 17.4712 17.6403 17.695 17.9164 17.695C18.1925 17.695 18.4164 17.4712 18.4164 17.195V6.6786C18.4164 6.40246 18.1925 6.1786 17.9164 6.1786H14.1173Z" fill="#404040"/>
</svg>
