<svg width="20" height="20" viewBox="0 0 20 20" fill="none" xmlns="http://www.w3.org/2000/svg">
<path d="M17.4497 2.41138C17.4497 2.13523 17.2259 1.91138 16.9497 1.91138H9.01597C8.74239 1.91138 8.51961 2.13125 8.51601 2.40481L8.46612 6.20394C8.46436 6.33767 8.51625 6.46654 8.6102 6.56173C8.70415 6.65692 8.83233 6.7105 8.96607 6.7105L16.9497 6.7105C17.2259 6.7105 17.4497 6.48665 17.4497 6.2105V2.41138Z" fill="#404040"/>
<path d="M17.3978 8.41291C17.3978 8.13677 17.1739 7.91291 16.8978 7.91291L3.21884 7.91291C2.94711 7.91291 2.72512 8.12993 2.71897 8.40159L2.63294 12.2007C2.62989 12.3353 2.68121 12.4653 2.77528 12.5616C2.86935 12.6578 2.99824 12.712 3.13281 12.712H16.8978C17.1739 12.712 17.3978 12.4882 17.3978 12.212V8.41291Z" fill="#404040"/>
<path d="M14.9825 14.4144C14.9825 14.1383 14.7586 13.9144 14.4825 13.9144L3.96608 13.9144C3.68993 13.9144 3.46608 14.1383 3.46608 14.4144L3.46608 18.2136C3.46608 18.4897 3.68993 18.7136 3.96608 18.7136H14.4825C14.7586 18.7136 14.9825 18.4897 14.9825 18.2136V14.4144Z" fill="#404040"/>
</svg>
