<svg width="20" height="20" viewBox="0 0 20 20" fill="none" xmlns="http://www.w3.org/2000/svg">
<path d="M9.48386 2C8.42255 2.09547 7.41932 2.39238 6.51268 2.85223C4.88317 6.37556 6.50288 10.0151 9.00763 11.7378C9.27957 11.3307 9.49309 10.8782 9.65127 10.3918C8.41668 9.39243 7.74894 7.67505 7.80095 5.95834C7.84342 4.55624 8.36546 3.11437 9.48386 2Z" fill="#404040"/>
<path d="M5.12381 3.7421C4.28011 4.41049 3.5705 5.24078 3.04193 6.18603C3.06325 7.40877 3.36707 8.63939 3.87556 9.75731C4.60692 11.3652 5.7398 12.6925 6.98845 13.4116C7.13232 13.3501 7.26988 13.2833 7.40129 13.2116C7.76144 13.0152 8.08161 12.779 8.36336 12.5088C5.87385 10.7474 4.15954 7.29681 5.12381 3.7421Z" fill="#404040"/>
<path d="M2.26949 8.10048C2.09364 8.76993 2 9.4727 2 10.1973C2 11.4633 2.28582 12.6626 2.79646 13.734C3.93415 13.9203 4.90854 13.9184 5.73658 13.7752C4.59318 12.8969 3.62185 11.6177 2.9642 10.1718C2.6657 9.51559 2.42878 8.81838 2.26949 8.10048Z" fill="#404040"/>
<path d="M3.42396 14.8262C3.94763 15.5948 4.59807 16.27 5.3452 16.822C6.80478 16.6174 8.18165 16.0516 9.31946 15.2614C11.1162 14.0137 12.2332 12.2712 12.2332 10.6144C12.2332 10.5903 12.2349 10.5666 12.2382 10.5434C11.6996 10.4925 11.1584 10.5177 10.6289 10.6214C10.1784 12.0619 9.29323 13.3202 7.88069 14.0906C6.71631 14.7257 5.23647 15.0059 3.42396 14.8262Z" fill="#404040"/>
<path d="M6.60702 17.5895C7.40843 17.9831 8.28321 18.2503 9.20531 18.3649C11.764 17.2774 14.4165 14.9418 14.7382 11.4035C14.7395 11.3895 14.7413 11.3758 14.7436 11.3622C14.2602 11.0798 13.7522 10.8667 13.2331 10.7253C13.1854 12.7829 11.8138 14.7482 9.89055 16.0838C8.92898 16.7516 7.80933 17.2775 6.60702 17.5895Z" fill="#404040"/>
<path d="M11.3516 18.3524C13.9678 17.9962 16.193 16.4107 17.4262 14.1968C16.9519 13.3175 16.3511 12.5884 15.672 12.0175C15.2312 14.9248 13.4039 17.0279 11.3516 18.3524Z" fill="#404040"/>
<path d="M17.9359 13.0979C18.2085 12.3741 18.382 11.6018 18.44 10.7975C17.6167 9.67329 16.3835 8.7897 14.9809 8.27575C13.1384 7.60062 11.0677 7.5871 9.34845 8.44768C9.60422 8.93481 9.94054 9.35113 10.3385 9.65873C13.1589 9.05967 16.156 10.3568 17.9359 13.0979Z" fill="#404040"/>
<path d="M18.4069 9.24407C18.3274 8.55467 18.1627 7.8912 17.9237 7.26446C16.0666 5.45002 12.4356 4.21587 8.9199 5.86737C8.88238 5.88499 8.84379 5.89755 8.80489 5.90533C8.8036 5.93312 8.80254 5.96089 8.8017 5.98866C8.78572 6.51614 8.84975 7.03205 8.98176 7.51222C10.9745 6.54671 13.3037 6.59488 15.3254 7.33566C16.4728 7.7561 17.5413 8.40711 18.4069 9.24407Z" fill="#404040"/>
<path d="M16.7777 5.20824C15.435 3.44903 13.3994 2.24704 11.0781 2.00965C9.96601 2.70131 9.2977 3.68705 8.9944 4.74351C11.82 3.61016 14.6688 4.07082 16.7777 5.20824Z" fill="#404040"/>
</svg>
