<svg width="20" height="20" viewBox="0 0 20 20" fill="none" xmlns="http://www.w3.org/2000/svg">
<path d="M4.73924 10.0521C4.73924 9.59189 5.11233 9.21879 5.57257 9.21879H6.30174C6.76197 9.21879 7.13507 9.59189 7.13507 10.0521V10.7813C7.13507 11.2415 6.76197 11.6146 6.30174 11.6146H5.57257C5.11233 11.6146 4.73924 11.2415 4.73924 10.7813V10.0521Z" fill="#404040"/>
<path d="M9.63507 9.21879C9.17483 9.21879 8.80174 9.59189 8.80174 10.0521V10.7813C8.80174 11.2415 9.17483 11.6146 9.63507 11.6146H10.3642C10.8245 11.6146 11.1976 11.2415 11.1976 10.7813V10.0521C11.1976 9.59189 10.8245 9.21879 10.3642 9.21879H9.63507Z" fill="#404040"/>
<path d="M12.8642 10.0521C12.8642 9.59189 13.2373 9.21879 13.6976 9.21879H14.4267C14.887 9.21879 15.2601 9.59189 15.2601 10.0521V10.7813C15.2601 11.2415 14.887 11.6146 14.4267 11.6146H13.6976C13.2373 11.6146 12.8642 11.2415 12.8642 10.7813V10.0521Z" fill="#404040"/>
<path d="M5.57257 12.6042C5.11233 12.6042 4.73924 12.9773 4.73924 13.4375V14.1667C4.73924 14.6269 5.11233 15 5.57257 15H6.30174C6.76197 15 7.13507 14.6269 7.13507 14.1667V13.4375C7.13507 12.9773 6.76197 12.6042 6.30174 12.6042H5.57257Z" fill="#404040"/>
<path d="M8.80174 13.4375C8.80174 12.9773 9.17483 12.6042 9.63507 12.6042H10.3642C10.8245 12.6042 11.1976 12.9773 11.1976 13.4375V14.1667C11.1976 14.6269 10.8245 15 10.3642 15H9.63507C9.17483 15 8.80174 14.6269 8.80174 14.1667V13.4375Z" fill="#404040"/>
<path d="M13.6976 12.6042C13.2373 12.6042 12.8642 12.9773 12.8642 13.4375V14.1667C12.8642 14.6269 13.2373 15 13.6976 15H14.4267C14.887 15 15.2601 14.6269 15.2601 14.1667V13.4375C15.2601 12.9773 14.887 12.6042 14.4267 12.6042H13.6976Z" fill="#404040"/>
<path fill-rule="evenodd" clip-rule="evenodd" d="M2.07617 5.05212C2.07617 3.67141 3.19546 2.55212 4.57617 2.55212H15.4232C16.8039 2.55212 17.9232 3.67141 17.9232 5.05212V14.948C17.9232 16.3287 16.8039 17.448 15.4232 17.448H4.57617C3.19546 17.448 2.07617 16.3287 2.07617 14.948V5.05212ZM4.57617 3.55212H15.4232C16.2516 3.55212 16.9232 4.2237 16.9232 5.05212V5.95839H3.07617V5.05212C3.07617 4.2237 3.74774 3.55212 4.57617 3.55212ZM3.07617 6.95839V14.948C3.07617 15.7764 3.74774 16.448 4.57617 16.448H15.4232C16.2516 16.448 16.9232 15.7764 16.9232 14.948V6.95839H3.07617Z" fill="#404040"/>
</svg>
