<svg width="20" height="20" viewBox="0 0 20 20" fill="none" xmlns="http://www.w3.org/2000/svg">
<path d="M4.20412 13.1795C4.20412 12.9529 4.38772 12.7692 4.6142 12.7692H7.12592C7.3524 12.7692 7.536 12.9529 7.536 13.1795C7.536 13.4061 7.3524 13.5897 7.12592 13.5897H4.6142C4.38772 13.5897 4.20412 13.4061 4.20412 13.1795Z" fill="#404040"/>
<path d="M4.6142 10.1538C4.38772 10.1538 4.20412 10.3375 4.20412 10.5641C4.20412 10.7907 4.38772 10.9744 4.6142 10.9744H9.17631C9.40279 10.9744 9.58639 10.7907 9.58639 10.5641C9.58639 10.3375 9.40279 10.1538 9.17631 10.1538H4.6142Z" fill="#404040"/>
<path d="M4.20412 7.94872C4.20412 7.72214 4.38772 7.53846 4.6142 7.53846H11.0217C11.2481 7.53846 11.4317 7.72214 11.4317 7.94872C11.4317 8.1753 11.2481 8.35897 11.0217 8.35897H4.6142C4.38772 8.35897 4.20412 8.1753 4.20412 7.94872Z" fill="#404040"/>
<path d="M9.32334 12.0982L10.9914 13.597L9.69477 13.8271C9.42964 13.8741 9.19192 13.6571 9.21455 13.3886L9.32334 12.0982Z" fill="#404040"/>
<path fill-rule="evenodd" clip-rule="evenodd" d="M15.5325 5.07187V4.46154C15.5325 3.10207 14.4309 2 13.0721 2H4.46047C3.10159 2 2 3.10207 2 4.46154V15.5385C2 16.8979 3.10159 18 4.46047 18H13.0721C14.4309 18 15.5325 16.8979 15.5325 15.5385V10.3466C15.5643 10.3267 15.5938 10.3021 15.6201 10.2728L17.5211 8.15536C17.9653 7.66054 17.9349 6.90489 17.4599 6.44708L17.79 6.07937C18.0927 5.74223 18.0649 5.22346 17.7279 4.92066L17.1981 4.4446C16.8611 4.1418 16.3425 4.16964 16.0399 4.50677L15.5325 5.07187ZM13.0721 2.98462H4.46047C3.64514 2.98462 2.98419 3.64586 2.98419 4.46154V15.5385C2.98419 16.3541 3.64514 17.0154 4.46047 17.0154H13.0721C13.8874 17.0154 14.5483 16.3541 14.5483 15.5385V9.69017L11.2644 13.348L9.5143 11.7754L14.5483 6.16813V4.46154C14.5483 3.64586 13.8874 2.98462 13.0721 2.98462ZM15.5325 8.59391V9.14242L16.9109 7.60708C17.0524 7.44951 17.0494 7.21257 16.9108 7.05867L15.5325 8.59391Z" fill="#404040"/>
</svg>
