<svg width="20" height="20" viewBox="0 0 20 20" fill="none" xmlns="http://www.w3.org/2000/svg">
<path d="M15.9692 6.47923L11.992 6.92439C11.5471 6.9742 11.266 6.45894 11.5487 6.11176L12.9082 4.4425C12.0393 3.98685 11.0504 3.72913 10.0003 3.72913C6.53705 3.72913 3.72949 6.53669 3.72949 9.99998C3.72949 10.2761 3.50563 10.5 3.22949 10.5C2.95335 10.5 2.72949 10.2761 2.72949 9.99998C2.72949 5.9844 5.98477 2.72913 10.0003 2.72913C11.2891 2.72913 12.5005 3.06481 13.5507 3.6535L15.0891 1.76445C15.369 1.42082 15.9244 1.58416 15.9737 2.02457L16.4105 5.92671C16.4412 6.20114 16.2436 6.44851 15.9692 6.47923Z" fill="#404040"/>
<path d="M16.7712 9.49998C17.0473 9.49998 17.2712 9.72384 17.2712 9.99998C17.2712 14.0156 14.0159 17.2708 10.0003 17.2708C8.93369 17.2708 7.91941 17.0408 7.00551 16.6272C6.99995 16.6247 6.99446 16.6221 6.98904 16.6194L6.00489 18.4319C5.79342 18.8213 5.21734 18.7635 5.08745 18.3398L3.93659 14.5857C3.85565 14.3217 4.00407 14.0421 4.26808 13.9611L8.09434 12.7882C8.52243 12.6569 8.89395 13.1113 8.68029 13.5048L7.46744 15.7384C8.24142 16.0806 9.09802 16.2708 10.0003 16.2708C13.4636 16.2708 16.2712 13.4633 16.2712 9.99998C16.2712 9.72384 16.4951 9.49998 16.7712 9.49998Z" fill="#404040"/>
</svg>
