<svg width="20" height="20" viewBox="0 0 20 20" fill="none" xmlns="http://www.w3.org/2000/svg">
<path fill-rule="evenodd" clip-rule="evenodd" d="M11.8986 6.49879L10.0893 2.9298C10.0755 2.90259 10.0627 2.89323 10.0542 2.88823C10.0422 2.88123 10.0236 2.875 10.0001 2.875C9.97667 2.875 9.95801 2.88123 9.94608 2.88823C9.93756 2.89323 9.9247 2.90259 9.9109 2.9298L8.10165 6.49879C7.79632 7.10109 7.21999 7.51983 6.5528 7.62409L2.59941 8.24191C2.56926 8.24662 2.55639 8.25596 2.549 8.26252C2.53865 8.27171 2.52696 8.28753 2.51972 8.30983C2.51247 8.33213 2.51263 8.3518 2.5156 8.36531C2.51772 8.37497 2.52265 8.39009 2.54426 8.41162L5.37949 11.2352C5.85796 11.7117 6.0781 12.3892 5.9711 13.056L5.33701 17.0068C5.33217 17.0369 5.33708 17.052 5.34103 17.0611C5.34657 17.0738 5.35801 17.0898 5.37698 17.1036C5.39595 17.1174 5.41471 17.1233 5.42847 17.1246C5.43831 17.1256 5.45421 17.1256 5.48137 17.1117L9.04288 15.2878C9.64392 14.9799 10.3563 14.9799 10.9574 15.2878L14.5189 17.1117C14.546 17.1256 14.5619 17.1256 14.5718 17.1246C14.5855 17.1233 14.6043 17.1174 14.6233 17.1036C14.6422 17.0898 14.6537 17.0738 14.6592 17.0611C14.6632 17.0521 14.6681 17.0369 14.6632 17.0068L14.0291 13.056C13.9221 12.3892 14.1423 11.7117 14.6208 11.2352L17.456 8.41162C17.4776 8.39009 17.4825 8.37497 17.4846 8.36531C17.4876 8.3518 17.4878 8.33213 17.4805 8.30983C17.4733 8.28753 17.4616 8.27171 17.4512 8.26252C17.4439 8.25596 17.431 8.24662 17.4008 8.24191L13.4474 7.62409C12.7803 7.51983 12.2039 7.10109 11.8986 6.49879ZM10.9813 2.47765C10.5739 1.67412 9.4263 1.67412 9.01896 2.47764L7.20972 6.04663C7.04978 6.36213 6.74788 6.58147 6.3984 6.63609L2.44501 7.2539C1.55493 7.393 1.20029 8.48447 1.83861 9.12018L4.67384 11.9438C4.92447 12.1934 5.03978 12.5483 4.98373 12.8975L4.34964 16.8483C4.20688 17.7378 5.13535 18.4124 5.93719 18.0017L9.4987 16.1778C9.81354 16.0166 10.1867 16.0166 10.5015 16.1778L14.0631 18.0017C14.8649 18.4124 15.7934 17.7378 15.6506 16.8483L15.0165 12.8975C14.9605 12.5483 15.0758 12.1934 15.3264 11.9438L18.1616 9.12018C18.8 8.48448 18.4453 7.393 17.5552 7.2539L13.6018 6.63609C13.2524 6.58147 12.9505 6.36213 12.7905 6.04663L10.9813 2.47765Z" fill="#404040"/>
</svg>
