<svg width="20" height="20" viewBox="0 0 20 20" fill="none" xmlns="http://www.w3.org/2000/svg">
<path fill-rule="evenodd" clip-rule="evenodd" d="M3.40723 2.51306C2.02651 2.51306 0.907227 3.63235 0.907227 5.01306V14.0699C0.907227 15.4506 2.02651 16.5699 3.40723 16.5699H6.88268C7.34292 16.5699 7.71602 16.943 7.71602 17.4033V18.182C7.71602 18.8773 8.51717 19.2668 9.06399 18.8375L11.7253 16.7478C11.8721 16.6326 12.0533 16.5699 12.24 16.5699H16.5619C17.9426 16.5699 19.0619 15.4506 19.0619 14.0699V5.01306C19.0619 3.63235 17.9426 2.51306 16.5619 2.51306H3.40723ZM6.07833 10.0521C6.65363 10.0521 7.12 9.58575 7.12 9.01046C7.12 8.43516 6.65363 7.96879 6.07833 7.96879C5.50303 7.96879 5.03666 8.43516 5.03666 9.01046C5.03666 9.58575 5.50303 10.0521 6.07833 10.0521ZM11.0262 9.01046C11.0262 9.58575 10.5599 10.0521 9.98458 10.0521C9.40928 10.0521 8.94291 9.58575 8.94291 9.01046C8.94291 8.43516 9.40928 7.96879 9.98458 7.96879C10.5599 7.96879 11.0262 8.43516 11.0262 9.01046ZM13.8908 10.0521C14.4661 10.0521 14.9325 9.58575 14.9325 9.01046C14.9325 8.43516 14.4661 7.96879 13.8908 7.96879C13.3155 7.96879 12.8492 8.43516 12.8492 9.01046C12.8492 9.58575 13.3155 10.0521 13.8908 10.0521Z" fill="#404040"/>
</svg>
