<svg width="20" height="20" viewBox="0 0 20 20" fill="none" xmlns="http://www.w3.org/2000/svg">
<path fill-rule="evenodd" clip-rule="evenodd" d="M3.2334 3.4375C3.2334 3.16136 3.45726 2.9375 3.7334 2.9375H15.9213C17.1092 2.9375 17.7041 4.37369 16.8641 5.21364L12.4268 9.65095C12.3643 9.71346 12.3292 9.79824 12.3292 9.88665V14.9809C12.3292 15.4492 12.0835 15.8832 11.6819 16.1242L10.4572 16.859C9.56847 17.3922 8.43784 16.7521 8.43784 15.7157V10.5934C8.43784 10.505 8.40272 10.4202 8.34021 10.3577L4.72914 6.74666C4.53388 6.5514 4.53388 6.23482 4.72914 6.03955C4.92441 5.84429 5.24099 5.84429 5.43625 6.03955L9.04731 9.65062C9.29736 9.90067 9.43784 10.2398 9.43784 10.5934V15.7157C9.43784 15.9748 9.7205 16.1348 9.94267 16.0015L11.1674 15.2667C11.2678 15.2065 11.3292 15.0979 11.3292 14.9809V9.88665C11.3292 9.53303 11.4697 9.19389 11.7197 8.94384L16.157 4.50654C16.367 4.29655 16.2183 3.9375 15.9213 3.9375H3.7334C3.45726 3.9375 3.2334 3.71364 3.2334 3.4375Z" fill="#404040"/>
</svg>
