<svg width="20" height="20" viewBox="0 0 20 20" fill="none" xmlns="http://www.w3.org/2000/svg">
<path d="M16.5038 3.21134C17.116 2.97858 17.7451 3.51052 17.6173 4.15288L15.1543 16.5329C15.0363 17.1258 14.346 17.3997 13.8535 17.0491L9.4109 13.8853L8.89895 14.8429C8.49014 15.6075 7.33073 15.317 7.33073 14.45V11.9603C7.33073 11.9407 7.33187 11.9215 7.33408 11.9029C7.35156 11.6975 7.4448 11.4968 7.6161 11.3471L11.1045 8.2992L5.91855 11.3037C5.71429 11.4221 5.46942 11.4482 5.24477 11.3757L1.97869 10.3213C1.22941 10.0794 1.20258 9.02917 1.93855 8.74934L16.5038 3.21134Z" fill="#404040"/>
</svg>
