<svg width="20" height="20" viewBox="0 0 20 20" fill="none" xmlns="http://www.w3.org/2000/svg">
<path d="M11.4446 6.54199C10.3441 7.00029 8.14315 7.94801 4.84451 9.38515C4.30983 9.59733 4.02834 9.80668 4.00288 10.0104C3.96044 10.3541 4.39187 10.4899 4.97889 10.6752L5.22643 10.753C5.80355 10.9411 6.58153 11.1604 6.98467 11.1688C7.35244 11.1773 7.76123 11.0274 8.21246 10.7162C11.2947 8.63546 12.886 7.58448 12.985 7.56185C13.0557 7.54487 13.1548 7.52507 13.2198 7.58448C13.2863 7.64247 13.2792 7.75422 13.2722 7.78393C13.2297 7.9664 11.5366 9.53933 10.661 10.3541C10.388 10.6087 10.1942 10.7883 10.1546 10.8294C10.0674 10.9185 9.97872 11.0062 9.88866 11.0925C9.35114 11.6102 8.94942 11.9978 9.90988 12.6315C10.3724 12.937 10.743 13.1874 11.1122 13.4391C11.5139 13.7136 11.9157 13.9866 12.4362 14.3289C12.5677 14.4137 12.695 14.5057 12.8181 14.5934C13.2863 14.9272 13.7093 15.2271 14.2284 15.179C14.5311 15.1507 14.8437 14.8678 15.0021 14.0191C15.377 12.0147 16.1139 7.67359 16.2837 5.88424C16.294 5.73549 16.2879 5.58605 16.2653 5.43867C16.252 5.31974 16.1944 5.21017 16.104 5.13172C15.9753 5.04287 15.8219 4.99684 15.6655 5.00017C15.2412 5.00724 14.5862 5.23498 11.4446 6.54199Z" fill="white"/>
</svg>
