<svg width="20" height="20" viewBox="0 0 20 20" fill="none" xmlns="http://www.w3.org/2000/svg">
<path fill-rule="evenodd" clip-rule="evenodd" d="M15.163 5.85102C14.9007 4.57214 13.6149 3.77873 12.3542 4.11775C10.8121 4.53243 9.18787 4.53243 7.64577 4.11775C6.38505 3.77873 5.09932 4.57215 4.83699 5.85102L4.13608 9.26793H1.71875C1.20098 9.26793 0.78125 9.68767 0.78125 10.2054C0.78125 10.7232 1.20098 11.1429 1.71875 11.1429H18.2812C18.799 11.1429 19.2188 10.7232 19.2188 10.2054C19.2188 9.68767 18.799 9.26793 18.2812 9.26793H15.8639L15.163 5.85102ZM14.7115 8.62665L14.1834 6.05196C14.0368 5.33735 13.3184 4.89401 12.6139 5.08344C10.9017 5.54386 9.09828 5.54386 7.38609 5.08344C6.68162 4.89401 5.96318 5.33735 5.81659 6.05196L5.28845 8.62665H14.7115Z" fill="#404040"/>
<path fill-rule="evenodd" clip-rule="evenodd" d="M3.95833 13.3695C3.95833 12.9093 4.33143 12.5362 4.79167 12.5362H8.4375C8.72184 12.5362 8.97293 12.6786 9.12331 12.896H10.8767C11.0271 12.6786 11.2782 12.5362 11.5625 12.5362H15.2083C15.6686 12.5362 16.0417 12.9093 16.0417 13.3695V14.8409C16.0417 15.7613 15.2955 16.5075 14.375 16.5075H12.3958C11.4754 16.5075 10.7292 15.7613 10.7292 14.8409V13.896H9.27083V14.8409C9.27083 15.7613 8.52464 16.5075 7.60417 16.5075H5.625C4.70453 16.5075 3.95833 15.7613 3.95833 14.8409V13.3695ZM4.95833 14.8409V13.5362H8.27083V14.8409C8.27083 15.209 7.97236 15.5075 7.60417 15.5075H5.625C5.25681 15.5075 4.95833 15.209 4.95833 14.8409ZM11.7292 13.5362V14.8409C11.7292 15.209 12.0276 15.5075 12.3958 15.5075H14.375C14.7432 15.5075 15.0417 15.209 15.0417 14.8409V13.5362H11.7292Z" fill="#404040"/>
</svg>
