<svg width="20" height="20" viewBox="0 0 20 20" fill="none" xmlns="http://www.w3.org/2000/svg">
<path fill-rule="evenodd" clip-rule="evenodd" d="M10 2C5.58172 2 2 5.58172 2 10C2 14.4183 5.58172 18 10 18C14.4183 18 18 14.4183 18 10C18 5.58172 14.4183 2 10 2ZM9.10375 5.65874C8.86645 5.89604 8.7478 6.18842 8.7478 6.53589C8.7478 6.70539 8.77746 6.86642 8.83678 7.01896C8.90458 7.16304 8.99357 7.2944 9.10375 7.41305C9.22239 7.52322 9.35375 7.61221 9.49783 7.68001C9.65038 7.73933 9.81564 7.76899 9.99361 7.76899C10.1716 7.76899 10.3368 7.73933 10.4894 7.68001C10.6419 7.61221 10.7733 7.52322 10.8835 7.41305C11.0021 7.2944 11.0911 7.16304 11.1504 7.01896C11.2182 6.86642 11.2521 6.70539 11.2521 6.53589C11.2521 6.3664 11.2182 6.20537 11.1504 6.05282C11.0911 5.90028 11.0021 5.76891 10.8835 5.65874C10.7733 5.54857 10.6419 5.46382 10.4894 5.40449C10.3368 5.33669 10.1716 5.3028 9.99361 5.3028C9.63766 5.3028 9.34104 5.42144 9.10375 5.65874ZM10.9725 8.56987H9.02747V14.6972H10.9725V8.56987Z" fill="#404040"/>
</svg>
