<svg width="20" height="20" viewBox="0 0 20 20" fill="none" xmlns="http://www.w3.org/2000/svg">
<path d="M10.8094 13.9187C11.0236 13.7045 11.1307 13.4406 11.1307 13.1269C11.1307 12.9739 11.1039 12.8286 11.0503 12.6909C10.9891 12.5608 10.9088 12.4422 10.8094 12.3351C10.7023 12.2357 10.5837 12.1554 10.4536 12.0942C10.3159 12.0406 10.1668 12.0138 10.0061 12.0138C9.84546 12.0138 9.69629 12.0406 9.55859 12.0942C9.42089 12.1554 9.30231 12.2357 9.20286 12.3351C9.09576 12.4422 9.01544 12.5608 8.96189 12.6909C8.90069 12.8286 8.87009 12.9739 8.87009 13.1269C8.87009 13.2799 8.90069 13.4253 8.96189 13.563C9.01544 13.7007 9.09576 13.8192 9.20286 13.9187C9.30231 14.0181 9.42089 14.0946 9.55859 14.1482C9.69629 14.2094 9.84546 14.24 10.0061 14.24C10.3274 14.24 10.5952 14.1329 10.8094 13.9187Z" fill="#404040"/>
<path d="M9.12254 11.2909H10.8782L10.8782 5.75995H9.12254L9.12254 11.2909Z" fill="#404040"/>
<path fill-rule="evenodd" clip-rule="evenodd" d="M10.0003 18.2213C14.5409 18.2213 18.2217 14.5405 18.2217 9.99998C18.2217 5.45946 14.5409 1.77865 10.0003 1.77865C5.45983 1.77865 1.77901 5.45946 1.77901 9.99998C1.77901 14.5405 5.45983 18.2213 10.0003 18.2213ZM17.2217 9.99998C17.2217 13.9882 13.9886 17.2213 10.0003 17.2213C6.01211 17.2213 2.77901 13.9882 2.77901 9.99998C2.77901 6.01175 6.01211 2.77865 10.0003 2.77865C13.9886 2.77865 17.2217 6.01175 17.2217 9.99998Z" fill="#404040"/>
</svg>
