<svg width="20" height="20" viewBox="0 0 20 20" fill="none" xmlns="http://www.w3.org/2000/svg">
<path fill-rule="evenodd" clip-rule="evenodd" d="M6.98141 12.8536C7.17667 13.0488 7.49325 13.0488 7.68851 12.8536L10.0016 10.5404L12.3147 12.8536C12.51 13.0488 12.8266 13.0488 13.0218 12.8536C13.2171 12.6583 13.2171 12.3417 13.0218 12.1464L10.3552 9.47978C10.1599 9.28452 9.84334 9.28452 9.64807 9.47978L6.98141 12.1464C6.78615 12.3417 6.78615 12.6583 6.98141 12.8536Z" fill="#404040"/>
<path fill-rule="evenodd" clip-rule="evenodd" d="M6.98141 9.52022C7.17667 9.71548 7.49325 9.71548 7.68852 9.52022L10.0016 7.20711L12.3147 9.52022C12.51 9.71548 12.8266 9.71548 13.0219 9.52022C13.2171 9.32496 13.2171 9.00838 13.0219 8.81311L10.3552 6.14645C10.1599 5.95118 9.84334 5.95118 9.64808 6.14645L6.98141 8.81311C6.78615 9.00838 6.78615 9.32496 6.98141 9.52022Z" fill="#404040"/>
</svg>
