<svg width="20" height="20" viewBox="0 0 20 20" fill="none" xmlns="http://www.w3.org/2000/svg">
<path d="M10.4295 4V7.90021C11.4332 8.0885 12.192 8.95696 12.192 9.99986C12.192 11.0428 11.4332 11.9112 10.4295 12.0995V16H17.0857C17.5907 16 18 15.5971 18 15.1V12.653H15.7393C15.2343 12.653 14.825 12.25 14.825 11.753V8.62174C14.825 8.12468 15.2343 7.72174 15.7393 7.72174H18V4.9C18 4.40294 17.5907 4 17.0857 4H10.4295Z" fill="#404040"/>
<path d="M9.51518 4V7.92055C8.55966 8.14475 7.84911 8.99062 7.84911 9.99986C7.84911 11.0091 8.55966 11.855 9.51518 12.0792V16H2.91429C2.40934 16 2 15.5971 2 15.1V12.653H4.25804C4.76298 12.653 5.17232 12.25 5.17232 11.753V8.62174C5.17232 8.12468 4.76298 7.72174 4.25804 7.72174H2V4.9C2 4.40294 2.40934 4 2.91429 4H9.51518Z" fill="#404040"/>
<path d="M2 8.62174V11.753H4.25804V8.62174H2Z" fill="#404040"/>
<path d="M18 8.62174H15.7393V11.753H18V8.62174Z" fill="#404040"/>
<path d="M8.76339 9.99986C8.76339 9.49336 9.07252 9.05793 9.51518 8.86641L9.51518 11.1333C9.07252 10.9418 8.76339 10.5064 8.76339 9.99986Z" fill="#404040"/>
<path d="M10.4295 8.82931L10.4295 11.1704C10.923 11.0034 11.2777 10.5424 11.2777 9.99986C11.2777 9.45733 10.923 8.99634 10.4295 8.82931Z" fill="#404040"/>
</svg>
