<svg width="20" height="20" viewBox="0 0 20 20" fill="none" xmlns="http://www.w3.org/2000/svg">
<path fill-rule="evenodd" clip-rule="evenodd" d="M8.78484 12.4247C10.7326 14.0208 13.6095 13.9088 15.4269 12.0887C17.3633 10.1492 17.3633 7.0046 15.4269 5.0651C13.4904 3.1256 10.3507 3.1256 8.41426 5.0651C6.59692 6.88528 6.48511 9.76679 8.07883 11.7176L3.5554 16.2481C3.36044 16.4433 3.36044 16.7599 3.5554 16.9552C3.75036 17.1504 4.06644 17.1504 4.2614 16.9552L8.78484 12.4247ZM12.7748 7.97408C12.1881 8.56163 11.237 8.56163 10.6503 7.97408C10.0637 7.38652 10.0637 6.43391 10.6503 5.84635C11.237 5.25879 12.1881 5.25879 12.7748 5.84635C13.3614 6.43391 13.3614 7.38652 12.7748 7.97408Z" fill="#404040"/>
</svg>
