<svg width="20" height="20" viewBox="0 0 20 20" fill="none" xmlns="http://www.w3.org/2000/svg">
<path fill-rule="evenodd" clip-rule="evenodd" d="M13.0215 7.14645C12.8263 6.95118 12.5097 6.95118 12.3144 7.14645L10.0013 9.45956L7.68819 7.14645C7.49293 6.95118 7.17634 6.95118 6.98108 7.14645C6.78582 7.34171 6.78582 7.65829 6.98108 7.85355L9.64775 10.5202C9.84301 10.7155 10.1596 10.7155 10.3549 10.5202L13.0215 7.85355C13.2168 7.65829 13.2168 7.34171 13.0215 7.14645Z" fill="#404040"/>
<path fill-rule="evenodd" clip-rule="evenodd" d="M13.0215 10.4798C12.8263 10.2845 12.5097 10.2845 12.3144 10.4798L10.0013 12.7929L7.68819 10.4798C7.49292 10.2845 7.17634 10.2845 6.98108 10.4798C6.78582 10.675 6.78582 10.9916 6.98108 11.1869L9.64775 13.8536C9.84301 14.0488 10.1596 14.0488 10.3549 13.8536L13.0215 11.1869C13.2168 10.9916 13.2168 10.675 13.0215 10.4798Z" fill="#404040"/>
</svg>
