<svg width="20" height="20" viewBox="0 0 20 20" fill="none" xmlns="http://www.w3.org/2000/svg">
<path d="M2.14896 11.7943C2.43278 13.2659 3.10904 14.5972 4.06415 15.6756L12.8544 6.87701C12.6648 6.7075 12.4687 6.54646 12.2669 6.39371C11.0301 7.59422 9.58781 7.85944 8.19421 8.11075C6.21497 8.46684 4.16993 8.83939 2.14896 11.7943Z" fill="#404040"/>
<path d="M4.77283 16.3841C5.85412 17.3415 7.18923 18.0184 8.66361 18.3011C11.6097 16.2823 11.9818 14.2395 12.3376 12.2624C12.5892 10.8667 12.8549 9.42213 14.0601 8.18407C13.9002 7.98055 13.7344 7.78346 13.563 7.59397L4.77283 16.3841Z" fill="#404040"/>
<path d="M10.1458 18.448C10.1705 18.4482 10.1952 18.4483 10.22 18.4483C12.9174 18.4483 15.314 17.1448 16.8134 15.1341C16.7795 14.5415 16.677 13.8951 16.5059 13.2212C16.1567 11.8127 15.5207 10.3259 14.6575 9.01507C13.771 10.0017 13.5631 11.1471 13.3296 12.4458L13.3256 12.4675C12.9844 14.3298 12.6022 16.4151 10.1458 18.448Z" fill="#404040"/>
<path d="M17.6494 13.7467C18.1563 12.6798 18.44 11.4868 18.44 10.2283C18.44 10.2196 18.44 10.2109 18.44 10.2021L18.2316 9.88644C17.9565 9.47794 17.0561 8.3775 16.1474 8.24411C15.8934 8.21098 15.6577 8.251 15.4281 8.36659C16.3933 9.80568 17.0963 11.4396 17.4813 12.9795C17.5461 13.237 17.6023 13.4933 17.6494 13.7467Z" fill="#404040"/>
<path d="M18.2202 8.33208C17.9039 6.9924 17.26 5.77808 16.3775 4.77944L14.2716 6.88535C14.4658 7.09815 14.6531 7.31953 14.8332 7.54809C15.2843 7.28198 15.7655 7.18207 16.2808 7.25204C17.048 7.35929 17.7254 7.85225 18.2202 8.33208Z" fill="#404040"/>
<path d="M15.6697 4.07002C14.8494 3.34181 13.8826 2.77506 12.8189 2.42014C13.3434 3.2929 13.6392 4.4772 12.9068 5.63097C13.1319 5.80305 13.351 5.98489 13.563 6.17673L15.6697 4.07002Z" fill="#404040"/>
<path d="M11.2159 2.05984C10.8895 2.02033 10.5571 2 10.22 2C8.68176 2 7.2429 2.42236 6.01244 3.15741C6.2882 3.17347 6.56849 3.19892 6.85194 3.23387C8.58068 3.44917 10.4441 4.03002 12.0841 5.06045C12.9103 3.68349 11.5115 2.33513 11.3567 2.18592L11.3455 2.17501L11.2159 2.05984Z" fill="#404040"/>
<path d="M4.67864 4.14968C5.31368 4.1079 6.00663 4.1269 6.72689 4.2176C8.29304 4.41569 9.95571 4.93094 11.418 5.81795C10.4323 6.68857 9.30024 6.8952 8.0108 7.12701L8.00669 7.12777C6.13748 7.47033 4.04238 7.85429 2.00053 10.3227C2.00018 10.2913 2 10.2598 2 10.2283C2 7.8209 3.03219 5.65454 4.67864 4.14968Z" fill="#404040"/>
</svg>
