<svg width="20" height="20" viewBox="0 0 20 20" fill="none" xmlns="http://www.w3.org/2000/svg">
<path fill-rule="evenodd" clip-rule="evenodd" d="M15.5251 4.23429L14.9746 2.67138C14.7943 2.13987 14.2217 1.87095 13.7028 2.06078L7.53977 4.23429H4.50571C3.12314 4.23429 2 5.35743 2 6.74V15.7378C2 17.1203 3.12314 18.2403 4.50571 18.2403H15.3543C16.7369 18.2403 17.86 17.1203 17.86 15.7378V13.5H12.6562C11.3691 13.5 10.3569 12.3999 10.4638 11.1173C10.5588 9.97703 11.512 9.09998 12.6562 9.09998H17.86V6.74C17.86 5.41754 16.8286 4.32604 15.5251 4.23429ZM13.8705 3.12064C13.978 3.089 14.0919 3.14911 14.1267 3.25352L14.4684 4.31338H9.93158L13.8705 3.12064Z" fill="#404040"/>
<path fill-rule="evenodd" clip-rule="evenodd" d="M17.86 9.89998H12.6562C11.9281 9.89998 11.3215 10.4581 11.261 11.1837C11.193 11.9999 11.8372 12.7 12.6562 12.7H17.86V9.89998ZM12.8076 11.9222C13.1518 11.9222 13.4309 11.639 13.4309 11.2895C13.4309 10.94 13.1518 10.6567 12.8076 10.6567C12.4634 10.6567 12.1843 10.94 12.1843 11.2895C12.1843 11.639 12.4634 11.9222 12.8076 11.9222Z" fill="#404040"/>
</svg>
