<svg width="20" height="20" viewBox="0 0 20 20" fill="none" xmlns="http://www.w3.org/2000/svg">
<path d="M9.19063 6.08131C8.97643 6.29551 8.86933 6.55944 8.86933 6.87309C8.86933 7.02609 8.89611 7.17144 8.94966 7.30914C9.01086 7.43919 9.09118 7.55776 9.19063 7.66486C9.29773 7.76431 9.41631 7.84464 9.54636 7.90584C9.68406 7.95939 9.83324 7.98616 9.99389 7.98616C10.1545 7.98616 10.3037 7.95939 10.4414 7.90584C10.5791 7.84464 10.6977 7.76431 10.7971 7.66486C10.9042 7.55776 10.9846 7.43919 11.0381 7.30914C11.0993 7.17144 11.1299 7.02609 11.1299 6.87309C11.1299 6.72009 11.0993 6.57474 11.0381 6.43704C10.9846 6.29934 10.9042 6.18076 10.7971 6.08131C10.6977 5.98186 10.5791 5.90536 10.4414 5.85181C10.3037 5.79061 10.1545 5.76001 9.99389 5.76001C9.67259 5.76001 9.40483 5.86711 9.19063 6.08131Z" fill="#404040"/>
<path d="M10.8775 8.70909H9.12178V14.2401H10.8775V8.70909Z" fill="#404040"/>
<path fill-rule="evenodd" clip-rule="evenodd" d="M9.99965 1.77869C5.45914 1.77869 1.77832 5.4595 1.77832 10C1.77832 14.5405 5.45914 18.2214 9.99965 18.2214C14.5402 18.2214 18.221 14.5405 18.221 10C18.221 5.4595 14.5402 1.77869 9.99965 1.77869ZM2.77832 10C2.77832 6.01179 6.01142 2.77869 9.99965 2.77869C13.9879 2.77869 17.221 6.01179 17.221 10C17.221 13.9883 13.9879 17.2214 9.99965 17.2214C6.01142 17.2214 2.77832 13.9883 2.77832 10Z" fill="#404040"/>
</svg>
