<svg width="20" height="20" viewBox="0 0 20 20" fill="none" xmlns="http://www.w3.org/2000/svg">
<path fill-rule="evenodd" clip-rule="evenodd" d="M10 18C14.4183 18 18 14.4183 18 10C18 5.58172 14.4183 2 10 2C5.58172 2 2 5.58172 2 10C2 14.4183 5.58172 18 10 18ZM10.8963 14.3413C11.1336 14.104 11.2522 13.8116 11.2522 13.4641C11.2522 13.2946 11.2225 13.1336 11.1632 12.981C11.0954 12.837 11.0064 12.7056 10.8963 12.587C10.7776 12.4768 10.6462 12.3878 10.5022 12.32C10.3496 12.2607 10.1844 12.231 10.0064 12.231C9.82842 12.231 9.66316 12.2607 9.51061 12.32C9.35806 12.3878 9.2267 12.4768 9.11652 12.587C8.99788 12.7056 8.90889 12.837 8.84957 12.981C8.78177 13.1336 8.74787 13.2946 8.74787 13.4641C8.74787 13.6336 8.78177 13.7946 8.84957 13.9472C8.90889 14.0997 8.99788 14.2311 9.11652 14.3413C9.2267 14.4514 9.35806 14.5362 9.51061 14.5955C9.66316 14.6633 9.82842 14.6972 10.0064 14.6972C10.3623 14.6972 10.659 14.5786 10.8963 14.3413ZM9.02754 11.4301H10.9725L10.9725 5.30277L9.02754 5.30277L9.02754 11.4301Z" fill="#404040"/>
</svg>
