<svg width="20" height="20" viewBox="0 0 20 20" fill="none" xmlns="http://www.w3.org/2000/svg">
<path d="M15.8543 15.7501C17.3126 14.2667 18.221 12.2334 18.221 9.99172C18.221 9.49172 18.171 9.00005 18.0793 8.51672C18.0793 8.50005 18.0793 8.48338 18.0793 8.47505C17.771 6.82505 16.971 5.34172 15.8293 4.20005C15.8293 4.20005 15.8293 4.19172 15.821 4.18338C15.8126 4.17505 15.8126 4.18338 15.8043 4.17505C14.646 3.03338 13.171 2.23338 11.521 1.92505C11.5043 1.92505 11.4876 1.92505 11.471 1.92505C10.996 1.84172 10.5043 1.78338 10.0043 1.78338C7.78763 1.77505 5.7793 2.65838 4.3043 4.08338C4.27096 4.11672 4.2293 4.14172 4.18763 4.18338C4.18763 4.18338 4.1793 4.20005 4.17096 4.20838C2.69596 5.69172 1.7793 7.74172 1.7793 10.0001C1.7793 10.1834 1.79596 10.3667 1.8043 10.55C1.8043 10.5751 1.8043 10.5917 1.8043 10.6167C1.9543 12.625 2.8293 14.4417 4.17096 15.7917C4.17096 15.7917 4.17096 15.8084 4.1793 15.8084C4.18763 15.8084 4.18763 15.8084 4.19596 15.8167C5.56263 17.1751 7.4043 18.0501 9.43763 18.1834C9.4543 18.1834 9.46263 18.1917 9.4793 18.1917H9.49596C9.66263 18.2001 9.82096 18.2167 9.98763 18.2167C12.246 18.2167 14.3043 17.3001 15.7876 15.8167C15.7876 15.8167 15.7876 15.8167 15.796 15.8167C15.8126 15.8001 15.8293 15.7834 15.846 15.7667L15.8543 15.7501ZM16.871 12.1917C16.721 10.8917 16.1543 9.46672 15.2126 8.10005C15.521 7.91672 15.8126 7.84172 16.0793 7.89172C16.6126 7.99172 16.9793 8.51672 17.096 8.70838C17.171 9.12505 17.221 9.55005 17.221 9.99172C17.221 10.7584 17.096 11.5001 16.8793 12.1917H16.871ZM11.021 17.1334C13.1626 15.2334 13.3043 13.4584 13.421 11.8584C13.5043 10.7167 13.5876 9.70838 14.446 8.75838C15.0626 9.68338 15.5126 10.6501 15.7376 11.5917C16.0876 13.05 15.871 14.2667 15.146 15.0417C14.0626 16.1417 12.6293 16.9001 11.0293 17.1251L11.021 17.1334ZM5.26263 15.4334L13.3376 7.35838C13.5126 7.55005 13.6876 7.75005 13.8543 7.95005C12.646 9.19172 12.5293 10.5084 12.4293 11.7834C12.3043 13.475 12.1626 15.2167 9.34596 17.175C7.78763 17.0334 6.3793 16.4 5.26263 15.425V15.4334ZM2.81263 10.6501C4.77096 7.83338 6.52096 7.69172 8.2043 7.56672C9.4793 7.46672 10.796 7.35838 12.0376 6.14172C12.2376 6.30005 12.4376 6.47505 12.6293 6.65005L4.56263 14.725C3.59596 13.6084 2.9543 12.2001 2.81263 10.6501ZM4.97096 4.82505C6.31263 3.58338 8.8543 3.94172 11.2376 5.54172C10.2876 6.40005 9.2793 6.48338 8.13763 6.56672C6.54596 6.68338 4.77096 6.82505 2.86263 8.96672C3.09596 7.35005 3.8543 5.90838 4.97096 4.82505ZM13.0793 3.71672C13.0626 3.61672 13.0293 3.52505 12.996 3.43338C13.6293 3.72505 14.221 4.10005 14.7376 4.55838L13.346 5.95005C13.1293 5.75005 12.9126 5.55838 12.6876 5.38338C13.046 4.83338 13.1876 4.27505 13.0793 3.72505V3.71672ZM16.5626 7.00005C16.471 6.96672 16.3793 6.93338 16.271 6.91672C15.721 6.80838 15.1626 6.95005 14.6126 7.30838C14.4293 7.08338 14.2376 6.86672 14.0376 6.65005L15.4293 5.25838C15.8876 5.78338 16.2626 6.36672 16.5543 7.00005H16.5626ZM11.2876 2.90005C11.471 3.01672 11.996 3.38338 12.096 3.90838C12.146 4.17505 12.071 4.46672 11.8876 4.77505C10.521 3.83338 9.1043 3.26672 7.8043 3.11672C8.49596 2.89172 9.23763 2.77505 10.0043 2.77505C10.446 2.77505 10.871 2.81672 11.2876 2.90005Z" fill="#404040"/>
</svg>
