<svg width="20" height="20" viewBox="0 0 20 20" fill="none" xmlns="http://www.w3.org/2000/svg">
<path fill-rule="evenodd" clip-rule="evenodd" d="M17.6173 4.15288C17.7451 3.51052 17.116 2.97858 16.5038 3.21134L1.93855 8.74934C1.20258 9.02917 1.22941 10.0794 1.97869 10.3213L5.24477 11.3757C5.46942 11.4482 5.71429 11.4221 5.91855 11.3037L11.1045 8.2992L7.6161 11.3471C7.40732 11.5295 7.3145 11.7877 7.33347 12.0379H7.33073V14.4499C7.33073 15.317 8.49014 15.6075 8.89895 14.8429L9.41089 13.8853L13.8535 17.0491C14.346 17.3997 15.0363 17.1258 15.1543 16.5329L17.6173 4.15288ZM8.7265 13.398L8.16406 12.9974V14.4499L8.7265 13.398ZM2.23471 9.52827L16.8 3.99027L14.3369 16.3702L8.1644 11.9747L13.5975 7.22751C14.1293 6.7629 13.5323 5.92951 12.9213 6.28349L5.50079 10.5827L2.23471 9.52827Z" fill="#404040"/>
</svg>
