<svg width="20" height="20" viewBox="0 0 20 20" fill="none" xmlns="http://www.w3.org/2000/svg">
<path d="M13.3337 10.0001C13.3337 11.841 11.8414 13.3334 10.0004 13.3334C8.15942 13.3334 6.66702 11.841 6.66702 10.0001C6.66702 8.1591 8.15942 6.66671 10.0004 6.66671C11.8414 6.66671 13.3337 8.1591 13.3337 10.0001Z" fill="#404040"/>
<path fill-rule="evenodd" clip-rule="evenodd" d="M18.6483 10C18.6483 11.3505 14.7765 16.0417 10.0004 16.0417C5.22432 16.0417 1.35254 11.3505 1.35254 10C1.35254 8.64962 5.22432 3.95837 10.0004 3.95837C14.7765 3.95837 18.6483 8.64962 18.6483 10ZM17.5598 9.76107C17.6209 9.8977 17.6399 9.97451 17.6457 10C17.6399 10.0256 17.6209 10.1024 17.5598 10.239C17.4762 10.4259 17.3406 10.6652 17.1475 10.9431C16.762 11.4979 16.1873 12.1484 15.4645 12.7681C14.0049 14.0194 12.0658 15.0417 10.0004 15.0417C7.93503 15.0417 5.99594 14.0194 4.5363 12.7681C3.8135 12.1484 3.23886 11.4979 2.85331 10.9431C2.66021 10.6652 2.52465 10.4259 2.44106 10.239C2.37993 10.1024 2.36094 10.0256 2.35509 10C2.36094 9.97451 2.37993 9.89771 2.44106 9.76107C2.52465 9.57421 2.66021 9.33486 2.85331 9.05699C3.23886 8.5022 3.8135 7.85164 4.5363 7.232C5.99594 5.98068 7.93503 4.95837 10.0004 4.95837C12.0658 4.95837 14.0049 5.98068 15.4645 7.232C16.1873 7.85164 16.762 8.5022 17.1475 9.05699C17.3406 9.33486 17.4762 9.57421 17.5598 9.76107Z" fill="#404040"/>
</svg>
