<svg width="20" height="20" viewBox="0 0 20 20" fill="none" xmlns="http://www.w3.org/2000/svg">
<path fill-rule="evenodd" clip-rule="evenodd" d="M17.94 0.072998L18.6305 1.29754L19.855 1.98808L17.0929 4.75021L16.2714 4.37681L11.6097 9.03853C11.778 9.31968 11.8747 9.64858 11.8747 10.0001C11.8747 11.0356 11.0352 11.8751 9.99963 11.8751C8.96408 11.8751 8.1246 11.0356 8.1246 10.0001C8.1246 8.96452 8.96408 8.12504 9.99963 8.12504C10.3204 8.12504 10.6224 8.2056 10.8864 8.34758L15.5594 3.67461L15.1778 2.83513L17.94 0.072998ZM17.8964 2.03163L18.2167 2.21223L16.8758 3.55308L16.5315 3.39656L16.3749 3.05222L17.7158 1.71136L17.8964 2.03163Z" fill="#404040"/>
<path d="M9.99966 2.7787C6.01142 2.7787 2.77832 6.01181 2.77832 10C2.77832 13.9883 6.01142 17.2214 9.99966 17.2214C13.9879 17.2214 17.221 13.9883 17.221 10C17.221 8.62381 16.8365 7.3389 16.1693 6.24517C16.0255 6.00942 16.1 5.70174 16.3358 5.55794C16.5715 5.41413 16.8792 5.48867 17.023 5.72441C17.7832 6.97054 18.221 8.43492 18.221 10C18.221 14.5406 14.5402 18.2214 9.99966 18.2214C5.45914 18.2214 1.77832 14.5406 1.77832 10C1.77832 5.45952 5.45914 1.7787 9.99966 1.7787C11.5478 1.7787 12.9974 2.20708 14.2347 2.95205C14.4712 3.09449 14.5475 3.40173 14.4051 3.6383C14.2627 3.87488 13.9554 3.95119 13.7188 3.80875C12.6329 3.15491 11.361 2.7787 9.99966 2.7787Z" fill="#404040"/>
<path d="M9.99965 5.81256C7.68694 5.81256 5.81212 7.68738 5.81212 10.0001C5.81212 12.3128 7.68694 14.1876 9.99965 14.1876C12.3123 14.1876 14.1872 12.3128 14.1872 10.0001C14.1872 9.33695 14.0334 8.71116 13.76 8.15514C13.6382 7.90733 13.7403 7.60767 13.9881 7.48583C14.2359 7.36399 14.5356 7.4661 14.6574 7.71391C14.9968 8.40419 15.1872 9.18062 15.1872 10.0001C15.1872 12.8651 12.8646 15.1876 9.99965 15.1876C7.13466 15.1876 4.81212 12.8651 4.81212 10.0001C4.81212 7.13509 7.13466 4.81256 9.99965 4.81256C10.6835 4.81256 11.3377 4.94515 11.9368 5.1865C12.193 5.28967 12.317 5.58096 12.2138 5.8371C12.1107 6.09325 11.8194 6.21726 11.5632 6.11408C11.0808 5.91976 10.5533 5.81256 9.99965 5.81256Z" fill="#404040"/>
</svg>
