<svg width="20" height="20" viewBox="0 0 20 20" fill="none" xmlns="http://www.w3.org/2000/svg">
<path d="M10.0003 5.50479C10.6862 5.50479 11.2423 4.94875 11.2423 4.26283C11.2423 3.57692 10.6862 3.02087 10.0003 3.02087C9.31441 3.02087 8.75836 3.57692 8.75836 4.26283C8.75836 4.94875 9.31441 5.50479 10.0003 5.50479Z" fill="#404040"/>
<path d="M2.83083 7.36774C3.51674 7.36774 4.07279 6.8117 4.07279 6.12578C4.07279 5.43986 3.51674 4.88382 2.83083 4.88382C2.14491 4.88382 1.58887 5.43986 1.58887 6.12578C1.58887 6.8117 2.14491 7.36774 2.83083 7.36774Z" fill="#404040"/>
<path d="M8.91884 7.11468C9.46794 6.41255 10.5381 6.43654 11.0552 7.16256L13.7503 10.9467L14.9803 9.21984C15.8023 8.06571 17.619 8.82084 17.3806 10.2176L16.4651 15.5835C16.2874 16.6244 15.3853 17.3857 14.3293 17.3857H5.67143C4.61544 17.3857 3.71325 16.6245 3.53563 15.5835L2.56255 9.88056C2.32965 8.51563 4.07417 7.7442 4.92717 8.83492L6.25035 10.5268L8.91884 7.11468Z" fill="#404040"/>
<path d="M18.4118 6.12578C18.4118 6.8117 17.8557 7.36774 17.1698 7.36774C16.4839 7.36774 15.9279 6.8117 15.9279 6.12578C15.9279 5.43986 16.4839 4.88382 17.1698 4.88382C17.8557 4.88382 18.4118 5.43986 18.4118 6.12578Z" fill="#404040"/>
</svg>
