<svg width="20" height="20" viewBox="0 0 20 20" fill="none" xmlns="http://www.w3.org/2000/svg">
<path fill-rule="evenodd" clip-rule="evenodd" d="M5.21163 2.27054C5.45659 1.35637 6.39629 0.813865 7.3105 1.05882L8.31712 1.32853C8.67539 1.42452 8.88801 1.79277 8.79201 2.15102C8.69601 2.50928 8.90863 2.87753 9.2669 2.97352L13.4052 4.08233C13.7635 4.17833 14.1317 3.96572 14.2277 3.60747C14.3237 3.24921 14.692 3.0366 15.0503 3.1326L15.9338 3.36934C16.7801 3.59608 17.2823 4.4659 17.0556 5.31212L13.8368 17.3239C13.61 18.1701 12.7402 18.6723 11.8939 18.4456L11.1446 18.2448C10.7122 18.1289 10.4556 17.6845 10.5714 17.2521C10.6873 16.8197 10.4307 16.3753 9.9983 16.2594L6.12842 15.2226C5.69602 15.1067 5.25157 15.3633 5.13571 15.7957C5.01985 16.228 4.5754 16.4846 4.143 16.3688L3.2706 16.135C2.35639 15.8901 1.81385 14.9504 2.05882 14.0362L5.21163 2.27054ZM10.4723 6.09244C10.6692 5.87281 11.0322 5.97008 11.093 6.25875L11.3628 7.54093C11.3866 7.65427 11.4635 7.74923 11.5694 7.79613L12.7676 8.32659C13.0373 8.44602 13.057 8.8213 12.8012 8.96827L11.6651 9.62106C11.5647 9.67876 11.4981 9.78124 11.4862 9.89646L11.3519 11.1998C11.3217 11.4933 10.9709 11.6279 10.752 11.4301L9.7801 10.5514C9.69418 10.4737 9.57615 10.442 9.4629 10.4664L8.18179 10.7414C7.89336 10.8033 7.65685 10.5113 7.77739 10.2421L8.31281 9.04618C8.36014 8.94046 8.35374 8.81844 8.29562 8.71825L7.63813 7.58489C7.4901 7.32972 7.69479 7.01455 7.98811 7.04599L9.29095 7.18563C9.40612 7.19798 9.52021 7.15419 9.59753 7.06795L10.4723 6.09244ZM12.0237 13.8914L13.3659 14.251L13.6247 13.2851L12.2825 12.9254L12.0237 13.8914ZM4.50768 11.8776L5.84984 12.2372L6.10867 11.2713L4.76652 10.9117L4.50768 11.8776ZM7.01303 12.549L8.35518 12.9086L8.61402 11.9427L7.27186 11.5831L7.01303 12.549ZM10.8605 13.5798L9.51837 13.2202L9.7772 12.2543L11.1194 12.6139L10.8605 13.5798Z" fill="#404040"/>
</svg>
