<svg width="20" height="20" viewBox="0 0 20 20" fill="none" xmlns="http://www.w3.org/2000/svg">
<path fill-rule="evenodd" clip-rule="evenodd" d="M2.91429 4C2.40934 4 2 4.40294 2 4.9V15.1C2 15.5971 2.40934 16 2.91429 16H17.0857C17.5907 16 18 15.5971 18 15.1V4.9C18 4.40294 17.5907 4 17.0857 4H2.91429ZM17.0857 4.9H10.4572V7.90604C11.4464 8.10552 12.1905 8.96723 12.1905 10C12.1905 11.0328 11.4464 11.8945 10.4572 12.094V15.1H17.0857V12.6531H15.7381C15.2332 12.6531 14.8238 12.2502 14.8238 11.7531V8.62189C14.8238 8.12484 15.2332 7.72189 15.7381 7.72189H17.0857V4.9ZM17.0857 8.62189V11.7531H15.7381V8.62189H17.0857ZM10.4572 11.1603C10.9355 10.9853 11.2762 10.5318 11.2762 10C11.2762 9.46823 10.9355 9.01478 10.4572 8.83973V11.1603ZM9.54288 8.85439L9.54288 11.1456C9.08469 10.9609 8.76194 10.5176 8.76194 10C8.76194 9.48247 9.08469 9.03913 9.54288 8.85439ZM9.54288 7.91408C8.57269 8.12777 7.84766 8.98055 7.84766 10C7.84766 11.0195 8.57269 11.8723 9.54288 12.086V15.1H2.91429V12.6531H4.25712C4.76207 12.6531 5.17141 12.2502 5.17141 11.7531V8.62189C5.17141 8.12484 4.76207 7.72189 4.25712 7.72189H2.91429V4.9H9.54288V7.91408ZM2.91429 8.62189H4.25712V11.7531H2.91429V8.62189Z" fill="#404040"/>
</svg>
