<svg width="20" height="20" viewBox="0 0 20 20" fill="none" xmlns="http://www.w3.org/2000/svg">
<path fill-rule="evenodd" clip-rule="evenodd" d="M17.135 12.6178C17.135 16.7429 13.556 18.5324 10.2802 18.5324C5.3362 18.5324 2.63672 15.0746 2.63672 11.7989C2.63672 9.25957 3.96791 5.74071 8.7559 1.33372C9.30345 0.829742 10.1972 1.27828 10.2157 2.02223C10.2639 3.95068 10.6021 5.81775 11.0542 6.82643C11.185 7.11838 11.5442 7.049 11.6508 6.74737C11.8802 6.09862 12.2579 5.19109 12.7534 4.46411C13.1199 3.92635 13.7584 4.26649 13.8224 4.91411C14.0183 6.89436 14.8692 8.02932 15.6596 9.08341C16.4258 10.1054 17.135 11.0513 17.135 12.6178ZM11.747 13.6234C13.1926 14.404 11.7181 16.1965 9.26059 16.1098C7.55605 16.0496 6.43652 14.5882 6.3405 13.4191C6.08203 10.2719 7.59454 11.1765 9.97484 12.6001C10.5232 12.9281 11.1176 13.2836 11.747 13.6234Z" fill="#404040"/>
</svg>
