<svg width="20" height="20" viewBox="0 0 20 20" fill="none" xmlns="http://www.w3.org/2000/svg">
<path d="M16.309 12.4543L16.3069 12.4559L16.301 12.4543H16.309Z" fill="#404040"/>
<path fill-rule="evenodd" clip-rule="evenodd" d="M16.3069 12.4559L16.269 12.485H16.261C16.261 12.2165 16.317 11.4265 16.3731 11.043L16.6531 9.21743C16.9252 7.65268 16.5651 6.07258 15.6448 4.76862C15.0526 3.93255 14.2524 3.24222 13.3241 2.78967C13.4201 1.9536 12.8519 1.2019 11.9957 1.03316C11.1474 0.864407 10.2991 1.35531 10.0591 2.15303C9.03475 2.22206 8.01844 2.55189 7.12216 3.11182C5.74572 3.9709 4.77742 5.29788 4.3853 6.83962L3.56904 9.87708C3.56904 9.87708 3.53703 9.99214 3.425 9.96913C2.92084 9.87708 2.42468 10.2069 2.32065 10.6901L2.01656 12.0478C1.92853 12.462 2.20061 12.8609 2.61674 12.9529C3.41207 13.1446 3.88429 13.2548 4.16667 13.3208C4.35875 13.3656 4.46303 13.3899 4.52134 13.4055C5.20955 13.5665 5.89777 13.7276 6.58599 13.881L11.7556 14.8858C12.4518 15.0009 13.156 15.1159 13.8523 15.2233L14.4852 15.3196C15.5834 15.4867 15.7683 15.5148 15.7889 15.5148C15.8089 15.5148 15.8289 15.5167 15.8488 15.5186C15.8688 15.5206 15.8889 15.5225 15.9089 15.5225C16.293 15.5225 16.6211 15.2693 16.7012 14.8935L16.9972 13.4668C17.0291 12.955 16.7832 12.5877 16.3069 12.4559ZM15.9089 14.7554L13.9803 14.464C13.2921 14.3566 12.5879 14.2415 11.9077 14.1265L6.75404 13.1216C6.07383 12.9759 5.39362 12.8225 4.7134 12.6614L2.8008 12.2012L3.1129 10.8359C3.1289 10.7438 3.20893 10.7055 3.25694 10.7055H3.26495C3.80912 10.8359 4.24926 10.4754 4.35329 10.0535L5.16954 7.01604C5.51365 5.65838 6.36192 4.49249 7.57029 3.74079C8.35454 3.24989 9.23482 2.96609 10.1231 2.90472L10.6833 2.86637L10.8433 2.35246C10.9714 1.93826 11.4115 1.68514 11.8516 1.76951C12.2998 1.85388 12.5959 2.25274 12.5479 2.68995L12.4838 3.21921L12.972 3.46466C13.7802 3.86352 14.4765 4.45414 14.9966 5.19049C15.8049 6.33338 16.117 7.71404 15.8769 9.08704L15.5888 10.9203C15.5568 11.1043 15.4128 12.508 15.4928 12.7228C15.5808 12.9682 15.8129 13.1447 16.125 13.1984C16.189 13.2137 16.221 13.2367 16.221 13.3671L15.9169 14.7554H15.9089Z" fill="#404040"/>
<path d="M9.53891 17.9616C8.60262 17.7929 7.86639 17.0565 7.57029 15.9904H7.5783L7.41025 15.3997L12.4998 16.3355L12.1237 16.8264C11.5395 17.5781 10.7553 18 9.95504 18C9.811 18 9.67495 17.9847 9.53891 17.9616Z" fill="#404040"/>
</svg>
