<svg width="20" height="20" viewBox="0 0 20 20" fill="none" xmlns="http://www.w3.org/2000/svg">
<path d="M8.11574 2.93005C7.8396 2.93005 7.61574 3.15391 7.61574 3.43005V17.109C7.61574 17.3807 7.83276 17.6027 8.10442 17.6088L11.9035 17.6949C12.0381 17.6979 12.1682 17.6466 12.2644 17.5525C12.3606 17.4585 12.4149 17.3296 12.4149 17.195V3.43005C12.4149 3.15391 12.191 2.93005 11.9149 2.93005H8.11574Z" fill="#404040"/>
<path d="M2.11426 8.7113C1.83812 8.7113 1.61426 8.93516 1.61426 9.2113V17.1451C1.61426 17.4187 1.83413 17.6414 2.10769 17.645L5.90682 17.6949C6.04055 17.6967 6.16942 17.6448 6.26461 17.5508C6.3598 17.4569 6.41338 17.3287 6.41338 17.195V9.2113C6.41338 8.93516 6.18953 8.7113 5.91338 8.7113H2.11426Z" fill="#404040"/>
<path d="M14.1173 6.1786C13.8411 6.1786 13.6173 6.40246 13.6173 6.6786V17.195C13.6173 17.4712 13.8411 17.695 14.1173 17.695H17.9164C18.1925 17.695 18.4164 17.4712 18.4164 17.195V6.6786C18.4164 6.40246 18.1925 6.1786 17.9164 6.1786H14.1173Z" fill="#404040"/>
</svg>
