<svg width="20" height="20" viewBox="0 0 20 20" fill="none" xmlns="http://www.w3.org/2000/svg">
<path d="M8.4 1.99951H16.4C16.8243 1.99951 17.2313 2.16808 17.5314 2.46814C17.8314 2.7682 18 3.17517 18 3.59951V11.5995C18 12.0239 17.8314 12.4308 17.5314 12.7309C17.2313 13.0309 16.8243 13.1995 16.4 13.1995H14.8V6.79951C14.8 6.37517 14.6314 5.9682 14.3314 5.66814C14.0313 5.36808 13.6243 5.19951 13.2 5.19951H6.8V3.59951C6.8 3.17517 6.96857 2.7682 7.26863 2.46814C7.56869 2.16808 7.97565 1.99951 8.4 1.99951Z" fill="#404040"/>
<path d="M3.6 6.79951H11.6C12.4824 6.79951 13.2 7.51711 13.2 8.39951V16.3995C13.2 17.2819 12.4824 17.9995 11.6 17.9995H3.6C2.7176 17.9995 2 17.2819 2 16.3995V8.39951C2 7.51711 2.7176 6.79951 3.6 6.79951Z" fill="#404040"/>
</svg>
