<svg width="20" height="20" viewBox="0 0 20 20" fill="none" xmlns="http://www.w3.org/2000/svg">
<path d="M15.72 14.41C17.31 13.06 18.3 11.52 18.3 10.84C18.3 9.48996 14.43 4.79996 9.65 4.79996C8.38 4.79996 7.18 5.12996 6.09 5.63996L3.41 3.19996C3.1 2.91996 2.64 2.93996 2.36 3.24996C2.09 3.54996 2.11 4.00996 2.41 4.27996L4.74 6.39996L5.51 7.10996L7.18 8.61996L8.28 9.61996C7.96 9.96996 7.77 10.44 7.77 10.95C7.77 12.05 8.67 12.95 9.77 12.95C10.34 12.95 10.86 12.7 11.23 12.31L12.09 13.1L14.52 15.31L16 16.65C16.3 16.93 16.76 16.91 17.04 16.61C17.31 16.31 17.29 15.84 16.99 15.56L15.72 14.41ZM12.82 11.76L10.34 9.50996L11.76 10.8L10.32 9.47996L10.34 9.49996L9.73 8.93996L8.41 7.73996C8.79 7.57996 9.21 7.49996 9.65 7.49996C11.49 7.49996 12.98 8.98996 12.98 10.83C12.98 11.16 12.93 11.47 12.84 11.77L12.82 11.75V11.76Z" fill="#404040"/>
<path d="M10.9 13.93C10.51 14.08 10.09 14.17 9.65 14.17C7.81 14.17 6.32 12.68 6.32 10.84C6.32 10.51 6.37 10.18 6.46 9.87996L4.34 7.94996L3.59 7.26996C1.99 8.61996 1 10.16 1 10.84C1 12.19 4.88 16.88 9.65 16.88C10.92 16.88 12.13 16.55 13.22 16.04L12.41 15.3L10.9 13.93Z" fill="#404040"/>
</svg>
