<svg width="20" height="20" viewBox="0 0 20 20" fill="none" xmlns="http://www.w3.org/2000/svg">
<path fill-rule="evenodd" clip-rule="evenodd" d="M7.37083 12.0886C7.37083 13.3228 8.48881 14.0562 10.0093 14.0562C11.5297 14.0562 12.6298 13.3228 12.6298 12.0528C12.6298 11.3015 12.2005 10.6844 11.3598 10.4518V10.425C12.0216 10.1925 12.3436 9.7095 12.3436 9.1371C12.3436 8.06384 11.4403 7.402 10.0003 7.402C8.5693 7.402 7.63914 8.10856 7.63914 9.16393C7.63914 9.75422 7.95218 10.2193 8.63191 10.4608V10.4876C7.81802 10.738 7.37083 11.3373 7.37083 12.0886ZM10.9662 9.23548C10.9662 9.71845 10.6174 10.0404 9.99137 10.0404C9.37424 10.0404 9.01649 9.71845 9.01649 9.23548C9.01649 8.74357 9.37424 8.41265 9.99137 8.41265C10.6174 8.41265 10.9662 8.74357 10.9662 9.23548ZM11.1541 11.9991C11.1541 12.5805 10.6979 12.965 10.0093 12.965C9.28481 12.965 8.84656 12.5894 8.84656 11.9991C8.84656 11.382 9.29375 10.9974 10.0093 10.9974C10.7248 10.9974 11.1541 11.382 11.1541 11.9991Z" fill="#404040"/>
<path fill-rule="evenodd" clip-rule="evenodd" d="M18.7829 8.51128C18.7829 8.80895 18.5244 9.04069 18.2285 9.00832L15.434 8.70262V16.4153C15.434 16.9676 14.9863 17.4153 14.434 17.4153H5.13956C4.58727 17.4153 4.13955 16.9676 4.13955 16.4153V8.70262L1.78 8.99849C1.48151 9.03591 1.21779 8.8032 1.21779 8.50237L1.21777 4.15471C1.21777 3.92247 1.37768 3.72081 1.6038 3.66787L6.2308 2.58459H7.74596C7.72823 2.69919 7.71904 2.8166 7.71904 2.93616C7.71904 3.05572 7.72823 3.17313 7.74596 3.28772C7.91503 4.38072 8.85997 5.21745 10.0003 5.21745C11.1407 5.21745 12.0856 4.38073 12.2547 3.28772C12.2724 3.17313 12.2816 3.05572 12.2816 2.93616C12.2816 2.8166 12.2724 2.69919 12.2547 2.58459H12.9756L18.3819 3.6772C18.6151 3.72434 18.7828 3.92933 18.7828 4.16729L18.7829 8.51128ZM2.21778 4.55116L6.3463 3.58459H6.7831C7.08409 5.08623 8.41011 6.21745 10.0003 6.21745C11.5671 6.21745 12.8773 5.1194 13.2036 3.65089L17.7828 4.57635L17.7829 7.95361L15.5427 7.70855C15.2603 7.67765 14.978 7.76837 14.7664 7.95806C14.5548 8.14774 14.434 8.41847 14.434 8.70262V16.4153L5.13956 16.4153L5.13955 8.70262C5.13955 8.41572 5.01633 8.14264 4.80121 7.95281C4.58609 7.76298 4.29981 7.67469 4.01514 7.71039L2.21779 7.93576L2.21778 4.55116Z" fill="#404040"/>
</svg>
