<svg width="20" height="20" viewBox="0 0 20 20" fill="none" xmlns="http://www.w3.org/2000/svg">
<path d="M11.5095 6.70128C11.2478 6.57046 10.9237 6.48721 10.5372 6.45153V5.4971H9.68981V6.45153C9.42222 6.48126 9.16651 6.53775 8.9227 6.621C8.67889 6.70426 8.46482 6.82021 8.28047 6.96888C8.10207 7.1116 7.95638 7.28999 7.8434 7.50407C7.73636 7.7122 7.68284 7.95601 7.68284 8.2355C7.68284 8.55662 7.74231 8.82421 7.86124 9.03829C7.98017 9.25237 8.13775 9.43671 8.33399 9.59132C8.53618 9.74594 8.76809 9.87973 9.02974 9.99272C9.29734 10.1057 9.57385 10.2187 9.85929 10.3317C10.1864 10.4625 10.4242 10.5785 10.5729 10.6796C10.7275 10.7747 10.8048 10.9085 10.8048 11.0809C10.8048 11.2474 10.7483 11.3783 10.6353 11.4734C10.5283 11.5686 10.3796 11.6161 10.1893 11.6161C9.95146 11.6161 9.76117 11.5418 9.61845 11.3931C9.47574 11.2385 9.40438 11.0185 9.40438 10.7331H7.54904C7.54904 11.3991 7.73933 11.9254 8.11991 12.3119C8.5005 12.6925 9.0238 12.9184 9.68981 12.9898V13.9353H10.5372V12.9898C11.2092 12.9244 11.7325 12.7192 12.1071 12.3743C12.4817 12.0294 12.6691 11.5596 12.6691 10.965C12.6691 10.6439 12.6007 10.3733 12.4639 10.1533C12.3331 9.92731 12.1576 9.73702 11.9376 9.5824C11.7235 9.42779 11.4797 9.29697 11.2062 9.18993C10.9386 9.08289 10.671 8.9818 10.4034 8.88665C10.118 8.78556 9.90389 8.6815 9.76117 8.57446C9.61845 8.46742 9.5471 8.33362 9.5471 8.17306C9.5471 8.00061 9.60359 7.87573 9.71657 7.79843C9.82956 7.72112 9.96336 7.68247 10.118 7.68247C10.5283 7.68247 10.7334 7.94115 10.7334 8.4585H12.5888C12.5888 8.23253 12.5531 8.00953 12.4817 7.78951C12.4163 7.56354 12.3033 7.35838 12.1428 7.17404C11.9822 6.98375 11.7711 6.82616 11.5095 6.70128Z" fill="#404040"/>
<path fill-rule="evenodd" clip-rule="evenodd" d="M10 2C5.58172 2 2 5.58172 2 10C2 14.4183 5.58172 18 10 18C14.4183 18 18 14.4183 18 10C18 5.58172 14.4183 2 10 2ZM2.97308 10C2.97308 6.11914 6.11914 2.97308 10 2.97308C13.8809 2.97308 17.0269 6.11914 17.0269 10C17.0269 13.8809 13.8809 17.0269 10 17.0269C6.11914 17.0269 2.97308 13.8809 2.97308 10Z" fill="#404040"/>
</svg>
