<svg width="20" height="20" viewBox="0 0 20 20" fill="none" xmlns="http://www.w3.org/2000/svg">
<path fill-rule="evenodd" clip-rule="evenodd" d="M2 10C2 5.58172 5.58172 2 10 2C14.4183 2 18 5.58172 18 10C18 14.4183 14.4183 18 10 18C5.58172 18 2 14.4183 2 10ZM11.5094 6.70118C11.2478 6.57036 10.9237 6.48711 10.5372 6.45143V5.497H9.68976V6.45143C9.42217 6.48116 9.16646 6.53765 8.92265 6.6209C8.67884 6.70416 8.46477 6.82012 8.28042 6.96878C8.10203 7.1115 7.95633 7.2899 7.84335 7.50397C7.73631 7.7121 7.68279 7.95591 7.68279 8.2354C7.68279 8.55652 7.74226 8.82412 7.86119 9.03819C7.98012 9.25227 8.1377 9.43661 8.33394 9.59123C8.53613 9.74584 8.76804 9.87964 9.02969 9.99262C9.29729 10.1056 9.57381 10.2186 9.85924 10.3316C10.1863 10.4624 10.4242 10.5784 10.5728 10.6795C10.7274 10.7746 10.8047 10.9084 10.8047 11.0808C10.8047 11.2474 10.7483 11.3782 10.6353 11.4733C10.5282 11.5685 10.3796 11.616 10.1893 11.616C9.95141 11.616 9.76112 11.5417 9.6184 11.393C9.47569 11.2384 9.40433 11.0184 9.40433 10.733H7.54899C7.54899 11.399 7.73928 11.9253 8.11986 12.3118C8.50045 12.6924 9.02375 12.9183 9.68976 12.9897V13.9352H10.5372V12.9897C11.2091 12.9243 11.7324 12.7191 12.1071 12.3742C12.4817 12.0293 12.669 11.5595 12.669 10.9649C12.669 10.6438 12.6006 10.3732 12.4638 10.1532C12.333 9.92721 12.1576 9.73692 11.9376 9.58231C11.7235 9.42769 11.4797 9.29687 11.2061 9.18983C10.9385 9.08279 10.671 8.9817 10.4034 8.88656C10.1179 8.78546 9.90384 8.6814 9.76112 8.57436C9.6184 8.46732 9.54705 8.33352 9.54705 8.17296C9.54705 8.00051 9.60354 7.87563 9.71652 7.79833C9.82951 7.72102 9.96331 7.68237 10.1179 7.68237C10.5282 7.68237 10.7334 7.94105 10.7334 8.4584H12.5887C12.5887 8.23243 12.553 8.00943 12.4817 7.78941C12.4163 7.56344 12.3033 7.35828 12.1427 7.17394C11.9822 6.98365 11.7711 6.82606 11.5094 6.70118Z" fill="#404040"/>
</svg>
