<svg width="20" height="20" viewBox="0 0 20 20" fill="none" xmlns="http://www.w3.org/2000/svg">
<path fill-rule="evenodd" clip-rule="evenodd" d="M4.46049 2C3.1016 2 2 3.10207 2 4.46154V15.5385C2 16.8979 3.1016 18 4.46049 18H13.0722C14.4311 18 15.5327 16.8979 15.5327 15.5385V11.2101C15.1855 11.2723 14.8152 11.1851 14.5261 10.943L11.8746 13.8963C11.6845 14.1081 11.4203 14.3543 11.1348 14.405L9.83808 14.635C9.04267 14.7761 8.3295 14.125 8.39739 13.3197L8.50618 12.0292C8.52826 11.7673 8.72731 11.4241 8.90412 11.2272L9.05742 11.0564H4.61417C4.34239 11.0564 4.12207 10.836 4.12207 10.5641C4.12207 10.2922 4.34239 10.0718 4.61417 10.0718H9.17633C9.39248 10.0718 9.57608 10.2112 9.64218 10.4051L15.4298 3.95851C15.4435 3.94325 15.4574 3.92831 15.4715 3.91369C15.2226 2.81791 14.2428 2 13.0722 2H4.46049ZM4.61417 12.6872C4.34239 12.6872 4.12207 12.9076 4.12207 13.1795C4.12207 13.4514 4.34239 13.6718 4.61417 13.6718H7.12592C7.3977 13.6718 7.61802 13.4514 7.61802 13.1795C7.61802 12.9076 7.3977 12.6872 7.12592 12.6872H4.61417ZM4.61417 7.45641C4.34239 7.45641 4.12207 7.67682 4.12207 7.94872C4.12207 8.22061 4.34239 8.44103 4.61417 8.44103H11.0217C11.2935 8.44103 11.5138 8.22061 11.5138 7.94872C11.5138 7.67682 11.2935 7.45641 11.0217 7.45641H4.61417Z" fill="#404040"/>
<path d="M11.2644 13.348L16.9108 7.05864C17.0495 7.21254 17.0524 7.4495 16.9109 7.60708L15.0099 9.72455C14.8586 9.89312 14.8725 10.1525 15.041 10.3039C15.1001 10.357 15.1704 10.3898 15.2432 10.4027C15.2741 10.4081 15.3055 10.41 15.3366 10.4084C15.4052 10.4048 15.4729 10.3841 15.5327 10.3466C15.5644 10.3267 15.5939 10.3021 15.6201 10.2728L17.5211 8.15536C17.9654 7.66053 17.935 6.90486 17.4599 6.44705L17.79 6.07937C18.0927 5.74223 18.0649 5.22346 17.7279 4.92066L17.1981 4.4446C16.8611 4.1418 16.3425 4.16964 16.0398 4.50677L9.51422 11.7754L11.2644 13.348Z" fill="#404040"/>
<path d="M9.58971 13.8322C9.62389 13.835 9.65914 13.8334 9.69488 13.8271L10.9916 13.597L9.32344 12.0982L9.21456 13.3886C9.19498 13.6209 9.37034 13.8147 9.58971 13.8322Z" fill="#404040"/>
</svg>
