<svg width="20" height="20" viewBox="0 0 20 20" fill="none" xmlns="http://www.w3.org/2000/svg">
<path fill-rule="evenodd" clip-rule="evenodd" d="M16.8476 6.53868L13.449 3.13696C13.7971 3.10946 14.136 3.09112 14.4475 3.09112C15.0338 3.09112 15.5284 3.13696 15.904 3.21948C16.2888 3.30201 16.472 3.40287 16.527 3.43954C16.5544 3.47622 16.6277 3.58625 16.6918 3.82464C16.7651 4.06304 16.8201 4.38395 16.8476 4.76905C16.8934 5.27335 16.8934 5.86934 16.8293 6.52951L16.8476 6.53868ZM12.1757 2.19255C9.98626 2.57765 7.44876 3.5404 5.49755 5.49341C3.55549 7.43725 2.58446 9.98625 2.19972 12.1777C2.19972 12.1868 2.19972 12.196 2.19972 12.2143C1.99818 13.3696 1.96154 14.4424 2.03483 15.3135C2.07147 15.7444 2.13559 16.1387 2.23636 16.4688C2.32797 16.7805 2.45622 17.0923 2.66691 17.3123C2.70355 17.349 2.74936 17.3857 2.79516 17.4132C3.06998 17.6241 3.46388 17.7616 3.86695 17.8441C4.33415 17.945 4.91127 18 5.55251 18C6.19376 18 6.96325 17.945 7.7419 17.8075C7.79687 17.8075 7.85183 17.7983 7.90679 17.7799C10.0779 17.3857 12.5787 16.4138 14.5025 14.4974C16.4537 12.5444 17.4247 10.0046 17.8003 7.81318C18.0018 6.63954 18.0385 5.55759 17.9652 4.68653C17.9285 4.25559 17.8644 3.86132 17.7636 3.53123C17.6812 3.23782 17.5529 2.94441 17.3697 2.73352C17.3423 2.69685 17.3056 2.66017 17.269 2.63266C16.9941 2.3851 16.5728 2.24756 16.1422 2.15587C15.675 2.05501 15.0979 2 14.4566 2C13.7696 2 13.0001 2.06418 12.1848 2.20172L12.1757 2.19255ZM3.44556 16.533C3.44556 16.533 3.35396 16.3771 3.28983 16.1662C3.21655 15.9278 3.16158 15.6069 3.1341 15.2218C3.0883 14.7175 3.0883 14.1123 3.15242 13.4521L6.54186 16.8447C6.19376 16.8722 5.85481 16.8905 5.54335 16.8905C4.95707 16.8905 4.46239 16.8447 4.07765 16.7622C3.67458 16.6797 3.49137 16.5696 3.44556 16.533ZM10.8748 5.64012C11.1405 5.49341 11.2413 5.16332 11.1039 4.89742C10.9573 4.63152 10.6275 4.53066 10.3618 4.6682C10.0687 4.82407 9.7664 4.99828 9.4641 5.18166L9.39082 5.10831C9.18012 4.88825 8.83202 4.88825 8.61216 5.10831C8.41979 5.30086 8.40147 5.59427 8.54804 5.81433C8.40147 5.92436 8.2549 6.04355 8.10833 6.16275L8.06253 6.11691C7.85183 5.89685 7.50373 5.89685 7.28387 6.11691C7.06402 6.32779 7.06402 6.67622 7.28387 6.89628C7.21975 6.96046 7.15562 7.02464 7.0915 7.08883C7.02737 7.15301 6.96325 7.22636 6.89912 7.29054C6.68843 7.07966 6.34033 7.07966 6.12047 7.29054C5.90978 7.50143 5.90978 7.84986 6.12047 8.06991L6.16627 8.11576C6.04718 8.26246 5.93726 8.40917 5.81817 8.55587C5.60747 8.40917 5.30517 8.42751 5.1128 8.62006C4.90211 8.83095 4.90211 9.17937 5.1128 9.39943L5.18608 9.47278C5.00287 9.76619 4.82882 10.0688 4.67309 10.3622C4.52652 10.6281 4.63645 10.9673 4.90211 11.1049C5.16776 11.2516 5.50671 11.1415 5.64412 10.8756C5.75404 10.6739 5.86397 10.4722 5.98306 10.2705C6.19376 10.4264 6.49606 10.408 6.69759 10.2155C6.90829 10.0046 6.90829 9.65616 6.69759 9.4361L6.59682 9.33524C6.70675 9.18854 6.81668 9.04183 6.92661 8.89513C7.14646 9.09685 7.47624 9.08768 7.68694 8.87679C7.89763 8.6659 7.89763 8.31748 7.68694 8.09742L7.6503 8.06075C7.71442 7.99656 7.77855 7.92321 7.84267 7.85903C7.90679 7.79484 7.97092 7.73983 8.03504 7.67564L8.07169 7.71232C8.28238 7.93238 8.63048 7.93238 8.85034 7.71232C9.06103 7.50143 9.0702 7.16218 8.86866 6.95129C9.01523 6.83209 9.1618 6.72206 9.30837 6.61203L9.40914 6.71289C9.61983 6.93295 9.96794 6.93295 10.1878 6.71289C10.3802 6.52034 10.3985 6.21776 10.2428 5.99771C10.4535 5.86934 10.655 5.75931 10.8657 5.64928L10.8748 5.64012Z" fill="#404040"/>
</svg>
